<svg xmlns="http://www.w3.org/2000/svg" viewBox="0 0 800 1000">
  <defs>
    <style>
      .floor {
        stroke: #ffffff;
        stroke-width: 1;
        vector-effect: non-scaling-stroke;
      }
      .base-floor { fill: #555555; }
      .orange-floor { fill: #FF8C00; }
      .upper-floor { fill: #8FBC8F; }
      .roof { fill: #444444; }
    </style>
  </defs>

  <g transform="translate(400, 800) scale(1, 0.5) rotate(-45)">

    <g id="floor-0" class="floor base-floor" transform="translate(0, 0)">
      <path d="M0,0 L100,0 L120,20 L300,20 L350,50 L500,50 L500,150 L350,200 L150,200 L50,150 L0,100 Z" />
    </g>

    <g id="floor-1" class="floor base-floor" transform="translate(0, -30)">
      <path d="M0,0 L100,0 L120,20 L300,20 L350,50 L500,50 L500,150 L350,200 L150,200 L50,150 L0,100 Z" />
    </g>

    <g id="floor-2" class="floor base-floor" transform="translate(0, -60)">
      <path d="M0,0 L100,0 L120,20 L300,20 L350,50 L500,50 L500,150 L350,200 L150,200 L50,150 L0,100 Z" />
    </g>

    <g id="floor-3" class="floor orange-floor" transform="translate(0, -90)">
      <path d="M0,0 L100,0 L120,20 L300,20 L350,50 L500,50 L500,150 L350,200 L150,200 L50,150 L0,100 Z" />
    </g>

    <g id="floor-4" class="floor upper-floor" transform="translate(0, -120)">
      <path d="M0,0 L100,0 L130,30 L320,30 L370,60 L520,60 L520,160 L370,210 L170,210 L50,150 L0,100 Z" />
    </g>

    <g id="floor-5" class="floor upper-floor" transform="translate(0, -150)">
      <path d="M0,0 L100,0 L130,30 L320,30 L370,60 L520,60 L520,160 L370,210 L170,210 L50,150 L0,100 Z" />
    </g>

    <g id="floor-6" class="floor upper-floor" transform="translate(0, -180)">
      <path d="M0,0 L100,0 L130,30 L320,30 L370,60 L520,60 L520,160 L370,210 L170,210 L50,150 L0,100 Z" />
    </g>

    <g id="floor-7" class="floor upper-floor" transform="translate(0, -210)">
      <path d="M0,0 L100,0 L130,30 L320,30 L370,60 L520,60 L520,160 L370,210 L170,210 L50,150 L0,100 Z" />
    </g>

    <g id="floor-8" class="floor upper-floor" transform="translate(0, -240)">
      <path d="M0,0 L100,0 L130,30 L320,30 L370,60 L520,60 L520,160 L370,210 L170,210 L50,150 L0,100 Z" />
    </g>

    <g id="floor-9" class="floor upper-floor" transform="translate(0, -270)">
      <path d="M0,0 L100,0 L130,30 L320,30 L370,60 L520,60 L520,160 L370,210 L170,210 L50,150 L0,100 Z" />
    </g>

    <g id="floor-10" class="floor upper-floor" transform="translate(0, -300)">
      <path d="M0,0 L100,0 L130,30 L320,30 L370,60 L520,60 L520,160 L370,210 L170,210 L50,150 L0,100 Z" />
    </g>

    <g id="floor-11" class="floor upper-floor" transform="translate(0, -330)">
      <path d="M0,0 L100,0 L130,30 L320,30 L370,60 L520,60 L520,160 L370,210 L170,210 L50,150 L0,100 Z" />
    </g>

    <g id="roof" class="floor roof" transform="translate(0, -360)">
      <path d="M0,0 L100,0 L130,30 L320,30 L370,60 L520,60 L520,160 L370,210 L170,210 L50,150 L0,100 Z" />
    </g>

  </g>
</svg>