<svg width="1991" height="909" viewBox="0 0 1991 909" fill="none" xmlns="http://www.w3.org/2000/svg">
<g id="map">
<g id="outline">
<g id="map-otl">
<mask id="path-1-inside-1_152_246" fill="white">
<path d="M1016.3 677.557C1064.51 690.92 1111.55 701.393 1161.51 710.172L1170.55 662.255C1122.7 653.878 1075.63 643.264 1029.44 630.525L1016.3 677.557Z"/>
<path d="M898.314 587.82L809.359 822.325C860.597 836.775 912.562 849.492 965.186 860.41L1016.3 677.557L1029.44 630.525C984.878 618.234 941.135 603.966 898.314 587.82Z"/>
<path d="M1242.88 278.769C1206.12 272.501 1169.95 264.462 1134.48 254.742L1041.97 585.683C1086.92 597.922 1132.71 608.1 1179.25 616.11L1193.3 541.636L1242.88 278.769Z"/>
<path d="M1041.97 585.683L1134.48 254.742C1101.24 245.637 1068.61 235.057 1036.67 223.077L914.664 544.717C956.25 560.217 998.719 573.904 1041.97 585.683Z"/>
<path d="M914.664 544.717L1036.67 223.077C1003.2 210.523 970.481 196.431 938.61 180.888L889.288 282.708L787.281 490.291C828.705 510.339 871.202 528.518 914.664 544.717Z"/>
<path d="M175.075 16.4085C171.468 11.0823 167.893 5.73191 164.352 0.357771H87.3016C86.9514 0.357771 86.6086 0.458712 86.3142 0.648451L1.50938 55.3063C0.672158 55.8459 0.423078 56.9578 0.951004 57.8024C13.3267 77.6023 26.1002 97.1278 39.2605 116.368L175.075 16.4085Z"/>
<path d="M409.204 350.267C408.537 351.033 407.372 351.105 406.615 350.428L362.546 311.017L308.611 366.016L254.676 421.016L285.794 452.129L316.857 416.105C322.788 443.288 340.158 466.197 363.669 479.535C364.812 480.183 365.969 480.808 367.14 481.411C380.374 488.219 395.385 492.062 411.292 492.062C437.693 492.062 459.152 485.094 475.046 469.955L534.113 389.844C501.793 366.043 470.449 340.995 440.152 314.769L409.204 350.267Z"/>
<path d="M49.5677 441.694C48.7182 442.46 48.7759 443.81 49.6882 444.5C98.1112 481.11 148.029 515.845 199.334 548.602L285.794 452.129L254.676 421.016L167.1 335.718L49.5677 441.694Z"/>
<path d="M194.495 311.017L167.1 335.718L254.676 421.016L308.611 366.016L225.278 282.825L194.495 311.017Z"/>
<path d="M362.546 311.017L281.802 231.06L225.278 282.825L308.611 366.016L362.546 311.017Z"/>
<path d="M318.69 197.277C266.415 140.796 218.375 80.3383 175.075 16.4085L39.2605 116.368C86.2458 185.059 138.161 250.112 194.495 311.017L225.278 282.825L281.802 231.06L318.69 197.277Z"/>
<path d="M316.857 416.105L285.794 452.129L199.334 548.602C223.294 563.9 247.557 578.765 272.112 593.188L363.669 479.535C340.158 466.197 322.788 443.288 316.857 416.105Z"/>
<path d="M475.046 469.955L351.389 637.666C447.805 689.276 548.331 734.21 652.348 771.85L769.063 532.075C686.251 491.688 607.655 443.998 534.113 389.844L475.046 469.955Z"/>
<path d="M475.046 469.955C459.152 485.094 437.693 492.062 411.292 492.062C395.385 492.062 380.374 488.219 367.14 481.411C365.969 480.808 364.812 480.183 363.669 479.535L272.112 593.188C298.212 608.519 324.642 623.35 351.389 637.666L475.046 469.955Z"/>
<path d="M769.063 532.075L652.348 771.85C703.854 790.488 756.216 807.338 809.359 822.325L898.314 587.82C854.217 571.193 811.097 552.575 769.063 532.075Z"/>
<path d="M1161.51 710.172C1111.55 701.393 1064.51 690.92 1016.3 677.557L965.186 860.41C1018.78 871.53 1073.06 880.783 1127.95 888.1L1161.51 710.172Z"/>
<path d="M1434.41 562.355C1362.26 562.355 1291.4 556.889 1222.19 546.348C1212.53 544.876 1202.9 543.305 1193.3 541.636L1179.25 616.11L1170.55 662.255L1161.51 710.172L1127.95 888.1C1137.14 889.325 1146.35 890.496 1155.58 891.613C1156.56 891.731 1157.54 891.849 1158.52 891.967L1159.33 892.063C1249.56 902.828 1341.39 908.367 1434.52 908.367L1838.42 908.368V738.575C1838.42 737.568 1837.6 736.752 1836.6 736.752H1610.29C1609.29 736.752 1608.47 735.936 1608.47 734.929V564.178C1608.47 563.171 1607.65 562.355 1606.65 562.355H1434.41Z"/>
<path d="M1447.58 294.923H1434.41C1369.19 294.923 1305.18 289.39 1242.88 278.769L1193.3 541.636C1202.9 543.305 1212.53 544.876 1222.19 546.348C1291.4 556.889 1362.26 562.355 1434.41 562.355H1606.65C1607.65 562.355 1608.47 563.171 1608.47 564.178V734.929C1608.47 735.936 1609.29 736.752 1610.29 736.752H1836.6C1837.6 736.752 1838.42 737.568 1838.42 738.575V908.368L1952.75 908.368C1953.75 908.368 1954.57 907.552 1954.57 906.545V694.493C1954.57 693.487 1955.38 692.671 1956.39 692.671H1988.9C1989.91 692.671 1990.73 691.854 1990.73 690.848V605.965C1990.73 604.958 1989.91 604.142 1988.9 604.142H1956.39C1955.38 604.142 1954.57 603.326 1954.57 602.319V482.524C1954.57 481.517 1953.75 480.701 1952.75 480.701H1760.63C1759.62 480.701 1758.81 479.885 1758.81 478.878V296.746C1758.81 295.739 1757.99 294.923 1756.98 294.923H1447.58Z"/>
<path d="M787.281 490.291L889.288 282.708L787.276 226.233L738.665 307.735C738.133 308.627 736.965 308.895 736.098 308.325L691.687 279.111C690.849 278.561 689.724 278.789 689.168 279.623L614.412 391.761C669.561 428.304 727.296 461.258 787.281 490.291Z"/>
<path d="M175.075 16.4085C218.375 80.3383 266.415 140.796 318.69 197.277L281.802 231.06L362.546 311.017L406.615 350.428C407.372 351.105 408.537 351.033 409.204 350.267L440.152 314.769C470.449 340.995 501.793 366.043 534.113 389.844C607.655 443.998 686.251 491.688 769.063 532.075C811.097 552.575 854.217 571.193 898.314 587.82C941.135 603.966 984.878 618.234 1029.44 630.525C1075.63 643.264 1122.7 653.878 1170.55 662.255L1179.25 616.11C1132.71 608.1 1086.92 597.922 1041.97 585.683C998.719 573.904 956.25 560.217 914.664 544.717C871.202 528.518 828.705 510.339 787.281 490.291C727.296 461.258 669.561 428.304 614.412 391.761L689.168 279.623C689.724 278.789 690.849 278.561 691.687 279.111L736.098 308.325C736.965 308.895 738.133 308.627 738.665 307.735L787.276 226.233L889.288 282.708L938.61 180.888C870.905 147.87 807.025 108.302 747.862 63.0128C747.05 62.3913 745.886 62.5571 745.281 63.3817L652.348 190.097C613.636 160.512 576.649 128.784 541.565 95.0905C522.447 76.7307 503.894 57.787 485.935 38.2883C485.257 37.5517 484.111 37.4987 483.369 38.1706L460.563 58.8081L408.794 0.964928C408.448 0.578583 407.954 0.357771 407.435 0.357771H214.117H164.352C167.893 5.73191 171.468 11.0823 175.075 16.4085Z"/>
</mask>
<path d="M1016.3 677.557C1064.51 690.92 1111.55 701.393 1161.51 710.172L1170.55 662.255C1122.7 653.878 1075.63 643.264 1029.44 630.525L1016.3 677.557Z" fill="white"/>
<path d="M898.314 587.82L809.359 822.325C860.597 836.775 912.562 849.492 965.186 860.41L1016.3 677.557L1029.44 630.525C984.878 618.234 941.135 603.966 898.314 587.82Z" fill="white"/>
<path d="M1242.88 278.769C1206.12 272.501 1169.95 264.462 1134.48 254.742L1041.97 585.683C1086.92 597.922 1132.71 608.1 1179.25 616.11L1193.3 541.636L1242.88 278.769Z" fill="white"/>
<path d="M1041.97 585.683L1134.48 254.742C1101.24 245.637 1068.61 235.057 1036.67 223.077L914.664 544.717C956.25 560.217 998.719 573.904 1041.97 585.683Z" fill="white"/>
<path d="M914.664 544.717L1036.67 223.077C1003.2 210.523 970.481 196.431 938.61 180.888L889.288 282.708L787.281 490.291C828.705 510.339 871.202 528.518 914.664 544.717Z" fill="white"/>
<path d="M175.075 16.4085C171.468 11.0823 167.893 5.73191 164.352 0.357771H87.3016C86.9514 0.357771 86.6086 0.458712 86.3142 0.648451L1.50938 55.3063C0.672158 55.8459 0.423078 56.9578 0.951004 57.8024C13.3267 77.6023 26.1002 97.1278 39.2605 116.368L175.075 16.4085Z" fill="white"/>
<path d="M409.204 350.267C408.537 351.033 407.372 351.105 406.615 350.428L362.546 311.017L308.611 366.016L254.676 421.016L285.794 452.129L316.857 416.105C322.788 443.288 340.158 466.197 363.669 479.535C364.812 480.183 365.969 480.808 367.14 481.411C380.374 488.219 395.385 492.062 411.292 492.062C437.693 492.062 459.152 485.094 475.046 469.955L534.113 389.844C501.793 366.043 470.449 340.995 440.152 314.769L409.204 350.267Z" fill="white"/>
<path d="M49.5677 441.694C48.7182 442.46 48.7759 443.81 49.6882 444.5C98.1112 481.11 148.029 515.845 199.334 548.602L285.794 452.129L254.676 421.016L167.1 335.718L49.5677 441.694Z" fill="white"/>
<path d="M194.495 311.017L167.1 335.718L254.676 421.016L308.611 366.016L225.278 282.825L194.495 311.017Z" fill="white"/>
<path d="M362.546 311.017L281.802 231.06L225.278 282.825L308.611 366.016L362.546 311.017Z" fill="white"/>
<path d="M318.69 197.277C266.415 140.796 218.375 80.3383 175.075 16.4085L39.2605 116.368C86.2458 185.059 138.161 250.112 194.495 311.017L225.278 282.825L281.802 231.06L318.69 197.277Z" fill="white"/>
<path d="M316.857 416.105L285.794 452.129L199.334 548.602C223.294 563.9 247.557 578.765 272.112 593.188L363.669 479.535C340.158 466.197 322.788 443.288 316.857 416.105Z" fill="white"/>
<path d="M475.046 469.955L351.389 637.666C447.805 689.276 548.331 734.21 652.348 771.85L769.063 532.075C686.251 491.688 607.655 443.998 534.113 389.844L475.046 469.955Z" fill="white"/>
<path d="M475.046 469.955C459.152 485.094 437.693 492.062 411.292 492.062C395.385 492.062 380.374 488.219 367.14 481.411C365.969 480.808 364.812 480.183 363.669 479.535L272.112 593.188C298.212 608.519 324.642 623.35 351.389 637.666L475.046 469.955Z" fill="white"/>
<path d="M769.063 532.075L652.348 771.85C703.854 790.488 756.216 807.338 809.359 822.325L898.314 587.82C854.217 571.193 811.097 552.575 769.063 532.075Z" fill="white"/>
<path d="M1161.51 710.172C1111.55 701.393 1064.51 690.92 1016.3 677.557L965.186 860.41C1018.78 871.53 1073.06 880.783 1127.95 888.1L1161.51 710.172Z" fill="white"/>
<path d="M1434.41 562.355C1362.26 562.355 1291.4 556.889 1222.19 546.348C1212.53 544.876 1202.9 543.305 1193.3 541.636L1179.25 616.11L1170.55 662.255L1161.51 710.172L1127.95 888.1C1137.14 889.325 1146.35 890.496 1155.58 891.613C1156.56 891.731 1157.54 891.849 1158.52 891.967L1159.33 892.063C1249.56 902.828 1341.39 908.367 1434.52 908.367L1838.42 908.368V738.575C1838.42 737.568 1837.6 736.752 1836.6 736.752H1610.29C1609.29 736.752 1608.47 735.936 1608.47 734.929V564.178C1608.47 563.171 1607.65 562.355 1606.65 562.355H1434.41Z" fill="white"/>
<path d="M1447.58 294.923H1434.41C1369.19 294.923 1305.18 289.39 1242.88 278.769L1193.3 541.636C1202.9 543.305 1212.53 544.876 1222.19 546.348C1291.4 556.889 1362.26 562.355 1434.41 562.355H1606.65C1607.65 562.355 1608.47 563.171 1608.47 564.178V734.929C1608.47 735.936 1609.29 736.752 1610.29 736.752H1836.6C1837.6 736.752 1838.42 737.568 1838.42 738.575V908.368L1952.75 908.368C1953.75 908.368 1954.57 907.552 1954.57 906.545V694.493C1954.57 693.487 1955.38 692.671 1956.39 692.671H1988.9C1989.91 692.671 1990.73 691.854 1990.73 690.848V605.965C1990.73 604.958 1989.91 604.142 1988.9 604.142H1956.39C1955.38 604.142 1954.57 603.326 1954.57 602.319V482.524C1954.57 481.517 1953.75 480.701 1952.75 480.701H1760.63C1759.62 480.701 1758.81 479.885 1758.81 478.878V296.746C1758.81 295.739 1757.99 294.923 1756.98 294.923H1447.58Z" fill="white"/>
<path d="M787.281 490.291L889.288 282.708L787.276 226.233L738.665 307.735C738.133 308.627 736.965 308.895 736.098 308.325L691.687 279.111C690.849 278.561 689.724 278.789 689.168 279.623L614.412 391.761C669.561 428.304 727.296 461.258 787.281 490.291Z" fill="white"/>
<path d="M175.075 16.4085C218.375 80.3383 266.415 140.796 318.69 197.277L281.802 231.06L362.546 311.017L406.615 350.428C407.372 351.105 408.537 351.033 409.204 350.267L440.152 314.769C470.449 340.995 501.793 366.043 534.113 389.844C607.655 443.998 686.251 491.688 769.063 532.075C811.097 552.575 854.217 571.193 898.314 587.82C941.135 603.966 984.878 618.234 1029.44 630.525C1075.63 643.264 1122.7 653.878 1170.55 662.255L1179.25 616.11C1132.71 608.1 1086.92 597.922 1041.97 585.683C998.719 573.904 956.25 560.217 914.664 544.717C871.202 528.518 828.705 510.339 787.281 490.291C727.296 461.258 669.561 428.304 614.412 391.761L689.168 279.623C689.724 278.789 690.849 278.561 691.687 279.111L736.098 308.325C736.965 308.895 738.133 308.627 738.665 307.735L787.276 226.233L889.288 282.708L938.61 180.888C870.905 147.87 807.025 108.302 747.862 63.0128C747.05 62.3913 745.886 62.5571 745.281 63.3817L652.348 190.097C613.636 160.512 576.649 128.784 541.565 95.0905C522.447 76.7307 503.894 57.787 485.935 38.2883C485.257 37.5517 484.111 37.4987 483.369 38.1706L460.563 58.8081L408.794 0.964928C408.448 0.578583 407.954 0.357771 407.435 0.357771H214.117H164.352C167.893 5.73191 171.468 11.0823 175.075 16.4085Z" fill="white"/>
<path d="M1161.51 710.172L1163.3 710.51L1163.3 710.51L1161.51 710.172ZM348.25 166.417L346.918 167.661L346.918 167.661L348.25 166.417ZM175.075 16.4085L176.585 15.3863L176.585 15.3863L175.075 16.4085ZM281.802 231.06L280.571 229.716L280.571 229.716L281.802 231.06ZM396.752 275.726L397.996 274.394L397.996 274.394L396.752 275.726ZM316.857 416.105L318.638 415.716C318.491 415.041 317.975 414.508 317.306 414.338C316.636 414.168 315.928 414.391 315.477 414.914L316.857 416.105ZM285.794 452.129L287.151 453.346C287.159 453.337 287.167 453.328 287.174 453.319L285.794 452.129ZM363.669 479.535L364.569 477.949L364.569 477.949L363.669 479.535ZM349.921 636.585C349.324 637.395 349.497 638.536 350.307 639.133C351.117 639.731 352.258 639.558 352.856 638.748L351.389 637.666L349.921 636.585ZM769.063 532.075L769.862 530.437L769.862 530.437L769.063 532.075ZM898.314 587.82L898.957 586.114L898.957 586.114L898.314 587.82ZM1434.41 294.923L1434.41 293.101L1434.41 293.101L1434.41 294.923ZM1222.19 546.348L1221.92 548.15L1221.92 548.15L1222.19 546.348ZM1434.52 908.367V906.544L1434.51 906.544L1434.52 908.367ZM1179.25 616.11L1181.04 616.448L1181.04 616.448L1179.25 616.11ZM914.664 544.717L914.027 546.425L914.027 546.425L914.664 544.717ZM889.288 282.708L890.924 283.512L890.929 283.503L889.288 282.708ZM787.281 490.291L786.487 491.931L786.487 491.931L787.281 490.291ZM557.106 351.82L556.028 353.291L556.028 353.291L557.106 351.82ZM164.352 0.357771L162.83 1.36072L162.83 1.36072L164.352 0.357771ZM225.278 282.825L224.047 281.481L224.047 281.481L225.278 282.825ZM308.611 366.016L309.912 367.293L309.912 367.293L308.611 366.016ZM367.14 481.411L366.306 483.032L366.306 483.032L367.14 481.411ZM665.333 203.204L663.86 202.131L665.333 203.204ZM665.031 200.734L666.203 199.338L665.031 200.734ZM738.665 307.735L740.23 308.669L738.665 307.735ZM736.098 308.325L735.096 309.847L736.098 308.325ZM691.687 279.111L690.685 280.634L691.687 279.111ZM689.168 279.623L690.685 280.634L689.168 279.623ZM334.857 76.354L336.052 77.7305L334.857 76.354ZM337.406 76.5101L338.76 75.2898L337.406 76.5101ZM406.615 350.428L407.83 349.069L406.615 350.428ZM409.204 350.267L410.578 351.465L409.204 350.267ZM1161.51 710.172L1161.82 708.377C1111.92 699.607 1064.94 689.147 1016.78 675.801L1016.3 677.557L1015.81 679.314C1064.09 692.694 1111.18 703.179 1161.19 711.967L1161.51 710.172ZM384.737 204.146L386.025 202.856C373.658 190.511 361.509 177.948 349.582 165.174L348.25 166.417L346.918 167.661C358.873 180.467 371.053 193.06 383.45 205.436L384.737 204.146ZM297.303 108.952L298.497 110.328L336.052 77.7305L334.857 76.354L333.662 74.9775L296.108 107.575L297.303 108.952ZM348.25 166.417L349.511 167.734L387.176 131.646L385.915 130.33L384.654 129.014L346.989 165.101L348.25 166.417ZM357.667 237.867L358.958 236.58C345.735 223.307 332.756 209.791 320.028 196.039L318.69 197.277L317.352 198.515C330.111 212.3 343.121 225.849 356.376 239.153L357.667 237.867ZM318.69 197.277L320.028 196.039C267.815 139.625 219.833 79.2396 176.585 15.3863L175.075 16.4085L173.566 17.4306C216.918 81.4369 265.015 141.967 317.352 198.515L318.69 197.277ZM281.802 231.06L283.033 232.404L319.921 198.622L318.69 197.277L317.459 195.933L280.571 229.716L281.802 231.06ZM362.546 311.017L363.854 312.286L377.703 297.997L376.394 296.729L375.086 295.46L361.237 309.748L362.546 311.017ZM362.546 311.017L363.828 309.722L283.084 229.765L281.802 231.06L280.519 232.355L361.263 312.312L362.546 311.017ZM406.615 350.428L407.83 349.069L363.761 309.658L362.546 311.017L361.33 312.376L405.4 351.787L406.615 350.428ZM383.096 289.815L384.405 291.083L398.06 276.995L396.752 275.726L395.443 274.457L381.787 288.546L383.096 289.815ZM396.752 275.726L397.996 274.394C390.232 267.136 382.543 259.798 374.933 252.38L373.66 253.685L372.388 254.991C380.017 262.426 387.724 269.782 395.507 277.058L396.752 275.726ZM440.152 314.769L441.345 313.39C426.646 300.666 412.194 287.665 397.996 274.394L396.752 275.726L395.507 277.058C409.738 290.36 424.225 303.392 438.959 316.147L440.152 314.769ZM440.152 314.769L438.778 313.571L407.83 349.069L409.204 350.267L410.578 351.465L441.525 315.966L440.152 314.769ZM475.046 469.955L473.788 468.635C458.325 483.364 437.369 490.239 411.292 490.239V492.062V493.884C438.017 493.884 459.978 486.824 476.303 471.275L475.046 469.955ZM285.794 452.129L287.174 453.319L318.238 417.295L316.857 416.105L315.477 414.914L284.414 450.939L285.794 452.129ZM199.334 548.602L200.691 549.818L287.151 453.346L285.794 452.129L284.437 450.913L197.976 547.385L199.334 548.602ZM363.669 479.535L362.25 478.391L270.693 592.045L272.112 593.188L273.531 594.332L365.089 480.678L363.669 479.535ZM351.389 637.666L352.856 638.748L535.58 390.925L534.113 389.844L532.646 388.762L349.921 636.585L351.389 637.666ZM534.113 389.844L535.194 388.376C502.912 364.604 471.605 339.585 441.345 313.39L440.152 314.769L438.959 316.147C469.292 342.404 500.673 367.483 533.033 391.311L534.113 389.844ZM769.063 532.075L769.862 530.437C687.15 490.099 608.648 442.466 535.194 388.376L534.113 389.844L533.033 391.311C606.662 445.531 685.353 493.278 768.264 533.713L769.063 532.075ZM769.063 532.075L767.424 531.277L650.71 771.052L652.348 771.85L653.987 772.648L770.702 532.873L769.063 532.075ZM898.314 587.82L896.609 587.173L807.654 821.678L809.359 822.325L811.063 822.971L900.018 588.466L898.314 587.82ZM898.314 587.82L898.957 586.114C854.913 569.507 811.845 550.912 769.862 530.437L769.063 532.075L768.264 533.713C810.348 554.238 853.521 572.878 897.67 589.525L898.314 587.82ZM1029.44 630.525L1029.93 628.768C985.416 616.492 941.727 602.241 898.957 586.114L898.314 587.82L897.67 589.525C940.544 605.691 984.339 619.977 1028.96 632.282L1029.44 630.525ZM1434.41 294.923L1434.41 293.101C1434.37 293.101 1434.34 293.101 1434.32 293.101C1434.32 293.101 1434.31 293.101 1434.31 293.101C1434.31 293.101 1434.31 293.101 1434.3 293.101C1434.3 293.101 1434.3 293.101 1434.3 293.101C1434.3 293.101 1434.3 293.101 1434.3 293.101C1434.29 293.101 1434.29 293.101 1434.29 293.101C1434.29 293.101 1434.29 293.101 1434.28 293.101C1434.28 293.101 1434.28 293.101 1434.27 293.101C1434.27 293.101 1434.25 293.101 1434.25 293.102C1434.22 293.103 1434.06 293.117 1433.93 293.141C1432.49 294.999 1434.15 296.739 1434.22 296.744C1434.24 296.745 1434.26 296.746 1434.27 296.746C1434.27 296.746 1434.28 296.746 1434.28 296.746C1434.29 296.746 1434.29 296.746 1434.29 296.746C1434.29 296.746 1434.3 296.746 1434.3 296.746C1434.3 296.746 1434.3 296.746 1434.3 296.746C1434.3 296.746 1434.3 296.746 1434.3 296.746C1434.31 296.746 1434.31 296.746 1434.31 296.746C1434.31 296.746 1434.32 296.746 1434.33 296.746C1434.33 296.746 1434.34 296.746 1434.35 296.746C1434.37 296.746 1434.39 296.746 1434.41 296.746C1434.44 296.746 1434.46 296.746 1434.48 296.746C1434.49 296.746 1434.5 296.746 1434.5 296.746C1434.51 296.746 1434.52 296.746 1434.52 296.746C1434.52 296.746 1434.52 296.746 1434.52 296.746C1434.53 296.746 1434.53 296.746 1434.53 296.746C1434.53 296.746 1434.53 296.746 1434.53 296.746C1434.53 296.746 1434.54 296.746 1434.54 296.746C1434.54 296.746 1434.54 296.746 1434.55 296.746C1434.55 296.746 1434.56 296.746 1434.56 296.746C1434.57 296.745 1434.59 296.744 1434.61 296.744C1434.69 296.738 1436.34 294.973 1434.87 293.134C1434.74 293.115 1434.6 293.102 1434.58 293.102C1434.57 293.101 1434.56 293.101 1434.55 293.101C1434.55 293.101 1434.54 293.101 1434.54 293.101C1434.54 293.101 1434.54 293.101 1434.54 293.101C1434.53 293.101 1434.53 293.101 1434.53 293.101C1434.53 293.101 1434.53 293.101 1434.53 293.101C1434.53 293.101 1434.52 293.101 1434.52 293.101C1434.52 293.101 1434.52 293.101 1434.51 293.101C1434.51 293.101 1434.51 293.101 1434.5 293.101C1434.49 293.101 1434.46 293.101 1434.41 293.101V294.923V296.746C1434.46 296.746 1434.49 296.746 1434.5 296.746C1434.51 296.746 1434.51 296.746 1434.51 296.746C1434.51 296.746 1434.51 296.746 1434.51 296.746C1434.51 296.746 1434.51 296.746 1434.51 296.746C1434.51 296.746 1434.51 296.746 1434.51 296.746C1434.51 296.746 1434.5 296.746 1434.5 296.746C1434.5 296.746 1434.5 296.746 1434.5 296.746C1434.49 296.746 1434.49 296.746 1434.49 296.746C1434.48 296.746 1434.47 296.745 1434.46 296.745C1434.44 296.744 1434.29 296.732 1434.17 296.713C1432.7 294.874 1434.35 293.109 1434.43 293.103C1434.44 293.102 1434.47 293.101 1434.48 293.101C1434.48 293.101 1434.49 293.101 1434.49 293.101C1434.49 293.101 1434.5 293.101 1434.5 293.101C1434.5 293.101 1434.5 293.101 1434.51 293.101C1434.51 293.101 1434.51 293.101 1434.51 293.101C1434.51 293.101 1434.51 293.101 1434.51 293.101C1434.51 293.101 1434.51 293.101 1434.51 293.101C1434.51 293.101 1434.51 293.101 1434.5 293.101C1434.49 293.101 1434.49 293.101 1434.48 293.101C1434.46 293.101 1434.44 293.101 1434.41 293.101C1434.39 293.101 1434.37 293.101 1434.35 293.101C1434.34 293.101 1434.33 293.101 1434.33 293.101C1434.32 293.101 1434.32 293.101 1434.31 293.101C1434.31 293.101 1434.31 293.101 1434.31 293.101C1434.32 293.101 1434.32 293.101 1434.32 293.101C1434.32 293.101 1434.32 293.101 1434.32 293.101C1434.32 293.101 1434.32 293.101 1434.33 293.101C1434.33 293.101 1434.33 293.101 1434.33 293.101C1434.34 293.101 1434.34 293.101 1434.35 293.101C1434.36 293.101 1434.38 293.102 1434.4 293.103C1434.47 293.108 1436.13 294.848 1434.69 296.706C1434.55 296.73 1434.39 296.744 1434.37 296.745C1434.36 296.745 1434.35 296.746 1434.34 296.746C1434.34 296.746 1434.34 296.746 1434.33 296.746C1434.33 296.746 1434.33 296.746 1434.33 296.746C1434.33 296.746 1434.32 296.746 1434.32 296.746C1434.32 296.746 1434.32 296.746 1434.32 296.746C1434.32 296.746 1434.32 296.746 1434.32 296.746C1434.32 296.746 1434.32 296.746 1434.32 296.746C1434.32 296.746 1434.32 296.746 1434.33 296.746C1434.34 296.746 1434.37 296.746 1434.42 296.746L1434.41 294.923ZM1760.63 480.701V478.878L1760.63 478.878H1758.81H1756.98C1756.98 480.892 1758.62 482.524 1760.63 482.524V480.701ZM1956.39 604.142V602.319L1956.39 602.319H1954.57H1952.75C1952.75 604.333 1954.38 605.965 1956.39 605.965V604.142ZM1269.71 285.033L1267.92 284.707L1220.4 546.022L1222.19 546.348L1223.99 546.674L1271.5 285.359L1269.71 285.033ZM1954.57 694.493H1956.39L1956.39 694.493V692.671V690.848C1954.38 690.848 1952.75 692.48 1952.75 694.493H1954.57ZM1434.41 562.355V560.532C1362.36 560.532 1291.58 555.073 1222.47 544.546L1222.19 546.348L1221.92 548.15C1291.21 558.705 1362.17 564.178 1434.41 564.178V562.355ZM1434.41 562.355V564.178H1606.65V562.355V560.532H1434.41V562.355ZM1608.47 734.929H1610.29V564.178H1608.47H1606.65V734.929H1608.47ZM1610.29 736.752V738.575H1836.6V736.752V734.929H1610.29V736.752ZM1838.42 738.575H1836.6V908.368H1838.42H1840.24V738.575H1838.42ZM1434.52 908.367L1434.51 906.544C1434.42 906.544 1434.36 906.544 1434.32 906.544C1434.31 906.544 1434.31 906.544 1434.3 906.544C1434.3 906.544 1434.29 906.544 1434.29 906.544C1434.29 906.544 1434.28 906.544 1434.28 906.544C1434.28 906.544 1434.28 906.544 1434.28 906.544C1434.28 906.544 1434.27 906.544 1434.27 906.544C1434.27 906.544 1434.27 906.545 1434.27 906.545C1434.26 906.545 1434.26 906.545 1434.25 906.545C1434.25 906.545 1434.23 906.545 1434.22 906.546C1434.2 906.547 1434.03 906.563 1433.89 906.588C1432.47 908.442 1434.12 910.182 1434.2 910.187C1434.21 910.188 1434.24 910.189 1434.25 910.189C1434.25 910.189 1434.26 910.19 1434.26 910.19C1434.27 910.19 1434.27 910.19 1434.27 910.19C1434.28 910.19 1434.28 910.19 1434.28 910.19C1434.28 910.19 1434.28 910.19 1434.28 910.19C1434.29 910.19 1434.29 910.19 1434.29 910.19C1434.29 910.19 1434.29 910.19 1434.29 910.19C1434.3 910.19 1434.31 910.19 1434.33 910.19C1434.34 910.19 1434.36 910.19 1434.38 910.19C1434.42 910.19 1434.47 910.19 1434.52 910.19C1434.56 910.19 1434.61 910.19 1434.65 910.19C1434.67 910.19 1434.69 910.19 1434.7 910.19C1434.72 910.19 1434.73 910.19 1434.74 910.19C1434.74 910.19 1434.74 910.19 1434.74 910.19C1434.75 910.19 1434.75 910.19 1434.75 910.19C1434.75 910.19 1434.75 910.19 1434.75 910.19C1434.75 910.19 1434.76 910.19 1434.76 910.189C1434.76 910.189 1434.77 910.189 1434.77 910.189C1434.77 910.189 1434.78 910.189 1434.78 910.189C1434.79 910.189 1434.82 910.188 1434.84 910.187C1434.92 910.181 1436.56 908.424 1435.11 906.583C1434.98 906.56 1434.83 906.546 1434.8 906.545C1434.79 906.545 1434.78 906.545 1434.77 906.544C1434.77 906.544 1434.76 906.544 1434.76 906.544C1434.76 906.544 1434.76 906.544 1434.76 906.544C1434.75 906.544 1434.75 906.544 1434.75 906.544C1434.75 906.544 1434.75 906.544 1434.75 906.544C1434.74 906.544 1434.74 906.544 1434.74 906.544C1434.74 906.544 1434.73 906.544 1434.73 906.544C1434.72 906.544 1434.72 906.544 1434.71 906.544C1434.67 906.544 1434.61 906.544 1434.52 906.544V908.367V910.19C1434.61 910.19 1434.67 910.19 1434.7 910.19C1434.71 910.19 1434.72 910.19 1434.72 910.19C1434.73 910.19 1434.73 910.19 1434.73 910.19C1434.73 910.19 1434.73 910.19 1434.73 910.19C1434.73 910.19 1434.73 910.19 1434.73 910.19C1434.73 910.19 1434.73 910.19 1434.73 910.19C1434.73 910.19 1434.72 910.19 1434.72 910.189C1434.72 910.189 1434.72 910.189 1434.72 910.189C1434.71 910.189 1434.71 910.189 1434.7 910.189C1434.7 910.189 1434.68 910.189 1434.67 910.188C1434.65 910.188 1434.5 910.173 1434.37 910.151C1432.92 908.31 1434.56 906.553 1434.64 906.547C1434.66 906.546 1434.69 906.545 1434.69 906.545C1434.7 906.545 1434.71 906.544 1434.71 906.544C1434.71 906.544 1434.72 906.544 1434.72 906.544C1434.72 906.544 1434.72 906.544 1434.72 906.544C1434.73 906.544 1434.73 906.544 1434.73 906.544C1434.73 906.544 1434.73 906.544 1434.73 906.544C1434.73 906.544 1434.73 906.544 1434.73 906.544C1434.72 906.544 1434.71 906.544 1434.7 906.544C1434.69 906.544 1434.67 906.544 1434.65 906.544C1434.61 906.544 1434.56 906.544 1434.51 906.544C1434.47 906.544 1434.42 906.544 1434.38 906.544C1434.36 906.544 1434.34 906.544 1434.33 906.544C1434.31 906.544 1434.3 906.544 1434.3 906.544C1434.3 906.544 1434.3 906.544 1434.3 906.544C1434.3 906.544 1434.3 906.544 1434.3 906.544C1434.3 906.544 1434.3 906.544 1434.3 906.544C1434.31 906.544 1434.31 906.544 1434.31 906.544C1434.31 906.544 1434.32 906.545 1434.32 906.545C1434.32 906.545 1434.33 906.545 1434.33 906.545C1434.34 906.545 1434.37 906.546 1434.39 906.547C1434.46 906.553 1436.11 908.292 1434.69 910.146C1434.55 910.172 1434.38 910.188 1434.36 910.189C1434.35 910.189 1434.33 910.189 1434.33 910.189C1434.33 910.19 1434.32 910.19 1434.32 910.19C1434.32 910.19 1434.31 910.19 1434.31 910.19C1434.31 910.19 1434.31 910.19 1434.31 910.19C1434.3 910.19 1434.3 910.19 1434.3 910.19C1434.3 910.19 1434.3 910.19 1434.3 910.19C1434.3 910.19 1434.3 910.19 1434.3 910.19C1434.3 910.19 1434.31 910.19 1434.31 910.19C1434.31 910.19 1434.32 910.19 1434.33 910.19C1434.36 910.19 1434.42 910.19 1434.52 910.19L1434.52 908.367ZM1179.25 616.11L1177.46 615.773L1168.76 661.917L1170.55 662.255L1172.34 662.593L1181.04 616.448L1179.25 616.11ZM1134.48 254.742L1132.72 254.251L1040.22 585.192L1041.97 585.683L1043.73 586.174L1136.23 255.233L1134.48 254.742ZM1041.97 585.683L1041.5 587.442C1086.5 599.696 1132.35 609.887 1178.94 617.907L1179.25 616.11L1179.56 614.314C1133.08 606.314 1087.34 596.148 1042.45 583.924L1041.97 585.683ZM1036.67 223.077L1034.97 222.43L912.96 544.07L914.664 544.717L916.368 545.363L1038.38 223.723L1036.67 223.077ZM914.664 544.717L914.027 546.425C955.665 561.944 998.187 575.648 1041.5 587.442L1041.97 585.683L1042.45 583.924C999.252 572.16 956.835 558.489 915.3 543.009L914.664 544.717ZM1159.33 892.063L1159.55 890.253C1159.28 890.221 1159.01 890.189 1158.74 890.157L1158.52 891.967L1158.31 893.776C1158.58 893.809 1158.85 893.841 1159.12 893.873L1159.33 892.063ZM938.61 180.888L936.97 180.093L887.648 281.914L889.288 282.708L890.929 283.503L940.251 181.683L938.61 180.888ZM889.288 282.708L887.653 281.904L785.646 489.487L787.281 490.291L788.917 491.094L890.924 283.512L889.288 282.708ZM787.276 226.233L786.393 227.828L888.406 284.303L889.288 282.708L890.171 281.113L788.159 224.639L787.276 226.233ZM843.885 131.321L842.32 130.388L785.711 225.3L787.276 226.233L788.842 227.167L845.451 132.255L843.885 131.321ZM787.276 226.233L785.711 225.3L737.1 306.802L738.665 307.735L740.23 308.669L788.842 227.167L787.276 226.233ZM736.098 308.325L737.1 306.802L692.688 277.589L691.687 279.111L690.685 280.634L735.096 309.847L736.098 308.325ZM541.565 95.0905L540.213 93.8682L414.415 233.016L415.767 234.239L417.119 235.461L542.917 96.3129L541.565 95.0905ZM164.352 0.357771L165.874 -0.645174C165.796 -0.764152 165.717 -0.883104 165.639 -1.00252L164.116 0L162.594 1.00252C162.672 1.12165 162.751 1.24119 162.83 1.36072L164.352 0.357771ZM385.915 130.33L387.176 131.646L461.824 60.1242L460.563 58.8081L459.302 57.492L384.654 129.014L385.915 130.33ZM214.117 0.357771L212.62 1.39854C238.731 38.9399 266.531 75.2189 295.908 110.125L297.303 108.952L298.697 107.778C269.391 72.9567 241.66 36.7665 215.613 -0.682996L214.117 0.357771ZM614.412 391.761L613.406 393.281C668.622 429.868 726.427 462.863 786.487 491.931L787.281 490.291L788.076 488.65C728.164 459.653 670.501 426.74 615.419 390.242L614.412 391.761ZM164.352 0.357771L162.83 1.36072C166.376 6.7413 169.954 12.098 173.566 17.4306L175.075 16.4085L176.585 15.3863C172.981 10.0665 169.411 4.72253 165.874 -0.645175L164.352 0.357771ZM614.412 391.761L615.929 392.772L690.685 280.634L689.168 279.623L687.652 278.612L612.896 390.75L614.412 391.761ZM787.281 490.291L786.487 491.931C827.962 512.005 870.512 530.206 914.027 546.425L914.664 544.717L915.3 543.009C871.893 526.83 829.448 508.674 788.076 488.65L787.281 490.291ZM415.767 234.239L414.518 235.565C429.548 249.725 444.873 263.574 460.483 277.103L461.677 275.726L462.871 274.349C447.299 260.852 432.011 247.037 417.017 232.912L415.767 234.239ZM499.807 307.675L498.66 309.091C517.411 324.277 536.539 339.016 556.028 353.291L557.106 351.82L558.183 350.35C538.741 336.11 519.659 321.407 500.954 306.258L499.807 307.675ZM557.106 351.82L558.579 352.893L666.807 204.277L665.333 203.204L663.86 202.131L555.632 350.747L557.106 351.82ZM225.278 282.825L224.047 281.481L193.264 309.673L194.495 311.017L195.726 312.361L226.51 284.169L225.278 282.825ZM415.767 234.239L417.017 232.912C411.762 227.961 406.542 222.971 401.359 217.944L400.09 219.253L398.821 220.561C404.017 225.6 409.249 230.602 414.518 235.565L415.767 234.239ZM175.075 16.4085L173.995 14.9405L38.18 114.9L39.2605 116.368L40.3409 117.836L176.156 17.8765L175.075 16.4085ZM1170.55 662.255L1170.86 660.459C1123.08 652.093 1076.06 641.492 1029.93 628.768L1029.44 630.525L1028.96 632.282C1075.2 645.037 1122.33 655.663 1170.23 664.05L1170.55 662.255ZM254.676 421.016L253.387 422.305L284.505 453.418L285.794 452.129L287.083 450.84L255.965 419.727L254.676 421.016ZM308.611 366.016L309.912 367.293L363.847 312.293L362.546 311.017L361.244 309.741L307.309 364.74L308.611 366.016ZM308.611 366.016L309.898 364.726L226.566 281.535L225.278 282.825L223.991 284.115L307.323 367.306L308.611 366.016ZM281.802 231.06L280.571 229.716L224.047 281.481L225.278 282.825L226.51 284.169L283.033 232.404L281.802 231.06ZM254.676 421.016L255.977 422.292L309.912 367.293L308.611 366.016L307.309 364.74L253.374 419.739L254.676 421.016ZM167.1 335.718L165.828 337.024L253.404 422.321L254.676 421.016L255.948 419.71L168.372 334.413L167.1 335.718ZM665.031 200.734L666.203 199.338L653.52 188.7L652.348 190.097L651.177 191.493L663.86 202.131L665.031 200.734ZM316.857 416.105L315.077 416.493C321.12 444.194 338.818 467.533 362.77 481.12L363.669 479.535L364.569 477.949C341.498 464.861 324.456 442.382 318.638 415.716L316.857 416.105ZM475.046 469.955L476.513 471.037L535.58 390.925L534.113 389.844L532.646 388.762L473.579 468.873L475.046 469.955ZM1179.25 616.11L1181.04 616.448L1195.09 541.974L1193.3 541.636L1191.51 541.298L1177.46 615.773L1179.25 616.11ZM1193.3 541.636L1195.09 541.974L1244.67 279.106L1242.88 278.769L1241.09 278.431L1191.51 541.298L1193.3 541.636ZM1222.19 546.348L1222.47 544.546C1212.82 543.076 1203.2 541.507 1193.61 539.84L1193.3 541.636L1192.99 543.432C1202.6 545.103 1212.24 546.676 1221.92 548.15L1222.19 546.348ZM1193.3 541.636L1193.61 539.84C1193.55 539.83 1193.5 539.82 1193.44 539.81L1193.13 541.606L1192.81 543.402C1192.87 543.412 1192.93 543.422 1192.99 543.432L1193.3 541.636ZM475.046 469.955L473.579 468.873L349.921 636.585L351.389 637.666L352.856 638.748L476.513 471.037L475.046 469.955ZM411.292 492.062V490.239C395.681 490.239 380.956 486.468 367.973 479.79L367.14 481.411L366.306 483.032C379.793 489.969 395.088 493.884 411.292 493.884V492.062ZM367.14 481.411L367.973 479.79C366.824 479.199 365.69 478.585 364.569 477.949L363.669 479.535L362.77 481.12C363.934 481.781 365.113 482.418 366.306 483.032L367.14 481.411ZM367.14 481.411L367.973 479.79C343.181 467.036 324.739 443.678 318.638 415.716L316.857 416.105L315.077 416.493C321.414 445.54 340.565 469.791 366.306 483.032L367.14 481.411ZM1029.44 630.525L1027.69 630.034L1014.54 677.067L1016.3 677.557L1018.05 678.048L1031.2 631.015L1029.44 630.525ZM1016.3 677.557L1014.54 677.067L963.43 859.92L965.186 860.41L966.941 860.901L1018.05 678.048L1016.3 677.557ZM1127.95 888.1L1129.74 888.437L1163.3 710.51L1161.51 710.172L1159.72 709.834L1126.16 887.762L1127.95 888.1ZM1161.51 710.172L1163.3 710.51L1172.34 662.593L1170.55 662.255L1168.76 661.917L1159.72 709.834L1161.51 710.172ZM557.106 351.82L556.028 353.291C562.951 358.361 569.919 363.373 576.932 368.325L577.983 366.837L579.035 365.348C572.039 360.407 565.088 355.408 558.183 350.35L557.106 351.82ZM590.699 375.717L589.663 377.217C597.523 382.646 605.437 388.001 613.406 393.281L614.412 391.761L615.419 390.242C607.47 384.975 599.575 379.633 591.735 374.218L590.699 375.717ZM330.184 146.716L328.829 147.936C334.8 154.565 340.83 161.141 346.918 167.661L348.25 166.417L349.582 165.174C343.509 158.669 337.494 152.109 331.538 145.496L330.184 146.716ZM297.303 108.952L295.908 110.125C302.956 118.499 310.094 126.794 317.321 135.008L318.69 133.804L320.058 132.6C312.848 124.406 305.727 116.131 298.697 107.778L297.303 108.952ZM337.406 76.5101L336.052 77.7305L356.313 100.21L357.667 98.9892L359.021 97.7689L338.76 75.2898L337.406 76.5101ZM369.365 111.968L368.011 113.188L384.561 131.55L385.915 130.33L387.269 129.109L370.719 110.748L369.365 111.968ZM665.333 203.204L666.807 204.277C667.935 202.728 667.671 200.569 666.203 199.338L665.031 200.734L663.86 202.131L663.86 202.131L665.333 203.204ZM1.50938 55.3063L0.521943 53.7742C-1.15218 54.8532 -1.65151 57.0776 -0.594646 58.7685L0.951004 57.8024L2.49665 56.8363C2.49552 56.8345 2.49554 56.8342 2.49591 56.8352C2.49625 56.8361 2.49653 56.8371 2.49669 56.8381C2.49696 56.8398 2.49664 56.8396 2.49699 56.8381C2.49734 56.8365 2.49773 56.8363 2.49693 56.8375C2.49646 56.8382 2.49586 56.8389 2.4953 56.8394C2.49466 56.8401 2.4949 56.8397 2.49682 56.8384L1.50938 55.3063ZM408.794 0.964928L410.152 -0.250658C409.46 -1.02335 408.472 -1.46496 407.435 -1.46496V0.357771V2.1805L407.436 2.18051L408.794 0.964928ZM485.935 38.2883L487.276 37.0535C485.921 35.5822 483.631 35.4749 482.146 36.8191L483.369 38.1706L484.592 39.5222C484.594 39.5206 484.594 39.5205 484.593 39.5209C484.593 39.5213 484.592 39.5217 484.591 39.522C484.59 39.5224 484.59 39.522 484.592 39.5221C484.594 39.5222 484.595 39.5227 484.594 39.5223C484.594 39.522 484.593 39.5217 484.593 39.5214C484.592 39.521 484.593 39.5213 484.595 39.5232L485.935 38.2883ZM1836.6 736.752V738.575L1836.6 738.575H1838.42H1840.24C1840.24 736.562 1838.61 734.929 1836.6 734.929V736.752ZM738.665 307.735L737.1 306.802L737.1 306.802L736.098 308.325L735.096 309.847C736.831 310.988 739.167 310.452 740.23 308.669L738.665 307.735ZM1608.47 734.929H1606.65C1606.65 736.943 1608.28 738.575 1610.29 738.575V736.752V734.929L1610.29 734.929H1608.47ZM1606.65 562.355V564.178L1606.65 564.178H1608.47H1610.29C1610.29 562.165 1608.66 560.532 1606.65 560.532V562.355ZM691.687 279.111L692.688 277.589C691.014 276.487 688.764 276.944 687.652 278.612L689.168 279.623L690.685 280.634L690.685 280.634L691.687 279.111ZM1952.75 480.701V482.524L1952.75 482.524H1954.57H1956.39C1956.39 480.51 1954.76 478.878 1952.75 478.878V480.701ZM1988.9 692.671V694.493C1990.92 694.493 1992.55 692.861 1992.55 690.848H1990.73H1988.9L1988.9 690.848V692.671ZM86.3142 0.648451L87.3017 2.18053L87.3016 2.1805V0.357771V-1.46496C86.6011 -1.46496 85.9154 -1.26303 85.3267 -0.883624L86.3142 0.648451ZM1756.98 294.923V296.746L1756.98 296.746H1758.81H1760.63C1760.63 294.733 1759 293.101 1756.98 293.101V294.923ZM334.857 76.354L336.052 77.7305L336.052 77.7305L337.406 76.5101L338.76 75.2898C337.43 73.814 335.163 73.6751 333.662 74.9775L334.857 76.354ZM1988.9 604.142V605.965L1988.9 605.965H1990.73H1992.55C1992.55 603.952 1990.92 602.319 1988.9 602.319V604.142ZM49.5677 441.694L48.3471 440.34C46.6487 441.872 46.7626 444.573 48.589 445.954L49.6882 444.5L50.7875 443.046C50.7843 443.043 50.784 443.043 50.7851 443.044C50.7862 443.045 50.7872 443.047 50.7879 443.048C50.7893 443.051 50.7885 443.051 50.7884 443.047C50.7882 443.044 50.789 443.044 50.788 443.046C50.7874 443.047 50.7866 443.049 50.7858 443.05C50.7849 443.051 50.7852 443.051 50.7883 443.048L49.5677 441.694ZM745.281 63.3817L746.751 64.4596C746.753 64.4576 746.753 64.4573 746.753 64.458C746.752 64.4586 746.751 64.4592 746.75 64.4596C746.749 64.4603 746.75 64.4598 746.752 64.4594C746.754 64.4591 746.755 64.4595 746.754 64.4592C746.754 64.4591 746.753 64.4588 746.752 64.4585C746.752 64.4582 746.752 64.4585 746.754 64.4601L747.862 63.0128L748.97 61.5654C747.349 60.3242 745.021 60.6542 743.812 62.3037L745.281 63.3817ZM406.615 350.428L405.4 351.787C406.914 353.141 409.243 352.996 410.578 351.465L409.204 350.267L407.83 349.069L407.83 349.069L406.615 350.428ZM1954.57 906.545H1952.75L1952.75 906.545V908.368V910.191C1954.76 910.191 1956.39 908.558 1956.39 906.545H1954.57ZM49.5677 441.694L52.0089 444.401L52.0089 444.401L49.5677 441.694ZM49.6882 444.5L51.8868 441.592L51.8867 441.592L49.6882 444.5ZM199.334 548.602L201.296 545.529L201.296 545.529L199.334 548.602ZM272.112 593.188L273.958 590.045L273.958 590.045L272.112 593.188ZM351.389 637.666L349.668 640.88L349.668 640.88L351.389 637.666ZM652.348 771.85L653.589 768.422L653.589 768.422L652.348 771.85ZM809.359 822.325L808.369 825.834L808.369 825.834L809.359 822.325ZM965.186 860.41L964.445 863.98L964.445 863.98L965.186 860.41ZM1952.75 908.368L1952.75 912.013H1952.75V908.368ZM1838.42 908.368L1838.42 904.722L1838.42 904.722L1838.42 908.368ZM1159.33 892.063L1158.9 895.683L1158.9 895.683L1159.33 892.063ZM1434.52 908.367L1434.52 904.721H1434.52V908.367ZM1158.52 891.967L1158.09 895.586L1158.09 895.586L1158.52 891.967ZM1127.95 888.1L1128.43 884.486L1128.43 884.486L1127.95 888.1ZM1155.58 891.613L1155.15 895.232L1155.15 895.232L1155.58 891.613ZM1242.88 278.769L1243.5 275.175L1243.5 275.175L1242.88 278.769ZM1134.48 254.742L1135.44 251.226L1135.44 251.226L1134.48 254.742ZM1036.67 223.077L1037.95 219.664L1037.95 219.664L1036.67 223.077ZM745.281 63.3817L742.342 61.2257L742.342 61.2257L745.281 63.3817ZM747.862 63.0128L750.078 60.1181L750.078 60.1181L747.862 63.0128ZM938.61 180.888L937.012 184.165L937.012 184.165L938.61 180.888ZM541.565 95.0905L544.09 92.4612L544.09 92.4612L541.565 95.0905ZM652.348 190.097L650.135 192.993C650.913 193.588 651.898 193.844 652.867 193.705C653.836 193.566 654.709 193.042 655.288 192.252L652.348 190.097ZM485.935 38.2883L483.254 40.758L483.254 40.758L485.935 38.2883ZM483.369 38.1706L480.923 35.4676L480.923 35.4676L483.369 38.1706ZM460.563 58.8081L457.847 61.2393C458.494 61.9623 459.402 62.3975 460.371 62.4485C461.34 62.4995 462.289 62.1622 463.009 61.5111L460.563 58.8081ZM408.794 0.964928L411.51 -1.46624L411.51 -1.46634L408.794 0.964928ZM1.50938 55.3063L3.48428 58.3705L3.48429 58.3705L1.50938 55.3063ZM86.3142 0.648451L84.3393 -2.41573L84.3393 -2.41573L86.3142 0.648451ZM39.2605 116.368L36.2516 118.426L36.2516 118.426L39.2605 116.368ZM0.951004 57.8024L-2.1403 59.7346L-2.1403 59.7346L0.951004 57.8024ZM194.495 311.017L196.936 313.724C197.66 313.072 198.093 312.156 198.137 311.182C198.181 310.208 197.833 309.257 197.171 308.542L194.495 311.017ZM167.1 335.718L164.659 333.011L164.659 333.011L167.1 335.718ZM49.5677 441.694L47.1265 438.987C44.579 441.284 44.7493 445.336 47.4898 447.408L49.6882 444.5L51.8867 441.592C52.8024 442.284 52.8575 443.636 52.0089 444.401L49.5677 441.694ZM49.6882 444.5L47.4897 447.408C95.9892 484.075 145.986 518.866 197.372 551.674L199.334 548.602L201.296 545.529C150.072 512.825 100.233 478.144 51.8868 441.592L49.6882 444.5ZM199.334 548.602L197.372 551.674C221.371 566.996 245.672 581.886 270.266 596.332L272.112 593.188L273.958 590.045C249.443 575.645 225.218 560.803 201.296 545.529L199.334 548.602ZM272.112 593.188L270.266 596.332C296.408 611.687 322.879 626.541 349.668 640.88L351.389 637.666L353.109 634.452C326.405 620.158 300.017 605.352 273.958 590.045L272.112 593.188ZM351.389 637.666L349.668 640.88C446.238 692.572 546.924 737.577 651.108 775.278L652.348 771.85L653.589 768.422C549.737 730.842 449.372 685.98 353.109 634.452L351.389 637.666ZM652.348 771.85L651.108 775.278C702.696 793.946 755.141 810.823 808.369 825.834L809.359 822.325L810.348 818.816C757.29 803.854 705.012 787.031 653.589 768.422L652.348 771.85ZM809.359 822.325L808.369 825.834C859.69 840.306 911.737 853.044 964.445 863.98L965.186 860.41L965.926 856.841C913.386 845.94 861.505 833.243 810.348 818.816L809.359 822.325ZM1447.58 294.923V291.278H1434.41V294.923V298.569H1447.58V294.923ZM1756.98 294.923V291.278H1447.58V294.923V298.569H1756.98V294.923ZM1758.81 296.746H1762.45C1762.45 293.726 1760 291.278 1756.98 291.278V294.923V298.569C1755.98 298.569 1755.16 297.752 1755.16 296.746H1758.81ZM1758.81 478.878H1762.45V296.746H1758.81H1755.16V478.878H1758.81ZM1952.75 480.701V477.056H1760.63V480.701V484.346H1952.75V480.701ZM1954.57 482.524H1958.21C1958.21 479.504 1955.77 477.056 1952.75 477.056V480.701V484.346C1951.74 484.346 1950.92 483.53 1950.92 482.524H1954.57ZM1954.57 602.319H1958.21V482.524H1954.57H1950.92V602.319H1954.57ZM1988.9 604.142V600.497H1956.39V604.142V607.788H1988.9V604.142ZM1990.73 605.965H1994.37C1994.37 602.945 1991.92 600.497 1988.9 600.497V604.142V607.788C1987.9 607.788 1987.08 606.972 1987.08 605.965H1990.73ZM1988.9 692.671V696.316C1991.92 696.316 1994.37 693.868 1994.37 690.848H1990.73H1987.08C1987.08 689.841 1987.9 689.025 1988.9 689.025V692.671ZM1990.73 690.848H1994.37V605.965H1990.73H1987.08V690.848H1990.73ZM1956.39 692.671V696.316H1988.9V692.671V689.025H1956.39V692.671ZM1952.75 908.368V912.013C1955.77 912.013 1958.21 909.565 1958.21 906.545H1954.57H1950.92C1950.92 905.539 1951.74 904.722 1952.75 904.722V908.368ZM1838.42 908.368L1838.42 912.013L1952.75 912.013L1952.75 908.368L1952.75 904.722L1838.42 904.722L1838.42 908.368ZM1159.33 892.063L1158.9 895.683C1249.27 906.465 1341.25 912.012 1434.52 912.012V908.367V904.721C1341.53 904.721 1249.85 899.192 1159.76 888.443L1159.33 892.063ZM1158.52 891.967L1158.09 895.586L1158.9 895.683L1159.33 892.063L1159.76 888.443L1158.96 888.347L1158.52 891.967ZM1127.95 888.1L1127.47 891.713C1136.67 892.941 1145.9 894.113 1155.15 895.232L1155.58 891.613L1156.02 887.994C1146.81 886.879 1137.61 885.71 1128.43 884.486L1127.95 888.1ZM965.186 860.41L964.445 863.98C1018.12 875.117 1072.49 884.385 1127.47 891.713L1127.95 888.1L1128.43 884.486C1073.63 877.182 1019.43 867.943 965.926 856.841L965.186 860.41ZM1954.57 906.545H1958.21V694.493H1954.57H1950.92V906.545H1954.57ZM1242.88 278.769L1243.5 275.175C1206.85 268.928 1170.8 260.915 1135.44 251.226L1134.48 254.742L1133.51 258.258C1169.11 268.009 1205.39 276.075 1242.27 282.362L1242.88 278.769ZM747.862 63.0128L750.078 60.1181C747.647 58.2571 744.157 58.7513 742.342 61.2257L745.281 63.3817L748.221 65.5376C747.616 66.363 746.454 66.5254 745.647 65.9075L747.862 63.0128ZM938.61 180.888L940.208 177.611C872.723 144.7 809.05 105.261 750.078 60.1181L747.862 63.0128L745.647 65.9075C805.001 111.344 869.088 151.039 937.012 184.165L938.61 180.888ZM652.348 190.097L654.562 187.2C615.959 157.699 579.076 126.06 544.09 92.4612L541.565 95.0905L539.04 97.7199C574.223 131.508 611.314 163.325 650.135 192.993L652.348 190.097ZM541.565 95.0905L544.09 92.4612C525.026 74.153 506.525 55.2625 488.617 35.8186L485.935 38.2883L483.254 40.758C501.263 60.3115 519.868 79.3084 539.04 97.7199L541.565 95.0905ZM745.281 63.3817L742.342 61.2257L649.409 187.941L652.348 190.097L655.288 192.252L748.221 65.5376L745.281 63.3817ZM1036.67 223.077L1037.95 219.664C1004.59 207.15 971.976 193.104 940.208 177.611L938.61 180.888L937.012 184.165C968.986 199.758 1001.81 213.895 1035.39 226.49L1036.67 223.077ZM485.935 38.2883L488.617 35.8186C486.585 33.6127 483.151 33.451 480.923 35.4676L483.369 38.1706L485.815 40.8737C485.071 41.5464 483.929 41.4908 483.254 40.758L485.935 38.2883ZM483.369 38.1706L480.923 35.4676L458.117 56.1051L460.563 58.8081L463.009 61.5111L485.815 40.8737L483.369 38.1706ZM460.563 58.8081L463.279 56.3769L411.51 -1.46624L408.794 0.964928L406.077 3.39609L457.847 61.2393L460.563 58.8081ZM1434.41 294.923V291.278C1369.39 291.278 1305.6 285.763 1243.5 275.175L1242.88 278.769L1242.27 282.362C1304.77 293.018 1368.98 298.569 1434.41 298.569V294.923ZM408.794 0.964928L411.51 -1.46634C410.473 -2.62524 408.991 -3.2877 407.435 -3.2877V0.357771V4.00324C406.917 4.00324 406.423 3.78241 406.077 3.3962L408.794 0.964928ZM407.435 0.357771V-3.2877H214.117V0.357771V4.00324H407.435V0.357771ZM1434.52 908.367L1434.52 912.012L1838.42 912.013L1838.42 908.368L1838.42 904.722L1434.52 904.721L1434.52 908.367ZM87.3016 0.357771V4.00324H164.352V0.357771V-3.2877H87.3016V0.357771ZM1134.48 254.742L1135.44 251.226C1102.31 242.15 1069.79 231.605 1037.95 219.664L1036.67 223.077L1035.39 226.49C1067.44 238.509 1100.17 249.123 1133.51 258.258L1134.48 254.742ZM39.2605 116.368L42.2694 114.31C29.1374 95.1111 16.3913 75.6275 4.0423 55.8702L0.951004 57.8024L-2.1403 59.7346C10.262 79.5771 23.063 99.1446 36.2516 118.426L39.2605 116.368ZM86.3142 0.648451L88.2891 3.71264C87.9949 3.90221 87.6522 4.00324 87.3016 4.00324V0.357771V-3.2877C86.2506 -3.2877 85.2222 -2.98479 84.3393 -2.41573L86.3142 0.648451ZM1.50938 55.3063L3.48429 58.3705L88.2891 3.71263L86.3142 0.648451L84.3393 -2.41573L-0.465525 52.2422L1.50938 55.3063ZM194.495 311.017L192.054 308.31L164.659 333.011L167.1 335.718L169.541 338.426L196.936 313.724L194.495 311.017ZM1155.58 891.613L1155.15 895.232C1156.13 895.35 1157.11 895.469 1158.09 895.586L1158.52 891.967L1158.96 888.347C1157.98 888.23 1157 888.112 1156.02 887.994L1155.58 891.613ZM0.951004 57.8024L4.0423 55.8702C4.57227 56.7181 4.32079 57.8314 3.48428 58.3705L1.50938 55.3063L-0.465524 52.2422C-2.97648 53.8605 -3.72612 57.1974 -2.1403 59.7346L0.951004 57.8024ZM167.1 335.718L164.659 333.011L47.1265 438.987L49.5677 441.694L52.0089 444.401L169.541 338.426L167.1 335.718ZM39.2605 116.368L36.2516 118.426C83.3378 187.265 135.364 252.457 191.819 313.492L194.495 311.017L197.171 308.542C140.957 247.767 89.1538 182.854 42.2694 114.31L39.2605 116.368ZM214.117 0.357771V-3.2877H164.352V0.357771V4.00324H214.117V0.357771ZM1954.57 602.319H1950.92C1950.92 605.34 1953.37 607.788 1956.39 607.788V604.142V600.497C1957.4 600.497 1958.21 601.312 1958.21 602.319H1954.57ZM1758.81 478.878H1755.16C1755.16 481.899 1757.61 484.346 1760.63 484.346V480.701V477.056C1761.64 477.056 1762.45 477.871 1762.45 478.878H1758.81ZM1956.39 692.671V689.025C1953.37 689.025 1950.92 691.473 1950.92 694.493H1954.57H1958.21C1958.21 695.5 1957.4 696.316 1956.39 696.316V692.671Z" fill="#172736" fill-opacity="0.15" mask="url(#path-1-inside-1_152_246)"/>
</g>
</g>
<g id="elevator">
<g clip-path="url(#clip0_152_246)">
<g id="Vector" opacity="0.5">
<path d="M399.719 315.039H398.173V321.22H393.537V315.039H391.992V311.176C391.992 309.476 393.383 308.085 395.083 308.085H396.628C398.328 308.085 399.719 309.476 399.719 311.176V315.039Z" fill="#172736"/>
<path d="M406.672 319.675L402.809 313.494H410.535L406.672 319.675Z" fill="#172736"/>
<path d="M402.809 310.403L406.672 304.222L410.535 310.403H402.809Z" fill="#172736"/>
<path d="M395.855 302.677C396.922 302.677 397.787 303.542 397.787 304.608C397.787 305.675 396.922 306.54 395.855 306.54C394.789 306.54 393.924 305.675 393.924 304.608C393.924 303.542 394.789 302.677 395.855 302.677Z" fill="#172736"/>
</g>
</g>
<path d="M394.492 298.796H408.035C411.558 298.796 414.415 301.652 414.415 305.176V318.719C414.415 322.242 411.558 325.099 408.035 325.099H394.492C390.968 325.099 388.112 322.242 388.112 318.719V305.176C388.112 301.652 390.968 298.796 394.492 298.796Z" stroke="#172736" stroke-opacity="0.15" stroke-width="1.82273"/>
</g>
<path id="staircase" d="M429.965 165.22L445.683 180.938M437.843 155.965L454.031 172.153M445.144 147.385L461.768 164.01M452.446 138.806L469.506 155.866M459.747 130.227L477.244 147.724M467.048 121.648L484.981 139.581M474.35 113.069L492.719 131.438M481.651 104.49L500.456 123.295M488.952 95.9106L508.194 115.152M464.508 71.4648L482.149 89.1061M456.505 79.3428L473.775 96.6123M448.503 87.2208L465.401 104.118M440.501 95.0988L457.026 111.625M432.498 102.977L448.652 119.131M424.496 110.855L440.278 126.637M416.493 118.733L431.903 134.143M408.491 126.611L423.529 141.65M399.857 135.111L414.494 149.748M445.021 180.392L507.884 114.513M465.067 72.085L400.258 135.629M430.708 165.936L489.498 96.0155L482.066 89.2737L414.31 149.25L430.708 165.936Z" stroke="#DCDFE1" stroke-width="1.82273"/>
<path id="staircase_2" d="M856.216 783.916L850.495 805.395M868.173 786.092L862.281 808.214M879.257 788.109L873.206 810.828M890.341 790.127L884.131 813.441M901.424 792.144L895.055 816.054M912.507 794.161L905.98 818.667M923.591 796.178L916.904 821.281M934.674 798.195L927.829 823.894M945.757 800.212L938.754 826.507M954.654 766.81L948.233 790.918M943.826 763.834L937.54 787.434M932.998 760.859L926.847 783.951M922.17 757.884L916.155 780.468M911.342 754.909L905.462 776.984M900.513 751.934L894.769 773.501M889.685 748.958L884.076 770.018M878.856 745.983L873.383 766.534M867.174 742.773L861.846 762.776M850.633 804.549L939.15 825.918M954.398 767.601L866.927 743.377M855.967 784.917L945.939 800.737L948.046 790.926L862.185 762.364L855.967 784.917Z" stroke="#DCDFE1" stroke-width="1.82273"/>
<g id="wc-icon">
<path d="M532.485 206.799H551.235C553.501 206.799 555.337 208.635 555.337 210.9V229.65C555.337 231.916 553.501 233.752 551.235 233.752H532.485C530.22 233.752 528.384 231.916 528.384 229.65V210.9C528.384 208.635 530.22 206.799 532.485 206.799Z" stroke="#172736" stroke-opacity="0.15" stroke-width="1.17187"/>
<path id="Vector_2" opacity="0.5" d="M536.889 209.162C537.478 209.162 538.044 209.396 538.461 209.813C538.878 210.23 539.112 210.796 539.112 211.385C539.112 211.975 538.878 212.54 538.461 212.957C538.044 213.374 537.478 213.608 536.889 213.608C536.299 213.608 535.734 213.374 535.317 212.957C534.9 212.54 534.666 211.975 534.666 211.385C534.666 210.796 534.9 210.23 535.317 209.813C535.734 209.396 536.299 209.162 536.889 209.162ZM535.222 214.72H538.556C539.146 214.72 539.711 214.954 540.128 215.371C540.545 215.788 540.779 216.353 540.779 216.943V223.056H539.112V231.393H534.666V223.056H532.999V216.943C532.999 216.353 533.233 215.788 533.65 215.371C534.067 214.954 534.632 214.72 535.222 214.72ZM546.893 209.162C547.482 209.162 548.048 209.396 548.465 209.813C548.881 210.23 549.116 210.796 549.116 211.385C549.116 211.975 548.881 212.54 548.465 212.957C548.048 213.374 547.482 213.608 546.893 213.608C546.303 213.608 545.738 213.374 545.321 212.957C544.904 212.54 544.67 211.975 544.67 211.385C544.67 210.796 544.904 210.23 545.321 209.813C545.738 209.396 546.303 209.162 546.893 209.162ZM545.225 231.393V224.724H541.891L544.77 216.287C545.048 215.376 545.892 214.72 546.893 214.72C547.893 214.72 548.738 215.376 549.016 216.287L551.895 224.724H548.56V231.393H545.225Z" fill="#172736"/>
</g>
<g id="staircase-icon">
<rect x="387.818" y="161.799" width="26.3672" height="26.3672" rx="6.15234" stroke="#172736" stroke-opacity="0.15" stroke-width="1.75781"/>
<path id="Vector_3" opacity="0.5" d="M404.221 168.637H411.623V171.809H407.394V176.039H403.164V180.268H398.935V184.498H391.533V181.326H395.762V177.096H399.992V172.867H404.221V168.637ZM399.114 169.335L393.288 175.161L391.353 173.226L397.179 167.4L395.234 165.465H401.049V171.281L399.114 169.335Z" fill="#172736"/>
</g>
<g id="staircase-icon_2">
<rect x="917.746" y="671.677" width="27.341" height="27.341" rx="6.37957" stroke="#172736" stroke-opacity="0.25" stroke-width="1.82273"/>
<path id="Vector_4" opacity="0.5" d="M934.756 678.768H942.431V682.057H938.045V686.443H933.659V690.829H929.274V695.215H921.599V691.925H925.984V687.539H930.37V683.154H934.756V678.768ZM929.46 679.492L923.419 685.533L921.412 683.526L927.454 677.485L925.436 675.479H931.467V681.509L929.46 679.492Z" fill="#172736"/>
</g>
<g id="location">
<g id="foodcourt">
<path id="area" d="M1193.38 546.426C1193.75 544.469 1195.62 543.171 1197.58 543.507C1205.99 544.946 1214.42 546.313 1222.88 547.601C1291.94 558.112 1362.66 563.564 1434.65 563.564H1604.71C1606.72 563.564 1608.35 565.197 1608.35 567.21V735.672C1608.35 736.672 1609.16 737.485 1610.17 737.485H1834.18C1836.19 737.486 1837.82 739.118 1837.82 741.131V903.178C1837.82 905.191 1836.19 906.822 1834.18 906.822H1434.76C1343.35 906.822 1253.2 901.474 1164.59 891.075L1160.37 890.576L1159.56 890.48H1159.56L1156.63 890.127V890.126L1130.76 887.079C1130.75 887.077 1130.73 887.076 1130.72 887.074L1130.97 885.27L1130.72 887.074C1130.72 887.074 1130.72 887.073 1130.71 887.073C1130.71 887.073 1130.71 887.072 1130.7 887.071C1130.69 887.069 1130.67 887.066 1130.64 887.062C1130.59 887.055 1130.51 887.045 1130.41 887.03C1130.21 887.001 1129.9 886.958 1129.51 886.901C1128.71 886.788 1127.54 886.619 1126.03 886.401C1123.01 885.965 1118.64 885.33 1113.23 884.53C1102.41 882.931 1087.43 880.675 1070.81 878.052C1037.59 872.808 997.752 866.087 971.425 860.193C969.342 859.727 968.211 857.634 968.749 855.682L1029.58 634.879C1030.12 632.908 1032.18 631.711 1034.2 632.365C1074.92 645.569 1158.11 660.818 1171.35 663.208L1193.38 546.426Z" fill="#FFEDD6" stroke="#FFCF94" stroke-width="3.64547" stroke-linejoin="round"/>
<path id="icon" fill-rule="evenodd" clip-rule="evenodd" d="M1387.5 732.061C1386.2 732.061 1384.77 731.024 1384.77 729.327V713.834C1384.77 713.834 1382.63 713.829 1380.27 713.834C1381.73 701.082 1385.93 688.316 1388.76 688.316C1389.58 688.316 1390.23 688.967 1390.24 689.867C1390.25 692.41 1390.24 720.146 1390.24 729.327C1390.24 730.837 1389.01 732.061 1387.5 732.061ZM1366.53 709.37C1366.53 708.111 1365.74 707.699 1364.02 706.321C1362.75 705.3 1361.88 703.709 1362.04 702.088C1362.5 697.464 1363.61 688.281 1363.61 688.281H1364.7V699.218H1366.53L1366.94 688.281H1368.05L1368.36 699.218H1370.19L1370.63 688.281H1371.65L1372.02 699.218H1373.85V688.281H1374.85C1374.85 688.281 1376.07 697.404 1376.58 702.043C1376.76 703.687 1375.83 705.309 1374.53 706.337C1372.8 707.706 1372.02 708.1 1372.02 709.379V729.293C1372.02 730.802 1370.79 732.027 1369.27 732.027C1367.76 732.027 1366.53 730.802 1366.53 729.293V709.37Z" fill="#FFA436"/>
<text id="title" fill="#172736" xml:space="preserve" style="white-space: pre" font-family="CoFo Weather 20240219 VF" font-size="27.341" font-weight="500" letter-spacing="0em"><tspan x="1307.17" y="765.739">&#x421;&#x442;&#x43e;&#x43b;&#x43e;&#x432;&#x430;&#x44f;</tspan></text>
</g>
<g id="beta-4">
<path id="area_2" d="M165.87 339.276C167.297 337.99 169.479 338.031 170.855 339.372L254.659 420.994L254.677 421.011L283.354 449.686C284.722 451.054 284.782 453.255 283.49 454.696L202.635 544.915C201.443 546.245 199.462 546.515 197.956 545.552C148.765 514.061 100.854 480.747 54.3174 445.703C52.4861 444.324 52.3688 441.618 54.0693 440.085L165.87 339.276Z" fill="#33D18F" fill-opacity="0.2" stroke="#B0EDD5" stroke-width="3.64547" stroke-miterlimit="16" stroke-linejoin="round"/>
<text id="title_2" fill="#172736" xml:space="preserve" style="white-space: pre" font-family="CoFo Weather 20240219 VF" font-size="18.2273" font-weight="500" letter-spacing="0em"><tspan x="105.926" y="450.294">&#x41f;&#x435;&#x440;&#x435;&#x433;&#x43e;&#x432;&#x43e;&#x440;&#x43a;&#x430;&#10;</tspan><tspan x="138.652" y="468.294">&#xab;&#x411;&#x435;&#x442;&#x430;&#xbb;</tspan></text>
<path id="icon_2" d="M174.889 423.894L178.316 427.908H175.679L172.247 423.894H174.889ZM176.407 409.844H172.392V410.847H176.407V409.844ZM169.382 427.908H171.389V423.894H169.382V427.908ZM162.439 427.908H165.076L168.508 423.894H165.866L162.439 427.908ZM176.407 411.851H172.392V412.855H176.407V411.851ZM176.407 413.858H172.392V414.862H176.407V413.858ZM167.876 416.869C169.645 416.869 171.093 415.558 171.339 413.858H167.374V409.894C165.674 410.14 164.364 411.588 164.364 413.356C164.364 415.296 165.936 416.869 167.876 416.869ZM168.378 409.894V412.855H171.339C171.117 411.32 169.912 410.116 168.378 409.894ZM176.407 415.865H172.392V416.869H176.407V415.865ZM181.425 406.833H180.421V421.887H160.349V406.833H159.346V403.822H181.425V406.833ZM178.414 406.833H162.356V419.88H178.414V406.833Z" fill="#33D18F"/>
</g>
<g id="beta">
<path id="area_3" d="M281.803 231.062L317.339 198.516C318.084 197.834 318.132 196.676 317.447 195.933C266.081 140.301 218.818 80.8223 176.14 17.979C175.559 17.1231 174.383 16.9204 173.55 17.5337L40.6793 115.326C39.8883 115.908 39.7008 117.012 40.2561 117.822C86.6362 185.478 137.802 249.595 193.265 309.687C193.945 310.424 195.093 310.471 195.833 309.794L225.279 282.827L281.803 231.062Z" fill="#33D18F" fill-opacity="0.2" stroke="#B0EDD5" stroke-width="3.64547" stroke-linejoin="round"/>
<text id="title_3" fill="#172736" xml:space="preserve" style="white-space: pre" font-family="CoFo Weather 20240219 VF" font-size="18.2273" font-weight="500" letter-spacing="0em"><tspan x="114.276" y="168.398">&#x41f;&#x435;&#x440;&#x435;&#x433;&#x43e;&#x432;&#x43e;&#x440;&#x43a;&#x430;&#10;</tspan><tspan x="147.001" y="186.398">&#xab;&#x411;&#x435;&#x442;&#x430;&#xbb;</tspan></text>
<path id="icon_3" d="M183.239 143.677L186.665 147.692H184.029L180.596 143.677H183.239ZM184.756 129.627H180.742V130.631H184.756V129.627ZM177.731 147.692H179.738V143.677H177.731V147.692ZM170.788 147.692H173.426L176.858 143.677H174.216L170.788 147.692ZM184.756 131.634H180.742V132.638H184.756V131.634ZM184.756 133.641H180.742V134.645H184.756V133.641ZM176.226 136.652C177.994 136.652 179.442 135.341 179.688 133.641H175.724V129.677C174.024 129.923 172.713 131.371 172.713 133.14C172.713 135.079 174.286 136.652 176.226 136.652ZM176.728 129.677V132.638H179.688C179.466 131.103 178.262 129.899 176.728 129.677ZM184.756 135.649H180.742V136.652H184.756V135.649ZM189.774 126.616H188.771V141.67H168.699V126.616H167.695V123.605H189.774V126.616ZM186.763 126.616H170.706V139.663H186.763V126.616Z" fill="#33D18F"/>
</g>
<g id="sever">
<path id="area_4" d="M405.807 2.17773C406.844 2.17773 407.832 2.6189 408.523 3.3916L456.896 57.4404C458.207 58.9047 458.121 61.1444 456.702 62.5039L388.629 127.726C387.144 129.148 384.775 129.061 383.398 127.533L337.406 76.5059V76.5068C336.741 75.7696 335.608 75.6995 334.857 76.3506L300.103 106.517C298.565 107.851 296.23 107.668 294.921 106.104C268.431 74.4695 243.237 41.713 219.418 7.91699C217.715 5.50034 219.449 2.17773 222.397 2.17773H405.807Z" fill="#33D18F" fill-opacity="0.2" stroke="#B0EDD5" stroke-width="3.64547" stroke-miterlimit="16" stroke-linejoin="round"/>
<text id="title_4" fill="#172736" xml:space="preserve" style="white-space: pre" font-family="CoFo Weather 20240219 VF" font-size="18.2273" font-weight="500" letter-spacing="0em"><tspan x="287" y="35.7181">&#x41f;&#x435;&#x440;&#x435;&#x433;&#x43e;&#x432;&#x43e;&#x440;&#x43a;&#x430;&#10;</tspan><tspan x="287" y="53.7181">&#xab;&#x421;&#x435;&#x432;&#x435;&#x440;&#xbb;</tspan></text>
<path id="icon_4" d="M275.041 44.0464L278.467 48.0607H275.83L272.398 44.0464H275.041ZM276.558 29.9961H272.544V30.9997H276.558V29.9961ZM269.533 48.0607H271.54V44.0464H269.533V48.0607ZM262.59 48.0607H265.228L268.66 44.0464H266.017L262.59 48.0607ZM276.558 32.0033H272.544V33.0069H276.558V32.0033ZM276.558 34.0105H272.544V35.0141H276.558V34.0105ZM268.028 37.0213C269.796 37.0213 271.244 35.7106 271.49 34.0105H267.526V30.0463C265.826 30.2922 264.515 31.7404 264.515 33.5087C264.515 35.4486 266.088 37.0213 268.028 37.0213ZM268.529 30.0463V33.0069H271.49C271.268 31.4724 270.064 30.2681 268.529 30.0463ZM276.558 36.0177H272.544V37.0213H276.558V36.0177ZM281.576 26.9854H280.572V42.0392H260.501V26.9854H259.497V23.9746L281.576 23.9746V26.9854ZM278.565 26.9854L262.508 26.9854V40.032H278.565V26.9854Z" fill="#33D18F"/>
</g>
<g id="beta-7">
<path id="area_5" d="M768.267 535.722C769.196 534.069 771.252 533.399 772.986 534.208C813.335 553.034 853.007 570.786 894.957 586.574C896.841 587.284 897.801 589.391 897.084 591.28L811.379 817.45C810.711 819.213 808.809 820.177 806.991 819.669C755.832 805.363 705.276 788.371 655.513 771.142C653.434 770.422 652.463 768.039 653.444 766.071L768.18 535.885L768.267 535.722Z" fill="#33D18F" fill-opacity="0.2" stroke="#B0EDD5" stroke-width="3.64547" stroke-linejoin="round"/>
<text id="title_5" transform="translate(714.626 688.01)" fill="#172736" xml:space="preserve" style="white-space: pre" font-family="CoFo Weather 20240219 VF" font-size="18.2273" font-weight="500" letter-spacing="0em"><tspan x="0.227829" y="15.2884">&#x41f;&#x435;&#x440;&#x435;&#x433;&#x43e;&#x432;&#x43e;&#x440;&#x43a;&#x430;&#10;</tspan><tspan x="32.9534" y="33.2884">&#xab;&#x411;&#x435;&#x442;&#x430;&#xbb;</tspan></text>
<path id="icon_5" d="M783.536 675.63L786.962 679.645H784.326L780.893 675.63H783.536ZM785.053 661.58H781.039V662.584H785.053V661.58ZM778.028 679.645H780.035V675.63H778.028V679.645ZM771.085 679.645H773.723L777.155 675.63H774.512L771.085 679.645ZM785.053 663.587H781.039V664.591H785.053V663.587ZM785.053 665.594H781.039V666.598H785.053V665.594ZM776.523 668.605C778.291 668.605 779.739 667.295 779.985 665.594H776.021V661.63C774.321 661.876 773.01 663.324 773.01 665.093C773.01 667.033 774.583 668.605 776.523 668.605ZM777.024 661.63V664.591H779.985C779.763 663.056 778.559 661.852 777.024 661.63ZM785.053 667.602H781.039V668.605H785.053V667.602ZM790.071 658.569H789.068V673.623H768.996V658.569H767.992V655.559H790.071V658.569ZM787.06 658.569H771.003V671.616H787.06V658.569Z" fill="#33D18F"/>
</g>
<g id="beta-3">
<path id="area_6" d="M222.708 285.175C224.146 283.858 226.365 283.906 227.745 285.283L306.053 363.46C307.469 364.873 307.481 367.164 306.08 368.593L257.219 418.416C255.813 419.85 253.512 419.877 252.073 418.476L171.195 339.703C169.687 338.234 169.734 335.795 171.298 334.385L195.716 312.367C196.079 312.04 196.294 311.581 196.316 311.096C196.352 310.315 196.562 309.121 197.523 308.24L222.708 285.175Z" fill="#33D18F" fill-opacity="0.2" stroke="#B0EDD5" stroke-width="3.64547" stroke-miterlimit="16" stroke-linejoin="round"/>
<text id="title_6" transform="translate(225.199 326.818) rotate(44.5523)" fill="#172736" xml:space="preserve" style="white-space: pre" font-family="CoFo Weather 20240219 VF" font-size="10.9364" font-weight="500" letter-spacing="0em"><tspan x="0" y="9.27306">&#x41f;&#x435;&#x440;&#x435;&#x433;&#x43e;&#x432;&#x43e;&#x440;&#x43a;&#x430;&#10;</tspan><tspan x="0" y="20.2731">&#xab;&#x411;&#x435;&#x442;&#x430;&#xbb;</tspan></text>
<path id="icon_6" d="M208.6 330.899L208.332 334.281L207.134 333.082L207.399 329.697L208.6 330.899ZM215.676 325.202L213.852 323.377L213.395 323.833L215.22 325.658L215.676 325.202ZM204.271 330.22L205.184 331.132L207.009 329.307L206.096 328.395L204.271 330.22ZM201.115 327.064L202.314 328.263L205.699 327.998L204.498 326.797L201.115 327.064ZM214.764 326.114L212.939 324.289L212.483 324.745L214.308 326.57L214.764 326.114ZM213.852 327.026L212.027 325.202L211.571 325.658L213.395 327.483L213.852 327.026ZM208.605 324.517C209.409 325.321 210.663 325.384 211.548 324.723L209.746 322.921L211.548 321.119C210.663 320.458 209.409 320.52 208.605 321.324C207.723 322.206 207.723 323.635 208.605 324.517ZM212.004 321.575L210.658 322.921L212.004 324.266C212.601 323.468 212.601 322.373 212.004 321.575ZM212.939 327.939L211.114 326.114L210.658 326.57L212.483 328.395L212.939 327.939ZM219.326 326.114L218.87 325.658L212.027 332.501L202.903 323.377L209.746 316.534L209.29 316.078L210.658 314.709L220.695 324.745L219.326 326.114ZM217.957 324.745L210.658 317.446L204.728 323.377L212.027 330.676L217.957 324.745Z" fill="#33D18F"/>
</g>
<g id="beta-2">
<path id="area_7" d="M279.241 233.4C280.675 232.087 282.887 232.131 284.268 233.499L359.968 308.462C361.394 309.874 361.41 312.172 360.005 313.604L311.185 363.386C309.767 364.832 307.441 364.844 306.007 363.413L227.975 285.516C226.505 284.048 226.556 281.65 228.088 280.247L279.241 233.4Z" fill="#33D18F" fill-opacity="0.2" stroke="#B0EDD5" stroke-width="3.64547" stroke-miterlimit="16" stroke-linejoin="round"/>
<text id="title_7" transform="translate(277.803 269.506) rotate(44.297)" fill="#172736" xml:space="preserve" style="white-space: pre" font-family="CoFo Weather 20240219 VF" font-size="10.9364" font-weight="500" letter-spacing="0em"><tspan x="0" y="9.27306">&#x41f;&#x435;&#x440;&#x435;&#x433;&#x43e;&#x432;&#x43e;&#x440;&#x43a;&#x430;&#10;</tspan><tspan x="0" y="20.2731">&#xab;&#x411;&#x435;&#x442;&#x430;&#xbb;</tspan></text>
<path id="icon_7" d="M259.851 276.047L259.584 279.429L258.386 278.231L258.65 274.846L259.851 276.047ZM266.928 270.35L265.103 268.525L264.647 268.981L266.472 270.806L266.928 270.35ZM255.523 275.368L256.435 276.281L258.26 274.456L257.348 273.543L255.523 275.368ZM252.367 272.212L253.566 273.411L256.951 273.147L255.75 271.945L252.367 272.212ZM266.015 271.262L264.191 269.438L263.734 269.894L265.559 271.719L266.015 271.262ZM265.103 272.175L263.278 270.35L262.822 270.806L264.647 272.631L265.103 272.175ZM259.857 269.666C260.661 270.47 261.915 270.532 262.799 269.871L260.997 268.069L262.799 266.267C261.915 265.606 260.661 265.668 259.857 266.472C258.975 267.354 258.975 268.784 259.857 269.666ZM263.255 266.723L261.91 268.069L263.255 269.415C263.852 268.616 263.852 267.522 263.255 266.723ZM264.191 273.087L262.366 271.262L261.91 271.719L263.734 273.543L264.191 273.087ZM270.577 271.262L270.121 270.806L263.278 277.649L254.154 268.525L260.997 261.682L260.541 261.226L261.91 259.857L271.946 269.894L270.577 271.262ZM269.209 269.894L261.91 262.595L255.979 268.525L263.278 275.824L269.209 269.894Z" fill="#33D18F"/>
</g>
<g id="beta-5">
<path id="area_8" d="M314.556 418.779C314.835 418.507 315.451 418.074 316.316 418.287L316.319 418.288C316.484 418.329 316.642 418.391 316.79 418.472L316.932 418.559L317.107 418.692C317.158 418.737 317.204 418.779 317.242 418.818L317.387 418.99L317.503 419.166L317.504 419.167V419.168L317.505 419.169L317.506 419.171C317.507 419.172 317.508 419.174 317.509 419.176C317.511 419.179 317.513 419.183 317.515 419.187C317.519 419.193 317.523 419.2 317.527 419.207C317.535 419.221 317.543 419.237 317.551 419.253C317.568 419.285 317.585 419.32 317.602 419.359C317.619 419.398 317.636 419.441 317.653 419.489L317.702 419.646L317.704 419.652C323.968 443.898 339.406 464.453 360.095 477.398C361.938 478.551 362.42 481.081 361.023 482.815L275.244 589.297C274.11 590.704 272.115 591.069 270.556 590.151C248.19 576.976 226.067 563.432 204.195 549.528C202.294 548.32 201.935 545.696 203.436 544.021L243.899 498.873L285.794 452.127V452.126L314.458 418.884L314.556 418.779Z" fill="#33D18F" fill-opacity="0.2" stroke="#B0EDD5" stroke-width="3.64547" stroke-miterlimit="16" stroke-linejoin="round"/>
<text id="title_8" transform="translate(247.589 531.953) rotate(-51.4632)" fill="#172736" xml:space="preserve" style="white-space: pre" font-family="CoFo Weather 20240219 VF" font-size="10.9364" font-weight="500" letter-spacing="0em"><tspan x="0" y="9.27306">&#x41f;&#x435;&#x440;&#x435;&#x433;&#x43e;&#x432;&#x43e;&#x440;&#x43a;&#x430;&#10;</tspan><tspan x="0" y="20.2731">&#xab;&#x411;&#x435;&#x442;&#x430;&#xbb;</tspan></text>
<path id="icon_8" d="M254.921 549.653L258.311 549.508L257.266 550.843L253.874 550.991L254.921 549.653ZM248.408 543.319L246.818 545.352L247.326 545.749L248.916 543.717L248.408 543.319ZM254.772 554.032L255.567 553.016L253.534 551.425L252.739 552.442L254.772 554.032ZM252.022 557.547L253.066 556.212L252.393 552.884L251.347 554.222L252.022 557.547ZM249.424 544.114L247.834 546.147L248.342 546.544L249.932 544.512L249.424 544.114ZM250.441 544.909L248.85 546.942L249.359 547.339L250.949 545.307L250.441 544.909ZM248.586 550.421C249.286 549.526 249.196 548.273 248.433 547.475L246.863 549.483L244.856 547.912C244.307 548.87 244.521 550.108 245.416 550.808C246.398 551.577 247.817 551.403 248.586 550.421ZM245.253 547.404L246.752 548.577L247.925 547.078C247.06 546.582 245.973 546.715 245.253 547.404ZM251.457 545.704L249.867 547.737L250.375 548.135L251.965 546.102L251.457 545.704ZM248.871 539.586L248.474 540.094L256.096 546.057L248.145 556.22L240.523 550.257L240.125 550.765L238.601 549.572L247.347 538.393L248.871 539.586ZM247.679 541.11L241.318 549.24L247.924 554.408L254.284 546.278L247.679 541.11Z" fill="#33D18F"/>
</g>
<g id="beta-6">
<path id="area_9" d="M466.981 480.885L354.355 633.639C353.28 635.097 351.296 635.544 349.698 634.687C325.168 621.516 300.906 607.913 276.92 593.888C274.995 592.762 274.525 590.189 275.922 588.455L361.75 481.913L361.967 481.666C363.099 480.492 364.877 480.219 366.317 480.978C379.751 488.053 395.054 492.058 411.292 492.059C432.266 492.059 450.114 487.656 464.521 478.275L472.955 472.783L466.981 480.885Z" fill="#33D18F" fill-opacity="0.2" stroke="#B0EDD5" stroke-width="3.64547" stroke-miterlimit="16"/>
<text id="title_9" transform="translate(324.536 578.756) rotate(-51.4632)" fill="#172736" xml:space="preserve" style="white-space: pre" font-family="CoFo Weather 20240219 VF" font-size="10.9364" font-weight="500" letter-spacing="0em"><tspan x="0" y="9.27306">&#x41f;&#x435;&#x440;&#x435;&#x433;&#x43e;&#x432;&#x43e;&#x440;&#x43a;&#x430;&#10;</tspan><tspan x="0" y="20.2731">&#xab;&#x411;&#x435;&#x442;&#x430;&#xbb;</tspan></text>
<path id="icon_9" d="M335.735 598.411L339.125 598.266L338.081 599.601L334.689 599.749L335.735 598.411ZM329.222 592.077L327.632 594.11L328.14 594.507L329.731 592.475L329.222 592.077ZM335.586 602.79L336.381 601.773L334.349 600.183L333.554 601.199L335.586 602.79ZM332.836 606.305L333.881 604.97L333.208 601.642L332.161 602.979L332.836 606.305ZM330.239 592.872L328.649 594.905L329.157 595.302L330.747 593.27L330.239 592.872ZM331.255 593.667L329.665 595.7L330.173 596.097L331.763 594.065L331.255 593.667ZM329.4 599.179C330.101 598.284 330.011 597.031 329.247 596.233L327.677 598.24L325.67 596.67C325.121 597.628 325.335 598.866 326.23 599.566C327.213 600.334 328.632 600.161 329.4 599.179ZM326.068 596.162L327.567 597.335L328.739 595.836C327.875 595.34 326.788 595.473 326.068 596.162ZM332.271 594.462L330.681 596.495L331.189 596.892L332.779 594.86L332.271 594.462ZM329.686 588.344L329.288 588.852L336.91 594.815L328.959 604.978L321.337 599.015L320.94 599.523L319.416 598.33L328.161 587.151L329.686 588.344ZM328.493 589.868L322.133 597.998L328.738 603.166L335.099 595.036L328.493 589.868Z" fill="#33D18F"/>
</g>
<g id="alpha">
<path id="area_10" d="M531.956 392.766C533.149 391.147 535.427 390.801 537.047 391.988C608.776 444.545 685.283 490.963 765.798 530.469C767.6 531.353 768.352 533.531 767.472 535.34L654.586 767.246C653.769 768.923 651.818 769.713 650.064 769.076C548.583 732.198 450.439 688.368 356.205 638.163C354.241 637.117 353.668 634.573 354.986 632.784L531.956 392.766Z" fill="#33D18F" fill-opacity="0.2" stroke="#B0EDD5" stroke-width="3.64547" stroke-linejoin="round"/>
<text id="title_10" fill="#172736" xml:space="preserve" style="white-space: pre" font-family="CoFo Weather 20240219 VF" font-size="18.2273" font-weight="500" letter-spacing="0em"><tspan x="508.411" y="595.581">&#x41f;&#x435;&#x440;&#x435;&#x433;&#x43e;&#x432;&#x43e;&#x440;&#x43a;&#x430;&#10;</tspan><tspan x="532.335" y="613.581">&#xab;&#x410;&#x43b;&#x44c;&#x444;&#x430;&#xbb;</tspan></text>
<path id="icon_10" d="M576.656 560.628L580.083 564.643H577.446L574.014 560.628H576.656ZM578.174 546.578H574.159V547.582H578.174V546.578ZM571.149 564.643H573.156V560.628H571.149V564.643ZM564.206 564.643H566.843L570.276 560.628H567.633L564.206 564.643ZM578.174 548.585H574.159V549.589H578.174V548.585ZM578.174 550.593H574.159V551.596H578.174V550.593ZM569.643 553.603C571.412 553.603 572.86 552.293 573.106 550.593H569.141V546.628C567.441 546.874 566.131 548.322 566.131 550.091C566.131 552.031 567.703 553.603 569.643 553.603ZM570.145 546.628V549.589H573.106C572.884 548.054 571.68 546.85 570.145 546.628ZM578.174 552.6H574.159V553.603H578.174V552.6ZM583.192 543.567H582.188V558.621H562.116V543.567H561.113V540.557H583.192V543.567ZM580.181 543.567H564.124V556.614H580.181V543.567Z" fill="#33D18F"/>
</g>
<g id="bufet">
<path id="area_11" d="M786.139 229.262C787.147 227.573 789.312 226.989 791.033 227.94L887.307 281.2C889.009 282.142 889.672 284.254 888.813 285.999L789.546 487.859C788.661 489.659 786.487 490.407 784.682 489.528C726.741 461.33 670.904 429.487 617.471 394.296C615.782 393.184 615.324 390.91 616.444 389.23L688.453 281.295C689.565 279.628 691.813 279.171 693.487 280.271L736.561 308.582C737.435 309.157 738.614 308.886 739.149 307.989L786.139 229.262Z" fill="#FFEDD6" stroke="#FFCF94" stroke-width="3.64547" stroke-linejoin="round"/>
<text id="title_11" fill="#172736" xml:space="preserve" style="white-space: pre" font-family="CoFo Weather 20240219 VF" font-size="18.2273" font-weight="500" letter-spacing="0em"><tspan x="715.405" y="403.076">&#x411;&#x443;&#x444;&#x435;&#x442;</tspan></text>
<path id="icon_11" fill-rule="evenodd" clip-rule="evenodd" d="M749.988 375.227C749.15 375.227 748.229 374.561 748.229 373.47V363.509C748.229 363.509 746.856 363.505 745.338 363.509C746.278 355.31 748.974 347.102 750.799 347.102C751.323 347.102 751.741 347.521 751.745 348.1C751.756 349.734 751.748 367.567 751.746 373.47C751.746 374.44 750.958 375.227 749.988 375.227ZM736.506 360.639C736.506 359.829 735.998 359.564 734.892 358.678C734.075 358.022 733.513 356.999 733.617 355.957C733.912 352.984 734.627 347.08 734.627 347.08H735.33V354.111H736.506L736.767 347.08H737.478L737.681 354.111H738.856L739.14 347.08H739.799L740.032 354.111H741.207V347.08H741.851C741.851 347.08 742.64 352.945 742.965 355.928C743.08 356.985 742.486 358.028 741.65 358.689C740.538 359.569 740.032 359.822 740.032 360.645V373.447C740.032 374.418 739.243 375.205 738.268 375.205C737.294 375.205 736.506 374.418 736.506 373.447V360.639Z" fill="#FFA436"/>
</g>
</g>
</g>
<defs>
<clipPath id="clip0_152_246">
<path d="M387.201 305.176C387.201 301.149 390.465 297.885 394.492 297.885H408.035C412.061 297.885 415.326 301.149 415.326 305.176V318.719C415.326 322.746 412.061 326.01 408.035 326.01H394.492C390.465 326.01 387.201 322.746 387.201 318.719V305.176Z" fill="white"/>
</clipPath>
</defs>
</svg>
