<svg width="1128" height="501" viewBox="0 0 1128 501" fill="none" xmlns="http://www.w3.org/2000/svg">
<g id="b1f10">
<g id="Ellipse 30">
<path d="M586.608 259.834L581.993 258.306L578.756 267.956L572.449 286.756L581.016 289.633L590.997 261.297L589.728 260.874L586.608 259.834Z" fill="white"/>
<path d="M245.556 184.474C245.962 184.883 246.629 184.865 247.012 184.434L264.482 164.819C264.849 164.408 264.813 163.777 264.403 163.409C257.804 157.479 251.3 151.445 244.894 145.31L225.641 164.44L245.556 184.474Z" fill="white"/>
<path fill-rule="evenodd" clip-rule="evenodd" d="M596.626 353.533L567.935 344.036L561.17 365.71L590.184 375.466L596.626 353.533Z" fill="white"/>
<path d="M567.935 344.036L596.626 353.533L590.184 375.466L561.17 365.71L567.935 344.036Z" fill="white"/>
<path fill-rule="evenodd" clip-rule="evenodd" d="M392.478 105.292C371.239 89.0613 350.947 71.6547 331.699 53.1693C321.21 43.0966 311.032 32.7036 301.179 22.0061C300.807 21.602 300.178 21.5729 299.771 21.9415L287.259 33.2638L260.399 3.25218L259.809 2.59279L258.857 1.5295C258.667 1.31754 258.396 1.1964 258.112 1.1964H221.072H152.052H124.75H82.1836L1 1.1964C26.8117 47.3088 57.6969 91.0299 91.3637 131.944C101.522 144.29 111.934 156.38 122.537 168.203C125.919 171.821 129.332 175.413 132.775 178.977L132.946 179.153L141.287 171.632L158.176 156.165L170.029 145.31L189.186 127.766L225.641 164.44L244.894 145.31C251.3 151.445 257.804 157.479 264.403 163.409C264.813 163.777 264.849 164.408 264.482 164.819L247.012 184.434C246.629 184.865 245.962 184.883 245.556 184.474L225.641 164.44L189.186 127.766L170.029 145.31L158.176 156.165L141.287 171.632L132.946 179.153C143.448 190.021 154.229 200.644 165.279 211.042C175.841 220.98 186.647 230.713 197.69 240.258C208.234 249.373 218.992 258.317 229.958 267.106C230.658 267.666 231.358 268.226 232.059 268.785C243.705 278.076 255.582 287.194 267.681 296.158C289.36 312.219 311.75 327.373 334.797 341.563C359.796 356.956 385.568 371.215 412.04 384.269C436.979 396.567 462.54 407.796 488.663 417.895C489.52 418.226 490.377 418.557 491.236 418.885C500.802 422.552 510.444 426.067 520.157 429.428C537.147 435.306 554.356 440.712 571.77 445.631C599.001 453.323 626.733 459.823 654.904 465.072C655.828 465.244 656.752 465.415 657.676 465.584C670.274 467.892 682.958 469.949 695.725 471.752C738.11 477.734 781.4 480.901 825.4 481.056C826.53 481.06 827.66 481.062 828.791 481.062H911.042H945.628H995.344H1085.27C1085.82 481.062 1086.27 480.614 1086.27 480.062V381.018H1105.93C1115.77 381.018 1126.75 374.292 1126.75 363.511V333.449C1126.75 332.896 1126.3 332.449 1125.75 332.449H1107.91C1107.36 332.449 1106.91 332.001 1106.91 331.449V265.725C1106.91 265.173 1106.46 264.725 1105.91 264.725H1062.91H999.51V253.078C999.51 252.526 999.062 252.078 998.51 252.078H866.91H841.831H826.466L826.054 252.079C825.836 252.079 825.618 252.079 825.4 252.079C825.045 252.079 824.69 252.079 824.335 252.078C803.12 252.047 782.118 251.09 761.368 249.245C755.228 248.699 749.111 248.075 743.017 247.374C727.081 245.542 711.303 243.185 695.702 240.321C674.096 236.354 652.828 231.413 631.948 225.546C610.781 219.598 590.012 212.698 569.693 204.894C549.058 196.969 528.887 188.112 509.233 178.373C480.033 163.905 451.973 147.491 425.229 129.299C416.766 123.542 408.434 117.606 400.239 111.498L392.478 105.292ZM596.626 353.533L567.935 344.036L561.17 365.71L590.184 375.466L596.626 353.533ZM581.993 258.306L586.608 259.834L589.728 260.874L590.997 261.297L581.016 289.633L595.567 294.52L587.045 319.304L576.621 315.947L572.244 314.536L564.983 312.198C564.453 312.027 564.164 311.456 564.341 310.928L566.363 304.902L571.012 291.041L572.449 286.756L578.756 267.956L581.993 258.306ZM223.135 50.6802C223.506 51.0921 224.141 51.1239 224.551 50.7511L229.106 46.6103C229.507 46.2456 229.545 45.6278 229.191 45.2173L221.072 35.8026L214.655 41.2611L223.135 50.6802Z" fill="white"/>
<path d="M564.341 310.928C564.164 311.456 564.453 312.027 564.983 312.198L572.244 314.536L576.621 315.947L578.466 309.97C578.627 309.448 578.34 308.894 577.821 308.724L574.656 307.689L566.363 304.902L564.341 310.928Z" fill="white"/>
<path d="M595.567 294.52L581.016 289.633L574.656 307.689L577.821 308.724C578.34 308.894 578.627 309.448 578.466 309.97L576.621 315.947L587.045 319.304L595.567 294.52Z" fill="white"/>
<path d="M581.016 289.633L572.449 286.756L571.012 291.041L566.363 304.902L574.656 307.689L581.016 289.633Z" fill="white"/>
<path d="M267.681 296.158L300.507 251.638L311.381 236.89M267.681 296.158C289.36 312.219 311.75 327.373 334.797 341.563C359.796 356.956 385.568 371.215 412.04 384.269C436.979 396.567 462.54 407.796 488.663 417.895M267.681 296.158C255.582 287.194 243.705 278.076 232.059 268.785C231.358 268.226 230.658 267.666 229.958 267.106M999.51 264.725H1062.91M999.51 264.725L995.344 265.842M999.51 264.725V253.078M287.259 33.2638L246.305 72.5025L237.201 81.2254M287.259 33.2638L299.771 21.9415M287.259 33.2638L260.399 3.25218L259.809 2.59279L258.857 1.5295M331.699 53.1693C350.947 71.6546 371.239 89.0613 392.478 105.292L400.239 111.498M331.699 53.1693L262.683 129.51M331.699 53.1693C321.21 43.0966 311.032 32.7036 301.179 22.0061M124.62 1.00011C124.664 1.06555 124.707 1.13098 124.75 1.1964M225.641 92.3012L238.24 105.498M225.641 92.3012L237.201 81.2254M225.641 92.3012L202.102 68.564M340.225 194.018L316.341 175.649M340.225 194.018L355.195 173.434M340.225 194.018C343.674 196.544 347.144 199.044 350.634 201.517M400.239 111.498C408.434 117.606 416.766 123.542 425.229 129.299M400.239 111.498L355.195 173.434M189.186 127.766L210.273 108.454M189.186 127.766L225.641 164.44M189.186 127.766L170.029 145.31L158.176 156.165L141.287 171.632L132.946 179.153M1 1.1964L82.1836 1.1964H124.75M1 1.1964C27.1091 48.7922 57.2036 92.2396 90.8344 132.398M1 1.1964C26.8117 47.3088 57.6969 91.0299 91.3637 131.944M1086.27 381.018H1105.93C1115.77 381.018 1126.75 374.292 1126.75 363.511V333.449M1086.27 381.018H1059.73C1059.28 381.018 1058.88 380.714 1058.77 380.276L1058.05 377.59C1057.93 377.153 1057.53 376.849 1057.08 376.849H1011.85M1086.27 381.018V480.062M197.69 240.258C208.234 249.373 218.992 258.317 229.958 267.106M197.69 240.258C186.647 230.713 175.841 220.98 165.279 211.042C154.229 200.644 143.448 190.021 132.946 179.153M197.69 240.258L222.899 212.351M244.894 145.31C251.3 151.445 257.804 157.479 264.403 163.409C264.813 163.777 264.849 164.408 264.482 164.819L247.012 184.434C246.629 184.865 245.962 184.883 245.556 184.474L225.641 164.44M244.894 145.31L225.641 164.44M244.894 145.31C243.711 144.178 242.532 143.043 241.357 141.904M826.466 252.078L826.054 252.079M826.466 252.078C826.329 252.079 826.191 252.079 826.054 252.079M826.466 252.078H841.831M235.508 136.181C223.571 124.387 211.989 112.237 200.778 99.7457M262.683 129.51C270.919 137.269 279.316 144.857 287.87 152.271M262.683 129.51C259.796 126.79 256.929 124.049 254.082 121.288M246.305 113.816L256.946 102.118C257.307 101.722 257.291 101.111 256.91 100.734L237.201 81.2254M246.305 113.816L244.471 111.73M246.305 113.816L247.876 115.387M368.755 213.993C369.723 214.641 370.693 215.287 371.665 215.931C382.759 223.282 394.043 230.368 405.509 237.18M368.755 213.993L382.795 192.937M368.755 213.993C365.501 211.818 362.265 209.619 359.045 207.398M425.229 129.299L382.795 192.937M425.229 129.299C451.973 147.491 480.033 163.905 509.233 178.373C528.887 188.112 549.058 196.969 569.693 204.894M382.795 192.937L374.053 186.76M355.195 173.434L365.311 180.583M488.663 417.895C489.52 418.226 490.377 418.557 491.236 418.885C500.802 422.552 510.444 426.067 520.157 429.428M488.663 417.895L501.659 384.176M525.351 322.71L523.371 327.847M525.351 322.71L538.586 326.763M525.351 322.71C513.006 318.018 500.77 313.028 488.663 307.75M533.665 299.825L542.122 276.776M533.665 299.825L537.058 301.413M533.665 299.825C523.926 296.155 514.276 292.252 504.715 288.142M569.693 204.894C590.012 212.698 610.781 219.598 631.948 225.546M569.693 204.894L558.102 235.114M570.112 443.805L581.356 405.523M581.356 405.523L552.592 396.547C552.064 396.382 551.77 395.822 551.935 395.294L557.705 376.808M581.356 405.523L590.184 375.466M567.935 344.036L569.815 338.013C569.979 337.487 570.538 337.193 571.065 337.356L574.124 338.302M567.935 344.036L596.626 353.533M567.935 344.036L561.17 365.71M596.626 353.533L590.184 375.466M596.626 353.533L598.364 347.615M590.184 375.466L561.17 365.71M561.17 365.71L560.191 368.845M520.157 429.428C537.147 435.306 554.356 440.712 571.77 445.631C599.001 453.323 626.733 459.823 654.904 465.072C655.828 465.244 656.752 465.415 657.676 465.584C670.274 467.892 682.958 469.949 695.725 471.752M520.157 429.428L528.58 403.944M523.371 327.847L550.685 337.061M523.371 327.847L514.656 350.458M550.685 337.061L552.343 332.044C552.519 331.511 552.222 330.938 551.686 330.774L548.164 329.696M550.685 337.061L548.164 344.687M543.14 359.889L514.656 350.458M543.14 359.889L535.739 382.281M543.14 359.889L545.644 352.313M514.656 350.458L501.659 384.176M531.649 394.658L501.659 384.176M531.649 394.658L531.123 396.249L532.509 392.056L531.649 394.658ZM590.997 343.525L597.909 345.665C598.432 345.826 598.727 346.377 598.573 346.902L598.364 347.615M604.275 324.144C616.81 327.144 629.344 330.144 641.878 333.144M604.275 324.144L611.444 298.823M604.275 324.144L598.851 322.71M631.948 225.546L625.409 249.495L619.642 269.864M631.948 225.546C652.828 231.413 674.096 236.354 695.702 240.321C711.303 243.185 727.081 245.542 743.017 247.374M581.993 258.306L586.608 259.834L589.728 260.874M581.993 258.306L579.09 257.344C578.555 257.167 578.272 256.583 578.464 256.054L582.808 244.065C583.001 243.532 582.712 242.944 582.171 242.772L558.102 235.114M581.993 258.306L578.756 267.956M590.997 261.297L581.016 289.633M590.997 261.297L589.728 260.874M590.997 261.297L592.392 261.83M554.427 280.704L558.102 281.938M598.851 295.623L595.567 294.52M545.644 305.968L549.445 307.193M590.997 320.577L587.045 319.304M553.595 295.623L556.515 286.756M558.102 281.938L572.449 286.756M558.102 281.938L556.515 286.756M550.931 302.717L549.445 307.193M549.445 307.193L576.621 315.947M542.122 276.776L546.024 278.247M542.122 276.776L549.337 257.966M595.567 294.52L581.016 289.633M595.567 294.52L587.045 319.304M586.608 320.577L587.045 319.304M967.526 380.255H930.516M930.516 380.255V404.202C930.516 404.754 930.964 405.202 931.516 405.202H967.526H994.344C994.897 405.202 995.344 404.754 995.344 404.202V376.849M930.516 380.255H926.498M995.344 376.849H999.51H978.458M995.344 376.849V436.028V481.062M995.344 481.062H1085.27M995.344 481.062H945.628H911.042M1022.38 352.947H1062.91M1066.07 352.947H1062.91M1062.91 352.947V264.725M1062.91 264.725H1105.91M995.344 265.842V352.947M995.344 265.842H968.526C967.974 265.842 967.526 266.289 967.526 266.842V352.947M995.344 352.947H1009.22M995.344 352.947H986.587M974.217 352.947H967.526M967.526 352.947H909.42C908.868 352.947 908.42 353.395 908.42 353.947V354.842C908.42 355.394 907.972 355.842 907.42 355.842H893.079M132.775 178.977C132.499 178.983 132.223 178.874 132.021 178.655M132.775 178.977C129.332 175.413 125.919 171.821 122.537 168.203M132.775 178.977C132.832 179.036 132.889 179.095 132.946 179.153M132.775 178.977L132.946 179.153M132.021 178.655C128.844 175.194 125.682 171.71 122.537 168.203M132.021 178.655C132.167 178.813 132.313 178.972 132.459 179.131C132.587 179.271 132.805 179.281 132.946 179.153M122.537 168.203C111.65 156.557 101.078 144.63 90.8344 132.398M122.537 168.203C111.934 156.38 101.522 144.29 91.3637 131.944M124.75 1.1964H152.052H221.072H258.112M124.75 1.1964C139.114 22.9938 154.518 44.14 170.863 64.5073M258.112 1.1964C258.396 1.1964 258.667 1.31754 258.857 1.5295M258.112 1.1964C258.396 1.1964 258.667 1.31754 258.857 1.5295M299.771 21.9415C300.178 21.5729 300.807 21.602 301.179 22.0061M299.771 21.9415C300.178 21.5729 300.807 21.602 301.179 22.0061M826.054 252.079C825.836 252.079 825.618 252.079 825.4 252.079C825.045 252.079 824.69 252.079 824.335 252.078M998.51 252.078C999.062 252.078 999.51 252.526 999.51 253.078M998.51 252.078H866.91H841.831M998.51 252.078C999.062 252.078 999.51 252.526 999.51 253.078M1105.91 264.725C1106.46 264.725 1106.91 265.173 1106.91 265.725M1105.91 264.725C1106.46 264.725 1106.91 265.173 1106.91 265.725M1106.91 265.725V331.449M1106.91 331.449C1106.91 332.001 1107.36 332.449 1107.91 332.449M1106.91 331.449C1106.91 332.001 1107.36 332.449 1107.91 332.449M1107.91 332.449H1125.75M1125.75 332.449C1126.3 332.449 1126.75 332.896 1126.75 333.449M1125.75 332.449C1126.3 332.449 1126.75 332.896 1126.75 333.449M1086.27 480.062C1086.27 480.614 1085.82 481.062 1085.27 481.062M1086.27 480.062C1086.27 480.614 1085.82 481.062 1085.27 481.062M237.201 196.519L222.899 212.351M237.201 196.519L229.734 204.785L222.899 212.351M237.201 196.519L239.048 198.006M311.381 236.89L327.018 215.683C327.345 215.239 327.971 215.144 328.416 215.471C334.606 220.018 340.862 224.482 347.181 228.861L356.042 234.917C361.992 238.927 367.996 242.863 374.053 246.723L381.848 251.63C383.246 252.499 384.647 253.365 386.051 254.226C386.519 254.513 386.669 255.124 386.386 255.594L385.578 256.942C385.287 257.425 385.454 258.053 385.946 258.329L406.803 270.029C407.288 270.3 407.901 270.126 408.168 269.639L409.716 266.831C409.981 266.35 410.583 266.173 411.066 266.432L434.938 279.266M311.381 236.89L277.699 210.393C277.271 210.056 276.652 210.124 276.307 210.545L275.04 212.091M229.958 267.106L267.681 221.071M267.681 221.071L246.305 203.852M267.681 221.071L269.163 219.263M414.096 242.211C431.002 251.978 448.098 261.256 465.484 269.92C475.165 274.744 484.944 279.38 494.818 283.799M1075.81 352.947H1103.49M222.899 212.351L220.733 210.382M581.016 289.633L572.449 286.756M581.016 289.633L574.656 307.689M587.045 319.304L576.621 315.947M572.449 286.756L578.756 267.956M572.449 286.756L571.012 291.041M177.639 72.8402L180.574 70.2956M177.639 72.8402L175.785 74.0192C175.27 74.3468 175.166 75.0554 175.565 75.5171L187.794 89.6572C188.128 90.0431 188.698 90.1159 189.118 89.8261L190.346 88.9785C190.778 88.6807 191.366 88.7666 191.694 89.1751L194.533 92.7093M177.639 72.8402C175.363 70.0775 173.104 67.2997 170.863 64.5073M598.364 347.615L629.543 354.98M820.557 376.708L825.4 376.849H830.318M841.831 355.842H866.91H882.452M841.831 355.842H832.642L820.557 355.583L774.208 353.108M841.831 355.842V252.078M917.152 380.255H911.042M911.042 380.255H909.441H890.236C889.684 380.255 889.236 379.808 889.236 379.255V377.849C889.236 377.296 888.788 376.849 888.236 376.849H887.199H877.135H840.664M911.042 380.255V436.028V481.062M911.042 481.062H828.791C827.66 481.062 826.53 481.06 825.4 481.056C781.4 480.901 738.11 477.734 695.725 471.752M90.8344 132.398L91.3637 131.944M188.38 108.454L158.828 75.3718C158.466 74.9658 157.845 74.9245 157.432 75.279L91.3637 131.944M166.852 67.7163L170.863 64.5073M192.435 2.59279L221.072 35.8026M221.072 35.8026L229.191 45.2173C229.545 45.6278 229.507 46.2456 229.106 46.6103L224.551 50.7511C224.141 51.1239 223.506 51.0921 223.135 50.6802L214.655 41.2611M221.072 35.8026L214.655 41.2611M187.327 64.5073L193.938 58.8839M214.655 41.2611L193.938 58.8839M195.355 60.5234L193.938 58.8839M448.429 286.329L455.71 289.913C456.226 290.167 456.422 290.803 456.138 291.303L456.029 291.496C455.745 291.997 455.942 292.634 456.46 292.886C467.087 298.07 477.824 303.026 488.663 307.75M488.663 307.75L482.842 320.588M468.778 346.828L446.677 398.061M473.55 337.061L475.902 331.963C476.13 331.469 476.712 331.248 477.211 331.466L514.656 347.832M710.433 367.694L705.359 403.594M710.433 367.694L732.659 370.03M710.433 367.694L696.138 365.788M695.725 471.752L704.944 406.525M704.944 406.525L673.203 401.73M704.944 406.525L705.359 403.594M641.462 396.935L673.203 401.73M673.203 401.73L678.491 363.398M678.491 363.398L679.444 363.562L686.175 364.459M678.491 363.398L639.268 356.653M749.155 371.764L808.411 375.164M749.155 371.764L746.047 407.985C745.998 408.554 745.483 408.967 744.918 408.891L705.359 403.594M749.155 371.764L742.829 371.099M728.983 348.807L751.663 351.904L762.936 352.506M728.983 348.807L733.736 317.713M728.983 348.807L677.339 341.63C668.891 339.608 660.444 337.587 651.997 335.565M735.31 307.412L733.736 317.713M776.55 311.464L775.985 321.511M774.208 353.108L775.985 321.511M774.208 353.108L771.605 352.969M738.886 277.614L743.017 247.374M743.017 247.374C749.111 248.075 755.228 248.699 761.368 249.245C782.118 251.09 803.12 252.047 824.335 252.078M824.335 252.078V267.841M775.985 321.511L733.736 317.713M558.102 235.114L549.337 257.966M589.728 260.874L594.617 246.081M600.328 264.194L619.642 269.864M619.642 269.864L611.444 298.823M578.756 267.956L560.733 261.83M552.534 259.249L549.337 257.966M556.515 286.756L571.012 291.041M571.012 291.041L566.363 304.902M574.656 307.689L577.821 308.724C578.34 308.894 578.627 309.448 578.466 309.97L576.621 315.947M574.656 307.689L566.363 304.902M576.621 315.947L572.244 314.536L564.983 312.198C564.452 312.027 564.164 311.456 564.341 310.928L566.363 304.902M607.518 297.608L611.444 298.823M821.595 499.354C821.17 499.355 822.02 499.354 821.595 499.354Z" stroke="#BFC4C8" stroke-width="2" stroke-linecap="round" stroke-linejoin="round"/>
</g>
<text id="title" fill="#172736" xml:space="preserve" style="white-space: pre" font-family="CoFo Weather 20240219" font-size="10" font-weight="500" letter-spacing="0em"><tspan x="1006.21" y="306.973">&#x41b;&#x438;&#x444;&#x442;&#x43e;&#x432;&#x43e;&#x439;&#10;</tspan><tspan x="1015.58" y="316.973">&#x445;&#x43e;&#x43b;&#x43b; 2</tspan></text>
<g id="b1f10-paper">
<text id="title_2" transform="translate(259.79 156.392) rotate(-48.8097)" fill="#172736" xml:space="preserve" style="white-space: pre" font-family="CoFo Weather 20240219" font-size="8" font-weight="500" letter-spacing="0em"><tspan x="10.7995" y="6.76">&#x423;&#x442;&#x438;&#x43b;&#x438;&#x437;&#x430;&#x446;&#x438;&#x44f; </tspan><tspan x="20.2448" y="14.76">&#x431;&#x443;&#x43c;&#x430;&#x433;&#x438;</tspan></text>
<path id="Ellipse 40" d="M283.79 126.023C283.79 128.508 281.775 130.523 279.29 130.523C276.805 130.523 274.79 128.508 274.79 126.023C274.79 123.537 276.805 121.523 279.29 121.523C281.775 121.523 283.79 123.537 283.79 126.023Z" fill="#73E553"/>
</g>
<text id="title_3" fill="#172736" xml:space="preserve" style="white-space: pre" font-family="CoFo Weather 20240219" font-size="10" font-weight="500" letter-spacing="0em"><tspan x="315.212" y="103.973">&#x41b;&#x438;&#x444;&#x442;&#x43e;&#x432;&#x43e;&#x439;&#10;</tspan><tspan x="325.803" y="113.973">&#x445;&#x43e;&#x43b;&#x43b; 1</tspan></text>
<g id="b1f10-10b">
<path id="Ellipse 35" d="M490.513 418.641C489.965 418.431 489.418 418.22 488.87 418.009C488.356 417.811 488.1 417.234 488.297 416.72L500.902 383.775C501.095 383.271 501.652 383.011 502.161 383.186L531.949 393.443C532.466 393.621 532.744 394.182 532.573 394.702L521.398 428.63C521.223 429.16 520.649 429.445 520.121 429.262C510.63 425.976 499.767 422.187 490.513 418.641Z" fill="#33D18F" fill-opacity="0.2" stroke="#33D18F" stroke-opacity="0.2" stroke-width="2.00001" stroke-linejoin="round"/>
<text id="title_4" transform="translate(495.79 408.555)" fill="#172736" xml:space="preserve" style="white-space: pre" font-family="CoFo Weather 20240219" font-size="4" font-weight="500" letter-spacing="0em"><tspan x="0" y="3.38">&#x41f;&#x435;&#x440;&#x435;&#x433;&#x43e;&#x432;&#x43e;&#x440;&#x43a;&#x430;</tspan></text>
<g id="Frame 16">
<rect x="503.519" y="399.523" width="11.375" height="7.25" rx="1.6875" fill="#33D18F" fill-opacity="0.2"/>
<text id="10&#208;&#177;" transform="translate(505.206 400.648)" fill="#172736" xml:space="preserve" style="white-space: pre" font-family="CoFo Weather 20240219" font-size="4.5" font-weight="500" letter-spacing="0.02em"><tspan x="0.150479" y="4.0525">10&#x431;</tspan></text>
</g>
</g>
<g id="b1f10-k">
<path id="Ellipse 36" d="M550.916 396.004L579.703 404.987C580.221 405.149 580.516 405.694 580.367 406.216L570.123 442.132C569.972 442.663 569.416 442.97 568.885 442.819C552.883 438.253 540.073 434.368 524.435 428.978C523.919 428.8 523.639 428.24 523.809 427.722L534.904 393.879C535.06 393.402 535.546 393.115 536.039 393.208L550.916 396.004Z" fill="#FFEDD6" stroke="#FFCF94" stroke-width="2.00001" stroke-linejoin="round"/>
<text id="title_5" fill="#172736" xml:space="preserve" style="white-space: pre" font-family="CoFo Weather 20240219" font-size="5.62502" font-weight="500" letter-spacing="0em"><tspan x="532.852" y="421.441">&#x41c;&#x438;&#x43d;&#x438;-&#x43a;&#x443;&#x445;&#x43d;&#x44f;</tspan></text>
</g>
<g id="b1f10-1010">
<path id="Ellipse 38" d="M275.533 209.911C276.223 209.069 277.46 208.934 278.316 209.607L311.237 235.506C312.086 236.174 312.251 237.395 311.61 238.264L269.71 295.168C269.053 296.058 267.798 296.247 266.909 295.588C254.624 286.472 242.568 277.196 230.751 267.741C229.881 267.045 229.749 265.774 230.454 264.913L275.533 209.911Z" fill="#33D18F" fill-opacity="0.2" stroke="#33D18F" stroke-opacity="0.2" stroke-width="2.00001" stroke-linejoin="round"/>
<text id="title_6" transform="translate(260.017 268.656) rotate(-51.4632)" fill="#172736" xml:space="preserve" style="white-space: pre" font-family="CoFo Weather 20240219" font-size="6.00002" font-weight="500" letter-spacing="0em"><tspan x="0" y="5.07001">&#x41f;&#x435;&#x440;&#x435;&#x433;&#x43e;&#x432;&#x43e;&#x440;&#x43a;&#x430;</tspan></text>
<g id="Frame 11">
<rect x="257.79" y="254.9" width="17.5" height="9" rx="2.25" transform="rotate(-51.4649 257.79 254.9)" fill="#33D18F" fill-opacity="0.2"/>
<text id="1010" transform="translate(260.365 254.074) rotate(-51.4649)" fill="#172736" xml:space="preserve" style="white-space: pre" font-family="CoFo Weather 20240219" font-size="6" font-weight="500" letter-spacing="0.02em"><tspan x="0.00359392" y="5.07">1010</tspan></text>
</g>
</g>
<g id="b1f10-1008">
<path id="Ellipse 37" d="M235.825 196.55C236.536 195.762 237.739 195.667 238.565 196.333L267.524 219.66C268.389 220.357 268.52 221.626 267.816 222.485L231.992 266.2C231.298 267.047 230.049 267.179 229.193 266.493C218.753 258.111 208.501 249.587 198.443 240.91C197.593 240.176 197.514 238.887 198.266 238.055L235.825 196.55Z" fill="#33D18F" fill-opacity="0.2" stroke="#33D18F" stroke-opacity="0.2" stroke-width="2.00001" stroke-linejoin="round"/>
<text id="title_7" transform="translate(223.017 245.656) rotate(-51.4632)" fill="#172736" xml:space="preserve" style="white-space: pre" font-family="CoFo Weather 20240219" font-size="6.00002" font-weight="500" letter-spacing="0em"><tspan x="0" y="5.07001">&#x41f;&#x435;&#x440;&#x435;&#x433;&#x43e;&#x432;&#x43e;&#x440;&#x43a;&#x430;</tspan></text>
<g id="Frame 15">
<rect x="220.79" y="233.464" width="19.5" height="9" rx="2.25" transform="rotate(-51.4649 220.79 233.464)" fill="#33D18F" fill-opacity="0.2"/>
<text id="1008" transform="translate(223.365 232.639) rotate(-51.4649)" fill="#172736" xml:space="preserve" style="white-space: pre" font-family="CoFo Weather 20240219" font-size="6" font-weight="500" letter-spacing="0.02em"><tspan x="0.127617" y="5.07">1008</tspan></text>
</g>
</g>
<g id="b1f10-r">
<text id="title_8" transform="translate(272.333 187.523) rotate(11.1204)" fill="#172736" xml:space="preserve" style="white-space: pre" font-family="CoFo Weather 20240219" font-size="8" font-weight="500" letter-spacing="0em"><tspan x="16.8698" y="6.76">&#x420;&#x435;&#x441;&#x435;&#x43f;&#x448;&#x43d;</tspan></text>
<path id="Line 16" d="M281.895 205.034C281.895 205.034 292.29 202.544 303.79 205.034C315.29 207.523 323.895 214.034 323.895 214.034" stroke="#475DEB" stroke-width="2"/>
</g>
</g>
</svg>
