<svg width="1149" height="357" viewBox="0 0 1149 357" fill="none" xmlns="http://www.w3.org/2000/svg">
<path d="M12.25 198.75H30.75V2.25C30.75 1.69772 31.1977 1.25 31.75 1.25H1119.75C1120.3 1.25 1120.75 1.69772 1120.75 2.25V84.75H1146.25C1146.8 84.75 1147.25 85.1977 1147.25 85.75V217.492C1147.25 217.94 1146.97 218.328 1146.54 218.449C1125.87 224.234 1073.85 237.842 1030.75 245.75C987.45 253.695 902.102 270.188 864.035 277.597C863.565 277.689 863.25 278.095 863.25 278.574V298.25C863.25 298.802 862.802 299.25 862.25 299.25H751.327C751.276 299.25 751.227 299.253 751.177 299.261C717.803 304.434 639.917 316.254 594.75 322.25C549.55 328.25 440.583 338.083 391.75 342.25H305.75V346.799C305.75 347.332 305.35 347.77 304.818 347.794C295.983 348.201 256.83 349.675 160.75 352.75C63.4954 355.862 15.4247 356.074 2.28 355.776C1.71179 355.763 1.28309 355.278 1.32282 354.711L12.25 198.75Z" fill="white"/>
<path d="M31.75 184.75C31.1977 184.75 30.75 185.198 30.75 185.75V198.75H12.25L1.82158 354.183C1.78285 354.76 2.24071 355.25 2.81934 355.25H53.25L105.269 354.269C105.814 354.258 106.25 353.814 106.25 353.269V343.75C106.25 338.663 102.949 331.54 100.845 327.78C100.542 327.237 100.777 326.547 101.349 326.306C106.182 324.269 115.731 319.269 122.75 312.25C130.35 304.65 132.25 289.75 132.25 283.25V207.75H125.25C124.698 207.75 124.25 207.302 124.25 206.75V185.75C124.25 185.198 123.802 184.75 123.25 184.75H31.75Z" fill="white"/>
<path d="M358.75 279.25H371.25V289.75C371.25 290.302 370.802 290.75 370.25 290.75H358.75V279.25V241V202.75H322.75H308.75V191.25H321.75C322.302 191.25 322.75 191.698 322.75 192.25V202.75H358.75V241V279.25Z" fill="white"/>
<path d="M357.75 128.25H339.5V138.75H357.75V128.25Z" fill="white"/>
<path d="M934.75 124.75C935.302 124.75 935.75 124.302 935.75 123.75V96.25C935.75 95.6977 935.302 95.25 934.75 95.25H869.25H842.75C842.198 95.25 841.75 95.6977 841.75 96.25V136.25C841.75 136.802 842.198 137.25 842.75 137.25H930.25C930.802 137.25 931.25 136.802 931.25 136.25V125.75C931.25 125.198 931.698 124.75 932.25 124.75H934.75Z" fill="white"/>
<path d="M466.75 309.75C466.198 309.75 465.75 309.302 465.75 308.75V302.75H453.75V280.75H465.75H480.254C480.805 280.75 481.252 280.305 481.254 279.754L481.367 249.25L482.25 309.75H466.75Z" fill="white"/>
<path d="M531.75 249.25H519.75V208.75H531.75V249.25Z" fill="white"/>
<path d="M634.75 175.25H619.25V181.75H633.75C634.302 181.75 634.75 181.302 634.75 180.75V175.25Z" fill="white"/>
<path d="M963.25 108.25V96.25H979.75H994.75H1010.25H1019.75V108.25V125.25C1019.75 125.802 1019.3 126.25 1018.75 126.25H1011.25C1010.7 126.25 1010.25 125.802 1010.25 125.25V108.25H994.75H979.75H963.25Z" fill="white"/>
<path d="M30.75 198.75H12.25M30.75 198.75V2.25C30.75 1.69772 31.1977 1.25 31.75 1.25H1119.75C1120.3 1.25 1120.75 1.69772 1120.75 2.25V84.75M30.75 198.75V185.75C30.75 185.198 31.1977 184.75 31.75 184.75H123.25C123.802 184.75 124.25 185.198 124.25 185.75V206.75C124.25 207.302 124.698 207.75 125.25 207.75H132.25M12.25 198.75L1.32282 354.711C1.28309 355.278 1.71179 355.763 2.28 355.776C15.4247 356.074 63.4954 355.862 160.75 352.75C256.83 349.675 295.983 348.201 304.818 347.794C305.35 347.77 305.75 347.332 305.75 346.799V342.25M12.25 198.75L1.82158 354.183C1.78285 354.76 2.24071 355.25 2.81934 355.25H53.25L105.269 354.269C105.814 354.258 106.25 353.814 106.25 353.269V343.75C106.25 338.663 102.949 331.54 100.845 327.78C100.542 327.237 100.777 326.547 101.349 326.306C106.182 324.269 115.731 319.269 122.75 312.25C130.35 304.65 132.25 289.75 132.25 283.25V207.75M305.75 342.25H391.75C440.583 338.083 549.55 328.25 594.75 322.25C639.917 316.254 717.803 304.434 751.177 299.261C751.227 299.253 751.276 299.25 751.327 299.25H862.25C862.802 299.25 863.25 298.802 863.25 298.25V278.574C863.25 278.095 863.565 277.689 864.035 277.597C902.102 270.188 987.45 253.695 1030.75 245.75C1073.85 237.842 1125.87 224.234 1146.54 218.449C1146.97 218.328 1147.25 217.94 1147.25 217.492V85.75C1147.25 85.1977 1146.8 84.75 1146.25 84.75H1120.75M305.75 342.25V203.75C305.75 203.198 306.198 202.75 306.75 202.75H308.75M1120.75 84.75V93.25M119.25 139.25H125.25M125.25 139.25H135.75M125.25 139.25V131.25M150.75 139.25H155.25C155.802 139.25 156.25 138.802 156.25 138.25V132.25C156.25 131.698 155.802 131.25 155.25 131.25H125.25M125.25 131.25V128.25M125.25 128.25V2.25M125.25 128.25H99.75M99.75 128.25V138.25C99.75 138.802 100.198 139.25 100.75 139.25H104.75M99.75 128.25H95.75M82.25 128.25H73.5069C73.3384 128.25 73.1754 128.291 73.0274 128.372C69.5735 130.254 61.8376 134.076 56.75 135.25C51.55 136.45 46.9167 137.083 45.25 137.25H30.75M132.25 207.75H145.25M207.25 254.75H220.75M220.75 254.75V309.25C220.75 309.802 220.302 310.25 219.75 310.25H217.75C217.198 310.25 216.75 310.698 216.75 311.25V350.75M220.75 254.75V207.75M220.75 207.75H179.75M220.75 207.75C226.583 206.944 241.05 203.716 252.25 197.25C263.45 190.784 269.917 181.556 271.75 177.75L272.474 176.303C272.643 175.964 272.989 175.75 273.368 175.75H286.75M159.25 207.75H179.75M179.75 207.75V254.75M132.75 254.75H179.75M179.75 254.75H193.75M397.25 175.75H400.25C400.802 175.75 401.25 176.198 401.25 176.75V202.75M401.25 202.75H404.75M401.25 202.75H393.75M300.75 175.75H308.75M308.75 175.75H354.25M308.75 175.75V191.25M365.25 175.75H374.75M374.75 175.75H386.25M374.75 175.75V202.75M374.75 202.75H393.75M374.75 202.75H358.75M393.75 202.75V215.75M393.75 308.75V320.75M393.75 320.75V342.25M393.75 320.75H373.25M358.75 202.75V241M358.75 202.75H322.75M393.75 269.75V279.25M393.75 279.25V285.75M393.75 279.25H371.25M358.75 279.25H371.25M358.75 279.25V290.75M358.75 279.25V241M371.25 279.25V289.75C371.25 290.302 370.802 290.75 370.25 290.75H358.75M358.75 303.75V290.75M358.75 241H393.75M393.75 231.75V241M393.75 241V253.75M308.75 202.75V191.25M308.75 202.75H322.75M308.75 191.25H321.75C322.302 191.25 322.75 191.698 322.75 192.25V202.75M194.25 95.9799C201.11 93.5669 208.52 92.25 216.25 92.25C221.059 92.25 225.744 92.7597 230.25 93.7259M156.467 131.75C161.46 119.229 170.59 108.676 182.25 101.637M213.25 91.75V1.25M244.25 98.4325C249.759 101.012 254.825 104.329 259.309 108.25M268.517 118.25C275.907 128.279 280.25 140.527 280.25 153.75M253.25 102.75L260.228 69.8526C260.243 69.7844 260.25 69.7148 260.25 69.6451V1.25M304.75 138.75H301.25M301.25 138.75H298.75M301.25 138.75V132.75M301.25 132.75H285.75C285.198 132.75 284.75 133.198 284.75 133.75V138.75M301.25 132.75V74.25M287.75 138.75H284.75M284.75 138.75H278.75M318.25 138.75H321.25M321.25 138.75H324.25M321.25 138.75V129.25C321.25 128.698 321.698 128.25 322.25 128.25H339.5M339.5 128.25H357.75M339.5 128.25V138.75M357.75 128.25V138.75M357.75 128.25V74.25M339.5 138.75H336.75M339.5 138.75H357.75M357.75 138.75H364.25M357.75 74.25H301.25M357.75 74.25H396.75M301.25 1.25V74.25M396.75 74.25V71.25M396.75 74.25V137.75C396.75 138.302 396.302 138.75 395.75 138.75H377.75M396.75 56.25V54.25C396.75 53.6977 397.198 53.25 397.75 53.25H421.75C422.302 53.25 422.75 53.6977 422.75 54.25V67.75M422.75 81.75V94.75C422.75 95.3023 423.198 95.75 423.75 95.75H477.75M477.75 95.75V98.75C477.75 99.3023 478.198 99.75 478.75 99.75H508.25M477.75 95.75V1.75M521.25 99.75H530.25M543.25 99.75H569.25M569.25 99.75V45.75M569.25 99.75V137.75C569.25 138.302 569.698 138.75 570.25 138.75H585.75M600.25 138.75H618.25C618.802 138.75 619.25 138.302 619.25 137.75V99.75M569.25 1.75V45.75M569.25 45.75H618.25C618.802 45.75 619.25 46.1977 619.25 46.75V99.75M619.25 99.75H627.75M800.75 91.75V98.75C800.75 99.3023 800.302 99.75 799.75 99.75H755.75M730.25 99.75H755.75M755.75 99.75V1.25M707.25 99.75H711.75M711.75 99.75H716.25M711.75 99.75V1.25M641.25 99.75H667.25M667.25 99.75H693.25M667.25 99.75V1.25M800.75 77.75V70.25M800.75 70.25V1.25M800.75 70.25H815.75M829.75 70.25H869.25M869.25 70.25V74.25M869.25 70.25V1.25M869.25 88.75V95.25M869.25 95.25H842.75C842.198 95.25 841.75 95.6977 841.75 96.25V136.25C841.75 136.802 842.198 137.25 842.75 137.25H930.25C930.802 137.25 931.25 136.802 931.25 136.25V125.75C931.25 125.198 931.698 124.75 932.25 124.75H934.75C935.302 124.75 935.75 124.302 935.75 123.75V96.25M869.25 95.25H934.75C935.302 95.25 935.75 95.6977 935.75 96.25M437.75 338.25V328.25M437.75 313.25V303.75C437.75 303.198 438.198 302.75 438.75 302.75H453.75M465.75 302.75V308.75C465.75 309.302 466.198 309.75 466.75 309.75H482.25M465.75 302.75H453.75M465.75 302.75V280.75M482.25 309.75V334.25M482.25 309.75L481.367 249.25M453.75 302.75V280.75M453.75 280.75H447.25C446.698 280.75 446.25 280.302 446.25 279.75V270.25M453.75 280.75H465.75M465.75 280.75H480.254C480.805 280.75 481.252 280.305 481.254 279.754L481.367 249.25M446.25 254.25V241.25M446.25 241.25V232.25M446.25 241.25H481.25M481.25 241.25L481.367 249.25M481.25 241.25V208.75M481.367 249.25H492.25M531.75 249.25V307.25C531.75 307.802 531.302 308.25 530.75 308.25H528.25C527.698 308.25 527.25 308.698 527.25 309.25V329.75M531.75 249.25H519.75M531.75 249.25V208.75M507.75 249.25H519.75M519.75 249.25V208.75M519.75 208.75H507.75M519.75 208.75H531.75M519.75 208.75V202.75M446.25 202.75H480.25C480.802 202.75 481.25 203.198 481.25 203.75V208.75M446.25 202.75H435.75M446.25 202.75V215.75M481.25 208.75H493.25M531.75 208.75H551.75M519.75 188.25V181.75M519.75 181.75V176.25C519.75 175.698 520.198 175.25 520.75 175.25H575.25M519.75 181.75H503.75C503.198 181.75 502.75 181.302 502.75 180.75V176.25C502.75 175.698 502.302 175.25 501.75 175.25H483.75C483.198 175.25 482.75 175.698 482.75 176.25V183.25M575.25 175.25H588.25M575.25 175.25V272.75M572.75 324.25V292.75C572.75 292.198 573.198 291.75 573.75 291.75H574.25C574.802 291.75 575.25 291.302 575.25 290.75V272.75M575.25 272.75H619.25M619.25 272.75V291.75M619.25 272.75V181.75M602.25 175.25H619.25M619.25 175.25H634.75M619.25 175.25V181.75M634.75 175.25H649.25M634.75 175.25V180.75C634.75 181.302 634.302 181.75 633.75 181.75H619.25M664.75 175.25H676.75M689.75 175.25H693.25M693.25 175.25V159.75M693.25 175.25V197.75C693.25 198.302 693.698 198.75 694.25 198.75H752.75M811.75 198.75V165.25M811.75 198.75V202.75M811.75 198.75H755.75M811.75 219.25V224.75M811.75 224.75V299.25M811.75 224.75H819.75M755.75 198.75V299.25M755.75 198.75H752.75M752.75 198.75V134.25M752.75 134.25H738.75C738.198 134.25 737.75 133.802 737.75 133.25V128.75C737.75 128.198 737.302 127.75 736.75 127.75H694.25C693.698 127.75 693.25 128.198 693.25 128.75V143.75M752.75 134.25H754.75C755.302 134.25 755.75 133.802 755.75 133.25V128.75C755.75 128.198 756.198 127.75 756.75 127.75H810.75C811.302 127.75 811.75 128.198 811.75 128.75V150.25M833.75 224.75H839.75C840.302 224.75 840.75 224.302 840.75 223.75V203.75C840.75 203.198 841.198 202.75 841.75 202.75H848.75M932.75 263.75V202.75M932.75 202.75V175.75M932.75 202.75H848.75M932.75 175.75H899.75M932.75 175.75H938.25M885.75 175.75H849.75C849.198 175.75 848.75 176.198 848.75 176.75V202.75M951.25 175.75H1021.75M1021.75 175.75H1026.25M1021.75 175.75V246.75M1147.75 182.75L1138.51 175.945C1138.34 175.818 1138.13 175.75 1137.92 175.75H1119.75M1039.75 175.75H1119.75M1119.75 175.75V167.75M1064.75 119.75V131.25C1064.75 131.802 1065.2 132.25 1065.75 132.25H1068.75M1064.75 119.75H1090M1064.75 119.75V96.25M1119.75 146.25V132.25M1119.75 132.25V120.75C1119.75 120.198 1119.3 119.75 1118.75 119.75H1090M1119.75 132.25H1109.25M1084.25 132.25H1090M1090 132.25H1095.75M1090 132.25V119.75M1064.75 96.25V1.75M1064.75 96.25H1054.75M935.75 96.25H947.75M963.25 96.25H961.25M963.25 96.25V108.25M963.25 96.25H979.75M930.75 137.25H934.75C935.302 137.25 935.75 136.802 935.75 136.25V125.25M936.75 137.25H947.75M960.25 137.25H963.25M963.25 137.25H973.25M963.25 137.25V108.25M963.25 137.25V138.25M988.25 137.25H994.75M994.75 137.25H1020.25M994.75 137.25V108.25M994.75 108.25V96.25M994.75 108.25H979.75M994.75 108.25H1010.25M994.75 96.25H1010.25M994.75 96.25H979.75M963.25 108.25H979.75M1030.75 96.25H1019.75M1019.75 96.25V108.25M1019.75 96.25H1010.25M1019.75 96.25V87.25M1019.75 108.25H1010.25M1019.75 108.25V125.25C1019.75 125.802 1019.3 126.25 1018.75 126.25H1011.25C1010.7 126.25 1010.25 125.802 1010.25 125.25V108.25M1010.25 96.25V108.25M979.75 96.25V108.25M1019.75 21.25V1.75M983.25 1.75V56.25M983.25 56.25V95.25M983.25 56.25H1020.25M1020.25 66.25V56.25M1020.25 56.25V44.25M932.75 95.25V1.75" stroke="#BFC4C8" stroke-width="2" stroke-linecap="round" stroke-linejoin="round"/>
<path d="M1039.93 78.6925L1039.92 78.2605C1039.92 77.9565 1039.84 77.7256 1039.67 77.5677C1039.51 77.4098 1039.24 77.2973 1038.87 77.2302C1038.49 77.1552 1037.95 77.1142 1037.26 77.1073L1032.91 77.0562L1032.83 71.1287L1040.99 71.0219L1041.01 72.3898L1034.04 72.481L1034.08 75.7807L1037.46 75.8206C1038.41 75.8321 1039.15 75.9065 1039.67 76.0437C1040.18 76.1729 1040.56 76.4001 1040.79 76.725C1041.02 77.042 1041.14 77.5045 1041.15 78.1125L1041.15 78.6764L1039.93 78.6925ZM1038.08 68.3142C1038.73 68.3057 1039.19 68.3037 1039.45 68.3083L1034.71 65.166L1034.69 63.7381L1040.9 63.6569L1040.91 64.8928L1037.58 64.9365C1036.95 64.9448 1036.5 64.9466 1036.23 64.9421L1040.95 68.0726L1040.97 69.5124L1034.77 69.5936L1034.75 68.3578L1038.08 68.3142ZM1040.87 58.8527L1040.87 58.9846C1040.89 60.1925 1040.65 61.0797 1040.16 61.6462C1039.67 62.2127 1038.87 62.5032 1037.76 62.5177C1036.66 62.5321 1035.85 62.2626 1035.35 61.7091C1034.84 61.1558 1034.58 60.2752 1034.56 59.0673L1034.56 58.9353L1032.31 58.9647L1032.3 57.6688L1034.54 57.6394L1034.54 57.5074C1034.52 56.2915 1034.76 55.4003 1035.26 54.8337C1035.75 54.2673 1036.55 53.9768 1037.65 53.9624C1038.75 53.9479 1039.56 54.2174 1040.07 54.7707C1040.58 55.3242 1040.84 56.2089 1040.85 57.4248L1040.85 57.5568L1043.22 57.5258L1043.23 58.8217L1040.87 58.8527ZM1037.74 61.2098C1038.55 61.1992 1039.11 61.0159 1039.42 60.6598C1039.72 60.3038 1039.87 59.7618 1039.86 59.0338L1039.86 58.8419L1035.57 58.8981L1035.57 59.0901C1035.58 59.818 1035.74 60.3559 1036.06 60.7038C1036.37 61.0517 1036.94 61.2204 1037.74 61.2098ZM1039.84 57.39C1039.83 56.662 1039.67 56.1241 1039.35 55.7762C1039.04 55.4284 1038.47 55.2597 1037.67 55.2703C1036.86 55.2809 1036.3 55.4642 1035.99 55.8202C1035.69 56.1763 1035.54 56.7183 1035.55 57.4462L1035.55 57.6382L1039.85 57.582L1039.84 57.39ZM1035.61 51.1405L1035.64 53.3843L1034.56 53.3984L1034.48 47.6029L1035.56 47.5888L1035.59 49.8326L1040.72 49.7655L1040.73 51.0734L1035.61 51.1405ZM1040.76 43.7344C1040.77 44.7503 1040.52 45.5376 1040.01 46.0964C1039.49 46.6551 1038.76 46.9407 1037.81 46.9532L1037.34 46.9593C1036.39 46.9718 1035.65 46.7054 1035.12 46.1603C1034.6 45.6152 1034.33 44.8346 1034.31 43.8187C1034.3 42.7948 1034.55 42.0075 1035.06 41.4567C1035.57 40.898 1036.3 40.6124 1037.26 40.5999L1037.73 40.5937C1038.69 40.5812 1039.43 40.8475 1039.96 41.3926C1040.48 41.9299 1040.74 42.7104 1040.76 43.7344ZM1037.68 45.6347C1038.41 45.6252 1038.94 45.4623 1039.26 45.146C1039.59 44.8298 1039.74 44.3637 1039.74 43.7477C1039.73 43.1318 1039.56 42.6699 1039.23 42.3623C1038.89 42.0466 1038.36 41.8935 1037.64 41.903L1037.38 41.9063C1036.66 41.9159 1036.13 42.0828 1035.81 42.407C1035.48 42.7233 1035.32 43.1894 1035.33 43.8054C1035.34 44.4213 1035.51 44.8831 1035.84 45.1908C1036.17 45.4985 1036.7 45.6476 1037.43 45.638L1037.68 45.6347ZM1034.38 39.4439L1034.33 35.9402C1034.32 35.2842 1034.45 34.7826 1034.71 34.4351C1034.97 34.0797 1035.36 33.8985 1035.89 33.8916C1036.6 33.8823 1037.08 34.2 1037.33 34.8448C1037.41 34.4757 1037.58 34.1895 1037.83 33.9862C1038.08 33.7749 1038.38 33.6669 1038.75 33.6621C1039.33 33.6546 1039.77 33.8288 1040.07 34.1849C1040.37 34.541 1040.52 35.075 1040.53 35.787L1040.58 39.3627L1034.38 39.4439ZM1039.6 35.9312C1039.59 35.2673 1039.29 34.9391 1038.71 34.9468C1038.41 34.9506 1038.19 35.0335 1038.05 35.1954C1037.91 35.3493 1037.84 35.6062 1037.85 35.9662L1037.87 38.126L1039.63 38.103L1039.6 35.9312ZM1036.94 36.0741C1036.93 35.7381 1036.86 35.4951 1036.71 35.345C1036.56 35.1949 1036.35 35.1216 1036.08 35.1252C1035.53 35.1324 1035.26 35.46 1035.27 36.1079L1035.29 38.1597L1036.96 38.1379L1036.94 36.0741ZM1040.57 29.6262C1040.58 30.6421 1040.34 31.4294 1039.82 31.9882C1039.31 32.547 1038.58 32.8326 1037.63 32.845L1037.16 32.8512C1036.21 32.8636 1035.47 32.5973 1034.94 32.0521C1034.41 31.507 1034.14 30.7265 1034.13 29.7105C1034.11 28.6866 1034.36 27.8993 1034.88 27.3485C1035.38 26.7899 1036.11 26.5043 1037.07 26.4917L1037.54 26.4856C1038.5 26.473 1039.25 26.7393 1039.77 27.2844C1040.29 27.8217 1040.56 28.6023 1040.57 29.6262ZM1037.5 31.5266C1038.23 31.517 1038.75 31.3541 1039.08 31.0379C1039.4 30.7216 1039.56 30.2555 1039.55 29.6395C1039.54 29.0236 1039.37 28.5618 1039.04 28.2541C1038.71 27.9384 1038.18 27.7853 1037.45 27.7949L1037.2 27.7982C1036.47 27.8077 1035.95 27.9746 1035.62 28.2989C1035.3 28.6151 1035.14 29.0812 1035.15 29.6972C1035.16 30.3131 1035.33 30.775 1035.66 31.0826C1035.99 31.3903 1036.52 31.5394 1037.25 31.5299L1037.5 31.5266ZM1037.5 24.0563C1038.15 24.0477 1038.61 24.0458 1038.87 24.0504L1034.13 20.9081L1034.11 19.4802L1040.32 19.399L1040.33 20.6349L1037 20.6786C1036.37 20.6868 1035.92 20.6887 1035.65 20.6842L1040.38 23.8146L1040.39 25.2545L1034.19 25.3357L1034.17 24.0998L1037.5 24.0563ZM1032.23 23.2492L1032.29 23.2484C1032.53 23.2453 1032.71 23.183 1032.82 23.0615C1032.92 22.9322 1032.97 22.7235 1032.96 22.4355C1032.96 22.1395 1032.91 21.9322 1032.8 21.8136C1032.69 21.6871 1032.51 21.6254 1032.27 21.6285L1032.21 21.6293L1032.2 20.5494C1032.72 20.5425 1033.11 20.6815 1033.35 20.9663C1033.59 21.2432 1033.71 21.7297 1033.72 22.4256C1033.73 23.1216 1033.62 23.6111 1033.38 23.8942C1033.14 24.1773 1032.77 24.3223 1032.25 24.3291L1032.23 23.2492ZM1050.32 63.1614L1052.91 64.6876L1052.93 66.1275L1049.7 64.0696L1046.73 66.0767L1046.71 64.5768L1049.06 63.1059L1046.67 61.6731L1046.65 60.2332L1049.67 62.2098L1052.85 60.08L1052.87 61.5799L1050.32 63.1614ZM1052.93 56.5781C1052.94 57.594 1052.69 58.3814 1052.18 58.9401C1051.66 59.4989 1050.93 59.7845 1049.98 59.797L1049.51 59.8031C1048.56 59.8155 1047.82 59.5492 1047.29 59.0041C1046.77 58.4589 1046.5 57.6784 1046.48 56.6625C1046.47 55.6386 1046.72 54.8512 1047.23 54.3005C1047.74 53.7418 1048.47 53.4562 1049.43 53.4436L1049.9 53.4375C1050.86 53.4249 1051.6 53.6912 1052.13 54.2364C1052.65 54.7736 1052.91 55.5542 1052.93 56.5781ZM1049.85 58.4785C1050.58 58.469 1051.11 58.3061 1051.43 57.9898C1051.76 57.6735 1051.91 57.2074 1051.91 56.5915C1051.9 55.9755 1051.73 55.5137 1051.4 55.206C1051.06 54.8903 1050.53 54.7373 1049.81 54.7468L1049.55 54.7501C1048.83 54.7596 1048.3 54.9265 1047.98 55.2508C1047.65 55.5671 1047.49 56.0332 1047.5 56.6491C1047.51 57.2651 1047.68 57.7269 1048.01 58.0346C1048.34 58.3422 1048.87 58.4913 1049.6 58.4818L1049.85 58.4785ZM1051.71 52.9492L1051.71 52.6493C1051.71 52.3053 1051.57 52.059 1051.32 51.9103C1051.05 51.7618 1050.6 51.6837 1049.96 51.6761L1046.54 51.6369L1046.47 46.5253L1052.67 46.4441L1052.69 47.74L1047.57 47.8071L1047.6 50.4948L1050.09 50.5223C1050.77 50.5374 1051.3 50.6064 1051.7 50.7293C1052.08 50.8522 1052.36 51.0565 1052.54 51.3422C1052.72 51.62 1052.81 52.0029 1052.81 52.4908L1052.82 52.9348L1051.71 52.9492ZM1051.62 45.6022L1051.61 45.3022C1051.61 44.9583 1051.48 44.712 1051.22 44.5633C1050.95 44.4148 1050.5 44.3367 1049.86 44.3291L1046.44 44.2899L1046.37 39.1783L1052.58 39.0971L1052.59 40.393L1047.47 40.4601L1047.51 43.1478L1049.99 43.1753C1050.67 43.1904 1051.21 43.2594 1051.6 43.3822C1051.99 43.5052 1052.27 43.7095 1052.45 43.9952C1052.62 44.273 1052.71 44.6558 1052.72 45.1438L1052.72 45.5877L1051.62 45.6022ZM1051.44 35.5249C1050.4 34.1303 1049.59 33.0929 1049 32.4126C1048.4 31.7244 1047.92 31.2666 1047.57 31.0391C1047.22 30.8117 1046.87 30.7002 1046.54 30.7046C1046.1 30.7104 1045.78 30.8585 1045.6 31.149C1045.4 31.4316 1045.3 31.8129 1045.31 32.2928C1045.32 32.8368 1045.44 33.2752 1045.69 33.608C1045.93 33.9408 1046.33 34.2356 1046.89 34.4924L1046.43 35.6384C1045.69 35.3362 1045.13 34.9074 1044.76 34.3522C1044.39 33.7971 1044.19 33.0955 1044.18 32.2476C1044.17 31.3677 1044.36 30.6692 1044.74 30.1521C1045.12 29.6271 1045.69 29.3596 1046.46 29.3495C1046.94 29.3433 1047.4 29.4613 1047.83 29.7036C1048.27 29.9459 1048.76 30.3755 1049.31 30.9923C1049.86 31.6092 1050.53 32.4965 1051.34 33.654L1051.28 29.2504L1052.45 29.2352L1052.53 35.5106L1051.44 35.5249Z" fill="#172736"/>
<path d="M420.93 296.692L420.924 296.26C420.92 295.957 420.837 295.726 420.675 295.568C420.513 295.41 420.243 295.297 419.866 295.23C419.489 295.155 418.953 295.114 418.257 295.107L413.912 295.056L413.834 289.129L421.993 289.022L422.011 290.39L415.04 290.481L415.083 293.781L418.456 293.821C419.408 293.832 420.145 293.906 420.667 294.044C421.181 294.173 421.556 294.4 421.792 294.725C422.02 295.042 422.138 295.505 422.146 296.112L422.154 296.676L420.93 296.692ZM419.078 286.314C419.734 286.306 420.19 286.304 420.446 286.308L415.712 283.166L415.693 281.738L421.897 281.657L421.913 282.893L418.577 282.937C417.945 282.945 417.497 282.947 417.233 282.942L421.955 286.073L421.974 287.512L415.77 287.594L415.754 286.358L419.078 286.314ZM421.87 276.853L421.872 276.985C421.888 278.193 421.651 279.08 421.163 279.646C420.666 280.213 419.866 280.503 418.762 280.518C417.658 280.532 416.854 280.263 416.351 279.709C415.84 279.156 415.576 278.275 415.56 277.067L415.559 276.935L413.315 276.965L413.298 275.669L415.542 275.639L415.54 275.507C415.524 274.292 415.764 273.4 416.261 272.834C416.75 272.267 417.546 271.977 418.65 271.962C419.754 271.948 420.561 272.217 421.073 272.771C421.576 273.324 421.835 274.209 421.851 275.425L421.853 275.557L424.217 275.526L424.234 276.822L421.87 276.853ZM418.745 279.21C419.553 279.199 420.11 279.016 420.418 278.66C420.725 278.304 420.874 277.762 420.864 277.034L420.862 276.842L416.566 276.898L416.569 277.09C416.578 277.818 416.741 278.356 417.058 278.704C417.374 279.052 417.937 279.22 418.745 279.21ZM420.843 275.39C420.833 274.662 420.67 274.124 420.354 273.776C420.037 273.428 419.475 273.26 418.667 273.27C417.859 273.281 417.301 273.464 416.994 273.82C416.687 274.176 416.538 274.718 416.547 275.446L416.55 275.638L420.845 275.582L420.843 275.39ZM416.609 269.14L416.638 271.384L415.558 271.398L415.482 265.603L416.562 265.589L416.591 267.833L421.715 267.766L421.732 269.073L416.609 269.14ZM421.756 261.734C421.769 262.75 421.52 263.538 421.007 264.096C420.494 264.655 419.762 264.941 418.81 264.953L418.342 264.959C417.39 264.972 416.651 264.705 416.123 264.16C415.596 263.615 415.326 262.835 415.313 261.819C415.299 260.795 415.549 260.007 416.062 259.457C416.567 258.898 417.299 258.612 418.259 258.6L418.727 258.594C419.687 258.581 420.43 258.847 420.957 259.393C421.476 259.93 421.743 260.71 421.756 261.734ZM418.685 263.635C419.413 263.625 419.939 263.462 420.262 263.146C420.586 262.83 420.744 262.364 420.736 261.748C420.728 261.132 420.558 260.67 420.226 260.362C419.894 260.047 419.364 259.894 418.636 259.903L418.384 259.906C417.656 259.916 417.13 260.083 416.806 260.407C416.482 260.723 416.325 261.189 416.333 261.805C416.341 262.421 416.511 262.883 416.843 263.191C417.175 263.498 417.705 263.648 418.433 263.638L418.685 263.635ZM415.375 257.444L415.33 253.94C415.321 253.284 415.446 252.783 415.706 252.435C415.965 252.08 416.359 251.899 416.887 251.892C417.599 251.882 418.079 252.2 418.327 252.845C418.411 252.476 418.579 252.19 418.832 251.986C419.078 251.775 419.384 251.667 419.752 251.662C420.328 251.655 420.766 251.829 421.067 252.185C421.368 252.541 421.523 253.075 421.532 253.787L421.579 257.363L415.375 257.444ZM420.598 253.931C420.589 253.267 420.293 252.939 419.709 252.947C419.413 252.951 419.194 253.034 419.052 253.195C418.91 253.349 418.841 253.606 418.846 253.966L418.874 256.126L420.626 256.103L420.598 253.931ZM417.936 254.074C417.931 253.738 417.856 253.495 417.71 253.345C417.564 253.195 417.355 253.122 417.083 253.125C416.531 253.132 416.259 253.46 416.268 254.108L416.295 256.16L417.963 256.138L417.936 254.074ZM421.571 247.626C421.585 248.642 421.335 249.429 420.822 249.988C420.31 250.547 419.577 250.833 418.625 250.845L418.157 250.851C417.205 250.864 416.466 250.597 415.939 250.052C415.412 249.507 415.141 248.726 415.128 247.711C415.115 246.687 415.364 245.899 415.877 245.349C416.382 244.79 417.114 244.504 418.074 244.492L418.542 244.486C419.502 244.473 420.246 244.739 420.773 245.284C421.292 245.822 421.558 246.602 421.571 247.626ZM418.5 249.527C419.228 249.517 419.754 249.354 420.078 249.038C420.402 248.722 420.56 248.255 420.552 247.64C420.543 247.024 420.373 246.562 420.041 246.254C419.709 245.938 419.179 245.785 418.451 245.795L418.199 245.798C417.471 245.808 416.945 245.975 416.622 246.299C416.298 246.615 416.14 247.081 416.148 247.697C416.156 248.313 416.326 248.775 416.658 249.083C416.99 249.39 417.52 249.539 418.248 249.53L418.5 249.527ZM418.498 242.056C419.154 242.048 419.61 242.046 419.866 242.05L415.133 238.908L415.114 237.48L421.318 237.399L421.334 238.635L417.998 238.679C417.366 238.687 416.918 238.689 416.654 238.684L421.375 241.815L421.394 243.255L415.191 243.336L415.175 242.1L418.498 242.056ZM413.231 241.249L413.291 241.248C413.531 241.245 413.706 241.183 413.817 241.062C413.919 240.932 413.968 240.723 413.965 240.436C413.961 240.14 413.906 239.932 413.8 239.814C413.687 239.687 413.51 239.625 413.27 239.629L413.21 239.629L413.196 238.549C413.724 238.543 414.11 238.681 414.353 238.966C414.589 239.243 414.711 239.73 414.721 240.426C414.73 241.122 414.616 241.611 414.38 241.894C414.143 242.177 413.765 242.322 413.245 242.329L413.231 241.249ZM431.304 279.697L433.892 281.223L433.911 282.663L430.68 280.605L427.706 282.612L427.686 281.112L430.043 279.641L427.648 278.208L427.629 276.768L430.656 278.745L433.832 276.615L433.852 278.115L431.304 279.697ZM433.906 273.113C433.919 274.129 433.67 274.917 433.157 275.475C432.644 276.034 431.912 276.32 430.96 276.332L430.492 276.338C429.54 276.351 428.801 276.084 428.273 275.539C427.746 274.994 427.476 274.214 427.463 273.198C427.449 272.174 427.699 271.387 428.212 270.836C428.717 270.277 429.449 269.991 430.409 269.979L430.877 269.973C431.837 269.96 432.58 270.227 433.107 270.772C433.626 271.309 433.893 272.089 433.906 273.113ZM430.835 275.014C431.563 275.004 432.089 274.841 432.412 274.525C432.736 274.209 432.894 273.743 432.886 273.127C432.878 272.511 432.708 272.049 432.376 271.741C432.044 271.426 431.514 271.273 430.786 271.282L430.534 271.285C429.806 271.295 429.28 271.462 428.956 271.786C428.632 272.102 428.475 272.568 428.483 273.184C428.491 273.8 428.661 274.262 428.993 274.57C429.325 274.878 429.855 275.027 430.583 275.017L430.835 275.014ZM432.694 269.485L432.691 269.185C432.686 268.841 432.555 268.594 432.297 268.446C432.031 268.297 431.578 268.219 430.938 268.211L427.517 268.172L427.45 263.061L433.653 262.979L433.67 264.275L428.547 264.342L428.582 267.03L431.067 267.058C431.747 267.073 432.284 267.142 432.677 267.265C433.063 267.388 433.346 267.592 433.526 267.877C433.697 268.155 433.786 268.538 433.793 269.026L433.798 269.47L432.694 269.485ZM432.598 262.137L432.594 261.838C432.59 261.494 432.459 261.247 432.201 261.099C431.935 260.95 431.482 260.872 430.842 260.864L427.421 260.825L427.354 255.714L433.557 255.632L433.574 256.928L428.451 256.995L428.486 259.683L430.97 259.711C431.651 259.726 432.188 259.795 432.581 259.918C432.967 260.04 433.25 260.245 433.429 260.53C433.601 260.808 433.69 261.191 433.696 261.679L433.702 262.123L432.598 262.137ZM427.068 250.39C427.449 250.785 427.665 251.342 427.714 252.062L426.514 252.077C426.478 251.118 426.081 250.459 425.324 250.101L425.311 249.069L433.47 248.962L433.488 250.306L427.068 250.39Z" fill="#172736"/>
<rect x="667.25" y="1.25" width="45" height="98" fill="#33D18F" fill-opacity="0.2" stroke="#33D18F" stroke-opacity="0.2" stroke-width="2.5" stroke-linejoin="round"/>
<path d="M676.51 51.5622H678.75V54.2822H678.294V51.9582H676.966V54.2822H676.51V51.5622ZM680.216 54.3222C679.882 54.3222 679.624 54.2356 679.44 54.0622C679.258 53.8889 679.168 53.6436 679.168 53.3262V53.1702C679.168 52.8529 679.26 52.6076 679.444 52.4342C679.628 52.2609 679.884 52.1742 680.212 52.1742C680.537 52.1742 680.782 52.2596 680.948 52.4302C681.116 52.5982 681.2 52.8396 681.2 53.1542C681.2 53.2422 681.197 53.3116 681.192 53.3622L679.592 53.3342C679.594 53.7662 679.806 53.9822 680.228 53.9822C680.473 53.9822 680.68 53.8862 680.848 53.6942L681.132 53.9382C681.044 54.0556 680.921 54.1489 680.764 54.2182C680.606 54.2876 680.424 54.3222 680.216 54.3222ZM680.78 53.0582C680.777 52.8769 680.729 52.7396 680.636 52.6462C680.542 52.5502 680.402 52.5022 680.216 52.5022C680.032 52.5022 679.884 52.5516 679.772 52.6502C679.662 52.7489 679.602 52.8982 679.592 53.0982L680.78 53.0582ZM681.572 52.2142H682.004V52.5382C682.068 52.4289 682.161 52.3422 682.284 52.2782C682.409 52.2116 682.559 52.1782 682.732 52.1782C683.033 52.1782 683.263 52.2676 683.42 52.4462C683.58 52.6222 683.66 52.8636 683.66 53.1702V53.3262C683.66 53.6329 683.58 53.8756 683.42 54.0542C683.263 54.2302 683.033 54.3182 682.732 54.3182C682.559 54.3182 682.409 54.2862 682.284 54.2222C682.161 54.1582 682.068 54.0729 682.004 53.9662V55.0822H681.572V52.2142ZM681.992 53.2942C681.992 53.5289 682.045 53.7022 682.152 53.8142C682.261 53.9236 682.415 53.9782 682.612 53.9782C683.017 53.9782 683.22 53.7502 683.22 53.2942V53.1982C683.22 52.7449 683.017 52.5182 682.612 52.5182C682.42 52.5182 682.268 52.5742 682.156 52.6862C682.047 52.7956 681.992 52.9662 681.992 53.1982V53.2942ZM685.012 54.3222C684.679 54.3222 684.42 54.2356 684.236 54.0622C684.055 53.8889 683.964 53.6436 683.964 53.3262V53.1702C683.964 52.8529 684.056 52.6076 684.24 52.4342C684.424 52.2609 684.68 52.1742 685.008 52.1742C685.334 52.1742 685.579 52.2596 685.744 52.4302C685.912 52.5982 685.996 52.8396 685.996 53.1542C685.996 53.2422 685.994 53.3116 685.988 53.3622L684.388 53.3342C684.391 53.7662 684.603 53.9822 685.024 53.9822C685.27 53.9822 685.476 53.8862 685.644 53.6942L685.928 53.9382C685.84 54.0556 685.718 54.1489 685.56 54.2182C685.403 54.2876 685.22 54.3222 685.012 54.3222ZM685.576 53.0582C685.574 52.8769 685.526 52.7396 685.432 52.6462C685.339 52.5502 685.199 52.5022 685.012 52.5022C684.828 52.5022 684.68 52.5516 684.568 52.6502C684.459 52.7489 684.399 52.8982 684.388 53.0982L685.576 53.0582ZM686.369 52.2142H687.813V52.5742H686.801V54.2822H686.369V52.2142ZM689.067 54.3222C688.729 54.3222 688.467 54.2356 688.283 54.0622C688.099 53.8889 688.007 53.6436 688.007 53.3262V53.1702C688.007 52.8529 688.099 52.6076 688.283 52.4342C688.467 52.2609 688.729 52.1742 689.067 52.1742C689.409 52.1742 689.67 52.2609 689.851 52.4342C690.035 52.6049 690.127 52.8502 690.127 53.1702V53.3262C690.127 53.6462 690.035 53.8929 689.851 54.0662C689.67 54.2369 689.409 54.3222 689.067 54.3222ZM688.447 53.2902C688.447 53.5329 688.499 53.7089 688.603 53.8182C688.707 53.9276 688.862 53.9822 689.067 53.9822C689.273 53.9822 689.427 53.9276 689.531 53.8182C689.638 53.7089 689.691 53.5329 689.691 53.2902V53.2062C689.691 52.9636 689.638 52.7876 689.531 52.6782C689.427 52.5689 689.273 52.5142 689.067 52.5142C688.862 52.5142 688.707 52.5689 688.603 52.6782C688.499 52.7876 688.447 52.9636 688.447 53.2062V53.2902ZM690.525 52.2142H691.693C691.912 52.2142 692.079 52.2582 692.193 52.3462C692.311 52.4342 692.369 52.5662 692.369 52.7422C692.369 52.9796 692.261 53.1382 692.045 53.2182C692.168 53.2476 692.263 53.3049 692.329 53.3902C692.399 53.4729 692.433 53.5756 692.433 53.6982C692.433 53.8902 692.373 54.0356 692.253 54.1342C692.133 54.2329 691.955 54.2822 691.717 54.2822H690.525V52.2142ZM691.673 53.9702C691.895 53.9702 692.005 53.8729 692.005 53.6782C692.005 53.5796 691.979 53.5062 691.925 53.4582C691.875 53.4102 691.789 53.3862 691.669 53.3862H690.949V53.9702H691.673ZM691.637 53.0822C691.749 53.0822 691.831 53.0582 691.881 53.0102C691.932 52.9622 691.957 52.8929 691.957 52.8022C691.957 52.6182 691.849 52.5262 691.633 52.5262H690.949V53.0822H691.637ZM693.77 54.3222C693.432 54.3222 693.17 54.2356 692.986 54.0622C692.802 53.8889 692.71 53.6436 692.71 53.3262V53.1702C692.71 52.8529 692.802 52.6076 692.986 52.4342C693.17 52.2609 693.432 52.1742 693.77 52.1742C694.112 52.1742 694.373 52.2609 694.554 52.4342C694.738 52.6049 694.83 52.8502 694.83 53.1702V53.3262C694.83 53.6462 694.738 53.8929 694.554 54.0662C694.373 54.2369 694.112 54.3222 693.77 54.3222ZM693.15 53.2902C693.15 53.5329 693.202 53.7089 693.306 53.8182C693.41 53.9276 693.565 53.9822 693.77 53.9822C693.976 53.9822 694.13 53.9276 694.234 53.8182C694.341 53.7089 694.394 53.5329 694.394 53.2902V53.2062C694.394 52.9636 694.341 52.7876 694.234 52.6782C694.13 52.5689 693.976 52.5142 693.77 52.5142C693.565 52.5142 693.41 52.5689 693.306 52.6782C693.202 52.7876 693.15 52.9636 693.15 53.2062V53.2902ZM695.228 52.2142H695.66V52.5382C695.724 52.4289 695.818 52.3422 695.94 52.2782C696.066 52.2116 696.215 52.1782 696.388 52.1782C696.69 52.1782 696.919 52.2676 697.076 52.4462C697.236 52.6222 697.316 52.8636 697.316 53.1702V53.3262C697.316 53.6329 697.236 53.8756 697.076 54.0542C696.919 54.2302 696.69 54.3182 696.388 54.3182C696.215 54.3182 696.066 54.2862 695.94 54.2222C695.818 54.1582 695.724 54.0729 695.66 53.9662V55.0822H695.228V52.2142ZM695.648 53.2942C695.648 53.5289 695.702 53.7022 695.808 53.8142C695.918 53.9236 696.071 53.9782 696.268 53.9782C696.674 53.9782 696.876 53.7502 696.876 53.2942V53.1982C696.876 52.7449 696.674 52.5182 696.268 52.5182C696.076 52.5182 695.924 52.5742 695.812 52.6862C695.703 52.7956 695.648 52.9662 695.648 53.1982V53.2942ZM697.713 52.2142H698.145V53.1182H698.265L699.121 52.2142H699.645L698.741 53.1502L699.693 54.2822H699.149L698.389 53.3782H698.145V54.2822H697.713V52.2142ZM700.532 54.3182C700.295 54.3182 700.108 54.2676 699.972 54.1662C699.836 54.0622 699.768 53.9169 699.768 53.7302C699.768 53.5169 699.843 53.3596 699.992 53.2582C700.142 53.1569 700.372 53.1062 700.684 53.1062H701.264V52.9662C701.264 52.8089 701.226 52.6942 701.148 52.6222C701.074 52.5476 700.954 52.5102 700.788 52.5102C700.652 52.5102 700.531 52.5369 700.424 52.5902C700.32 52.6409 700.236 52.7129 700.172 52.8062L699.868 52.6222C699.954 52.4809 700.079 52.3716 700.244 52.2942C700.41 52.2169 700.594 52.1782 700.796 52.1782C701.079 52.1782 701.296 52.2396 701.448 52.3622C701.6 52.4849 701.676 52.6822 701.676 52.9542V54.2822H701.28V53.9422C701.214 54.0676 701.114 54.1622 700.98 54.2262C700.85 54.2876 700.7 54.3182 700.532 54.3182ZM700.184 53.6982C700.184 53.7969 700.224 53.8702 700.304 53.9182C700.384 53.9636 700.491 53.9862 700.624 53.9862C700.811 53.9862 700.964 53.9462 701.084 53.8662C701.204 53.7836 701.264 53.6702 701.264 53.5262V53.3942H700.696C700.52 53.3942 700.391 53.4196 700.308 53.4702C700.226 53.5209 700.184 53.5969 700.184 53.6982Z" fill="#172736"/>
<rect x="683.979" y="42.25" width="14.375" height="7.25" rx="1.6875" fill="#33D18F" fill-opacity="0.2"/>
<path d="M686.765 44.9675C686.615 45.1085 686.405 45.1865 686.135 45.2015V44.7515C686.495 44.7425 686.744 44.597 686.882 44.315H687.269V47.375H686.765V44.9675ZM689.203 47.429C688.771 47.429 688.44 47.309 688.209 47.069C687.981 46.829 687.867 46.4735 687.867 46.0025V45.6875C687.867 45.2165 687.981 44.861 688.209 44.621C688.44 44.381 688.771 44.261 689.203 44.261C689.632 44.261 689.961 44.381 690.189 44.621C690.42 44.861 690.535 45.2165 690.535 45.6875V46.0025C690.535 46.4735 690.42 46.829 690.189 47.069C689.961 47.309 689.632 47.429 689.203 47.429ZM688.384 45.9755C688.384 46.3415 688.453 46.6055 688.591 46.7675C688.732 46.9265 688.936 47.006 689.203 47.006C689.467 47.006 689.668 46.9265 689.806 46.7675C689.947 46.6055 690.018 46.3415 690.018 45.9755V45.7145C690.018 45.3485 689.947 45.086 689.806 44.927C689.668 44.765 689.467 44.684 689.203 44.684C688.936 44.684 688.732 44.765 688.591 44.927C688.453 45.086 688.384 45.3485 688.384 45.7145V45.9755ZM690.982 46.9655C691.51 46.5845 691.903 46.2845 692.161 46.0655C692.422 45.8435 692.596 45.668 692.683 45.539C692.77 45.407 692.813 45.278 692.813 45.152C692.813 44.987 692.759 44.8685 692.651 44.7965C692.546 44.7215 692.404 44.684 692.224 44.684C692.02 44.684 691.855 44.729 691.729 44.819C691.603 44.909 691.49 45.0575 691.391 45.2645L690.964 45.089C691.081 44.81 691.244 44.603 691.454 44.468C691.664 44.33 691.928 44.261 692.246 44.261C692.576 44.261 692.837 44.3345 693.029 44.4815C693.224 44.6255 693.322 44.8415 693.322 45.1295C693.322 45.3095 693.275 45.4805 693.182 45.6425C693.089 45.8045 692.926 45.9875 692.692 46.1915C692.458 46.3925 692.122 46.6415 691.684 46.9385H693.335V47.375H690.982V46.9655ZM693.888 46.9655C694.416 46.5845 694.809 46.2845 695.067 46.0655C695.328 45.8435 695.502 45.668 695.589 45.539C695.676 45.407 695.72 45.278 695.72 45.152C695.72 44.987 695.666 44.8685 695.558 44.7965C695.453 44.7215 695.31 44.684 695.13 44.684C694.926 44.684 694.761 44.729 694.635 44.819C694.509 44.909 694.397 45.0575 694.298 45.2645L693.87 45.089C693.987 44.81 694.151 44.603 694.361 44.468C694.571 44.33 694.835 44.261 695.153 44.261C695.483 44.261 695.744 44.3345 695.936 44.4815C696.131 44.6255 696.228 44.8415 696.228 45.1295C696.228 45.3095 696.182 45.4805 696.089 45.6425C695.996 45.8045 695.832 45.9875 695.598 46.1915C695.364 46.3925 695.028 46.6415 694.59 46.9385H696.242V47.375H693.888V46.9655Z" fill="#172736"/>
<path d="M692.25 128.972H737.25V133.472H752.25V198.972H692.25V128.972Z" fill="#33D18F" fill-opacity="0.2" stroke="#33D18F" stroke-opacity="0.2" stroke-width="2.5" stroke-linejoin="round"/>
<path d="M705.51 166.284H707.75V169.004H707.294V166.68H705.966V169.004H705.51V166.284ZM709.216 169.044C708.882 169.044 708.624 168.958 708.44 168.784C708.258 168.611 708.168 168.366 708.168 168.048V167.892C708.168 167.575 708.26 167.33 708.444 167.156C708.628 166.983 708.884 166.896 709.212 166.896C709.537 166.896 709.782 166.982 709.948 167.152C710.116 167.32 710.2 167.562 710.2 167.876C710.2 167.964 710.197 168.034 710.192 168.084L708.592 168.056C708.594 168.488 708.806 168.704 709.228 168.704C709.473 168.704 709.68 168.608 709.848 168.416L710.132 168.66C710.044 168.778 709.921 168.871 709.764 168.94C709.606 169.01 709.424 169.044 709.216 169.044ZM709.78 167.78C709.777 167.599 709.729 167.462 709.636 167.368C709.542 167.272 709.402 167.224 709.216 167.224C709.032 167.224 708.884 167.274 708.772 167.372C708.662 167.471 708.602 167.62 708.592 167.82L709.78 167.78ZM710.572 166.936H711.004V167.26C711.068 167.151 711.161 167.064 711.284 167C711.409 166.934 711.559 166.9 711.732 166.9C712.033 166.9 712.263 166.99 712.42 167.168C712.58 167.344 712.66 167.586 712.66 167.892V168.048C712.66 168.355 712.58 168.598 712.42 168.776C712.263 168.952 712.033 169.04 711.732 169.04C711.559 169.04 711.409 169.008 711.284 168.944C711.161 168.88 711.068 168.795 711.004 168.688V169.804H710.572V166.936ZM710.992 168.016C710.992 168.251 711.045 168.424 711.152 168.536C711.261 168.646 711.415 168.7 711.612 168.7C712.017 168.7 712.22 168.472 712.22 168.016V167.92C712.22 167.467 712.017 167.24 711.612 167.24C711.42 167.24 711.268 167.296 711.156 167.408C711.047 167.518 710.992 167.688 710.992 167.92V168.016ZM714.012 169.044C713.679 169.044 713.42 168.958 713.236 168.784C713.055 168.611 712.964 168.366 712.964 168.048V167.892C712.964 167.575 713.056 167.33 713.24 167.156C713.424 166.983 713.68 166.896 714.008 166.896C714.334 166.896 714.579 166.982 714.744 167.152C714.912 167.32 714.996 167.562 714.996 167.876C714.996 167.964 714.994 168.034 714.988 168.084L713.388 168.056C713.391 168.488 713.603 168.704 714.024 168.704C714.27 168.704 714.476 168.608 714.644 168.416L714.928 168.66C714.84 168.778 714.718 168.871 714.56 168.94C714.403 169.01 714.22 169.044 714.012 169.044ZM714.576 167.78C714.574 167.599 714.526 167.462 714.432 167.368C714.339 167.272 714.199 167.224 714.012 167.224C713.828 167.224 713.68 167.274 713.568 167.372C713.459 167.471 713.399 167.62 713.388 167.82L714.576 167.78ZM715.369 166.936H716.813V167.296H715.801V169.004H715.369V166.936ZM718.067 169.044C717.729 169.044 717.467 168.958 717.283 168.784C717.099 168.611 717.007 168.366 717.007 168.048V167.892C717.007 167.575 717.099 167.33 717.283 167.156C717.467 166.983 717.729 166.896 718.067 166.896C718.409 166.896 718.67 166.983 718.851 167.156C719.035 167.327 719.127 167.572 719.127 167.892V168.048C719.127 168.368 719.035 168.615 718.851 168.788C718.67 168.959 718.409 169.044 718.067 169.044ZM717.447 168.012C717.447 168.255 717.499 168.431 717.603 168.54C717.707 168.65 717.862 168.704 718.067 168.704C718.273 168.704 718.427 168.65 718.531 168.54C718.638 168.431 718.691 168.255 718.691 168.012V167.928C718.691 167.686 718.638 167.51 718.531 167.4C718.427 167.291 718.273 167.236 718.067 167.236C717.862 167.236 717.707 167.291 717.603 167.4C717.499 167.51 717.447 167.686 717.447 167.928V168.012ZM719.525 166.936H720.693C720.912 166.936 721.079 166.98 721.193 167.068C721.311 167.156 721.369 167.288 721.369 167.464C721.369 167.702 721.261 167.86 721.045 167.94C721.168 167.97 721.263 168.027 721.329 168.112C721.399 168.195 721.433 168.298 721.433 168.42C721.433 168.612 721.373 168.758 721.253 168.856C721.133 168.955 720.955 169.004 720.717 169.004H719.525V166.936ZM720.673 168.692C720.895 168.692 721.005 168.595 721.005 168.4C721.005 168.302 720.979 168.228 720.925 168.18C720.875 168.132 720.789 168.108 720.669 168.108H719.949V168.692H720.673ZM720.637 167.804C720.749 167.804 720.831 167.78 720.881 167.732C720.932 167.684 720.957 167.615 720.957 167.524C720.957 167.34 720.849 167.248 720.633 167.248H719.949V167.804H720.637ZM722.77 169.044C722.432 169.044 722.17 168.958 721.986 168.784C721.802 168.611 721.71 168.366 721.71 168.048V167.892C721.71 167.575 721.802 167.33 721.986 167.156C722.17 166.983 722.432 166.896 722.77 166.896C723.112 166.896 723.373 166.983 723.554 167.156C723.738 167.327 723.83 167.572 723.83 167.892V168.048C723.83 168.368 723.738 168.615 723.554 168.788C723.373 168.959 723.112 169.044 722.77 169.044ZM722.15 168.012C722.15 168.255 722.202 168.431 722.306 168.54C722.41 168.65 722.565 168.704 722.77 168.704C722.976 168.704 723.13 168.65 723.234 168.54C723.341 168.431 723.394 168.255 723.394 168.012V167.928C723.394 167.686 723.341 167.51 723.234 167.4C723.13 167.291 722.976 167.236 722.77 167.236C722.565 167.236 722.41 167.291 722.306 167.4C722.202 167.51 722.15 167.686 722.15 167.928V168.012ZM724.228 166.936H724.66V167.26C724.724 167.151 724.818 167.064 724.94 167C725.066 166.934 725.215 166.9 725.388 166.9C725.69 166.9 725.919 166.99 726.076 167.168C726.236 167.344 726.316 167.586 726.316 167.892V168.048C726.316 168.355 726.236 168.598 726.076 168.776C725.919 168.952 725.69 169.04 725.388 169.04C725.215 169.04 725.066 169.008 724.94 168.944C724.818 168.88 724.724 168.795 724.66 168.688V169.804H724.228V166.936ZM724.648 168.016C724.648 168.251 724.702 168.424 724.808 168.536C724.918 168.646 725.071 168.7 725.268 168.7C725.674 168.7 725.876 168.472 725.876 168.016V167.92C725.876 167.467 725.674 167.24 725.268 167.24C725.076 167.24 724.924 167.296 724.812 167.408C724.703 167.518 724.648 167.688 724.648 167.92V168.016ZM726.713 166.936H727.145V167.84H727.265L728.121 166.936H728.645L727.741 167.872L728.693 169.004H728.149L727.389 168.1H727.145V169.004H726.713V166.936ZM729.532 169.04C729.295 169.04 729.108 168.99 728.972 168.888C728.836 168.784 728.768 168.639 728.768 168.452C728.768 168.239 728.843 168.082 728.992 167.98C729.142 167.879 729.372 167.828 729.684 167.828H730.264V167.688C730.264 167.531 730.226 167.416 730.148 167.344C730.074 167.27 729.954 167.232 729.788 167.232C729.652 167.232 729.531 167.259 729.424 167.312C729.32 167.363 729.236 167.435 729.172 167.528L728.868 167.344C728.954 167.203 729.079 167.094 729.244 167.016C729.41 166.939 729.594 166.9 729.796 166.9C730.079 166.9 730.296 166.962 730.448 167.084C730.6 167.207 730.676 167.404 730.676 167.676V169.004H730.28V168.664C730.214 168.79 730.114 168.884 729.98 168.948C729.85 169.01 729.7 169.04 729.532 169.04ZM729.184 168.42C729.184 168.519 729.224 168.592 729.304 168.64C729.384 168.686 729.491 168.708 729.624 168.708C729.811 168.708 729.964 168.668 730.084 168.588C730.204 168.506 730.264 168.392 730.264 168.248V168.116H729.696C729.52 168.116 729.391 168.142 729.308 168.192C729.226 168.243 729.184 168.319 729.184 168.42Z" fill="#172736"/>
<rect x="712.979" y="156.972" width="13.375" height="7.25" rx="1.6875" fill="#33D18F" fill-opacity="0.2"/>
<path d="M715.801 159.69C715.651 159.831 715.441 159.909 715.171 159.924V159.474C715.531 159.465 715.78 159.319 715.918 159.037H716.305V162.097H715.801V159.69ZM718.24 162.151C717.808 162.151 717.476 162.031 717.245 161.791C717.017 161.551 716.903 161.196 716.903 160.725V160.41C716.903 159.939 717.017 159.583 717.245 159.343C717.476 159.103 717.808 158.983 718.24 158.983C718.669 158.983 718.997 159.103 719.225 159.343C719.456 159.583 719.572 159.939 719.572 160.41V160.725C719.572 161.196 719.456 161.551 719.225 161.791C718.997 162.031 718.669 162.151 718.24 162.151ZM717.421 160.698C717.421 161.064 717.49 161.328 717.628 161.49C717.769 161.649 717.973 161.728 718.24 161.728C718.504 161.728 718.705 161.649 718.843 161.49C718.984 161.328 719.054 161.064 719.054 160.698V160.437C719.054 160.071 718.984 159.808 718.843 159.649C718.705 159.487 718.504 159.406 718.24 159.406C717.973 159.406 717.769 159.487 717.628 159.649C717.49 159.808 717.421 160.071 717.421 160.437V160.698ZM720.692 159.69C720.542 159.831 720.332 159.909 720.062 159.924V159.474C720.422 159.465 720.671 159.319 720.809 159.037H721.196V162.097H720.692V159.69ZM723.027 162.151C722.721 162.151 722.461 162.097 722.248 161.989C722.038 161.881 721.878 161.712 721.767 161.481L722.158 161.251C722.245 161.419 722.359 161.542 722.5 161.62C722.641 161.698 722.815 161.737 723.022 161.737C723.505 161.737 723.747 161.536 723.747 161.134C723.747 160.948 723.7 160.815 723.607 160.734C723.514 160.653 723.37 160.612 723.175 160.612C723.016 160.612 722.845 160.639 722.662 160.693L722.473 160.405L723.54 159.474H721.942V159.037H724.161V159.438L723.207 160.27C723.291 160.264 723.348 160.261 723.378 160.261C723.636 160.261 723.846 160.33 724.008 160.468C724.173 160.603 724.255 160.825 724.255 161.134C724.255 161.467 724.15 161.721 723.94 161.895C723.73 162.066 723.426 162.151 723.027 162.151Z" fill="#172736"/>
<path d="M812.25 128.972H756.75V133.472H752.25V198.972H812.25V128.972Z" fill="#33D18F" fill-opacity="0.2" stroke="#33D18F" stroke-opacity="0.2" stroke-width="2.5" stroke-linejoin="round"/>
<path d="M765.51 166.284H767.75V169.004H767.294V166.68H765.966V169.004H765.51V166.284ZM769.216 169.044C768.882 169.044 768.624 168.958 768.44 168.784C768.258 168.611 768.168 168.366 768.168 168.048V167.892C768.168 167.575 768.26 167.33 768.444 167.156C768.628 166.983 768.884 166.896 769.212 166.896C769.537 166.896 769.782 166.982 769.948 167.152C770.116 167.32 770.2 167.562 770.2 167.876C770.2 167.964 770.197 168.034 770.192 168.084L768.592 168.056C768.594 168.488 768.806 168.704 769.228 168.704C769.473 168.704 769.68 168.608 769.848 168.416L770.132 168.66C770.044 168.778 769.921 168.871 769.764 168.94C769.606 169.01 769.424 169.044 769.216 169.044ZM769.78 167.78C769.777 167.599 769.729 167.462 769.636 167.368C769.542 167.272 769.402 167.224 769.216 167.224C769.032 167.224 768.884 167.274 768.772 167.372C768.662 167.471 768.602 167.62 768.592 167.82L769.78 167.78ZM770.572 166.936H771.004V167.26C771.068 167.151 771.161 167.064 771.284 167C771.409 166.934 771.559 166.9 771.732 166.9C772.033 166.9 772.263 166.99 772.42 167.168C772.58 167.344 772.66 167.586 772.66 167.892V168.048C772.66 168.355 772.58 168.598 772.42 168.776C772.263 168.952 772.033 169.04 771.732 169.04C771.559 169.04 771.409 169.008 771.284 168.944C771.161 168.88 771.068 168.795 771.004 168.688V169.804H770.572V166.936ZM770.992 168.016C770.992 168.251 771.045 168.424 771.152 168.536C771.261 168.646 771.415 168.7 771.612 168.7C772.017 168.7 772.22 168.472 772.22 168.016V167.92C772.22 167.467 772.017 167.24 771.612 167.24C771.42 167.24 771.268 167.296 771.156 167.408C771.047 167.518 770.992 167.688 770.992 167.92V168.016ZM774.012 169.044C773.679 169.044 773.42 168.958 773.236 168.784C773.055 168.611 772.964 168.366 772.964 168.048V167.892C772.964 167.575 773.056 167.33 773.24 167.156C773.424 166.983 773.68 166.896 774.008 166.896C774.334 166.896 774.579 166.982 774.744 167.152C774.912 167.32 774.996 167.562 774.996 167.876C774.996 167.964 774.994 168.034 774.988 168.084L773.388 168.056C773.391 168.488 773.603 168.704 774.024 168.704C774.27 168.704 774.476 168.608 774.644 168.416L774.928 168.66C774.84 168.778 774.718 168.871 774.56 168.94C774.403 169.01 774.22 169.044 774.012 169.044ZM774.576 167.78C774.574 167.599 774.526 167.462 774.432 167.368C774.339 167.272 774.199 167.224 774.012 167.224C773.828 167.224 773.68 167.274 773.568 167.372C773.459 167.471 773.399 167.62 773.388 167.82L774.576 167.78ZM775.369 166.936H776.813V167.296H775.801V169.004H775.369V166.936ZM778.067 169.044C777.729 169.044 777.467 168.958 777.283 168.784C777.099 168.611 777.007 168.366 777.007 168.048V167.892C777.007 167.575 777.099 167.33 777.283 167.156C777.467 166.983 777.729 166.896 778.067 166.896C778.409 166.896 778.67 166.983 778.851 167.156C779.035 167.327 779.127 167.572 779.127 167.892V168.048C779.127 168.368 779.035 168.615 778.851 168.788C778.67 168.959 778.409 169.044 778.067 169.044ZM777.447 168.012C777.447 168.255 777.499 168.431 777.603 168.54C777.707 168.65 777.862 168.704 778.067 168.704C778.273 168.704 778.427 168.65 778.531 168.54C778.638 168.431 778.691 168.255 778.691 168.012V167.928C778.691 167.686 778.638 167.51 778.531 167.4C778.427 167.291 778.273 167.236 778.067 167.236C777.862 167.236 777.707 167.291 777.603 167.4C777.499 167.51 777.447 167.686 777.447 167.928V168.012ZM779.525 166.936H780.693C780.912 166.936 781.079 166.98 781.193 167.068C781.311 167.156 781.369 167.288 781.369 167.464C781.369 167.702 781.261 167.86 781.045 167.94C781.168 167.97 781.263 168.027 781.329 168.112C781.399 168.195 781.433 168.298 781.433 168.42C781.433 168.612 781.373 168.758 781.253 168.856C781.133 168.955 780.955 169.004 780.717 169.004H779.525V166.936ZM780.673 168.692C780.895 168.692 781.005 168.595 781.005 168.4C781.005 168.302 780.979 168.228 780.925 168.18C780.875 168.132 780.789 168.108 780.669 168.108H779.949V168.692H780.673ZM780.637 167.804C780.749 167.804 780.831 167.78 780.881 167.732C780.932 167.684 780.957 167.615 780.957 167.524C780.957 167.34 780.849 167.248 780.633 167.248H779.949V167.804H780.637ZM782.77 169.044C782.432 169.044 782.17 168.958 781.986 168.784C781.802 168.611 781.71 168.366 781.71 168.048V167.892C781.71 167.575 781.802 167.33 781.986 167.156C782.17 166.983 782.432 166.896 782.77 166.896C783.112 166.896 783.373 166.983 783.554 167.156C783.738 167.327 783.83 167.572 783.83 167.892V168.048C783.83 168.368 783.738 168.615 783.554 168.788C783.373 168.959 783.112 169.044 782.77 169.044ZM782.15 168.012C782.15 168.255 782.202 168.431 782.306 168.54C782.41 168.65 782.565 168.704 782.77 168.704C782.976 168.704 783.13 168.65 783.234 168.54C783.341 168.431 783.394 168.255 783.394 168.012V167.928C783.394 167.686 783.341 167.51 783.234 167.4C783.13 167.291 782.976 167.236 782.77 167.236C782.565 167.236 782.41 167.291 782.306 167.4C782.202 167.51 782.15 167.686 782.15 167.928V168.012ZM784.228 166.936H784.66V167.26C784.724 167.151 784.818 167.064 784.94 167C785.066 166.934 785.215 166.9 785.388 166.9C785.69 166.9 785.919 166.99 786.076 167.168C786.236 167.344 786.316 167.586 786.316 167.892V168.048C786.316 168.355 786.236 168.598 786.076 168.776C785.919 168.952 785.69 169.04 785.388 169.04C785.215 169.04 785.066 169.008 784.94 168.944C784.818 168.88 784.724 168.795 784.66 168.688V169.804H784.228V166.936ZM784.648 168.016C784.648 168.251 784.702 168.424 784.808 168.536C784.918 168.646 785.071 168.7 785.268 168.7C785.674 168.7 785.876 168.472 785.876 168.016V167.92C785.876 167.467 785.674 167.24 785.268 167.24C785.076 167.24 784.924 167.296 784.812 167.408C784.703 167.518 784.648 167.688 784.648 167.92V168.016ZM786.713 166.936H787.145V167.84H787.265L788.121 166.936H788.645L787.741 167.872L788.693 169.004H788.149L787.389 168.1H787.145V169.004H786.713V166.936ZM789.532 169.04C789.295 169.04 789.108 168.99 788.972 168.888C788.836 168.784 788.768 168.639 788.768 168.452C788.768 168.239 788.843 168.082 788.992 167.98C789.142 167.879 789.372 167.828 789.684 167.828H790.264V167.688C790.264 167.531 790.226 167.416 790.148 167.344C790.074 167.27 789.954 167.232 789.788 167.232C789.652 167.232 789.531 167.259 789.424 167.312C789.32 167.363 789.236 167.435 789.172 167.528L788.868 167.344C788.954 167.203 789.079 167.094 789.244 167.016C789.41 166.939 789.594 166.9 789.796 166.9C790.079 166.9 790.296 166.962 790.448 167.084C790.6 167.207 790.676 167.404 790.676 167.676V169.004H790.28V168.664C790.214 168.79 790.114 168.884 789.98 168.948C789.85 169.01 789.7 169.04 789.532 169.04ZM789.184 168.42C789.184 168.519 789.224 168.592 789.304 168.64C789.384 168.686 789.491 168.708 789.624 168.708C789.811 168.708 789.964 168.668 790.084 168.588C790.204 168.506 790.264 168.392 790.264 168.248V168.116H789.696C789.52 168.116 789.391 168.142 789.308 168.192C789.226 168.243 789.184 168.319 789.184 168.42Z" fill="#172736"/>
<rect x="772.979" y="156.972" width="13.375" height="7.25" rx="1.6875" fill="#33D18F" fill-opacity="0.2"/>
<path d="M775.801 159.69C775.651 159.831 775.441 159.909 775.171 159.924V159.474C775.531 159.465 775.78 159.319 775.918 159.037H776.305V162.097H775.801V159.69ZM778.24 162.151C777.808 162.151 777.476 162.031 777.245 161.791C777.017 161.551 776.903 161.196 776.903 160.725V160.41C776.903 159.939 777.017 159.583 777.245 159.343C777.476 159.103 777.808 158.983 778.24 158.983C778.669 158.983 778.997 159.103 779.225 159.343C779.456 159.583 779.572 159.939 779.572 160.41V160.725C779.572 161.196 779.456 161.551 779.225 161.791C778.997 162.031 778.669 162.151 778.24 162.151ZM777.421 160.698C777.421 161.064 777.49 161.328 777.628 161.49C777.769 161.649 777.973 161.728 778.24 161.728C778.504 161.728 778.705 161.649 778.843 161.49C778.984 161.328 779.054 161.064 779.054 160.698V160.437C779.054 160.071 778.984 159.808 778.843 159.649C778.705 159.487 778.504 159.406 778.24 159.406C777.973 159.406 777.769 159.487 777.628 159.649C777.49 159.808 777.421 160.071 777.421 160.437V160.698ZM780.692 159.69C780.542 159.831 780.332 159.909 780.062 159.924V159.474C780.422 159.465 780.671 159.319 780.809 159.037H781.196V162.097H780.692V159.69ZM783.009 162.151C782.703 162.151 782.448 162.097 782.244 161.989C782.04 161.881 781.882 161.709 781.771 161.472L782.163 161.247C782.25 161.418 782.364 161.542 782.505 161.62C782.649 161.698 782.82 161.737 783.018 161.737C783.504 161.737 783.747 161.527 783.747 161.107C783.747 160.9 783.693 160.749 783.585 160.653C783.477 160.557 783.307 160.509 783.076 160.509C782.929 160.509 782.796 160.53 782.676 160.572C782.559 160.614 782.44 160.675 782.32 160.756L781.942 160.594L782.1 159.037H784.089V159.474H782.491L782.397 160.342C782.622 160.195 782.893 160.122 783.211 160.122C783.901 160.122 784.246 160.449 784.246 161.103C784.246 161.451 784.141 161.713 783.931 161.89C783.724 162.064 783.417 162.151 783.009 162.151Z" fill="#172736"/>
<rect x="712.25" y="1.25" width="44" height="98" fill="#33D18F" fill-opacity="0.2" stroke="#33D18F" stroke-opacity="0.2" stroke-width="2.5" stroke-linejoin="round"/>
<path d="M720.51 51.5622H722.75V54.2822H722.294V51.9582H720.966V54.2822H720.51V51.5622ZM724.216 54.3222C723.882 54.3222 723.624 54.2356 723.44 54.0622C723.258 53.8889 723.168 53.6436 723.168 53.3262V53.1702C723.168 52.8529 723.26 52.6076 723.444 52.4342C723.628 52.2609 723.884 52.1742 724.212 52.1742C724.537 52.1742 724.782 52.2596 724.948 52.4302C725.116 52.5982 725.2 52.8396 725.2 53.1542C725.2 53.2422 725.197 53.3116 725.192 53.3622L723.592 53.3342C723.594 53.7662 723.806 53.9822 724.228 53.9822C724.473 53.9822 724.68 53.8862 724.848 53.6942L725.132 53.9382C725.044 54.0556 724.921 54.1489 724.764 54.2182C724.606 54.2876 724.424 54.3222 724.216 54.3222ZM724.78 53.0582C724.777 52.8769 724.729 52.7396 724.636 52.6462C724.542 52.5502 724.402 52.5022 724.216 52.5022C724.032 52.5022 723.884 52.5516 723.772 52.6502C723.662 52.7489 723.602 52.8982 723.592 53.0982L724.78 53.0582ZM725.572 52.2142H726.004V52.5382C726.068 52.4289 726.161 52.3422 726.284 52.2782C726.409 52.2116 726.559 52.1782 726.732 52.1782C727.033 52.1782 727.263 52.2676 727.42 52.4462C727.58 52.6222 727.66 52.8636 727.66 53.1702V53.3262C727.66 53.6329 727.58 53.8756 727.42 54.0542C727.263 54.2302 727.033 54.3182 726.732 54.3182C726.559 54.3182 726.409 54.2862 726.284 54.2222C726.161 54.1582 726.068 54.0729 726.004 53.9662V55.0822H725.572V52.2142ZM725.992 53.2942C725.992 53.5289 726.045 53.7022 726.152 53.8142C726.261 53.9236 726.415 53.9782 726.612 53.9782C727.017 53.9782 727.22 53.7502 727.22 53.2942V53.1982C727.22 52.7449 727.017 52.5182 726.612 52.5182C726.42 52.5182 726.268 52.5742 726.156 52.6862C726.047 52.7956 725.992 52.9662 725.992 53.1982V53.2942ZM729.012 54.3222C728.679 54.3222 728.42 54.2356 728.236 54.0622C728.055 53.8889 727.964 53.6436 727.964 53.3262V53.1702C727.964 52.8529 728.056 52.6076 728.24 52.4342C728.424 52.2609 728.68 52.1742 729.008 52.1742C729.334 52.1742 729.579 52.2596 729.744 52.4302C729.912 52.5982 729.996 52.8396 729.996 53.1542C729.996 53.2422 729.994 53.3116 729.988 53.3622L728.388 53.3342C728.391 53.7662 728.603 53.9822 729.024 53.9822C729.27 53.9822 729.476 53.8862 729.644 53.6942L729.928 53.9382C729.84 54.0556 729.718 54.1489 729.56 54.2182C729.403 54.2876 729.22 54.3222 729.012 54.3222ZM729.576 53.0582C729.574 52.8769 729.526 52.7396 729.432 52.6462C729.339 52.5502 729.199 52.5022 729.012 52.5022C728.828 52.5022 728.68 52.5516 728.568 52.6502C728.459 52.7489 728.399 52.8982 728.388 53.0982L729.576 53.0582ZM730.369 52.2142H731.813V52.5742H730.801V54.2822H730.369V52.2142ZM733.067 54.3222C732.729 54.3222 732.467 54.2356 732.283 54.0622C732.099 53.8889 732.007 53.6436 732.007 53.3262V53.1702C732.007 52.8529 732.099 52.6076 732.283 52.4342C732.467 52.2609 732.729 52.1742 733.067 52.1742C733.409 52.1742 733.67 52.2609 733.851 52.4342C734.035 52.6049 734.127 52.8502 734.127 53.1702V53.3262C734.127 53.6462 734.035 53.8929 733.851 54.0662C733.67 54.2369 733.409 54.3222 733.067 54.3222ZM732.447 53.2902C732.447 53.5329 732.499 53.7089 732.603 53.8182C732.707 53.9276 732.862 53.9822 733.067 53.9822C733.273 53.9822 733.427 53.9276 733.531 53.8182C733.638 53.7089 733.691 53.5329 733.691 53.2902V53.2062C733.691 52.9636 733.638 52.7876 733.531 52.6782C733.427 52.5689 733.273 52.5142 733.067 52.5142C732.862 52.5142 732.707 52.5689 732.603 52.6782C732.499 52.7876 732.447 52.9636 732.447 53.2062V53.2902ZM734.525 52.2142H735.693C735.912 52.2142 736.079 52.2582 736.193 52.3462C736.311 52.4342 736.369 52.5662 736.369 52.7422C736.369 52.9796 736.261 53.1382 736.045 53.2182C736.168 53.2476 736.263 53.3049 736.329 53.3902C736.399 53.4729 736.433 53.5756 736.433 53.6982C736.433 53.8902 736.373 54.0356 736.253 54.1342C736.133 54.2329 735.955 54.2822 735.717 54.2822H734.525V52.2142ZM735.673 53.9702C735.895 53.9702 736.005 53.8729 736.005 53.6782C736.005 53.5796 735.979 53.5062 735.925 53.4582C735.875 53.4102 735.789 53.3862 735.669 53.3862H734.949V53.9702H735.673ZM735.637 53.0822C735.749 53.0822 735.831 53.0582 735.881 53.0102C735.932 52.9622 735.957 52.8929 735.957 52.8022C735.957 52.6182 735.849 52.5262 735.633 52.5262H734.949V53.0822H735.637ZM737.77 54.3222C737.432 54.3222 737.17 54.2356 736.986 54.0622C736.802 53.8889 736.71 53.6436 736.71 53.3262V53.1702C736.71 52.8529 736.802 52.6076 736.986 52.4342C737.17 52.2609 737.432 52.1742 737.77 52.1742C738.112 52.1742 738.373 52.2609 738.554 52.4342C738.738 52.6049 738.83 52.8502 738.83 53.1702V53.3262C738.83 53.6462 738.738 53.8929 738.554 54.0662C738.373 54.2369 738.112 54.3222 737.77 54.3222ZM737.15 53.2902C737.15 53.5329 737.202 53.7089 737.306 53.8182C737.41 53.9276 737.565 53.9822 737.77 53.9822C737.976 53.9822 738.13 53.9276 738.234 53.8182C738.341 53.7089 738.394 53.5329 738.394 53.2902V53.2062C738.394 52.9636 738.341 52.7876 738.234 52.6782C738.13 52.5689 737.976 52.5142 737.77 52.5142C737.565 52.5142 737.41 52.5689 737.306 52.6782C737.202 52.7876 737.15 52.9636 737.15 53.2062V53.2902ZM739.228 52.2142H739.66V52.5382C739.724 52.4289 739.818 52.3422 739.94 52.2782C740.066 52.2116 740.215 52.1782 740.388 52.1782C740.69 52.1782 740.919 52.2676 741.076 52.4462C741.236 52.6222 741.316 52.8636 741.316 53.1702V53.3262C741.316 53.6329 741.236 53.8756 741.076 54.0542C740.919 54.2302 740.69 54.3182 740.388 54.3182C740.215 54.3182 740.066 54.2862 739.94 54.2222C739.818 54.1582 739.724 54.0729 739.66 53.9662V55.0822H739.228V52.2142ZM739.648 53.2942C739.648 53.5289 739.702 53.7022 739.808 53.8142C739.918 53.9236 740.071 53.9782 740.268 53.9782C740.674 53.9782 740.876 53.7502 740.876 53.2942V53.1982C740.876 52.7449 740.674 52.5182 740.268 52.5182C740.076 52.5182 739.924 52.5742 739.812 52.6862C739.703 52.7956 739.648 52.9662 739.648 53.1982V53.2942ZM741.713 52.2142H742.145V53.1182H742.265L743.121 52.2142H743.645L742.741 53.1502L743.693 54.2822H743.149L742.389 53.3782H742.145V54.2822H741.713V52.2142ZM744.532 54.3182C744.295 54.3182 744.108 54.2676 743.972 54.1662C743.836 54.0622 743.768 53.9169 743.768 53.7302C743.768 53.5169 743.843 53.3596 743.992 53.2582C744.142 53.1569 744.372 53.1062 744.684 53.1062H745.264V52.9662C745.264 52.8089 745.226 52.6942 745.148 52.6222C745.074 52.5476 744.954 52.5102 744.788 52.5102C744.652 52.5102 744.531 52.5369 744.424 52.5902C744.32 52.6409 744.236 52.7129 744.172 52.8062L743.868 52.6222C743.954 52.4809 744.079 52.3716 744.244 52.2942C744.41 52.2169 744.594 52.1782 744.796 52.1782C745.079 52.1782 745.296 52.2396 745.448 52.3622C745.6 52.4849 745.676 52.6822 745.676 52.9542V54.2822H745.28V53.9422C745.214 54.0676 745.114 54.1622 744.98 54.2262C744.85 54.2876 744.7 54.3182 744.532 54.3182ZM744.184 53.6982C744.184 53.7969 744.224 53.8702 744.304 53.9182C744.384 53.9636 744.491 53.9862 744.624 53.9862C744.811 53.9862 744.964 53.9462 745.084 53.8662C745.204 53.7836 745.264 53.6702 745.264 53.5262V53.3942H744.696C744.52 53.3942 744.391 53.4196 744.308 53.4702C744.226 53.5209 744.184 53.5969 744.184 53.6982Z" fill="#172736"/>
<rect x="727.979" y="42.25" width="14.375" height="7.25" rx="1.6875" fill="#33D18F" fill-opacity="0.2"/>
<path d="M730.734 44.9675C730.584 45.1085 730.374 45.1865 730.104 45.2015V44.7515C730.464 44.7425 730.713 44.597 730.851 44.315H731.238V47.375H730.734V44.9675ZM733.173 47.429C732.741 47.429 732.409 47.309 732.178 47.069C731.95 46.829 731.836 46.4735 731.836 46.0025V45.6875C731.836 45.2165 731.95 44.861 732.178 44.621C732.409 44.381 732.741 44.261 733.173 44.261C733.602 44.261 733.93 44.381 734.158 44.621C734.389 44.861 734.505 45.2165 734.505 45.6875V46.0025C734.505 46.4735 734.389 46.829 734.158 47.069C733.93 47.309 733.602 47.429 733.173 47.429ZM732.354 45.9755C732.354 46.3415 732.423 46.6055 732.561 46.7675C732.702 46.9265 732.906 47.006 733.173 47.006C733.437 47.006 733.638 46.9265 733.776 46.7675C733.917 46.6055 733.987 46.3415 733.987 45.9755V45.7145C733.987 45.3485 733.917 45.086 733.776 44.927C733.638 44.765 733.437 44.684 733.173 44.684C732.906 44.684 732.702 44.765 732.561 44.927C732.423 45.086 732.354 45.3485 732.354 45.7145V45.9755ZM734.951 46.9655C735.479 46.5845 735.872 46.2845 736.13 46.0655C736.391 45.8435 736.565 45.668 736.652 45.539C736.739 45.407 736.782 45.278 736.782 45.152C736.782 44.987 736.728 44.8685 736.62 44.7965C736.515 44.7215 736.373 44.684 736.193 44.684C735.989 44.684 735.824 44.729 735.698 44.819C735.572 44.909 735.459 45.0575 735.36 45.2645L734.933 45.089C735.05 44.81 735.213 44.603 735.423 44.468C735.633 44.33 735.897 44.261 736.215 44.261C736.545 44.261 736.806 44.3345 736.998 44.4815C737.193 44.6255 737.291 44.8415 737.291 45.1295C737.291 45.3095 737.244 45.4805 737.151 45.6425C737.058 45.8045 736.895 45.9875 736.661 46.1915C736.427 46.3925 736.091 46.6415 735.653 46.9385H737.304V47.375H734.951V46.9655ZM739.491 46.7585H737.75V46.394L739.383 44.315H739.977V46.349H740.355V46.7585H739.977V47.375H739.491V46.7585ZM739.491 46.349V44.828L738.299 46.349H739.491Z" fill="#172736"/>
<path d="M993.75 124.472H998.25V110.972H968.75V94.9722H904.25V136.972H993.75V124.472Z" fill="#FFEDD6" stroke="#FFCF94" stroke-width="2.5" stroke-linecap="round" stroke-linejoin="round"/>
<path d="M932.675 121.982V118.157H933.563L934.75 121.29L935.931 118.157H936.815V121.982H936.19L936.207 118.888L935.043 121.982H934.435L933.271 118.888L933.288 121.982H932.675ZM938.104 120.632C938.104 120.939 938.102 121.153 938.098 121.273L939.6 119.074H940.269V121.982H939.69V120.418C939.69 120.122 939.692 119.912 939.696 119.788L938.199 121.982H937.524V119.074H938.104V120.632ZM940.958 119.074H941.565V120.244H943.05V119.074H943.658V121.982H943.05V120.744H941.565V121.982H940.958V119.074ZM944.926 120.632C944.926 120.939 944.925 121.153 944.921 121.273L946.423 119.074H947.092V121.982H946.513V120.418C946.513 120.122 946.515 119.912 946.518 119.788L945.022 121.982H944.347V119.074H944.926V120.632ZM947.628 120.148H949.136V120.643H947.628V120.148ZM949.67 119.074H950.277V120.345H950.446L951.65 119.074H952.387L951.116 120.39L952.454 121.982H951.689L950.621 120.711H950.277V121.982H949.67V119.074ZM953.004 122.584H953.218C953.345 122.584 953.447 122.565 953.522 122.528C953.6 122.494 953.668 122.432 953.724 122.342C953.78 122.256 953.84 122.124 953.904 121.948H953.612L952.554 119.074H953.223L954.056 121.532H954.062L954.866 119.074H955.513L954.45 122.049C954.356 122.319 954.26 122.529 954.163 122.679C954.065 122.829 953.949 122.938 953.814 123.006C953.679 123.073 953.51 123.107 953.308 123.107H953.004V122.584ZM957.031 120.778L956.299 121.982H955.624L956.609 120.48L955.686 119.074H956.389L957.064 120.188L957.751 119.074H958.426L957.481 120.48L958.459 121.982H957.756L957.031 120.778ZM958.904 119.074H959.511V120.244H960.996V119.074H961.604V121.982H960.996V120.744H959.511V121.982H958.904V119.074ZM962.968 120.896C962.71 120.859 962.513 120.765 962.378 120.615C962.243 120.465 962.175 120.259 962.175 119.996C962.175 119.693 962.267 119.464 962.451 119.31C962.638 119.153 962.905 119.074 963.25 119.074H964.841V121.982H964.251V120.913H963.615L962.828 121.982H962.102L962.968 120.896ZM962.783 119.996C962.783 120.3 962.951 120.452 963.289 120.452H964.251V119.535H963.289C962.951 119.535 962.783 119.689 962.783 119.996Z" fill="#172736"/>
<rect x="942.691" y="108.972" width="10" height="6" rx="1.5" fill="#FFCF94"/>
<rect x="942.691" y="108.972" width="10" height="6" rx="1.5" stroke="#FFA436" stroke-opacity="0.2" stroke-width="0.5"/>
<path d="M945.161 110.832C945.028 110.958 944.841 111.027 944.601 111.04V110.64C944.921 110.632 945.143 110.503 945.265 110.252H945.609V112.972H945.161V110.832ZM947.329 113.02C946.945 113.02 946.65 112.914 946.445 112.7C946.242 112.487 946.141 112.171 946.141 111.752V111.472C946.141 111.054 946.242 110.738 946.445 110.524C946.65 110.311 946.945 110.204 947.329 110.204C947.71 110.204 948.002 110.311 948.205 110.524C948.41 110.738 948.513 111.054 948.513 111.472V111.752C948.513 112.171 948.41 112.487 948.205 112.7C948.002 112.914 947.71 113.02 947.329 113.02ZM946.601 111.728C946.601 112.054 946.662 112.288 946.785 112.432C946.91 112.574 947.091 112.644 947.329 112.644C947.563 112.644 947.742 112.574 947.865 112.432C947.99 112.288 948.053 112.054 948.053 111.728V111.496C948.053 111.171 947.99 110.938 947.865 110.796C947.742 110.652 947.563 110.58 947.329 110.58C947.091 110.58 946.91 110.652 946.785 110.796C946.662 110.938 946.601 111.171 946.601 111.496V111.728ZM949.952 113.012C949.621 113.012 949.365 112.926 949.184 112.752C949.002 112.579 948.912 112.334 948.912 112.016V111.86C948.912 111.543 949.002 111.298 949.184 111.124C949.365 110.951 949.622 110.864 949.956 110.864C950.204 110.864 950.408 110.918 950.568 111.024C950.73 111.131 950.842 111.284 950.904 111.484L950.508 111.604C950.428 111.338 950.244 111.204 949.956 111.204C949.758 111.204 949.608 111.26 949.504 111.372C949.4 111.482 949.348 111.656 949.348 111.896V111.98C949.348 112.439 949.55 112.668 949.956 112.668C950.246 112.668 950.432 112.534 950.512 112.264L950.9 112.38C950.838 112.583 950.728 112.739 950.568 112.848C950.408 112.958 950.202 113.012 949.952 113.012Z" fill="#172736"/>
<path d="M66.25 184.25H30.25V198.25H11.75L1.25 354.75H52.75L105.75 353.75V343.25C105.75 337.65 101.75 329.583 99.75 326.25C104.083 324.583 114.65 319.35 122.25 311.75C129.85 304.15 131.75 289.25 131.75 282.75V207.25H123.75V184.25H66.25Z" fill="#33D18F" fill-opacity="0.2" stroke="#33D18F" stroke-opacity="0.2" stroke-width="2.5" stroke-linecap="round" stroke-linejoin="round"/>
<rect x="59.9785" y="262.25" width="14.375" height="7.25" rx="1.6875" fill="#33D18F" fill-opacity="0.2"/>
<path d="M62.7454 264.967C62.5954 265.108 62.3854 265.186 62.1154 265.201V264.751C62.4754 264.742 62.7244 264.597 62.8624 264.315H63.2494V267.375H62.7454V264.967ZM65.1836 267.429C64.7516 267.429 64.4201 267.309 64.1891 267.069C63.9611 266.829 63.8471 266.473 63.8471 266.002V265.687C63.8471 265.216 63.9611 264.861 64.1891 264.621C64.4201 264.381 64.7516 264.261 65.1836 264.261C65.6126 264.261 65.9411 264.381 66.1691 264.621C66.4001 264.861 66.5156 265.216 66.5156 265.687V266.002C66.5156 266.473 66.4001 266.829 66.1691 267.069C65.9411 267.309 65.6126 267.429 65.1836 267.429ZM64.3646 265.975C64.3646 266.341 64.4336 266.605 64.5716 266.767C64.7126 266.926 64.9166 267.006 65.1836 267.006C65.4476 267.006 65.6486 266.926 65.7866 266.767C65.9276 266.605 65.9981 266.341 65.9981 265.975V265.714C65.9981 265.348 65.9276 265.086 65.7866 264.927C65.6486 264.765 65.4476 264.684 65.1836 264.684C64.9166 264.684 64.7126 264.765 64.5716 264.927C64.4336 265.086 64.3646 265.348 64.3646 265.714V265.975ZM68.341 267.429C67.909 267.429 67.5775 267.309 67.3465 267.069C67.1185 266.829 67.0045 266.473 67.0045 266.002V265.687C67.0045 265.216 67.1185 264.861 67.3465 264.621C67.5775 264.381 67.909 264.261 68.341 264.261C68.77 264.261 69.0985 264.381 69.3265 264.621C69.5575 264.861 69.673 265.216 69.673 265.687V266.002C69.673 266.473 69.5575 266.829 69.3265 267.069C69.0985 267.309 68.77 267.429 68.341 267.429ZM67.522 265.975C67.522 266.341 67.591 266.605 67.729 266.767C67.87 266.926 68.074 267.006 68.341 267.006C68.605 267.006 68.806 266.926 68.944 266.767C69.085 266.605 69.1555 266.341 69.1555 265.975V265.714C69.1555 265.348 69.085 265.086 68.944 264.927C68.806 264.765 68.605 264.684 68.341 264.684C68.074 264.684 67.87 264.765 67.729 264.927C67.591 265.086 67.522 265.348 67.522 265.714V265.975ZM70.5161 267.375C70.7681 266.346 71.1866 265.473 71.7716 264.756H70.0436V264.315H72.2936V264.711C71.9786 265.083 71.7236 265.488 71.5286 265.926C71.3366 266.361 71.1896 266.844 71.0876 267.375H70.5161Z" fill="#172736"/>
<path d="M35.0381 272.425L35.6849 272.425L35.6849 274.141L35.8256 274.141L37.4456 272.425L38.2387 272.425L36.5287 274.157L38.3287 276.25L37.5018 276.25L36.0787 274.585L35.6849 274.585L35.6849 276.25L35.0381 276.25L35.0381 272.425ZM39.8044 276.306C39.3282 276.306 38.9607 276.184 38.7019 275.941C38.4432 275.697 38.3138 275.352 38.3138 274.906L38.3138 274.686C38.3138 274.24 38.4432 273.895 38.7019 273.651C38.9607 273.407 39.3282 273.286 39.8044 273.286C40.2844 273.286 40.6519 273.407 40.9069 273.651C41.1657 273.891 41.2951 274.236 41.2951 274.686L41.2951 274.906C41.2951 275.356 41.1657 275.702 40.9069 275.946C40.6519 276.186 40.2844 276.306 39.8044 276.306ZM38.9325 274.855C38.9325 275.196 39.0057 275.444 39.1519 275.597C39.2982 275.751 39.5157 275.828 39.8044 275.828C40.0932 275.828 40.3107 275.751 40.4569 275.597C40.6069 275.444 40.6819 275.196 40.6819 274.855L40.6819 274.737C40.6819 274.396 40.6069 274.148 40.4569 273.994C40.3107 273.841 40.0932 273.764 39.8044 273.764C39.5157 273.764 39.2982 273.841 39.1519 273.994C39.0057 274.148 38.9325 274.396 38.9325 274.737L38.9325 274.855ZM41.8546 273.342L43.4971 273.342C43.8046 273.342 44.039 273.404 44.2002 273.527C44.3652 273.651 44.4477 273.837 44.4477 274.084C44.4477 274.418 44.2958 274.641 43.9921 274.754C44.1646 274.795 44.2977 274.876 44.3915 274.996C44.489 275.112 44.5377 275.256 44.5377 275.429C44.5377 275.699 44.4533 275.903 44.2846 276.042C44.1158 276.181 43.8646 276.25 43.5308 276.25L41.8546 276.25L41.8546 273.342ZM43.4689 275.811C43.7802 275.811 43.9358 275.674 43.9358 275.401C43.9358 275.262 43.8983 275.159 43.8233 275.091C43.7521 275.024 43.6321 274.99 43.4633 274.99L42.4508 274.99L42.4508 275.811L43.4689 275.811ZM43.4183 274.562C43.5758 274.562 43.6902 274.529 43.7614 274.461C43.8327 274.394 43.8683 274.296 43.8683 274.169C43.8683 273.91 43.7164 273.781 43.4127 273.781L42.4508 273.781L42.4508 274.562L43.4183 274.562ZM46.4182 276.306C45.942 276.306 45.5745 276.184 45.3157 275.941C45.057 275.697 44.9276 275.352 44.9276 274.906L44.9276 274.686C44.9276 274.24 45.057 273.895 45.3157 273.651C45.5745 273.407 45.942 273.286 46.4182 273.286C46.8982 273.286 47.2657 273.407 47.5207 273.651C47.7795 273.891 47.9088 274.236 47.9088 274.686L47.9088 274.906C47.9088 275.356 47.7795 275.702 47.5207 275.946C47.2657 276.186 46.8982 276.306 46.4182 276.306ZM45.5463 274.855C45.5463 275.196 45.6195 275.444 45.7657 275.597C45.912 275.751 46.1295 275.828 46.4182 275.828C46.707 275.828 46.9245 275.751 47.0707 275.597C47.2207 275.444 47.2957 275.196 47.2957 274.855L47.2957 274.737C47.2957 274.396 47.2207 274.148 47.0707 273.994C46.9245 273.841 46.707 273.764 46.4182 273.764C46.1295 273.764 45.912 273.841 45.7657 273.994C45.6195 274.148 45.5463 274.396 45.5463 274.737L45.5463 274.855ZM48.4684 273.342L49.0759 273.342L49.0759 273.797C49.1659 273.644 49.2971 273.522 49.4696 273.432C49.6459 273.338 49.8559 273.291 50.0996 273.291C50.5234 273.291 50.8459 273.417 51.0671 273.668C51.2921 273.916 51.4046 274.255 51.4046 274.686L51.4046 274.906C51.4046 275.337 51.2921 275.678 51.0671 275.929C50.8459 276.177 50.5234 276.301 50.0996 276.301C49.8559 276.301 49.6459 276.256 49.4696 276.166C49.2971 276.076 49.1659 275.956 49.0759 275.806L49.0759 277.375L48.4684 277.375L48.4684 273.342ZM49.059 274.861C49.059 275.191 49.134 275.434 49.284 275.592C49.4377 275.746 49.6534 275.822 49.9309 275.822C50.5009 275.822 50.7859 275.502 50.7859 274.861L50.7859 274.726C50.7859 274.088 50.5009 273.769 49.9309 273.769C49.6609 273.769 49.4471 273.848 49.2896 274.006C49.1359 274.159 49.059 274.399 49.059 274.726L49.059 274.861ZM51.962 273.342L52.5695 273.342L52.5695 274.613L52.7383 274.613L53.942 273.342L54.6789 273.342L53.4077 274.658L54.7464 276.25L53.9814 276.25L52.9127 274.979L52.5695 274.979L52.5695 276.25L51.962 276.25L51.962 273.342ZM55.7439 274.9C55.7439 275.207 55.7421 275.421 55.7383 275.541L57.2402 273.342L57.9096 273.342L57.9096 276.25L57.3302 276.25L57.3302 274.686C57.3302 274.39 57.3321 274.18 57.3358 274.056L55.8396 276.25L55.1646 276.25L55.1646 273.342L55.7439 273.342L55.7439 274.9ZM58.5978 273.342L59.2053 273.342L59.2053 274.512L60.6903 274.512L60.6903 273.342L61.2978 273.342L61.2978 276.25L60.6903 276.25L60.6903 275.012L59.2053 275.012L59.2053 276.25L58.5978 276.25L58.5978 273.342ZM61.9871 273.342L64.0177 273.342L64.0177 273.848L62.5946 273.848L62.5946 276.25L61.9871 276.25L61.9871 273.342ZM66.3911 273.342L67.3755 275.62L68.3542 273.342L69.2205 273.342L69.2205 276.25L68.6298 276.25L68.6355 273.932L67.6286 276.25L67.0942 276.25L66.093 273.932L66.0873 273.932L66.093 276.25L65.5192 276.25L65.5192 273.342L66.3911 273.342ZM70.797 276.301C70.4633 276.301 70.2008 276.229 70.0095 276.087C69.8183 275.941 69.7226 275.736 69.7226 275.474C69.7226 275.174 69.8276 274.952 70.0376 274.81C70.2476 274.667 70.572 274.596 71.0108 274.596L71.8264 274.596L71.8264 274.399C71.8264 274.178 71.772 274.017 71.6633 273.916C71.5583 273.811 71.3895 273.758 71.157 273.758C70.9658 273.758 70.7951 273.796 70.6451 273.871C70.4989 273.942 70.3808 274.043 70.2908 274.174L69.8633 273.916C69.9833 273.717 70.1595 273.563 70.392 273.454C70.6245 273.346 70.8833 273.291 71.1683 273.291C71.5658 273.291 71.8714 273.377 72.0851 273.55C72.2989 273.722 72.4058 274 72.4058 274.382L72.4058 276.25L71.8489 276.25L71.8489 275.772C71.7551 275.948 71.6145 276.081 71.427 276.171C71.2433 276.257 71.0333 276.301 70.797 276.301ZM70.3076 275.429C70.3076 275.567 70.3639 275.671 70.4764 275.738C70.5889 275.802 70.7389 275.834 70.9264 275.834C71.1889 275.834 71.4045 275.777 71.5733 275.665C71.742 275.549 71.8264 275.389 71.8264 275.187L71.8264 275.001L71.0276 275.001C70.7801 275.001 70.5983 275.037 70.482 275.108C70.3658 275.179 70.3076 275.286 70.3076 275.429ZM73.0668 273.342L73.6743 273.342L73.6743 273.797C73.7643 273.644 73.8956 273.522 74.0681 273.432C74.2443 273.338 74.4543 273.291 74.6981 273.291C75.1218 273.291 75.4443 273.417 75.6656 273.668C75.8906 273.916 76.0031 274.255 76.0031 274.686L76.0031 274.906C76.0031 275.337 75.8906 275.678 75.6656 275.929C75.4443 276.177 75.1218 276.301 74.6981 276.301C74.4543 276.301 74.2443 276.256 74.0681 276.166C73.8956 276.076 73.7643 275.956 73.6743 275.806L73.6743 277.375L73.0668 277.375L73.0668 273.342ZM73.6575 274.861C73.6575 275.191 73.7325 275.434 73.8825 275.592C74.0362 275.746 74.2518 275.822 74.5293 275.822C75.0993 275.822 75.3843 275.502 75.3843 274.861L75.3843 274.726C75.3843 274.088 75.0993 273.769 74.5293 273.769C74.2593 273.769 74.0456 273.848 73.8881 274.006C73.7343 274.159 73.6575 274.399 73.6575 274.726L73.6575 274.861ZM76.5605 273.342L77.168 273.342L77.168 274.613L77.3368 274.613L78.5405 273.342L79.2774 273.342L78.0061 274.658L79.3449 276.25L78.5799 276.25L77.5111 274.979L77.168 274.979L77.168 276.25L76.5605 276.25L76.5605 273.342ZM80.8822 276.306C80.4134 276.306 80.0497 276.184 79.7909 275.941C79.5359 275.697 79.4084 275.352 79.4084 274.906L79.4084 274.686C79.4084 274.24 79.5378 273.895 79.7966 273.651C80.0553 273.407 80.4153 273.286 80.8766 273.286C81.3341 273.286 81.6791 273.406 81.9116 273.646C82.1478 273.882 82.2659 274.221 82.2659 274.664C82.2659 274.787 82.2622 274.885 82.2547 274.956L80.0047 274.917C80.0084 275.524 80.3066 275.828 80.8991 275.828C81.2441 275.828 81.5347 275.693 81.7709 275.423L82.1703 275.766C82.0466 275.931 81.8741 276.062 81.6528 276.16C81.4316 276.257 81.1747 276.306 80.8822 276.306ZM81.6753 274.529C81.6716 274.274 81.6041 274.081 81.4728 273.949C81.3416 273.814 81.1447 273.747 80.8822 273.747C80.6234 273.747 80.4153 273.816 80.2578 273.955C80.1041 274.094 80.0197 274.304 80.0047 274.585L81.6753 274.529ZM83.6116 273.848L82.5597 273.848L82.5597 273.342L85.2766 273.342L85.2766 273.848L84.2247 273.848L84.2247 276.25L83.6116 276.25L83.6116 273.848ZM86.3355 274.9C86.3355 275.207 86.3336 275.421 86.3299 275.541L87.8317 273.342L88.5011 273.342L88.5011 276.25L87.9217 276.25L87.9217 274.686C87.9217 274.39 87.9236 274.18 87.9274 274.056L86.4311 276.25L85.7561 276.25L85.7561 273.342L86.3355 273.342L86.3355 274.9ZM89.1893 273.342L89.7968 273.342L89.7968 274.512L91.2818 274.512L91.2818 273.342L91.8893 273.342L91.8893 276.25L91.2818 276.25L91.2818 275.012L89.7968 275.012L89.7968 276.25L89.1893 276.25L89.1893 273.342ZM92.5786 273.342L94.6093 273.342L94.6093 273.848L93.1861 273.848L93.1861 276.25L92.5786 276.25L92.5786 273.342ZM95.9009 276.301C95.5671 276.301 95.3046 276.229 95.1134 276.087C94.9221 275.941 94.8265 275.736 94.8265 275.474C94.8265 275.174 94.9315 274.952 95.1415 274.81C95.3515 274.667 95.6759 274.596 96.1146 274.596L96.9302 274.596L96.9302 274.399C96.9302 274.178 96.8759 274.017 96.7671 273.916C96.6621 273.811 96.4934 273.758 96.2609 273.758C96.0696 273.758 95.899 273.796 95.749 273.871C95.6027 273.942 95.4846 274.043 95.3946 274.174L94.9671 273.916C95.0871 273.717 95.2634 273.563 95.4959 273.454C95.7284 273.346 95.9871 273.291 96.2721 273.291C96.6696 273.291 96.9752 273.377 97.189 273.55C97.4027 273.722 97.5096 274 97.5096 274.382L97.5096 276.25L96.9527 276.25L96.9527 275.772C96.859 275.948 96.7184 276.081 96.5309 276.171C96.3471 276.257 96.1371 276.301 95.9009 276.301ZM95.4115 275.429C95.4115 275.567 95.4677 275.671 95.5802 275.738C95.6927 275.802 95.8427 275.834 96.0302 275.834C96.2927 275.834 96.5084 275.777 96.6771 275.665C96.8459 275.549 96.9302 275.389 96.9302 275.187L96.9302 275.001L96.1315 275.001C95.884 275.001 95.7021 275.037 95.5859 275.108C95.4696 275.179 95.4115 275.286 95.4115 275.429Z" fill="#172736"/>
</svg>
