<svg width="1074" height="525" viewBox="0 0 1074 525" fill="none" xmlns="http://www.w3.org/2000/svg">
<g id="b1f1">
<g id="Vector">
<path d="M121.706 208.71C121.706 214.229 119.548 219.243 116.029 222.955C112.255 226.937 106.915 229.42 100.996 229.42C89.5583 229.42 80.2861 220.148 80.2861 208.71C80.2861 197.272 89.5583 188 100.996 188C106.915 188 112.255 190.483 116.029 194.465C119.548 198.177 121.706 203.191 121.706 208.71Z" fill="white"/>
<path d="M419.35 299.306C419.123 299.772 418.549 299.977 418.064 299.793C334.166 268.043 325.652 329.239 238.392 279.477C237.944 279.221 237.347 279.33 237.049 279.751L196.199 337.368C250.545 366.777 307.342 392.241 366.2 413.394C393.443 423.185 421.128 432.053 449.215 439.96L455.936 422.244L483.663 349.147L493.469 323.297C469.591 314.294 446.235 304.226 423.458 293.152C422.961 292.911 422.362 293.117 422.121 293.614L419.35 299.306Z" fill="white"/>
<path d="M149.918 326.243C162.676 333.736 175.576 341.012 188.616 348.064L196.199 337.368C169.842 323.105 144.061 307.914 118.902 291.838L109.99 301.781C123.136 310.174 136.447 318.33 149.918 326.243Z" fill="white"/>
<path d="M193.411 350.644C246.308 378.959 301.459 403.611 358.526 424.261C386.783 434.487 415.51 443.731 444.666 451.953L448.52 441.792L449.215 439.96C421.128 432.053 393.443 423.185 366.2 413.394C307.342 392.241 250.545 366.777 196.199 337.368L188.616 348.064C190.212 348.927 191.811 349.788 193.411 350.644Z" fill="white"/>
<path d="M583.939 441.713L541.405 432.606L533.595 460.546C562.644 466.562 592.063 471.568 621.812 475.527L626.473 450.82L583.939 441.713Z" fill="white"/>
<path d="M564.007 351.741L536.61 342.953L529.566 365.199L557.802 373.941L558.208 372.491L564.007 351.741Z" fill="white"/>
<path d="M619.452 488.039C624.497 488.711 629.551 489.354 634.614 489.966L635.172 490.033L635.886 490.119L636.228 490.16L636.671 490.213C686.172 496.119 736.553 499.158 787.644 499.158L794.969 499.158L882.08 499.158C882.632 499.158 883.08 498.71 883.08 498.158V486.5H836.427H792.158C790.837 486.504 789.517 486.506 788.195 486.506C746.128 486.506 704.542 484.428 663.536 480.367C649.559 478.983 635.65 477.368 621.812 475.527L619.452 488.039Z" fill="white"/>
<path d="M530.157 472.848C559.56 478.948 589.338 484.025 619.452 488.039L621.812 475.527C592.063 471.568 562.644 466.562 533.595 460.546L530.157 472.848Z" fill="white"/>
<path d="M964.317 471.818V403.807H897.749C897.197 403.807 896.749 403.359 896.749 402.807V376.722H883.08V471.818H964.317Z" fill="white"/>
<path d="M1030.94 264.529V351.89C1030.94 352.443 1031.39 352.89 1031.94 352.89H1072.96V332.252V265.529C1072.96 264.977 1072.51 264.529 1071.96 264.529H1030.94Z" fill="white"/>
<path d="M358.526 424.261C301.459 403.611 246.308 378.959 193.411 350.644C191.811 349.788 190.212 348.927 188.616 348.064C175.576 341.012 162.676 333.736 149.918 326.243C136.447 318.33 123.136 310.174 109.99 301.781C96.8399 293.385 83.8556 284.752 71.0436 275.888L60.1404 291.838C268.002 437.963 521.352 523.752 794.74 523.752C794.866 523.752 794.969 523.649 794.969 523.523V499.158L787.644 499.158C736.553 499.158 686.172 496.119 636.671 490.213L636.228 490.16L635.886 490.119L635.172 490.033L634.614 489.966C629.551 489.354 624.497 488.711 619.452 488.039C589.338 484.025 559.56 478.948 530.157 472.848C501.286 466.858 472.777 459.88 444.666 451.953C415.51 443.731 386.783 434.487 358.526 424.261Z" fill="white"/>
<path d="M71.0436 275.888C83.8556 284.752 96.8399 293.385 109.99 301.781L118.902 291.838L116.029 290.179L76.7691 267.512L71.0436 275.888Z" fill="white"/>
<path d="M240.143 116.69L228.731 129.313C234.955 135.177 241.272 140.943 247.678 146.61L258.951 133.166L240.143 116.69Z" fill="white"/>
<path d="M237.049 279.751C237.347 279.33 237.944 279.221 238.392 279.477C325.652 329.239 334.166 268.043 418.064 299.793C418.549 299.977 419.123 299.772 419.35 299.306L422.121 293.614C422.362 293.117 422.961 292.911 423.458 293.152C446.235 304.226 469.591 314.294 493.469 323.297L483.663 349.147L455.936 422.244L449.215 439.96L448.52 441.792L444.666 451.953C472.777 459.88 501.286 466.858 530.157 472.848L533.595 460.546L541.405 432.606L583.939 441.713L597.121 383.269C597.243 382.731 596.904 382.196 596.366 382.073C583.536 379.162 570.814 375.965 558.208 372.491L557.802 373.941L529.566 365.199L536.61 342.953L564.007 351.741L558.208 372.491C570.814 375.965 583.536 379.162 596.366 382.073C596.904 382.196 597.243 382.731 597.121 383.269L583.939 441.713L626.473 450.82L621.812 475.527C635.65 477.368 649.559 478.983 663.536 480.367C704.542 484.428 746.128 486.506 788.195 486.506C789.517 486.506 790.837 486.504 792.158 486.5H836.427H883.08V471.818V376.722H896.749V402.807C896.749 403.359 897.197 403.807 897.749 403.807H964.317V471.818H1057.2C1057.76 471.818 1058.2 471.37 1058.2 470.818V382.759V375.3C1058.2 374.747 1058.65 374.3 1059.2 374.3H1072.96V352.89H1031.94C1031.39 352.89 1030.94 352.443 1030.94 351.89V264.529H965.559V213.703V163.606C965.559 163.054 965.111 162.606 964.559 162.606H934.83H794.812H787.588C780.275 162.606 772.991 162.48 765.737 162.228C756.235 161.899 746.786 161.356 737.394 160.603C718.864 159.119 700.556 156.821 682.509 153.744C662.341 150.305 642.498 145.895 623.034 140.562L596.385 235.905L584.335 279.015L557.004 269.887L544.708 307.07C544.528 307.615 544.842 308.199 545.396 308.349L547.259 308.854C547.79 308.998 548.105 309.543 547.964 310.075L546.736 314.713C542.308 313.349 537.896 311.949 533.501 310.512L547.806 266.815L551.465 268.037L562.397 235.905L565.454 226.918C565.63 226.401 566.189 226.121 566.709 226.289L596.385 235.905L623.034 140.562C604.801 135.567 586.9 129.762 569.376 123.19C551.012 116.302 533.062 108.571 515.577 100.044C478.432 81.9289 443.386 60.2211 410.928 35.3742C410.482 35.0332 409.843 35.1242 409.512 35.5766L358.526 105.096C337.287 88.8649 316.995 71.4582 297.747 52.9729L240.143 116.69L258.951 133.166L247.678 146.61C241.272 140.943 234.955 135.177 228.731 129.313L240.143 116.69L297.747 52.9729C287.259 42.9002 277.08 32.5072 267.227 21.8097C266.855 21.4056 266.227 21.3765 265.819 21.7451L253.307 33.0674L236.578 49.096L223.45 35.9533C223.051 35.5535 223.062 34.9024 223.474 34.5163L240.417 18.6645L224.607 1H157.746H119.122H48.5263C48.3342 1 48.1461 1.05536 47.9846 1.15946L1.45842 31.1462C0.999099 31.4423 0.86243 32.0522 1.15206 32.5156C7.94167 43.3784 14.9496 54.0906 22.1697 64.6462C26.7985 71.4134 31.5145 78.1163 36.3161 84.7531C40.5708 90.634 44.8927 96.463 49.2806 102.239L22.2072 123.913C21.9701 124.103 21.8322 124.39 21.8322 124.694V263.338C21.8322 263.651 21.9783 263.945 22.2272 264.134C34.6882 273.594 47.3279 282.83 60.1404 291.838L71.0436 275.888L76.7691 267.512V237.654C76.7691 237.102 77.2168 236.654 77.7691 236.654H115.029C115.581 236.654 116.029 236.206 116.029 235.654V222.955C112.255 226.937 106.915 229.42 100.996 229.42C89.5583 229.42 80.2861 220.148 80.2861 208.71C80.2861 197.272 89.5583 188 100.996 188C106.915 188 112.255 190.483 116.029 194.465C119.548 198.177 121.706 203.191 121.706 208.71C121.706 214.229 119.548 219.243 116.029 222.955V235.654C116.029 236.206 115.581 236.654 115.029 236.654H77.7691C77.2168 236.654 76.7691 237.102 76.7691 237.654V267.512L116.029 290.179L118.902 291.838C144.061 307.914 169.842 323.105 196.199 337.368L237.049 279.751Z" fill="white"/>
<path d="M566.709 226.289C566.189 226.121 565.63 226.401 565.454 226.918L562.397 235.905L551.465 268.037L557.004 269.887L584.335 279.015L596.385 235.905L566.709 226.289Z" fill="white"/>
<path d="M551.465 268.037L547.806 266.815L533.501 310.512C537.896 311.949 542.308 313.349 546.736 314.713L547.964 310.075C548.105 309.543 547.79 308.998 547.259 308.854L545.396 308.349C544.842 308.199 544.528 307.615 544.708 307.07L557.004 269.887L551.465 268.037Z" fill="white"/>
<path d="M188.616 348.064C190.212 348.927 191.811 349.788 193.411 350.644C246.308 378.959 301.459 403.611 358.526 424.261C386.783 434.487 415.51 443.731 444.666 451.953M188.616 348.064C175.576 341.012 162.676 333.736 149.918 326.243C136.447 318.33 123.136 310.174 109.99 301.781M188.616 348.064L196.199 337.368M516.927 342.222L519.66 333.631C519.826 333.112 519.544 332.555 519.027 332.38C510.311 329.427 502.084 326.545 493.469 323.297M493.469 323.297C469.591 314.294 446.235 304.226 423.458 293.152C422.961 292.911 422.362 293.117 422.121 293.614L419.35 299.306C419.123 299.772 418.549 299.977 418.064 299.793C334.166 268.043 325.652 329.239 238.392 279.477C237.944 279.221 237.347 279.33 237.049 279.751L196.199 337.368M493.469 323.297L483.663 349.147M513.982 349.756L511.354 357.872C511.181 358.408 510.6 358.695 510.069 358.506L483.663 349.147M483.663 349.147L455.936 422.244M444.666 451.953L448.52 441.792L449.215 439.96M444.666 451.953C472.777 459.88 501.286 466.858 530.157 472.848M530.157 472.848C559.56 478.948 589.338 484.025 619.452 488.039M530.157 472.848L533.595 460.546M492.686 377.019L494.866 378.043M492.686 377.019L495.773 367.399M492.686 377.019L483.442 405.83C483.274 406.355 483.562 406.918 484.087 407.087L512.441 416.256M522.148 386.9L504.708 381.035M522.148 386.9L525.416 377.019M522.148 386.9L512.441 416.256M512.441 416.256L543.195 426.2M543.195 426.2L554.761 384.823M543.195 426.2L541.405 432.606M541.405 432.606L583.939 441.713M541.405 432.606L533.595 460.546M642.824 364.134C633.702 362.537 624.631 360.792 615.614 358.901M642.824 364.134L637.865 390.423L631.116 426.2M642.824 364.134L643.317 362.292C643.446 361.811 643.909 361.499 644.403 361.558L665.728 364.134M642.824 364.134L631.116 426.2M529.422 365.155L529.566 365.199M557.802 373.941C557.802 373.941 558.049 373.057 558.208 372.491M557.802 373.941L558.208 372.491M557.802 373.941L529.566 365.199M559.831 341.534L565.424 342.73C565.987 342.851 566.333 343.422 566.178 343.977L565.409 346.726M605.694 356.757C592.138 353.74 578.707 350.394 565.409 346.726M565.409 346.726L564.007 351.741M548.855 337.8L540.319 334.978C539.796 334.805 539.231 335.088 539.057 335.611L536.61 342.953M536.61 342.953L564.007 351.741M536.61 342.953L529.566 365.199M529.422 365.651L529.566 365.199M564.007 351.741C564.007 351.741 560.473 364.387 558.208 372.491M564.007 351.741L558.208 372.491M558.208 372.491C557.819 372.384 558.596 372.598 558.208 372.491ZM558.208 372.491C570.814 375.965 583.536 379.162 596.366 382.073C596.904 382.196 597.243 382.731 597.121 383.269L583.939 441.713M583.939 441.713L626.473 450.82M626.473 450.82L631.116 426.2M626.473 450.82L621.812 475.527M619.452 488.039C624.497 488.711 629.551 489.354 634.614 489.966M619.452 488.039L621.812 475.527M634.614 489.966L635.172 490.033M634.614 489.966C634.8 489.989 634.986 490.011 635.172 490.033M636.228 490.16C636.375 490.178 636.523 490.196 636.671 490.213M636.228 490.16L636.671 490.213M636.228 490.16L635.886 490.119M636.228 490.16C636.114 490.147 636 490.133 635.886 490.119M636.671 490.213C686.172 496.119 736.553 499.158 787.644 499.158M787.644 499.158C787.218 499.158 788.069 499.158 787.644 499.158ZM787.644 499.158L794.969 499.158M873.094 373.592H882.08C882.632 373.592 883.08 374.039 883.08 374.592V376.722M965.559 351.499H954.36M965.559 351.499H976.711M965.559 351.499V265.35M838.047 354.512H877.409C877.961 354.512 878.409 354.064 878.409 353.512V352.499C878.409 351.947 878.857 351.499 879.409 351.499H934.83M934.83 351.499H943.076M934.83 351.499V325.956M934.83 325.956H948.798M934.83 325.956V265.35M934.83 265.35V256.669M934.83 265.35H965.559M965.559 265.35V264.529M337.713 215.734C339.485 216.908 341.261 218.075 343.042 219.235M337.713 215.734C333.754 213.111 329.818 210.453 325.908 207.762M337.713 215.734L353.253 192.424M341.561 184.428L353.253 192.424M353.253 192.424L379.278 153.385M379.278 153.385L386.953 158.434M379.278 153.385L393.607 130.579M393.607 130.579L401.719 135.664M393.607 130.579C393.801 130.269 393.71 129.861 393.403 129.664L365.869 111.986M228.731 129.313L240.143 116.69M228.731 129.313C234.955 135.177 241.272 140.943 247.678 146.61M228.731 129.313C227.967 128.593 227.204 127.872 226.443 127.149M167.475 64.9855C166.909 64.3223 166.344 63.6581 165.779 62.9931C165.418 62.5669 165.477 61.9272 165.909 61.5734L186.721 44.5574C187.135 44.2187 187.743 44.2662 188.099 44.6651L198.933 56.7843C199.293 57.1866 199.268 57.8016 198.878 58.1741L178.496 77.6298M178.496 77.6298C176.595 75.494 174.706 73.348 172.828 71.1921M178.496 77.6298L174.618 81.3626M155.234 127.569L138.015 143.339M155.234 127.569L211.59 181.305C212.005 181.7 212.667 181.667 213.04 181.231L228.698 162.944C229.05 162.532 229.01 161.914 228.608 161.551C222.413 155.951 216.303 150.26 210.279 144.479M155.234 127.569L175.472 109.035M175.472 109.035L176.322 108.257M175.472 109.035C170.454 103.613 165.507 98.1242 160.632 92.5699M175.472 109.035C184.577 118.873 193.917 128.492 203.482 137.881M143.066 71.8892C145.678 75.0667 148.312 78.2246 150.97 81.3626M150.97 81.3626L119.029 108.257M150.97 81.3626C154.158 85.1272 157.379 88.8631 160.632 92.5699M119.029 108.257L135.581 127.569M119.029 108.257L105.082 120.001M105.082 120.001L124.224 142.528M105.082 120.001L81.0488 140.237C80.6272 140.592 79.9978 140.539 79.6421 140.118C79.3825 139.811 79.1231 139.504 78.8639 139.196M87.3009 189.5V172.436C87.3009 171.884 86.8532 171.436 86.3009 171.436H79.8639C79.3116 171.436 78.8639 170.988 78.8639 170.436V139.196M78.8639 139.196C69.1913 127.722 59.7916 116.009 50.6748 104.07M66.0317 61.4565L68.8541 59.2438M66.0317 61.4565L64.3447 62.7791M66.0317 61.4565L80.9807 80.4414M124.224 47.2379L127.085 45.2729M124.224 47.2379C128.73 53.1601 133.355 58.8497 138.015 64.6462M124.224 47.2379L110.423 57.4866M76.1907 53.492L94.9481 38.7865C95.3874 38.442 96.0238 38.5241 96.3614 38.9687L110.423 57.4866M110.423 57.4866L80.9807 80.4414M80.9807 80.4414L50.6748 104.07M50.6748 104.07C50.2093 103.46 49.7446 102.85 49.2806 102.239M49.2806 102.239L22.2072 123.913C21.9701 124.103 21.8322 124.39 21.8322 124.694V263.338C21.8322 263.651 21.9783 263.945 22.2272 264.134C34.6882 273.594 47.3279 282.83 60.1404 291.838M49.2806 102.239C44.8927 96.463 40.5708 90.634 36.3161 84.7531M36.3161 84.7531L56.4362 68.9792M36.3161 84.7531C31.5145 78.1163 26.7985 71.4134 22.1697 64.6462C14.9496 54.0906 7.94167 43.3784 1.15206 32.5156C0.86243 32.0522 0.999099 31.4423 1.45842 31.1462L47.9846 1.15946C48.1461 1.05536 48.3342 1 48.5263 1H119.122M140.503 35.2222L137.317 37.3126M140.503 35.2222L145.005 40.4225M140.503 35.2222L119.366 10.8087C119.209 10.627 119.122 10.3946 119.122 10.1542V1M119.122 1H157.746M150.522 47.2379L152.281 49.4403C152.635 49.8843 153.288 49.9442 153.717 49.5723L175.467 30.7281C175.878 30.3729 175.93 29.7554 175.585 29.3366L161.055 11.6938C160.865 11.4631 160.582 11.3295 160.283 11.3295H158.746C158.193 11.3295 157.746 10.8818 157.746 10.3295V1M157.746 1H224.607M224.607 1C229.352 6.30168 235.224 12.8618 240.417 18.6645M224.607 1L240.417 18.6645M240.417 18.6645L223.474 34.5163C223.062 34.9024 223.051 35.5535 223.45 35.9533L236.578 49.096M236.578 49.096L212.354 72.306L192.149 91.6643C191.894 91.9085 191.883 92.3121 192.124 92.5699C199.712 100.684 207.463 108.642 215.373 116.44M236.578 49.096L253.307 33.0674L265.819 21.7451C266.227 21.3765 266.855 21.4056 267.227 21.8097C277.08 32.5072 287.259 42.9002 297.747 52.9729M297.747 52.9729L240.143 116.69M297.747 52.9729C316.995 71.4582 337.287 88.8649 358.526 105.096M240.143 116.69L258.951 133.166M258.951 133.166L266.948 140.436M258.951 133.166L247.678 146.61M247.678 146.61C248.708 147.522 249.741 148.43 250.775 149.336M317.421 201.844C313.953 199.392 310.506 196.914 307.078 194.41C306.633 194.085 306.536 193.461 306.86 193.016L316.462 179.83M287.013 157.448L316.462 179.83M316.462 179.83L322.553 171.467M322.553 171.467L332.37 178.267M322.553 171.467L365.869 111.986M365.869 111.986C366.055 111.73 366.011 111.374 365.769 111.171L358.526 105.096M358.526 105.096L409.512 35.5766C409.843 35.1242 410.482 35.0332 410.928 35.3742C443.386 60.2211 478.432 81.9289 515.577 100.044M464.012 255.977L465.454 256.788C465.909 257.044 466.091 257.607 465.871 258.081L455.481 280.448M455.481 280.448C457.654 281.417 459.831 282.377 462.013 283.327M455.481 280.448C438.005 272.654 420.855 264.261 404.055 255.297M366.2 233.773C365.107 233.112 364.017 232.449 362.928 231.784C360.989 230.6 359.056 229.407 357.129 228.207M366.2 233.773L373.848 221.417M366.2 233.773C375.775 239.562 385.479 245.159 395.306 250.559M405.346 170.533L418.949 147.727M405.346 170.533L396.15 164.484M405.346 170.533L385.786 202.132M418.949 147.727L410.068 141.544M418.949 147.727L448.1 163.446M417.588 219.779L406.623 240.024M417.588 219.779L397.799 209.363M417.588 219.779L437.945 230.539M417.588 219.779L448.1 163.446M406.623 240.024L386.953 228.995M406.623 240.024L427.357 250.832M456.748 252.777L444.39 247.003M444.39 247.003L439.43 257.241M444.39 247.003L449.349 236.764M439.43 257.241L434.793 266.815M439.43 257.241L434.793 254.665M449.349 236.764L445.587 234.645M449.349 236.764L472.99 187.96M482.15 169.05L501.843 178.264C502.352 178.502 502.565 179.114 502.313 179.617L499.882 184.479M482.15 169.05L477.251 179.164M482.15 169.05L488.518 155.905L493.366 145.897M493.366 145.897L517.415 156.984C517.905 157.21 518.486 157.006 518.728 156.523L519.44 155.099M493.366 145.897L499.882 132.443M511.009 109.474L552.646 127.745M511.009 109.474L499.882 132.443M511.009 109.474L515.577 100.044M499.882 132.443L524.617 143.321M515.577 100.044C533.062 108.571 551.012 116.302 569.376 123.19M569.376 123.19L543.532 191.321M569.376 123.19C586.9 129.762 604.801 135.567 623.034 140.562M825.89 354.512H830.705M825.89 354.512H821.075M825.89 354.512V309.327M915.449 266.397H826.89C826.338 266.397 825.89 266.845 825.89 267.397V309.327M825.89 309.327H794.834M794.834 309.327V310.093V323.936M794.834 309.327V265.292C794.834 264.769 794.432 264.335 793.911 264.295L773.44 262.702M794.834 309.327H787.586C767.438 309.327 747.471 308.55 727.714 307.024M493.366 197.748L496.621 199.547M493.366 197.748L472.99 187.96M493.366 197.748L494.663 194.859M727.714 307.024L730.632 259.372M727.714 307.024L723.587 348.727M723.587 348.727L777.018 350.9M723.587 348.727L645.573 338.086M514.895 304.176C516.127 304.612 517.36 305.046 518.595 305.476C523.542 307.201 528.511 308.88 533.501 310.512M562.397 235.905L545.439 230.386M562.397 235.905L565.454 226.918C565.63 226.401 566.189 226.121 566.709 226.289L596.385 235.905M562.397 235.905L551.465 268.037M551.465 268.037L547.806 266.815M551.465 268.037L557.004 269.887M502.439 299.65C504.533 300.43 506.631 301.202 508.733 301.966M502.439 299.65L507.075 287.428M502.439 299.65C492.057 295.78 481.775 291.704 471.598 287.428M494.663 258.035L493.071 257.525C492.572 257.365 492.034 257.618 491.838 258.105L484.048 277.49C483.84 278.008 484.096 278.596 484.617 278.796L507.075 287.428M572.285 322.125C596.944 328.84 620.042 333.691 645.573 338.086M572.285 322.125L584.335 279.015M572.285 322.125C567.005 320.687 561.745 319.197 556.508 317.656M645.573 338.086L661.163 252.928C661.257 252.413 661.732 252.058 662.252 252.114L686.732 254.712M507.075 287.428L514.895 266.815M514.895 266.815L502.439 260.807M514.895 266.815L518.595 257.059M518.595 257.059L534.346 215.536M518.595 257.059L547.806 266.815M534.346 215.536L537.114 208.24M534.346 215.536L520.184 209.844M533.501 310.512L547.806 266.815M533.501 310.512C537.896 311.949 542.308 313.349 546.736 314.713M584.335 279.015L596.385 235.905M584.335 279.015L557.004 269.887M596.385 235.905L623.034 140.562M623.034 140.562C642.498 145.895 662.341 150.305 682.509 153.744M965.559 264.529V213.703M965.559 264.529H1030.94M965.559 213.703H934.83M965.559 213.703V163.606C965.559 163.054 965.111 162.606 964.559 162.606H934.83M689.887 226.387L684.746 225.818L670.31 224.22C669.731 224.156 669.33 223.613 669.438 223.041L682.509 153.744M777.305 233.618L795.804 235.232C796.389 235.283 796.891 234.822 796.891 234.235V190.763V185.242V189.195C796.891 189.763 796.418 190.218 795.85 190.194L764.589 188.898M557.004 269.887L544.708 307.07C544.528 307.615 544.842 308.199 545.396 308.349L547.259 308.854C547.79 308.998 548.105 309.543 547.964 310.075L546.736 314.713M764.589 188.898L764.816 184.453M764.589 188.898L762.351 232.605M737.394 160.603C718.864 159.119 700.556 156.821 682.509 153.744M737.394 160.603C746.786 161.356 756.235 161.899 765.737 162.228M737.394 160.603L730.632 229.721M765.301 175.481L765.737 162.228M765.737 162.228C772.991 162.48 780.275 162.606 787.588 162.606M787.588 162.606H794.812H934.83M787.588 162.606C787.388 162.607 787.787 162.606 787.588 162.606ZM934.83 162.606V170.52M730.632 259.372L703.584 256.501M730.632 259.372L762.733 261.869M934.83 213.703V223.251M934.83 213.703V204.155M448.1 163.446L477.251 179.164M477.251 179.164L472.99 187.96M1030.94 264.529V351.89C1030.94 352.443 1031.39 352.89 1031.94 352.89H1072.96M1030.94 264.529H1071.96C1072.51 264.529 1072.96 264.977 1072.96 265.529V332.252V352.89M1072.96 352.89V374.3M1072.96 374.3H1059.2C1058.65 374.3 1058.2 374.747 1058.2 375.3V382.759M1072.96 374.3V380.821M373.848 221.417L385.786 202.132M373.848 221.417L379.469 224.516M385.786 202.132L390.307 204.733M946.205 376.722H963.317C963.869 376.722 964.317 377.17 964.317 377.722V380.821M109.99 301.781C96.8399 293.385 83.8556 284.752 71.0436 275.888M109.99 301.781L118.902 291.838M71.0436 275.888L60.1404 291.838M71.0436 275.888L76.7691 267.512M964.317 380.821V403.807M964.317 380.821H988.323M524.617 143.321L542.722 151.282M524.617 143.321L522.875 147.211M964.317 403.807V471.818M964.317 403.807H897.749C897.197 403.807 896.749 403.359 896.749 402.807V376.722M964.317 471.818H883.08M964.317 471.818H1057.2C1057.76 471.818 1058.2 471.37 1058.2 470.818V382.759M934.83 376.722H896.749M896.749 376.722H883.08M883.08 376.722V471.818M883.08 471.818V486.5M792.158 373.592H800.654M792.158 373.592V423.367M792.158 373.592H761.659M132.295 148.578L124.224 155.969L116.353 163.177C116.147 163.367 116.029 163.634 116.029 163.915V194.465M794.969 499.158V523.523C794.969 523.649 794.866 523.752 794.74 523.752C521.352 523.752 268.002 437.963 60.1404 291.838M794.969 499.158L882.08 499.158C882.632 499.158 883.08 498.71 883.08 498.158V486.5M516.711 456.926C522.325 458.171 527.953 459.377 533.595 460.546M792.158 486.5C790.837 486.504 789.517 486.506 788.195 486.506C746.128 486.506 704.542 484.428 663.536 480.367M792.158 486.5H836.427M792.158 486.5V423.367M836.427 373.592V486.5M836.427 486.5H883.08M499.299 452.934C482.47 448.948 465.773 444.621 449.215 439.96M118.902 291.838L116.029 290.179M118.902 291.838C144.061 307.914 169.842 323.105 196.199 337.368M116.029 194.465C119.548 198.177 121.706 203.191 121.706 208.71C121.706 214.229 119.548 219.243 116.029 222.955M116.029 194.465C112.255 190.483 106.915 188 100.996 188C89.5583 188 80.2861 197.272 80.2861 208.71C80.2861 220.148 89.5583 229.42 100.996 229.42C106.915 229.42 112.255 226.937 116.029 222.955M1058.2 382.759H1000.99M116.029 290.179L76.7691 267.512M116.029 290.179V248.791M116.029 222.955V235.654C116.029 236.206 115.581 236.654 115.029 236.654H77.7691C77.2168 236.654 76.7691 237.102 76.7691 237.654V267.512M546.736 314.713C547.442 314.931 548.148 315.147 548.855 315.363M762.351 232.605L730.632 229.721M762.351 232.605L764.816 232.829M708.422 227.702L730.632 229.721M631.116 426.2L670.188 431.747M670.188 431.747L669.664 435.6M670.188 431.747C670.188 431.747 675.685 391.73 679.207 366.089M679.207 366.089L676.246 365.672M679.207 366.089L681.966 366.469M668.408 445.479L663.536 480.367M663.536 480.367C649.559 478.983 635.65 477.368 621.812 475.527M792.158 423.367H748.722C748.17 423.367 747.722 422.919 747.722 422.367V373.592M747.722 373.592C732.265 372.446 699.688 369.667 693.029 367.721M747.722 373.592H751.929M196.199 337.368C250.545 366.777 307.342 392.241 366.2 413.394M449.215 439.96C421.128 432.053 393.443 423.185 366.2 413.394M449.215 439.96L455.936 422.244M533.595 460.546C562.644 466.562 592.063 471.568 621.812 475.527M635.172 490.033C635.41 490.062 635.648 490.091 635.886 490.119M635.172 490.033L635.886 490.119M160.632 92.5699L166.289 87.9578M989.484 351.499H1017.48M366.2 413.394L377.894 389.284C378.128 388.802 378.701 388.59 379.193 388.804L455.936 422.244M202.583 194.465L171.919 229.42" stroke="#BFC4C8" stroke-width="2" stroke-linecap="round" stroke-linejoin="round"/>
</g>
<g id="Group 6">
<path id="staircase" d="M239.266 89.1728L247.889 97.7958M243.588 84.0948L252.469 92.976M247.594 79.388L256.714 88.5086M251.6 74.6811L260.96 84.041M255.605 69.9744L265.205 79.5736M259.611 65.2677L269.45 75.1062M263.617 60.5609L273.695 70.6388M267.623 55.8542L277.94 66.1714M271.628 51.1475L282.185 61.704M258.217 37.7358L267.896 47.4143M253.827 42.0579L263.301 51.5324M249.437 46.38L258.707 55.6505M245.046 50.7021L254.113 59.7686M240.656 55.0242L249.518 63.8867M236.266 59.3463L244.924 68.0048M231.875 63.6686L240.33 72.1231M227.485 67.9907L235.735 76.2412M222.748 72.6538L230.778 80.6842M247.526 97.4965L282.015 61.353M258.524 38.0761L222.968 72.9382M239.674 89.5654L271.928 51.205L267.85 47.5063L230.677 80.4113L239.674 89.5654Z" stroke="#DCDFE1"/>
<g id="staircase-icon">
<rect x="215.661" y="86.814" width="15.4302" height="15.4302" rx="3.85754" stroke="#172736" stroke-opacity="0.15" stroke-width="0.964386"/>
<path id="Vector_2" opacity="0.5" d="M225.142 91.0481H229.203V92.7884H226.883V95.1089H224.562V97.4293H222.242V99.7498H218.181V98.0095H220.501V95.689H222.822V93.3685H225.142V91.0481ZM222.34 91.4309L219.144 94.6274L218.082 93.5658L221.279 90.3693L220.211 89.3077H223.402V92.4984L222.34 91.4309Z" fill="#172736"/>
</g>
</g>
<g id="b1f1-coffee">
<g id="Ellipse 35">
<path d="M290.284 213.451C291.295 211.979 292.311 210.51 293.332 209.045C293.648 208.592 294.27 208.481 294.723 208.797L316.858 224.214L353.816 249.957L354.481 250.42C354.934 250.736 355.046 251.358 354.731 251.811L354.271 252.475L350.08 258.516L343.825 267.533L338.576 275.1L338.574 275.103L338.122 275.755C337.814 276.198 337.21 276.317 336.756 276.024L336.083 275.588L306.419 256.374L287.408 244.061L276.062 236.712C275.601 236.413 275.467 235.798 275.764 235.335C276.271 234.542 276.78 233.751 277.29 232.96C278.518 231.058 279.753 229.161 280.997 227.269L290.284 213.451Z" fill="#FFEDD6"/>
<path d="M343.825 267.533L350.08 258.516L354.271 252.475M343.825 267.533L338.576 275.1M343.825 267.533C342.166 269.925 339.875 273.227 338.576 275.1M353.816 249.957L316.858 224.214L294.723 208.797C294.27 208.481 293.648 208.592 293.332 209.045C292.311 210.51 291.295 211.979 290.284 213.451L280.997 227.269C279.753 229.161 278.518 231.058 277.29 232.96C276.78 233.751 276.271 234.542 275.764 235.335C275.467 235.798 275.601 236.413 276.062 236.712L287.408 244.061L306.419 256.374L336.083 275.588M353.816 249.957C354.637 250.529 354.84 251.654 354.271 252.475M353.816 249.957L354.481 250.42C354.934 250.736 355.046 251.358 354.731 251.811L354.271 252.475M338.576 275.1L338.574 275.103M336.083 275.588L336.756 276.024C337.21 276.317 337.814 276.198 338.122 275.755C338.253 275.565 338.405 275.346 338.574 275.103M336.083 275.588C336.91 276.123 338.012 275.909 338.574 275.103" stroke="#FFCF94" stroke-width="2.00001" stroke-linejoin="round"/>
</g>
<text id="title" transform="translate(295.249 222.447) rotate(34.2934)" fill="#172736" xml:space="preserve" style="white-space: pre" font-family="CoFo Weather 20240219" font-size="10" font-weight="500" letter-spacing="0em"><tspan x="0.180559" y="8.45001">&#x41a;&#x420;&#x41e;&#x41a;-&#x43a;&#x43e;&#x444;&#x435;</tspan></text>
</g>
<g id="b1f1-garderob">
<path id="Ellipse 32" d="M419.68 299.265C419.266 300.112 418.229 300.486 417.345 300.156C334.328 269.246 325.447 329.289 239.056 280.577C238.24 280.117 237.161 280.317 236.617 281.08L197.397 336.148C196.761 337.041 197.052 338.29 198.018 338.809C251.812 367.672 307.998 392.691 366.199 413.514C392.925 423.075 420.075 431.752 447.613 439.509C448.52 439.765 449.472 439.285 449.808 438.404L455.935 422.324L483.663 349.557L492.817 325.536C493.176 324.592 492.7 323.535 491.755 323.178C468.73 314.478 446.192 304.791 424.194 294.171C423.29 293.734 422.201 294.109 421.76 295.012L419.68 299.265Z" fill="#475DEB" fill-opacity="0.2" stroke="#475DEB" stroke-opacity="0.2" stroke-width="2" stroke-linecap="round" stroke-linejoin="round"/>
<text id="title_2" transform="translate(321.59 339.592) rotate(18.9766)" fill="#172736" xml:space="preserve" style="white-space: pre" font-family="CoFo Weather 20240219" font-size="14" font-weight="500" letter-spacing="0em"><tspan x="0.269531" y="11.83">&#x413;&#x430;&#x440;&#x434;&#x435;&#x440;&#x43e;&#x431;</tspan></text>
</g>
<g id="b1f1-elevator-1">
<path id="Vector_3" d="M296.487 54.3664L241.385 115.317C240.703 116.072 240.771 117.239 241.536 117.91L258.951 133.166L266.948 140.436L314.974 178.646C315.785 179.292 316.971 179.131 317.582 178.293L322.553 171.467L365.869 111.986C366.055 111.73 366.011 111.374 365.769 111.171L358.526 105.096C337.786 89.2457 317.948 72.2744 299.104 54.2723C298.36 53.5621 297.177 53.6037 296.487 54.3664Z" fill="#475DEB" fill-opacity="0.2" stroke="#475DEB" stroke-opacity="0.2" stroke-width="2" stroke-linecap="round" stroke-linejoin="round"/>
<text id="title_3" transform="translate(289.691 88.6408) rotate(37.3739)" fill="#172736" xml:space="preserve" style="white-space: pre" font-family="CoFo Weather 20240219" font-size="10" font-weight="500" letter-spacing="0em"><tspan x="0.00390625" y="8.45">&#x41b;&#x438;&#x444;&#x442;&#x43e;&#x432;&#x43e;&#x439; &#10;</tspan><tspan x="11.5127" y="18.45">&#x445;&#x43e;&#x43b;&#x43b; 1</tspan></text>
</g>
<g id="b1f1-elevator-2">
<g id="Vector_4">
<path d="M965.559 349.676V265.35C965.559 264.896 965.926 264.529 966.379 264.529H1029.12C1030.13 264.529 1030.94 265.345 1030.94 266.352V351.499H967.382C966.375 351.499 965.559 350.683 965.559 349.676Z" fill="#475DEB" fill-opacity="0.2"/>
<path d="M1030.94 352.89V351.499M1030.94 351.499V266.352C1030.94 265.345 1030.13 264.529 1029.12 264.529H966.379C965.926 264.529 965.559 264.896 965.559 265.35V349.676C965.559 350.683 966.375 351.499 967.382 351.499H1030.94Z" stroke="#475DEB" stroke-opacity="0.2" stroke-width="2" stroke-linecap="round" stroke-linejoin="round"/>
</g>
<text id="title_4" transform="translate(973.346 295.828) rotate(-0.0516369)" fill="#172736" xml:space="preserve" style="white-space: pre" font-family="CoFo Weather 20240219" font-size="10" font-weight="500" letter-spacing="0em"><tspan x="0.00390625" y="8.45">&#x41b;&#x438;&#x444;&#x442;&#x43e;&#x432;&#x43e;&#x439; &#10;</tspan><tspan x="10.292" y="18.45">&#x445;&#x43e;&#x43b;&#x43b; 2</tspan></text>
</g>
<g id="b1f1-vending">
<text id="title_5" transform="translate(386.867 204.572) rotate(29.0012)" fill="#172736" xml:space="preserve" style="white-space: pre" font-family="CoFo Weather 20240219" font-size="10" font-weight="500" letter-spacing="0em"><tspan x="0.291914" y="8.45001">&#x412;&#x435;&#x43d;&#x434;&#x438;&#x43d;&#x433;</tspan></text>
<rect id="Rectangle 2987" x="373.501" y="193.495" width="12" height="13" transform="rotate(30.0243 373.501 193.495)" fill="#FFA436"/>
</g>
<g id="b1f1-air">
<text id="title_6" transform="translate(263.346 186.218) rotate(-50.8452)" fill="#172736" xml:space="preserve" style="white-space: pre" font-family="CoFo Weather 20240219" font-size="8" font-weight="500" letter-spacing="0em"><tspan x="17.823" y="6.76">&#x421;&#x442;&#x430;&#x43d;&#x446;&#x438;&#x44f; </tspan><tspan x="8.25266" y="14.76">&#x43c;&#x43e;&#x43d;&#x438;&#x442;&#x43e;&#x440;&#x438;&#x43d;&#x433;&#x430; </tspan><tspan x="18.612" y="22.76">&#x432;&#x43e;&#x437;&#x434;&#x443;&#x445;&#x430;</tspan></text>
<circle id="Ellipse 39" cx="308.846" cy="180.269" r="4.5" fill="#475DEB"/>
</g>
<g id="b1f1-enter">
<path id="Ellipse 31" d="M78.9004 170.83C78.9004 171.837 79.7164 172.653 80.7231 172.653H87.3374H114.243C115.249 172.653 116.065 173.469 116.065 174.476V194.849C116.065 195.317 116.248 195.765 116.559 196.115C119.785 199.75 121.743 204.527 121.743 209.759C121.743 214.991 119.785 219.768 116.559 223.403C116.248 223.753 116.065 224.201 116.065 224.669V235.754C116.065 236.761 115.249 237.577 114.243 237.577H78.6283C77.6217 237.577 76.8056 238.393 76.8056 239.399V267.73C76.8056 268.099 76.694 268.458 76.4854 268.762L71.08 276.634L61.2179 290.995C60.6444 291.83 59.5001 292.038 58.671 291.456C46.4861 282.903 34.4581 274.143 22.592 265.181C22.1363 264.837 21.8686 264.299 21.8686 263.728V126.522C21.8686 125.967 22.1214 125.442 22.5554 125.097L47.8613 104.929C48.6603 104.292 49.8264 104.436 50.4478 105.247C50.5356 105.362 50.6234 105.476 50.7112 105.591C59.6924 117.3 68.9481 128.789 78.4688 140.049C78.7474 140.378 78.9004 140.796 78.9004 141.227V170.83Z" fill="#475DEB" fill-opacity="0.2" stroke="#475DEB" stroke-opacity="0.2" stroke-width="2" stroke-linecap="round" stroke-linejoin="round"/>
<text id="title_7" transform="translate(41.4453 192.031)" fill="#172736" xml:space="preserve" style="white-space: pre" font-family="CoFo Weather 20240219" font-size="12" font-weight="500" letter-spacing="0em"><tspan x="0.113281" y="10.14">&#x412;&#x445;&#x43e;&#x434;&#x43d;&#x430;&#x44f; &#10;</tspan><tspan x="5.82031" y="22.14">&#x433;&#x440;&#x443;&#x43f;&#x43f;&#x430;</tspan></text>
</g>
<g id="b1f1-letter">
<g id="Vector_5">
<path d="M149.817 79.9482C146.545 75.8379 140.314 67.4434 138.015 64.6462C133.355 58.8497 128.73 53.1601 124.224 47.2379L110.423 57.4866L80.9808 80.4414L50.6748 104.07C59.7916 116.009 69.1913 127.722 78.8639 139.196L79.1128 139.491C79.7606 140.259 80.9079 140.356 81.6763 139.709L105.082 120.001L119.029 108.257L149.572 82.54C150.343 81.8903 150.445 80.7374 149.817 79.9482Z" fill="#475DEB" fill-opacity="0.2"/>
<path d="M124.224 47.2379L127.085 45.2729M124.224 47.2379C128.73 53.1601 133.355 58.8497 138.015 64.6462C140.314 67.4434 146.545 75.8379 149.817 79.9482C150.445 80.7374 150.343 81.8903 149.572 82.54L119.029 108.257L105.082 120.001L81.6763 139.709C80.9079 140.356 79.7606 140.259 79.1128 139.491C79.0298 139.393 78.9469 139.295 78.8639 139.196C69.1913 127.722 59.7916 116.009 50.6748 104.07M124.224 47.2379L110.423 57.4866L80.9808 80.4414L50.6748 104.07M50.6748 104.07C50.2093 103.46 49.7446 102.85 49.2806 102.239" stroke="#475DEB" stroke-opacity="0.2" stroke-width="2" stroke-linecap="round" stroke-linejoin="round"/>
</g>
<text id="title_8" transform="translate(72.7471 110.01) rotate(-39.5832)" fill="#172736" xml:space="preserve" style="white-space: pre" font-family="CoFo Weather 20240219" font-size="10" font-weight="500" letter-spacing="0em"><tspan x="0.36902" y="8.45001">&#x41e;&#x442;&#x434;&#x435;&#x43b; &#x43f;&#x438;&#x441;&#x435;&#x43c;</tspan></text>
</g>
<g id="b1f1-charity-shop">
<text id="title_9" transform="translate(441.195 324.769) rotate(21.4432)" fill="#172736" xml:space="preserve" style="white-space: pre" font-family="CoFo Weather 20240219" font-size="8" font-weight="500" letter-spacing="0em"><tspan x="0.484375" y="6.76">Charity &#10;</tspan><tspan x="5.58594" y="14.76">shop</tspan></text>
<rect id="Rectangle 2986" x="454.443" y="313.913" width="12" height="13" transform="rotate(23.5514 454.443 313.913)" fill="#73E553"/>
</g>
<g id="b1f1-eco-point">
<text id="title_10" transform="translate(415.195 313.769) rotate(21.4432)" fill="#172736" xml:space="preserve" style="white-space: pre" font-family="CoFo Weather 20240219" font-size="8" font-weight="500" letter-spacing="0em"><tspan x="4.04688" y="6.76">&#x42d;&#x43a;&#x43e; &#10;</tspan><tspan x="0.203125" y="14.76">&#x43f;&#x43e;&#x438;&#x43d;&#x442;</tspan></text>
<rect id="Rectangle 2987_2" x="428.541" y="301.769" width="12" height="13" transform="rotate(23.5514 428.541 301.769)" fill="#73E553"/>
</g>
<g id="b1f1-atm">
<rect id="Rectangle 2988" x="385.201" y="174.769" width="12" height="13" transform="rotate(31.8209 385.201 174.769)" fill="#475DEB" fill-opacity="0.8"/>
<text id="title_11" transform="translate(399.382 185.769) rotate(30.2384)" fill="#172736" xml:space="preserve" style="white-space: pre" font-family="CoFo Weather 20240219" font-size="10" font-weight="500" letter-spacing="0em"><tspan x="0.481354" y="8.45001">&#x411;&#x430;&#x43d;&#x43a;&#x43e;&#x43c;&#x430;&#x442;</tspan></text>
</g>
<g id="b1f1-batteries">
<text id="title_12" transform="translate(243.346 174.218) rotate(-50.8452)" fill="#172736" xml:space="preserve" style="white-space: pre" font-family="CoFo Weather 20240219" font-size="8" font-weight="500" letter-spacing="0em"><tspan x="10.7995" y="6.76">&#x423;&#x442;&#x438;&#x43b;&#x438;&#x437;&#x430;&#x446;&#x438;&#x44f; </tspan><tspan x="16.1042" y="14.76">&#x431;&#x430;&#x442;&#x430;&#x440;&#x435;&#x435;&#x43a;</tspan></text>
<circle id="Ellipse 39_2" cx="259.846" cy="142.269" r="4.5" fill="#73E553"/>
</g>
</g>
</svg>
