<svg width="1128" height="501" viewBox="0 0 1128 501" fill="none" xmlns="http://www.w3.org/2000/svg">
<g id="b1f11">
<g id="Ellipse 30">
<path d="M585.904 259.834L581.29 258.306L578.053 267.956L571.746 286.756L580.313 289.633L590.294 261.297L589.025 260.874L585.904 259.834Z" fill="white"/>
<path d="M245.602 185.228L263.779 164.819C264.146 164.408 264.11 163.777 263.7 163.409C257.101 157.479 250.597 151.445 244.19 145.31L224.938 164.44L245.602 185.228Z" fill="white"/>
<path fill-rule="evenodd" clip-rule="evenodd" d="M595.922 353.533L567.232 344.036L560.466 365.71L589.48 375.466L595.922 353.533Z" fill="white"/>
<path d="M567.232 344.036L595.922 353.533L589.48 375.466L560.466 365.71L567.232 344.036Z" fill="white"/>
<path d="M563.638 310.928C563.461 311.456 563.749 312.027 564.28 312.198L571.541 314.536L575.918 315.947L577.763 309.97C577.924 309.448 577.637 308.894 577.118 308.724L573.953 307.689L565.659 304.902L563.638 310.928Z" fill="white"/>
<path d="M594.864 294.52L580.313 289.633L573.953 307.689L577.118 308.724C577.637 308.894 577.924 309.448 577.763 309.97L575.918 315.947L586.342 319.304L594.864 294.52Z" fill="white"/>
<path d="M580.313 289.633L571.746 286.756L570.309 291.041L565.659 304.902L573.953 307.689L580.313 289.633Z" fill="white"/>
<path fill-rule="evenodd" clip-rule="evenodd" d="M424.526 129.299L382.092 192.937L378.593 198.184L417.722 225.011L460.361 152.137C448.174 144.874 436.224 137.257 424.526 129.299ZM185.859 1.1964C186.892 11.78 190.741 34.0768 197.91 39.2692C198.029 39.3553 198.165 39.4065 198.309 39.4306C207.867 41.0154 216.139 46.4068 221.515 53.9948L254.354 26.3496C254.58 26.1596 254.71 25.8796 254.71 25.5846V1.1964H220.369H185.859ZM571.746 286.756L557.399 281.938L555.812 286.756L570.309 291.041L571.746 286.756ZM185.851 114.401L170.069 97.8432C169.512 97.3284 168.969 96.7981 168.442 96.2528L185.851 114.401ZM434.741 253.114C435.011 252.633 434.84 252.024 434.36 251.753L410.077 238.077L381.599 223.121C381.118 222.868 380.524 223.046 380.26 223.521L368.526 244.635C368.262 245.11 368.426 245.709 368.895 245.984L420.595 276.261C421.078 276.544 421.699 276.375 421.972 275.887L433.068 256.098L434.741 253.114Z" fill="white"/>
<path fill-rule="evenodd" clip-rule="evenodd" d="M391.774 105.292C370.536 89.0613 350.244 71.6546 330.996 53.1693C320.507 43.0966 310.329 32.7036 300.476 22.0061C300.104 21.602 299.475 21.5729 299.068 21.9415L286.556 33.2638L258.154 1.5295C257.964 1.31754 257.693 1.1964 257.409 1.1964H254.71V25.5846C254.71 25.8796 254.58 26.1596 254.354 26.3496L221.515 53.9948C216.139 46.4068 207.867 41.0154 198.309 39.4306C198.165 39.4065 198.029 39.3553 197.91 39.2692C190.741 34.0768 186.892 11.78 185.859 1.1964H151.349H124.047H122.858H81.4805L2.00264 1.1964C1.23874 1.1964 0.756994 2.01798 1.13163 2.68371C23.9139 43.1677 50.5963 81.801 79.6229 118.301C83.2662 122.883 86.9465 127.431 90.6606 131.944C96.4748 139.01 102.372 145.992 108.34 152.888C112.8 158.041 117.299 163.147 121.834 168.203C125.243 171.85 128.683 175.47 132.154 179.062C132.183 179.092 132.213 179.123 132.242 179.153L188.483 127.766L193.88 122.823L208.72 109.232L207.251 107.751C207.004 107.502 206.645 107.401 206.303 107.48C203.408 108.143 200.394 108.494 197.298 108.494C186.789 108.494 177.223 104.454 170.069 97.8432L185.851 114.401L168.442 96.2528C168.969 96.7981 169.512 97.3284 170.069 97.8432C177.223 104.454 186.789 108.494 197.298 108.494C200.394 108.494 203.408 108.143 206.303 107.48C206.645 107.401 207.004 107.502 207.251 107.751L208.72 109.232L193.88 122.823L188.483 127.766L224.938 164.44L244.19 145.31C250.597 151.445 257.101 157.479 263.7 163.409C264.11 163.777 264.146 164.408 263.779 164.819L245.602 185.228L224.938 164.44L188.483 127.766L132.242 179.153C152.782 200.408 174.39 220.725 196.987 240.258C219.581 259.79 242.982 278.38 266.978 296.158C288.656 312.219 311.047 327.373 334.094 341.563C352.151 352.681 370.611 363.208 389.447 373.116C396.688 376.926 403.986 380.644 411.337 384.269C436.276 396.567 461.837 407.796 487.959 417.895C488.816 418.226 489.674 418.557 490.532 418.885C500.099 422.552 509.741 426.067 519.454 429.428C536.444 435.306 553.653 440.712 571.067 445.631C597.485 453.093 624.373 459.434 651.677 464.598C666.013 467.309 680.464 469.697 695.022 471.752C737.407 477.734 780.697 480.901 824.697 481.056C825.827 481.06 826.957 481.062 828.088 481.062H910.339H944.925H994.641H1084.57C1085.12 481.062 1085.57 480.614 1085.57 480.062V381.018H1105.23C1115.07 381.018 1126.05 374.292 1126.05 363.511V333.449C1126.05 332.896 1125.6 332.449 1125.05 332.449H1107.21C1106.65 332.449 1106.21 332.001 1106.21 331.449V265.725C1106.21 265.173 1105.76 264.725 1105.21 264.725H1062.21H998.807V253.078C998.807 252.526 998.359 252.078 997.807 252.078H866.207H853.667H841.128H825.763L825.351 252.079C825.133 252.079 824.915 252.079 824.697 252.079C824.342 252.079 823.987 252.079 823.632 252.078C802.417 252.047 781.415 251.09 760.664 249.245C759.708 249.16 758.752 249.073 757.797 248.984C752.62 248.502 747.459 247.966 742.314 247.374C726.378 245.542 710.6 243.185 694.999 240.321C673.393 236.354 652.125 231.413 631.245 225.546C610.078 219.598 589.309 212.698 568.99 204.894L557.399 235.114L581.468 242.772C582.009 242.944 582.298 243.532 582.105 244.065L577.761 256.054C577.569 256.583 577.852 257.167 578.387 257.344L581.29 258.306L585.904 259.834L589.025 260.874L590.294 261.297L580.313 289.633L594.864 294.52L586.342 319.304L575.918 315.947L571.541 314.536L564.28 312.198C563.749 312.027 563.461 311.456 563.638 310.928L565.659 304.902L570.309 291.041L555.812 286.756L557.399 281.938L571.746 286.756L578.053 267.956L581.29 258.306L578.387 257.344C577.852 257.167 577.569 256.583 577.761 256.054L582.105 244.065C582.298 243.532 582.009 242.944 581.468 242.772L557.399 235.114L568.99 204.894C556.106 199.946 543.403 194.634 530.894 188.972C523.368 185.565 515.912 182.031 508.53 178.373C505.069 176.658 501.623 174.916 498.195 173.147C485.349 166.518 472.733 159.51 460.361 152.137L417.722 225.011L410.077 238.077L434.36 251.753C434.84 252.024 435.011 252.633 434.741 253.114L433.068 256.098L421.972 275.887C421.699 276.375 421.078 276.544 420.595 276.261L368.895 245.984C368.426 245.709 368.262 245.11 368.526 244.635L380.26 223.521C380.524 223.046 381.118 222.868 381.599 223.121L410.077 238.077L417.722 225.011L378.593 198.184L382.092 192.937L424.526 129.299C416.063 123.542 407.731 117.606 399.536 111.498L391.774 105.292ZM595.922 353.533L567.232 344.036L560.466 365.71L589.48 375.466L595.922 353.533Z" fill="white"/>
<path d="M266.978 296.158C288.656 312.219 311.047 327.373 334.094 341.563M266.978 296.158C242.982 278.38 219.581 259.79 196.987 240.258M266.978 296.158L301.949 248.729M998.807 264.725H1062.21M998.807 264.725L994.641 265.842M998.807 264.725V253.078M286.556 33.2638L245.602 72.5025L236.498 81.2254M286.556 33.2638L299.068 21.9415M286.556 33.2638L258.154 1.5295C257.964 1.31754 257.693 1.1964 257.409 1.1964H254.71M330.996 53.1693C350.244 71.6546 370.536 89.0613 391.774 105.292L399.536 111.498M330.996 53.1693L261.98 129.51M330.996 53.1693C320.507 43.0966 310.329 32.7036 300.476 22.0061M123.917 1.00011C123.96 1.06555 124.004 1.13098 124.047 1.1964M224.938 92.3012L237.537 105.498M224.938 92.3012L236.498 81.2254M224.938 92.3012L224.403 91.7093C224.121 91.3974 224.065 90.9432 224.255 90.5677C226.682 85.7545 228.049 80.3152 228.049 74.5566C228.049 74.0588 228.039 73.5633 228.018 73.0704M370.962 215.931C369.99 215.287 369.02 214.641 368.051 213.993M339.522 194.018L315.638 175.649M339.522 194.018L354.492 173.434M339.522 194.018C342.971 196.544 346.441 199.044 349.931 201.517M399.536 111.498C407.731 117.606 416.063 123.542 424.526 129.299M399.536 111.498L354.492 173.434M188.483 127.766L224.938 164.44M188.483 127.766C188.483 127.766 190.698 125.736 193.88 122.823M188.483 127.766L193.88 122.823M188.483 127.766L132.242 179.153M1085.57 381.018H1105.23C1115.07 381.018 1126.05 374.292 1126.05 363.511V333.449M1085.57 381.018H1057.23C1056.69 381.018 1056.25 380.592 1056.23 380.055L1056.18 378.812C1056.16 378.274 1055.72 377.849 1055.18 377.849H1029.42M1085.57 381.018V480.062M196.987 240.258C174.39 220.725 152.782 200.408 132.242 179.153M196.987 240.258L236.498 196.519M245.602 185.228L263.779 164.819C264.146 164.408 264.11 163.777 263.7 163.409C257.101 157.479 250.597 151.445 244.19 145.31M245.602 185.228L224.938 164.44M245.602 185.228L242.645 189.003M244.19 145.31L224.938 164.44M244.19 145.31C243.008 144.178 241.829 143.043 240.654 141.904M825.763 252.078L825.351 252.079M825.763 252.078C825.626 252.079 825.488 252.079 825.351 252.079M825.763 252.078H841.128H853.667M234.805 136.181C225.911 127.394 217.214 118.408 208.72 109.232M261.98 129.51C270.216 137.269 278.613 144.857 287.167 152.271M261.98 129.51C259.093 126.79 256.226 124.049 253.379 121.288M245.602 113.816L256.243 102.118C256.604 101.722 256.588 101.111 256.207 100.734L236.498 81.2254M245.602 113.816L243.768 111.73M245.602 113.816L247.173 115.387M334.094 341.563C352.151 352.681 370.611 363.208 389.447 373.116M334.094 341.563L369.757 281.554M368.051 213.993C364.798 211.818 361.562 209.619 358.342 207.398M368.051 213.993L378.593 198.184M424.526 129.299L382.092 192.937M424.526 129.299C436.224 137.257 448.174 144.874 460.361 152.137M382.092 192.937L373.35 186.76M382.092 192.937L378.593 198.184M354.492 173.434L364.608 180.583M487.959 417.895C461.837 407.796 436.276 396.567 411.337 384.269C403.986 380.644 396.688 376.926 389.447 373.116M487.959 417.895C488.816 418.226 489.674 418.557 490.532 418.885C500.099 422.552 509.741 426.067 519.454 429.428M487.959 417.895L500.956 384.176M524.648 322.71L522.668 327.847M524.648 322.71L537.882 326.763M524.648 322.71C512.302 318.018 500.066 313.028 487.959 307.75C476.796 302.884 465.74 297.772 454.802 292.42M532.962 299.825L541.419 276.776M532.962 299.825L536.354 301.413M532.962 299.825C523.223 296.155 513.573 292.252 504.012 288.142M568.99 204.894C589.309 212.698 610.078 219.598 631.245 225.546M568.99 204.894L557.399 235.114M568.99 204.894C556.106 199.946 543.403 194.634 530.894 188.972M569.409 443.805L580.653 405.523M580.653 405.523L551.889 396.547C551.361 396.382 551.067 395.822 551.232 395.294L557.002 376.808M580.653 405.523L589.48 375.466M567.232 344.036L569.12 337.985C569.281 337.47 569.82 337.175 570.34 337.319C572.434 337.901 577.423 339.291 578.652 339.671M567.232 344.036L595.922 353.533M567.232 344.036L560.466 365.71M595.922 353.533L589.48 375.466M595.922 353.533L597.661 347.615M589.48 375.466L560.466 365.71M560.466 365.71L559.488 368.845M519.454 429.428C536.444 435.306 553.653 440.712 571.067 445.631C597.485 453.093 624.373 459.434 651.677 464.598M519.454 429.428L527.877 403.944M522.668 327.847L549.982 337.061M522.668 327.847L513.953 350.458M549.982 337.061L551.64 332.044C551.816 331.511 551.519 330.938 550.983 330.774L547.461 329.696M549.982 337.061L547.461 344.687M542.437 359.889L513.953 350.458M542.437 359.889L535.036 382.281M542.437 359.889L544.941 352.313M513.953 350.458L500.956 384.176M530.946 394.658L500.956 384.176M530.946 394.658L530.42 396.249L531.805 392.056L530.946 394.658ZM590.294 343.525L597.206 345.665C597.728 345.826 598.024 346.377 597.87 346.902L597.661 347.615M631.245 225.546L624.706 249.495L618.939 269.864M631.245 225.546C652.125 231.413 673.393 236.354 694.999 240.321C710.6 243.185 726.378 245.542 742.314 247.374C747.459 247.966 752.62 248.502 757.797 248.984M581.29 258.306L585.904 259.834L589.025 260.874M581.29 258.306L578.387 257.344C577.852 257.167 577.569 256.583 577.761 256.054L582.105 244.065C582.298 243.532 582.009 242.944 581.468 242.772L557.399 235.114M581.29 258.306L578.053 267.956M590.294 261.297L580.313 289.633M590.294 261.297L589.025 260.874M590.294 261.297L591.689 261.83M553.724 280.704L557.399 281.938M598.148 295.623L594.864 294.52M544.941 305.968L548.742 307.193M590.294 320.577L586.342 319.304M552.892 295.623L555.812 286.756M557.399 281.938L571.746 286.756M557.399 281.938L555.812 286.756M550.227 302.717L548.742 307.193M548.742 307.193L575.918 315.947M541.419 276.776L545.321 278.247M541.419 276.776L548.633 257.966M594.864 294.52L580.313 289.633M594.864 294.52L586.342 319.304M585.904 320.577L586.342 319.304M824.697 481.056C825.827 481.06 826.957 481.062 828.088 481.062H910.339M824.697 481.056C780.697 480.901 737.407 477.734 695.022 471.752M824.697 481.056V444.013M964.823 377.659H927.813M927.813 377.659V404.202C927.813 404.754 928.261 405.202 928.813 405.202H966.823H993.641C994.194 405.202 994.641 404.754 994.641 404.202V377.849M927.813 377.659H923.794M994.641 377.849H998.807M994.641 377.849V436.028V481.062M994.641 481.062H1084.57M994.641 481.062H944.925H910.339M974.754 377.849H998.807M998.807 377.849H1010.15H1018.74M1021.68 352.947H1062.21M1065.37 352.947H1062.21M1062.21 352.947V264.725M1062.21 264.725H1105.21M994.641 265.842V352.947M994.641 265.842H967.823C967.271 265.842 966.823 266.289 966.823 266.842V352.947M994.641 352.947H1008.52M994.641 352.947H985.884M973.514 352.947H966.823M966.823 352.947H908.717C908.164 352.947 907.717 353.395 907.717 353.947V354.842C907.717 355.394 907.269 355.842 906.717 355.842H902.139M121.834 168.203C117.299 163.147 112.8 158.041 108.34 152.888M121.834 168.203C125.243 171.85 128.683 175.47 132.154 179.062M121.834 168.203C125.149 171.9 128.783 175.574 132.154 179.062M124.047 1.1964H151.349H185.859M124.047 1.1964H122.858M299.068 21.9415C299.475 21.5729 300.104 21.602 300.476 22.0061M299.068 21.9415C299.475 21.5729 300.104 21.602 300.476 22.0061M825.351 252.079C825.133 252.079 824.915 252.079 824.697 252.079C824.342 252.079 823.987 252.079 823.632 252.078C802.417 252.047 781.415 251.09 760.664 249.245C759.708 249.16 758.752 249.073 757.797 248.984M997.807 252.078C998.359 252.078 998.807 252.526 998.807 253.078M997.807 252.078H866.207H853.667M997.807 252.078C998.359 252.078 998.807 252.526 998.807 253.078M1105.21 264.725C1105.76 264.725 1106.21 265.173 1106.21 265.725M1105.21 264.725C1105.76 264.725 1106.21 265.173 1106.21 265.725M1106.21 265.725V331.449M1106.21 331.449C1106.21 332.001 1106.65 332.449 1107.21 332.449M1106.21 331.449C1106.21 332.001 1106.65 332.449 1107.21 332.449M1107.21 332.449H1125.05M1125.05 332.449C1125.6 332.449 1126.05 332.896 1126.05 333.449M1125.05 332.449C1125.6 332.449 1126.05 332.896 1126.05 333.449M1085.57 480.062C1085.57 480.614 1085.12 481.062 1084.57 481.062M1085.57 480.062C1085.57 480.614 1085.12 481.062 1084.57 481.062M236.498 196.519L238.345 198.006M236.498 196.519L237.754 195.112M310.678 236.89L307.964 240.571M819.854 355.583L853.667 355.842M1075.11 352.947H1102.79M245.602 203.852L301.949 248.729M580.313 289.633L571.746 286.756M580.313 289.633L573.953 307.689M586.342 319.304L575.918 315.947M571.746 286.756L578.053 267.956M571.746 286.756L570.309 291.041M132.242 179.153C132.213 179.123 132.183 179.092 132.154 179.062M597.661 347.615L602.498 348.858M819.854 376.708L823.726 376.82C824.267 376.836 824.697 377.279 824.697 377.82V378.425C824.697 378.977 825.145 379.425 825.697 379.425H844.317C844.869 379.425 845.317 378.977 845.317 378.425V377.849C845.317 377.296 845.764 376.849 846.317 376.849H876.432H886.496H888.533M884.749 355.842H866.207H853.667M916.449 377.659H910.339M910.339 377.659V436.028V481.062M910.339 377.659C910.339 377.134 909.913 376.708 909.388 376.708H902.565M709.73 367.694L704.656 403.594L704.241 406.525L695.022 471.752M709.73 367.694L687.102 364.616M709.73 367.694L728.28 369.644M695.022 471.752C680.464 469.697 666.013 467.309 651.677 464.598M748.452 371.764L807.708 375.164M748.452 371.764L742.126 371.099M748.452 371.764L747.136 386.234M731.956 370.03L728.28 369.644M557.399 235.114L548.633 257.966M589.025 260.874L593.914 246.081M599.625 264.194L618.939 269.864M618.939 269.864L610.741 298.823M578.053 267.956L560.03 261.83M551.831 259.249L548.633 257.966M555.812 286.756L570.309 291.041M570.309 291.041L565.659 304.902M573.953 307.689L577.118 308.724C577.637 308.894 577.924 309.448 577.763 309.97L575.918 315.947M573.953 307.689L565.659 304.902M575.918 315.947L571.541 314.536L564.28 312.198C563.749 312.027 563.461 311.456 563.638 310.928L565.659 304.902M606.815 297.608L610.741 298.823M610.741 298.823L603.978 322.71M598.148 322.71L602.622 323.893C603.149 324.033 603.691 323.724 603.84 323.199L603.978 322.71M301.949 248.729L307.964 240.571M482.062 320.577L475.55 335.505M447.726 399.277L475.55 335.505M475.55 335.505L434.234 315.787M424.186 311.108L421.474 309.635M369.757 281.554L342.826 263.692M369.757 281.554L382.092 288.251M307.964 240.571L334.094 257.901M421.474 309.635L389.447 373.116M421.474 309.635L390.85 293.007M460.361 152.137L417.722 225.011M460.361 152.137C472.733 159.51 485.349 166.518 498.195 173.147M409.146 239.667L410.077 238.077M417.722 225.011L378.593 198.184M417.722 225.011L410.077 238.077M410.077 238.077L381.599 223.121C381.118 222.868 380.524 223.046 380.26 223.521L368.526 244.635C368.262 245.11 368.426 245.709 368.895 245.984L420.595 276.261C421.078 276.544 421.699 276.375 421.972 275.887L433.068 256.098M410.077 238.077L434.36 251.753C434.84 252.024 435.011 252.633 434.741 253.114L433.068 256.098M433.068 256.098L436.375 257.911M498.195 173.147C501.623 174.916 505.069 176.658 508.53 178.373C515.912 182.031 523.368 185.565 530.894 188.972M498.195 173.147L448.497 264.775M448.497 264.775L445.658 263.545M448.497 264.775L463.744 273.026C464.214 273.281 464.802 273.12 465.077 272.661L465.54 271.89C465.804 271.45 466.358 271.281 466.822 271.499L476.699 276.131M530.894 188.972L490.668 281.938M490.668 281.938L493.544 282.971M490.668 281.938L487.664 280.728M208.72 109.232L207.251 107.751C207.004 107.502 206.645 107.401 206.303 107.48C203.408 108.143 200.394 108.494 197.298 108.494C186.789 108.494 177.223 104.454 170.069 97.8432M208.72 109.232C204.022 113.535 198.101 118.957 193.88 122.823M208.72 109.232L193.88 122.823M226.91 65.5873C225.815 61.3684 223.966 57.4534 221.515 53.9948M185.859 1.1964H220.369H254.71M185.859 1.1964C186.892 11.78 190.741 34.0768 197.91 39.2692C198.029 39.3553 198.165 39.4065 198.309 39.4306C207.867 41.0154 216.139 46.4068 221.515 53.9948M159.429 55.0414C157.963 59.2094 157.166 63.6924 157.166 68.3616C157.166 79.1984 161.461 89.032 168.442 96.2528M159.429 55.0414C161.599 39.3947 155.639 35.5208 150.175 32.8719M159.429 55.0414L122.871 84.0202M142.394 28.8985C128.818 20.4551 124.183 10.7445 122.858 1.1964M122.858 1.1964H81.4805L2.00264 1.1964C1.23874 1.1964 0.756994 2.01798 1.13163 2.68371C23.9139 43.1677 50.5963 81.801 79.6229 118.301M193.88 122.823L190.661 119.446M170.069 97.8432L185.851 114.401L168.442 96.2528M170.069 97.8432C169.512 97.3284 168.969 96.7981 168.442 96.2528M168.442 96.2528L152.971 110.831M108.34 152.888C102.372 145.992 96.4748 139.01 90.6606 131.944C86.9465 127.431 83.2662 122.883 79.6229 118.301M108.34 152.888L122.871 139.196M131.144 131.4L152.971 110.831M152.971 110.831C149.439 107.35 145.894 101.741 145.673 100.966M79.6229 118.301L83.9862 114.843M90.1313 109.972L122.871 84.0202M122.871 84.0202C135.232 81.1352 139.242 89.3463 142.012 93.3362M221.515 53.9948L254.354 26.3496C254.58 26.1596 254.71 25.8796 254.71 25.5846V1.1964M603.978 322.71L633.773 329.696M644.099 332.139L678.106 339.837M613.065 351.317L671.493 363.841M671.493 363.841L651.677 464.598M671.493 363.841L675.323 364.616M738.999 475.677L747.136 386.234M748.452 351.561L728.28 348.807L690.921 343.765M748.452 351.561L757.797 248.984M748.452 351.561L807.17 354.869M853.667 252.078V355.842M728.28 369.644L727.102 382.994C727.055 383.522 727.43 383.996 727.955 384.071L731.956 384.647M742.126 385.714L747.136 386.234M820.892 499.354C820.467 499.355 821.317 499.354 820.892 499.354Z" stroke="#BFC4C8" stroke-width="2" stroke-linecap="round" stroke-linejoin="round"/>
</g>
<g id="b1f11-r">
<text id="title" transform="translate(310.514 198.121) rotate(33.2647)" fill="#172736" style="white-space: pre" xml:space="preserve" font-family="CoFo Weather 20240219" font-size="8" font-weight="500" letter-spacing="0em"><tspan x="16.8698" y="6.76">&#x420;&#x435;&#x441;&#x435;&#x43f;&#x448;&#x43d;</tspan></text>
<path id="Line 16" d="M366.903 223.706C366.903 223.706 356.39 221.779 346.879 214.851C337.367 207.924 332.131 198.489 332.131 198.489" stroke="#475DEB" stroke-width="2"/>
</g>
<text id="title_2" fill="#172736" style="white-space: pre" xml:space="preserve" font-family="CoFo Weather 20240219" font-size="10" font-weight="500" letter-spacing="0em"><tspan x="1007.51" y="304.973">&#x41b;&#x438;&#x444;&#x442;&#x43e;&#x432;&#x43e;&#x439;&#10;</tspan><tspan x="1016.88" y="314.973">&#x445;&#x43e;&#x43b;&#x43b; 2</tspan></text>
<g id="b1f11-paper">
<text id="title_3" transform="translate(259.087 156.392) rotate(-48.8097)" fill="#172736" style="white-space: pre" xml:space="preserve" font-family="CoFo Weather 20240219" font-size="8" font-weight="500" letter-spacing="0em"><tspan x="10.7995" y="6.76">&#x423;&#x442;&#x438;&#x43b;&#x438;&#x437;&#x430;&#x446;&#x438;&#x44f; </tspan><tspan x="20.2448" y="14.76">&#x431;&#x443;&#x43c;&#x430;&#x433;&#x438;</tspan></text>
<path id="Ellipse 40" d="M283.087 126.023C283.087 128.508 281.072 130.523 278.587 130.523C276.102 130.523 274.087 128.508 274.087 126.023C274.087 123.537 276.102 121.523 278.587 121.523C281.072 121.523 283.087 123.537 283.087 126.023Z" fill="#73E553"/>
</g>
<text id="title_4" fill="#172736" style="white-space: pre" xml:space="preserve" font-family="CoFo Weather 20240219" font-size="10" font-weight="500" letter-spacing="0em"><tspan x="314.509" y="103.973">&#x41b;&#x438;&#x444;&#x442;&#x43e;&#x432;&#x43e;&#x439;&#10;</tspan><tspan x="325.1" y="113.973">&#x445;&#x43e;&#x43b;&#x43b; 1</tspan></text>
<g id="b1f11-k">
<path id="Ellipse 36" d="M550.216 396.124L579.004 405.107C579.522 405.269 579.816 405.814 579.668 406.336L569.424 442.252C569.273 442.783 568.717 443.09 568.186 442.939C552.184 438.374 539.374 434.488 523.736 429.099C523.22 428.921 522.94 428.361 523.11 427.842L534.205 393.999C534.361 393.522 534.847 393.235 535.34 393.328L550.216 396.124Z" fill="#FFEDD6" stroke="#FFCF94" stroke-width="2.00001" stroke-linejoin="round"/>
<text id="title_5" fill="#172736" style="white-space: pre" xml:space="preserve" font-family="CoFo Weather 20240219" font-size="5.62502" font-weight="500" letter-spacing="0em"><tspan x="532.149" y="421.441">&#x41c;&#x438;&#x43d;&#x438;-&#x43a;&#x443;&#x445;&#x43d;&#x44f;</tspan></text>
</g>
<g id="b1f11-1102">
<g id="Ellipse 31">
<path d="M225.747 163.708L189.341 127.039C188.964 126.659 188.354 126.643 187.958 127.004L131.569 178.351C151.883 199.372 174.686 220.826 197.044 240.191C197.458 240.549 198.083 240.507 198.446 240.096L246.335 185.948C246.683 185.554 246.667 184.959 246.299 184.584L225.747 163.708Z" fill="#33D18F" fill-opacity="0.2"/>
<path d="M131.569 178.351C131.54 178.321 132.183 179.092 132.154 179.062M131.569 178.351L187.958 127.004C188.354 126.643 188.964 126.659 189.341 127.039L225.747 163.708L246.299 184.584C246.667 184.959 246.683 185.554 246.335 185.948L198.446 240.096C198.083 240.507 197.458 240.549 197.044 240.191C174.686 220.826 151.883 199.372 131.569 178.351Z" stroke="#33D18F" stroke-opacity="0.2" stroke-width="2.00001" stroke-linejoin="round"/>
</g>
<text id="title_6" fill="#172736" style="white-space: pre" xml:space="preserve" font-family="CoFo Weather 20240219" font-size="7.50003" font-weight="500" letter-spacing="0em"><tspan x="163.538" y="189.321">&#x41f;&#x435;&#x440;&#x435;&#x433;&#x43e;&#x432;&#x43e;&#x440;&#x43a;&#x430;</tspan></text>
<g id="n">
<rect x="180.662" y="170.804" width="17.5" height="9" rx="2.25" fill="#33D18F" fill-opacity="0.2"/>
<text id="1102" fill="#172736" style="white-space: pre" xml:space="preserve" font-family="CoFo Weather 20240219" font-size="6" font-weight="500" letter-spacing="0.02em"><tspan x="183.097" y="177.374">1102</tspan></text>
</g>
</g>
<g id="b1f11-1104">
<path id="Ellipse 32" d="M235.784 195.83L196.909 238.85C196.533 239.266 196.572 239.909 196.996 240.276C219.133 259.374 243.472 278.733 266.948 296.155C267.392 296.484 268.018 296.39 268.346 295.945L302.78 249.338C303.099 248.906 303.02 248.298 302.599 247.963L237.15 195.719C236.737 195.39 236.139 195.438 235.784 195.83Z" fill="#33D18F" fill-opacity="0.2" stroke="#33D18F" stroke-opacity="0.2" stroke-width="2.00001" stroke-linejoin="round"/>
<text id="title_7" fill="#172736" style="white-space: pre" xml:space="preserve" font-family="CoFo Weather 20240219" font-size="7.50003" font-weight="500" letter-spacing="0em"><tspan x="224.538" y="250.321">&#x41f;&#x435;&#x440;&#x435;&#x433;&#x43e;&#x432;&#x43e;&#x440;&#x43a;&#x430;</tspan></text>
<g id="n_2">
<rect x="241.662" y="231.804" width="17.5" height="9" rx="2.25" fill="#33D18F" fill-opacity="0.2"/>
<text id="1104" fill="#172736" style="white-space: pre" xml:space="preserve" font-family="CoFo Weather 20240219" font-size="6" font-weight="500" letter-spacing="0.02em"><tspan x="244.007" y="238.374">1104</tspan></text>
</g>
</g>
</g>
</svg>
