<svg width="1095" height="503" viewBox="0 0 1095 503" fill="none" xmlns="http://www.w3.org/2000/svg">
<g id="b1f2">
<g id="map-otl">
<path d="M558.199 373.235C584.653 380.567 610.461 386.312 637.868 391.129L642.826 364.84C616.912 360.302 591.409 354.074 566.377 347.19C565.843 347.043 565.293 347.357 565.146 347.89L558.199 373.235Z" fill="white"/>
<path d="M261.254 258.831C252.534 267.137 240.761 270.959 226.277 270.959C217.55 270.959 209.315 268.851 202.054 265.116C201.411 264.785 200.777 264.442 200.15 264.087L149.919 326.44C164.238 334.851 178.738 342.988 193.412 350.842L261.254 258.831Z" fill="white"/>
<path d="M836.17 216.731H871.669C872.221 216.731 872.669 217.179 872.669 217.731V239.822H836.17V216.731Z" fill="white"/>
<path d="M965.562 163.803C965.562 163.251 965.115 162.803 964.562 162.803L934.376 163.311V267.838H966.562V265.234L966.11 265.004C965.774 264.834 965.562 264.489 965.562 264.113V263.726V163.803Z" fill="white"/>
<path fill-rule="evenodd" clip-rule="evenodd" d="M872.669 217.731C872.669 217.179 872.221 216.731 871.669 216.731H836.17V239.822H872.669V217.731Z" fill="white"/>
<path d="M883.083 404.711C883.083 405.263 883.531 405.711 884.083 405.711H896.518V378.281H883.083V404.711Z" fill="white"/>
<path fill-rule="evenodd" clip-rule="evenodd" d="M872.669 217.731C872.669 217.179 872.221 216.731 871.669 216.731H836.17V239.822H872.669V217.731Z" fill="white"/>
<path fill-rule="evenodd" clip-rule="evenodd" d="M872.669 217.731C872.669 217.179 872.221 216.731 871.669 216.731H836.17V239.822H872.669V217.731Z" fill="white"/>
<path fill-rule="evenodd" clip-rule="evenodd" d="M872.669 217.731C872.669 217.179 872.221 216.731 871.669 216.731H836.17V239.822H872.669V217.731Z" fill="white"/>
<path fill-rule="evenodd" clip-rule="evenodd" d="M872.669 217.731C872.669 217.179 872.221 216.731 871.669 216.731H836.17V239.822H872.669V217.731Z" fill="white"/>
<path fill-rule="evenodd" clip-rule="evenodd" d="M872.669 217.731C872.669 217.179 872.221 216.731 871.669 216.731H836.17V239.822H872.669V217.731Z" fill="white"/>
<path d="M554.314 269.836L550.257 268.553L545.904 267.214L535.86 298.434L532.367 309.291C532.199 309.814 532.484 310.375 533.007 310.547C536.414 311.663 539.831 312.758 543.257 313.83C543.772 313.991 544.322 313.714 544.499 313.205L548.305 302.268L545.115 301.179C544.597 301.002 544.318 300.442 544.488 299.922L554.314 269.836Z" fill="white"/>
<path d="M487.726 282.374C487.933 281.871 488.504 281.626 489.011 281.822L506.688 288.652L516.608 263.009L482.849 248.953C482.349 248.745 481.774 248.973 481.552 249.467L478.295 256.721L468.554 278.748C468.335 279.245 467.758 279.476 467.257 279.267L434.852 265.823L432.556 270.495C449.241 278.571 466.244 285.586 483.541 292.531L487.726 282.374Z" fill="white"/>
<path d="M434.852 265.823L467.257 279.267C467.758 279.476 468.335 279.245 468.554 278.748L478.295 256.721L464.43 250.371L446.484 242.15L434.852 265.823Z" fill="white"/>
<path d="M446.484 242.15L464.43 250.371L471.382 235.912L453.761 227.342L446.484 242.15Z" fill="white"/>
<path d="M478.793 220.499L461.038 212.534L453.761 227.342L471.382 235.912L478.793 220.499Z" fill="white"/>
<path d="M472.791 188.616L461.038 212.534L478.793 220.499L498.317 228.594C498.823 228.804 499.404 228.567 499.619 228.063L508.984 206.123L472.791 188.616Z" fill="white"/>
<path d="M27.8246 243.326C27.3586 243.746 27.3902 244.487 27.8908 244.865C54.457 264.951 81.8433 284.008 109.991 301.979C123.136 310.371 136.447 318.527 149.919 326.44L200.15 264.087C200.777 264.442 201.411 264.785 202.054 265.116C209.315 268.851 217.55 270.959 226.277 270.959C240.761 270.959 252.534 267.137 261.254 258.831L193.412 350.842C246.309 379.157 301.46 403.809 358.527 424.459C386.785 434.685 415.512 443.929 444.668 452.151C472.779 460.079 501.288 467.564 530.159 473.554L558.199 373.235L565.146 347.89C565.293 347.357 565.843 347.043 566.377 347.19C591.409 354.074 616.912 360.302 642.826 364.84L647.601 339.524C622.07 335.129 596.946 329.545 572.288 322.83L575.402 311.687L584.192 280.241L595.1 241.214L601.909 216.856L575.026 208.181L570.627 206.761L550.257 268.553L554.314 269.836L544.488 299.922C544.318 300.442 544.597 301.002 545.115 301.179L548.305 302.268L544.499 313.205C544.322 313.714 543.772 313.991 543.257 313.83C539.831 312.758 536.414 311.663 533.007 310.547C532.484 310.375 532.199 309.814 532.367 309.291L535.86 298.434L545.904 267.214L550.257 268.553L570.627 206.761L558.526 202.856L541.701 196.856L533.786 217.722L518.114 259.039L516.608 263.009L506.688 288.652L489.011 281.822C488.504 281.626 487.933 281.871 487.726 282.374L483.541 292.531C466.244 285.586 449.241 278.571 432.556 270.495C399.646 254.567 367.971 236.488 337.715 216.439L352.918 193.634L379.279 154.09L393.498 131.994C393.791 131.538 393.668 130.931 393.22 130.626L366.201 112.237L358.527 105.8C337.289 89.5694 316.997 71.6549 297.748 53.1695C287.26 43.0968 277.081 32.7037 267.228 22.0062C266.856 21.6021 266.228 21.573 265.82 21.9416L253.308 33.2639L224.906 1.5295C224.717 1.31754 224.446 1.19639 224.161 1.19639H118.101C132.409 21.7674 147.641 41.6468 163.739 60.7741C167.113 64.7826 175.134 74.672 179.748 80.1091L181.513 82.1583C181.012 81.5893 180.416 80.8958 179.748 80.1091C175.134 74.672 167.113 64.7826 163.739 60.7741C147.641 41.6468 132.409 21.7674 118.101 1.19639H90.7985H48.5265C48.3344 1.19639 48.1463 1.25178 47.9848 1.35587L1.45845 31.3427C0.999126 31.6388 0.862456 32.2488 1.15209 32.7121C7.94173 43.5749 14.9497 54.2872 22.1698 64.8429C47.9473 102.529 76.4292 138.219 107.336 171.633L92.3061 185.185L27.8246 243.326Z" fill="white"/>
<path fill-rule="evenodd" clip-rule="evenodd" d="M637.868 391.129C610.461 386.312 584.653 380.567 558.199 373.235L530.159 473.554C559.562 479.654 589.34 484.731 619.454 488.745C624.499 489.417 629.553 490.06 634.616 490.672C635.154 490.737 635.692 490.802 636.23 490.866L636.673 490.919C686.174 496.825 736.555 499.864 787.646 499.864L1009.24 499.864V452.788V405.711H979.116H962.221H896.518H884.083C883.531 405.711 883.083 405.263 883.083 404.711V378.281H896.518V405.711H962.221H979.116H1009.24V452.788V499.864L1071.96 499.865C1072.51 499.865 1072.96 499.417 1072.96 498.865V381.931C1082.42 381.931 1093.78 375.59 1093.78 364.462V333.958C1093.78 333.405 1093.33 332.958 1092.78 332.958H1073.96C1073.41 332.958 1072.96 332.51 1072.96 331.958V266.234C1072.96 265.682 1072.51 265.234 1071.96 265.234H966.562V267.838H934.376V163.311H903.693H794.815H787.591C760.455 163.311 733.706 161.566 707.456 158.181C699.089 157.102 690.773 155.857 682.511 154.448C662.343 151.01 642.5 146.599 623.036 141.267C604.803 136.271 586.902 130.467 569.378 123.894C551.014 117.007 533.064 109.276 515.579 100.748C478.434 82.6334 443.388 60.9255 410.929 36.0785C410.484 35.7376 409.845 35.8286 409.513 36.2809L358.527 105.8L366.201 112.237L393.22 130.626C393.668 130.931 393.791 131.538 393.498 131.994L379.279 154.09L352.918 193.634L337.715 216.439C367.971 236.488 399.646 254.567 432.556 270.495L434.852 265.823L446.484 242.15L453.761 227.342L461.038 212.534L472.791 188.616L508.984 206.123L499.619 228.063C499.404 228.567 498.823 228.804 498.317 228.594L478.793 220.499L471.382 235.912L464.43 250.371L478.295 256.721L481.552 249.467C481.774 248.973 482.349 248.745 482.849 248.953L516.608 263.009L518.114 259.039L533.786 217.722L541.701 196.856L558.526 202.856L570.627 206.761L575.026 208.181L601.909 216.856L595.1 241.214L584.192 280.241L575.402 311.687L572.288 322.83C596.946 329.545 622.07 335.129 647.601 339.524L642.826 364.84L637.868 391.129ZM872.669 217.731C872.669 217.179 872.221 216.731 871.669 216.731H836.17V239.822H872.669V217.731Z" fill="white"/>
<path d="M637.868 391.129C610.461 386.312 584.653 380.567 558.199 373.235M637.868 391.129L642.826 364.84M637.868 391.129C633.166 416.051 629.816 433.308 626.05 453.273M558.199 373.235L565.146 347.89C565.293 347.357 565.843 347.043 566.377 347.19C591.409 354.074 616.912 360.302 642.826 364.84M558.199 373.235L530.159 473.554M191.69 92.3015L188.686 89.1197M191.69 92.3015C195.841 96.7472 200.041 101.146 204.289 105.498M191.69 92.3015L203.305 81.1729M163.739 60.7741L184.343 42.8901C184.754 42.5328 185.376 42.5709 185.741 42.9758L201.207 60.1345M163.739 60.7741C147.641 41.6468 132.409 21.7674 118.101 1.19639M163.739 60.7741C167.113 64.7826 175.134 74.672 179.748 80.1091M212.354 72.5027L253.308 33.2639M212.354 72.5027L210.52 70.4678M212.354 72.5027L203.305 81.1729M196.857 131.501C189.593 124.21 182.464 116.786 175.473 109.232M175.473 109.232L155.235 127.766M175.473 109.232C168.103 101.27 160.887 93.163 153.829 84.917M96.6818 10.0023C94.7026 7.08015 92.7415 4.1448 90.7985 1.19639M96.6818 10.0023C99.6857 14.4374 102.731 18.8421 105.818 23.2158M96.6818 10.0023L37.7832 53.3515M155.235 127.766L199.533 171.633M155.235 127.766L124.225 156.166M199.533 171.633L179.516 192.045M199.533 171.633L209.766 181.865C210.174 182.274 210.843 182.252 211.224 181.818L228.082 162.6C228.443 162.189 228.407 161.565 228.002 161.198C224.744 158.248 221.51 155.272 218.3 152.271C214.035 148.285 209.812 144.254 205.631 140.179M27.8246 243.326C27.3586 243.746 27.3902 244.487 27.8908 244.865M27.8246 243.326L92.3061 185.185M27.8246 243.326C27.3586 243.746 27.3902 244.487 27.8908 244.865M27.8908 244.865C54.457 264.951 81.8433 284.008 109.991 301.979M261.254 258.831C252.534 267.137 240.761 270.959 226.277 270.959C217.55 270.959 209.315 268.851 202.054 265.116M261.254 258.831L193.412 350.842M261.254 258.831L279.288 234.373L193.412 350.842M174.467 229.287C177.721 244.201 187.251 256.769 200.15 264.087M174.467 229.287C177.879 244.925 188.192 257.985 202.054 265.116M174.467 229.287L168 236.788M157.425 249.051L109.991 301.979M157.425 249.051L150.923 242.55M157.425 249.051L161.532 244.288M109.991 301.979C123.136 310.371 136.447 318.527 149.919 326.44M200.15 264.087L149.919 326.44M200.15 264.087C200.777 264.442 201.411 264.785 202.054 265.116M149.919 326.44C164.238 334.851 178.738 342.988 193.412 350.842M193.412 350.842C246.309 379.157 301.46 403.809 358.527 424.459M422.56 292.912C377.43 270.902 334.581 244.938 294.465 215.472C294.02 215.145 293.395 215.239 293.067 215.684L288.274 222.184M422.56 292.912L358.527 424.459M422.56 292.912C445.323 304.013 468.667 314.109 492.533 323.141C493.051 323.337 493.312 323.915 493.116 324.432L477.05 366.784M358.527 424.459C386.785 434.685 415.512 443.929 444.668 452.151M444.668 452.151C472.779 460.079 501.288 467.564 530.159 473.554M444.668 452.151L471.056 382.586M530.159 473.554C559.562 479.654 589.34 484.731 619.454 488.745M787.591 163.311C787.391 163.311 787.79 163.311 787.591 163.311ZM787.591 163.311H794.815M787.591 163.311C760.455 163.311 733.706 161.566 707.456 158.181M794.815 163.311V197.679M794.815 163.311H903.693M964.562 162.803C965.115 162.803 965.562 163.251 965.562 163.803M964.562 162.803L934.376 163.311M964.562 162.803C965.115 162.803 965.562 163.251 965.562 163.803M965.562 163.803V263.726M965.562 263.726V264.113C965.562 264.489 965.774 264.834 966.11 265.004L966.562 265.234M965.562 263.726C965.562 264.279 966.01 265.234 966.562 265.234M966.562 265.234H1071.96M966.562 265.234V267.838M1071.96 265.234C1072.51 265.234 1072.96 265.682 1072.96 266.234M1071.96 265.234C1072.42 265.002 1072.96 265.334 1072.96 265.848V266.234M1072.96 266.234V331.958C1072.96 332.51 1073.41 332.958 1073.96 332.958H1092.78C1093.33 332.958 1093.78 333.405 1093.78 333.958V364.462C1093.78 375.59 1082.41 381.931 1072.96 381.931M1072.96 381.931L1072.97 378.29C1072.97 377.736 1072.53 377.287 1071.97 377.287H1043.25M1072.96 381.931V498.865M1072.96 498.865C1072.96 499.417 1072.51 499.865 1071.96 499.865M1072.96 498.865C1072.96 499.166 1072.79 499.443 1072.52 499.58L1071.96 499.865M1071.96 499.865L1009.24 499.864M671.161 300.742C665.859 299.935 660.574 299.073 655.308 298.157M671.161 300.742L687.797 209.249C687.894 208.718 688.395 208.359 688.929 208.439L702.625 210.485M671.161 300.742C676.221 301.513 681.298 302.235 686.391 302.906M655.213 298.141C655.245 298.146 655.277 298.152 655.308 298.157M1009.24 499.864L787.646 499.864M1009.24 499.864V452.788M1009.24 405.711V377.773M1009.24 405.711H979.116M1009.24 405.711V452.788M636.673 490.919C686.174 496.825 736.555 499.864 787.646 499.864M636.673 490.919L636.23 490.866M636.673 490.919C636.525 490.902 636.378 490.884 636.23 490.866M787.646 499.864C787.221 499.864 788.072 499.864 787.646 499.864ZM636.23 490.866C635.692 490.802 635.154 490.737 634.616 490.672C629.553 490.06 624.499 489.417 619.454 488.745M619.454 488.745C620.377 483.852 621.248 478.727 622.081 474.315M642.826 364.84L647.601 339.524M647.601 339.524C622.07 335.129 596.946 329.545 572.288 322.83M647.601 339.524L655.308 298.157M623.036 141.267C642.5 146.599 662.343 151.01 682.511 154.448C690.773 155.857 699.089 157.102 707.456 158.181M623.036 141.267C604.803 136.271 586.902 130.467 569.378 123.894M623.036 141.267L614.261 172.155M572.288 322.83L575.402 311.687M572.288 322.83C570.811 322.428 569.335 321.514 567.862 321.104M569.378 123.894C551.014 117.007 533.064 109.276 515.579 100.748M569.378 123.894L557.752 154.035M502.441 299.847L506.688 288.652M502.441 299.847C503.351 300.186 504.262 300.524 505.173 300.86M502.441 299.847C499.591 298.785 496.748 297.707 493.913 296.614M515.579 100.748C478.434 82.6334 443.388 60.9255 410.929 36.0785C410.484 35.7376 409.845 35.8286 409.513 36.2809L358.527 105.8M515.579 100.748L500.111 132.187C499.858 132.701 499.226 132.898 498.726 132.619L497.098 131.711M488.519 156.102L484.786 154.035M488.519 156.102L493.28 146.275M488.519 156.102L481.84 169.695M432.556 270.495C399.646 254.567 367.971 236.488 337.715 216.439M432.556 270.495C449.241 278.571 466.244 285.586 483.541 292.531M432.556 270.495L434.852 265.823M463.61 73.0467L445.411 103.56M379.279 154.09L404.479 170.176C404.955 170.479 405.587 170.329 405.876 169.845L432.553 125.118L445.411 103.56M379.279 154.09L393.498 131.994C393.791 131.538 393.668 130.931 393.22 130.626L366.201 112.237M379.279 154.09L352.918 193.634M306.274 194.019C295.595 186.197 285.114 178.121 274.839 169.799M306.274 194.019C310.068 196.797 313.886 199.543 317.728 202.257M306.274 194.019L322.243 172.091M337.715 216.439C333.348 213.546 329.011 210.104 324.705 207.129M337.715 216.439L352.918 193.634M297.748 53.1695L228.732 129.51M297.748 53.1695C316.997 71.6549 337.289 89.5694 358.527 105.8M297.748 53.1695C287.26 43.0968 277.081 32.7037 267.228 22.0062C266.856 21.6021 266.228 21.573 265.82 21.9416L253.308 33.2639M228.732 129.51C236.968 137.269 245.366 144.858 253.92 152.271M228.732 129.51C225.845 126.79 222.978 124.05 220.131 121.288M90.7985 1.19639C90.7554 1.13097 90.7124 1.06555 90.6693 1.00011M90.7985 1.19639H48.5265C48.3344 1.19639 48.1463 1.25178 47.9848 1.35587L1.45845 31.3427C0.999126 31.6388 0.862456 32.2488 1.15209 32.7121C7.94173 43.5749 14.9497 54.2872 22.1698 64.8429M90.7985 1.19639H118.101M358.527 105.8L366.201 112.237M253.308 33.2639L224.906 1.5295M224.906 1.5295C224.717 1.31754 224.446 1.19639 224.161 1.19639M224.906 1.5295C224.717 1.31754 224.446 1.19639 224.161 1.19639M224.161 1.19639H118.101M22.1698 64.8429C47.9473 102.529 76.4292 138.219 107.336 171.633M22.1698 64.8429L29.3465 59.5608M107.336 171.633L92.3061 185.185M107.336 171.633L124.225 156.166M92.3061 185.185L140.353 231.981M366.201 112.237L322.243 172.091M124.225 156.166L169.943 201.807M140.353 231.981L162.106 209.799M140.353 231.981L144.42 236.048M169.943 201.807L172.903 198.788M169.943 201.807L167.852 203.939M655.308 298.157L659.771 274.5M595.1 241.214L663.15 256.586M595.1 241.214L601.909 216.856M595.1 241.214L584.192 280.241M663.15 256.586L672.652 206.21C672.752 205.681 672.416 205.169 671.892 205.049L658.383 201.971M663.15 256.586L661.46 265.543M609.068 190.733L624.079 194.153M609.068 190.733L601.909 216.856M609.068 190.733L595.707 186.84M614.261 172.155L614.845 172.294L676.298 186.878M614.261 172.155L610.377 171.104M702.625 190.733L707.456 158.181M691.457 189.123L719.072 192.842M730.295 194.39L771.51 196.131M794.815 197.679H783.313M794.815 197.679L807.974 197.425M818.165 197.679H852.734M863.201 197.679H902.693C903.245 197.679 903.693 197.231 903.693 196.679V163.311M903.693 163.311H934.376M966.562 350.241H955.025H968.166M966.562 350.241H968.166M966.562 350.241V267.838M977.239 350.241H968.166M940.946 351.805H934.376M896.518 351.805H934.376M934.376 351.805V326.904M934.376 163.311V267.838M896.518 211.326V267.33M896.518 312.383V267.33M896.518 267.33L934.376 267.838M934.376 267.838H966.562M934.376 267.838V326.904M1030.11 265.726V351.359C1030.11 351.622 1030.29 351.852 1030.54 351.92C1031.2 352.096 1031.07 353.062 1030.39 353.062H1030.11H988.815M1009.24 375.27V377.773M1009.24 377.773H1028.24M994.447 403.429V375.27M979.116 405.711V375.27M979.116 405.711H962.221M962.221 405.711V378.773C962.221 378.221 961.773 377.773 961.221 377.773H944.7M962.221 405.711H896.518M896.518 378.281V405.711M896.518 378.281H883.083M896.518 378.281L934.376 377.773M896.518 405.711H884.083C883.531 405.711 883.083 405.263 883.083 404.711V378.281M883.083 378.281V373.549M1009.24 452.788L1058.59 452.28M1046.07 353.062H1071.96M792.595 309.524H787.589C784.324 309.524 781.065 309.504 777.81 309.463M792.595 309.524V295.552M792.595 309.524H846.88M792.595 283.634V268.364M792.595 246.949V268.364M792.595 268.364H810.659M792.595 234.1V216.223M792.595 216.223H809.541M792.595 216.223H778.815M820.9 216.223L836.17 216.731M836.17 216.731H871.669C872.221 216.731 872.669 217.179 872.669 217.731V239.822M836.17 216.731V239.822M875.649 268.364H820.9H835.17C835.723 268.364 836.17 267.916 836.17 267.364V239.822M875.649 268.364V253.349C875.649 252.797 876.096 252.349 876.649 252.349H881.421M875.649 268.364H881.421M881.421 268.364V282.517V262.219V268.364ZM881.421 295.552V309.524M881.421 309.524H882.083C882.635 309.524 883.083 309.972 883.083 310.524V313.748M881.421 309.524H857.047M836.17 239.822H872.669M881.421 239.314L872.669 239.822M713.922 211.695L728.743 213.812L767.157 215.324M633.815 196.372L648.589 199.739M111.954 31.7953C123.42 47.6157 135.428 63.0176 147.951 77.9738M204.107 63.3528L201.207 60.1345M201.207 60.1345L187.02 73.3837M179.748 80.1091C180.416 80.8958 181.012 81.5893 181.513 82.1583L179.748 80.1091ZM179.748 80.1091L182.844 77.5592M203.305 81.1729L222.963 100.735C223.342 101.112 223.357 101.721 222.997 102.116L212.354 113.816M212.354 113.816L210.52 111.73M212.354 113.816L213.925 115.387M476.483 149.438L470.769 146.275M487.432 126.593L481.529 123.358M445.411 103.56L481.529 123.358M481.529 123.358L477.007 133.132M473.311 141.188L470.769 146.275M470.769 146.275L442.615 130.689M510.819 138.692L555.161 157.914C555.685 158.141 556.292 157.885 556.494 157.351L557.752 154.035M481.84 169.695L501.165 179.462C501.641 179.702 501.844 180.273 501.628 180.76L499.646 185.217M481.84 169.695L472.791 188.616M472.791 188.616L461.038 212.534M472.791 188.616L508.984 206.123M516.255 209.132L508.984 206.123M528.103 214.785L533.786 217.722M533.786 217.722L541.701 196.856M533.786 217.722L518.114 259.039M552.779 172.155L552.095 171.872C551.572 171.655 550.973 171.916 550.775 172.447L541.701 196.856M557.752 154.035L599.824 167.873M560.787 175.724L566.784 177.807M572.781 179.891L566.784 177.807M566.784 177.807L558.526 202.856M558.526 202.856L541.701 196.856M558.526 202.856L570.627 206.761M601.909 216.856L575.026 208.181M575.026 208.181L583.026 182.848M575.026 208.181L570.627 206.761M583.026 182.848L580.713 182.084M583.026 182.848L585.403 183.669M352.918 193.634L341.351 185.177M331.544 178.757L322.243 172.091M570.627 206.761L550.257 268.553M550.257 268.553L554.314 269.836M550.257 268.553L545.904 267.214M536.771 264.404L545.904 267.214M572.288 275.519L554.314 269.836M580.341 278.482L584.192 280.241M584.192 280.241L575.402 311.687M575.402 311.687L570.856 309.603M562.409 307.084L548.305 302.268M554.314 269.836L544.488 299.922C544.318 300.442 544.597 301.002 545.115 301.179L548.305 302.268M545.904 267.214L535.86 298.434M548.305 302.268L544.499 313.205C544.322 313.714 543.772 313.991 543.257 313.83C539.831 312.758 536.414 311.663 533.007 310.547C532.484 310.375 532.199 309.814 532.367 309.291L535.86 298.434M535.86 298.434L521.282 293.818M518.247 292.857L521.282 293.818M521.282 293.818L519.433 299.847M518.114 259.039L528.103 261.885M518.114 259.039L516.608 263.009M506.688 288.652L509.652 289.745M506.688 288.652L489.011 281.822C488.504 281.626 487.933 281.871 487.726 282.374L483.541 292.531M506.688 288.652L516.608 263.009M484.944 293.094C484.476 292.907 484.009 292.719 483.541 292.531M434.852 265.823L467.257 279.267C467.758 279.476 468.335 279.245 468.554 278.748L478.295 256.721M434.852 265.823L446.484 242.15M478.295 256.721L464.43 250.371M478.295 256.721L481.552 249.467C481.774 248.973 482.349 248.745 482.849 248.953L516.608 263.009M446.484 242.15L464.43 250.371M446.484 242.15L453.761 227.342M464.43 250.371L471.382 235.912M478.793 220.499L461.038 212.534M478.793 220.499L498.317 228.594C498.823 228.804 499.404 228.567 499.619 228.063L508.984 206.123M478.793 220.499L471.382 235.912M461.038 212.534L453.761 227.342M453.761 227.342L471.382 235.912M472.147 235.776L471.382 235.912M703.75 304.994C722.527 307.035 741.507 308.399 760.666 309.06M934.376 326.904H946.789M934.376 326.904H897.153M893.715 326.904H897.153M897.153 326.904V323.615M883.083 323.017V357.104" stroke="#BFC4C8" stroke-width="2" stroke-linecap="round" stroke-linejoin="round"/>
</g>
<g id="location">
<g id="b1f2-stolovaya">
<path id="area" d="M672.131 301.761C667.484 301.053 662.85 300.303 658.23 299.512C657.692 299.42 657.179 299.776 657.078 300.313L644.994 364.385C644.892 364.923 644.411 365.286 643.871 365.189C636.748 363.904 590.917 355.51 568.455 348.228C567.91 348.051 567.345 348.369 567.192 348.921L533.821 470.059C533.67 470.609 533.988 471.169 534.544 471.294C563.362 477.745 621.859 486.027 621.859 486.027L636.053 487.699L637.661 487.893L638.103 487.945C687.422 493.826 737.619 496.852 788.524 496.852H1007.66C1008.21 496.852 1008.66 496.404 1008.66 495.852V406.948C1008.66 406.396 1008.21 405.948 1007.66 405.948H884.758C883.656 405.948 882.762 405.055 882.762 403.954V311.531C882.762 310.978 882.314 310.531 881.762 310.531H788.465C748.916 310.531 710.067 307.535 672.131 301.761Z" fill="#FFEDD6" stroke="#FFCF94" stroke-width="2.00001" stroke-linejoin="round"/>
<text id="title" fill="#172736" xml:space="preserve" style="white-space: pre" font-family="CoFo Weather 20240219 VF" font-size="15.0001" font-weight="500" letter-spacing="0em"><tspan x="721.561" y="420.543">&#x421;&#x442;&#x43e;&#x43b;&#x43e;&#x432;&#x430;&#x44f;</tspan></text>
</g>
<path id="area_2" d="M408.567 166.129C408.275 166.635 407.615 166.784 407.134 166.454L384.855 151.137C384.398 150.823 384.284 150.196 384.601 149.741L394.982 134.847C395.287 134.41 395.195 133.811 394.774 133.485L360.755 107.132C360.343 106.813 360.245 106.231 360.53 105.795L407.452 33.946C407.764 33.4676 408.413 33.3478 408.876 33.6831L461.796 72.0382C462.211 72.3388 462.332 72.9039 462.076 73.3475L408.567 166.129Z" fill="#33D18F" fill-opacity="0.2" stroke="#33D18F" stroke-opacity="0.2" stroke-width="2.00001" stroke-miterlimit="16" stroke-linejoin="round"/>
<g id="b1f2-nastolka">
<path id="area_3" d="M1072.53 500.067C1072.53 500.619 1072.08 501.067 1071.53 501.067H1011.53C1010.97 501.067 1010.53 500.619 1010.53 500.067V379.067C1010.53 378.515 1010.97 378.067 1011.53 378.067H1071.53C1072.08 378.067 1072.53 378.515 1072.53 379.067V500.067Z" fill="#7027E2" fill-opacity="0.2" stroke="#7027E2" stroke-opacity="0.0941176" stroke-width="2.00001" stroke-miterlimit="16" stroke-linejoin="round"/>
<text id="title_2" fill="#172736" xml:space="preserve" style="white-space: pre" font-family="CoFo Weather 20240219 VF" font-size="10" font-weight="500" letter-spacing="0em"><tspan x="1018.87" y="418.517">&#x417;&#x43e;&#x43d;&#x430; &#x434;&#x43b;&#x44f; </tspan><tspan x="1014.09" y="428.517">&#x43d;&#x430;&#x441;&#x442;&#x43e;&#x43b;&#x43e;&#x43a; &#x432; </tspan><tspan x="1017.59" y="438.517">&#x441;&#x442;&#x43e;&#x43b;&#x43e;&#x432;&#x43e;&#x439; </tspan></text>
</g>
<g id="b1f2-soft">
<path id="area_4" d="M1008.53 498.067C1008.53 498.619 1008.08 499.067 1007.53 499.067H884.526C883.974 499.067 883.526 498.619 883.526 498.067V408.067C883.526 407.515 883.974 407.067 884.526 407.067H1007.53C1008.08 407.067 1008.53 407.515 1008.53 408.067V498.067Z" fill="#E2D4F9" stroke="#B8B6CA" stroke-width="2.00001" stroke-miterlimit="16" stroke-linejoin="round"/>
<text id="title_3" fill="#172736" xml:space="preserve" style="white-space: pre" font-family="CoFo Weather 20240219 VF" font-size="10" font-weight="500" letter-spacing="0em"><tspan x="914.805" y="451.517">&#x41c;&#x44f;&#x433;&#x43a;&#x430;&#x44f; &#x437;&#x43e;&#x43d;&#x430; &#10;</tspan><tspan x="922.593" y="461.517">&#x441;&#x442;&#x43e;&#x43b;&#x43e;&#x432;&#x43e;&#x439;</tspan></text>
</g>
<g id="b1f2-soft_2">
<path id="area_5" d="M633.602 487.036C633.56 487.6 633.079 488.019 632.517 487.958C627.07 487.366 600.787 484.483 583.526 482.067C564.407 479.391 537.175 473.521 531.561 472.294C530.992 472.17 530.671 471.591 530.84 471.034L568.247 347.983C568.403 347.471 568.935 347.172 569.453 347.305L641.716 365.859C642.185 365.979 642.5 366.418 642.464 366.901L633.602 487.036Z" fill="#E2D4F9" stroke="#B8B6CA" stroke-width="2.00001" stroke-miterlimit="16" stroke-linejoin="round"/>
<text id="title_4" fill="#172736" xml:space="preserve" style="white-space: pre" font-family="CoFo Weather 20240219 VF" font-size="10" font-weight="500" letter-spacing="0em"><tspan x="557.805" y="447.517">&#x41c;&#x44f;&#x433;&#x43a;&#x430;&#x44f; &#x437;&#x43e;&#x43d;&#x430; &#10;</tspan><tspan x="565.593" y="457.517">&#x441;&#x442;&#x43e;&#x43b;&#x43e;&#x432;&#x43e;&#x439;</tspan></text>
</g>
<text id="title_5" fill="#172736" xml:space="preserve" style="white-space: pre" font-family="CoFo Weather 20240219 VF" font-size="10" font-weight="500" letter-spacing="0em"><tspan x="367.995" y="95.517">&#x41b;&#x435;&#x442;&#x43d;&#x44f;&#x44f; &#x432;&#x435;&#x440;&#x430;&#x43d;&#x434;&#x430;</tspan></text>
<text id="title_6" fill="#172736" xml:space="preserve" style="white-space: pre" font-family="CoFo Weather 20240219 VF" font-size="10" font-weight="500" letter-spacing="0em"><tspan x="282.948" y="108.517">&#x41b;&#x438;&#x444;&#x442;&#x43e;&#x432;&#x43e;&#x439;&#10;</tspan><tspan x="293.539" y="118.517">&#x445;&#x43e;&#x43b;&#x43b; 1</tspan></text>
<text id="title_7" fill="#172736" xml:space="preserve" style="white-space: pre" font-family="CoFo Weather 20240219 VF" font-size="10" font-weight="500" letter-spacing="0em"><tspan x="973.948" y="308.517">&#x41b;&#x438;&#x444;&#x442;&#x43e;&#x432;&#x43e;&#x439;&#10;</tspan><tspan x="983.318" y="318.517">&#x445;&#x43e;&#x43b;&#x43b; 2</tspan></text>
</g>
<g id="b1f2-201">
<path id="area_6" d="M487.692 155.492C488.159 155.75 488.341 156.33 488.105 156.809L433.644 267.555C433.401 268.048 432.805 268.253 432.31 268.012C400.561 252.561 369.965 235.113 340.686 215.829C340.223 215.524 340.097 214.901 340.405 214.44L379.911 155.224C380.216 154.767 380.833 154.641 381.292 154.943L404.923 170.475C405.878 171.103 407.165 170.808 407.751 169.827L433.531 126.635C433.807 126.172 434.401 126.011 434.873 126.272L487.692 155.492Z" fill="#FFEDD6" stroke="#FFCF94" stroke-width="2.00001" stroke-linejoin="round"/>
<text id="title_8" fill="#172736" xml:space="preserve" style="white-space: pre" font-family="CoFo Weather 20240219 VF" font-size="10" font-weight="500" letter-spacing="0em"><tspan x="395.035" y="221.544">&#x411;&#x443;&#x444;&#x435;&#x442;</tspan></text>
<g id="n">
<rect x="399.026" y="194.848" width="20" height="12" rx="3" fill="#FFCF94"/>
<text id="201" fill="#172736" xml:space="preserve" style="white-space: pre" font-family="CoFo Weather 20240219 VF" font-size="8" font-weight="500" letter-spacing="0.02em"><tspan x="402.19" y="203.608">201</tspan></text>
</g>
</g>
<g id="b1f2-212">
<path id="area_7" d="M294.025 216.418C294.353 215.974 294.977 215.879 295.422 216.205C334.822 245.074 376.846 270.57 421.072 292.271C421.567 292.514 421.773 293.112 421.532 293.607L359.6 420.838C359.376 421.298 358.84 421.515 358.36 421.34C302.729 401.124 248.927 377.096 197.268 349.575C196.73 349.288 196.573 348.59 196.934 348.1L294.025 216.418Z" fill="#33D18F" fill-opacity="0.2" stroke="#33D18F" stroke-opacity="0.2" stroke-width="2.00001" stroke-linejoin="round"/>
<text id="title_9" fill="#172736" xml:space="preserve" style="white-space: pre" font-family="CoFo Weather 20240219 VF" font-size="10" font-weight="500" letter-spacing="0em"><tspan x="276.619" y="327.158">&#x41a;&#x43e;&#x43d;&#x444;&#x435;&#x440;&#x435;&#x43d;&#x446; &#x437;&#x430;&#x43b;</tspan></text>
<g id="n_2">
<rect x="304.026" y="301.848" width="20" height="12" rx="3" fill="#33D18F" fill-opacity="0.2"/>
<text id="212" fill="#172736" xml:space="preserve" style="white-space: pre" font-family="CoFo Weather 20240219 VF" font-size="8" font-weight="500" letter-spacing="0.02em"><tspan x="307.35" y="310.608">212</tspan></text>
</g>
</g>
<g id="b1f2-212a">
<path id="area_8" d="M194.978 347.381C194.683 347.781 194.139 347.904 193.701 347.669C180.254 340.449 166.953 332.992 153.805 325.303C153.277 324.995 153.148 324.289 153.531 323.813L200.619 265.361C200.922 264.984 201.452 264.88 201.88 265.105C209.39 269.061 217.945 271.3 227.02 271.3C238.665 271.3 248.661 268.855 256.768 263.576L194.978 347.381Z" fill="#33D18F" fill-opacity="0.2" stroke="#33D18F" stroke-opacity="0.2" stroke-width="2.00001" stroke-miterlimit="16"/>
<text id="title_10" transform="translate(184.253 322.701) rotate(-51.4632)" fill="#172736" xml:space="preserve" style="white-space: pre" font-family="CoFo Weather 20240219 VF" font-size="6.00002" font-weight="500" letter-spacing="0em"><tspan x="0" y="5.07001">&#x41f;&#x435;&#x440;&#x435;&#x433;&#x43e;&#x432;&#x43e;&#x440;&#x43a;&#x430;</tspan></text>
<g id="n_3">
<rect x="182.026" y="309.727" width="18.5" height="9" rx="2.25" transform="rotate(-51.4649 182.026 309.727)" fill="#33D18F" fill-opacity="0.2"/>
<text id="212&#208;&#176;" transform="translate(184.601 308.901) rotate(-51.4649)" fill="#172736" xml:space="preserve" style="white-space: pre" font-family="CoFo Weather 20240219 VF" font-size="6" font-weight="500" letter-spacing="0.02em"><tspan x="0.248711" y="5.07">212&#x430;</tspan></text>
</g>
</g>
<g id="b1f2-210">
<path id="area_9" d="M174.675 230.798C174.684 230.8 174.691 230.803 174.695 230.806C174.698 230.808 174.7 230.811 174.702 230.813C174.702 230.813 174.705 230.818 174.707 230.826C178.209 244.381 186.839 255.87 198.402 263.105C198.918 263.427 199.044 264.128 198.663 264.601L151.602 323.02C151.291 323.406 150.744 323.506 150.316 323.255C138.055 316.032 125.928 308.607 113.937 300.985C113.416 300.654 113.318 299.935 113.73 299.475L135.928 274.706L158.914 249.059C158.918 249.055 158.922 249.05 158.927 249.045L174.652 230.807C174.658 230.8 174.666 230.796 174.675 230.798Z" fill="#33D18F" fill-opacity="0.2" stroke="#33D18F" stroke-opacity="0.2" stroke-width="2.00001" stroke-miterlimit="16" stroke-linejoin="round"/>
<text id="title_11" transform="translate(145.881 299.701) rotate(-51.4632)" fill="#172736" xml:space="preserve" style="white-space: pre" font-family="CoFo Weather 20240219 VF" font-size="6.00002" font-weight="500" letter-spacing="0em"><tspan x="0" y="5.07001">&#x41f;&#x435;&#x440;&#x435;&#x433;&#x43e;&#x432;&#x43e;&#x440;&#x43a;&#x430;</tspan></text>
<g id="n_4">
<rect x="145.026" y="282.818" width="15.5" height="9" rx="2.25" transform="rotate(-51.4649 145.026 282.818)" fill="#33D18F" fill-opacity="0.2"/>
<text id="210" transform="translate(147.601 281.992) rotate(-51.4649)" fill="#172736" xml:space="preserve" style="white-space: pre" font-family="CoFo Weather 20240219 VF" font-size="6" font-weight="500" letter-spacing="0.02em"><tspan x="0.338008" y="5.07">210</tspan></text>
</g>
</g>
<g id="b1f2-206">
<path id="area_10" d="M168.577 200.455C168.965 200.843 168.968 201.471 168.584 201.863L141.778 229.198C141.392 229.591 140.761 229.598 140.366 229.214L95.9944 185.997C95.5805 185.594 95.5933 184.925 96.0224 184.538L109.419 172.459C109.816 172.101 110.053 171.598 110.078 171.064C110.092 170.74 110.177 170.409 110.416 170.19L124.233 157.535C124.627 157.174 125.236 157.187 125.615 157.565L168.577 200.455Z" fill="#33D18F" fill-opacity="0.2" stroke="#33D18F" stroke-opacity="0.2" stroke-width="2.00001" stroke-miterlimit="16" stroke-linejoin="round"/>
<text id="title_12" transform="translate(115.235 179.848) rotate(44.5523)" fill="#172736" xml:space="preserve" style="white-space: pre" font-family="CoFo Weather 20240219 VF" font-size="6.00002" font-weight="500" letter-spacing="0em"><tspan x="0" y="5.07001">&#x41f;&#x435;&#x440;&#x435;&#x433;&#x43e;&#x432;&#x43e;&#x440;&#x43a;&#x430;</tspan></text>
<g id="n_5">
<rect x="132.893" y="181.806" width="16.5" height="9" rx="2.25" transform="rotate(45 132.893 181.806)" fill="#33D18F" fill-opacity="0.2"/>
<text id="206" transform="translate(133.423 184.458) rotate(45)" fill="#172736" xml:space="preserve" style="white-space: pre" font-family="CoFo Weather 20240219 VF" font-size="6" font-weight="500" letter-spacing="0.02em"><tspan x="0.0528517" y="5.07">206</tspan></text>
</g>
</g>
<g id="b1f2-204">
<path id="area_11" d="M198.118 168.684C198.527 169.074 198.532 169.726 198.128 170.122L171.372 196.387C170.985 196.766 170.368 196.769 169.978 196.394L127.197 155.281C126.775 154.875 126.79 154.196 127.228 153.81L155.263 129.093C155.652 128.75 156.239 128.762 156.614 129.12L198.118 168.684Z" fill="#33D18F" fill-opacity="0.2" stroke="#33D18F" stroke-opacity="0.2" stroke-width="2.00001" stroke-miterlimit="16" stroke-linejoin="round"/>
<text id="title_13" transform="matrix(0.728871 0.684651 -0.711865 0.702316 145.892 150.376)" fill="#172736" xml:space="preserve" style="white-space: pre" font-family="CoFo Weather 20240219 VF" font-size="6.00002" font-weight="500" letter-spacing="0em"><tspan x="0" y="5.07001">&#x41f;&#x435;&#x440;&#x435;&#x433;&#x43e;&#x432;&#x43e;&#x440;&#x43a;&#x430;</tspan></text>
<g id="n_6">
<rect x="163.39" y="151.848" width="16.5" height="9" rx="2.25" transform="rotate(45 163.39 151.848)" fill="#33D18F" fill-opacity="0.2"/>
<text id="204" transform="translate(163.92 154.5) rotate(45)" fill="#172736" xml:space="preserve" style="white-space: pre" font-family="CoFo Weather 20240219 VF" font-size="6" font-weight="500" letter-spacing="0.02em"><tspan x="0.0616407" y="5.07">204</tspan></text>
</g>
</g>
<g id="b1f2-214">
<path id="area_12" d="M423.715 294.79C423.957 294.305 424.542 294.101 425.033 294.33C447.178 304.662 468.97 314.414 492.02 323.09C492.539 323.285 492.801 323.864 492.605 324.381L445.585 448.464C445.401 448.948 444.88 449.212 444.382 449.073C416.345 441.233 388.632 431.919 361.334 422.468C360.764 422.271 360.498 421.617 360.767 421.077L423.715 294.79Z" fill="#33D18F" fill-opacity="0.2" stroke="#33D18F" stroke-opacity="0.2" stroke-width="2.00001" stroke-linejoin="round"/>
<text id="title_14" transform="translate(388.438 375.804)" fill="#172736" xml:space="preserve" style="white-space: pre" font-family="CoFo Weather 20240219 VF" font-size="10" font-weight="500" letter-spacing="0em"><tspan x="0.441265" y="8.45001">&#x41a;&#x43e;&#x43d;&#x444;&#x435;&#x440;&#x435;&#x43d;&#x446; &#x437;&#x430;&#x43b;</tspan></text>
<g id="n_7">
<rect x="418.026" y="359.848" width="20" height="12" rx="3" fill="#33D18F" fill-opacity="0.2"/>
<text id="214" fill="#172736" xml:space="preserve" style="white-space: pre" font-family="CoFo Weather 20240219 VF" font-size="8" font-weight="500" letter-spacing="0.02em"><tspan x="421.292" y="368.608">214</tspan></text>
</g>
</g>
<g id="b1f2-2b">
<path id="area_13" d="M223.011 2.53673C223.296 2.53673 223.567 2.65787 223.756 2.86984L250.295 32.5226C250.655 32.9243 250.631 33.5387 250.242 33.9116L212.895 69.6939C212.488 70.0842 211.838 70.0604 211.46 69.6413L186.228 41.6463C185.498 40.8368 184.254 40.7609 183.431 41.4754L164.364 58.0249C163.942 58.3911 163.301 58.3406 162.943 57.9122C148.427 40.5776 134.622 22.6283 121.571 4.10959C121.104 3.44799 121.578 2.53673 122.387 2.53673H223.011Z" fill="#33D18F" fill-opacity="0.2" stroke="#33D18F" stroke-opacity="0.2" stroke-width="2.00001" stroke-miterlimit="16" stroke-linejoin="round"/>
<text id="title_15" fill="#172736" xml:space="preserve" style="white-space: pre" font-family="CoFo Weather 20240219 VF" font-size="10" font-weight="500" letter-spacing="0em"><tspan x="144.816" y="26.4427">&#x41c;&#x443;&#x43b;&#x44c;&#x442;&#x438;&#x43c;&#x435;&#x434;&#x438;&#x439;&#x43d;&#x44b;&#x439; &#10;</tspan><tspan x="175.695" y="36.4427">&#x43a;&#x43b;&#x430;&#x441;&#x441;</tspan></text>
<g id="n_8">
<rect x="181.526" y="5.06701" width="17" height="12" rx="3" fill="#33D18F" fill-opacity="0.2"/>
<text id="2&#208;&#145;" fill="#172736" xml:space="preserve" style="white-space: pre" font-family="CoFo Weather 20240219 VF" font-size="8" font-weight="500" letter-spacing="0.02em"><tspan x="184.868" y="13.827">2&#x411;</tspan></text>
</g>
</g>
<g id="b1f2-202">
<path id="area_14" d="M155.979 127.109L175.475 109.254C175.884 108.88 175.91 108.244 175.534 107.837C147.353 77.3152 121.424 44.6837 98.0093 10.206C97.6904 9.73646 97.0451 9.62529 96.588 9.96176L23.6916 63.6133C23.2576 63.9327 23.1547 64.5386 23.4594 64.983C48.9048 102.101 76.9757 137.277 107.404 170.245C107.778 170.65 108.408 170.676 108.813 170.304L124.968 155.509L155.979 127.109Z" fill="#33D18F" fill-opacity="0.2" stroke="#33D18F" stroke-opacity="0.2" stroke-width="2.00001" stroke-linejoin="round"/>
<text id="title_16" fill="#172736" xml:space="preserve" style="white-space: pre" font-family="CoFo Weather 20240219 VF" font-size="10" font-weight="500" letter-spacing="0em"><tspan x="61.3294" y="92.7925">&#x423;&#x447;&#x435;&#x431;&#x43d;&#x44b;&#x439; &#x43a;&#x43b;&#x430;&#x441;&#x441;</tspan></text>
<g id="n_9">
<rect x="88.0259" y="67.8483" width="22" height="12" rx="3" fill="#33D18F" fill-opacity="0.2"/>
<text id="202" fill="#172736" xml:space="preserve" style="white-space: pre" font-family="CoFo Weather 20240219 VF" font-size="8" font-weight="500" letter-spacing="0.02em"><tspan x="91.237" y="76.6083">202</tspan></text>
</g>
</g>
<g id="b1f2-208">
<path id="area_15" d="M140.39 232.028L156.122 247.76C156.498 248.136 156.514 248.739 156.16 249.135L111.8 298.631C111.473 298.996 110.93 299.07 110.517 298.806C83.5509 281.543 57.2865 263.28 31.7755 244.069C31.2736 243.691 31.2412 242.949 31.7078 242.529L93.0449 187.222C93.4364 186.869 94.0347 186.881 94.4123 187.248L140.39 232.028Z" fill="#33D18F" fill-opacity="0.2" stroke="#33D18F" stroke-opacity="0.2" stroke-width="2.00001" stroke-miterlimit="16" stroke-linejoin="round"/>
<text id="title_17" fill="#172736" xml:space="preserve" style="white-space: pre" font-family="CoFo Weather 20240219 VF" font-size="10" font-weight="500" letter-spacing="0em"><tspan x="61.7975" y="247.449">&#x41f;&#x435;&#x440;&#x435;&#x433;&#x43e;&#x432;&#x43e;&#x440;&#x43a;&#x430;</tspan></text>
<g id="n_10">
<rect x="82.0259" y="220.848" width="22" height="12" rx="3" fill="#33D18F" fill-opacity="0.2"/>
<text id="208" fill="#172736" xml:space="preserve" style="white-space: pre" font-family="CoFo Weather 20240219 VF" font-size="8" font-weight="500" letter-spacing="0.02em"><tspan x="85.0417" y="229.608">208</tspan></text>
</g>
</g>
<g id="b1f2-plastic">
<text id="title_18" transform="translate(636.689 453.881) rotate(-80.4437)" fill="#172736" xml:space="preserve" style="white-space: pre" font-family="CoFo Weather 20240219 VF" font-size="8" font-weight="500" letter-spacing="0em"><tspan x="10.7995" y="6.76">&#x423;&#x442;&#x438;&#x43b;&#x438;&#x437;&#x430;&#x446;&#x438;&#x44f; </tspan><tspan x="8.49484" y="14.76">&#x43f;&#x43b;&#x430;&#x441;&#x442;&#x438;&#x43a;&#x43e;&#x432;&#x44b;&#x445; </tspan><tspan x="18.6198" y="22.76">&#x43a;&#x440;&#x44b;&#x448;&#x435;&#x43a;</tspan></text>
<path id="Ellipse 39" d="M639.835 414.948C639.835 417.433 637.821 419.448 635.335 419.448C632.85 419.448 630.835 417.433 630.835 414.948C630.835 412.463 632.85 410.448 635.335 410.448C637.821 410.448 639.835 412.463 639.835 414.948Z" fill="#73E553"/>
</g>
</g>
</svg>
