<svg width="1103" height="330" viewBox="0 0 1103 330" fill="none" xmlns="http://www.w3.org/2000/svg">
<path d="M1025.92 2C1025.92 1.44772 1025.48 1 1024.92 1H30.4233C29.8711 1 29.4233 1.44772 29.4233 2V184H12.3533C11.8291 184 11.3939 184.405 11.3559 184.928L1.00281 327.406C0.960156 327.993 1.43123 328.49 2.01971 328.479L281.443 323.019C281.987 323.009 282.423 322.564 282.423 322.019V317.5C282.423 316.948 282.871 316.5 283.423 316.5H360.923C399.723 316.5 597.757 289.833 691.923 276.5H791.423C791.976 276.5 792.423 276.052 792.423 275.5V259.8C792.423 259.332 792.748 258.927 793.204 258.824L1100.64 189.676C1101.1 189.573 1101.42 189.168 1101.42 188.7V85C1101.42 84.4477 1100.98 84 1100.42 84H1026.92C1026.37 84 1025.92 83.5523 1025.92 83V2Z" fill="white"/>
<path d="M911.923 92H935.923V101.5H911.923H883.423V92H901.923H911.923Z" fill="white"/>
<path d="M441.923 285.5H428.423C427.871 285.5 427.423 285.052 427.423 284.5V280H414.923V260H427.423H441.923V285.5Z" fill="white"/>
<path d="M327.423 268V257H339.923V267C339.923 267.552 339.476 268 338.923 268H327.423Z" fill="white"/>
<path d="M477.423 193.5H487.423V231H477.423V193.5Z" fill="white"/>
<path d="M777.423 162.5V173.5H789.423C789.976 173.5 790.423 173.052 790.423 172.5V162.5H777.423Z" fill="white"/>
<path d="M29.4233 184H12.3533C11.8291 184 11.3939 184.405 11.3559 184.928L1.00281 327.406C0.960156 327.993 1.43123 328.49 2.01971 328.479L281.443 323.019C281.987 323.009 282.423 322.564 282.423 322.019V317.5C282.423 316.948 282.871 316.5 283.423 316.5H360.923C399.723 316.5 597.757 289.833 691.923 276.5H791.423C791.976 276.5 792.423 276.052 792.423 275.5V259.8C792.423 259.332 792.748 258.927 793.204 258.824L1100.64 189.676C1101.1 189.573 1101.42 189.168 1101.42 188.7V85C1101.42 84.4477 1100.98 84 1100.42 84H1026.92C1026.37 84 1025.92 83.5523 1025.92 83V2C1025.92 1.44772 1025.48 1 1024.92 1H30.4233C29.8711 1 29.4233 1.44772 29.4233 2V184ZM29.4233 184V191C29.4233 191.552 29.8711 192 30.4233 192H71.9233C72.4756 192 72.9233 191.552 72.9233 191V171M1026.92 157V206.5M1026.92 88V84.5M1026.92 134.5V122M1026.92 122V110.5C1026.92 109.948 1026.48 109.5 1025.92 109.5H975.423M1026.92 122H1016.42M1003.42 122H993.423M979.923 122H975.423M975.423 122V123M975.423 122V109.5M975.423 109.5V1.5M935.423 129.5H906.923M891.923 129.5H879.423M467.923 116V128.5C467.923 129.052 468.371 129.5 468.923 129.5H522.923M467.923 101.5V87C467.923 86.4477 468.371 86 468.923 86H480.923C481.476 86 481.923 85.5523 481.923 85V83M481.923 69.5V66C481.923 65.4477 481.476 65 480.923 65H467.923M454.423 65H446.923C446.371 65 445.923 65.4477 445.923 66V70.5M445.923 84.5V88C445.923 88.5523 445.476 89 444.923 89H365.923M537.423 129.5H522.923M522.923 129.5V84M522.923 1V84M522.923 84H567.923M567.923 84V129.5M567.923 84V47M615.423 129.5H567.923M567.923 129.5H550.423M567.923 34V1M608.423 1.5V18.5M696.423 129.5H693.423M693.423 129.5H629.923M693.423 129.5V1.5M757.923 129.5H741.423M741.423 129.5H710.423M741.423 129.5V87.5C741.423 86.9477 741.871 86.5 742.423 86.5H774.423C774.976 86.5 775.423 86.9477 775.423 87.5V92.5C775.423 93.0523 775.871 93.5 776.423 93.5H829.923C830.476 93.5 830.923 93.9477 830.923 94.5V102.5C830.923 103.052 831.371 103.5 831.923 103.5H857.923M857.923 103.5V129.5M857.923 103.5V92.5M866.423 129.5H857.923M857.923 129.5H770.423M857.923 92.5V1M857.923 92.5H830.923M858.423 92H868.423M881.423 92H883.423M883.423 92V101.5M883.423 92H901.923M911.923 92H935.923M911.923 92V101.5M911.923 92H901.923M935.923 92V101.5M935.923 92V81.5M911.923 129.5V101.5M911.923 101.5H883.423M911.923 101.5H935.923M883.423 129.5V101.5M935.923 101.5V117M935.923 21.5V1.5M901.923 92V53.5M901.923 1.5V53.5M901.923 53.5H935.923M935.923 63V53.5M935.923 53.5V41M999.923 109.5V122M770.923 1V17.5M6.42334 254.5H72.9233M72.9233 142V129M72.9233 129H29.4233M72.9233 129H75.4233M293.923 129H364.423C364.976 129 365.423 128.552 365.423 128V1M272.423 129H275.423M275.423 129H280.423M275.423 129V1M163.423 129H199.423M199.423 129H260.423M199.423 129V1M134.923 129H138.173M138.173 129H141.423M138.173 129V122.5C138.173 121.948 137.726 121.5 137.173 121.5H115.673M115.673 121.5H115.423M115.673 121.5V129M115.673 121.5V1M87.9233 129H92.4233M92.4233 129H96.9233M92.4233 129V120.5C92.4233 119.948 92.8711 119.5 93.4233 119.5H115.423M109.423 129H115.673M115.673 129H121.923M96.9233 163.5H93.4233C92.8711 163.5 92.4233 163.948 92.4233 164.5V171M92.4233 171V238M92.4233 171H87.9233M92.4233 171H113.923M85.9233 254.5H92.4233M92.4233 254.5V250.5M92.4233 254.5V258.5M92.4233 271.5V326.5M199.423 163.5V324M199.423 163.5H195.423M199.423 163.5H202.923M335.423 163.5H354.923M365.423 163.5H366.923C367.476 163.5 367.923 163.948 367.923 164.5V186.5M367.923 186.5H360.923M367.923 186.5H379.923M215.423 163.5H282.423M282.423 163.5H325.923M282.423 163.5V186.5M282.423 317V186.5M282.423 186.5H327.423M360.923 186.5V200M360.923 186.5H327.423M327.423 186.5V223M360.923 249V257M360.923 257V263M360.923 257H339.923M360.923 214V223M360.923 223V236M360.923 223H327.423M327.423 223V257M327.423 257V268M327.423 257H339.923M390.923 186.5H441.923M441.923 186.5V183M441.923 186.5V193.5M402.423 313.5V301.5M402.423 288.5V281C402.423 280.448 402.871 280 403.423 280H414.923M441.923 285.5V308.5M441.923 285.5H428.423C427.871 285.5 427.423 285.052 427.423 284.5V280M441.923 285.5V260M427.423 280V260M427.423 280H414.923M427.423 260H414.923M427.423 260H441.923M414.923 280V260M414.923 260H408.923C408.371 260 407.923 259.552 407.923 259V249M441.923 260V231M407.923 236V223M407.923 223V214M407.923 223H441.923M441.923 223V193.5M441.923 223V231M407.923 200V187.5M342.923 295.5H360.923M360.923 295.5V285.5M360.923 295.5V317M327.423 268V279M327.423 268H338.923C339.476 268 339.923 267.552 339.923 267V257M72.9233 171V155M72.9233 171H76.4233M113.923 171V163.5M113.923 171V192M109.423 163.5H113.923M113.923 163.5H182.423M441.923 171V163.5C441.923 162.948 442.371 162.5 442.923 162.5H477.423M525.923 162.5H538.923M525.923 162.5H477.423M525.923 162.5V193.5M484.423 304.5V285.5C484.423 284.948 484.871 284.5 485.423 284.5H486.423C486.976 284.5 487.423 284.052 487.423 283.5V231M526.423 193.5H525.923M525.923 193.5H518.423M525.923 193.5V237M507.923 193.5H487.423M487.423 193.5H477.423M487.423 193.5V231M487.423 193.5V193M477.423 193.5H463.423M477.423 193.5V189.5M477.423 193.5V231M441.923 193.5H452.923M477.423 162.5V180M477.423 231H487.423M477.423 231H461.923M441.923 231H452.923M525.923 237V298.5M525.923 237H567.923M567.923 237V162.5M567.923 237V269M567.923 157V162.5M567.923 162.5H551.423M567.923 162.5H617.423M567.923 282.5V292.5M952.923 162.5H1025.92M873.923 162.5H935.423M935.423 162.5H940.923M935.423 162.5V228.5M825.923 162.5H854.923M854.923 162.5H859.923M854.923 162.5V188M854.923 188V245.5M854.923 188H778.423C777.871 188 777.423 187.552 777.423 187V173.5M710.423 162.5H777.423M777.423 162.5V173.5M777.423 162.5H790.423M777.423 173.5H789.423C789.976 173.5 790.423 173.052 790.423 172.5V162.5M790.423 162.5H812.923M629.423 162.5H692.923M692.923 162.5H697.923M692.923 162.5V276" stroke="#BFC4C8" stroke-width="2" stroke-linecap="round" stroke-linejoin="round"/>
<path d="M952.603 81.9425L952.598 81.5105C952.594 81.2065 952.511 80.9756 952.348 80.8177C952.186 80.6598 951.917 80.5473 951.54 80.4802C951.163 80.4052 950.626 80.3642 949.93 80.3573L945.585 80.3062L945.508 74.3787L953.667 74.2719L953.685 75.6398L946.713 75.731L946.757 79.0307L950.129 79.0706C951.082 79.0821 951.819 79.1565 952.341 79.2937C952.854 79.4229 953.229 79.6501 953.466 79.975C953.694 80.292 953.812 80.7545 953.82 81.3625L953.827 81.9264L952.603 81.9425ZM950.751 71.5642C951.407 71.5557 951.863 71.5537 952.119 71.5583L947.386 68.416L947.367 66.9881L953.57 66.9069L953.587 68.1428L950.251 68.1865C949.619 68.1948 949.171 68.1966 948.907 68.1921L953.628 71.3226L953.647 72.7624L947.444 72.8436L947.428 71.6078L950.751 71.5642ZM953.544 62.1027L953.545 62.2346C953.561 63.4425 953.325 64.3297 952.836 64.8962C952.339 65.4627 951.539 65.7532 950.435 65.7677C949.331 65.7821 948.528 65.5126 948.025 64.9591C947.513 64.4058 947.25 63.5252 947.234 62.3173L947.232 62.1853L944.988 62.2147L944.971 60.9188L947.215 60.8894L947.213 60.7574C947.198 59.5415 947.438 58.6503 947.935 58.0837C948.423 57.5173 949.219 57.2268 950.323 57.2124C951.427 57.1979 952.235 57.4674 952.746 58.0207C953.249 58.5742 953.509 59.4589 953.525 60.6748L953.527 60.8068L955.89 60.7758L955.907 62.0717L953.544 62.1027ZM950.418 64.4598C951.226 64.4492 951.784 64.2659 952.091 63.9098C952.399 63.5538 952.547 63.0118 952.538 62.2838L952.535 62.0919L948.24 62.1481L948.242 62.3401C948.252 63.068 948.415 63.6059 948.731 63.9538C949.048 64.3017 949.61 64.4704 950.418 64.4598ZM952.516 60.64C952.507 59.912 952.344 59.3741 952.027 59.0262C951.711 58.6784 951.148 58.5097 950.34 58.5203C949.533 58.5309 948.975 58.7142 948.667 59.0702C948.36 59.4263 948.211 59.9683 948.221 60.6962L948.223 60.8882L952.519 60.832L952.516 60.64ZM948.282 54.3905L948.312 56.6343L947.232 56.6484L947.156 50.8529L948.236 50.8388L948.265 53.0826L953.389 53.0155L953.406 54.3234L948.282 54.3905ZM953.43 46.9844C953.443 48.0003 953.193 48.7876 952.681 49.3464C952.168 49.9051 951.435 50.1907 950.484 50.2032L950.016 50.2093C949.064 50.2218 948.324 49.9554 947.797 49.4103C947.27 48.8652 947 48.0846 946.986 47.0687C946.973 46.0448 947.223 45.2575 947.735 44.7067C948.24 44.148 948.972 43.8624 949.932 43.8499L950.4 43.8437C951.36 43.8312 952.104 44.0975 952.631 44.6426C953.15 45.1799 953.416 45.9604 953.43 46.9844ZM950.358 48.8847C951.086 48.8752 951.612 48.7123 951.936 48.396C952.26 48.0798 952.418 47.6137 952.41 46.9977C952.402 46.3818 952.232 45.9199 951.9 45.6123C951.567 45.2966 951.037 45.1435 950.309 45.153L950.057 45.1563C949.33 45.1659 948.804 45.3328 948.48 45.657C948.156 45.9733 947.998 46.4394 948.006 47.0554C948.014 47.6713 948.184 48.1331 948.516 48.4408C948.848 48.7485 949.378 48.8976 950.106 48.888L950.358 48.8847ZM947.049 42.6939L947.003 39.1902C946.995 38.5342 947.12 38.0326 947.379 37.6851C947.639 37.3297 948.032 37.1485 948.56 37.1416C949.272 37.1323 949.753 37.45 950.001 38.0948C950.084 37.7257 950.252 37.4395 950.506 37.2362C950.751 37.0249 951.058 36.9169 951.426 36.9121C952.002 36.9046 952.44 37.0788 952.741 37.4349C953.041 37.791 953.196 38.325 953.206 39.037L953.252 42.6127L947.049 42.6939ZM952.271 39.1812C952.263 38.5173 951.966 38.1891 951.382 38.1968C951.087 38.2006 950.868 38.2835 950.726 38.4454C950.584 38.5993 950.515 38.8562 950.52 39.2162L950.548 41.376L952.3 41.353L952.271 39.1812ZM949.609 39.3241C949.605 38.9881 949.53 38.7451 949.384 38.595C949.238 38.4449 949.029 38.3716 948.757 38.3752C948.205 38.3824 947.933 38.71 947.941 39.3579L947.968 41.4097L949.636 41.3879L949.609 39.3241ZM953.245 32.8762C953.258 33.8921 953.009 34.6794 952.496 35.2382C951.983 35.797 951.251 36.0826 950.299 36.095L949.831 36.1012C948.879 36.1136 948.139 35.8473 947.612 35.3021C947.085 34.757 946.815 33.9765 946.802 32.9605C946.788 31.9366 947.038 31.1493 947.551 30.5985C948.055 30.0399 948.788 29.7543 949.748 29.7417L950.216 29.7356C951.176 29.723 951.919 29.9893 952.446 30.5344C952.965 31.0717 953.232 31.8523 953.245 32.8762ZM950.174 34.7766C950.902 34.767 951.427 34.6041 951.751 34.2879C952.075 33.9716 952.233 33.5055 952.225 32.8895C952.217 32.2736 952.047 31.8118 951.715 31.5041C951.383 31.1884 950.853 31.0353 950.125 31.0449L949.873 31.0482C949.145 31.0577 948.619 31.2246 948.295 31.5489C947.971 31.8651 947.813 32.3312 947.821 32.9472C947.83 33.5631 948 34.025 948.332 34.3326C948.664 34.6403 949.194 34.7894 949.922 34.7799L950.174 34.7766ZM950.172 27.3063C950.828 27.2977 951.284 27.2958 951.54 27.3004L946.806 24.1581L946.788 22.7302L952.991 22.649L953.007 23.8849L949.672 23.9286C949.04 23.9368 948.592 23.9387 948.328 23.9342L953.049 27.0646L953.068 28.5045L946.864 28.5857L946.848 27.3498L950.172 27.3063ZM944.905 26.4992L944.965 26.4984C945.205 26.4953 945.38 26.433 945.49 26.3115C945.593 26.1822 945.642 25.9735 945.638 25.6855C945.634 25.3895 945.58 25.1822 945.474 25.0636C945.36 24.9371 945.184 24.8754 944.944 24.8785L944.884 24.8793L944.869 23.7994C945.397 23.7925 945.783 23.9315 946.027 24.2163C946.263 24.4932 946.385 24.9797 946.394 25.6756C946.403 26.3716 946.29 26.8611 946.053 27.1442C945.817 27.4273 945.439 27.5723 944.919 27.5791L944.905 26.4992ZM962.997 66.4114L965.585 67.9376L965.604 69.3775L962.373 67.3196L959.399 69.3267L959.379 67.8268L961.736 66.3559L959.341 64.9231L959.322 63.4832L962.348 65.4598L965.525 63.33L965.544 64.8299L962.997 66.4114ZM965.599 59.8281C965.612 60.844 965.362 61.6314 964.85 62.1901C964.337 62.7489 963.605 63.0345 962.653 63.047L962.185 63.0531C961.233 63.0655 960.493 62.7992 959.966 62.2541C959.439 61.7089 959.169 60.9284 959.155 59.9125C959.142 58.8886 959.392 58.1012 959.905 57.5505C960.409 56.9918 961.142 56.7062 962.102 56.6936L962.569 56.6875C963.529 56.6749 964.273 56.9412 964.8 57.4864C965.319 58.0236 965.585 58.8042 965.599 59.8281ZM962.527 61.7285C963.255 61.719 963.781 61.5561 964.105 61.2398C964.429 60.9235 964.587 60.4574 964.579 59.8415C964.571 59.2255 964.401 58.7637 964.069 58.456C963.737 58.1403 963.207 57.9873 962.479 57.9968L962.227 58.0001C961.499 58.0096 960.973 58.1765 960.649 58.5008C960.325 58.8171 960.167 59.2832 960.175 59.8991C960.183 60.5151 960.353 60.9769 960.686 61.2846C961.018 61.5922 961.548 61.7413 962.275 61.7318L962.527 61.7285ZM964.387 56.1992L964.383 55.8993C964.379 55.5553 964.248 55.309 963.99 55.1603C963.724 55.0118 963.271 54.9337 962.63 54.9261L959.21 54.8869L959.143 49.7753L965.346 49.6941L965.363 50.99L960.24 51.0571L960.275 53.7448L962.759 53.7723C963.44 53.7874 963.977 53.8564 964.37 53.9793C964.756 54.1022 965.039 54.3065 965.218 54.5922C965.39 54.87 965.479 55.2529 965.485 55.7408L965.491 56.1848L964.387 56.1992ZM964.291 48.8522L964.287 48.5522C964.283 48.2083 964.151 47.962 963.893 47.8133C963.627 47.6648 963.174 47.5867 962.534 47.5791L959.113 47.5399L959.047 42.4283L965.25 42.3471L965.267 43.643L960.143 43.7101L960.179 46.3978L962.663 46.4253C963.343 46.4404 963.88 46.5094 964.274 46.6322C964.66 46.7552 964.942 46.9595 965.122 47.2452C965.294 47.523 965.383 47.9058 965.389 48.3938L965.395 48.8377L964.291 48.8522ZM964.111 38.7749C963.077 37.3803 962.263 36.3429 961.67 35.6626C961.069 34.9744 960.595 34.5166 960.248 34.2891C959.893 34.0617 959.548 33.9502 959.212 33.9546C958.772 33.9604 958.458 34.1085 958.269 34.399C958.073 34.6816 957.978 35.0629 957.984 35.5428C957.991 36.0868 958.117 36.5252 958.362 36.858C958.606 37.1908 959.006 37.4856 959.561 37.7424L959.108 38.8884C958.36 38.5862 957.803 38.1574 957.435 37.6022C957.06 37.0471 956.867 36.3455 956.856 35.4976C956.844 34.6177 957.031 33.9192 957.416 33.4021C957.793 32.8771 958.366 32.6096 959.134 32.5995C959.614 32.5933 960.071 32.7113 960.507 32.9536C960.942 33.1959 961.436 33.6255 961.988 34.2423C962.532 34.8592 963.207 35.7465 964.015 36.904L963.957 32.5004L965.121 32.4852L965.203 38.7606L964.111 38.7749Z" fill="#172736"/>
<path d="M384.603 282.942L384.598 282.51C384.594 282.207 384.511 281.976 384.348 281.818C384.186 281.66 383.917 281.547 383.54 281.48C383.163 281.405 382.626 281.364 381.93 281.357L377.585 281.306L377.508 275.379L385.667 275.272L385.685 276.64L378.713 276.731L378.757 280.031L382.129 280.071C383.082 280.082 383.819 280.156 384.341 280.294C384.854 280.423 385.229 280.65 385.466 280.975C385.694 281.292 385.812 281.755 385.82 282.362L385.827 282.926L384.603 282.942ZM382.751 272.564C383.407 272.556 383.863 272.554 384.119 272.558L379.386 269.416L379.367 267.988L385.57 267.907L385.587 269.143L382.251 269.187C381.619 269.195 381.171 269.197 380.907 269.192L385.628 272.323L385.647 273.762L379.444 273.844L379.428 272.608L382.751 272.564ZM385.544 263.103L385.545 263.235C385.561 264.443 385.325 265.33 384.836 265.896C384.339 266.463 383.539 266.753 382.435 266.768C381.331 266.782 380.528 266.513 380.025 265.959C379.513 265.406 379.25 264.525 379.234 263.317L379.232 263.185L376.988 263.215L376.971 261.919L379.215 261.889L379.213 261.757C379.198 260.542 379.438 259.65 379.935 259.084C380.423 258.517 381.219 258.227 382.323 258.212C383.427 258.198 384.235 258.467 384.746 259.021C385.249 259.574 385.509 260.459 385.525 261.675L385.527 261.807L387.89 261.776L387.907 263.072L385.544 263.103ZM382.418 265.46C383.226 265.449 383.784 265.266 384.091 264.91C384.399 264.554 384.547 264.012 384.538 263.284L384.535 263.092L380.24 263.148L380.242 263.34C380.252 264.068 380.415 264.606 380.731 264.954C381.048 265.302 381.61 265.47 382.418 265.46ZM384.516 261.64C384.507 260.912 384.344 260.374 384.027 260.026C383.711 259.678 383.148 259.51 382.34 259.52C381.533 259.531 380.975 259.714 380.667 260.07C380.36 260.426 380.211 260.968 380.221 261.696L380.223 261.888L384.519 261.832L384.516 261.64ZM380.282 255.39L380.312 257.634L379.232 257.648L379.156 251.853L380.236 251.839L380.265 254.083L385.389 254.016L385.406 255.323L380.282 255.39ZM385.43 247.984C385.443 249 385.193 249.788 384.681 250.346C384.168 250.905 383.435 251.191 382.484 251.203L382.016 251.209C381.064 251.222 380.324 250.955 379.797 250.41C379.27 249.865 379 249.085 378.986 248.069C378.973 247.045 379.223 246.257 379.735 245.707C380.24 245.148 380.972 244.862 381.932 244.85L382.4 244.844C383.36 244.831 384.104 245.097 384.631 245.643C385.15 246.18 385.416 246.96 385.43 247.984ZM382.358 249.885C383.086 249.875 383.612 249.712 383.936 249.396C384.26 249.08 384.418 248.614 384.41 247.998C384.402 247.382 384.232 246.92 383.9 246.612C383.567 246.297 383.037 246.144 382.309 246.153L382.057 246.156C381.33 246.166 380.804 246.333 380.48 246.657C380.156 246.973 379.998 247.439 380.006 248.055C380.014 248.671 380.184 249.133 380.516 249.441C380.848 249.748 381.378 249.898 382.106 249.888L382.358 249.885ZM379.049 243.694L379.003 240.19C378.995 239.534 379.12 239.033 379.379 238.685C379.639 238.33 380.032 238.149 380.56 238.142C381.272 238.132 381.753 238.45 382.001 239.095C382.084 238.726 382.252 238.44 382.506 238.236C382.751 238.025 383.058 237.917 383.426 237.912C384.002 237.905 384.44 238.079 384.741 238.435C385.041 238.791 385.196 239.325 385.206 240.037L385.252 243.613L379.049 243.694ZM384.271 240.181C384.263 239.517 383.966 239.189 383.382 239.197C383.087 239.201 382.868 239.284 382.726 239.445C382.584 239.599 382.515 239.856 382.52 240.216L382.548 242.376L384.3 242.353L384.271 240.181ZM381.609 240.324C381.605 239.988 381.53 239.745 381.384 239.595C381.238 239.445 381.029 239.372 380.757 239.375C380.205 239.382 379.933 239.71 379.941 240.358L379.968 242.41L381.636 242.388L381.609 240.324ZM385.245 233.876C385.258 234.892 385.009 235.679 384.496 236.238C383.983 236.797 383.251 237.083 382.299 237.095L381.831 237.101C380.879 237.114 380.139 236.847 379.612 236.302C379.085 235.757 378.815 234.976 378.802 233.961C378.788 232.937 379.038 232.149 379.551 231.599C380.055 231.04 380.788 230.754 381.748 230.742L382.216 230.736C383.176 230.723 383.919 230.989 384.446 231.534C384.965 232.072 385.232 232.852 385.245 233.876ZM382.174 235.777C382.902 235.767 383.427 235.604 383.751 235.288C384.075 234.972 384.233 234.505 384.225 233.89C384.217 233.274 384.047 232.812 383.715 232.504C383.383 232.188 382.853 232.035 382.125 232.045L381.873 232.048C381.145 232.058 380.619 232.225 380.295 232.549C379.971 232.865 379.813 233.331 379.821 233.947C379.83 234.563 380 235.025 380.332 235.333C380.664 235.64 381.194 235.789 381.922 235.78L382.174 235.777ZM382.172 228.306C382.828 228.298 383.284 228.296 383.54 228.3L378.806 225.158L378.788 223.73L384.991 223.649L385.007 224.885L381.672 224.929C381.04 224.937 380.592 224.939 380.328 224.934L385.049 228.065L385.068 229.505L378.864 229.586L378.848 228.35L382.172 228.306ZM376.905 227.499L376.965 227.498C377.205 227.495 377.38 227.433 377.49 227.312C377.593 227.182 377.642 226.973 377.638 226.686C377.634 226.39 377.58 226.182 377.474 226.064C377.36 225.937 377.184 225.875 376.944 225.879L376.884 225.879L376.869 224.799C377.397 224.793 377.783 224.931 378.027 225.216C378.263 225.493 378.385 225.98 378.394 226.676C378.403 227.372 378.29 227.861 378.053 228.144C377.817 228.427 377.439 228.572 376.919 228.579L376.905 227.499ZM394.978 265.947L397.566 267.473L397.585 268.913L394.353 266.855L391.379 268.862L391.36 267.362L393.717 265.891L391.322 264.458L391.303 263.018L394.329 264.995L397.506 262.865L397.525 264.365L394.978 265.947ZM397.58 259.363C397.593 260.379 397.343 261.167 396.831 261.725C396.318 262.284 395.585 262.57 394.634 262.582L394.166 262.588C393.214 262.601 392.474 262.334 391.947 261.789C391.42 261.244 391.15 260.464 391.136 259.448C391.123 258.424 391.373 257.637 391.885 257.086C392.39 256.527 393.122 256.241 394.082 256.229L394.55 256.223C395.51 256.21 396.254 256.477 396.781 257.022C397.3 257.559 397.566 258.339 397.58 259.363ZM394.508 261.264C395.236 261.254 395.762 261.091 396.086 260.775C396.41 260.459 396.568 259.993 396.56 259.377C396.552 258.761 396.382 258.299 396.05 257.991C395.717 257.676 395.187 257.523 394.459 257.532L394.207 257.535C393.48 257.545 392.954 257.712 392.63 258.036C392.306 258.352 392.148 258.818 392.156 259.434C392.164 260.05 392.334 260.512 392.666 260.82C392.998 261.128 393.528 261.277 394.256 261.267L394.508 261.264ZM396.368 255.735L396.364 255.435C396.36 255.091 396.228 254.844 395.97 254.696C395.704 254.547 395.251 254.469 394.611 254.461L391.19 254.422L391.124 249.311L397.327 249.229L397.344 250.525L392.22 250.592L392.256 253.28L394.74 253.308C395.42 253.323 395.957 253.392 396.351 253.515C396.737 253.638 397.019 253.842 397.199 254.127C397.371 254.405 397.46 254.788 397.466 255.276L397.472 255.72L396.368 255.735ZM396.272 248.387L396.268 248.088C396.263 247.744 396.132 247.497 395.874 247.349C395.608 247.2 395.155 247.122 394.515 247.114L391.094 247.075L391.027 241.964L397.231 241.882L397.248 243.178L392.124 243.245L392.159 245.933L394.644 245.961C395.324 245.976 395.861 246.045 396.255 246.168C396.64 246.29 396.923 246.495 397.103 246.78C397.275 247.058 397.364 247.441 397.37 247.929L397.376 248.373L396.272 248.387ZM390.742 236.64C391.123 237.035 391.338 237.592 391.388 238.312L390.188 238.327C390.151 237.368 389.754 236.709 388.998 236.351L388.984 235.319L397.144 235.212L397.161 236.556L390.742 236.64Z" fill="#172736"/>
<path d="M399.095 103.43L399.487 103.424C399.684 103.421 399.844 103.395 399.966 103.345C400.093 103.29 400.201 103.205 400.29 103.092C400.379 102.973 400.475 102.801 400.578 102.576L400.058 102.583L398.098 98.7959L399.146 98.7804L400.771 102.085L402.178 98.7357L403.178 98.721L401.42 102.707C401.234 103.105 401.06 103.409 400.898 103.619C400.735 103.83 400.551 103.982 400.344 104.075C400.143 104.164 399.885 104.21 399.57 104.215L399.106 104.222L399.095 103.43ZM404.742 100.722L403.246 100.744L403.235 100.024L407.099 99.9673L407.109 100.687L405.613 100.709L405.664 104.125L404.792 104.138L404.742 100.722ZM408.637 102.161C408.644 102.598 408.645 102.902 408.643 103.073L410.732 99.9137L411.684 99.8997L411.745 104.035L410.921 104.047L410.888 101.824C410.882 101.402 410.881 101.104 410.883 100.928L408.801 104.079L407.842 104.093L407.781 99.9572L408.605 99.9451L408.637 102.161ZM412.306 103.331L412.506 103.328C412.735 103.325 412.899 103.237 412.998 103.065C413.097 102.887 413.148 102.585 413.152 102.158L413.175 99.8777L416.582 99.8275L416.643 103.963L415.78 103.976L415.729 100.56L413.937 100.587L413.922 102.243C413.912 102.696 413.867 103.055 413.786 103.317C413.704 103.574 413.568 103.763 413.378 103.883C413.193 103.998 412.938 104.058 412.612 104.062L412.317 104.067L412.306 103.331ZM418.417 102.017C418.424 102.454 418.426 102.758 418.423 102.929L420.512 99.7695L421.464 99.7555L421.525 103.891L420.701 103.903L420.669 101.679C420.662 101.258 420.661 100.959 420.663 100.783L418.582 103.934L417.622 103.949L417.561 99.813L418.385 99.8009L418.417 102.017ZM424.161 103.932C423.692 103.939 423.288 103.862 422.95 103.702C422.616 103.542 422.362 103.311 422.187 103.009L422.814 102.648C423.13 103.07 423.583 103.277 424.175 103.268C424.858 103.258 425.196 103.034 425.189 102.597C425.187 102.41 425.129 102.272 425.015 102.183C424.907 102.094 424.731 102.052 424.485 102.055L423.406 102.071L423.397 101.463L424.436 101.448C424.906 101.441 425.138 101.248 425.132 100.87C425.126 100.48 424.798 100.29 424.148 100.3C423.577 100.308 423.145 100.525 422.853 100.951L422.208 100.601C422.379 100.305 422.635 100.072 422.974 99.9012C423.318 99.7308 423.714 99.6423 424.162 99.6357C424.722 99.6274 425.158 99.717 425.47 99.9044C425.782 100.092 425.941 100.375 425.946 100.754C425.95 100.967 425.896 101.16 425.787 101.332C425.677 101.504 425.511 101.632 425.289 101.715C425.776 101.825 426.023 102.139 426.03 102.656C426.036 103.051 425.873 103.36 425.54 103.584C425.213 103.807 424.753 103.923 424.161 103.932ZM428.097 103.866C427.622 103.873 427.247 103.777 426.972 103.579C426.697 103.375 426.557 103.086 426.551 102.713C426.545 102.286 426.69 101.969 426.986 101.762C427.281 101.555 427.741 101.447 428.365 101.438L429.525 101.421L429.521 101.141C429.516 100.826 429.435 100.598 429.279 100.456C429.127 100.309 428.886 100.238 428.555 100.243C428.283 100.247 428.041 100.304 427.83 100.414C427.623 100.518 427.457 100.665 427.332 100.853L426.719 100.494C426.885 100.209 427.133 99.9866 427.461 99.8271C427.789 99.6676 428.156 99.5848 428.561 99.5788C429.127 99.5705 429.563 99.6867 429.871 99.9276C430.178 100.168 430.336 100.561 430.344 101.105L430.383 103.76L429.591 103.772L429.581 103.092C429.452 103.345 429.255 103.537 428.99 103.669C428.73 103.795 428.433 103.861 428.097 103.866ZM427.382 102.637C427.385 102.834 427.468 102.979 427.629 103.073C427.79 103.161 428.004 103.203 428.271 103.2C428.644 103.194 428.95 103.109 429.187 102.946C429.425 102.777 429.541 102.549 429.537 102.261L429.533 101.997L428.397 102.014C428.045 102.019 427.788 102.073 427.624 102.177C427.46 102.281 427.379 102.434 427.382 102.637ZM431.262 99.611L432.126 99.5983L432.177 103.014L434.248 102.983L434.198 99.5677L435.062 99.555L435.112 102.971L435.704 102.962L435.73 104.706L434.906 104.718L434.891 103.694L431.323 103.747L431.262 99.611ZM437.142 101.741C437.148 102.178 437.15 102.482 437.147 102.653L439.237 99.4934L440.189 99.4794L440.25 103.615L439.426 103.627L439.393 101.403C439.387 100.982 439.385 100.683 439.388 100.507L437.306 103.658L436.346 103.672L436.285 99.5369L437.109 99.5248L437.142 101.741ZM442.166 102.043C441.797 101.995 441.515 101.865 441.32 101.655C441.125 101.444 441.024 101.153 441.019 100.779C441.013 100.347 441.138 100.02 441.397 99.7976C441.66 99.5697 442.037 99.4521 442.527 99.4449L444.791 99.4115L444.852 103.547L444.012 103.559L443.99 102.04L443.086 102.053L441.989 103.589L440.957 103.605L442.166 102.043ZM441.883 100.767C441.889 101.199 442.132 101.411 442.612 101.404L443.98 101.384L443.961 100.08L442.593 100.1C442.113 100.107 441.876 100.329 441.883 100.767ZM400.641 112.28C399.953 112.29 399.426 112.124 399.058 111.783C398.695 111.442 398.509 110.927 398.499 110.239L398.491 109.687C398.48 108.925 398.548 108.326 398.696 107.892C398.845 107.458 399.088 107.137 399.426 106.929C399.765 106.716 400.235 106.584 400.837 106.532C401.476 106.486 402.017 106.454 402.459 106.436L402.471 107.22C401.863 107.24 401.341 107.264 400.904 107.291C400.494 107.319 400.169 107.396 399.931 107.522C399.693 107.648 399.52 107.84 399.412 108.098C399.303 108.35 399.242 108.697 399.227 109.14L399.228 109.212C399.351 108.885 399.561 108.639 399.857 108.475C400.159 108.305 400.504 108.217 400.893 108.212C401.485 108.203 401.936 108.356 402.244 108.672C402.553 108.982 402.712 109.446 402.721 110.065L402.725 110.321C402.734 110.94 402.557 111.42 402.194 111.761C401.836 112.097 401.319 112.27 400.641 112.28ZM399.372 110.282C399.379 110.752 399.488 111.091 399.699 111.302C399.91 111.507 400.221 111.606 400.631 111.6C401.042 111.594 401.347 111.485 401.547 111.274C401.752 111.063 401.851 110.726 401.844 110.262L401.842 110.15C401.835 109.681 401.729 109.346 401.523 109.147C401.318 108.947 401.012 108.85 400.607 108.856C400.207 108.862 399.899 108.97 399.684 109.182C399.468 109.393 399.364 109.72 399.37 110.162L399.372 110.282ZM403.707 113.011L404.011 113.006C404.192 113.004 404.336 112.975 404.441 112.92C404.553 112.87 404.647 112.781 404.726 112.652C404.804 112.528 404.886 112.34 404.973 112.088L404.557 112.094L402.993 108.029L403.945 108.015L405.18 111.493L405.188 111.493L406.281 107.98L407.201 107.967L405.751 112.221C405.624 112.606 405.492 112.907 405.357 113.122C405.221 113.338 405.058 113.495 404.867 113.594C404.677 113.693 404.438 113.744 404.15 113.748L403.718 113.755L403.707 113.011ZM409.076 107.939L410.524 111.158L411.868 107.898L413.1 107.88L413.16 112.015L412.321 112.028L412.28 108.732L410.897 112.049L410.137 112.06L408.664 108.785L408.656 108.785L408.713 112.081L407.897 112.093L407.836 107.957L409.076 107.939ZM415.403 112.054C414.929 112.061 414.554 111.965 414.279 111.767C414.004 111.563 413.864 111.274 413.858 110.901C413.852 110.474 413.997 110.157 414.292 109.95C414.588 109.743 415.048 109.635 415.672 109.626L416.832 109.609L416.827 109.329C416.823 109.014 416.742 108.786 416.585 108.644C416.434 108.497 416.193 108.426 415.862 108.431C415.59 108.435 415.348 108.492 415.137 108.602C414.93 108.706 414.764 108.853 414.639 109.041L414.026 108.682C414.192 108.397 414.44 108.175 414.768 108.015C415.096 107.856 415.463 107.773 415.868 107.767C416.434 107.759 416.87 107.875 417.178 108.116C417.485 108.356 417.643 108.749 417.651 109.293L417.69 111.948L416.898 111.96L416.888 111.28C416.759 111.533 416.561 111.725 416.297 111.857C416.037 111.983 415.739 112.049 415.403 112.054ZM414.689 110.825C414.692 111.022 414.774 111.167 414.936 111.261C415.097 111.349 415.311 111.391 415.578 111.388C415.951 111.382 416.256 111.298 416.494 111.134C416.732 110.965 416.848 110.737 416.844 110.449L416.84 110.185L415.704 110.202C415.352 110.207 415.094 110.261 414.931 110.365C414.767 110.469 414.686 110.622 414.689 110.825ZM418.569 107.799L421.457 107.756L421.468 108.476L419.444 108.506L419.494 111.922L418.63 111.935L418.569 107.799ZM422.98 109.95C422.987 110.388 422.988 110.692 422.986 110.862L425.075 107.703L426.027 107.689L426.088 111.825L425.264 111.837L425.231 109.613C425.225 109.192 425.223 108.893 425.226 108.717L423.144 111.868L422.185 111.882L422.124 107.747L422.947 107.734L422.98 109.95Z" fill="#172736"/>
<path d="M393.923 101.722C393.923 104.207 391.909 106.222 389.423 106.222C386.938 106.222 384.923 104.207 384.923 101.722C384.923 99.2369 386.938 97.2222 389.423 97.2222C391.909 97.2222 393.923 99.2369 393.923 101.722Z" fill="#73E553"/>
<rect x="364.923" y="1.5" width="36" height="86" fill="#33D18F" fill-opacity="0.2" stroke="#33D18F" stroke-opacity="0.2" stroke-width="2.5" stroke-linejoin="round"/>
<path d="M369.183 47.8122H371.423V50.5322H370.967V48.2082H369.639V50.5322H369.183V47.8122ZM372.889 50.5722C372.556 50.5722 372.297 50.4856 372.113 50.3122C371.932 50.1389 371.841 49.8936 371.841 49.5762V49.4202C371.841 49.1029 371.933 48.8576 372.117 48.6842C372.301 48.5109 372.557 48.4242 372.885 48.4242C373.21 48.4242 373.456 48.5096 373.621 48.6802C373.789 48.8482 373.873 49.0896 373.873 49.4042C373.873 49.4922 373.87 49.5616 373.865 49.6122L372.265 49.5842C372.268 50.0162 372.48 50.2322 372.901 50.2322C373.146 50.2322 373.353 50.1362 373.521 49.9442L373.805 50.1882C373.717 50.3056 373.594 50.3989 373.437 50.4682C373.28 50.5376 373.097 50.5722 372.889 50.5722ZM373.453 49.3082C373.45 49.1269 373.402 48.9896 373.309 48.8962C373.216 48.8002 373.076 48.7522 372.889 48.7522C372.705 48.7522 372.557 48.8016 372.445 48.9002C372.336 48.9989 372.276 49.1482 372.265 49.3482L373.453 49.3082ZM374.245 48.4642H374.677V48.7882C374.741 48.6789 374.835 48.5922 374.957 48.5282C375.083 48.4616 375.232 48.4282 375.405 48.4282C375.707 48.4282 375.936 48.5176 376.093 48.6962C376.253 48.8722 376.333 49.1136 376.333 49.4202V49.5762C376.333 49.8829 376.253 50.1256 376.093 50.3042C375.936 50.4802 375.707 50.5682 375.405 50.5682C375.232 50.5682 375.083 50.5362 374.957 50.4722C374.835 50.4082 374.741 50.3229 374.677 50.2162V51.3322H374.245V48.4642ZM374.665 49.5442C374.665 49.7789 374.719 49.9522 374.825 50.0642C374.935 50.1736 375.088 50.2282 375.285 50.2282C375.691 50.2282 375.893 50.0002 375.893 49.5442V49.4482C375.893 48.9949 375.691 48.7682 375.285 48.7682C375.093 48.7682 374.941 48.8242 374.829 48.9362C374.72 49.0456 374.665 49.2162 374.665 49.4482V49.5442ZM377.686 50.5722C377.353 50.5722 377.094 50.4856 376.91 50.3122C376.729 50.1389 376.638 49.8936 376.638 49.5762V49.4202C376.638 49.1029 376.73 48.8576 376.914 48.6842C377.098 48.5109 377.354 48.4242 377.682 48.4242C378.007 48.4242 378.253 48.5096 378.418 48.6802C378.586 48.8482 378.67 49.0896 378.67 49.4042C378.67 49.4922 378.667 49.5616 378.662 49.6122L377.062 49.5842C377.065 50.0162 377.277 50.2322 377.698 50.2322C377.943 50.2322 378.15 50.1362 378.318 49.9442L378.602 50.1882C378.514 50.3056 378.391 50.3989 378.234 50.4682C378.077 50.5376 377.894 50.5722 377.686 50.5722ZM378.25 49.3082C378.247 49.1269 378.199 48.9896 378.106 48.8962C378.013 48.8002 377.873 48.7522 377.686 48.7522C377.502 48.7522 377.354 48.8016 377.242 48.9002C377.133 48.9989 377.073 49.1482 377.062 49.3482L378.25 49.3082ZM379.042 48.4642H380.486V48.8242H379.474V50.5322H379.042V48.4642ZM381.741 50.5722C381.402 50.5722 381.141 50.4856 380.957 50.3122C380.773 50.1389 380.681 49.8936 380.681 49.5762V49.4202C380.681 49.1029 380.773 48.8576 380.957 48.6842C381.141 48.5109 381.402 48.4242 381.741 48.4242C382.082 48.4242 382.343 48.5109 382.525 48.6842C382.709 48.8549 382.801 49.1002 382.801 49.4202V49.5762C382.801 49.8962 382.709 50.1429 382.525 50.3162C382.343 50.4869 382.082 50.5722 381.741 50.5722ZM381.121 49.5402C381.121 49.7829 381.173 49.9589 381.277 50.0682C381.381 50.1776 381.535 50.2322 381.741 50.2322C381.946 50.2322 382.101 50.1776 382.205 50.0682C382.311 49.9589 382.365 49.7829 382.365 49.5402V49.4562C382.365 49.2136 382.311 49.0376 382.205 48.9282C382.101 48.8189 381.946 48.7642 381.741 48.7642C381.535 48.7642 381.381 48.8189 381.277 48.9282C381.173 49.0376 381.121 49.2136 381.121 49.4562V49.5402ZM383.199 48.4642H384.367C384.585 48.4642 384.752 48.5082 384.867 48.5962C384.984 48.6842 385.043 48.8162 385.043 48.9922C385.043 49.2296 384.935 49.3882 384.719 49.4682C384.841 49.4976 384.936 49.5549 385.003 49.6402C385.072 49.7229 385.107 49.8256 385.107 49.9482C385.107 50.1402 385.047 50.2856 384.927 50.3842C384.807 50.4829 384.628 50.5322 384.391 50.5322H383.199V48.4642ZM384.347 50.2202C384.568 50.2202 384.679 50.1229 384.679 49.9282C384.679 49.8296 384.652 49.7562 384.599 49.7082C384.548 49.6602 384.463 49.6362 384.343 49.6362H383.623V50.2202H384.347ZM384.311 49.3322C384.423 49.3322 384.504 49.3082 384.555 49.2602C384.605 49.2122 384.631 49.1429 384.631 49.0522C384.631 48.8682 384.523 48.7762 384.307 48.7762H383.623V49.3322H384.311ZM386.444 50.5722C386.105 50.5722 385.844 50.4856 385.66 50.3122C385.476 50.1389 385.384 49.8936 385.384 49.5762V49.4202C385.384 49.1029 385.476 48.8576 385.66 48.6842C385.844 48.5109 386.105 48.4242 386.444 48.4242C386.785 48.4242 387.047 48.5109 387.228 48.6842C387.412 48.8549 387.504 49.1002 387.504 49.4202V49.5762C387.504 49.8962 387.412 50.1429 387.228 50.3162C387.047 50.4869 386.785 50.5722 386.444 50.5722ZM385.824 49.5402C385.824 49.7829 385.876 49.9589 385.98 50.0682C386.084 50.1776 386.239 50.2322 386.444 50.2322C386.649 50.2322 386.804 50.1776 386.908 50.0682C387.015 49.9589 387.068 49.7829 387.068 49.5402V49.4562C387.068 49.2136 387.015 49.0376 386.908 48.9282C386.804 48.8189 386.649 48.7642 386.444 48.7642C386.239 48.7642 386.084 48.8189 385.98 48.9282C385.876 49.0376 385.824 49.2136 385.824 49.4562V49.5402ZM387.902 48.4642H388.334V48.7882C388.398 48.6789 388.491 48.5922 388.614 48.5282C388.739 48.4616 388.888 48.4282 389.062 48.4282C389.363 48.4282 389.592 48.5176 389.75 48.6962C389.91 48.8722 389.99 49.1136 389.99 49.4202V49.5762C389.99 49.8829 389.91 50.1256 389.75 50.3042C389.592 50.4802 389.363 50.5682 389.062 50.5682C388.888 50.5682 388.739 50.5362 388.614 50.4722C388.491 50.4082 388.398 50.3229 388.334 50.2162V51.3322H387.902V48.4642ZM388.322 49.5442C388.322 49.7789 388.375 49.9522 388.482 50.0642C388.591 50.1736 388.744 50.2282 388.942 50.2282C389.347 50.2282 389.55 50.0002 389.55 49.5442V49.4482C389.55 48.9949 389.347 48.7682 388.942 48.7682C388.75 48.7682 388.598 48.8242 388.486 48.9362C388.376 49.0456 388.322 49.2162 388.322 49.4482V49.5442ZM390.386 48.4642H390.818V49.3682H390.938L391.794 48.4642H392.318L391.414 49.4002L392.366 50.5322H391.822L391.062 49.6282H390.818V50.5322H390.386V48.4642ZM393.206 50.5682C392.968 50.5682 392.782 50.5176 392.646 50.4162C392.51 50.3122 392.442 50.1669 392.442 49.9802C392.442 49.7669 392.516 49.6096 392.666 49.5082C392.815 49.4069 393.046 49.3562 393.358 49.3562H393.938V49.2162C393.938 49.0589 393.899 48.9442 393.822 48.8722C393.747 48.7976 393.627 48.7602 393.462 48.7602C393.326 48.7602 393.204 48.7869 393.098 48.8402C392.994 48.8909 392.91 48.9629 392.846 49.0562L392.542 48.8722C392.627 48.7309 392.752 48.6216 392.918 48.5442C393.083 48.4669 393.267 48.4282 393.47 48.4282C393.752 48.4282 393.97 48.4896 394.122 48.6122C394.274 48.7349 394.35 48.9322 394.35 49.2042V50.5322H393.954V50.1922C393.887 50.3176 393.787 50.4122 393.654 50.4762C393.523 50.5376 393.374 50.5682 393.206 50.5682ZM392.858 49.9482C392.858 50.0469 392.898 50.1202 392.978 50.1682C393.058 50.2136 393.164 50.2362 393.298 50.2362C393.484 50.2362 393.638 50.1962 393.758 50.1162C393.878 50.0336 393.938 49.9202 393.938 49.7762V49.6442H393.37C393.194 49.6442 393.064 49.6696 392.982 49.7202C392.899 49.7709 392.858 49.8469 392.858 49.9482Z" fill="#172736"/>
<rect x="376.652" y="38.5" width="10.375" height="7.25" rx="1.6875" fill="#33D18F" fill-opacity="0.2"/>
<path d="M380.08 43.679C379.774 43.679 379.514 43.625 379.301 43.517C379.091 43.409 378.931 43.2395 378.82 43.0085L379.211 42.779C379.298 42.947 379.412 43.07 379.553 43.148C379.694 43.226 379.868 43.265 380.075 43.265C380.558 43.265 380.8 43.064 380.8 42.662C380.8 42.476 380.753 42.3425 380.66 42.2615C380.567 42.1805 380.423 42.14 380.228 42.14C380.069 42.14 379.898 42.167 379.715 42.221L379.526 41.933L380.593 41.0015H378.995V40.565H381.214V40.9655L380.26 41.798C380.344 41.792 380.401 41.789 380.431 41.789C380.689 41.789 380.899 41.858 381.061 41.996C381.226 42.131 381.308 42.353 381.308 42.662C381.308 42.995 381.203 43.2485 380.993 43.4225C380.783 43.5935 380.479 43.679 380.08 43.679ZM382.412 41.2175C382.262 41.3585 382.052 41.4365 381.782 41.4515V41.0015C382.142 40.9925 382.391 40.847 382.529 40.565H382.916V43.625H382.412V41.2175ZM384.198 41.2175C384.048 41.3585 383.838 41.4365 383.568 41.4515V41.0015C383.928 40.9925 384.177 40.847 384.315 40.565H384.702V43.625H384.198V41.2175Z" fill="#172736"/>
<rect x="444.923" y="1.5" width="38" height="62" fill="#33D18F" fill-opacity="0.2" stroke="#33D18F" stroke-opacity="0.2" stroke-width="2.5" stroke-linejoin="round"/>
<path d="M450.183 47.8122H452.423V50.5322H451.967V48.2082H450.639V50.5322H450.183V47.8122ZM453.889 50.5722C453.556 50.5722 453.297 50.4856 453.113 50.3122C452.932 50.1389 452.841 49.8936 452.841 49.5762V49.4202C452.841 49.1029 452.933 48.8576 453.117 48.6842C453.301 48.5109 453.557 48.4242 453.885 48.4242C454.21 48.4242 454.456 48.5096 454.621 48.6802C454.789 48.8482 454.873 49.0896 454.873 49.4042C454.873 49.4922 454.87 49.5616 454.865 49.6122L453.265 49.5842C453.268 50.0162 453.48 50.2322 453.901 50.2322C454.146 50.2322 454.353 50.1362 454.521 49.9442L454.805 50.1882C454.717 50.3056 454.594 50.3989 454.437 50.4682C454.28 50.5376 454.097 50.5722 453.889 50.5722ZM454.453 49.3082C454.45 49.1269 454.402 48.9896 454.309 48.8962C454.216 48.8002 454.076 48.7522 453.889 48.7522C453.705 48.7522 453.557 48.8016 453.445 48.9002C453.336 48.9989 453.276 49.1482 453.265 49.3482L454.453 49.3082ZM455.245 48.4642H455.677V48.7882C455.741 48.6789 455.835 48.5922 455.957 48.5282C456.083 48.4616 456.232 48.4282 456.405 48.4282C456.707 48.4282 456.936 48.5176 457.093 48.6962C457.253 48.8722 457.333 49.1136 457.333 49.4202V49.5762C457.333 49.8829 457.253 50.1256 457.093 50.3042C456.936 50.4802 456.707 50.5682 456.405 50.5682C456.232 50.5682 456.083 50.5362 455.957 50.4722C455.835 50.4082 455.741 50.3229 455.677 50.2162V51.3322H455.245V48.4642ZM455.665 49.5442C455.665 49.7789 455.719 49.9522 455.825 50.0642C455.935 50.1736 456.088 50.2282 456.285 50.2282C456.691 50.2282 456.893 50.0002 456.893 49.5442V49.4482C456.893 48.9949 456.691 48.7682 456.285 48.7682C456.093 48.7682 455.941 48.8242 455.829 48.9362C455.72 49.0456 455.665 49.2162 455.665 49.4482V49.5442ZM458.686 50.5722C458.353 50.5722 458.094 50.4856 457.91 50.3122C457.729 50.1389 457.638 49.8936 457.638 49.5762V49.4202C457.638 49.1029 457.73 48.8576 457.914 48.6842C458.098 48.5109 458.354 48.4242 458.682 48.4242C459.007 48.4242 459.253 48.5096 459.418 48.6802C459.586 48.8482 459.67 49.0896 459.67 49.4042C459.67 49.4922 459.667 49.5616 459.662 49.6122L458.062 49.5842C458.065 50.0162 458.277 50.2322 458.698 50.2322C458.943 50.2322 459.15 50.1362 459.318 49.9442L459.602 50.1882C459.514 50.3056 459.391 50.3989 459.234 50.4682C459.077 50.5376 458.894 50.5722 458.686 50.5722ZM459.25 49.3082C459.247 49.1269 459.199 48.9896 459.106 48.8962C459.013 48.8002 458.873 48.7522 458.686 48.7522C458.502 48.7522 458.354 48.8016 458.242 48.9002C458.133 48.9989 458.073 49.1482 458.062 49.3482L459.25 49.3082ZM460.042 48.4642H461.486V48.8242H460.474V50.5322H460.042V48.4642ZM462.741 50.5722C462.402 50.5722 462.141 50.4856 461.957 50.3122C461.773 50.1389 461.681 49.8936 461.681 49.5762V49.4202C461.681 49.1029 461.773 48.8576 461.957 48.6842C462.141 48.5109 462.402 48.4242 462.741 48.4242C463.082 48.4242 463.343 48.5109 463.525 48.6842C463.709 48.8549 463.801 49.1002 463.801 49.4202V49.5762C463.801 49.8962 463.709 50.1429 463.525 50.3162C463.343 50.4869 463.082 50.5722 462.741 50.5722ZM462.121 49.5402C462.121 49.7829 462.173 49.9589 462.277 50.0682C462.381 50.1776 462.535 50.2322 462.741 50.2322C462.946 50.2322 463.101 50.1776 463.205 50.0682C463.311 49.9589 463.365 49.7829 463.365 49.5402V49.4562C463.365 49.2136 463.311 49.0376 463.205 48.9282C463.101 48.8189 462.946 48.7642 462.741 48.7642C462.535 48.7642 462.381 48.8189 462.277 48.9282C462.173 49.0376 462.121 49.2136 462.121 49.4562V49.5402ZM464.199 48.4642H465.367C465.585 48.4642 465.752 48.5082 465.867 48.5962C465.984 48.6842 466.043 48.8162 466.043 48.9922C466.043 49.2296 465.935 49.3882 465.719 49.4682C465.841 49.4976 465.936 49.5549 466.003 49.6402C466.072 49.7229 466.107 49.8256 466.107 49.9482C466.107 50.1402 466.047 50.2856 465.927 50.3842C465.807 50.4829 465.628 50.5322 465.391 50.5322H464.199V48.4642ZM465.347 50.2202C465.568 50.2202 465.679 50.1229 465.679 49.9282C465.679 49.8296 465.652 49.7562 465.599 49.7082C465.548 49.6602 465.463 49.6362 465.343 49.6362H464.623V50.2202H465.347ZM465.311 49.3322C465.423 49.3322 465.504 49.3082 465.555 49.2602C465.605 49.2122 465.631 49.1429 465.631 49.0522C465.631 48.8682 465.523 48.7762 465.307 48.7762H464.623V49.3322H465.311ZM467.444 50.5722C467.105 50.5722 466.844 50.4856 466.66 50.3122C466.476 50.1389 466.384 49.8936 466.384 49.5762V49.4202C466.384 49.1029 466.476 48.8576 466.66 48.6842C466.844 48.5109 467.105 48.4242 467.444 48.4242C467.785 48.4242 468.047 48.5109 468.228 48.6842C468.412 48.8549 468.504 49.1002 468.504 49.4202V49.5762C468.504 49.8962 468.412 50.1429 468.228 50.3162C468.047 50.4869 467.785 50.5722 467.444 50.5722ZM466.824 49.5402C466.824 49.7829 466.876 49.9589 466.98 50.0682C467.084 50.1776 467.239 50.2322 467.444 50.2322C467.649 50.2322 467.804 50.1776 467.908 50.0682C468.015 49.9589 468.068 49.7829 468.068 49.5402V49.4562C468.068 49.2136 468.015 49.0376 467.908 48.9282C467.804 48.8189 467.649 48.7642 467.444 48.7642C467.239 48.7642 467.084 48.8189 466.98 48.9282C466.876 49.0376 466.824 49.2136 466.824 49.4562V49.5402ZM468.902 48.4642H469.334V48.7882C469.398 48.6789 469.491 48.5922 469.614 48.5282C469.739 48.4616 469.888 48.4282 470.062 48.4282C470.363 48.4282 470.592 48.5176 470.75 48.6962C470.91 48.8722 470.99 49.1136 470.99 49.4202V49.5762C470.99 49.8829 470.91 50.1256 470.75 50.3042C470.592 50.4802 470.363 50.5682 470.062 50.5682C469.888 50.5682 469.739 50.5362 469.614 50.4722C469.491 50.4082 469.398 50.3229 469.334 50.2162V51.3322H468.902V48.4642ZM469.322 49.5442C469.322 49.7789 469.375 49.9522 469.482 50.0642C469.591 50.1736 469.744 50.2282 469.942 50.2282C470.347 50.2282 470.55 50.0002 470.55 49.5442V49.4482C470.55 48.9949 470.347 48.7682 469.942 48.7682C469.75 48.7682 469.598 48.8242 469.486 48.9362C469.376 49.0456 469.322 49.2162 469.322 49.4482V49.5442ZM471.386 48.4642H471.818V49.3682H471.938L472.794 48.4642H473.318L472.414 49.4002L473.366 50.5322H472.822L472.062 49.6282H471.818V50.5322H471.386V48.4642ZM474.206 50.5682C473.968 50.5682 473.782 50.5176 473.646 50.4162C473.51 50.3122 473.442 50.1669 473.442 49.9802C473.442 49.7669 473.516 49.6096 473.666 49.5082C473.815 49.4069 474.046 49.3562 474.358 49.3562H474.938V49.2162C474.938 49.0589 474.899 48.9442 474.822 48.8722C474.747 48.7976 474.627 48.7602 474.462 48.7602C474.326 48.7602 474.204 48.7869 474.098 48.8402C473.994 48.8909 473.91 48.9629 473.846 49.0562L473.542 48.8722C473.627 48.7309 473.752 48.6216 473.918 48.5442C474.083 48.4669 474.267 48.4282 474.47 48.4282C474.752 48.4282 474.97 48.4896 475.122 48.6122C475.274 48.7349 475.35 48.9322 475.35 49.2042V50.5322H474.954V50.1922C474.887 50.3176 474.787 50.4122 474.654 50.4762C474.523 50.5376 474.374 50.5682 474.206 50.5682ZM473.858 49.9482C473.858 50.0469 473.898 50.1202 473.978 50.1682C474.058 50.2136 474.164 50.2362 474.298 50.2362C474.484 50.2362 474.638 50.1962 474.758 50.1162C474.878 50.0336 474.938 49.9202 474.938 49.7762V49.6442H474.37C474.194 49.6442 474.064 49.6696 473.982 49.7202C473.899 49.7709 473.858 49.8469 473.858 49.9482Z" fill="#172736"/>
<rect x="457.652" y="38.5" width="11.375" height="7.25" rx="1.6875" fill="#33D18F" fill-opacity="0.2"/>
<path d="M461.017 43.679C460.711 43.679 460.452 43.625 460.239 43.517C460.029 43.409 459.868 43.2395 459.757 43.0085L460.149 42.779C460.236 42.947 460.35 43.07 460.491 43.148C460.632 43.226 460.806 43.265 461.013 43.265C461.496 43.265 461.737 43.064 461.737 42.662C461.737 42.476 461.691 42.3425 461.598 42.2615C461.505 42.1805 461.361 42.14 461.166 42.14C461.007 42.14 460.836 42.167 460.653 42.221L460.464 41.933L461.53 41.0015H459.933V40.565H462.151V40.9655L461.197 41.798C461.281 41.792 461.338 41.789 461.368 41.789C461.626 41.789 461.836 41.858 461.998 41.996C462.163 42.131 462.246 42.353 462.246 42.662C462.246 42.995 462.141 43.2485 461.931 43.4225C461.721 43.5935 461.416 43.679 461.017 43.679ZM463.349 41.2175C463.199 41.3585 462.989 41.4365 462.719 41.4515V41.0015C463.079 40.9925 463.328 40.847 463.466 40.565H463.853V43.625H463.349V41.2175ZM465.666 43.679C465.36 43.679 465.105 43.625 464.901 43.517C464.697 43.409 464.54 43.2365 464.429 42.9995L464.82 42.7745C464.907 42.9455 465.021 43.07 465.162 43.148C465.306 43.226 465.477 43.265 465.675 43.265C466.161 43.265 466.404 43.055 466.404 42.635C466.404 42.428 466.35 42.2765 466.242 42.1805C466.134 42.0845 465.965 42.0365 465.734 42.0365C465.587 42.0365 465.453 42.0575 465.333 42.0995C465.216 42.1415 465.098 42.203 464.978 42.284L464.6 42.122L464.757 40.565H466.746V41.0015H465.149L465.054 41.87C465.279 41.723 465.551 41.6495 465.869 41.6495C466.559 41.6495 466.904 41.9765 466.904 42.6305C466.904 42.9785 466.799 43.241 466.589 43.418C466.382 43.592 466.074 43.679 465.666 43.679Z" fill="#172736"/>
<rect x="482.923" y="1.5" width="40" height="86" fill="#33D18F" fill-opacity="0.2" stroke="#33D18F" stroke-opacity="0.2" stroke-width="2.5" stroke-linejoin="round"/>
<path d="M489.183 47.8122H491.423V50.5322H490.967V48.2082H489.639V50.5322H489.183V47.8122ZM492.889 50.5722C492.556 50.5722 492.297 50.4856 492.113 50.3122C491.932 50.1389 491.841 49.8936 491.841 49.5762V49.4202C491.841 49.1029 491.933 48.8576 492.117 48.6842C492.301 48.5109 492.557 48.4242 492.885 48.4242C493.21 48.4242 493.456 48.5096 493.621 48.6802C493.789 48.8482 493.873 49.0896 493.873 49.4042C493.873 49.4922 493.87 49.5616 493.865 49.6122L492.265 49.5842C492.268 50.0162 492.48 50.2322 492.901 50.2322C493.146 50.2322 493.353 50.1362 493.521 49.9442L493.805 50.1882C493.717 50.3056 493.594 50.3989 493.437 50.4682C493.28 50.5376 493.097 50.5722 492.889 50.5722ZM493.453 49.3082C493.45 49.1269 493.402 48.9896 493.309 48.8962C493.216 48.8002 493.076 48.7522 492.889 48.7522C492.705 48.7522 492.557 48.8016 492.445 48.9002C492.336 48.9989 492.276 49.1482 492.265 49.3482L493.453 49.3082ZM494.245 48.4642H494.677V48.7882C494.741 48.6789 494.835 48.5922 494.957 48.5282C495.083 48.4616 495.232 48.4282 495.405 48.4282C495.707 48.4282 495.936 48.5176 496.093 48.6962C496.253 48.8722 496.333 49.1136 496.333 49.4202V49.5762C496.333 49.8829 496.253 50.1256 496.093 50.3042C495.936 50.4802 495.707 50.5682 495.405 50.5682C495.232 50.5682 495.083 50.5362 494.957 50.4722C494.835 50.4082 494.741 50.3229 494.677 50.2162V51.3322H494.245V48.4642ZM494.665 49.5442C494.665 49.7789 494.719 49.9522 494.825 50.0642C494.935 50.1736 495.088 50.2282 495.285 50.2282C495.691 50.2282 495.893 50.0002 495.893 49.5442V49.4482C495.893 48.9949 495.691 48.7682 495.285 48.7682C495.093 48.7682 494.941 48.8242 494.829 48.9362C494.72 49.0456 494.665 49.2162 494.665 49.4482V49.5442ZM497.686 50.5722C497.353 50.5722 497.094 50.4856 496.91 50.3122C496.729 50.1389 496.638 49.8936 496.638 49.5762V49.4202C496.638 49.1029 496.73 48.8576 496.914 48.6842C497.098 48.5109 497.354 48.4242 497.682 48.4242C498.007 48.4242 498.253 48.5096 498.418 48.6802C498.586 48.8482 498.67 49.0896 498.67 49.4042C498.67 49.4922 498.667 49.5616 498.662 49.6122L497.062 49.5842C497.065 50.0162 497.277 50.2322 497.698 50.2322C497.943 50.2322 498.15 50.1362 498.318 49.9442L498.602 50.1882C498.514 50.3056 498.391 50.3989 498.234 50.4682C498.077 50.5376 497.894 50.5722 497.686 50.5722ZM498.25 49.3082C498.247 49.1269 498.199 48.9896 498.106 48.8962C498.013 48.8002 497.873 48.7522 497.686 48.7522C497.502 48.7522 497.354 48.8016 497.242 48.9002C497.133 48.9989 497.073 49.1482 497.062 49.3482L498.25 49.3082ZM499.042 48.4642H500.486V48.8242H499.474V50.5322H499.042V48.4642ZM501.741 50.5722C501.402 50.5722 501.141 50.4856 500.957 50.3122C500.773 50.1389 500.681 49.8936 500.681 49.5762V49.4202C500.681 49.1029 500.773 48.8576 500.957 48.6842C501.141 48.5109 501.402 48.4242 501.741 48.4242C502.082 48.4242 502.343 48.5109 502.525 48.6842C502.709 48.8549 502.801 49.1002 502.801 49.4202V49.5762C502.801 49.8962 502.709 50.1429 502.525 50.3162C502.343 50.4869 502.082 50.5722 501.741 50.5722ZM501.121 49.5402C501.121 49.7829 501.173 49.9589 501.277 50.0682C501.381 50.1776 501.535 50.2322 501.741 50.2322C501.946 50.2322 502.101 50.1776 502.205 50.0682C502.311 49.9589 502.365 49.7829 502.365 49.5402V49.4562C502.365 49.2136 502.311 49.0376 502.205 48.9282C502.101 48.8189 501.946 48.7642 501.741 48.7642C501.535 48.7642 501.381 48.8189 501.277 48.9282C501.173 49.0376 501.121 49.2136 501.121 49.4562V49.5402ZM503.199 48.4642H504.367C504.585 48.4642 504.752 48.5082 504.867 48.5962C504.984 48.6842 505.043 48.8162 505.043 48.9922C505.043 49.2296 504.935 49.3882 504.719 49.4682C504.841 49.4976 504.936 49.5549 505.003 49.6402C505.072 49.7229 505.107 49.8256 505.107 49.9482C505.107 50.1402 505.047 50.2856 504.927 50.3842C504.807 50.4829 504.628 50.5322 504.391 50.5322H503.199V48.4642ZM504.347 50.2202C504.568 50.2202 504.679 50.1229 504.679 49.9282C504.679 49.8296 504.652 49.7562 504.599 49.7082C504.548 49.6602 504.463 49.6362 504.343 49.6362H503.623V50.2202H504.347ZM504.311 49.3322C504.423 49.3322 504.504 49.3082 504.555 49.2602C504.605 49.2122 504.631 49.1429 504.631 49.0522C504.631 48.8682 504.523 48.7762 504.307 48.7762H503.623V49.3322H504.311ZM506.444 50.5722C506.105 50.5722 505.844 50.4856 505.66 50.3122C505.476 50.1389 505.384 49.8936 505.384 49.5762V49.4202C505.384 49.1029 505.476 48.8576 505.66 48.6842C505.844 48.5109 506.105 48.4242 506.444 48.4242C506.785 48.4242 507.047 48.5109 507.228 48.6842C507.412 48.8549 507.504 49.1002 507.504 49.4202V49.5762C507.504 49.8962 507.412 50.1429 507.228 50.3162C507.047 50.4869 506.785 50.5722 506.444 50.5722ZM505.824 49.5402C505.824 49.7829 505.876 49.9589 505.98 50.0682C506.084 50.1776 506.239 50.2322 506.444 50.2322C506.649 50.2322 506.804 50.1776 506.908 50.0682C507.015 49.9589 507.068 49.7829 507.068 49.5402V49.4562C507.068 49.2136 507.015 49.0376 506.908 48.9282C506.804 48.8189 506.649 48.7642 506.444 48.7642C506.239 48.7642 506.084 48.8189 505.98 48.9282C505.876 49.0376 505.824 49.2136 505.824 49.4562V49.5402ZM507.902 48.4642H508.334V48.7882C508.398 48.6789 508.491 48.5922 508.614 48.5282C508.739 48.4616 508.888 48.4282 509.062 48.4282C509.363 48.4282 509.592 48.5176 509.75 48.6962C509.91 48.8722 509.99 49.1136 509.99 49.4202V49.5762C509.99 49.8829 509.91 50.1256 509.75 50.3042C509.592 50.4802 509.363 50.5682 509.062 50.5682C508.888 50.5682 508.739 50.5362 508.614 50.4722C508.491 50.4082 508.398 50.3229 508.334 50.2162V51.3322H507.902V48.4642ZM508.322 49.5442C508.322 49.7789 508.375 49.9522 508.482 50.0642C508.591 50.1736 508.744 50.2282 508.942 50.2282C509.347 50.2282 509.55 50.0002 509.55 49.5442V49.4482C509.55 48.9949 509.347 48.7682 508.942 48.7682C508.75 48.7682 508.598 48.8242 508.486 48.9362C508.376 49.0456 508.322 49.2162 508.322 49.4482V49.5442ZM510.386 48.4642H510.818V49.3682H510.938L511.794 48.4642H512.318L511.414 49.4002L512.366 50.5322H511.822L511.062 49.6282H510.818V50.5322H510.386V48.4642ZM513.206 50.5682C512.968 50.5682 512.782 50.5176 512.646 50.4162C512.51 50.3122 512.442 50.1669 512.442 49.9802C512.442 49.7669 512.516 49.6096 512.666 49.5082C512.815 49.4069 513.046 49.3562 513.358 49.3562H513.938V49.2162C513.938 49.0589 513.899 48.9442 513.822 48.8722C513.747 48.7976 513.627 48.7602 513.462 48.7602C513.326 48.7602 513.204 48.7869 513.098 48.8402C512.994 48.8909 512.91 48.9629 512.846 49.0562L512.542 48.8722C512.627 48.7309 512.752 48.6216 512.918 48.5442C513.083 48.4669 513.267 48.4282 513.47 48.4282C513.752 48.4282 513.97 48.4896 514.122 48.6122C514.274 48.7349 514.35 48.9322 514.35 49.2042V50.5322H513.954V50.1922C513.887 50.3176 513.787 50.4122 513.654 50.4762C513.523 50.5376 513.374 50.5682 513.206 50.5682ZM512.858 49.9482C512.858 50.0469 512.898 50.1202 512.978 50.1682C513.058 50.2136 513.164 50.2362 513.298 50.2362C513.484 50.2362 513.638 50.1962 513.758 50.1162C513.878 50.0336 513.938 49.9202 513.938 49.7762V49.6442H513.37C513.194 49.6442 513.064 49.6696 512.982 49.7202C512.899 49.7709 512.858 49.8469 512.858 49.9482Z" fill="#172736"/>
<rect x="496.652" y="38.5" width="11.375" height="7.25" rx="1.6875" fill="#33D18F" fill-opacity="0.2"/>
<path d="M500.107 43.679C499.801 43.679 499.542 43.625 499.329 43.517C499.119 43.409 498.958 43.2395 498.847 43.0085L499.239 42.779C499.326 42.947 499.44 43.07 499.581 43.148C499.722 43.226 499.896 43.265 500.103 43.265C500.586 43.265 500.827 43.064 500.827 42.662C500.827 42.476 500.781 42.3425 500.688 42.2615C500.595 42.1805 500.451 42.14 500.256 42.14C500.097 42.14 499.926 42.167 499.743 42.221L499.554 41.933L500.62 41.0015H499.023V40.565H501.241V40.9655L500.287 41.798C500.371 41.792 500.428 41.789 500.458 41.789C500.716 41.789 500.926 41.858 501.088 41.996C501.253 42.131 501.336 42.353 501.336 42.662C501.336 42.995 501.231 43.2485 501.021 43.4225C500.811 43.5935 500.506 43.679 500.107 43.679ZM502.439 41.2175C502.289 41.3585 502.079 41.4365 501.809 41.4515V41.0015C502.169 40.9925 502.418 40.847 502.556 40.565H502.943V43.625H502.439V41.2175ZM504.027 43.625C504.279 42.596 504.698 41.723 505.283 41.006H503.555V40.565H505.805V40.961C505.49 41.333 505.235 41.738 505.04 42.176C504.848 42.611 504.701 43.094 504.599 43.625H504.027Z" fill="#172736"/>
<path d="M775.423 128H857.423V104H830.923V92.5H775.423V128Z" fill="#FFEDD6" stroke="#FFCF94" stroke-width="2.5" stroke-linecap="round" stroke-linejoin="round"/>
<path d="M801.348 116.51V112.685H802.237L803.423 115.818L804.605 112.685H805.488V116.51H804.864L804.88 113.416L803.716 116.51H803.108L801.944 113.416L801.961 116.51H801.348ZM806.777 115.16C806.777 115.467 806.775 115.681 806.772 115.801L808.273 113.602H808.943V116.51H808.363V114.946C808.363 114.65 808.365 114.44 808.369 114.316L806.873 116.51H806.198V113.602H806.777V115.16ZM809.631 113.602H810.239V114.772H811.724V113.602H812.331V116.51H811.724V115.272H810.239V116.51H809.631V113.602ZM813.6 115.16C813.6 115.467 813.598 115.681 813.594 115.801L815.096 113.602H815.765V116.51H815.186V114.946C815.186 114.65 815.188 114.44 815.192 114.316L813.695 116.51H813.02V113.602H813.6V115.16ZM816.302 114.676H817.809V115.171H816.302V114.676ZM818.343 113.602H818.951V114.873H819.12L820.323 113.602H821.06L819.789 114.918L821.128 116.51H820.363L819.294 115.239H818.951V116.51H818.343V113.602ZM821.677 117.112H821.891C822.019 117.112 822.12 117.093 822.195 117.055C822.274 117.022 822.341 116.96 822.397 116.87C822.454 116.784 822.514 116.652 822.577 116.476H822.285L821.227 113.602H821.897L822.729 116.06H822.735L823.539 113.602H824.186L823.123 116.577C823.029 116.847 822.934 117.057 822.836 117.207C822.739 117.357 822.622 117.466 822.487 117.534C822.352 117.601 822.184 117.635 821.981 117.635H821.677V117.112ZM825.704 115.306L824.973 116.51H824.298L825.282 115.008L824.36 113.602H825.063L825.738 114.715L826.424 113.602H827.099L826.154 115.008L827.133 116.51H826.43L825.704 115.306ZM827.577 113.602H828.185V114.772H829.67V113.602H830.277V116.51H829.67V115.272H828.185V116.51H827.577V113.602ZM831.642 115.424C831.383 115.387 831.186 115.293 831.051 115.143C830.916 114.993 830.848 114.787 830.848 114.524C830.848 114.22 830.94 113.992 831.124 113.838C831.312 113.68 831.578 113.602 831.923 113.602H833.515V116.51H832.924V115.441H832.288L831.501 116.51H830.775L831.642 115.424ZM831.456 114.524C831.456 114.828 831.625 114.98 831.962 114.98H832.924V114.063H831.962C831.625 114.063 831.456 114.217 831.456 114.524Z" fill="#172736"/>
</svg>
