<svg width="1125" height="501" viewBox="0 0 1125 501" fill="none" xmlns="http://www.w3.org/2000/svg">
<g id="b1f3">
<g id="Vector">
<path d="M588.149 373.235C614.602 380.567 640.41 386.312 667.817 391.129L672.776 364.84C646.528 360.244 620.703 353.913 595.361 346.924L588.149 373.235Z" fill="white"/>
<path d="M995.512 163.803C995.512 163.251 995.064 162.803 994.512 162.803L964.325 163.311V267.838H996.512V265.234L996.059 265.004C995.724 264.834 995.512 264.489 995.512 264.113V263.726V163.803Z" fill="white"/>
<path d="M584.264 269.836L580.207 268.553L575.854 267.214L565.81 298.434L562.013 310.237C566.038 311.561 570.078 312.855 574.131 314.119L577.924 303.218C578.107 302.694 577.828 302.122 577.303 301.943L575.065 301.179C574.547 301.002 574.267 300.442 574.437 299.922L584.264 269.836Z" fill="white"/>
<path fill-rule="evenodd" clip-rule="evenodd" d="M584.264 269.836L580.207 268.553L575.854 267.214L565.81 298.434L562.013 310.237C566.038 311.561 570.078 312.855 574.131 314.119L577.924 303.218C578.107 302.694 577.828 302.122 577.303 301.943L575.065 301.179C574.547 301.002 574.267 300.442 574.437 299.922L584.264 269.836Z" fill="white"/>
<path fill-rule="evenodd" clip-rule="evenodd" d="M584.264 269.836L580.207 268.553L575.854 267.214L565.81 298.434L562.013 310.237C566.038 311.561 570.078 312.855 574.131 314.119L577.924 303.218C578.107 302.694 577.828 302.122 577.303 301.943L575.065 301.179C574.547 301.002 574.267 300.442 574.437 299.922L584.264 269.836Z" fill="white"/>
<path fill-rule="evenodd" clip-rule="evenodd" d="M584.264 269.836L580.207 268.553L575.854 267.214L565.81 298.434L562.013 310.237C566.038 311.561 570.078 312.855 574.131 314.119L577.924 303.218C578.107 302.694 577.828 302.122 577.303 301.943L575.065 301.179C574.547 301.002 574.267 300.442 574.437 299.922L584.264 269.836Z" fill="white"/>
<path d="M209.698 80.1091C210.366 80.8958 210.962 81.5893 211.463 82.1583L209.698 80.1091Z" fill="white"/>
<path d="M209.698 80.1091C210.366 80.8958 210.962 81.5893 211.463 82.1583L209.698 80.1091Z" fill="white"/>
<path d="M209.698 80.1091C210.366 80.8958 210.962 81.5893 211.463 82.1583L209.698 80.1091Z" fill="white"/>
<path d="M225.438 44.3454C225.796 44.7406 225.781 45.3474 225.403 45.7244L221.596 49.5278L215.034 42.2467L219.641 37.9496L225.438 44.3454Z" fill="white"/>
<path d="M564.293 216.254L599.328 123.894C580.964 117.007 563.014 109.276 545.529 100.748C533.412 94.8393 521.519 88.548 509.866 81.8902C485.795 68.1374 462.75 52.8206 440.879 36.0785C440.433 35.7376 439.795 35.8286 439.463 36.2809L413.97 71.0406L388.477 105.8L396.151 112.237L421.381 129.409L423.154 130.616C423.608 130.925 423.728 131.543 423.422 131.999L413.11 147.369L382.868 193.634L367.664 216.439C377.928 223.24 388.355 229.814 398.937 236.155C403.384 238.819 407.858 241.442 412.359 244.023C428.726 253.408 445.45 262.24 462.505 270.495C466.246 272.306 470.003 274.063 473.775 275.778L486.639 246.256C486.858 245.755 487.439 245.522 487.943 245.734L544.112 269.331L546.557 263.009L548.064 259.039L561.042 224.825L563.736 217.722L564.293 216.254Z" fill="white"/>
<path d="M564.293 216.254L563.736 217.722L561.042 224.825L548.064 259.039L546.557 263.009L544.112 269.331L487.943 245.734C487.439 245.522 486.858 245.755 486.639 246.256L473.775 275.778C470.003 274.063 466.246 272.306 462.505 270.495C445.45 262.24 428.726 253.408 412.359 244.023C407.858 241.442 403.384 238.819 398.937 236.155C388.355 229.814 377.928 223.24 367.664 216.439L382.868 193.634L413.11 147.369L423.422 131.999C423.728 131.543 423.608 130.925 423.154 130.616L421.381 129.409L396.151 112.237L388.477 105.8C367.239 89.5694 346.947 71.6549 327.698 53.1695C317.21 43.0968 307.031 32.7037 297.178 22.0062C296.806 21.6021 296.178 21.573 295.77 21.9416L283.258 33.2639L254.856 1.5295C254.666 1.31754 254.395 1.19639 254.111 1.19639H188.128L219.641 37.9496L225.438 44.3454C225.796 44.7406 225.781 45.3474 225.403 45.7244L221.596 49.5278L231.156 60.1345L216.969 73.3837L212.794 77.5592L209.698 80.1091L211.463 82.1583C210.962 81.5893 210.366 80.8958 209.698 80.1091L212.794 77.5592L216.969 73.3837L231.156 60.1345L221.596 49.5278L215.034 42.2467L219.641 37.9496L188.128 1.19639H179.903H148.051H120.748H85.089H2.00238C1.23666 1.19639 0.755254 2.02181 1.13322 2.68775C23.1843 41.5396 47.9223 78.6666 75.0947 113.816C92.3673 136.159 110.623 157.704 129.798 178.384L122.256 185.185L114.098 192.541L57.7744 243.326C57.3084 243.746 57.34 244.487 57.8405 244.865C71.2926 255.036 84.955 264.942 98.8199 274.578C111.296 283.249 123.937 291.7 136.735 299.925C137.803 300.611 138.871 301.296 139.94 301.979C153.086 310.371 166.397 318.527 179.869 326.44C194.188 334.851 208.688 342.988 223.362 350.842C235.711 357.452 248.182 363.862 260.772 370.069C302.113 390.448 344.732 408.629 388.477 424.459C416.735 434.685 445.462 443.929 474.617 452.151L487.94 417.029C514.27 426.961 541.164 435.742 568.562 443.311L588.149 373.235L595.361 346.924C620.703 353.913 646.528 360.244 672.776 364.84L677.363 340.522C677.466 339.973 677.1 339.446 676.55 339.351C651.363 334.983 626.573 329.457 602.237 322.83L605.352 311.686L614.142 280.241L625.05 241.214L626.273 236.839L593.915 226.436L580.207 268.553L584.264 269.836L574.437 299.922C574.267 300.442 574.547 301.002 575.065 301.179L577.303 301.943C577.828 302.122 578.107 302.694 577.924 303.218L574.131 314.119C570.078 312.855 566.038 311.561 562.013 310.237L565.81 298.434L575.854 267.214L580.207 268.553L593.915 226.436L564.293 216.254Z" fill="white"/>
<path d="M666.623 490.919C716.124 496.825 766.505 499.864 817.596 499.864L1039.19 499.864L1101.91 499.864L1102.72 499.454C1102.84 499.289 1102.91 499.085 1102.91 498.864V464.703V382.931C1102.91 382.379 1103.36 381.933 1103.91 381.908C1113.15 381.481 1123.73 375.2 1123.73 364.462V332.957V266.234C1123.73 265.682 1123.28 265.234 1122.73 265.234H1102.91H1101.91H996.512V267.838H964.325V163.311H933.643H927.796H824.764H817.541C790.405 163.311 763.655 161.566 737.406 158.181C729.039 157.102 720.723 155.857 712.461 154.448C692.293 151.01 672.45 146.599 652.986 141.267C634.753 136.271 616.852 130.467 599.328 123.894L564.293 216.254L593.915 226.436L626.273 236.839L625.05 241.214L614.142 280.241L605.352 311.686L602.237 322.83C626.573 329.457 651.363 334.983 676.55 339.351C677.1 339.446 677.466 339.973 677.363 340.522L672.776 364.84L667.817 391.129C640.41 386.312 614.602 380.567 588.149 373.235L568.562 443.311C541.164 435.742 514.27 426.961 487.94 417.029L474.617 452.151C502.728 460.079 531.238 467.564 560.109 473.554C589.512 479.654 619.29 484.731 649.404 488.745C654.449 489.417 659.503 490.06 664.566 490.672L665.443 490.778L666.18 490.866L666.623 490.919Z" fill="white"/>
<path d="M666.623 490.919C716.124 496.825 766.505 499.864 817.596 499.864M666.623 490.919C666.475 490.902 666.327 490.884 666.18 490.866M666.623 490.919L666.18 490.866M817.596 499.864C817.171 499.864 818.021 499.864 817.596 499.864ZM817.596 499.864L1039.19 499.864L1101.91 499.864M599.328 123.894L564.293 216.254M599.328 123.894C616.852 130.467 634.753 136.271 652.986 141.267M599.328 123.894C580.964 117.007 563.014 109.276 545.529 100.748C533.412 94.8393 521.519 88.548 509.866 81.8902M564.293 216.254L563.736 217.722L561.042 224.825M564.293 216.254L593.915 226.436M998.115 350.241H984.975H996.512M998.115 350.241H1007.19M998.115 350.241H996.512M964.325 267.838H996.512M964.325 267.838V326.904M964.325 267.838V163.311M996.512 267.838V265.234M996.512 267.838V350.241M57.8405 244.865C71.2926 255.036 84.955 264.943 98.8199 274.578M57.8405 244.865C57.34 244.487 57.3084 243.746 57.7744 243.326M57.8405 244.865C57.34 244.487 57.3084 243.746 57.7744 243.326M98.8199 274.578C111.296 283.249 123.937 291.7 136.735 299.925M98.8199 274.578L136.241 236.1M1102.91 265.234V353.062M1102.91 265.234H1101.91H996.512M1102.91 265.234H1122.73C1123.28 265.234 1123.73 265.682 1123.73 266.234V332.957V364.462C1123.73 375.2 1113.15 381.481 1103.91 381.908C1103.36 381.933 1102.91 382.379 1102.91 382.931V464.703V498.864M1102.91 353.062V332.957M1102.91 353.062H1076.02M996.512 265.234C995.96 265.234 995.512 264.279 995.512 263.726M996.512 265.234L996.059 265.004C995.724 264.834 995.512 264.489 995.512 264.113V263.726M995.512 263.726V163.803M927.796 163.311H824.764H817.541M927.796 163.311H933.643H964.325M927.796 163.311V267.414M561.042 224.825L548.064 259.039L546.557 263.009L544.112 269.331M561.042 224.825L494.733 194.599M832.862 477.071H856.705M832.862 477.071H819.163L818.774 477.071C732.122 477.071 648.215 465.315 568.562 443.311M832.862 477.071V392.491M832.862 375.547H818.907L797.453 374.607M832.862 375.547H843.641M832.862 375.547V382.567M509.866 81.8902C485.795 68.1374 462.75 52.8206 440.879 36.0785C440.433 35.7376 439.795 35.8286 439.463 36.2809L413.97 71.0406M509.866 81.8902L461.867 161.701M413.97 71.0406L446.552 91.7017C447.033 92.0073 447.162 92.6534 446.835 93.1205L446.174 94.0619M413.97 71.0406L388.477 105.8M595.361 346.924C620.703 353.913 646.528 360.244 672.776 364.84M595.361 346.924L588.149 373.235M595.361 346.924L585.229 343.624M563.682 336.607L555.259 362.843C555.086 363.382 555.395 363.957 555.939 364.111L570.148 368.136M563.682 336.607L570.622 338.867M563.682 336.607L560.323 335.513M1102.91 498.864V499.141C1102.91 499.273 1102.84 499.394 1102.72 499.454M1102.91 498.864C1102.91 499.085 1102.84 499.289 1102.72 499.454M388.477 105.8C367.239 89.5694 346.946 71.6549 327.698 53.1695M388.477 105.8L396.151 112.237M327.698 53.1695C317.21 43.0968 307.031 32.7037 297.178 22.0062C296.806 21.6021 296.178 21.573 295.77 21.9416L283.258 33.2639M327.698 53.1695L258.682 129.51M1101.91 499.864L1102.72 499.454M1101.91 499.864C1102.24 499.864 1102.54 499.703 1102.72 499.454M136.241 236.1L147.671 247.24M136.241 236.1L138.151 234.136M652.986 141.267C672.45 146.599 692.293 151.01 712.461 154.448C720.723 155.857 729.039 157.102 737.406 158.181C763.655 161.566 790.405 163.311 817.541 163.311M652.986 141.267L642.554 179.676M114.098 192.541L122.256 185.185L129.798 178.384M114.098 192.541L147.008 223.572C147.414 223.955 147.428 224.596 147.039 224.996L145.132 226.957M114.098 192.541L57.7744 243.326M188.128 1.19639H179.903M188.128 1.19639H254.111M188.128 1.19639L219.641 37.9496M179.903 1.19639H148.051H120.748M179.903 1.19639L157.503 18.5797M964.325 326.904H976.738M964.325 326.904V351.805M856.705 375.547V477.071M856.705 375.547H858.605M856.705 375.547H853.84M964.325 351.805H970.896M964.325 351.805H952.362M523.421 323.495C499.228 314.373 475.571 304.158 452.51 292.912C443.222 288.382 433.882 283.569 424.555 278.523M523.421 323.495L534.979 327.259M523.421 323.495L521.752 327.893M994.512 162.803L964.325 163.311M994.512 162.803C995.064 162.803 995.512 163.251 995.512 163.803M994.512 162.803C995.064 162.803 995.512 163.251 995.512 163.803M254.111 1.19639C254.395 1.19639 254.666 1.31754 254.856 1.5295M254.111 1.19639C254.395 1.19639 254.666 1.31754 254.856 1.5295M817.541 163.311C817.341 163.311 817.74 163.311 817.541 163.311ZM258.682 129.51C266.918 137.269 275.316 144.858 283.869 152.271M258.682 129.51C255.795 126.79 252.928 124.05 250.081 121.288M513.473 349.719L510.432 357.735M513.473 349.719L515.315 344.862M513.473 349.719L518.447 351.286M536.638 288.652L539.602 289.745M536.638 288.652L544.112 269.331M536.638 288.652L532.391 299.847M487.94 417.029L474.617 452.151M487.94 417.029L502.275 379.24M487.94 417.029C514.27 426.961 541.164 435.742 568.562 443.311M474.617 452.151C502.728 460.079 531.238 467.564 560.109 473.554C589.512 479.654 619.29 484.731 649.404 488.745C654.449 489.417 659.503 490.06 664.566 490.672M474.617 452.151C445.462 443.929 416.735 434.685 388.477 424.459C344.732 408.629 302.113 390.448 260.772 370.069M304.789 169.799C315.063 178.121 325.545 186.197 336.224 194.019M336.224 194.019L352.193 172.091M336.224 194.019C340.017 196.797 343.836 199.543 347.678 202.257M593.915 226.436L626.273 236.839M593.915 226.436L580.207 268.553M544.112 269.331L487.943 245.734C487.439 245.522 486.858 245.755 486.639 246.256L473.775 275.778M352.193 172.091L396.151 112.237M352.193 172.091L361.493 178.757M396.151 112.237L421.381 129.409M136.735 299.925L166.81 265.893M136.735 299.925C137.803 300.611 138.871 301.296 139.94 301.979C153.086 310.371 166.397 318.527 179.869 326.44C194.188 334.851 208.688 342.988 223.362 350.842C235.711 357.452 248.182 363.862 260.772 370.069M166.81 265.893L155.317 254.691M166.81 265.893L203.593 224.268M532.391 299.847C533.301 300.186 534.212 300.524 535.123 300.86M532.391 299.847C529.54 298.785 526.698 297.707 523.862 296.613L513.491 292.531M513.491 292.531C513.958 292.719 514.426 292.907 514.894 293.093M513.491 292.531C504.102 288.761 494.8 284.971 485.589 281.002M473.775 275.778C470.003 274.063 466.246 272.306 462.505 270.495C445.45 262.24 428.726 253.408 412.359 244.023M473.775 275.778C474.604 276.155 475.434 276.53 476.264 276.903M412.359 244.023C407.858 241.442 403.384 238.819 398.937 236.155M412.359 244.023L456.655 170.368M129.798 178.384L137.286 171.633L143.248 166.172M129.798 178.384C110.623 157.704 92.3673 136.159 75.0947 113.816M413.11 147.369L423.422 131.999C423.728 131.543 423.608 130.925 423.154 130.616L421.381 129.409M413.11 147.369L442.122 165.185M413.11 147.369L382.868 193.634M233.255 81.1729L242.304 72.5027M233.255 81.1729L221.64 92.3015M233.255 81.1729L252.913 100.735C253.292 101.112 253.307 101.721 252.947 102.116L242.304 113.816M242.304 72.5027L283.258 33.2639M242.304 72.5027L240.47 70.4678M398.937 236.155C388.355 229.814 377.928 223.24 367.664 216.439M398.937 236.155L418.491 204.021M442.122 165.185L450.479 151.452M442.122 165.185L423.975 195.008M588.149 373.235L568.562 443.311M588.149 373.235C614.602 380.567 640.41 386.312 667.817 391.129M588.149 373.235L577.646 370.26M382.868 193.634L371.301 185.177M382.868 193.634L367.664 216.439M421.381 129.409L440.337 102.383M667.817 391.129L672.776 364.84M667.817 391.129C663.116 416.051 659.765 433.308 655.999 453.273M367.664 216.439C363.298 213.546 358.961 210.104 354.654 207.129M856.705 477.071H990.763C991.316 477.071 991.763 476.623 991.763 476.071V464.703M291.122 324.795L260.772 370.069M291.122 324.795L267.263 309.221M291.122 324.795L305.769 302.946M283.258 33.2639L254.856 1.5295M221.64 92.3015L218.636 89.1197M221.64 92.3015C225.791 96.7472 229.991 101.146 234.239 105.498M242.304 113.816L240.47 111.73M242.304 113.816L243.875 115.387M664.566 490.672C664.858 490.707 665.15 490.743 665.443 490.778M664.566 490.672L665.443 490.778M665.443 490.778L666.18 490.866M665.443 490.778C665.688 490.807 665.934 490.837 666.18 490.866M219.641 37.9496L225.438 44.3454C225.796 44.7406 225.781 45.3474 225.403 45.7244L221.596 49.5278M219.641 37.9496L215.034 42.2467M672.776 364.84L677.363 340.522C677.466 339.973 677.1 339.446 676.55 339.351C651.363 334.983 626.573 329.457 602.237 322.83M672.776 364.84L689.691 367.384C690.235 367.465 690.743 367.092 690.828 366.548L691.034 365.222C691.119 364.678 691.627 364.305 692.171 364.387L700.042 365.566M120.748 1.19639H85.089M120.748 1.19639C122.691 4.1448 124.652 7.08015 126.632 10.0023C129.636 14.4374 132.681 18.8421 135.768 23.2158L138.836 27.5055M120.748 1.19639C120.705 1.13097 120.662 1.06555 120.619 1.00011M85.089 1.19639V10.0413C85.089 10.2456 85.1515 10.445 85.2683 10.6127L102.774 35.7562M85.089 1.19639H2.00238C1.23666 1.19639 0.755254 2.02181 1.13322 2.68775C23.1843 41.5396 47.9223 78.6666 75.0947 113.816M141.58 31.3279L138.836 27.5055M141.58 31.3279C147.412 39.3742 153.596 47.6194 159.785 55.5618M141.58 31.3279L146.95 27.29M138.836 27.5055L111.462 46.1413C111.026 46.4382 110.435 46.3453 110.111 45.9291L109.261 44.8378M159.785 55.5618L164.457 51.8013M159.785 55.5618C161.229 57.4146 162.673 59.251 164.113 61.0644M531.029 364.832L533.983 357.301C534.194 356.761 533.905 356.156 533.353 355.982L527.397 354.106M531.029 364.832L510.432 357.735M531.029 364.832L524.318 385.766C524.147 386.3 523.57 386.588 523.04 386.406L521.378 385.832M502.275 379.24L510.432 357.735M502.275 379.24L514.138 383.334M384.044 255.137C376.768 250.675 369.56 246.114 362.453 241.479M384.044 255.137L380.527 260.988M384.044 255.137C392.514 260.331 401.075 265.39 409.677 270.274M351.597 234.292L305.769 302.946M351.597 234.292C350.634 233.645 349.674 232.996 348.716 232.347M351.597 234.292C352.589 234.959 353.584 235.625 354.581 236.289M305.769 302.946L273.399 280.59M305.769 302.946L340.528 325.809C341.006 326.124 341.65 325.973 341.94 325.48L343.091 323.516M273.399 280.59L258.246 302.099C257.92 302.562 258.043 303.203 258.517 303.512L258.717 303.642M273.399 280.59L270.829 278.814M270.829 278.814L222.15 239.319M270.829 278.814L305.565 231.718M222.15 239.319L219.137 236.874M222.15 239.319C227.784 232.879 239.085 220.068 239.085 220.068C253.835 205.522 271.325 224.618 271.325 224.618M305.565 231.718L319.446 212.897C319.774 212.453 320.399 212.358 320.844 212.685C327.185 217.343 333.681 221.982 340.303 226.577M305.565 231.718C302.535 236.1 294.047 242.475 286.43 236.528L278.877 230.573M602.237 322.83L605.352 311.686L614.142 280.241M602.237 322.83C600.76 322.428 599.078 322.033 597.605 321.622M614.142 280.241L625.05 241.214L626.273 236.839M614.142 280.241L610.29 278.482M626.273 236.839L631.858 216.856L639.018 190.733M580.207 268.553L584.264 269.836M580.207 268.553L575.854 267.214M584.264 269.836L602.237 275.519M584.264 269.836L574.437 299.922C574.267 300.442 574.547 301.002 575.065 301.179L577.303 301.943C577.828 302.122 578.107 302.694 577.924 303.218L574.131 314.119M575.854 267.214L565.81 298.434M575.854 267.214L559.077 262.09M565.81 298.434L562.013 310.237M565.81 298.434L551.232 293.818M562.013 310.237L548.035 305.44C547.511 305.261 547.233 304.689 547.415 304.166L547.637 303.529M562.013 310.237C566.038 311.561 570.078 312.855 574.131 314.119M574.131 314.119L586.881 318.615M551.232 293.818L548.197 292.857M551.232 293.818L549.375 298.822M226.807 131.501C219.543 124.21 212.414 116.786 205.423 109.232M205.423 109.232L185.185 127.766M205.423 109.232C200.105 103.486 194.866 97.6651 189.71 91.7709M878.326 375.547H926.013M878.326 375.547V391.122M878.326 375.547H875.678M991.603 375.547L991.655 404.348M991.603 375.547H1032.55M991.603 375.547H973.846M991.655 404.348H926.013M991.655 404.348L991.763 464.703M926.013 375.547V404.348M926.013 375.547H963.436M221.534 163.762L185.185 127.766M221.534 163.762L219.221 166.16M221.534 163.762L229.483 171.633L239.715 181.865C240.124 182.274 240.793 182.252 241.174 181.818L258.032 162.6C258.393 162.189 258.356 161.565 257.951 161.198C254.694 158.248 251.46 155.272 248.249 152.271C243.984 148.285 239.761 144.254 235.581 140.179M185.185 127.766L164.271 146.919M200.235 221.071L203.593 224.268M203.593 224.268L210.677 230.01L210.836 230.138M143.248 166.172L174.496 196.452M143.248 166.172L154.174 156.166L164.271 146.919M174.496 196.452L156.512 215.103M174.496 196.452L182.504 204.211M746.294 351.421L819.897 355.66H820.282M746.294 351.421L750.058 318.8M746.294 351.421L744.042 351.095M753.231 291.306L820.282 294.389M753.231 291.306L751.195 291.027M753.231 291.306L751.123 309.574M164.271 146.919L135.996 113.236M1050.08 375.516H1053.89C1054.45 375.516 1054.89 375.963 1054.89 376.516V377.98C1054.89 378.532 1055.34 378.98 1055.89 378.98H1083.34C1083.89 378.98 1084.34 379.427 1084.34 379.98V463.703C1084.34 464.256 1083.89 464.703 1083.34 464.703H991.763M193.689 60.7741C195.465 62.8848 198.53 66.626 201.708 70.4891M193.689 60.7741C188.472 54.5756 183.346 48.2981 178.313 41.9437C177.968 41.508 177.334 41.4365 176.901 41.785L171.73 45.9471M193.689 60.7741L215.034 42.2467M926.013 404.348H879.326C878.774 404.348 878.326 403.9 878.326 403.348V401.74M221.596 49.5278L231.156 60.1345M221.596 49.5278L215.034 42.2467M231.156 60.1345L234.057 63.3528M231.156 60.1345L216.969 73.3837L212.794 77.5592L209.698 80.1091M929.337 294.389H852.266M852.266 294.389H820.282M852.266 294.389V355.66M182.504 204.211L212.02 173.622M182.504 204.211L192.203 213.609M820.282 355.66V294.389M820.282 355.66H828.345M852.266 355.66H927.181C927.733 355.66 928.181 355.213 928.181 354.66V320.593M852.266 355.66H848.553M348.597 314.102L375.477 269.388M206.027 75.7228C207.367 77.3391 208.625 78.8445 209.698 80.1091M209.698 80.1091C210.366 80.8958 210.962 81.5893 211.463 82.1583L209.698 80.1091ZM555.11 382.224L556.501 377.772C556.659 377.267 556.396 376.726 555.901 376.539L546.709 373.057C546.182 372.857 545.594 373.133 545.41 373.667L540.561 387.742M540.561 387.742L538.722 393.93M540.561 387.742L551.595 390.96C552.143 391.12 552.446 391.706 552.26 392.246L547.736 405.381C547.559 405.894 547.004 406.173 546.487 406.008L536.814 402.924C536.295 402.758 535.739 403.039 535.563 403.555L526.849 429.215M1018.76 353.062H1060.06H1060.34C1061.02 353.062 1061.15 352.096 1060.49 351.92C1060.24 351.852 1060.06 351.622 1060.06 351.359V265.726M174.434 73.3837L183.129 83.7058M75.0947 113.816L141.58 63.3528M551.47 332.63L548.731 331.738M544.132 330.24L548.731 331.738M518.447 336.607L519.505 333.817M548.731 331.738L547.576 335.611C547.413 336.155 546.831 336.454 546.294 336.271L521.752 327.893M521.752 327.893L519.505 333.817M519.505 333.817L528.572 336.984C529.126 337.178 529.726 336.855 529.871 336.287L531.029 331.738M741.419 289.688L697.942 283.732C697.402 283.659 696.902 284.031 696.818 284.569L687.876 341.945C687.79 342.495 688.17 343.009 688.721 343.088L734.525 349.718M776.03 373.669L745.087 372.314L720.827 368.68" stroke="#172736" stroke-opacity="0.25" stroke-width="2" stroke-linecap="round" stroke-linejoin="round"/>
</g>
<g id="b1f3-razdevalka">
<g id="area">
<path d="M594.501 346.227L524.396 323.396C523.885 323.229 523.334 323.497 523.148 324.001L488.26 418.867C514.011 428.549 540.301 437.132 567.071 444.558C568.134 444.853 569.235 444.231 569.531 443.17L588.85 374.054L588.851 374.05L595.811 348.658C596.093 347.628 595.516 346.558 594.501 346.227Z" fill="#FF645A" fill-opacity="0.2"/>
<path d="M488.26 418.867C514.011 428.549 540.301 437.132 567.071 444.558C568.134 444.853 569.235 444.231 569.531 443.17L588.85 374.054L588.851 374.05L595.811 348.658C596.093 347.628 595.516 346.558 594.501 346.227L524.396 323.396C523.885 323.229 523.334 323.497 523.148 324.001L488.26 418.867ZM488.26 418.867L488.259 418.866" stroke="#FF645A" stroke-opacity="0.2" stroke-width="2.00001" stroke-linejoin="round"/>
</g>
<text id="&#208;&#160;&#208;&#176;&#208;&#183;&#208;&#180;&#208;&#181;&#208;&#178;&#208;&#176;&#208;&#187;&#208;&#186;&#208;&#176; &#208;&#184; &#208;&#180;&#209;&#131;&#209;&#136;&#208;&#181;&#208;&#178;&#209;&#139;&#208;&#181; &#208;&#182;." transform="translate(553.609 420.221) rotate(-74.1627)" fill="black" xml:space="preserve" style="white-space: pre" font-family="CoFo Weather 20240219" font-size="4.83869" font-weight="500" letter-spacing="0em"><tspan x="8.98465" y="4.16935">&#x420;&#x430;&#x437;&#x434;&#x435;&#x432;&#x430;&#x43b;&#x43a;&#x430; &#10;</tspan><tspan x="7.4702" y="9.16935">&#x438; &#x434;&#x443;&#x448;&#x435;&#x432;&#x44b;&#x435; &#x436;.</tspan></text>
<text id="&#208;&#160;&#208;&#176;&#208;&#183;&#208;&#180;&#208;&#181;&#208;&#178;&#208;&#176;&#208;&#187;&#208;&#186;&#208;&#176; &#208;&#184; &#208;&#180;&#209;&#131;&#209;&#136;&#208;&#181;&#208;&#178;&#209;&#139;&#208;&#181; &#208;&#188;." transform="translate(493.128 394.866) rotate(18.3751)" fill="black" xml:space="preserve" style="white-space: pre" font-family="CoFo Weather 20240219" font-size="4.83869" font-weight="500" letter-spacing="0em"><tspan x="8.98465" y="4.16935">&#x420;&#x430;&#x437;&#x434;&#x435;&#x432;&#x430;&#x43b;&#x43a;&#x430; &#10;</tspan><tspan x="7.64267" y="9.16935">&#x438; &#x434;&#x443;&#x448;&#x435;&#x432;&#x44b;&#x435; &#x43c;.</tspan></text>
</g>
<text id="title" fill="#172736" xml:space="preserve" style="white-space: pre" font-family="CoFo Weather 20240219" font-size="10" font-weight="500" letter-spacing="0em"><tspan x="1005.4" y="309.517">&#x41b;&#x438;&#x444;&#x442;&#x43e;&#x432;&#x43e;&#x439;&#10;</tspan><tspan x="1014.77" y="319.517">&#x445;&#x43e;&#x43b;&#x43b; 2</tspan></text>
<g id="b1f3-paper">
<text id="title_2" transform="translate(191.167 217.429) rotate(-48.6506)" fill="#172736" xml:space="preserve" style="white-space: pre" font-family="CoFo Weather 20240219" font-size="8" font-weight="500" letter-spacing="0em"><tspan x="10.7995" y="6.76">&#x423;&#x442;&#x438;&#x43b;&#x438;&#x437;&#x430;&#x446;&#x438;&#x44f; </tspan><tspan x="20.2448" y="14.76">&#x431;&#x443;&#x43c;&#x430;&#x433;&#x438;</tspan></text>
<path id="Ellipse 39" d="M209.476 190.567C209.476 193.052 207.462 195.067 204.976 195.067C202.491 195.067 200.476 193.052 200.476 190.567C200.476 188.081 202.491 186.067 204.976 186.067C207.462 186.067 209.476 188.081 209.476 190.567Z" fill="#73E553"/>
</g>
<g id="b1f3-gym">
<path id="area_2" fill-rule="evenodd" clip-rule="evenodd" d="M385.428 254.812C384.479 254.232 383.239 254.536 382.667 255.491L341.621 324.084C341.329 324.572 340.688 324.719 340.213 324.406L307.147 302.655C306.23 302.052 304.998 302.301 304.387 303.213L260.578 368.564C259.905 369.568 260.269 370.936 261.355 371.471C302.408 391.662 344.719 409.688 388.137 425.4C416.132 435.53 444.588 444.698 473.464 452.864C474.462 453.147 475.51 452.619 475.878 451.65L488.521 418.317C488.521 418.317 488.522 418.317 488.522 418.317C488.522 418.317 488.523 418.317 488.523 418.317L523.401 323.479C523.59 322.964 523.329 322.392 522.815 322.198C498.985 313.179 475.677 303.098 452.948 292.013C429.857 280.751 407.348 268.222 385.428 254.812Z" fill="#FF645A" fill-opacity="0.2" stroke="#FF645A" stroke-opacity="0.2" stroke-width="2.00001" stroke-linejoin="round"/>
<text id="title_3" fill="#172736" xml:space="preserve" style="white-space: pre" font-family="CoFo Weather 20240219" font-size="15.0001" font-weight="500" letter-spacing="0em"><tspan x="371.99" y="367.543">&#x421;&#x43f;&#x43e;&#x440;&#x442;&#x437;&#x430;&#x43b;</tspan></text>
<g id="n">
<rect x="397.609" y="336.848" width="20" height="12" rx="3" fill="#FFC7C4"/>
<text id="318" fill="#172736" xml:space="preserve" style="white-space: pre" font-family="CoFo Weather 20240219" font-size="8" font-weight="500" letter-spacing="0.02em"><tspan x="400.832" y="345.608">318</tspan></text>
</g>
</g>
<g id="b1f3-314">
<g id="Vector_2">
<path d="M304.933 302.369L273.399 280.59L271.677 279.401C271.213 279.08 271.106 278.438 271.441 277.984L305.565 231.718L320.039 212.093L351.597 234.292L306.333 302.101C306.023 302.565 305.393 302.686 304.933 302.369Z" fill="#014952" fill-opacity="0.2"/>
<path d="M351.597 234.292L306.333 302.101C306.023 302.565 305.393 302.686 304.933 302.369L273.399 280.59L271.677 279.401C271.213 279.08 271.106 278.438 271.441 277.984L305.565 231.718L320.039 212.093M351.597 234.292C340.925 227.118 330.393 219.718 320.039 212.093M351.597 234.292L320.039 212.093" stroke="#014952" stroke-opacity="0.2" stroke-width="2.00001" stroke-linejoin="round"/>
</g>
<text id="title_4" transform="translate(286.976 285.964) rotate(-54.8299)" fill="#172736" xml:space="preserve" style="white-space: pre" font-family="CoFo Weather 20240219" font-size="6" font-weight="500" letter-spacing="0em"><tspan x="23.6814" y="5.07">&#x41a;&#x430;&#x431;&#x438;&#x43d;&#x435;&#x442; &#10;</tspan><tspan x="3.24681" y="11.07">&#x43f;&#x430;&#x440;&#x438;&#x43a;&#x43c;&#x430;&#x445;&#x435;&#x440;&#x430;/&#x43c;&#x430;&#x441;&#x442;&#x435;&#x440;&#x430; </tspan><tspan x="17.1716" y="17.07">&#x43f;&#x43e; &#x43c;&#x430;&#x43d;&#x438;&#x43a;&#x44e;&#x440;&#x443;</tspan></text>
<g id="n_2">
<rect x="293.976" y="255.533" width="14.375" height="8.25" rx="1.6875" transform="rotate(-52.908 293.976 255.533)" fill="#014952" fill-opacity="0.2"/>
<text id="314" transform="translate(295.891 254.866) rotate(-52.908)" fill="#172736" xml:space="preserve" style="white-space: pre" font-family="CoFo Weather 20240219" font-size="6" font-weight="500" letter-spacing="0.02em"><tspan x="0.469844" y="5.07">314</tspan></text>
</g>
</g>
<g id="b1f3-rest">
<path id="area_3" d="M350.208 234.571C350.823 233.65 352.068 233.405 352.987 234.021C353.702 234.5 354.419 234.979 355.136 235.457L362.998 240.641C369.824 245.092 376.743 249.475 383.725 253.767C384.658 254.34 384.957 255.558 384.394 256.499L342.801 326.006C342.217 326.982 340.937 327.275 339.987 326.65L306.061 304.334C305.134 303.724 304.88 302.476 305.496 301.553L350.208 234.571Z" fill="#E2D4F9" stroke="#B8B6CA" stroke-width="2.00001" stroke-miterlimit="16" stroke-linejoin="round"/>
<text id="title_5" transform="translate(333.65 292.013) rotate(-57.491)" fill="#172736" xml:space="preserve" style="white-space: pre" font-family="CoFo Weather 20240219" font-size="7.50003" font-weight="500" letter-spacing="0em"><tspan x="0.139343" y="6.58751">&#x41a;&#x43e;&#x43c;&#x43d;&#x430;&#x442;&#x430;&#10;</tspan><tspan x="2.58564" y="14.5875">&#x43e;&#x442;&#x434;&#x44b;&#x445;&#x430;</tspan></text>
<g id="n_3">
<rect x="328.603" y="280.257" width="15.5" height="9" rx="2.25" transform="rotate(-55.5691 328.603 280.257)" fill="#CBB2F4"/>
<text id="316" transform="translate(331.112 279.249) rotate(-55.5691)" fill="#172736" xml:space="preserve" style="white-space: pre" font-family="CoFo Weather 20240219" font-size="6" font-weight="500" letter-spacing="0.02em"><tspan x="0.469844" y="5.07">316</tspan></text>
</g>
</g>
<g id="b1f3-306">
<path id="area_4" d="M183.807 127.672C184.593 126.952 185.807 126.975 186.565 127.726L221.536 162.357C222.314 163.127 222.329 164.379 221.569 165.166L183.92 204.185C183.152 204.981 181.884 205.001 181.089 204.232L143.315 167.629C142.488 166.828 142.507 165.496 143.356 164.718L183.807 127.672Z" fill="#33D18F" fill-opacity="0.2" stroke="#33D18F" stroke-opacity="0.2" stroke-width="2.00001" stroke-linejoin="round"/>
<text id="title_6" fill="#172736" xml:space="preserve" style="white-space: pre" font-family="CoFo Weather 20240219" font-size="7.50003" font-weight="500" letter-spacing="0em"><tspan x="158.427" y="169.365">&#x41f;&#x435;&#x440;&#x435;&#x433;&#x43e;&#x432;&#x43e;&#x440;&#x43a;&#x430;</tspan></text>
<g id="n_4">
<rect x="174.226" y="150.848" width="16.5" height="9" rx="2.25" fill="#33D18F" fill-opacity="0.2"/>
<text id="306" fill="#172736" xml:space="preserve" style="white-space: pre" font-family="CoFo Weather 20240219" font-size="6" font-weight="500" letter-spacing="0.02em"><tspan x="176.511" y="157.418">306</tspan></text>
</g>
</g>
<g id="b1f3-3b">
<g id="Vector_3">
<path d="M148.051 1.19639H179.903L157.503 18.5797L146.95 27.29L142.397 30.7136C141.949 31.0507 141.311 30.9531 140.984 30.4975L138.836 27.5055L135.768 23.2158C132.681 18.8421 129.636 14.4374 126.632 10.0023C124.652 7.08015 122.691 4.1448 120.748 1.19639H148.051Z" fill="#33D18F" fill-opacity="0.2"/>
<path d="M188.128 1.19639H179.903M179.903 1.19639H148.051H120.748M179.903 1.19639L157.503 18.5797L146.95 27.29L142.397 30.7136C141.949 31.0507 141.311 30.9531 140.984 30.4975L138.836 27.5055L135.768 23.2158C132.681 18.8421 129.636 14.4374 126.632 10.0023C124.652 7.08015 122.691 4.1448 120.748 1.19639M120.748 1.19639C120.705 1.13097 120.662 1.06555 120.619 1.00011" stroke="#33D18F" stroke-opacity="0.2" stroke-width="2.00001" stroke-linejoin="round"/>
</g>
<text id="title_7" fill="#172736" xml:space="preserve" style="white-space: pre" font-family="CoFo Weather 20240219" font-size="5" font-weight="500" letter-spacing="0em"><tspan x="131.443" y="14.292">&#x41f;&#x435;&#x440;&#x435;&#x433;&#x43e;&#x432;&#x43e;&#x440;&#x43a;&#x430;</tspan></text>
<g id="n_5">
<rect x="142.976" y="3.06701" width="9.375" height="7.25" rx="1.6875" fill="#33D18F" fill-opacity="0.2"/>
<text id="3&#208;&#177;" fill="#172736" xml:space="preserve" style="white-space: pre" font-family="CoFo Weather 20240219" font-size="4.5" font-weight="500" letter-spacing="0.02em"><tspan x="144.83" y="8.2445">3&#x431;</tspan></text>
</g>
</g>
<g id="b1f3-308b">
<path id="area_5" d="M112.744 192.416C113.518 191.718 114.697 191.731 115.455 192.446L147.694 222.844C148.507 223.61 148.534 224.893 147.756 225.694L100.128 274.667C99.4458 275.369 98.3562 275.474 97.5527 274.915C83.9159 265.424 70.4755 255.671 57.2383 245.663C56.2363 244.905 56.1736 243.424 57.1055 242.583L112.744 192.416Z" fill="#007E76" fill-opacity="0.2" stroke="#007E76" stroke-opacity="0.2" stroke-width="2.00001" stroke-linejoin="round"/>
<text id="title_8" transform="translate(82.3904 254.275) rotate(-45)" fill="#172736" xml:space="preserve" style="white-space: pre" font-family="CoFo Weather 20240219" font-size="5.62502" font-weight="500" letter-spacing="0em"><tspan x="0.287123" y="4.94063">&#x421;&#x442;&#x43e;&#x43c;&#x430;&#x442;&#x43e;&#x43b;&#x43e;&#x433;&#x438;&#x447;&#x435;&#x441;&#x43a;&#x438;&#x439; &#10;</tspan><tspan x="17.6428" y="10.9406">&#x43a;&#x430;&#x431;&#x438;&#x43d;&#x435;&#x442;</tspan></text>
<g id="n_6">
<rect x="92.9858" y="233.147" width="15.375" height="7.25" rx="1.6875" transform="rotate(-45 92.9858 233.147)" fill="#007E76" fill-opacity="0.2"/>
<text id="308&#208;&#177;" transform="translate(94.9746 232.75) rotate(-45)" fill="#172736" xml:space="preserve" style="white-space: pre" font-family="CoFo Weather 20240219" font-size="4.5" font-weight="500" letter-spacing="0.02em"><tspan x="0.0752048" y="4.0525">308&#x431;</tspan></text>
</g>
</g>
<g id="b1f3-308a">
<g id="area_6">
<path d="M134.826 236.12C135.596 235.328 136.864 235.311 137.656 236.082L166.826 264.512C167.59 265.257 167.635 266.47 166.928 267.269L138.257 299.713L136.769 301.136L136.195 300.767C123.717 292.747 111.39 284.514 99.2182 276.073C98.2028 275.368 98.0645 273.921 98.9253 273.036L134.826 236.12Z" fill="#E2D4F9"/>
<path d="M136.195 300.767C123.717 292.747 111.39 284.514 99.2182 276.073C98.2028 275.368 98.0645 273.921 98.9253 273.036L134.826 236.12C135.596 235.328 136.864 235.311 137.656 236.082L166.826 264.512C167.59 265.257 167.635 266.47 166.928 267.269L138.257 299.713L136.769 301.136M136.195 300.767C136.386 300.89 136.578 301.013 136.769 301.136M136.195 300.767L136.769 301.136" stroke="#B8B6CA" stroke-width="2.00001" stroke-miterlimit="16" stroke-linejoin="round"/>
</g>
<text id="title_9" transform="translate(119.875 278.79) rotate(-45)" fill="#172736" xml:space="preserve" style="white-space: pre" font-family="CoFo Weather 20240219" font-size="5.62502" font-weight="500" letter-spacing="0em"><tspan x="0.259518" y="4.94063">&#x41c;&#x430;&#x441;&#x441;&#x430;&#x436;&#x43d;&#x44b;&#x439;&#10;</tspan><tspan x="5.64284" y="10.9406">&#x43a;&#x430;&#x431;&#x438;&#x43d;&#x435;&#x442;</tspan></text>
<g id="n_7">
<rect x="121.986" y="266.147" width="15.375" height="7.25" rx="1.6875" transform="rotate(-45 121.986 266.147)" fill="#CBB2F4"/>
<text id="308&#208;&#176;" transform="translate(123.975 265.75) rotate(-45)" fill="#172736" xml:space="preserve" style="white-space: pre" font-family="CoFo Weather 20240219" font-size="4.5" font-weight="500" letter-spacing="0.02em"><tspan x="0.189463" y="4.0525">308&#x430;</tspan></text>
</g>
</g>
<text id="title_10" fill="#172736" xml:space="preserve" style="white-space: pre" font-family="CoFo Weather 20240219" font-size="10" font-weight="500" letter-spacing="0em"><tspan x="301.398" y="119.517">&#x41b;&#x438;&#x444;&#x442;&#x43e;&#x432;&#x43e;&#x439;&#10;</tspan><tspan x="311.989" y="129.517">&#x445;&#x43e;&#x43b;&#x43b; 1</tspan></text>
<g id="b1f3-kicker">
<rect id="Rectangle 2988" x="279.814" y="193.652" width="31" height="19" rx="1" transform="rotate(36.999 279.814 193.652)" fill="#E2D4F9" stroke="#B8B6CA" stroke-width="2.00001" stroke-miterlimit="16" stroke-linejoin="round"/>
<text id="&#208;&#154;&#208;&#184;&#208;&#186;&#208;&#181;&#209;&#128;" transform="translate(280.055 200.067) rotate(35.6385)" fill="black" xml:space="preserve" style="white-space: pre" font-family="CoFo Weather 20240219" font-size="7.02448" font-weight="500" letter-spacing="0em"><tspan x="0.459844" y="5.92345">&#x41a;&#x438;&#x43a;&#x435;&#x440;</tspan></text>
</g>
</g>
</svg>
