<svg width="1124" height="480" viewBox="0 0 1124 480" fill="none" xmlns="http://www.w3.org/2000/svg">
<g id="b1f4">
<g id="map-otl">
<path d="M588.893 258.842L584.836 257.56L581.414 256.507C580.896 256.347 580.345 256.63 580.172 257.143L575.12 272.14L570.705 285.243L564.34 304.139L562.441 310.04C566.467 311.365 570.506 312.659 574.56 313.922L576.336 309.03C576.527 308.504 576.249 307.923 575.719 307.742L572.56 306.664L578.934 288.001L583.459 274.752L588.893 258.842Z" fill="white"/>
<path d="M825.193 163.115H817.969C790.834 163.115 764.084 161.369 737.834 157.985C729.467 156.906 721.151 155.66 712.89 154.252C692.722 150.813 672.879 146.403 653.415 141.07C635.181 136.075 617.28 130.27 599.756 123.698C581.392 116.81 563.442 109.079 545.957 100.552C508.812 82.437 473.766 60.7291 441.307 35.8821L441.046 35.6821C440.744 35.4507 440.311 35.5124 440.086 35.8192L439.891 36.0845L388.906 105.604L396.579 112.04L423.598 130.43C424.046 130.735 424.169 131.342 423.876 131.798L417.03 142.436L485.304 181.478L501.913 190.976L563.865 218.316L569.166 205.28C569.367 204.784 569.924 204.535 570.428 204.715L586.351 210.394L598.451 214.299L602.851 215.718L628.842 224.106C629.344 224.268 629.633 224.791 629.505 225.302L626.213 238.389C648.641 244.23 669.848 249.091 690.426 253.012C712.817 257.278 734.464 260.431 756.133 262.521C777.94 264.624 799.768 265.65 822.397 265.65H920.629H963.428H990.496H996.328C996.667 265.65 996.941 265.376 996.941 265.038C996.765 265.038 996.601 264.941 996.457 264.792C996.14 264.631 995.941 264.306 995.941 263.951V263.53V163.607C995.941 163.055 995.493 162.607 994.941 162.607L964.754 163.115H934.071H825.193Z" fill="white"/>
<path d="M555.437 280.128L553.363 286.353L546.986 304.62L562.441 310.04L564.34 304.139L570.705 285.243L555.437 280.128Z" fill="white"/>
<path d="M572.56 306.664L575.719 307.742C576.249 307.923 576.527 308.504 576.336 309.03L574.56 313.922L585.185 317.216L593.547 292.897L578.934 288.001L572.56 306.664Z" fill="white"/>
<path d="M58.2029 243.13C57.7368 243.55 57.7685 244.291 58.269 244.669C84.8352 264.754 112.222 283.811 140.369 301.782C153.514 310.175 166.826 318.331 180.297 326.244C194.617 334.655 209.117 342.791 223.79 350.646C276.687 378.96 331.838 403.612 388.906 424.263C417.163 434.488 450.158 442.382 479.314 450.604L490.724 419.869C488.944 419.209 487.168 418.544 485.395 417.873L489.832 406.297C457.557 393.919 423.454 378.769 393.036 362.996C367.837 349.929 343.314 335.737 319.535 320.486C301.007 308.603 282.93 296.077 265.337 282.94C244.386 267.297 224.12 250.786 204.592 233.463C195.94 225.787 187.433 217.952 179.076 209.962C165.489 196.972 152.297 183.573 139.52 169.783L129.937 178.449L58.2029 243.13Z" fill="white"/>
<path d="M246.508 181.535L260.993 164.778C261.337 164.379 261.314 163.782 260.939 163.412L240.899 143.631L224.482 161.244L246.508 181.535Z" fill="white"/>
<path d="M1102.34 265.038H996.941C996.941 265.376 996.667 265.65 996.328 265.65H990.496H963.428H920.629H822.397C799.768 265.65 777.94 264.624 756.133 262.521C734.464 260.431 712.817 257.278 690.426 253.012C669.848 249.091 648.641 244.23 626.213 238.389L629.505 225.302C629.633 224.791 629.344 224.268 628.842 224.106L602.851 215.718L598.451 214.299L584.85 257.513L588.893 258.842L583.459 274.752L578.934 288.001L593.547 292.897L585.185 317.216L574.56 313.922C570.506 312.659 566.467 311.365 562.441 310.04L546.986 304.62L553.363 286.353L555.437 280.128L570.705 285.243L575.12 272.14L580.172 257.143C580.345 256.63 580.896 256.347 581.414 256.507L584.836 257.56L584.85 257.513L598.451 214.299L586.351 210.394L570.428 204.715C569.924 204.535 569.367 204.784 569.166 205.28L563.865 218.316L501.913 190.976L485.304 181.478L417.03 142.436L423.876 131.798C424.169 131.342 424.046 130.735 423.598 130.43L396.579 112.04L388.906 105.604C367.667 89.373 347.375 71.4585 328.127 52.9731C317.638 42.9004 307.46 32.5073 297.607 21.8098C297.234 21.4057 296.606 21.3766 296.199 21.7452L283.687 33.0675L269.486 17.0338L255.583 1.33697C255.393 1.12268 255.121 1 254.834 1H189.716H122.312H87.5061H52.6999H2.00228C1.23686 1 0.755358 1.82474 1.13273 2.49066C9.34817 16.9881 17.9386 31.2451 26.8909 45.2484C34.4303 57.0418 42.2264 68.6553 50.2713 80.081C58.7484 92.1205 67.5016 103.952 76.5219 115.565C85.2492 126.801 94.2264 137.834 103.445 148.654L127.045 129.221L107.128 105.964L128.303 130.625L127.045 129.221L103.445 148.654C112.067 158.773 120.9 168.707 129.937 178.449L139.52 169.783L152.643 157.764L185.613 127.57L207.463 148.23L222.883 162.96L224.482 161.244L240.899 143.631L260.939 163.412C261.314 163.782 261.337 164.379 260.993 164.778L246.508 181.535L224.482 161.244L222.883 162.96L207.463 148.23L185.613 127.57L152.643 157.764L139.52 169.783C152.297 183.573 165.489 196.972 179.076 209.962C187.433 217.952 195.94 225.787 204.592 233.463C224.12 250.786 244.386 267.297 265.337 282.94C282.93 296.077 301.007 308.603 319.535 320.486C343.314 335.737 367.837 349.929 393.036 362.996C423.454 378.769 457.557 393.919 489.832 406.297L485.395 417.873C487.168 418.544 488.944 419.209 490.724 419.869C499.456 423.109 508.258 426.226 517.125 429.217C533.393 434.704 549.882 439.767 566.57 444.388L578.075 403.315L586.389 373.633L558.727 363.838L568.038 336.552C568.088 336.404 568.249 336.326 568.396 336.377L573.239 338.068L568.038 336.552L558.727 363.838L586.389 373.633L578.075 403.315L566.57 444.388C594.228 452.048 622.43 458.496 651.078 463.655C679.464 468.767 708.286 472.614 737.447 475.121C764.049 477.408 790.933 478.58 818.025 478.58H822.397H864.37H991.391H1079.8C1080.35 478.58 1080.8 478.132 1080.8 477.58V381.735H1103.34C1112.79 381.735 1122.16 375.393 1122.16 364.265V327.761C1122.16 327.209 1121.71 326.761 1121.16 326.761H1104.34C1103.79 326.761 1103.34 326.313 1103.34 325.761V266.038C1103.34 265.486 1102.89 265.038 1102.34 265.038Z" fill="white"/>
<path d="M205.851 109.036L185.613 127.57M205.851 109.036C200.914 103.702 196.047 98.3034 191.249 92.8417C190.89 92.4327 190.27 92.3854 189.853 92.7358L160.206 117.669M205.851 109.036L233.677 136.503M185.613 127.57L207.463 148.23M185.613 127.57L152.643 157.764M58.2029 243.13C57.7368 243.55 57.7685 244.291 58.269 244.669M58.2029 243.13L129.937 178.449M58.2029 243.13C57.2961 243.947 57.2946 243.932 58.269 244.669M58.269 244.669C84.8352 264.754 112.222 283.811 140.369 301.782C153.514 310.175 166.826 318.331 180.297 326.244C194.617 334.655 209.117 342.791 223.79 350.646C276.687 378.96 331.838 403.612 388.906 424.263C417.163 434.488 450.158 442.382 479.314 450.604M479.314 450.604L479.224 450.847L490.724 419.869M479.314 450.604L490.724 419.869M817.969 163.115C817.77 163.115 818.169 163.115 817.969 163.115ZM817.969 163.115H825.193H934.071H964.754L994.941 162.607M817.969 163.115C790.834 163.115 764.084 161.369 737.834 157.985C729.467 156.906 721.151 155.66 712.89 154.252C692.722 150.813 672.879 146.403 653.415 141.07C635.181 136.075 617.28 130.27 599.756 123.698C581.392 116.81 563.442 109.079 545.957 100.552C508.812 82.437 473.766 60.7292 441.307 35.8821M994.941 162.607C995.493 162.607 995.941 163.055 995.941 163.607M994.941 162.607C995.493 162.607 995.941 163.055 995.941 163.607M995.941 163.607V263.53M995.941 263.53V263.951C995.941 264.306 996.14 264.631 996.457 264.792M995.941 263.53C995.941 263.907 996.149 264.472 996.457 264.792M996.941 265.038H1102.34M996.941 265.038C996.765 265.038 996.601 264.941 996.457 264.792M996.941 265.038L996.457 264.792M996.941 265.038C996.941 265.376 996.666 265.65 996.328 265.65H990.496M1102.34 265.038C1102.89 265.038 1103.34 265.486 1103.34 266.038M1102.34 265.038C1102.8 264.805 1103.34 265.138 1103.34 265.652V266.038M1103.34 266.038V325.761C1103.34 326.313 1103.79 326.761 1104.34 326.761H1121.16C1121.71 326.761 1122.16 327.209 1122.16 327.761V364.265C1122.16 375.393 1112.79 381.735 1103.34 381.735H1080.8M602.666 322.634L609.485 298.238M602.666 322.634L596.651 320.77M602.666 322.634C604.243 323.063 605.822 323.488 607.404 323.909M532.819 299.651L537.066 288.455L542.026 275.634M532.819 299.651C529.969 298.588 527.126 297.51 524.291 296.417M532.819 299.651L536.282 300.865M441.307 35.8821L441.046 35.6821M441.307 35.8821C441.22 35.8155 441.133 35.7488 441.046 35.6821M462.934 270.299L465.23 265.626L501.913 190.976M462.934 270.299C480.058 278.587 497.662 285.844 515.323 292.897M462.934 270.299C460.157 268.955 457.389 267.596 454.63 266.221M336.653 193.822C325.973 186 315.492 177.924 305.217 169.603M336.653 193.822C340.446 196.601 344.264 199.347 348.107 202.061M336.653 193.822L352.621 171.894M368.093 216.243C363.726 213.35 359.39 209.908 355.083 206.933M368.093 216.243L383.296 193.437M368.093 216.243C379.184 223.592 390.466 230.677 401.929 237.488M328.127 52.9731L259.111 129.314M328.127 52.9731C347.375 71.4585 367.667 89.373 388.906 105.604M328.127 52.9731C317.638 42.9004 307.46 32.5073 297.607 21.8098C297.234 21.4057 296.606 21.3766 296.199 21.7452L283.687 33.0675M259.111 129.314C267.346 137.072 275.744 144.661 284.298 152.075M259.111 129.314C256.224 126.594 253.356 123.853 250.509 121.092M388.906 105.604L439.891 36.0845L440.086 35.8192C440.311 35.5124 440.744 35.4507 441.046 35.6821M388.906 105.604L396.579 112.04M283.687 33.0675L269.486 17.0338M283.687 33.0675L259.111 56.6144M396.579 112.04L423.598 130.43C424.046 130.735 424.169 131.342 423.876 131.798L417.03 142.436M396.579 112.04L352.621 171.894M971.324 351.609H963.428M1060.49 265.53V350.609C1060.49 351.161 1060.04 351.609 1059.49 351.609H1017.53M1074.79 351.609H1080.8M1100.68 351.609H1080.8M234.668 105.302C230.649 101.185 226.674 97.0267 222.743 92.8262C222.369 92.4267 222.386 91.8007 222.781 91.4221L233.684 80.9765M233.684 80.9765L242.733 72.3063L259.111 56.6144M233.684 80.9765L253.341 100.538C253.72 100.916 253.735 101.524 253.376 101.92L242.733 113.62M242.733 113.62L240.899 111.534M242.733 113.62L244.304 115.191M383.296 193.437L371.729 184.98M383.296 193.437L394.388 176.799M361.922 178.561L352.621 171.894M598.451 214.299L586.351 210.394L570.428 204.715C569.924 204.535 569.367 204.784 569.166 205.28L563.865 218.316M598.451 214.299L602.851 215.718L628.842 224.106C629.344 224.268 629.633 224.791 629.505 225.302L626.213 238.389M598.451 214.299L584.85 257.513M584.836 257.56L588.893 258.842M584.836 257.56L581.414 256.507C580.896 256.347 580.345 256.63 580.172 257.143L575.12 272.14M584.836 257.56L584.85 257.513M572.56 306.664L575.719 307.742C576.249 307.923 576.527 308.504 576.336 309.03L574.56 313.922M572.56 306.664L564.34 304.139M572.56 306.664L578.934 288.001M588.893 258.842L583.459 274.752M588.893 258.842L584.85 257.513M588.893 258.842L607.726 265.033L584.85 257.513M562.441 310.04C566.467 311.365 570.506 312.659 574.56 313.922M562.441 310.04L546.986 304.62M562.441 310.04L564.34 304.139M574.56 313.922L585.185 317.216M129.937 178.449C120.9 168.707 112.067 158.773 103.445 148.654M129.937 178.449L139.52 169.783M189.716 1H254.834C255.121 1 255.393 1.12268 255.583 1.33697L269.486 17.0338M189.716 1L219.925 36.2386M189.716 1H122.312M219.925 36.2386L192.714 59.8538M219.925 36.2386L231.371 49.5896M192.714 59.8538L186.224 65.4865M192.714 59.8538L203.234 72.1808M231.371 49.5896L236.445 55.5086C236.793 55.9144 236.76 56.5221 236.371 56.8881L211.504 80.258C211.088 80.6491 210.429 80.6129 210.058 80.1784L208.527 78.3843M231.371 49.5896L234.77 46.6864M269.486 17.0338L243.524 39.2085M243.524 39.2085L240.901 41.4493M243.524 39.2085L245.88 41.8386M259.111 56.6144L251.043 47.6046M113.007 45.2484L92.4359 60.54C91.9814 60.8779 91.8979 61.5254 92.2519 61.9676L107.128 80.5478M113.007 45.2484L118.288 52.7439C118.611 53.2034 119.25 53.3059 119.701 52.9707L145.395 33.8841M113.007 45.2484L111.282 42.9294M145.395 33.8841L130.843 13.1535M145.395 33.8841L177.52 73.0404M145.395 33.8841L160.623 52.4448M114.427 89.6638L136.598 117.355C136.954 117.799 137.608 117.857 138.037 117.483L151.412 105.812M114.427 89.6638C114.427 89.6638 124.519 81.5327 136.491 71.8876M114.427 89.6638L136.491 71.8876M114.427 89.6638L112.564 87.337M160.623 52.4448C153.383 58.2776 144.515 65.4227 136.491 71.8876M160.623 52.4448L136.491 71.8876M160.623 52.4448L177.52 73.0404M159.774 98.5157L136.491 71.8876M159.774 98.5157L157.771 100.263L162.158 96.4347L159.774 98.5157ZM122.312 1L130.843 13.1535M122.312 1H87.5061M104.019 33.1664L130.843 13.1535M104.019 33.1664H98.6374M104.019 33.1664L107.65 38.0479M68.4274 32.9755L52.8674 9.5968C52.7582 9.43267 52.6999 9.2399 52.6999 9.04274V1M68.4274 32.9755L66.8069 34.0938M68.4274 32.9755L76.8243 33.0595M52.6999 1H2.00228C1.23686 1 0.755358 1.82474 1.13273 2.49066C9.34817 16.9881 17.9386 31.2451 26.8909 45.2484M52.6999 1H87.5061M87.5061 1V33.1664M87.5061 33.1664L84.6586 33.1379M87.5061 33.1664H91.604M26.8909 45.2484L41.5773 36.1044C41.799 35.9664 42.0659 35.9206 42.3209 35.9767L58.8157 39.6086M26.8909 45.2484C34.4303 57.0418 42.2264 68.6553 50.2713 80.081M58.8157 39.6086L68.7776 53.9746M58.8157 39.6086L60.0592 38.7505M75.6745 63.9204L50.2713 80.081M75.6745 63.9204L73.884 61.3384M75.6745 63.9204L77.1809 65.9987M100.75 98.5157L76.5219 115.565M100.75 98.5157L82.1128 72.803M100.75 98.5157L102.348 100.381M127.045 129.221L103.445 148.654M127.045 129.221L128.303 130.625L107.128 105.964L127.045 129.221ZM152.643 157.764L135.397 138.534M152.643 157.764L139.52 169.783M103.445 148.654C94.2264 137.834 85.2492 126.801 76.5219 115.565M50.2713 80.081C58.7484 92.1205 67.5016 103.952 76.5219 115.565M135.397 138.534L154.085 122.817M135.397 138.534L134.041 137.023M246.508 181.535L260.993 164.778C261.337 164.379 261.314 163.782 260.939 163.412L240.899 143.631M246.508 181.535L248.118 182.943C248.536 183.309 248.576 183.945 248.207 184.36L226.014 209.346M246.508 181.535L224.482 161.244M204.178 233.93L204.592 233.463M489.832 406.297C457.557 393.919 423.454 378.769 393.036 362.996M489.832 406.297L499.383 381.378M489.832 406.297L485.395 417.873M139.52 169.783C152.297 183.573 165.489 196.972 179.076 209.962M485.395 417.873C485.02 417.732 485.769 418.015 485.395 417.873ZM485.395 417.873L499.383 381.378M485.395 417.873C487.168 418.544 488.944 419.209 490.724 419.869M1080.8 381.735V477.58C1080.8 478.132 1080.35 478.58 1079.8 478.58H991.391M1080.8 381.735V378.323M417.03 142.436L409.657 153.894L394.388 176.799M417.03 142.436L485.304 181.478M501.913 190.976L563.865 218.316M501.913 190.976L485.304 181.478M563.865 218.316L552.971 247.034M485.304 181.478L471.566 206.892M442.757 260.185L465.23 218.612M442.757 260.185C431.676 254.435 420.744 248.439 409.968 242.202M442.757 260.185C443.946 260.801 445.137 261.415 446.329 262.027M465.23 218.612L394.388 176.799M465.23 218.612L466.847 215.621M240.899 143.631L224.482 161.244M240.899 143.631L238.714 141.474M177.682 211.458L179.076 209.962M198.017 189.64L182.282 175.258C181.864 174.876 181.847 174.222 182.245 173.818L207.463 148.23M198.017 189.64L196.249 191.537L199.857 187.666L198.017 189.64ZM222.883 162.96L207.463 148.23M222.883 162.96L224.482 161.244M222.883 162.96L205.666 181.433M265.337 282.94C244.386 267.297 224.12 250.786 204.592 233.463M265.337 282.94C282.93 296.077 301.007 308.603 319.535 320.486M265.337 282.94L304.816 230.48M177.52 73.0404L181.681 78.1123C182.024 78.5301 181.973 79.1447 181.566 79.5L168.031 91.3105M177.52 73.0404L179.673 71.1724M204.592 233.463C195.94 225.787 187.433 217.952 179.076 209.962M204.592 233.463L220.055 216.055M179.076 209.962L190.544 197.658M369.258 245.997L319.535 320.486M369.258 245.997C367.944 245.123 366.637 244.249 365.336 243.375M369.258 245.997C378.535 252.164 388.195 257.947 397.96 263.477M319.535 320.486C343.314 335.737 367.837 349.929 393.036 362.996M436.065 284.102C441.703 287.103 447.333 289.981 452.938 292.715C457.383 294.883 461.85 297.012 466.338 299.103M436.065 284.102L422.178 309.564M436.065 284.102C426.114 278.804 415.884 273.417 405.688 267.794M393.036 362.996L422.178 309.564M422.178 309.564L452.051 324.733C452.542 324.982 453.142 324.788 453.393 324.298L454.394 322.351M466.338 299.103L458.444 314.467M466.338 299.103C477.587 304.342 488.971 309.337 500.486 314.082M521.924 322.57L512.082 348.248M521.924 322.57C517.508 320.892 513.109 319.178 508.728 317.427M521.924 322.57L536.888 327.294M626.213 238.389L625.478 241.018L617.837 268.357M626.213 238.389C648.641 244.23 669.848 249.091 690.426 253.012M822.397 265.65C799.768 265.65 777.94 264.624 756.133 262.521M822.397 265.65V353.809M822.397 265.65H920.629M674.077 338.646L711.176 344.261M674.077 338.646L679.663 309.387M674.077 338.646C666.066 337.226 658.096 335.69 650.167 334.038M690.426 253.012C712.817 257.278 734.464 260.431 756.133 262.521M690.426 253.012L680.515 304.924M748.276 349.876L751.273 316.547M748.276 349.876L783.133 351.726M748.276 349.876L742.498 349.002M756.133 262.521L751.273 316.547M822.397 353.809L816.55 353.499M822.397 353.809H828.672M963.428 351.609H920.629M963.428 351.609V308.629M963.428 265.65H920.629M963.428 265.65V308.629M963.428 265.65H990.496M920.629 265.65V295.167M920.629 351.609H907.748C907.196 351.609 906.748 352.056 906.748 352.609V352.809C906.748 353.361 906.3 353.809 905.748 353.809H838.125M920.629 351.609V320.618M920.629 308.629H963.428M920.629 308.629V311.286V304.742V308.629ZM990.496 265.65V351.609M982.861 351.609H990.496M990.496 351.609H1004.37M1080.8 351.609V378.323M1080.8 378.323H1055.55C1055 378.323 1054.55 377.875 1054.55 377.323V376.452C1054.55 375.9 1054.1 375.452 1053.55 375.452H1005.87M991.391 378.323V376.452C991.391 375.9 991.838 375.452 992.391 375.452H996.798M991.391 378.323V402.849M991.391 378.323H973.108M822.397 375.452H884.847C885.399 375.452 885.847 375.9 885.847 376.452V377.323C885.847 377.875 886.295 378.323 886.847 378.323H906.748H912.926M822.397 375.452L774.574 373.251M822.397 375.452V447.664M746.271 371.809L774.574 373.251M746.271 371.809L742.414 409.461M746.271 371.809L740.578 371.01M594.292 345.42L586.389 373.633M594.292 345.42L586.902 342.84M594.292 345.42L601.125 347.119M566.57 444.388L578.075 403.315M566.57 444.388C549.882 439.767 533.393 434.704 517.125 429.217M566.57 444.388C594.228 452.048 622.43 458.496 651.078 463.655M586.389 373.633L558.727 363.838M586.389 373.633L578.075 403.315M558.727 363.838L557.534 367.333M558.727 363.838L568.038 336.552M578.075 403.315L549.204 394.991C548.655 394.832 548.35 394.247 548.535 393.707L555.384 373.633M517.125 429.217C508.258 426.226 499.456 423.109 490.724 419.869M517.125 429.217L526.508 400.91M540.807 357.768L512.082 348.248M540.807 357.768L542.954 351.29L532.981 381.378L540.807 357.768ZM512.082 348.248L499.383 381.378M499.383 381.378L529.555 391.716M529.555 391.716L530.622 388.497M529.555 391.716L528.732 394.197M669.596 365.381L663.402 398.251M651.078 463.655L663.402 398.251M651.078 463.655C679.464 468.767 708.286 472.614 737.447 475.121M663.402 398.251L728.016 407.418M742.414 409.461L737.573 408.774M742.414 409.461L761.354 410.609M774.574 373.251L772.769 410.287C772.742 410.843 772.265 411.27 771.709 411.237L770.007 411.133M740.578 435.909L737.447 475.121M737.447 475.121C764.049 477.408 790.933 478.58 818.025 478.58H822.397M822.397 478.58V447.664M822.397 478.58H864.37M822.397 447.664H826.231M864.37 478.58V448.664C864.37 448.112 863.922 447.664 863.37 447.664H835.506M864.37 478.58H991.391M948.306 477.234V448.664C948.306 448.112 948.753 447.664 949.306 447.664H977.696M991.391 447.664V478.58M991.391 447.664V402.849M991.391 447.664H987.217M991.391 402.849H926.898C926.346 402.849 925.898 402.401 925.898 401.849V378.323M925.898 378.323H921.696M925.898 378.323H963.834M751.273 316.547L753.771 316.663M783.133 351.726L784.369 319.074C784.389 318.526 783.964 318.063 783.416 318.038L761.753 317.033M783.133 351.726L807.607 353.024M711.176 344.261L715.794 311.573C715.87 311.033 715.5 310.532 714.962 310.445L691.322 306.656M711.176 344.261L733.077 347.576M680.515 304.924L679.663 309.387M680.515 304.924L683.391 305.385M679.663 309.387L667.925 307.14M650.167 334.038L656.147 305.883C656.26 305.35 656.778 305.006 657.313 305.108L659.333 305.495M650.167 334.038C638.861 331.683 627.641 329.092 616.512 326.273M552.198 246.78L552.971 247.034M617.837 268.357L609.485 298.238M617.837 268.357L615.449 267.572M542.026 275.634L546.986 262.812L548.492 258.842L552.971 247.034M542.026 275.634L544.457 276.448M609.485 298.238L604.729 296.644M567.773 291.322L553.363 286.353M553.363 286.353L555.437 280.128M553.363 286.353L546.986 304.62M555.437 280.128L570.705 285.243M555.437 280.128L551.407 278.777M546.986 304.62L543.59 303.429M564.34 304.139L570.705 285.243M575.12 272.14L583.459 274.752M575.12 272.14L570.705 285.243M583.459 274.752L578.934 288.001M593.547 292.897L585.185 317.216M593.547 292.897L578.934 288.001M593.547 292.897L597.379 294.181M584.836 318.23L585.185 317.216M585.185 317.216L588.831 318.346M552.971 247.034L554.346 247.486M578.934 288.001L570.705 285.243M584.85 257.513L561.856 249.955M337.866 224.258C331.941 220.01 326.108 215.757 320.332 211.507C319.891 211.182 319.27 211.273 318.94 211.711L304.816 230.48M337.866 224.258L331.52 234.227M337.866 224.258C344.549 229.05 351.348 233.837 358.313 238.608M304.816 230.48L324.387 243.531C324.853 243.842 325.484 243.709 325.785 243.236L326.909 241.47M545.064 344.926L549.261 332.263C549.436 331.734 549.145 331.163 548.613 330.995L544.113 329.575L568.038 336.552M610.852 349.536L669.596 364.138L690.234 367.931C690.817 368.038 691.364 367.618 691.412 367.028L691.561 365.195C691.607 364.622 692.127 364.206 692.696 364.286L730.722 369.626M568.038 336.552L573.239 338.068L568.396 336.377C568.249 336.326 568.088 336.404 568.038 336.552Z" stroke="#172736" stroke-opacity="0.25" stroke-width="2" stroke-linecap="round" stroke-linejoin="round"/>
</g>
<text id="title" fill="#172736" xml:space="preserve" style="white-space: pre" font-family="CoFo Weather 20240219" font-size="10" font-weight="500" letter-spacing="0em"><tspan x="1003.33" y="305.321">&#x41b;&#x438;&#x444;&#x442;&#x43e;&#x432;&#x43e;&#x439;&#10;</tspan><tspan x="1012.7" y="315.321">&#x445;&#x43e;&#x43b;&#x43b; 2</tspan></text>
<text id="title_2" fill="#172736" xml:space="preserve" style="white-space: pre" font-family="CoFo Weather 20240219" font-size="10" font-weight="500" letter-spacing="0em"><tspan x="306.326" y="119.321">&#x41b;&#x438;&#x444;&#x442;&#x43e;&#x432;&#x43e;&#x439;&#10;</tspan><tspan x="316.917" y="129.321">&#x445;&#x43e;&#x43b;&#x43b; 1</tspan></text>
<g id="b1f4-402b">
<g id="map-otl_2">
<path d="M114.427 89.6639L136.599 117.355C136.954 117.799 137.608 117.857 138.037 117.483L159.019 99.174C159.436 98.8106 159.479 98.1783 159.115 97.7622L136.491 71.8877L114.427 89.6639Z" fill="#33D18F" fill-opacity="0.2"/>
<path d="M114.427 89.6639L136.599 117.355C136.954 117.799 137.608 117.857 138.037 117.483L159.019 99.1739C159.436 98.8106 159.479 98.1783 159.115 97.7622L136.491 71.8877M114.427 89.6639C114.427 89.6639 124.52 81.5328 136.491 71.8877M114.427 89.6639L136.491 71.8877" stroke="#33D18F" stroke-opacity="0.2" stroke-width="2.00001" stroke-linejoin="round"/>
</g>
<text id="title_3" fill="#172736" xml:space="preserve" style="white-space: pre" font-family="CoFo Weather 20240219" font-size="3.75001" font-weight="500" letter-spacing="0em"><tspan x="125.379" y="97.1292">&#x41f;&#x435;&#x440;&#x435;&#x433;&#x43e;&#x432;&#x43e;&#x440;&#x43a;&#x430;</tspan></text>
<g id="n">
<rect x="131.779" y="86.8706" width="10.25" height="5.5" rx="1.125" fill="#33D18F" fill-opacity="0.2"/>
<text id="402&#208;&#177;" fill="#172736" xml:space="preserve" style="white-space: pre" font-family="CoFo Weather 20240219" font-size="3" font-weight="500" letter-spacing="0.02em"><tspan x="133.007" y="90.6556">402&#x431;</tspan></text>
</g>
</g>
<g id="b1f4-402v">
<g id="map-otl_3">
<path d="M136.491 71.8877L114.427 89.6639L112.565 87.3372L107.129 80.548L92.2521 61.9677C91.8981 61.5256 91.9816 60.878 92.4361 60.5401L112.184 45.8605C112.635 45.5251 113.274 45.6275 113.598 46.0871L118.288 52.7441C118.612 53.2036 119.25 53.3061 119.702 52.9708L145.228 34.0088L160.623 52.4449L136.491 71.8877Z" fill="#33D18F" fill-opacity="0.2"/>
<path d="M145.395 33.8843L145.228 34.0088M114.427 89.6639C114.427 89.6639 124.52 81.5329 136.491 71.8877M114.427 89.6639L136.491 71.8877M114.427 89.6639L112.565 87.3372L107.129 80.548L92.2521 61.9677C91.8981 61.5256 91.9816 60.878 92.4361 60.5401L112.184 45.8605C112.635 45.5251 113.274 45.6275 113.598 46.0871L118.288 52.7441C118.612 53.2036 119.25 53.3061 119.702 52.9708L145.228 34.0088M160.623 52.4449C153.383 58.2777 144.515 65.4228 136.491 71.8877M160.623 52.4449L136.491 71.8877M160.623 52.4449L145.228 34.0088" stroke="#33D18F" stroke-opacity="0.2" stroke-width="2.00001" stroke-linejoin="round"/>
</g>
<text id="title_4" fill="#172736" xml:space="preserve" style="white-space: pre" font-family="CoFo Weather 20240219" font-size="3.75001" font-weight="500" letter-spacing="0em"><tspan x="110.506" y="70.262">&#x41f;&#x435;&#x440;&#x435;&#x433;&#x43e;&#x432;&#x43e;&#x440;&#x43a;&#x430;</tspan></text>
<g id="n_2">
<rect x="116.906" y="60.0034" width="10.25" height="5.5" rx="1.125" fill="#33D18F" fill-opacity="0.2"/>
<text id="402&#208;&#178;" fill="#172736" xml:space="preserve" style="white-space: pre" font-family="CoFo Weather 20240219" font-size="3" font-weight="500" letter-spacing="0.02em"><tspan x="118.197" y="63.7884">402&#x432;</tspan></text>
</g>
</g>
<g id="b1f4-402g">
<path id="map-otl_4" d="M144.614 34.4645L119.689 52.9799C119.243 53.3115 118.612 53.2152 118.284 52.7656L104.601 33.9652C104.279 33.5224 104.372 32.9027 104.811 32.5752L130.019 13.7689C130.47 13.4318 131.111 13.5345 131.435 13.9959L144.836 33.0872C145.147 33.5307 145.049 34.1414 144.614 34.4645Z" fill="#33D18F" fill-opacity="0.2" stroke="#33D18F" stroke-opacity="0.2" stroke-width="2.00001" stroke-linejoin="round"/>
<text id="title_5" fill="#172736" xml:space="preserve" style="white-space: pre" font-family="CoFo Weather 20240219" font-size="3.75001" font-weight="500" letter-spacing="0em"><tspan x="113.516" y="36.0027">&#x41f;&#x435;&#x440;&#x435;&#x433;&#x43e;&#x432;&#x43e;&#x440;&#x43a;&#x430;</tspan></text>
<g id="n_3">
<rect x="119.916" y="25.7441" width="10.25" height="5.5" rx="1.125" fill="#33D18F" fill-opacity="0.2"/>
<text id="402&#208;&#179;" fill="#172736" xml:space="preserve" style="white-space: pre" font-family="CoFo Weather 20240219" font-size="3" font-weight="500" letter-spacing="0.02em"><tspan x="121.396" y="29.5291">402&#x433;</tspan></text>
</g>
</g>
<g id="b1f4-402d">
<path id="map-otl_5" d="M122.61 1.42548L130.285 12.3584C130.596 12.8012 130.498 13.4109 130.064 13.7344L104.285 32.9679C104.112 33.0967 103.902 33.1664 103.687 33.1664H88.5056C87.9533 33.1664 87.5056 32.7187 87.5056 32.1664V2.00001C87.5056 1.44772 87.9533 1.00001 88.5056 1.00001H121.792C122.118 1.00001 122.423 1.15877 122.61 1.42548Z" fill="#33D18F" fill-opacity="0.2" stroke="#33D18F" stroke-opacity="0.2" stroke-width="2.00001" stroke-linejoin="round"/>
<text id="title_6" fill="#172736" xml:space="preserve" style="white-space: pre" font-family="CoFo Weather 20240219" font-size="3.75001" font-weight="500" letter-spacing="0em"><tspan x="92.3814" y="18.7571">&#x41f;&#x435;&#x440;&#x435;&#x433;&#x43e;&#x432;&#x43e;&#x440;&#x43a;&#x430;</tspan></text>
<g id="n_4">
<rect x="98.781" y="8.49854" width="10.25" height="5.5" rx="1.125" fill="#33D18F" fill-opacity="0.2"/>
<text id="402&#208;&#180;" fill="#172736" xml:space="preserve" style="white-space: pre" font-family="CoFo Weather 20240219" font-size="3" font-weight="500" letter-spacing="0.02em"><tspan x="99.9503" y="12.2835">402&#x434;</tspan></text>
</g>
</g>
<g id="b1f4-402e">
<path id="map-otl_6" d="M52.8675 9.59681L68.1342 32.535C68.3176 32.8106 68.6256 32.9775 68.9567 32.9808L86.4961 33.1563C87.0523 33.1618 87.5061 32.7125 87.5061 32.1563V2.00001C87.5061 1.44772 87.0584 1.00001 86.5061 1.00001H53.7C53.1477 1.00001 52.7 1.44773 52.7 2.00001V9.04275C52.7 9.23991 52.7582 9.43268 52.8675 9.59681Z" fill="#33D18F" fill-opacity="0.2" stroke="#33D18F" stroke-opacity="0.2" stroke-width="2.00001" stroke-linejoin="round"/>
<text id="title_7" fill="#172736" xml:space="preserve" style="white-space: pre" font-family="CoFo Weather 20240219" font-size="3.75001" font-weight="500" letter-spacing="0em"><tspan x="60.3219" y="16.0247">&#x41f;&#x435;&#x440;&#x435;&#x433;&#x43e;&#x432;&#x43e;&#x440;&#x43a;&#x430;</tspan></text>
<text id="402&#208;&#181;" fill="#172736" xml:space="preserve" style="white-space: pre" font-family="CoFo Weather 20240219" font-size="3" font-weight="500" letter-spacing="0.02em"><tspan x="68.0006" y="9.55112">402&#x435;</tspan></text>
</g>
<g id="b1f4-402z">
<path id="map-otl_7" d="M41.5778 36.1045L27.7505 44.7135C27.2777 45.0079 27.1364 45.6319 27.4369 46.1008C34.6349 57.3333 42.0658 68.4021 49.7228 79.3006C50.0299 79.7375 50.6262 79.8555 51.0768 79.5689L74.797 64.479C75.2762 64.1742 75.4056 63.532 75.082 63.0654L59.0397 39.9311C58.896 39.7238 58.6793 39.5785 58.433 39.5243L42.3214 35.9768C42.0664 35.9206 41.7995 35.9664 41.5778 36.1045Z" fill="#33D18F" fill-opacity="0.2" stroke="#33D18F" stroke-opacity="0.2" stroke-width="2.00001" stroke-linejoin="round"/>
<text id="title_8" fill="#172736" xml:space="preserve" style="white-space: pre" font-family="CoFo Weather 20240219" font-size="3.75001" font-weight="500" letter-spacing="0em"><tspan x="40.8775" y="61.2796">&#x41f;&#x435;&#x440;&#x435;&#x433;&#x43e;&#x432;&#x43e;&#x440;&#x43a;&#x430;</tspan></text>
<g id="n_5">
<rect x="47.2771" y="51.021" width="10.25" height="5.5" rx="1.125" fill="#33D18F" fill-opacity="0.2"/>
<text id="402&#208;&#183;" fill="#172736" xml:space="preserve" style="white-space: pre" font-family="CoFo Weather 20240219" font-size="3" font-weight="500" letter-spacing="0.02em"><tspan x="48.6207" y="54.806">402&#x437;</tspan></text>
</g>
</g>
<g id="b1f4-402i">
<path id="map-otl_8" d="M51.1555 79.5184L74.8804 64.4256C75.3265 64.1418 75.9165 64.2543 76.2268 64.6825L100.155 97.6946C100.482 98.1462 100.377 98.7783 99.9207 99.0993L77.3019 115.016C76.8652 115.323 76.2642 115.233 75.937 114.811C67.3369 103.716 58.9802 92.4217 50.8751 80.9376C50.546 80.4713 50.674 79.8248 51.1555 79.5184Z" fill="#33D18F" fill-opacity="0.2" stroke="#33D18F" stroke-opacity="0.2" stroke-width="2.00001" stroke-linejoin="round"/>
<text id="title_9" fill="#172736" xml:space="preserve" style="white-space: pre" font-family="CoFo Weather 20240219" font-size="3.75001" font-weight="500" letter-spacing="0em"><tspan x="64.8775" y="93.1292">&#x41f;&#x435;&#x440;&#x435;&#x433;&#x43e;&#x432;&#x43e;&#x440;&#x43a;&#x430;</tspan></text>
<g id="n_6">
<rect x="71.2771" y="82.8706" width="10.25" height="5.5" rx="1.125" fill="#33D18F" fill-opacity="0.2"/>
<text id="402&#208;&#184;" fill="#172736" xml:space="preserve" style="white-space: pre" font-family="CoFo Weather 20240219" font-size="3" font-weight="500" letter-spacing="0.02em"><tspan x="72.5079" y="86.6556">402&#x438;</tspan></text>
</g>
</g>
<g id="b1f4-402k">
<path id="map-otl_9" d="M104.205 148.029L126.258 129.869C126.69 129.514 126.746 128.872 126.382 128.447L101.342 99.2063C101.007 98.8147 100.428 98.7422 100.007 99.0389L77.3796 114.962C76.9127 115.29 76.8151 115.942 77.1657 116.392C85.4891 127.084 94.0391 137.591 102.808 147.905C103.162 148.321 103.783 148.376 104.205 148.029Z" fill="#33D18F" fill-opacity="0.2" stroke="#33D18F" stroke-opacity="0.2" stroke-width="2.00001" stroke-linejoin="round"/>
<text id="title_10" fill="#172736" xml:space="preserve" style="white-space: pre" font-family="CoFo Weather 20240219" font-size="3.75001" font-weight="500" letter-spacing="0em"><tspan x="90.8778" y="126.618">&#x41f;&#x435;&#x440;&#x435;&#x433;&#x43e;&#x432;&#x43e;&#x440;&#x43a;&#x430;</tspan></text>
<g id="n_7">
<rect x="97.2773" y="116.359" width="10.25" height="5.5" rx="1.125" fill="#33D18F" fill-opacity="0.2"/>
<text id="402&#208;&#186;" fill="#172736" xml:space="preserve" style="white-space: pre" font-family="CoFo Weather 20240219" font-size="3" font-weight="500" letter-spacing="0.02em"><tspan x="98.5697" y="120.144">402&#x43a;</tspan></text>
</g>
</g>
<g id="b1f4-402l">
<path id="map-otl_10" d="M129.266 177.724C120.693 168.463 112.304 159.029 104.105 149.427C103.742 149.002 103.799 148.362 104.23 148.007L126.304 129.831C126.718 129.49 127.327 129.536 127.684 129.935L151.982 157.027C152.348 157.435 152.317 158.062 151.913 158.432L139.519 169.783L130.67 177.786C130.264 178.153 129.638 178.126 129.266 177.724Z" fill="#33D18F" fill-opacity="0.2" stroke="#33D18F" stroke-opacity="0.2" stroke-width="2.00001" stroke-linejoin="round"/>
<text id="title_11" fill="#172736" xml:space="preserve" style="white-space: pre" font-family="CoFo Weather 20240219" font-size="3.75001" font-weight="500" letter-spacing="0em"><tspan x="116.379" y="154.894">&#x41f;&#x435;&#x440;&#x435;&#x433;&#x43e;&#x432;&#x43e;&#x440;&#x43a;&#x430;</tspan></text>
<g id="n_8">
<rect x="122.779" y="144.636" width="10.25" height="5.5" rx="1.125" fill="#33D18F" fill-opacity="0.2"/>
<text id="402&#208;&#187;" fill="#172736" xml:space="preserve" style="white-space: pre" font-family="CoFo Weather 20240219" font-size="3" font-weight="500" letter-spacing="0.02em"><tspan x="124.007" y="148.421">402&#x43b;</tspan></text>
</g>
</g>
<g id="b1f4-4b">
<g id="map-otl_11">
<path d="M489.832 406.298L499.384 381.378L528.619 391.395C529.137 391.573 529.416 392.135 529.244 392.656L517.442 428.263C517.267 428.789 516.698 429.073 516.173 428.895C507.628 426.003 499.144 422.993 490.724 419.869C488.945 419.209 487.168 418.544 485.395 417.874L489.832 406.298Z" fill="#33D18F" fill-opacity="0.2"/>
<path d="M485.395 417.874C485.021 417.732 485.769 418.016 485.395 417.874ZM485.395 417.874L499.384 381.378M485.395 417.874L489.832 406.298L499.384 381.378M485.395 417.874C487.168 418.544 488.945 419.209 490.724 419.869C499.144 422.993 507.628 426.003 516.173 428.895C516.698 429.073 517.267 428.789 517.442 428.263L529.244 392.656C529.416 392.135 529.137 391.573 528.619 391.395L499.384 381.378" stroke="#33D18F" stroke-opacity="0.2" stroke-width="2.00001" stroke-linejoin="round"/>
</g>
<text id="title_12" fill="#172736" xml:space="preserve" style="white-space: pre" font-family="CoFo Weather 20240219" font-size="3.75001" font-weight="500" letter-spacing="0em"><tspan x="496.163" y="408.467">&#x41f;&#x435;&#x440;&#x435;&#x433;&#x43e;&#x432;&#x43e;&#x440;&#x43a;&#x430;</tspan></text>
<g id="n_9">
<rect x="504.562" y="398.208" width="6.25" height="5.5" rx="1.125" fill="#33D18F" fill-opacity="0.2"/>
<text id="4&#208;&#177;" fill="#172736" xml:space="preserve" style="white-space: pre" font-family="CoFo Weather 20240219" font-size="3" font-weight="500" letter-spacing="0.02em"><tspan x="505.779" y="401.993">4&#x431;</tspan></text>
</g>
</g>
<g id="b1f4-k">
<path id="map-otl_12" d="M577.121 403.04L548.195 394.7L530.394 391.85C529.91 391.773 529.441 392.058 529.287 392.523L517.438 428.273C517.265 428.795 517.546 429.359 518.067 429.534C533.718 434.794 549.571 439.662 565.609 444.122C566.14 444.269 566.69 443.959 566.839 443.428L577.807 404.271C577.955 403.742 577.649 403.192 577.121 403.04Z" fill="#FFEDD6" stroke="#FFCF94" stroke-width="2.00001" stroke-linejoin="round"/>
<text id="title_13" fill="#172736" xml:space="preserve" style="white-space: pre" font-family="CoFo Weather 20240219" font-size="5.62502" font-weight="500" letter-spacing="0em"><tspan x="530.988" y="419.939">&#x41c;&#x438;&#x43d;&#x438;-&#x43a;&#x443;&#x445;&#x43d;&#x44f;</tspan></text>
</g>
<g id="b1f4-r">
<text id="title_14" transform="translate(257.202 209.931) rotate(-16.5658)" fill="#172736" xml:space="preserve" style="white-space: pre" font-family="CoFo Weather 20240219" font-size="8" font-weight="500" letter-spacing="0em"><tspan x="16.8698" y="6.76">&#x420;&#x435;&#x441;&#x435;&#x43f;&#x448;&#x43d;</tspan></text>
<path id="Line 16" d="M273.806 220.995C273.806 220.995 281.854 213.961 293.194 210.821C304.534 207.682 315.179 209.45 315.179 209.45" stroke="#475DEB" stroke-width="2"/>
</g>
<g id="b1f4-w">
<path id="Rectangle 2989" d="M252.962 184.602C253.318 184.195 253.933 184.144 254.35 184.487L269.06 196.572C269.484 196.921 269.548 197.546 269.203 197.973L229.524 247.104C229.18 247.529 228.559 247.6 228.129 247.263L211.234 234.021C210.783 233.667 210.721 233.008 211.097 232.576L252.962 184.602Z" fill="#E2D4F9" stroke="#B8B6CA" stroke-width="2.00001" stroke-miterlimit="16" stroke-linejoin="round"/>
<text id="&#208;&#151;&#208;&#190;&#208;&#189;&#208;&#176; &#208;&#190;&#208;&#182;&#208;&#184;&#208;&#180;&#208;&#176;&#208;&#189;&#208;&#184;&#209;&#143;" transform="translate(219.198 233.569) rotate(-49.6823)" fill="black" xml:space="preserve" style="white-space: pre" font-family="CoFo Weather 20240219" font-size="7.02448" font-weight="500" letter-spacing="0em"><tspan x="0.205435" y="5.92345">&#x417;&#x43e;&#x43d;&#x430; &#x43e;&#x436;&#x438;&#x434;&#x430;&#x43d;&#x438;&#x44f; </tspan></text>
</g>
</g>
</svg>
