<svg width="962" height="299" viewBox="0 0 962 299" fill="none" xmlns="http://www.w3.org/2000/svg">
<path d="M28.9287 1C28.3764 1 27.9287 1.44771 27.9287 2V164C27.9287 164.552 27.481 165 26.9287 165H10.8633C10.3372 165 9.90113 165.408 9.86561 165.932L1.00237 296.912C0.962766 297.497 1.43303 297.99 2.01948 297.979L181.429 294.5L255.462 292.032C256.001 292.014 256.429 291.572 256.429 291.033V288C256.429 287.448 256.876 287 257.429 287H328.429C380.762 281.167 492.729 268.8 521.929 266C551.098 263.203 607.975 254.186 632.85 250.013C632.904 250.004 632.957 250 633.012 250H722.929C723.481 250 723.929 249.552 723.929 249V235.301C723.929 234.833 724.253 234.427 724.71 234.325L959.647 181.675C960.104 181.573 960.429 181.167 960.429 180.699V73.5C960.429 72.9477 959.981 72.5 959.429 72.5H938.929C938.376 72.5 937.929 72.0523 937.929 71.5V2C937.929 1.44772 937.481 1 936.929 1H28.9287Z" fill="white"/>
<path d="M83.4287 146.5C82.8764 146.5 82.4287 146.948 82.4287 147.5V154.5H102.929C103.481 154.5 103.929 154.052 103.929 153.5V146.5H83.4287Z" fill="white"/>
<path d="M269.929 115.5C269.929 116.052 269.481 116.5 268.929 116.5H252.429V61H291.929H298.929V107.5V115H285.429C284.876 115 284.429 114.552 284.429 114V107.5H270.929C270.376 107.5 269.929 107.948 269.929 108.5V115.5Z" fill="white"/>
<path d="M390.929 259C390.376 259 389.929 258.552 389.929 258V253.5V233H402.929V259H390.929Z" fill="white"/>
<path d="M445.429 174H436.429V209H445.429V174Z" fill="white"/>
<path d="M853.929 77V90H845.929H831.429H820.429V77H825.929H831.429H845.929H853.929Z" fill="white"/>
<path d="M66.9287 128V116.5M66.9287 116.5H28.9287M66.9287 116.5H69.9287M100.429 116.5H113.929M126.929 116.5H137.929M66.9287 154.5V164C66.9287 164.552 66.481 165 65.9287 165H30.4287H28.9287M66.9287 154.5V139M66.9287 154.5H82.4287M82.4287 154.5V147.5C82.4287 146.948 82.8764 146.5 83.4287 146.5H103.929M82.4287 154.5H102.929C103.481 154.5 103.929 154.052 103.929 153.5V146.5M332.929 146.5H333.929C334.481 146.5 334.929 146.948 334.929 147.5V169.5M334.929 169.5H338.929M334.929 169.5H328.929M258.929 169.5H257.429C256.876 169.5 256.429 169.948 256.429 170.5V287.5M258.929 169.5V146.5M258.929 169.5H299.929M197.429 146.5H258.929M258.929 146.5H296.429M305.929 146.5H314.679M314.679 146.5H323.429M314.679 146.5V169.5M314.679 169.5H299.929M314.679 169.5H328.929M177.929 146.5H182.179M182.179 146.5H186.429M182.179 146.5V295M103.929 146.5H165.429M80.9287 116.5H84.6787M84.6787 116.5H88.4287M84.6787 116.5V107.5C84.6787 106.948 85.1264 106.5 85.6787 106.5H103.929M104.429 116V1.5M150.929 116.5H182.179M182.179 116.5H237.929M182.179 116.5V1.5M252.429 1.5V45.5M247.929 116.5H252.429M252.429 116.5H268.929C269.481 116.5 269.929 116.052 269.929 115.5V108.5C269.929 107.948 270.376 107.5 270.929 107.5H284.429M252.429 116.5V61M284.429 107.5V114C284.429 114.552 284.876 115 285.429 115H298.929M284.429 107.5H298.929M298.929 115V107.5M298.929 115H304.929M298.929 107.5V61M298.929 61H291.929M298.929 61H331.929C332.481 61 332.929 61.4477 332.929 62V114C332.929 114.552 332.481 115 331.929 115H315.929M252.429 59.5V61M252.429 61H291.929M291.929 61V1.5M332.929 45.5V41M332.929 41V1.5M332.929 41H336.429M347.429 41H353.929M353.929 41V61M353.929 41H366.429M353.929 76.5V79C353.929 79.5523 354.376 80 354.929 80H400.429M400.429 80V114C400.429 114.552 400.876 115 401.429 115H461.929M400.429 80V77.5C400.429 76.9477 400.876 76.5 401.429 76.5H405.929C406.481 76.5 406.929 76.0523 406.929 75.5V42C406.929 41.4477 406.481 41 405.929 41H366.429M473.929 115H490.929M502.929 115H518.929M518.929 115V121.5M518.929 115V71C518.929 70.4477 518.481 70 517.929 70H477.429M518.929 115H563.429M477.429 70V114M477.429 70V1M406.929 27.5V1.5M366.429 41V1.5M574.929 115H635.429C635.981 115 636.429 114.552 636.429 114V1M299.929 169.5V233M299.929 233V253.5M299.929 233H328.929M328.929 233V238.5M328.929 233V225.5M328.929 169.5V180.5M328.929 212V202M328.929 202V193.5M328.929 202H300.929M312.429 267.5H327.929C328.481 267.5 328.929 267.948 328.929 268.5V287.5M367.929 283V273M367.929 261V254.5C367.929 253.948 368.376 253.5 368.929 253.5H389.929M389.929 253.5V258C389.929 258.552 390.376 259 390.929 259H402.929M389.929 253.5V233M402.929 259V278.5M402.929 259V233M373.929 169.5H401.929C402.481 169.5 402.929 169.948 402.929 170.5V174M373.929 169.5H364.929M373.929 169.5V180.5M373.929 225.5V232C373.929 232.552 374.376 233 374.929 233H379.429M402.929 233V202.75M402.929 233H389.929M373.929 193.5V202.75M373.929 202.75V212M373.929 202.75H402.929M402.929 202.75V174M389.929 233H379.429M379.429 233V253M402.929 174H412.929M473.429 174H480.429M480.429 174V208.25M480.429 174V146.5M402.929 153V147.5C402.929 146.948 403.376 146.5 403.929 146.5H480.429M480.429 146.5H490.929M753.929 146.5H784.929M916.929 146.5H958.929M870.429 146.5H891.429M891.429 146.5H904.429M891.429 146.5V196.5M851.429 146.5H855.179M855.179 146.5H858.929M855.179 146.5V205.5M795.929 146.5H817.679M817.679 146.5H839.429M817.679 146.5V213.5M780.929 147.5V169M780.929 169V222M780.929 169H712.429C711.876 169 711.429 168.552 711.429 168V146.5M648.429 146.5H711.429M711.429 146.5H741.429M574.929 146.5H633.429M633.429 146.5H636.429M633.429 146.5V249.5M480.429 270V208.25M480.429 208.25H516.429C516.981 208.25 517.429 207.802 517.429 207.25V146.5M505.429 146.5H517.429M517.429 146.5H561.929M440.929 274.5V258.5C440.929 257.948 441.376 257.5 441.929 257.5H444.429C444.981 257.5 445.429 257.052 445.429 256.5V209M424.429 174H436.429M436.429 174H445.429M436.429 174V209M436.429 174V168M445.429 174H462.929M445.429 174V209M403.429 209H412.929M445.429 209H436.429M424.429 209H436.429M436.429 157.5V147.5M891.429 99.5V108.5C891.429 109.052 891.876 109.5 892.429 109.5H896.929M891.429 99.5V1M891.429 99.5H913.679M913.679 99.5H934.929C935.481 99.5 935.929 99.9477 935.929 100.5V121M913.679 99.5V109.5M906.929 109.5H913.679M913.679 109.5H918.929M927.929 109.5H935.929M845.929 115.5H852.929C853.481 115.5 853.929 115.052 853.929 114.5V90M766.929 115.5H708.429C707.876 115.5 707.429 115.052 707.429 114.5V77M707.429 77H677.929C677.376 77 676.929 77.4477 676.929 78V114.5M707.429 77H785.429M691.929 115.5H648.929M793.429 115.5H785.429M785.429 115.5H777.429M785.429 115.5V77M785.429 77V1M785.429 77H793.429M815.429 115.5H806.429M806.429 115.5H803.429M806.429 115.5V90M835.429 115.5H831.429M831.429 115.5H827.429M831.429 115.5V90M831.429 90V77M831.429 90H845.929M831.429 90H820.429M831.429 77H845.929M831.429 77H825.929M853.929 77V90M853.929 77H845.929M853.929 77V71.5M853.929 90H845.929M806.429 90V79M806.429 90H820.429M820.429 90V77M803.429 77H820.429M820.429 77H825.929M845.929 90V77M825.929 77V1M826.429 47.5H853.929M853.929 47.5V55M853.929 47.5V34.5M853.929 18V1M521.929 266C551.098 263.203 607.975 254.186 632.85 250.013C632.904 250.004 632.957 250 633.012 250H722.929C723.481 250 723.929 249.552 723.929 249V235.301C723.929 234.833 724.253 234.427 724.71 234.325L959.647 181.675C960.104 181.573 960.429 181.167 960.429 180.699V73.5C960.429 72.9477 959.981 72.5 959.429 72.5H938.929C938.376 72.5 937.929 72.0523 937.929 71.5V2C937.929 1.44772 937.481 1 936.929 1H28.9287C28.3764 1 27.9287 1.44771 27.9287 2V164C27.9287 164.552 27.481 165 26.9287 165H10.8633C10.3372 165 9.90113 165.408 9.86561 165.932L1.00237 296.912C0.962766 297.497 1.43303 297.99 2.01948 297.979L181.429 294.5L255.462 292.032C256.001 292.014 256.429 291.572 256.429 291.033V288C256.429 287.448 256.876 287 257.429 287H328.429C380.762 281.167 492.729 268.8 521.929 266Z" stroke="#BFC4C8" stroke-width="2" stroke-linecap="round" stroke-linejoin="round"/>
<path d="M349.6 146.43L349.992 146.424C350.189 146.421 350.349 146.395 350.471 146.345C350.598 146.29 350.706 146.205 350.795 146.092C350.884 145.973 350.98 145.801 351.084 145.576L350.564 145.583L348.604 141.796L349.652 141.78L351.276 145.085L352.683 141.736L353.683 141.721L351.926 145.707C351.74 146.105 351.565 146.409 351.403 146.619C351.241 146.83 351.056 146.982 350.85 147.075C350.648 147.164 350.39 147.21 350.076 147.215L349.612 147.222L349.6 146.43ZM355.247 143.722L353.751 143.744L353.74 143.024L357.604 142.967L357.615 143.687L356.119 143.709L356.169 147.125L355.297 147.138L355.247 143.722ZM359.143 145.161C359.149 145.598 359.151 145.902 359.148 146.073L361.238 142.914L362.19 142.9L362.251 147.035L361.427 147.047L361.394 144.824C361.388 144.402 361.386 144.104 361.389 143.928L359.307 147.079L358.347 147.093L358.286 142.957L359.11 142.945L359.143 145.161ZM362.811 146.331L363.011 146.328C363.24 146.325 363.404 146.237 363.503 146.065C363.602 145.887 363.653 145.585 363.658 145.158L363.68 142.878L367.088 142.827L367.149 146.963L366.285 146.976L366.235 143.56L364.443 143.587L364.427 145.243C364.418 145.696 364.372 146.055 364.291 146.317C364.209 146.574 364.074 146.763 363.883 146.883C363.698 146.998 363.443 147.058 363.118 147.062L362.822 147.067L362.811 146.331ZM368.923 145.017C368.929 145.454 368.931 145.758 368.928 145.929L371.018 142.77L371.97 142.755L372.031 146.891L371.207 146.903L371.174 144.679C371.168 144.258 371.166 143.959 371.169 143.783L369.087 146.934L368.127 146.949L368.066 142.813L368.89 142.801L368.923 145.017ZM374.666 146.932C374.197 146.939 373.793 146.862 373.455 146.702C373.122 146.542 372.868 146.311 372.693 146.009L373.319 145.648C373.635 146.07 374.089 146.277 374.681 146.268C375.363 146.258 375.701 146.034 375.695 145.597C375.692 145.41 375.634 145.272 375.521 145.183C375.413 145.094 375.236 145.052 374.991 145.055L373.911 145.071L373.902 144.463L374.942 144.448C375.411 144.441 375.643 144.248 375.637 143.87C375.632 143.48 375.303 143.29 374.653 143.3C374.082 143.308 373.651 143.525 373.358 143.951L372.713 143.601C372.885 143.305 373.14 143.072 373.479 142.901C373.823 142.731 374.219 142.642 374.667 142.636C375.227 142.627 375.663 142.717 375.975 142.904C376.287 143.092 376.446 143.375 376.452 143.754C376.455 143.967 376.402 144.16 376.292 144.332C376.183 144.504 376.017 144.632 375.794 144.715C376.281 144.825 376.528 145.139 376.536 145.656C376.542 146.051 376.378 146.36 376.045 146.584C375.718 146.807 375.258 146.923 374.666 146.932ZM378.602 146.866C378.127 146.873 377.753 146.777 377.478 146.579C377.203 146.375 377.062 146.086 377.057 145.713C377.051 145.286 377.195 144.969 377.491 144.762C377.787 144.555 378.246 144.447 378.87 144.438L380.03 144.421L380.026 144.141C380.021 143.826 379.941 143.598 379.784 143.456C379.632 143.309 379.391 143.238 379.061 143.243C378.789 143.247 378.547 143.304 378.335 143.414C378.129 143.518 377.963 143.665 377.838 143.853L377.224 143.494C377.391 143.209 377.638 142.987 377.966 142.827C378.295 142.668 378.662 142.585 379.067 142.579C379.632 142.57 380.069 142.687 380.376 142.928C380.684 143.168 380.842 143.561 380.85 144.105L380.889 146.76L380.097 146.772L380.087 146.092C379.957 146.345 379.76 146.537 379.495 146.669C379.236 146.795 378.938 146.861 378.602 146.866ZM377.888 145.637C377.891 145.834 377.973 145.979 378.134 146.073C378.296 146.161 378.51 146.203 378.776 146.2C379.15 146.194 379.455 146.109 379.693 145.946C379.93 145.777 380.047 145.549 380.043 145.261L380.039 144.997L378.903 145.014C378.551 145.019 378.293 145.073 378.129 145.177C377.965 145.281 377.885 145.434 377.888 145.637ZM381.768 142.611L382.632 142.598L382.682 146.014L384.754 145.983L384.703 142.568L385.567 142.555L385.618 145.971L386.21 145.962L386.235 147.706L385.412 147.718L385.396 146.694L381.829 146.747L381.768 142.611ZM387.647 144.741C387.654 145.178 387.656 145.482 387.653 145.653L389.742 142.493L390.694 142.479L390.755 146.615L389.931 146.627L389.899 144.403C389.892 143.982 389.891 143.683 389.893 143.507L387.812 146.658L386.852 146.672L386.791 142.537L387.615 142.525L387.647 144.741ZM392.671 145.043C392.302 144.995 392.02 144.865 391.825 144.655C391.63 144.444 391.53 144.153 391.524 143.779C391.518 143.347 391.644 143.02 391.902 142.798C392.165 142.57 392.542 142.452 393.033 142.445L395.297 142.412L395.358 146.547L394.518 146.559L394.495 145.04L393.591 145.053L392.494 146.589L391.462 146.605L392.671 145.043ZM392.388 143.767C392.395 144.199 392.638 144.411 393.118 144.404L394.486 144.384L394.466 143.08L393.099 143.1C392.619 143.107 392.382 143.329 392.388 143.767ZM351.147 155.28C350.459 155.29 349.931 155.124 349.563 154.783C349.201 154.442 349.015 153.927 349.004 153.239L348.996 152.687C348.985 151.925 349.054 151.326 349.202 150.892C349.35 150.458 349.593 150.137 349.932 149.929C350.27 149.716 350.74 149.584 351.342 149.532C351.981 149.486 352.522 149.454 352.965 149.436L352.976 150.22C352.369 150.24 351.846 150.264 351.409 150.291C350.999 150.319 350.675 150.396 350.437 150.522C350.198 150.648 350.025 150.84 349.917 151.098C349.809 151.35 349.747 151.697 349.732 152.14L349.733 152.212C349.857 151.885 350.066 151.639 350.363 151.475C350.664 151.305 351.01 151.217 351.399 151.212C351.991 151.203 352.441 151.356 352.75 151.672C353.058 151.982 353.217 152.446 353.226 153.065L353.23 153.321C353.239 153.94 353.062 154.42 352.699 154.761C352.342 155.097 351.824 155.27 351.147 155.28ZM349.877 153.282C349.884 153.752 349.993 154.091 350.204 154.302C350.415 154.507 350.726 154.606 351.137 154.6C351.547 154.594 351.852 154.485 352.052 154.274C352.257 154.063 352.356 153.726 352.349 153.262L352.347 153.15C352.341 152.681 352.234 152.346 352.029 152.147C351.823 151.947 351.518 151.85 351.112 151.856C350.712 151.862 350.405 151.97 350.189 152.182C349.973 152.393 349.869 152.72 349.875 153.162L349.877 153.282ZM354.212 156.011L354.516 156.006C354.697 156.004 354.841 155.975 354.947 155.92C355.058 155.87 355.153 155.781 355.231 155.652C355.309 155.528 355.392 155.34 355.479 155.088L355.063 155.094L353.499 151.029L354.45 151.015L355.686 154.493L355.694 154.493L356.786 150.98L357.706 150.967L356.257 155.221C356.129 155.606 355.997 155.907 355.862 156.122C355.726 156.338 355.563 156.495 355.373 156.594C355.182 156.693 354.943 156.744 354.655 156.748L354.223 156.755L354.212 156.011ZM359.581 150.939L361.029 154.158L362.373 150.898L363.605 150.88L363.666 155.015L362.826 155.028L362.785 151.732L361.402 155.049L360.642 155.06L359.17 151.785L359.162 151.785L359.218 155.081L358.402 155.093L358.341 150.957L359.581 150.939ZM365.909 155.054C365.434 155.061 365.059 154.965 364.784 154.767C364.509 154.563 364.369 154.274 364.364 153.901C364.357 153.474 364.502 153.157 364.798 152.95C365.093 152.743 365.553 152.635 366.177 152.626L367.337 152.609L367.333 152.329C367.328 152.014 367.247 151.786 367.091 151.644C366.939 151.497 366.698 151.426 366.367 151.431C366.096 151.435 365.854 151.492 365.642 151.602C365.435 151.706 365.27 151.853 365.144 152.041L364.531 151.682C364.697 151.397 364.945 151.175 365.273 151.015C365.602 150.856 365.968 150.773 366.374 150.767C366.939 150.759 367.375 150.875 367.683 151.116C367.991 151.356 368.148 151.749 368.156 152.293L368.196 154.948L367.404 154.96L367.394 154.28C367.264 154.533 367.067 154.725 366.802 154.857C366.543 154.983 366.245 155.049 365.909 155.054ZM365.195 153.825C365.198 154.022 365.28 154.167 365.441 154.261C365.602 154.349 365.816 154.391 366.083 154.388C366.456 154.382 366.762 154.298 366.999 154.134C367.237 153.965 367.354 153.737 367.349 153.449L367.345 153.185L366.21 153.202C365.858 153.207 365.6 153.261 365.436 153.365C365.272 153.469 365.192 153.622 365.195 153.825ZM369.075 150.799L371.962 150.756L371.973 151.476L369.949 151.506L370 154.922L369.136 154.935L369.075 150.799ZM373.486 152.95C373.492 153.388 373.494 153.692 373.491 153.862L375.581 150.703L376.533 150.689L376.594 154.825L375.77 154.837L375.737 152.613C375.731 152.192 375.729 151.893 375.732 151.717L373.65 154.868L372.69 154.882L372.629 150.747L373.453 150.734L373.486 152.95Z" fill="#172736"/>
<path d="M346.429 144.722C346.429 147.207 344.414 149.222 341.929 149.222C339.443 149.222 337.429 147.207 337.429 144.722C337.429 142.237 339.443 140.222 341.929 140.222C344.414 140.222 346.429 142.237 346.429 144.722Z" fill="#73E553"/>
<path d="M868.108 84.9425L868.103 84.5105C868.099 84.2065 868.016 83.9756 867.854 83.8177C867.692 83.6598 867.422 83.5473 867.045 83.4802C866.668 83.4052 866.132 83.3642 865.435 83.3573L861.09 83.3062L861.013 77.3787L869.172 77.2719L869.19 78.6398L862.219 78.731L862.262 82.0307L865.635 82.0706C866.587 82.0821 867.324 82.1565 867.846 82.2937C868.359 82.4229 868.734 82.6501 868.971 82.975C869.199 83.292 869.317 83.7545 869.325 84.3625L869.332 84.9264L868.108 84.9425ZM866.256 74.5642C866.912 74.5557 867.368 74.5537 867.624 74.5583L862.891 71.416L862.872 69.9881L869.076 69.9069L869.092 71.1428L865.756 71.1865C865.124 71.1948 864.676 71.1966 864.412 71.1921L869.133 74.3226L869.152 75.7624L862.949 75.8436L862.933 74.6078L866.256 74.5642ZM869.049 65.1027L869.05 65.2346C869.066 66.4425 868.83 67.3297 868.341 67.8962C867.845 68.4627 867.044 68.7532 865.94 68.7677C864.837 68.7821 864.033 68.5126 863.53 67.9591C863.018 67.4058 862.755 66.5252 862.739 65.3173L862.737 65.1853L860.493 65.2147L860.476 63.9188L862.72 63.8894L862.719 63.7574C862.703 62.5415 862.943 61.6503 863.44 61.0837C863.928 60.5173 864.725 60.2268 865.828 60.2124C866.932 60.1979 867.74 60.4674 868.251 61.0207C868.755 61.5742 869.014 62.4589 869.03 63.6748L869.032 63.8068L871.396 63.7758L871.413 65.0717L869.049 65.1027ZM865.923 67.4598C866.731 67.4492 867.289 67.2659 867.596 66.9098C867.904 66.5538 868.053 66.0118 868.043 65.2838L868.041 65.0919L863.745 65.1481L863.747 65.3401C863.757 66.068 863.92 66.6059 864.237 66.9538C864.553 67.3017 865.115 67.4704 865.923 67.4598ZM868.021 63.64C868.012 62.912 867.849 62.3741 867.532 62.0262C867.216 61.6784 866.653 61.5097 865.846 61.5203C865.038 61.5309 864.48 61.7142 864.173 62.0702C863.865 62.4263 863.716 62.9683 863.726 63.6962L863.728 63.8882L868.024 63.832L868.021 63.64ZM863.787 57.3905L863.817 59.6343L862.737 59.6484L862.661 53.8529L863.741 53.8388L863.77 56.0826L868.894 56.0155L868.911 57.3234L863.787 57.3905ZM868.935 49.9844C868.948 51.0003 868.698 51.7876 868.186 52.3464C867.673 52.9051 866.941 53.1907 865.989 53.2032L865.521 53.2093C864.569 53.2218 863.829 52.9554 863.302 52.4103C862.775 51.8652 862.505 51.0846 862.491 50.0687C862.478 49.0448 862.728 48.2575 863.241 47.7067C863.745 47.148 864.478 46.8624 865.437 46.8499L865.905 46.8437C866.865 46.8312 867.609 47.0975 868.136 47.6426C868.655 48.1799 868.921 48.9604 868.935 49.9844ZM865.863 51.8847C866.591 51.8752 867.117 51.7123 867.441 51.396C867.765 51.0798 867.923 50.6137 867.915 49.9977C867.907 49.3818 867.737 48.9199 867.405 48.6123C867.073 48.2966 866.543 48.1435 865.815 48.153L865.563 48.1563C864.835 48.1659 864.309 48.3328 863.985 48.657C863.661 48.9733 863.503 49.4394 863.511 50.0554C863.519 50.6713 863.689 51.1331 864.021 51.4408C864.354 51.7485 864.884 51.8976 865.611 51.888L865.863 51.8847ZM862.554 45.6939L862.508 42.1902C862.5 41.5342 862.625 41.0326 862.885 40.6851C863.144 40.3297 863.538 40.1485 864.066 40.1416C864.778 40.1323 865.258 40.45 865.506 41.0948C865.589 40.7257 865.758 40.4395 866.011 40.2362C866.256 40.0249 866.563 39.9169 866.931 39.9121C867.507 39.9046 867.945 40.0788 868.246 40.4349C868.546 40.791 868.701 41.325 868.711 42.037L868.758 45.6127L862.554 45.6939ZM867.777 42.1812C867.768 41.5173 867.472 41.1891 866.888 41.1968C866.592 41.2006 866.373 41.2835 866.231 41.4454C866.089 41.5993 866.02 41.8562 866.025 42.2162L866.053 44.376L867.805 44.353L867.777 42.1812ZM865.114 42.3241C865.11 41.9881 865.035 41.7451 864.889 41.595C864.743 41.4449 864.534 41.3716 864.262 41.3752C863.71 41.3824 863.438 41.71 863.447 42.3579L863.473 44.4097L865.141 44.3879L865.114 42.3241ZM868.75 35.8762C868.763 36.8921 868.514 37.6794 868.001 38.2382C867.488 38.797 866.756 39.0826 865.804 39.095L865.336 39.1012C864.384 39.1136 863.645 38.8473 863.117 38.3021C862.59 37.757 862.32 36.9765 862.307 35.9605C862.293 34.9366 862.543 34.1493 863.056 33.5985C863.561 33.0399 864.293 32.7543 865.253 32.7417L865.721 32.7356C866.681 32.723 867.424 32.9893 867.951 33.5344C868.47 34.0717 868.737 34.8523 868.75 35.8762ZM865.679 37.7766C866.407 37.767 866.933 37.6041 867.256 37.2879C867.58 36.9716 867.738 36.5055 867.73 35.8895C867.722 35.2736 867.552 34.8118 867.22 34.5041C866.888 34.1884 866.358 34.0353 865.63 34.0449L865.378 34.0482C864.65 34.0577 864.124 34.2246 863.8 34.5489C863.476 34.8651 863.319 35.3312 863.327 35.9472C863.335 36.5631 863.505 37.025 863.837 37.3326C864.169 37.6403 864.699 37.7894 865.427 37.7799L865.679 37.7766ZM865.677 30.3063C866.333 30.2977 866.789 30.2958 867.045 30.3004L862.311 27.1581L862.293 25.7302L868.496 25.649L868.512 26.8849L865.177 26.9286C864.545 26.9368 864.097 26.9387 863.833 26.9342L868.554 30.0646L868.573 31.5045L862.369 31.5857L862.353 30.3498L865.677 30.3063ZM860.41 29.4992L860.47 29.4984C860.71 29.4953 860.885 29.433 860.996 29.3115C861.098 29.1822 861.147 28.9735 861.143 28.6855C861.139 28.3895 861.085 28.1822 860.979 28.0636C860.866 27.9371 860.689 27.8754 860.449 27.8785L860.389 27.8793L860.375 26.7994C860.903 26.7925 861.288 26.9315 861.532 27.2163C861.768 27.4932 861.89 27.9797 861.899 28.6756C861.908 29.3716 861.795 29.8611 861.558 30.1442C861.322 30.4273 860.944 30.5723 860.424 30.5791L860.41 29.4992ZM878.502 69.4114L881.09 70.9376L881.109 72.3775L877.878 70.3196L874.904 72.3267L874.884 70.8268L877.241 69.3559L874.846 67.9231L874.827 66.4832L877.853 68.4598L881.03 66.33L881.049 67.8299L878.502 69.4114ZM881.104 62.8281C881.117 63.844 880.868 64.6314 880.355 65.1901C879.842 65.7489 879.11 66.0345 878.158 66.047L877.69 66.0531C876.738 66.0655 875.998 65.7992 875.471 65.2541C874.944 64.7089 874.674 63.9284 874.661 62.9125C874.647 61.8886 874.897 61.1012 875.41 60.5505C875.914 59.9918 876.647 59.7062 877.607 59.6936L878.075 59.6875C879.035 59.6749 879.778 59.9412 880.305 60.4864C880.824 61.0236 881.091 61.8042 881.104 62.8281ZM878.033 64.7285C878.761 64.719 879.286 64.5561 879.61 64.2398C879.934 63.9235 880.092 63.4574 880.084 62.8415C880.076 62.2255 879.906 61.7637 879.574 61.456C879.242 61.1403 878.712 60.9873 877.984 60.9968L877.732 61.0001C877.004 61.0096 876.478 61.1765 876.154 61.5008C875.83 61.8171 875.672 62.2832 875.68 62.8991C875.689 63.5151 875.859 63.9769 876.191 64.2846C876.523 64.5922 877.053 64.7413 877.781 64.7318L878.033 64.7285ZM879.892 59.1992L879.888 58.8993C879.884 58.5553 879.753 58.309 879.495 58.1603C879.229 58.0118 878.776 57.9337 878.136 57.9261L874.715 57.8869L874.648 52.7753L880.851 52.6941L880.868 53.99L875.745 54.0571L875.78 56.7448L878.264 56.7723C878.945 56.7874 879.482 56.8564 879.875 56.9793C880.261 57.1022 880.544 57.3065 880.723 57.5922C880.895 57.87 880.984 58.2529 880.99 58.7408L880.996 59.1848L879.892 59.1992ZM879.796 51.8522L879.792 51.5522C879.788 51.2083 879.657 50.962 879.399 50.8133C879.133 50.6648 878.68 50.5867 878.039 50.5791L874.619 50.5399L874.552 45.4283L880.755 45.3471L880.772 46.643L875.649 46.7101L875.684 49.3978L878.168 49.4253C878.849 49.4404 879.386 49.5094 879.779 49.6322C880.165 49.7552 880.447 49.9595 880.627 50.2452C880.799 50.523 880.888 50.9058 880.894 51.3938L880.9 51.8377L879.796 51.8522ZM879.616 41.7749C878.582 40.3803 877.768 39.3429 877.175 38.6626C876.574 37.9744 876.1 37.5166 875.753 37.2891C875.398 37.0617 875.053 36.9502 874.717 36.9546C874.277 36.9604 873.963 37.1085 873.774 37.399C873.578 37.6816 873.483 38.0629 873.489 38.5428C873.497 39.0868 873.622 39.5252 873.867 39.858C874.111 40.1908 874.511 40.4856 875.066 40.7424L874.613 41.8884C873.865 41.5862 873.308 41.1574 872.94 40.6022C872.565 40.0471 872.372 39.3455 872.361 38.4976C872.349 37.6177 872.536 36.9192 872.921 36.4021C873.299 35.8771 873.871 35.6096 874.639 35.5995C875.119 35.5933 875.577 35.7113 876.012 35.9536C876.447 36.1959 876.941 36.6255 877.493 37.2423C878.037 37.8592 878.713 38.7465 879.52 39.904L879.462 35.5004L880.626 35.4852L880.708 41.7606L879.616 41.7749Z" fill="#172736"/>
<path d="M351.108 243.942L351.103 243.51C351.099 243.207 351.016 242.976 350.854 242.818C350.692 242.66 350.422 242.547 350.045 242.48C349.668 242.405 349.132 242.364 348.435 242.357L344.09 242.306L344.013 236.379L352.172 236.272L352.19 237.64L345.219 237.731L345.262 241.031L348.635 241.071C349.587 241.082 350.324 241.156 350.846 241.294C351.359 241.423 351.734 241.65 351.971 241.975C352.199 242.292 352.317 242.755 352.325 243.362L352.332 243.926L351.108 243.942ZM349.256 233.564C349.912 233.556 350.368 233.554 350.624 233.558L345.891 230.416L345.872 228.988L352.076 228.907L352.092 230.143L348.756 230.187C348.124 230.195 347.676 230.197 347.412 230.192L352.133 233.323L352.152 234.762L345.949 234.844L345.933 233.608L349.256 233.564ZM352.049 224.103L352.05 224.235C352.066 225.443 351.83 226.33 351.341 226.896C350.845 227.463 350.044 227.753 348.94 227.768C347.837 227.782 347.033 227.513 346.53 226.959C346.018 226.406 345.755 225.525 345.739 224.317L345.737 224.185L343.493 224.215L343.476 222.919L345.72 222.889L345.719 222.757C345.703 221.542 345.943 220.65 346.44 220.084C346.928 219.517 347.725 219.227 348.828 219.212C349.932 219.198 350.74 219.467 351.251 220.021C351.755 220.574 352.014 221.459 352.03 222.675L352.032 222.807L354.396 222.776L354.413 224.072L352.049 224.103ZM348.923 226.46C349.731 226.449 350.289 226.266 350.596 225.91C350.904 225.554 351.053 225.012 351.043 224.284L351.041 224.092L346.745 224.148L346.747 224.34C346.757 225.068 346.92 225.606 347.237 225.954C347.553 226.302 348.115 226.47 348.923 226.46ZM351.021 222.64C351.012 221.912 350.849 221.374 350.532 221.026C350.216 220.678 349.653 220.51 348.846 220.52C348.038 220.531 347.48 220.714 347.173 221.07C346.865 221.426 346.716 221.968 346.726 222.696L346.728 222.888L351.024 222.832L351.021 222.64ZM346.787 216.39L346.817 218.634L345.737 218.648L345.661 212.853L346.741 212.839L346.77 215.083L351.894 215.016L351.911 216.323L346.787 216.39ZM351.935 208.984C351.948 210 351.698 210.788 351.186 211.346C350.673 211.905 349.941 212.191 348.989 212.203L348.521 212.209C347.569 212.222 346.829 211.955 346.302 211.41C345.775 210.865 345.505 210.085 345.491 209.069C345.478 208.045 345.728 207.257 346.241 206.707C346.745 206.148 347.478 205.862 348.437 205.85L348.905 205.844C349.865 205.831 350.609 206.097 351.136 206.643C351.655 207.18 351.921 207.96 351.935 208.984ZM348.863 210.885C349.591 210.875 350.117 210.712 350.441 210.396C350.765 210.08 350.923 209.614 350.915 208.998C350.907 208.382 350.737 207.92 350.405 207.612C350.073 207.297 349.543 207.144 348.815 207.153L348.563 207.156C347.835 207.166 347.309 207.333 346.985 207.657C346.661 207.973 346.503 208.439 346.511 209.055C346.519 209.671 346.689 210.133 347.021 210.441C347.354 210.748 347.884 210.898 348.611 210.888L348.863 210.885ZM345.554 204.694L345.508 201.19C345.5 200.534 345.625 200.033 345.885 199.685C346.144 199.33 346.538 199.149 347.066 199.142C347.778 199.132 348.258 199.45 348.506 200.095C348.589 199.726 348.758 199.44 349.011 199.236C349.256 199.025 349.563 198.917 349.931 198.912C350.507 198.905 350.945 199.079 351.246 199.435C351.546 199.791 351.701 200.325 351.711 201.037L351.758 204.613L345.554 204.694ZM350.777 201.181C350.768 200.517 350.472 200.189 349.888 200.197C349.592 200.201 349.373 200.284 349.231 200.445C349.089 200.599 349.02 200.856 349.025 201.216L349.053 203.376L350.805 203.353L350.777 201.181ZM348.114 201.324C348.11 200.988 348.035 200.745 347.889 200.595C347.743 200.445 347.534 200.372 347.262 200.375C346.71 200.382 346.438 200.71 346.447 201.358L346.473 203.41L348.141 203.388L348.114 201.324ZM351.75 194.876C351.763 195.892 351.514 196.679 351.001 197.238C350.488 197.797 349.756 198.083 348.804 198.095L348.336 198.101C347.384 198.114 346.645 197.847 346.117 197.302C345.59 196.757 345.32 195.976 345.307 194.961C345.293 193.937 345.543 193.149 346.056 192.599C346.561 192.04 347.293 191.754 348.253 191.742L348.721 191.736C349.681 191.723 350.424 191.989 350.951 192.534C351.47 193.072 351.737 193.852 351.75 194.876ZM348.679 196.777C349.407 196.767 349.933 196.604 350.256 196.288C350.58 195.972 350.738 195.505 350.73 194.89C350.722 194.274 350.552 193.812 350.22 193.504C349.888 193.188 349.358 193.035 348.63 193.045L348.378 193.048C347.65 193.058 347.124 193.225 346.8 193.549C346.476 193.865 346.319 194.331 346.327 194.947C346.335 195.563 346.505 196.025 346.837 196.333C347.169 196.64 347.699 196.789 348.427 196.78L348.679 196.777ZM348.677 189.306C349.333 189.298 349.789 189.296 350.045 189.3L345.311 186.158L345.293 184.73L351.496 184.649L351.512 185.885L348.177 185.929C347.545 185.937 347.097 185.939 346.833 185.934L351.554 189.065L351.573 190.505L345.369 190.586L345.353 189.35L348.677 189.306ZM343.41 188.499L343.47 188.498C343.71 188.495 343.885 188.433 343.996 188.312C344.098 188.182 344.147 187.973 344.143 187.686C344.139 187.39 344.085 187.182 343.979 187.064C343.866 186.937 343.689 186.875 343.449 186.879L343.389 186.879L343.375 185.799C343.903 185.793 344.288 185.931 344.532 186.216C344.768 186.493 344.89 186.98 344.899 187.676C344.908 188.372 344.795 188.861 344.558 189.144C344.322 189.427 343.944 189.572 343.424 189.579L343.41 188.499ZM361.483 226.947L364.071 228.473L364.09 229.913L360.859 227.855L357.885 229.862L357.865 228.362L360.222 226.891L357.827 225.458L357.808 224.018L360.834 225.995L364.011 223.865L364.03 225.365L361.483 226.947ZM364.085 220.363C364.098 221.379 363.848 222.167 363.336 222.725C362.823 223.284 362.091 223.57 361.139 223.582L360.671 223.588C359.719 223.601 358.979 223.334 358.452 222.789C357.925 222.244 357.655 221.464 357.641 220.448C357.628 219.424 357.878 218.637 358.391 218.086C358.895 217.527 359.628 217.241 360.587 217.229L361.055 217.223C362.015 217.21 362.759 217.477 363.286 218.022C363.805 218.559 364.071 219.339 364.085 220.363ZM361.013 222.264C361.741 222.254 362.267 222.091 362.591 221.775C362.915 221.459 363.073 220.993 363.065 220.377C363.057 219.761 362.887 219.299 362.555 218.991C362.223 218.676 361.693 218.523 360.965 218.532L360.713 218.535C359.985 218.545 359.459 218.712 359.135 219.036C358.811 219.352 358.653 219.818 358.661 220.434C358.669 221.05 358.839 221.512 359.171 221.82C359.504 222.128 360.034 222.277 360.761 222.267L361.013 222.264ZM362.873 216.735L362.869 216.435C362.865 216.091 362.734 215.844 362.476 215.696C362.21 215.547 361.757 215.469 361.116 215.461L357.696 215.422L357.629 210.311L363.832 210.229L363.849 211.525L358.726 211.592L358.761 214.28L361.245 214.308C361.926 214.323 362.463 214.392 362.856 214.515C363.242 214.638 363.524 214.842 363.704 215.127C363.876 215.405 363.965 215.788 363.971 216.276L363.977 216.72L362.873 216.735ZM362.777 209.387L362.773 209.088C362.769 208.744 362.637 208.497 362.379 208.349C362.113 208.2 361.66 208.122 361.02 208.114L357.599 208.075L357.532 202.964L363.736 202.882L363.753 204.178L358.629 204.245L358.665 206.933L361.149 206.961C361.829 206.976 362.366 207.045 362.76 207.168C363.146 207.29 363.428 207.495 363.608 207.78C363.78 208.058 363.869 208.441 363.875 208.929L363.881 209.373L362.777 209.387ZM357.247 197.64C357.628 198.035 357.843 198.592 357.893 199.312L356.693 199.327C356.656 198.368 356.26 197.709 355.503 197.351L355.489 196.319L363.649 196.212L363.666 197.556L357.247 197.64Z" fill="#172736"/>
<path d="M705.429 114.222H767.929H783.929V105.414V92.7222V77.2222H767.929H705.429V114.222Z" fill="#FFEDD6" stroke="#FFCF94" stroke-width="2.5" stroke-linecap="round" stroke-linejoin="round"/>
<path d="M733.353 106.222V102.397H734.242L735.429 105.53L736.61 102.397H737.493V106.222H736.869L736.886 103.128L735.721 106.222H735.114L733.949 103.128L733.966 106.222H733.353ZM738.783 104.872C738.783 105.18 738.781 105.393 738.777 105.513L740.279 103.314H740.948V106.222H740.369V104.658C740.369 104.362 740.371 104.152 740.374 104.028L738.878 106.222H738.203V103.314H738.783V104.872ZM741.636 103.314H742.244V104.484H743.729V103.314H744.336V106.222H743.729V104.985H742.244V106.222H741.636V103.314ZM745.605 104.872C745.605 105.18 745.603 105.393 745.599 105.513L747.101 103.314H747.771V106.222H747.191V104.658C747.191 104.362 747.193 104.152 747.197 104.028L745.701 106.222H745.026V103.314H745.605V104.872ZM748.307 104.388H749.815V104.883H748.307V104.388ZM750.349 103.314H750.956V104.585H751.125L752.329 103.314H753.066L751.794 104.63L753.133 106.222H752.368L751.299 104.951H750.956V106.222H750.349V103.314ZM753.683 106.824H753.897C754.024 106.824 754.125 106.805 754.2 106.768C754.279 106.734 754.347 106.672 754.403 106.582C754.459 106.496 754.519 106.365 754.583 106.188H754.29L753.233 103.314H753.902L754.735 105.772H754.74L755.545 103.314H756.192L755.128 106.29C755.035 106.56 754.939 106.77 754.842 106.92C754.744 107.07 754.628 107.178 754.493 107.246C754.358 107.313 754.189 107.347 753.987 107.347H753.683V106.824ZM757.709 105.018L756.978 106.222H756.303L757.287 104.72L756.365 103.314H757.068L757.743 104.428L758.429 103.314H759.104L758.159 104.72L759.138 106.222H758.435L757.709 105.018ZM759.583 103.314H760.19V104.484H761.675V103.314H762.283V106.222H761.675V104.985H760.19V106.222H759.583V103.314ZM763.647 105.137C763.388 105.099 763.191 105.005 763.056 104.855C762.921 104.705 762.854 104.499 762.854 104.237C762.854 103.933 762.946 103.704 763.129 103.55C763.317 103.393 763.583 103.314 763.928 103.314H765.52V106.222H764.929V105.153H764.294L763.506 106.222H762.781L763.647 105.137ZM763.461 104.237C763.461 104.54 763.63 104.692 763.968 104.692H764.929V103.775H763.968C763.63 103.775 763.461 103.929 763.461 104.237Z" fill="#172736"/>
<rect x="743.429" y="94.2222" width="8" height="5" rx="1.5" fill="#FFCF94"/>
<rect x="743.429" y="94.2222" width="8" height="5" rx="1.5" stroke="#FFA436" stroke-opacity="0.2" stroke-width="0.5"/>
<path d="M746.649 97.1742H745.101V96.8502L746.553 95.0022H747.081V96.8102H747.417V97.1742H747.081V97.7222H746.649V97.1742ZM746.649 96.8102V95.4582L745.589 96.8102H746.649ZM748.811 97.7622C748.48 97.7622 748.224 97.6755 748.043 97.5022C747.862 97.3288 747.771 97.0835 747.771 96.7662V96.6102C747.771 96.2928 747.862 96.0475 748.043 95.8742C748.224 95.7008 748.482 95.6142 748.815 95.6142C749.063 95.6142 749.267 95.6675 749.427 95.7742C749.59 95.8808 749.702 96.0342 749.763 96.2342L749.367 96.3542C749.287 96.0875 749.103 95.9542 748.815 95.9542C748.618 95.9542 748.467 96.0102 748.363 96.1222C748.259 96.2315 748.207 96.4062 748.207 96.6462V96.7302C748.207 97.1888 748.41 97.4182 748.815 97.4182C749.106 97.4182 749.291 97.2835 749.371 97.0142L749.759 97.1302C749.698 97.3328 749.587 97.4888 749.427 97.5982C749.267 97.7075 749.062 97.7622 748.811 97.7622Z" fill="#172736"/>
<path d="M960.429 147.5V182L891.429 197.5V147.5H960.429Z" fill="#007E76" fill-opacity="0.2" stroke="#007E76" stroke-opacity="0.2" stroke-width="2.5" stroke-linecap="round" stroke-linejoin="round"/>
<path d="M915.165 168.126L915.812 168.126L915.812 169.841L915.953 169.841L917.573 168.126L918.366 168.126L916.656 169.858L918.456 171.951L917.629 171.951L916.206 170.286L915.812 170.286L915.812 171.951L915.165 171.951L915.165 168.126ZM919.652 172.001C919.318 172.001 919.055 171.93 918.864 171.788C918.673 171.641 918.577 171.437 918.577 171.174C918.577 170.874 918.682 170.653 918.892 170.511C919.102 170.368 919.427 170.297 919.865 170.297L920.681 170.297L920.681 170.1C920.681 169.879 920.627 169.718 920.518 169.616C920.413 169.511 920.244 169.459 920.012 169.459C919.82 169.459 919.65 169.496 919.5 169.571C919.353 169.643 919.235 169.744 919.145 169.875L918.718 169.616C918.838 169.418 919.014 169.264 919.247 169.155C919.479 169.046 919.738 168.992 920.023 168.992C920.42 168.992 920.726 169.078 920.94 169.251C921.153 169.423 921.26 169.701 921.26 170.083L921.26 171.951L920.703 171.951L920.703 171.473C920.61 171.649 920.469 171.782 920.282 171.872C920.098 171.958 919.888 172.001 919.652 172.001ZM919.162 171.129C919.162 171.268 919.218 171.371 919.331 171.439C919.443 171.503 919.593 171.534 919.781 171.534C920.043 171.534 920.259 171.478 920.428 171.366C920.597 171.249 920.681 171.09 920.681 170.888L920.681 170.702L919.882 170.702C919.635 170.702 919.453 170.738 919.337 170.809C919.22 170.88 919.162 170.987 919.162 171.129ZM923.328 172.007C922.844 172.007 922.475 171.885 922.22 171.641C921.968 171.398 921.843 171.034 921.843 170.55L921.843 170.162C921.843 169.626 921.897 169.206 922.006 168.902C922.115 168.598 922.289 168.375 922.529 168.233C922.769 168.086 923.101 167.998 923.525 167.968C923.975 167.942 924.355 167.925 924.666 167.918L924.666 168.469C924.239 168.476 923.871 168.488 923.564 168.503C923.275 168.518 923.046 168.568 922.878 168.654C922.709 168.741 922.585 168.874 922.506 169.054C922.428 169.23 922.381 169.474 922.366 169.785L922.366 169.836C922.456 169.607 922.606 169.436 922.816 169.324C923.03 169.208 923.273 169.149 923.547 169.149C923.963 169.149 924.278 169.262 924.492 169.487C924.706 169.708 924.813 170.036 924.813 170.471L924.813 170.651C924.813 171.086 924.683 171.422 924.425 171.658C924.17 171.891 923.804 172.007 923.328 172.007ZM922.456 170.589C922.456 170.919 922.529 171.159 922.675 171.309C922.821 171.456 923.039 171.529 923.328 171.529C923.616 171.529 923.832 171.456 923.975 171.309C924.121 171.163 924.194 170.927 924.194 170.601L924.194 170.522C924.194 170.192 924.123 169.956 923.98 169.813C923.838 169.671 923.624 169.599 923.339 169.599C923.058 169.599 922.84 169.673 922.686 169.819C922.533 169.965 922.456 170.194 922.456 170.505L922.456 170.589ZM925.939 170.601C925.939 170.908 925.938 171.122 925.934 171.242L927.436 169.043L928.105 169.043L928.105 171.951L927.526 171.951L927.526 170.387C927.526 170.091 927.528 169.881 927.531 169.757L926.035 171.951L925.36 171.951L925.36 169.043L925.939 169.043L925.939 170.601ZM928.793 169.043L929.401 169.043L929.401 170.213L930.886 170.213L930.886 169.043L931.493 169.043L931.493 171.951L930.886 171.951L930.886 170.713L929.401 170.713L929.401 171.951L928.793 171.951L928.793 169.043ZM933.527 172.007C933.058 172.007 932.695 171.885 932.436 171.641C932.181 171.398 932.053 171.053 932.053 170.606L932.053 170.387C932.053 169.941 932.183 169.596 932.441 169.352C932.7 169.108 933.06 168.986 933.521 168.986C933.979 168.986 934.324 169.106 934.556 169.346C934.793 169.583 934.911 169.922 934.911 170.364C934.911 170.488 934.907 170.586 934.9 170.657L932.65 170.618C932.653 171.225 932.951 171.529 933.544 171.529C933.889 171.529 934.18 171.394 934.416 171.124L934.815 171.467C934.691 171.632 934.519 171.763 934.298 171.861C934.076 171.958 933.82 172.007 933.527 172.007ZM934.32 170.229C934.316 169.974 934.249 169.781 934.118 169.65C933.986 169.515 933.79 169.448 933.527 169.448C933.268 169.448 933.06 169.517 932.903 169.656C932.749 169.794 932.665 170.004 932.65 170.286L934.32 170.229ZM936.256 169.549L935.204 169.549L935.204 169.043L937.921 169.043L937.921 169.549L936.869 169.549L936.869 171.951L936.256 171.951L936.256 169.549ZM918.436 174.126L920.315 174.126C920.675 174.126 920.951 174.216 921.142 174.396C921.337 174.572 921.435 174.823 921.435 175.149C921.435 175.356 921.386 175.534 921.288 175.684C921.191 175.83 921.037 175.939 920.827 176.01L920.844 176.004C921.073 176.061 921.247 176.168 921.367 176.325C921.487 176.479 921.547 176.668 921.547 176.893C921.547 177.227 921.45 177.488 921.255 177.675C921.06 177.859 920.776 177.951 920.405 177.951L918.436 177.951L918.436 174.126ZM920.315 177.428C920.525 177.428 920.677 177.379 920.771 177.281C920.865 177.18 920.911 177.036 920.911 176.848C920.911 176.657 920.863 176.513 920.765 176.415C920.668 176.318 920.51 176.269 920.293 176.269L919.072 176.269L919.072 177.428L920.315 177.428ZM920.225 175.763C920.431 175.763 920.581 175.716 920.675 175.622C920.769 175.524 920.816 175.386 920.816 175.206C920.816 175.022 920.771 174.883 920.681 174.789C920.591 174.696 920.443 174.649 920.236 174.649L919.072 174.649L919.072 175.763L920.225 175.763ZM922.083 175.043L922.691 175.043L922.691 175.498C922.781 175.344 922.912 175.223 923.085 175.133C923.261 175.039 923.471 174.992 923.715 174.992C924.138 174.992 924.461 175.118 924.682 175.369C924.907 175.616 925.02 175.956 925.02 176.387L925.02 176.606C925.02 177.038 924.907 177.379 924.682 177.63C924.461 177.878 924.138 178.001 923.715 178.001C923.471 178.001 923.261 177.956 923.085 177.866C922.912 177.776 922.781 177.656 922.691 177.506L922.691 179.076L922.083 179.076L922.083 175.043ZM922.674 176.561C922.674 176.891 922.749 177.135 922.899 177.293C923.053 177.446 923.268 177.523 923.546 177.523C924.116 177.523 924.401 177.203 924.401 176.561L924.401 176.426C924.401 175.789 924.116 175.47 923.546 175.47C923.276 175.47 923.062 175.549 922.905 175.706C922.751 175.86 922.674 176.1 922.674 176.426L922.674 176.561ZM926.466 178.001C926.132 178.001 925.87 177.93 925.678 177.788C925.487 177.641 925.391 177.437 925.391 177.174C925.391 176.874 925.496 176.653 925.706 176.511C925.916 176.368 926.241 176.297 926.68 176.297L927.495 176.297L927.495 176.1C927.495 175.879 927.441 175.718 927.332 175.616C927.227 175.511 927.058 175.459 926.826 175.459C926.635 175.459 926.464 175.496 926.314 175.571C926.168 175.643 926.05 175.744 925.96 175.875L925.532 175.616C925.652 175.418 925.828 175.264 926.061 175.155C926.293 175.046 926.552 174.992 926.837 174.992C927.235 174.992 927.54 175.078 927.754 175.251C927.968 175.423 928.075 175.701 928.075 176.083L928.075 177.951L927.518 177.951L927.518 177.473C927.424 177.649 927.283 177.782 927.096 177.872C926.912 177.958 926.702 178.001 926.466 178.001ZM925.976 177.129C925.976 177.268 926.033 177.371 926.145 177.439C926.258 177.503 926.408 177.534 926.595 177.534C926.858 177.534 927.073 177.478 927.242 177.366C927.411 177.249 927.495 177.09 927.495 176.888L927.495 176.702L926.696 176.702C926.449 176.702 926.267 176.738 926.151 176.809C926.035 176.88 925.976 176.987 925.976 177.129ZM930.677 177.951L930.677 176.826C930.407 176.916 930.117 176.961 929.806 176.961C929.419 176.961 929.129 176.882 928.934 176.724C928.742 176.563 928.647 176.304 928.647 175.948L928.647 175.043L929.254 175.043L929.254 175.892C929.254 176.106 929.309 176.259 929.417 176.353C929.53 176.443 929.71 176.488 929.957 176.488C930.22 176.488 930.46 176.453 930.677 176.381L930.677 175.043L931.285 175.043L931.285 177.951L930.677 177.951ZM932.86 178.001C932.526 178.001 932.264 177.93 932.072 177.788C931.881 177.641 931.786 177.437 931.786 177.174C931.786 176.874 931.891 176.653 932.101 176.511C932.311 176.368 932.635 176.297 933.074 176.297L933.889 176.297L933.889 176.1C933.889 175.879 933.835 175.718 933.726 175.616C933.621 175.511 933.452 175.459 933.22 175.459C933.029 175.459 932.858 175.496 932.708 175.571C932.562 175.643 932.444 175.744 932.354 175.875L931.926 175.616C932.046 175.418 932.222 175.264 932.455 175.155C932.687 175.046 932.946 174.992 933.231 174.992C933.629 174.992 933.934 175.078 934.148 175.251C934.362 175.423 934.469 175.701 934.469 176.083L934.469 177.951L933.912 177.951L933.912 177.473C933.818 177.649 933.677 177.782 933.49 177.872C933.306 177.958 933.096 178.001 932.86 178.001ZM932.371 177.129C932.371 177.268 932.427 177.371 932.539 177.439C932.652 177.503 932.802 177.534 932.989 177.534C933.252 177.534 933.467 177.478 933.636 177.366C933.805 177.249 933.889 177.09 933.889 176.888L933.889 176.702L933.091 176.702C932.843 176.702 932.661 176.738 932.545 176.809C932.429 176.88 932.371 176.987 932.371 177.129Z" fill="#172736"/>
<rect x="920.141" y="157.5" width="11.375" height="7.25" rx="1.6875" fill="#007E76" fill-opacity="0.2"/>
<path d="M923.943 162.009L922.201 162.008L922.201 161.644L923.835 159.565L924.429 159.565L924.429 161.599L924.807 161.599L924.807 162.009L924.429 162.009L924.429 162.625L923.943 162.625L923.943 162.009ZM923.943 161.599L923.943 160.078L922.75 161.599L923.943 161.599ZM925.799 160.217C925.649 160.358 925.439 160.436 925.169 160.452L925.169 160.002C925.529 159.992 925.778 159.847 925.916 159.565L926.303 159.565L926.303 162.625L925.799 162.625L925.799 160.217ZM928.174 162.679C927.724 162.679 927.398 162.571 927.197 162.355C926.999 162.136 926.9 161.799 926.9 161.342L926.9 160.996C926.9 160.495 927.01 160.123 927.229 159.88C927.448 159.634 927.779 159.511 928.223 159.511C928.769 159.511 929.152 159.684 929.371 160.029L928.993 160.285C928.813 160.045 928.553 159.925 928.214 159.925C927.935 159.925 927.728 160.003 927.593 160.159C927.458 160.315 927.391 160.566 927.391 160.911L927.391 161.023C927.481 160.906 927.605 160.819 927.764 160.762C927.923 160.702 928.108 160.672 928.318 160.672C928.666 160.672 928.934 160.756 929.123 160.924C929.312 161.089 929.407 161.334 929.407 161.658C929.407 161.982 929.302 162.234 929.092 162.414C928.885 162.591 928.579 162.679 928.174 162.679ZM927.431 161.644C927.431 162.058 927.68 162.265 928.178 162.265C928.421 162.265 928.603 162.214 928.723 162.112C928.846 162.007 928.907 161.856 928.907 161.658C928.907 161.256 928.669 161.055 928.192 161.055C927.685 161.055 927.431 161.251 927.431 161.644Z" fill="#172736"/>
<rect x="354.429" y="41.2222" width="52" height="39" fill="#33D18F" fill-opacity="0.2" stroke="#33D18F" stroke-opacity="0.2" stroke-width="2.5" stroke-linejoin="round"/>
<path d="M366.689 63.5344H368.929V66.2544H368.473V63.9304H367.145V66.2544H366.689V63.5344ZM370.394 66.2944C370.061 66.2944 369.802 66.2077 369.618 66.0344C369.437 65.8611 369.346 65.6157 369.346 65.2984V65.1424C369.346 64.8251 369.438 64.5797 369.622 64.4064C369.806 64.2331 370.062 64.1464 370.39 64.1464C370.716 64.1464 370.961 64.2317 371.126 64.4024C371.294 64.5704 371.378 64.8117 371.378 65.1264C371.378 65.2144 371.376 65.2837 371.37 65.3344L369.77 65.3064C369.773 65.7384 369.985 65.9544 370.406 65.9544C370.652 65.9544 370.858 65.8584 371.026 65.6664L371.31 65.9104C371.222 66.0277 371.1 66.1211 370.942 66.1904C370.785 66.2597 370.602 66.2944 370.394 66.2944ZM370.958 65.0304C370.956 64.8491 370.908 64.7117 370.814 64.6184C370.721 64.5224 370.581 64.4744 370.394 64.4744C370.21 64.4744 370.062 64.5237 369.95 64.6224C369.841 64.7211 369.781 64.8704 369.77 65.0704L370.958 65.0304ZM371.751 64.1864H372.183V64.5104C372.247 64.4011 372.34 64.3144 372.463 64.2504C372.588 64.1837 372.738 64.1504 372.911 64.1504C373.212 64.1504 373.442 64.2397 373.599 64.4184C373.759 64.5944 373.839 64.8357 373.839 65.1424V65.2984C373.839 65.6051 373.759 65.8477 373.599 66.0264C373.442 66.2024 373.212 66.2904 372.911 66.2904C372.738 66.2904 372.588 66.2584 372.463 66.1944C372.34 66.1304 372.247 66.0451 372.183 65.9384V67.0544H371.751V64.1864ZM372.171 65.2664C372.171 65.5011 372.224 65.6744 372.331 65.7864C372.44 65.8957 372.594 65.9504 372.791 65.9504C373.196 65.9504 373.399 65.7224 373.399 65.2664V65.1704C373.399 64.7171 373.196 64.4904 372.791 64.4904C372.599 64.4904 372.447 64.5464 372.335 64.6584C372.226 64.7677 372.171 64.9384 372.171 65.1704V65.2664ZM375.191 66.2944C374.858 66.2944 374.599 66.2077 374.415 66.0344C374.234 65.8611 374.143 65.6157 374.143 65.2984V65.1424C374.143 64.8251 374.235 64.5797 374.419 64.4064C374.603 64.2331 374.859 64.1464 375.187 64.1464C375.513 64.1464 375.758 64.2317 375.923 64.4024C376.091 64.5704 376.175 64.8117 376.175 65.1264C376.175 65.2144 376.173 65.2837 376.167 65.3344L374.567 65.3064C374.57 65.7384 374.782 65.9544 375.203 65.9544C375.449 65.9544 375.655 65.8584 375.823 65.6664L376.107 65.9104C376.019 66.0277 375.897 66.1211 375.739 66.1904C375.582 66.2597 375.399 66.2944 375.191 66.2944ZM375.755 65.0304C375.753 64.8491 375.705 64.7117 375.611 64.6184C375.518 64.5224 375.378 64.4744 375.191 64.4744C375.007 64.4744 374.859 64.5237 374.747 64.6224C374.638 64.7211 374.578 64.8704 374.567 65.0704L375.755 65.0304ZM376.548 64.1864H377.992V64.5464H376.98V66.2544H376.548V64.1864ZM379.246 66.2944C378.907 66.2944 378.646 66.2077 378.462 66.0344C378.278 65.8611 378.186 65.6157 378.186 65.2984V65.1424C378.186 64.8251 378.278 64.5797 378.462 64.4064C378.646 64.2331 378.907 64.1464 379.246 64.1464C379.587 64.1464 379.849 64.2331 380.03 64.4064C380.214 64.5771 380.306 64.8224 380.306 65.1424V65.2984C380.306 65.6184 380.214 65.8651 380.03 66.0384C379.849 66.2091 379.587 66.2944 379.246 66.2944ZM378.626 65.2624C378.626 65.5051 378.678 65.6811 378.782 65.7904C378.886 65.8997 379.041 65.9544 379.246 65.9544C379.451 65.9544 379.606 65.8997 379.71 65.7904C379.817 65.6811 379.87 65.5051 379.87 65.2624V65.1784C379.87 64.9357 379.817 64.7597 379.71 64.6504C379.606 64.5411 379.451 64.4864 379.246 64.4864C379.041 64.4864 378.886 64.5411 378.782 64.6504C378.678 64.7597 378.626 64.9357 378.626 65.1784V65.2624ZM380.704 64.1864H381.872C382.091 64.1864 382.257 64.2304 382.372 64.3184C382.489 64.4064 382.548 64.5384 382.548 64.7144C382.548 64.9517 382.44 65.1104 382.224 65.1904C382.347 65.2197 382.441 65.2771 382.508 65.3624C382.577 65.4451 382.612 65.5477 382.612 65.6704C382.612 65.8624 382.552 66.0077 382.432 66.1064C382.312 66.2051 382.133 66.2544 381.896 66.2544H380.704V64.1864ZM381.852 65.9424C382.073 65.9424 382.184 65.8451 382.184 65.6504C382.184 65.5517 382.157 65.4784 382.104 65.4304C382.053 65.3824 381.968 65.3584 381.848 65.3584H381.128V65.9424H381.852ZM381.816 65.0544C381.928 65.0544 382.009 65.0304 382.06 64.9824C382.111 64.9344 382.136 64.8651 382.136 64.7744C382.136 64.5904 382.028 64.4984 381.812 64.4984H381.128V65.0544H381.816ZM383.949 66.2944C383.611 66.2944 383.349 66.2077 383.165 66.0344C382.981 65.8611 382.889 65.6157 382.889 65.2984V65.1424C382.889 64.8251 382.981 64.5797 383.165 64.4064C383.349 64.2331 383.611 64.1464 383.949 64.1464C384.291 64.1464 384.552 64.2331 384.733 64.4064C384.917 64.5771 385.009 64.8224 385.009 65.1424V65.2984C385.009 65.6184 384.917 65.8651 384.733 66.0384C384.552 66.2091 384.291 66.2944 383.949 66.2944ZM383.329 65.2624C383.329 65.5051 383.381 65.6811 383.485 65.7904C383.589 65.8997 383.744 65.9544 383.949 65.9544C384.155 65.9544 384.309 65.8997 384.413 65.7904C384.52 65.6811 384.573 65.5051 384.573 65.2624V65.1784C384.573 64.9357 384.52 64.7597 384.413 64.6504C384.309 64.5411 384.155 64.4864 383.949 64.4864C383.744 64.4864 383.589 64.5411 383.485 64.6504C383.381 64.7597 383.329 64.9357 383.329 65.1784V65.2624ZM385.407 64.1864H385.839V64.5104C385.903 64.4011 385.996 64.3144 386.119 64.2504C386.244 64.1837 386.394 64.1504 386.567 64.1504C386.868 64.1504 387.098 64.2397 387.255 64.4184C387.415 64.5944 387.495 64.8357 387.495 65.1424V65.2984C387.495 65.6051 387.415 65.8477 387.255 66.0264C387.098 66.2024 386.868 66.2904 386.567 66.2904C386.394 66.2904 386.244 66.2584 386.119 66.1944C385.996 66.1304 385.903 66.0451 385.839 65.9384V67.0544H385.407V64.1864ZM385.827 65.2664C385.827 65.5011 385.88 65.6744 385.987 65.7864C386.096 65.8957 386.25 65.9504 386.447 65.9504C386.852 65.9504 387.055 65.7224 387.055 65.2664V65.1704C387.055 64.7171 386.852 64.4904 386.447 64.4904C386.255 64.4904 386.103 64.5464 385.991 64.6584C385.882 64.7677 385.827 64.9384 385.827 65.1704V65.2664ZM387.891 64.1864H388.323V65.0904H388.443L389.299 64.1864H389.823L388.919 65.1224L389.871 66.2544H389.327L388.567 65.3504H388.323V66.2544H387.891V64.1864ZM390.711 66.2904C390.474 66.2904 390.287 66.2397 390.151 66.1384C390.015 66.0344 389.947 65.8891 389.947 65.7024C389.947 65.4891 390.022 65.3317 390.171 65.2304C390.32 65.1291 390.551 65.0784 390.863 65.0784H391.443V64.9384C391.443 64.7811 391.404 64.6664 391.327 64.5944C391.252 64.5197 391.132 64.4824 390.967 64.4824C390.831 64.4824 390.71 64.5091 390.603 64.5624C390.499 64.6131 390.415 64.6851 390.351 64.7784L390.047 64.5944C390.132 64.4531 390.258 64.3437 390.423 64.2664C390.588 64.1891 390.772 64.1504 390.975 64.1504C391.258 64.1504 391.475 64.2117 391.627 64.3344C391.779 64.4571 391.855 64.6544 391.855 64.9264V66.2544H391.459V65.9144C391.392 66.0397 391.292 66.1344 391.159 66.1984C391.028 66.2597 390.879 66.2904 390.711 66.2904ZM390.363 65.6704C390.363 65.7691 390.403 65.8424 390.483 65.8904C390.563 65.9357 390.67 65.9584 390.803 65.9584C390.99 65.9584 391.143 65.9184 391.263 65.8384C391.383 65.7557 391.443 65.6424 391.443 65.4984V65.3664H390.875C390.699 65.3664 390.57 65.3917 390.487 65.4424C390.404 65.4931 390.363 65.5691 390.363 65.6704Z" fill="#172736"/>
<rect x="374.157" y="54.2222" width="11.375" height="7.25" rx="1.6875" fill="#33D18F" fill-opacity="0.2"/>
<path d="M378.078 58.7307H376.337V58.3662L377.97 56.2872H378.564V58.3212H378.942V58.7307H378.564V59.3472H378.078V58.7307ZM378.078 58.3212V56.8002L376.886 58.3212H378.078ZM379.934 56.9397C379.784 57.0807 379.574 57.1587 379.304 57.1737V56.7237C379.664 56.7147 379.913 56.5692 380.051 56.2872H380.438V59.3472H379.934V56.9397ZM381.522 59.3472C381.774 58.3182 382.192 57.4452 382.777 56.7282H381.049V56.2872H383.299V56.6832C382.984 57.0552 382.729 57.4602 382.534 57.8982C382.342 58.3332 382.195 58.8162 382.093 59.3472H381.522Z" fill="#172736"/>
</svg>
