<svg width="1128" height="501" viewBox="0 0 1128 501" fill="none" xmlns="http://www.w3.org/2000/svg">
<g id="b1f5">
<g id="Ellipse 30">
<path d="M595.567 294.52L581.016 289.633L572.244 314.536L587.045 319.304L595.567 294.52Z" fill="white"/>
<path d="M564.341 310.928C564.164 311.456 564.453 312.027 564.983 312.198L572.244 314.536L581.016 289.633L572.449 286.756L564.341 310.928Z" fill="white"/>
<path d="M586.608 259.834L581.993 258.306L572.449 286.756L581.016 289.633L590.997 261.297L586.608 259.834Z" fill="white"/>
<path d="M567.935 344.036L596.626 353.533L590.184 375.466L561.17 365.71L567.935 344.036Z" fill="white"/>
<path d="M245.556 184.474C245.962 184.883 246.629 184.865 247.012 184.434L264.482 164.819C264.849 164.408 264.813 163.777 264.403 163.409C257.804 157.479 251.3 151.445 244.894 145.31L225.641 164.44L245.556 184.474Z" fill="white"/>
<path d="M228.806 46.956C229.188 46.5913 229.22 45.993 228.88 45.5893L221.713 37.0733C221.358 36.6524 220.731 36.5967 220.308 36.9486L216.975 39.7221L225.15 49.0123C225.525 49.4391 226.181 49.4674 226.591 49.0744L228.806 46.956Z" fill="white"/>
<path fill-rule="evenodd" clip-rule="evenodd" d="M596.626 353.533L567.935 344.036L561.17 365.71L590.184 375.466L596.626 353.533Z" fill="white"/>
<path fill-rule="evenodd" clip-rule="evenodd" d="M264.403 163.409C264.813 163.777 264.849 164.408 264.482 164.819L247.012 184.434C246.629 184.865 245.962 184.883 245.556 184.474L225.641 164.44L244.894 145.31C251.3 151.445 257.804 157.479 264.403 163.409ZM596.626 353.533L567.935 344.036L561.17 365.71L590.184 375.466L596.626 353.533Z" fill="white"/>
<path fill-rule="evenodd" clip-rule="evenodd" d="M264.403 163.409C264.813 163.777 264.849 164.408 264.482 164.819L247.012 184.434C246.629 184.865 245.962 184.883 245.556 184.474L225.641 164.44L244.894 145.31C251.3 151.445 257.804 157.479 264.403 163.409ZM596.626 353.533L567.935 344.036L561.17 365.71L590.184 375.466L596.626 353.533Z" fill="white"/>
<path fill-rule="evenodd" clip-rule="evenodd" d="M264.403 163.409C264.813 163.777 264.849 164.408 264.482 164.819L247.012 184.434C246.629 184.865 245.962 184.883 245.556 184.474L225.641 164.44L244.894 145.31C251.3 151.445 257.804 157.479 264.403 163.409ZM596.626 353.533L567.935 344.036L561.17 365.71L590.184 375.466L596.626 353.533Z" fill="white"/>
<path fill-rule="evenodd" clip-rule="evenodd" d="M596.626 353.533L567.935 344.036L561.17 365.71L590.184 375.466L596.626 353.533Z" fill="white"/>
<path fill-rule="evenodd" clip-rule="evenodd" d="M392.478 105.292C371.239 89.0613 350.947 71.6547 331.699 53.1693C321.21 43.0966 311.032 32.7036 301.179 22.0061C300.807 21.602 300.178 21.5729 299.771 21.9415L287.259 33.2638L258.857 1.5295C258.667 1.31754 258.396 1.1964 258.112 1.1964H221.072H186.562L183.203 3.73425L213.509 42.6074L216.975 39.7221L220.308 36.9486C220.731 36.5967 221.358 36.6524 221.713 37.0733L228.88 45.5893C229.22 45.993 229.188 46.5913 228.806 46.956L226.591 49.0744C226.181 49.4674 225.525 49.4391 225.15 49.0123L216.975 39.7221L213.509 42.6074L183.203 3.73425L186.562 1.1964H152.052H124.75H91.6423H82.1836L41.5918 1.1964L1 1.1964C8.76219 15.0635 16.9832 28.7143 25.6007 42.1376C41.71 67.2306 59.2048 91.5284 77.678 114.957C92.0992 133.247 107.117 151.007 122.537 168.203C125.919 171.821 129.332 175.413 132.775 178.977L132.946 179.153L189.186 127.766L218.017 156.77L225.641 164.44L244.894 145.31C251.3 151.445 257.804 157.479 264.403 163.409C264.813 163.777 264.849 164.408 264.482 164.819L247.012 184.434C246.629 184.865 245.962 184.883 245.556 184.474L225.641 164.44L218.017 156.77L189.186 127.766L132.946 179.153C143.355 189.926 154.04 200.457 164.988 210.768C175.337 220.513 185.921 230.061 196.732 239.429C208.253 249.412 220.032 259.191 232.059 268.785C242.551 277.156 253.175 285.358 263.942 293.365L299.37 317.464L334.797 341.563L338.06 343.563C351.1 351.519 364.348 359.168 377.794 366.499C389.072 372.647 400.489 378.573 412.04 384.269C422.982 389.664 434.043 394.854 445.218 399.833C459.516 406.202 474.001 412.226 488.663 417.895L500.996 385.898L501.659 384.176L512.951 354.883L514.656 350.458L523.371 327.847L525.351 322.71C512.542 317.841 499.884 312.666 487.386 307.193C478.122 303.136 468.965 298.858 459.83 294.52C456.518 292.923 453.28 291.346 450.102 289.777L459.83 294.52C468.965 298.858 478.122 303.136 487.386 307.193C499.884 312.666 512.542 317.841 525.351 322.71L523.371 327.847L514.656 350.458L512.951 354.883L501.659 384.176L500.996 385.898L488.663 417.895C489.52 418.226 490.377 418.557 491.236 418.885C500.802 422.552 510.444 426.067 520.157 429.428C537.147 435.306 554.356 440.712 571.77 445.631C586.264 449.725 600.899 453.482 615.666 456.891C629.555 460.098 643.56 462.998 657.676 465.584C684.344 470.469 711.403 474.234 738.804 476.826C752.188 478.093 765.653 479.079 779.194 479.781C794.502 480.573 809.907 481.001 825.4 481.056C826.53 481.06 827.66 481.062 828.791 481.062H861.422H952.02H995.344H1034.25H1085.27C1085.82 481.062 1086.27 480.614 1086.27 480.062V381.018L1105.93 380.973C1115.38 380.973 1126.75 374.632 1126.75 363.504V333.449C1126.75 332.896 1126.3 332.449 1125.75 332.449H1107.91C1107.36 332.449 1106.91 332.001 1106.91 331.449V265.725C1106.91 265.173 1106.46 264.725 1105.91 264.725H1062.91H999.51V253.078C999.51 252.526 999.062 252.078 998.51 252.078H911.465H868.966H826.466L826.054 252.079C825.836 252.079 825.618 252.079 825.4 252.079C812.836 252.079 800.346 251.754 787.939 251.112C778.537 250.626 769.182 249.958 759.878 249.111C730.289 246.417 701.216 241.916 672.774 235.72C659.013 232.721 645.4 229.326 631.948 225.546C621.571 222.63 611.29 219.486 601.111 216.118L586.608 259.834L590.997 261.297L581.016 289.633L595.567 294.52L587.045 319.304L572.244 314.536L564.983 312.198C564.453 312.027 564.164 311.456 564.341 310.928L572.449 286.756L581.993 258.306L586.608 259.834L601.111 216.118C590.526 212.616 580.051 208.872 569.693 204.894C556.898 199.98 544.281 194.707 531.854 189.088C512.936 180.533 494.46 171.176 476.472 161.059C458.913 151.183 441.818 140.583 425.229 129.299C416.766 123.542 408.434 117.606 400.239 111.498L392.478 105.292ZM596.626 353.533L567.935 344.036L561.17 365.71L590.184 375.466L596.626 353.533Z" fill="white"/>
<path d="M999.51 264.725H1062.91M999.51 264.725L995.344 265.842M999.51 264.725V253.078M287.259 33.2638L246.305 72.5025L237.201 81.2254M287.259 33.2638L258.857 1.5295M287.259 33.2638L299.771 21.9415M331.699 53.1693C350.947 71.6546 371.239 89.0613 392.478 105.292L400.239 111.498M331.699 53.1693L262.683 129.51M331.699 53.1693C321.21 43.0966 311.032 32.7036 301.179 22.0061M124.62 1.00011C124.664 1.06555 124.707 1.13098 124.75 1.1964M197.69 60.7739C196.865 59.7936 196.042 58.8112 195.222 57.8269M225.641 92.3012L238.24 105.498M225.641 92.3012L237.201 81.2254M225.641 92.3012L214.057 78.0256C213.747 77.6427 213.195 77.5602 212.786 77.8356C212.378 78.1099 211.829 78.0291 211.517 77.649L203.833 68.2714M340.225 194.018L316.341 175.649M340.225 194.018L355.195 173.434M340.225 194.018C343.674 196.544 347.144 199.044 350.634 201.517M400.239 111.498C408.434 117.606 416.766 123.542 425.229 129.299M400.239 111.498L355.195 173.434M189.186 127.766L210.273 108.454M189.186 127.766L218.017 156.77M189.186 127.766L132.946 179.153M1 1.1964L41.5918 1.1964M1 1.1964C8.72642 15.2814 16.8019 29.003 25.2147 42.3837M1 1.1964C8.76219 15.0635 16.9832 28.7143 25.6007 42.1376M1086.27 381.018L1105.93 380.973C1115.38 380.973 1126.75 374.632 1126.75 363.504V333.449M1086.27 381.018H1059.73C1059.28 381.018 1058.88 380.714 1058.77 380.276L1058.05 377.59C1057.93 377.153 1057.53 376.849 1057.08 376.849H1011.85M1086.27 381.018V480.062M244.894 145.31C251.3 151.445 257.804 157.479 264.403 163.409C264.813 163.777 264.849 164.408 264.482 164.819L247.012 184.434C246.629 184.865 245.962 184.883 245.556 184.474L225.641 164.44M244.894 145.31L225.641 164.44M244.894 145.31C243.711 144.178 242.532 143.043 241.357 141.904M225.641 164.44L218.017 156.77M826.466 252.078L826.054 252.079M826.466 252.078C826.329 252.079 826.191 252.079 826.054 252.079M826.466 252.078H868.966M826.466 252.078V327.725M195.222 57.8269L189.921 62.4016M195.222 57.8269L213.509 42.6074M216.975 39.7221L220.308 36.9486C220.731 36.5967 221.358 36.6524 221.713 37.0733L228.88 45.5893C229.22 45.993 229.188 46.5913 228.806 46.956L226.591 49.0744C226.181 49.4674 225.525 49.4391 225.15 49.0123L216.975 39.7221ZM216.975 39.7221L213.509 42.6074M182.192 78.3196C180.77 76.6236 179.355 74.9218 177.947 73.2144M193.389 91.4023C206.879 106.841 220.929 121.777 235.508 136.181M262.683 129.51C270.919 137.269 279.316 144.857 287.87 152.271M262.683 129.51C259.796 126.79 256.929 124.049 254.082 121.288M246.305 113.816L256.946 102.118C257.307 101.722 257.291 101.111 256.91 100.734L237.201 81.2254M246.305 113.816L244.471 111.73M246.305 113.816L247.876 115.387M334.797 341.563C310.453 326.574 286.871 310.414 263.942 293.365M334.797 341.563C335.883 342.232 336.971 342.899 338.06 343.563M334.797 341.563L338.06 343.563M334.797 341.563L299.37 317.464M390.488 257.073L391.46 255.455C391.745 254.98 391.591 254.365 391.116 254.081L384.848 250.341M390.488 257.073C401.476 263.797 411.85 269.768 422.332 275.45M390.488 257.073L373.145 285.683M368.755 213.993C369.723 214.641 370.693 215.287 371.665 215.931C384.731 224.589 398.062 232.88 411.643 240.789M368.755 213.993L382.795 192.937M368.755 213.993C365.501 211.818 362.265 209.619 359.045 207.398M425.229 129.299L382.795 192.937M425.229 129.299C441.818 140.583 458.913 151.183 476.472 161.059M382.795 192.937L374.053 186.76M355.195 173.434L365.311 180.583M451.695 262.631C443.805 258.612 435.989 254.467 428.25 250.201M463.254 269.404C472.739 274.047 482.327 278.511 492.015 282.791M459.83 294.52C456.518 292.923 453.28 291.346 450.102 289.777L459.83 294.52ZM459.83 294.52C468.965 298.858 478.122 303.136 487.386 307.193M488.663 417.895C489.52 418.226 490.377 418.557 491.236 418.885C500.802 422.552 510.444 426.067 520.157 429.428M488.663 417.895C474.001 412.226 459.516 406.202 445.218 399.833M488.663 417.895L500.996 385.898M525.351 322.71L523.371 327.847M525.351 322.71L538.586 326.763M525.351 322.71C512.542 317.841 499.884 312.666 487.386 307.193M533.665 299.825L542.122 276.776M533.665 299.825L537.058 301.413M533.665 299.825C519.592 294.521 505.704 288.839 492.015 282.791M569.693 204.894C556.898 199.98 544.281 194.707 531.854 189.088M569.693 204.894L553.226 247.826M569.693 204.894C580.051 208.872 590.526 212.616 601.111 216.118M570.112 443.805L579.693 411.184M581.356 405.523L552.592 396.547C552.064 396.382 551.77 395.822 551.935 395.294L557.705 376.808M581.356 405.523L579.693 411.184M581.356 405.523L588.971 379.596M567.935 344.036L569.815 338.013C569.979 337.487 570.538 337.193 571.065 337.356L574.124 338.302M567.935 344.036L596.626 353.533M567.935 344.036L561.17 365.71M596.626 353.533L590.184 375.466M596.626 353.533L598.157 348.319M590.184 375.466L561.17 365.71M590.184 375.466L588.971 379.596M561.17 365.71L560.191 368.845M520.157 429.428C537.147 435.306 554.356 440.712 571.77 445.631C586.264 449.725 600.899 453.482 615.666 456.891M520.157 429.428L528.58 403.944M523.371 327.847L550.685 337.061M523.371 327.847L514.656 350.458M550.685 337.061L552.343 332.044C552.519 331.511 552.222 330.938 551.686 330.774L548.164 329.696M550.685 337.061L548.164 344.687M543.14 359.889L514.656 350.458M543.14 359.889L535.739 382.281M543.14 359.889L545.644 352.313M514.656 350.458L512.951 354.883M531.649 394.658L501.659 384.176M531.649 394.658L531.123 396.249L532.509 392.056L531.649 394.658ZM501.659 384.176L512.951 354.883M501.659 384.176L500.996 385.898M590.997 343.525L597.909 345.665C598.432 345.826 598.727 346.377 598.573 346.902L598.157 348.319M631.948 225.546L625.409 249.495L622.871 258.789M631.948 225.546C645.4 229.326 659.013 232.721 672.774 235.72M631.948 225.546C621.571 222.63 611.29 219.486 601.111 216.118M586.608 259.834L581.993 258.306M586.608 259.834L590.997 261.297M586.608 259.834L601.111 216.118M608.666 267.183L590.997 261.297M581.993 258.306L572.449 286.756M581.993 258.306L572.872 255.284M590.997 261.297L581.016 289.633M572.244 314.536L564.983 312.198C564.452 312.027 564.164 311.456 564.341 310.928L572.449 286.756M572.244 314.536L587.045 319.304M572.244 314.536L581.016 289.633M554.427 280.704L558.102 281.938M598.851 295.623L595.567 294.52M545.644 305.968L549.445 307.193M590.997 320.577L587.045 319.304M553.595 295.623L558.102 281.938M558.102 281.938L572.449 286.756M550.931 302.717L549.445 307.193M549.445 307.193L587.045 319.304M542.122 276.776L546.024 278.247M542.122 276.776L552.315 250.201M595.567 294.52L581.016 289.633M595.567 294.52L587.045 319.304M732.652 372.64L675.136 365.71L638.879 357.815M744.676 374.043L748.866 374.225M825.4 481.056C826.53 481.06 827.66 481.062 828.791 481.062H861.422M825.4 481.056C809.907 481.001 794.502 480.573 779.194 479.781M825.4 481.056V417.236M826.441 376.849H832.248M875.941 376.849H861.422M888.366 376.849V379.255C888.366 379.808 888.814 380.255 889.366 380.255H930.516M967.526 380.255H930.516M930.516 380.255V404.202C930.516 404.754 930.964 405.202 931.516 405.202H994.344C994.897 405.202 995.344 404.754 995.344 404.202V376.849M995.344 376.849H999.51H978.458M995.344 376.849V434.538M995.344 481.062V440.119M995.344 481.062H952.02M995.344 481.062H1034.25M1022.38 352.947H1062.91M1066.07 352.947H1062.91M1062.91 352.947V264.725M1062.91 264.725H1105.91M995.344 265.842V352.947M995.344 265.842H988.742M995.344 352.947H1009.22M995.344 352.947H986.587M974.217 352.947H967.526M908.42 352.947H911.465M967.526 352.947V266.842C967.526 266.289 967.974 265.842 968.526 265.842H978.656M967.526 352.947H911.465M895.924 355.842H854.43H856.516C857.068 355.842 857.516 355.394 857.516 354.842V323.29M746.558 351.631L780.487 353.443M735.504 350.052L677.339 341.63L649.85 336.034M132.775 178.977C129.332 175.413 125.919 171.821 122.537 168.203M132.775 178.977C132.832 179.036 132.889 179.095 132.946 179.153M132.775 178.977L132.946 179.153M122.537 168.203C106.683 151.244 91.4981 133.69 77.0211 115.465M122.537 168.203C107.117 151.007 92.0992 133.247 77.678 114.957M124.75 1.1964H152.052H186.562M124.75 1.1964H91.6423M124.75 1.1964C133.366 14.2712 142.356 27.1122 151.7 39.6914M258.112 1.1964H221.072H186.562M258.112 1.1964C258.396 1.1964 258.667 1.31754 258.857 1.5295M258.112 1.1964C258.396 1.1964 258.667 1.31754 258.857 1.5295M299.771 21.9415C300.178 21.5729 300.807 21.602 301.179 22.0061M299.771 21.9415C300.178 21.5729 300.807 21.602 301.179 22.0061M826.054 252.079C825.836 252.079 825.618 252.079 825.4 252.079C812.836 252.079 800.346 251.754 787.939 251.112M998.51 252.078C999.062 252.078 999.51 252.526 999.51 253.078M998.51 252.078H911.465M998.51 252.078C999.062 252.078 999.51 252.526 999.51 253.078M1105.91 264.725C1106.46 264.725 1106.91 265.173 1106.91 265.725M1105.91 264.725C1106.46 264.725 1106.91 265.173 1106.91 265.725M1106.91 265.725V331.449M1106.91 331.449C1106.91 332.001 1107.36 332.449 1107.91 332.449M1106.91 331.449C1106.91 332.001 1107.36 332.449 1107.91 332.449M1107.91 332.449H1125.75M1125.75 332.449C1126.3 332.449 1126.75 332.896 1126.75 333.449M1125.75 332.449C1126.3 332.449 1126.75 332.896 1126.75 333.449M1086.27 480.062C1086.27 480.614 1085.82 481.062 1085.27 481.062M1086.27 480.062C1086.27 480.614 1085.82 481.062 1085.27 481.062M1085.27 481.062H1034.25M581.016 289.633L572.449 286.756M132.946 179.153C143.355 189.926 154.04 200.457 164.988 210.768M377.794 246.133C360.874 235.481 340.95 223.681 324.766 211.857C324.319 211.53 323.693 211.628 323.367 212.075L296.875 248.314M41.5918 1.1964L82.1836 1.1964H91.6423M41.5918 1.1964L54.7789 22.3612C55.0688 22.8265 54.93 23.4385 54.4677 23.7332L52.1877 25.1869M25.2147 42.3837C41.2802 67.936 58.576 92.2447 77.0211 115.465M25.2147 42.3837L25.6007 42.1376M91.6423 1.1964V38.6914C91.6423 39.2437 92.09 39.6914 92.6423 39.6914H96.3438M151.7 39.6914H103.9M151.7 39.6914C160.165 51.0875 168.919 62.2687 177.947 73.2144M186.562 1.1964L183.203 3.73425M179.844 6.2721L183.203 3.73425M183.203 3.73425L213.509 42.6074M218.017 156.77L216.055 158.768M164.988 210.768C175.337 220.513 185.921 230.061 196.732 239.429M164.988 210.768L205.089 169.935M263.942 293.365C253.175 285.358 242.551 277.156 232.059 268.785C220.032 259.191 208.253 249.412 196.732 239.429M263.942 293.365L299.37 317.464M263.942 293.365L283.256 266.944M196.732 239.429L234.006 198.306M296.875 248.314L244.205 206.418M296.875 248.314L283.256 266.944M234.006 198.306L231.265 195.617M234.006 198.306L236.675 200.429M205.089 169.935L209.649 165.291M205.089 169.935L225.641 190.099M338.06 343.563C351.1 351.519 364.348 359.168 377.794 366.499M338.06 343.563L373.145 285.683M487.386 307.193L477.723 328.422M445.218 399.833C434.043 394.854 422.982 389.664 412.04 384.269C400.489 378.573 389.072 372.647 377.794 366.499M445.218 399.833L454.841 378.692M512.951 354.883L473.225 338.302M473.225 338.302L464.001 358.569M473.225 338.302L474.252 336.048M459.222 369.068L500.996 385.898M459.222 369.068L458.334 371.018L460.27 366.765L459.222 369.068ZM377.794 366.499L403.154 314.655M422.332 275.45C428.655 278.877 435.017 282.199 441.576 285.518M422.332 275.45L421.869 276.397M407.899 304.955L373.145 285.683M407.899 304.955L418.773 282.725M407.899 304.955L406.966 306.863M428.25 250.201L476.472 161.059M428.25 250.201C425.575 248.726 422.91 247.237 420.254 245.733M476.472 161.059C494.46 171.176 512.936 180.533 531.854 189.088M492.015 282.791L497.707 269.404M531.854 189.088L526.943 200.641M552.315 250.201L512.951 233.55M552.315 250.201L553.226 247.826M512.951 233.55L523.204 209.433L501.754 259.885L512.951 233.55ZM579.693 411.184L623.755 422.366M638.879 357.815L598.157 348.319M638.879 357.815L638.214 360.654M615.666 456.891C629.555 460.098 643.56 462.998 657.676 465.584C684.344 470.469 711.403 474.234 738.804 476.826M615.666 456.891L617.425 449.384M623.755 422.366L628.604 401.673M623.755 422.366L619.184 441.876M588.971 379.596L631.317 390.09M631.317 390.09L636.44 368.228L630.684 392.794L631.317 390.09ZM748.866 374.225L784.767 375.786M748.866 374.225L746.977 393.486M738.804 476.826C752.188 478.093 765.653 479.079 779.194 479.781M738.804 476.826L741.233 452.059M742.369 440.473L781.056 443.653M742.369 440.473L742.113 443.078L742.752 436.566L742.369 440.473ZM781.056 443.653L779.194 479.781M781.056 443.653L782.806 411.649M784.767 375.786L782.806 411.649M784.767 375.786L801.629 376.227M745.439 409.174L782.806 411.649M745.439 409.174L743.538 428.554M745.439 409.174L746.14 402.026M825.4 417.236V377.823C825.4 377.281 824.968 376.837 824.426 376.823L811.884 376.495M825.4 417.236H861.422M861.422 417.236V376.849M861.422 417.236V430.572M861.422 376.849H841.637M861.422 481.062H952.02M861.422 481.062V440.473M995.344 440.119H953.02C952.468 440.119 952.02 440.566 952.02 441.119V445.469M995.344 440.119V434.538M952.02 481.062V452.819M995.344 434.538H1033.25C1033.8 434.538 1034.25 434.985 1034.25 435.538V437.822M1034.25 481.062V446.434M911.465 352.947V316.572M911.465 252.078H868.966M911.465 252.078V306.615M868.966 252.078V279.502C868.966 280.055 868.518 280.502 867.966 280.502H858.516C857.963 280.502 857.516 280.95 857.516 281.502V323.29M843.563 355.842V323.29M843.563 355.842H840.531M843.563 355.842H846.756M843.563 323.29C841.674 323.29 838.726 323.29 838.726 323.29M843.563 323.29H857.516M826.466 355.842H825.4L811.884 355.12M826.466 355.842H831.503M826.466 355.842V327.725M787.939 251.112C778.537 250.626 769.182 249.958 759.878 249.111M787.939 251.112L783.609 310.581M780.487 353.443L783.609 310.581M780.487 353.443L802.944 354.643M748.866 351.631L752.306 319.61M759.878 249.111C730.289 246.417 701.216 241.916 672.774 235.72M759.878 249.111L754.845 295.972M672.774 235.72L667.932 256.907M649.85 336.034L605.357 326.976C604.79 326.86 604.439 326.29 604.591 325.732L614.449 289.633M649.85 336.034L651.318 329.607M657.933 300.66L614.449 289.633M657.933 300.66L662.429 280.989M657.933 300.66L653.46 320.233M614.449 289.633L622.871 258.789M665.354 268.19L622.871 258.789M665.354 268.19L664.502 271.917M665.354 268.19L665.88 265.885M601.327 215.466L601.111 216.118M564.019 252.132L553.226 247.826M77.0211 115.465L77.678 114.957M145.979 62.1623L77.678 114.957M46.7626 28.6457L25.6007 42.1376M177.947 73.2144L182.691 69.0377M299.37 317.464L311.231 299.909M283.256 266.944L316.768 289.941C317.221 290.252 317.339 290.87 317.031 291.325L315.653 293.365M753.55 308.028L783.609 310.581M753.55 308.028L753.989 303.939L753.161 311.643L753.55 308.028ZM826.466 327.725H805.768M25.6007 42.1376C41.71 67.2306 59.2048 91.5284 77.678 114.957M1078.73 352.947H1105.93M821.595 499.354C821.17 499.355 822.02 499.354 821.595 499.354Z" stroke="#172736" stroke-opacity="0.25" stroke-width="2" stroke-linecap="round" stroke-linejoin="round"/>
</g>
<text id="title" fill="#172736" xml:space="preserve" style="white-space: pre" font-family="CoFo Weather 20240219" font-size="10" font-weight="500" letter-spacing="0em"><tspan x="1005.71" y="304.473">&#x41b;&#x438;&#x444;&#x442;&#x43e;&#x432;&#x43e;&#x439;&#10;</tspan><tspan x="1015.08" y="314.473">&#x445;&#x43e;&#x43b;&#x43b; 2</tspan></text>
<text id="title_2" fill="#172736" xml:space="preserve" style="white-space: pre" font-family="CoFo Weather 20240219" font-size="10" font-weight="500" letter-spacing="0em"><tspan x="313.712" y="107.473">&#x41b;&#x438;&#x444;&#x442;&#x43e;&#x432;&#x43e;&#x439;&#10;</tspan><tspan x="324.303" y="117.473">&#x445;&#x43e;&#x43b;&#x43b; 1</tspan></text>
<g id="b1f5-r">
<text id="title_3" transform="translate(260.821 197.693) rotate(11.1204)" fill="#172736" xml:space="preserve" style="white-space: pre" font-family="CoFo Weather 20240219" font-size="8" font-weight="500" letter-spacing="0em"><tspan x="16.8698" y="6.76">&#x420;&#x435;&#x441;&#x435;&#x43f;&#x448;&#x43d;</tspan></text>
<path id="Line 16" d="M270.383 215.204C270.383 215.204 280.778 212.715 292.278 215.204C303.779 217.693 312.383 224.204 312.383 224.204" stroke="#475DEB" stroke-width="2"/>
</g>
<g id="b1f5-504">
<g id="Ellipse 31">
<path d="M218.32 156.069L190.862 128.446C190.484 128.066 189.874 128.051 189.478 128.412L133.946 179.153C144.129 189.692 154.576 200 165.276 210.096C165.671 210.47 166.293 210.457 166.674 210.069L218.325 157.475C218.708 157.084 218.706 156.458 218.32 156.069Z" fill="#33D18F" fill-opacity="0.2"/>
<path d="M133.946 179.153C133.889 179.095 133.832 179.036 133.775 178.977L133.946 179.153ZM133.946 179.153C144.129 189.692 154.576 200 165.276 210.096C165.671 210.47 166.293 210.457 166.674 210.069L218.325 157.475C218.708 157.084 218.706 156.458 218.32 156.069L190.862 128.446C190.484 128.066 189.874 128.051 189.478 128.412L133.946 179.153Z" stroke="#33D18F" stroke-opacity="0.2" stroke-width="2.00001" stroke-linejoin="round"/>
</g>
<text id="title_4" fill="#172736" xml:space="preserve" style="white-space: pre" font-family="CoFo Weather 20240219" font-size="5.00002" font-weight="500" letter-spacing="0em"><tspan x="160.363" y="173.534">&#x41f;&#x435;&#x440;&#x435;&#x433;&#x43e;&#x432;&#x43e;&#x440;&#x43a;&#x430;</tspan></text>
<g id="n">
<rect x="170.896" y="160.023" width="11" height="7" rx="1.5" fill="#33D18F" fill-opacity="0.2"/>
<text id="504" fill="#172736" xml:space="preserve" style="white-space: pre" font-family="CoFo Weather 20240219" font-size="4" font-weight="500" letter-spacing="0.02em"><tspan x="172.429" y="164.903">504</tspan></text>
</g>
</g>
<g id="b1f5-k">
<path id="map-otl" d="M579.837 403.606L550.911 395.266L533.11 392.416C532.626 392.339 532.157 392.624 532.003 393.089L520.153 428.839C519.98 429.361 520.261 429.925 520.783 430.101C536.433 435.361 552.287 440.228 568.324 444.688C568.855 444.836 569.405 444.525 569.554 443.994L580.522 404.837C580.671 404.308 580.364 403.759 579.837 403.606Z" fill="#FFEDD6" stroke="#FFCF94" stroke-width="2.00001" stroke-linejoin="round"/>
<text id="title_5" fill="#172736" xml:space="preserve" style="white-space: pre" font-family="CoFo Weather 20240219" font-size="5.62502" font-weight="500" letter-spacing="0em"><tspan x="533.704" y="420.505">&#x41c;&#x438;&#x43d;&#x438;-&#x43a;&#x443;&#x445;&#x43d;&#x44f;</tspan></text>
</g>
</g>
</svg>
