<svg width="1150" height="358" viewBox="0 0 1150 358" fill="none" xmlns="http://www.w3.org/2000/svg">
<path d="M14.3323 200.664C14.3772 200.147 14.8098 199.75 15.3286 199.75H31.4116V2.25C31.4116 1.69772 31.8593 1.25 32.4116 1.25H352.912H1120.91C1121.46 1.25 1121.91 1.69772 1121.91 2.25V85.75C1121.91 86.3023 1122.36 86.75 1122.91 86.75H1146.91C1147.46 86.75 1147.91 87.1977 1147.91 87.75V217.473C1147.91 217.93 1147.63 218.323 1147.18 218.436C1129.52 222.925 1080.13 235.051 1017.41 249.25C954.488 263.497 889.965 275.656 864.712 280.109C864.234 280.193 863.912 280.604 863.912 281.09V298.25C863.912 298.802 863.464 299.25 862.912 299.25H751.984C751.936 299.25 751.89 299.253 751.843 299.26C701.146 306.598 592.398 322.352 562.412 326.75C532.412 331.15 436.912 339.25 392.912 342.75H307.412V347.287C307.412 347.825 307.012 348.265 306.475 348.285C261.909 349.969 167.612 353.661 139.412 355.25C111.296 356.834 36.7575 355.935 1.95532 355.27C1.37672 355.259 0.954074 354.761 1.00413 354.184L14.3323 200.664Z" fill="white"/>
<path d="M468.412 308.75C467.859 308.75 467.412 308.302 467.412 307.75V303.25V280.25H484.912V308.75H468.412Z" fill="white"/>
<path d="M533.412 209.25V250.75H521.162V209.25H533.412Z" fill="white"/>
<path d="M156.912 131.75C156.912 131.198 156.464 130.75 155.912 130.75H126.412V138.25C126.412 138.802 126.859 139.25 127.412 139.25H155.912C156.464 139.25 156.912 138.802 156.912 138.25V131.75Z" fill="white"/>
<path d="M964.412 109.25V97.25C964.412 96.6977 964.859 96.25 965.412 96.25H979.162H985.412H994.912H1013.41V109.25H994.912H979.162H964.412Z" fill="white"/>
<path d="M933.412 124.25C932.859 124.25 932.412 124.698 932.412 125.25V138.75H845.412V96.75C845.412 96.4739 845.635 96.25 845.912 96.25H936.412V123.25C936.412 123.802 935.964 124.25 935.412 124.25H933.412Z" fill="white"/>
<path d="M31.4116 199.75H15.3286C14.8098 199.75 14.3772 200.147 14.3323 200.664L1.00413 354.184C0.954074 354.761 1.37672 355.259 1.95532 355.27C36.7575 355.935 111.296 356.834 139.412 355.25C167.612 353.661 261.909 349.969 306.475 348.285C307.012 348.265 307.412 347.825 307.412 347.287V342.75M31.4116 199.75V2.25C31.4116 1.69772 31.8593 1.25 32.4116 1.25H352.912M31.4116 199.75H80.4116C80.9639 199.75 81.4116 199.302 81.4116 198.75V167.25M307.412 342.75H392.912C436.912 339.25 532.412 331.15 562.412 326.75C592.398 322.352 701.146 306.598 751.843 299.26C751.89 299.253 751.936 299.25 751.984 299.25H862.912C863.464 299.25 863.912 298.802 863.912 298.25V281.09C863.912 280.604 864.234 280.193 864.712 280.109C889.965 275.656 954.488 263.497 1017.41 249.25C1080.13 235.051 1129.52 222.925 1147.18 218.436C1147.63 218.323 1147.91 217.93 1147.91 217.473V87.75C1147.91 87.1977 1147.46 86.75 1146.91 86.75H1122.91C1122.36 86.75 1121.91 86.3023 1121.91 85.75V2.25C1121.91 1.69772 1121.46 1.25 1120.91 1.25H352.912M307.412 342.75V204.75C307.412 204.198 307.859 203.75 308.412 203.75H310.412M31.9116 139.25H84.4116M80.9116 153.25V139.25M96.9116 139.25H106.912M120.912 139.25H138.412M151.912 139.25H165.912M179.912 139.25H284.912M298.412 139.25H306.912M320.412 139.25H323.912M338.412 139.25H358.912M364.912 139.25H358.912M378.912 139.25H396.912C397.464 139.25 397.912 138.802 397.912 138.25V70.75M397.912 55.75V1.75M81.9116 184.75H84.9116M124.912 176.25V183.75C124.912 184.302 124.464 184.75 123.912 184.75H100.912M124.912 176.25H120.412M124.912 176.25H200.412M107.412 176.25H101.912C101.359 176.25 100.912 176.698 100.912 177.25V184.75M97.4116 184.75H100.912M213.912 176.25H222.912M397.912 176.25H400.412C400.964 176.25 401.412 176.698 401.412 177.25V201.75M236.412 176.25H310.412M310.412 176.25H355.412M310.412 176.25V203.75M310.412 203.75H360.412M366.412 176.25H375.912M375.912 176.25H387.412M375.912 176.25V203.75M375.912 203.75H395.412M375.912 203.75H360.412M407.412 203.75H395.412M395.412 203.75V216.25M395.412 269.25V280.25M395.412 280.25V286.75M395.412 280.25H360.412M360.412 280.25V304.25M360.412 280.25V241.75M360.412 203.75V241.75M360.412 241.75H395.412M395.412 232.25V241.75M395.412 241.75V254.25M395.412 308.75V341.75M440.412 338.75V327.75M440.412 313.75V304.25C440.412 303.698 440.859 303.25 441.412 303.25H467.412M467.412 303.25V307.75C467.412 308.302 467.859 308.75 468.412 308.75H484.912M467.412 303.25V280.25M484.912 308.75V334.75M484.912 308.75V280.25M484.912 203.75H448.912M484.912 203.75V209.25M484.912 203.75V197.75M448.912 203.75H428.912M448.912 203.75V216.25M448.912 269.25V279.25C448.912 279.802 449.359 280.25 449.912 280.25H467.412M484.912 280.25H467.412M484.912 280.25V250.75M448.912 232.25V241.75M448.912 241.75V254.25M448.912 241.75H484.912M484.912 241.75V250.75M484.912 241.75V209.25M484.912 250.75H495.412M528.412 330.75V309.75C528.412 309.198 528.859 308.75 529.412 308.75H532.412C532.964 308.75 533.412 308.302 533.412 307.75V250.75M533.412 250.75V209.25M533.412 250.75H521.162M533.412 209.25H552.912M533.412 209.25H521.162M484.912 209.25H494.412M508.912 250.75H521.162M521.162 250.75V209.25M521.162 209.25H508.912M521.162 209.25V203.75M484.912 184.75V176.75C484.912 176.198 485.359 175.75 485.912 175.75H521.162M521.162 175.75V189.25M521.162 175.75H574.412M574.412 175.75H589.412M574.412 175.75V324.75M574.412 250.75H619.412C619.964 250.75 620.412 250.302 620.412 249.75V176.25M620.412 176.25H602.412M620.412 176.25H674.412M1040.91 176.25H1138.43C1138.74 176.25 1139.02 176.386 1139.21 176.621L1147.41 186.75M952.412 176.25H1022.91M1022.91 176.25H1026.91M1022.91 176.25V248.25M900.912 176.25H934.912M934.912 176.25H939.912M934.912 176.25V203.75M934.912 267.25V203.75M934.912 203.75H849.912C849.359 203.75 848.912 203.302 848.912 202.75V176.25M775.912 176.25H848.912M848.912 176.25H887.912M687.412 176.25H757.412M757.412 176.25H762.412M757.412 176.25V299.25M217.412 352.25V176.25M241.412 176.25V161.75M241.412 150.75V139.25M217.912 139.25V1.75M99.9116 139.25V129.25C99.9116 128.698 100.359 128.25 100.912 128.25H125.412C125.964 128.25 126.412 128.698 126.412 129.25V130.75M126.412 130.75H155.912C156.464 130.75 156.912 131.198 156.912 131.75V138.25C156.912 138.802 156.464 139.25 155.912 139.25H127.412C126.859 139.25 126.412 138.802 126.412 138.25V130.75ZM126.412 100.25V1.75M601.912 138.75H619.912M619.912 138.75H674.412M619.912 138.75V145.75M619.912 138.75V85.75C619.912 85.1977 619.464 84.75 618.912 84.75H570.412M687.412 138.75H739.912M739.912 138.75V134.25C739.912 133.698 740.359 133.25 740.912 133.25H756.912M739.912 138.75H743.912M1013.41 138.75H1019.91C1020.46 138.75 1020.91 138.302 1020.91 137.75V125.25C1020.91 124.698 1020.46 124.25 1019.91 124.25H1014.41C1013.86 124.25 1013.41 123.802 1013.41 123.25V109.25M1013.41 109.25H1019.41M1013.41 109.25H994.912M1013.41 109.25V96.25M989.912 138.75H994.912M994.912 138.75H999.912M994.912 138.75V109.25M994.912 109.25H979.162M994.912 109.25V96.25M960.912 138.75H964.412M964.412 138.75H973.912M964.412 138.75V109.25M964.412 109.25V97.25C964.412 96.6977 964.859 96.25 965.412 96.25H979.162M964.412 109.25H963.412M964.412 109.25H979.162M979.162 109.25V96.25M979.162 96.25H985.412M994.912 96.25H1013.41M994.912 96.25H985.412M1013.41 96.25H1023.16M985.412 96.25V58.75M932.412 138.75H947.412M932.412 138.75V125.25C932.412 124.698 932.859 124.25 933.412 124.25H935.412C935.964 124.25 936.412 123.802 936.412 123.25V96.25M932.412 138.75H845.412M936.412 96.25V1.25M936.412 96.25H845.912C845.635 96.25 845.412 96.4739 845.412 96.75M840.912 138.75H845.412M845.412 138.75V96.75M845.412 96.75H846.412M845.412 96.75H810.412C809.859 96.75 809.412 97.1977 809.412 97.75V138.75M775.412 138.75H809.412M809.412 138.75H828.412M754.412 138.75H758.162M758.162 138.75H761.912M758.162 138.75V1.75M619.912 177.25V169.75M570.412 84.75V138.75M570.412 84.75V1.75M567.912 138.75H570.412M570.412 138.75H587.912M423.412 138.75H479.412M479.412 138.75H553.912M479.412 138.75V97.75M479.412 97.75H423.412M479.412 97.75H486.912C487.464 97.75 487.912 97.3023 487.912 96.75V51.75C487.912 51.1977 487.464 50.75 486.912 50.75H416.912M423.412 123.75V97.75M423.412 97.75V94.75M402.412 50.75H398.412M323.412 139.25V129.25C323.412 128.698 323.859 128.25 324.412 128.25H341.912M358.912 128.25H341.912M358.912 128.25V73.75M358.912 128.25V139.25M341.912 128.25V139.25M302.412 139.25V74.75C302.412 74.1977 302.859 73.75 303.412 73.75H352.912M397.912 73.75H358.912M1118.41 176.25V169.25M1070.41 132.25H1067.41C1066.86 132.25 1066.41 131.802 1066.41 131.25V119.25M1118.41 146.25V132.25M1118.41 132.25V120.25C1118.41 119.698 1117.96 119.25 1117.41 119.25H1091.16M1118.41 132.25H1110.91M1084.91 132.25H1091.16M1091.16 132.25H1097.41M1091.16 132.25V119.25M1091.16 119.25H1066.41M1066.41 119.25V96.25M1066.41 96.25V2.25M1066.41 96.25H1055.41M1023.16 96.25H1032.91M1023.16 96.25V87.25M1023.16 66.75V58.75M1023.16 58.75V42.75M1023.16 58.75H985.412M985.412 58.75V1.25M1023.16 23.25V1.25M358.912 73.75H352.912M352.912 73.75V1.25M423.412 85.25V50.75" stroke="#BFC4C8" stroke-width="2" stroke-linecap="round" stroke-linejoin="round"/>
<path d="M1041.09 81.6925L1041.09 81.2605C1041.08 80.9565 1041 80.7256 1040.84 80.5677C1040.67 80.4098 1040.41 80.2973 1040.03 80.2302C1039.65 80.1552 1039.11 80.1142 1038.42 80.1073L1034.07 80.0562L1034 74.1287L1042.16 74.0219L1042.17 75.3898L1035.2 75.481L1035.25 78.7807L1038.62 78.8206C1039.57 78.8321 1040.31 78.9065 1040.83 79.0437C1041.34 79.1729 1041.72 79.4001 1041.95 79.725C1042.18 80.042 1042.3 80.5045 1042.31 81.1125L1042.32 81.6764L1041.09 81.6925ZM1039.24 71.3142C1039.9 71.3057 1040.35 71.3037 1040.61 71.3083L1035.87 68.166L1035.86 66.7381L1042.06 66.6569L1042.08 67.8928L1038.74 67.9365C1038.11 67.9448 1037.66 67.9466 1037.4 67.9421L1042.12 71.0726L1042.14 72.5124L1035.93 72.5936L1035.92 71.3578L1039.24 71.3142ZM1042.03 61.8527L1042.03 61.9846C1042.05 63.1925 1041.81 64.0797 1041.32 64.6462C1040.83 65.2127 1040.03 65.5032 1038.92 65.5177C1037.82 65.5321 1037.02 65.2626 1036.51 64.7091C1036 64.1558 1035.74 63.2752 1035.72 62.0673L1035.72 61.9353L1033.48 61.9647L1033.46 60.6688L1035.7 60.6394L1035.7 60.5074C1035.69 59.2915 1035.93 58.4003 1036.42 57.8337C1036.91 57.2673 1037.71 56.9768 1038.81 56.9624C1039.92 56.9479 1040.72 57.2174 1041.23 57.7707C1041.74 58.3242 1042 59.2089 1042.01 60.4248L1042.02 60.5568L1044.38 60.5258L1044.4 61.8217L1042.03 61.8527ZM1038.91 64.2098C1039.71 64.1992 1040.27 64.0159 1040.58 63.6598C1040.89 63.3038 1041.04 62.7618 1041.03 62.0338L1041.02 61.8419L1036.73 61.8981L1036.73 62.0901C1036.74 62.818 1036.9 63.3559 1037.22 63.7038C1037.54 64.0517 1038.1 64.2204 1038.91 64.2098ZM1041 60.39C1041 59.662 1040.83 59.1241 1040.52 58.7762C1040.2 58.4284 1039.64 58.2597 1038.83 58.2703C1038.02 58.2809 1037.46 58.4642 1037.16 58.8202C1036.85 59.1763 1036.7 59.7183 1036.71 60.4462L1036.71 60.6382L1041.01 60.582L1041 60.39ZM1036.77 54.1405L1036.8 56.3843L1035.72 56.3984L1035.64 50.6029L1036.72 50.5888L1036.75 52.8326L1041.88 52.7655L1041.89 54.0734L1036.77 54.1405ZM1041.92 46.7344C1041.93 47.7503 1041.68 48.5376 1041.17 49.0964C1040.66 49.6551 1039.92 49.9407 1038.97 49.9532L1038.5 49.9593C1037.55 49.9718 1036.81 49.7054 1036.29 49.1603C1035.76 48.6152 1035.49 47.8346 1035.47 46.8187C1035.46 45.7948 1035.71 45.0075 1036.22 44.4567C1036.73 43.898 1037.46 43.6124 1038.42 43.5999L1038.89 43.5937C1039.85 43.5812 1040.59 43.8475 1041.12 44.3926C1041.64 44.9299 1041.9 45.7104 1041.92 46.7344ZM1038.85 48.6347C1039.57 48.6252 1040.1 48.4623 1040.42 48.146C1040.75 47.8298 1040.91 47.3637 1040.9 46.7477C1040.89 46.1318 1040.72 45.6699 1040.39 45.3623C1040.06 45.0466 1039.53 44.8935 1038.8 44.903L1038.55 44.9063C1037.82 44.9159 1037.29 45.0828 1036.97 45.407C1036.64 45.7233 1036.49 46.1894 1036.49 46.8054C1036.5 47.4213 1036.67 47.8831 1037 48.1908C1037.34 48.4985 1037.87 48.6476 1038.59 48.638L1038.85 48.6347ZM1035.54 42.4439L1035.49 38.9402C1035.48 38.2842 1035.61 37.7826 1035.87 37.4351C1036.13 37.0797 1036.52 36.8985 1037.05 36.8916C1037.76 36.8823 1038.24 37.2 1038.49 37.8448C1038.57 37.4757 1038.74 37.1895 1038.99 36.9862C1039.24 36.7749 1039.55 36.6669 1039.91 36.6621C1040.49 36.6546 1040.93 36.8288 1041.23 37.1849C1041.53 37.541 1041.68 38.075 1041.69 38.787L1041.74 42.3627L1035.54 42.4439ZM1040.76 38.9312C1040.75 38.2673 1040.45 37.9391 1039.87 37.9468C1039.58 37.9506 1039.36 38.0335 1039.21 38.1954C1039.07 38.3493 1039 38.6062 1039.01 38.9662L1039.04 41.126L1040.79 41.103L1040.76 38.9312ZM1038.1 39.0741C1038.09 38.7381 1038.02 38.4951 1037.87 38.345C1037.73 38.1949 1037.52 38.1216 1037.25 38.1252C1036.69 38.1324 1036.42 38.46 1036.43 39.1079L1036.46 41.1597L1038.12 41.1379L1038.1 39.0741ZM1041.73 32.6262C1041.75 33.6421 1041.5 34.4294 1040.98 34.9882C1040.47 35.547 1039.74 35.8326 1038.79 35.845L1038.32 35.8512C1037.37 35.8636 1036.63 35.5973 1036.1 35.0521C1035.57 34.507 1035.3 33.7265 1035.29 32.7105C1035.28 31.6866 1035.53 30.8993 1036.04 30.3485C1036.54 29.7899 1037.28 29.5043 1038.24 29.4917L1038.7 29.4856C1039.66 29.473 1040.41 29.7393 1040.93 30.2844C1041.45 30.8217 1041.72 31.6023 1041.73 32.6262ZM1038.66 34.5266C1039.39 34.517 1039.92 34.3541 1040.24 34.0379C1040.56 33.7216 1040.72 33.2555 1040.71 32.6395C1040.71 32.0236 1040.54 31.5618 1040.2 31.2541C1039.87 30.9384 1039.34 30.7853 1038.61 30.7949L1038.36 30.7982C1037.63 30.8077 1037.11 30.9746 1036.78 31.2989C1036.46 31.6151 1036.3 32.0812 1036.31 32.6972C1036.32 33.3131 1036.49 33.775 1036.82 34.0826C1037.15 34.3903 1037.68 34.5394 1038.41 34.5299L1038.66 34.5266ZM1038.66 27.0563C1039.32 27.0477 1039.77 27.0458 1040.03 27.0504L1035.29 23.9081L1035.28 22.4802L1041.48 22.399L1041.5 23.6349L1038.16 23.6786C1037.53 23.6868 1037.08 23.6887 1036.82 23.6842L1041.54 26.8146L1041.56 28.2545L1035.35 28.3357L1035.34 27.0998L1038.66 27.0563ZM1033.39 26.2492L1033.45 26.2484C1033.69 26.2453 1033.87 26.183 1033.98 26.0615C1034.08 25.9322 1034.13 25.7235 1034.13 25.4355C1034.12 25.1395 1034.07 24.9322 1033.96 24.8136C1033.85 24.6871 1033.67 24.6254 1033.43 24.6285L1033.37 24.6293L1033.36 23.5494C1033.89 23.5425 1034.27 23.6815 1034.52 23.9663C1034.75 24.2432 1034.87 24.7297 1034.88 25.4256C1034.89 26.1216 1034.78 26.6111 1034.54 26.8942C1034.31 27.1773 1033.93 27.3223 1033.41 27.3291L1033.39 26.2492ZM1051.49 66.1614L1054.07 67.6876L1054.09 69.1275L1050.86 67.0696L1047.89 69.0767L1047.87 67.5768L1050.22 66.1059L1047.83 64.6731L1047.81 63.2332L1050.84 65.2098L1054.01 63.08L1054.03 64.5799L1051.49 66.1614ZM1054.09 59.5781C1054.1 60.594 1053.85 61.3814 1053.34 61.9401C1052.83 62.4989 1052.09 62.7845 1051.14 62.797L1050.67 62.8031C1049.72 62.8155 1048.98 62.5492 1048.45 62.0041C1047.93 61.4589 1047.66 60.6784 1047.64 59.6625C1047.63 58.6386 1047.88 57.8512 1048.39 57.3005C1048.9 56.7418 1049.63 56.4562 1050.59 56.4436L1051.06 56.4375C1052.02 56.4249 1052.76 56.6912 1053.29 57.2364C1053.81 57.7736 1054.07 58.5542 1054.09 59.5781ZM1051.02 61.4785C1051.74 61.469 1052.27 61.3061 1052.59 60.9898C1052.92 60.6735 1053.08 60.2074 1053.07 59.5915C1053.06 58.9755 1052.89 58.5137 1052.56 58.206C1052.23 57.8903 1051.7 57.7373 1050.97 57.7468L1050.72 57.7501C1049.99 57.7596 1049.46 57.9265 1049.14 58.2508C1048.81 58.5671 1048.66 59.0332 1048.66 59.6491C1048.67 60.2651 1048.84 60.7269 1049.17 61.0346C1049.51 61.3422 1050.04 61.4913 1050.76 61.4818L1051.02 61.4785ZM1052.88 55.9492L1052.87 55.6493C1052.87 55.3053 1052.74 55.059 1052.48 54.9103C1052.21 54.7618 1051.76 54.6837 1051.12 54.6761L1047.7 54.6369L1047.63 49.5253L1053.83 49.4441L1053.85 50.74L1048.73 50.8071L1048.76 53.4948L1051.25 53.5223C1051.93 53.5374 1052.47 53.6064 1052.86 53.7293C1053.24 53.8522 1053.53 54.0565 1053.71 54.3422C1053.88 54.62 1053.97 55.0029 1053.97 55.4908L1053.98 55.9348L1052.88 55.9492ZM1052.78 48.6022L1052.78 48.3022C1052.77 47.9583 1052.64 47.712 1052.38 47.5633C1052.12 47.4148 1051.66 47.3367 1051.02 47.3291L1047.6 47.2899L1047.54 42.1783L1053.74 42.0971L1053.76 43.393L1048.63 43.4601L1048.67 46.1478L1051.15 46.1753C1051.83 46.1904 1052.37 46.2594 1052.76 46.3822C1053.15 46.5052 1053.43 46.7095 1053.61 46.9952C1053.78 47.273 1053.87 47.6558 1053.88 48.1438L1053.88 48.5877L1052.78 48.6022ZM1052.6 38.5249C1051.57 37.1303 1050.75 36.0929 1050.16 35.4126C1049.56 34.7244 1049.08 34.2666 1048.74 34.0391C1048.38 33.8117 1048.04 33.7002 1047.7 33.7046C1047.26 33.7104 1046.95 33.8585 1046.76 34.149C1046.56 34.4316 1046.47 34.8129 1046.47 35.2928C1046.48 35.8368 1046.61 36.2752 1046.85 36.608C1047.09 36.9408 1047.49 37.2356 1048.05 37.4924L1047.6 38.6384C1046.85 38.3362 1046.29 37.9074 1045.92 37.3522C1045.55 36.7971 1045.36 36.0955 1045.34 35.2476C1045.33 34.3677 1045.52 33.6692 1045.9 33.1521C1046.28 32.6271 1046.85 32.3596 1047.62 32.3495C1048.1 32.3433 1048.56 32.4613 1049 32.7036C1049.43 32.9459 1049.92 33.3755 1050.48 33.9923C1051.02 34.6092 1051.7 35.4965 1052.5 36.654L1052.45 32.2504L1053.61 32.2352L1053.69 38.5106L1052.6 38.5249Z" fill="#172736"/>
<path d="M421.091 290.692L421.086 290.26C421.082 289.957 420.999 289.726 420.837 289.568C420.674 289.41 420.405 289.297 420.028 289.23C419.651 289.155 419.114 289.114 418.418 289.107L414.073 289.056L413.996 283.129L422.155 283.022L422.173 284.39L415.201 284.481L415.245 287.781L418.617 287.821C419.57 287.832 420.307 287.906 420.829 288.044C421.342 288.173 421.717 288.4 421.954 288.725C422.182 289.042 422.3 289.505 422.308 290.112L422.315 290.676L421.091 290.692ZM419.239 280.314C419.895 280.306 420.351 280.304 420.607 280.308L415.874 277.166L415.855 275.738L422.059 275.657L422.075 276.893L418.739 276.937C418.107 276.945 417.659 276.947 417.395 276.942L422.116 280.073L422.135 281.512L415.932 281.594L415.916 280.358L419.239 280.314ZM422.032 270.853L422.033 270.985C422.049 272.193 421.813 273.08 421.324 273.646C420.828 274.213 420.027 274.503 418.923 274.518C417.819 274.532 417.016 274.263 416.513 273.709C416.001 273.156 415.738 272.275 415.722 271.067L415.72 270.935L413.476 270.965L413.459 269.669L415.703 269.639L415.701 269.507C415.686 268.292 415.926 267.4 416.423 266.834C416.911 266.267 417.707 265.977 418.811 265.962C419.915 265.948 420.723 266.217 421.234 266.771C421.737 267.324 421.997 268.209 422.013 269.425L422.015 269.557L424.378 269.526L424.395 270.822L422.032 270.853ZM418.906 273.21C419.714 273.199 420.272 273.016 420.579 272.66C420.887 272.304 421.035 271.762 421.026 271.034L421.023 270.842L416.728 270.898L416.73 271.09C416.74 271.818 416.903 272.356 417.219 272.704C417.536 273.052 418.098 273.22 418.906 273.21ZM421.004 269.39C420.995 268.662 420.832 268.124 420.515 267.776C420.199 267.428 419.636 267.26 418.828 267.27C418.021 267.281 417.463 267.464 417.156 267.82C416.848 268.176 416.699 268.718 416.709 269.446L416.711 269.638L421.007 269.582L421.004 269.39ZM416.77 263.14L416.8 265.384L415.72 265.398L415.644 259.603L416.724 259.589L416.753 261.833L421.877 261.766L421.894 263.073L416.77 263.14ZM421.918 255.734C421.931 256.75 421.681 257.538 421.169 258.096C420.656 258.655 419.924 258.941 418.972 258.953L418.504 258.959C417.552 258.972 416.812 258.705 416.285 258.16C415.758 257.615 415.488 256.835 415.474 255.819C415.461 254.795 415.711 254.007 416.223 253.457C416.728 252.898 417.46 252.612 418.42 252.6L418.888 252.594C419.848 252.581 420.592 252.847 421.119 253.393C421.638 253.93 421.904 254.71 421.918 255.734ZM418.846 257.635C419.574 257.625 420.1 257.462 420.424 257.146C420.748 256.83 420.906 256.364 420.898 255.748C420.89 255.132 420.72 254.67 420.388 254.362C420.055 254.047 419.525 253.894 418.797 253.903L418.546 253.906C417.818 253.916 417.292 254.083 416.968 254.407C416.644 254.723 416.486 255.189 416.494 255.805C416.502 256.421 416.672 256.883 417.004 257.191C417.336 257.498 417.866 257.648 418.594 257.638L418.846 257.635ZM415.537 251.444L415.491 247.94C415.483 247.284 415.608 246.783 415.867 246.435C416.127 246.08 416.521 245.899 417.048 245.892C417.76 245.882 418.241 246.2 418.489 246.845C418.572 246.476 418.741 246.19 418.994 245.986C419.239 245.775 419.546 245.667 419.914 245.662C420.49 245.655 420.928 245.829 421.229 246.185C421.529 246.541 421.684 247.075 421.694 247.787L421.74 251.363L415.537 251.444ZM420.759 247.931C420.751 247.267 420.454 246.939 419.871 246.947C419.575 246.951 419.356 247.034 419.214 247.195C419.072 247.349 419.003 247.606 419.008 247.966L419.036 250.126L420.788 250.103L420.759 247.931ZM418.097 248.074C418.093 247.738 418.018 247.495 417.872 247.345C417.726 247.195 417.517 247.122 417.245 247.125C416.693 247.132 416.421 247.46 416.429 248.108L416.456 250.16L418.124 250.138L418.097 248.074ZM421.733 241.626C421.746 242.642 421.497 243.429 420.984 243.988C420.471 244.547 419.739 244.833 418.787 244.845L418.319 244.851C417.367 244.864 416.627 244.597 416.1 244.052C415.573 243.507 415.303 242.726 415.29 241.711C415.276 240.687 415.526 239.899 416.039 239.349C416.543 238.79 417.276 238.504 418.236 238.492L418.704 238.486C419.664 238.473 420.407 238.739 420.934 239.284C421.453 239.822 421.72 240.602 421.733 241.626ZM418.662 243.527C419.39 243.517 419.916 243.354 420.239 243.038C420.563 242.722 420.721 242.255 420.713 241.64C420.705 241.024 420.535 240.562 420.203 240.254C419.871 239.938 419.341 239.785 418.613 239.795L418.361 239.798C417.633 239.808 417.107 239.975 416.783 240.299C416.459 240.615 416.301 241.081 416.31 241.697C416.318 242.313 416.488 242.775 416.82 243.083C417.152 243.39 417.682 243.539 418.41 243.53L418.662 243.527ZM418.66 236.056C419.316 236.048 419.772 236.046 420.028 236.05L415.294 232.908L415.276 231.48L421.479 231.399L421.495 232.635L418.16 232.679C417.528 232.687 417.08 232.689 416.816 232.684L421.537 235.815L421.556 237.255L415.352 237.336L415.336 236.1L418.66 236.056ZM413.393 235.249L413.453 235.248C413.693 235.245 413.868 235.183 413.978 235.062C414.081 234.932 414.13 234.723 414.126 234.436C414.122 234.14 414.068 233.932 413.962 233.814C413.848 233.687 413.672 233.625 413.432 233.629L413.372 233.629L413.358 232.549C413.885 232.543 414.271 232.681 414.515 232.966C414.751 233.243 414.873 233.73 414.882 234.426C414.891 235.122 414.778 235.611 414.541 235.894C414.305 236.177 413.927 236.322 413.407 236.329L413.393 235.249ZM431.466 273.697L434.054 275.223L434.073 276.663L430.842 274.605L427.868 276.612L427.848 275.112L430.205 273.641L427.81 272.208L427.791 270.768L430.817 272.745L433.994 270.615L434.013 272.115L431.466 273.697ZM434.068 267.113C434.081 268.129 433.831 268.917 433.319 269.475C432.806 270.034 432.074 270.32 431.122 270.332L430.654 270.338C429.702 270.351 428.962 270.084 428.435 269.539C427.908 268.994 427.638 268.214 427.624 267.198C427.611 266.174 427.861 265.387 428.373 264.836C428.878 264.277 429.61 263.991 430.57 263.979L431.038 263.973C431.998 263.96 432.742 264.227 433.269 264.772C433.788 265.309 434.054 266.089 434.068 267.113ZM430.996 269.014C431.724 269.004 432.25 268.841 432.574 268.525C432.898 268.209 433.056 267.743 433.048 267.127C433.04 266.511 432.87 266.049 432.538 265.741C432.205 265.426 431.675 265.273 430.947 265.282L430.696 265.285C429.968 265.295 429.442 265.462 429.118 265.786C428.794 266.102 428.636 266.568 428.644 267.184C428.652 267.8 428.822 268.262 429.154 268.57C429.486 268.878 430.016 269.027 430.744 269.017L430.996 269.014ZM432.856 263.485L432.852 263.185C432.848 262.841 432.716 262.594 432.458 262.446C432.193 262.297 431.739 262.219 431.099 262.211L427.678 262.172L427.612 257.061L433.815 256.979L433.832 258.275L428.708 258.342L428.744 261.03L431.228 261.058C431.908 261.073 432.445 261.142 432.839 261.265C433.225 261.388 433.507 261.592 433.687 261.877C433.859 262.155 433.948 262.538 433.954 263.026L433.96 263.47L432.856 263.485ZM432.76 256.137L432.756 255.838C432.752 255.494 432.62 255.247 432.362 255.099C432.096 254.95 431.643 254.872 431.003 254.864L427.582 254.825L427.515 249.714L433.719 249.632L433.736 250.928L428.612 250.995L428.647 253.683L431.132 253.711C431.812 253.726 432.349 253.795 432.743 253.918C433.129 254.04 433.411 254.245 433.591 254.53C433.763 254.808 433.852 255.191 433.858 255.679L433.864 256.123L432.76 256.137ZM427.23 244.39C427.611 244.785 427.826 245.342 427.876 246.062L426.676 246.077C426.639 245.118 426.243 244.459 425.486 244.101L425.472 243.069L433.632 242.962L433.649 244.306L427.23 244.39Z" fill="#172736"/>
<rect x="351.412" y="1.25" width="47" height="74" fill="#33D18F" fill-opacity="0.2" stroke="#33D18F" stroke-opacity="0.2" stroke-width="2.5" stroke-linejoin="round"/>
<path d="M361.672 40.5622H363.912V43.2822H363.456V40.9582H362.128V43.2822H361.672V40.5622ZM365.377 43.3222C365.044 43.3222 364.785 43.2356 364.601 43.0622C364.42 42.8889 364.329 42.6436 364.329 42.3262V42.1702C364.329 41.8529 364.421 41.6076 364.605 41.4342C364.789 41.2609 365.045 41.1742 365.373 41.1742C365.699 41.1742 365.944 41.2596 366.109 41.4302C366.277 41.5982 366.361 41.8396 366.361 42.1542C366.361 42.2422 366.359 42.3116 366.353 42.3622L364.753 42.3342C364.756 42.7662 364.968 42.9822 365.389 42.9822C365.635 42.9822 365.841 42.8862 366.009 42.6942L366.293 42.9382C366.205 43.0556 366.083 43.1489 365.925 43.2182C365.768 43.2876 365.585 43.3222 365.377 43.3222ZM365.941 42.0582C365.939 41.8769 365.891 41.7396 365.797 41.6462C365.704 41.5502 365.564 41.5022 365.377 41.5022C365.193 41.5022 365.045 41.5516 364.933 41.6502C364.824 41.7489 364.764 41.8982 364.753 42.0982L365.941 42.0582ZM366.734 41.2142H367.166V41.5382C367.23 41.4289 367.323 41.3422 367.446 41.2782C367.571 41.2116 367.72 41.1782 367.894 41.1782C368.195 41.1782 368.424 41.2676 368.582 41.4462C368.742 41.6222 368.822 41.8636 368.822 42.1702V42.3262C368.822 42.6329 368.742 42.8756 368.582 43.0542C368.424 43.2302 368.195 43.3182 367.894 43.3182C367.72 43.3182 367.571 43.2862 367.446 43.2222C367.323 43.1582 367.23 43.0729 367.166 42.9662V44.0822H366.734V41.2142ZM367.154 42.2942C367.154 42.5289 367.207 42.7022 367.314 42.8142C367.423 42.9236 367.576 42.9782 367.774 42.9782C368.179 42.9782 368.382 42.7502 368.382 42.2942V42.1982C368.382 41.7449 368.179 41.5182 367.774 41.5182C367.582 41.5182 367.43 41.5742 367.318 41.6862C367.208 41.7956 367.154 41.9662 367.154 42.1982V42.2942ZM370.174 43.3222C369.841 43.3222 369.582 43.2356 369.398 43.0622C369.217 42.8889 369.126 42.6436 369.126 42.3262V42.1702C369.126 41.8529 369.218 41.6076 369.402 41.4342C369.586 41.2609 369.842 41.1742 370.17 41.1742C370.495 41.1742 370.741 41.2596 370.906 41.4302C371.074 41.5982 371.158 41.8396 371.158 42.1542C371.158 42.2422 371.155 42.3116 371.15 42.3622L369.55 42.3342C369.553 42.7662 369.765 42.9822 370.186 42.9822C370.431 42.9822 370.638 42.8862 370.806 42.6942L371.09 42.9382C371.002 43.0556 370.879 43.1489 370.722 43.2182C370.565 43.2876 370.382 43.3222 370.174 43.3222ZM370.738 42.0582C370.735 41.8769 370.687 41.7396 370.594 41.6462C370.501 41.5502 370.361 41.5022 370.174 41.5022C369.99 41.5022 369.842 41.5516 369.73 41.6502C369.621 41.7489 369.561 41.8982 369.55 42.0982L370.738 42.0582ZM371.531 41.2142H372.975V41.5742H371.963V43.2822H371.531V41.2142ZM374.229 43.3222C373.89 43.3222 373.629 43.2356 373.445 43.0622C373.261 42.8889 373.169 42.6436 373.169 42.3262V42.1702C373.169 41.8529 373.261 41.6076 373.445 41.4342C373.629 41.2609 373.89 41.1742 374.229 41.1742C374.57 41.1742 374.832 41.2609 375.013 41.4342C375.197 41.6049 375.289 41.8502 375.289 42.1702V42.3262C375.289 42.6462 375.197 42.8929 375.013 43.0662C374.832 43.2369 374.57 43.3222 374.229 43.3222ZM373.609 42.2902C373.609 42.5329 373.661 42.7089 373.765 42.8182C373.869 42.9276 374.024 42.9822 374.229 42.9822C374.434 42.9822 374.589 42.9276 374.693 42.8182C374.8 42.7089 374.853 42.5329 374.853 42.2902V42.2062C374.853 41.9636 374.8 41.7876 374.693 41.6782C374.589 41.5689 374.434 41.5142 374.229 41.5142C374.024 41.5142 373.869 41.5689 373.765 41.6782C373.661 41.7876 373.609 41.9636 373.609 42.2062V42.2902ZM375.687 41.2142H376.855C377.074 41.2142 377.24 41.2582 377.355 41.3462C377.472 41.4342 377.531 41.5662 377.531 41.7422C377.531 41.9796 377.423 42.1382 377.207 42.2182C377.33 42.2476 377.424 42.3049 377.491 42.3902C377.56 42.4729 377.595 42.5756 377.595 42.6982C377.595 42.8902 377.535 43.0356 377.415 43.1342C377.295 43.2329 377.116 43.2822 376.879 43.2822H375.687V41.2142ZM376.835 42.9702C377.056 42.9702 377.167 42.8729 377.167 42.6782C377.167 42.5796 377.14 42.5062 377.087 42.4582C377.036 42.4102 376.951 42.3862 376.831 42.3862H376.111V42.9702H376.835ZM376.799 42.0822C376.911 42.0822 376.992 42.0582 377.043 42.0102C377.094 41.9622 377.119 41.8929 377.119 41.8022C377.119 41.6182 377.011 41.5262 376.795 41.5262H376.111V42.0822H376.799ZM378.932 43.3222C378.593 43.3222 378.332 43.2356 378.148 43.0622C377.964 42.8889 377.872 42.6436 377.872 42.3262V42.1702C377.872 41.8529 377.964 41.6076 378.148 41.4342C378.332 41.2609 378.593 41.1742 378.932 41.1742C379.273 41.1742 379.535 41.2609 379.716 41.4342C379.9 41.6049 379.992 41.8502 379.992 42.1702V42.3262C379.992 42.6462 379.9 42.8929 379.716 43.0662C379.535 43.2369 379.273 43.3222 378.932 43.3222ZM378.312 42.2902C378.312 42.5329 378.364 42.7089 378.468 42.8182C378.572 42.9276 378.727 42.9822 378.932 42.9822C379.137 42.9822 379.292 42.9276 379.396 42.8182C379.503 42.7089 379.556 42.5329 379.556 42.2902V42.2062C379.556 41.9636 379.503 41.7876 379.396 41.6782C379.292 41.5689 379.137 41.5142 378.932 41.5142C378.727 41.5142 378.572 41.5689 378.468 41.6782C378.364 41.7876 378.312 41.9636 378.312 42.2062V42.2902ZM380.39 41.2142H380.822V41.5382C380.886 41.4289 380.979 41.3422 381.102 41.2782C381.227 41.2116 381.377 41.1782 381.55 41.1782C381.851 41.1782 382.081 41.2676 382.238 41.4462C382.398 41.6222 382.478 41.8636 382.478 42.1702V42.3262C382.478 42.6329 382.398 42.8756 382.238 43.0542C382.081 43.2302 381.851 43.3182 381.55 43.3182C381.377 43.3182 381.227 43.2862 381.102 43.2222C380.979 43.1582 380.886 43.0729 380.822 42.9662V44.0822H380.39V41.2142ZM380.81 42.2942C380.81 42.5289 380.863 42.7022 380.97 42.8142C381.079 42.9236 381.233 42.9782 381.43 42.9782C381.835 42.9782 382.038 42.7502 382.038 42.2942V42.1982C382.038 41.7449 381.835 41.5182 381.43 41.5182C381.238 41.5182 381.086 41.5742 380.974 41.6862C380.865 41.7956 380.81 41.9662 380.81 42.1982V42.2942ZM382.874 41.2142H383.306V42.1182H383.426L384.282 41.2142H384.806L383.902 42.1502L384.854 43.2822H384.31L383.55 42.3782H383.306V43.2822H382.874V41.2142ZM385.694 43.3182C385.457 43.3182 385.27 43.2676 385.134 43.1662C384.998 43.0622 384.93 42.9169 384.93 42.7302C384.93 42.5169 385.005 42.3596 385.154 42.2582C385.303 42.1569 385.534 42.1062 385.846 42.1062H386.426V41.9662C386.426 41.8089 386.387 41.6942 386.31 41.6222C386.235 41.5476 386.115 41.5102 385.95 41.5102C385.814 41.5102 385.693 41.5369 385.586 41.5902C385.482 41.6409 385.398 41.7129 385.334 41.8062L385.03 41.6222C385.115 41.4809 385.241 41.3716 385.406 41.2942C385.571 41.2169 385.755 41.1782 385.958 41.1782C386.241 41.1782 386.458 41.2396 386.61 41.3622C386.762 41.4849 386.838 41.6822 386.838 41.9542V43.2822H386.442V42.9422C386.375 43.0676 386.275 43.1622 386.142 43.2262C386.011 43.2876 385.862 43.3182 385.694 43.3182ZM385.346 42.6982C385.346 42.7969 385.386 42.8702 385.466 42.9182C385.546 42.9636 385.653 42.9862 385.786 42.9862C385.973 42.9862 386.126 42.9462 386.246 42.8662C386.366 42.7836 386.426 42.6702 386.426 42.5262V42.3942H385.858C385.682 42.3942 385.553 42.4196 385.47 42.4702C385.387 42.5209 385.346 42.5969 385.346 42.6982Z" fill="#172736"/>
<rect x="369.14" y="31.25" width="10.375" height="7.25" rx="1.6875" fill="#33D18F" fill-opacity="0.2"/>
<path d="M372.596 36.429C372.29 36.429 372.035 36.375 371.831 36.267C371.627 36.159 371.47 35.9865 371.359 35.7495L371.75 35.5245C371.837 35.6955 371.951 35.82 372.092 35.898C372.236 35.976 372.407 36.015 372.605 36.015C373.091 36.015 373.334 35.805 373.334 35.385C373.334 35.178 373.28 35.0265 373.172 34.9305C373.064 34.8345 372.895 34.7865 372.664 34.7865C372.517 34.7865 372.383 34.8075 372.263 34.8495C372.146 34.8915 372.028 34.953 371.908 35.034L371.53 34.872L371.687 33.315H373.676V33.7515H372.079L371.984 34.62C372.209 34.473 372.481 34.3995 372.799 34.3995C373.489 34.3995 373.834 34.7265 373.834 35.3805C373.834 35.7285 373.729 35.991 373.519 36.168C373.312 36.342 373.004 36.429 372.596 36.429ZM374.854 33.9675C374.704 34.1085 374.494 34.1865 374.224 34.2015V33.7515C374.584 33.7425 374.833 33.597 374.971 33.315H375.358V36.375H374.854V33.9675ZM376.64 33.9675C376.49 34.1085 376.28 34.1865 376.01 34.2015V33.7515C376.37 33.7425 376.619 33.597 376.757 33.315H377.144V36.375H376.64V33.9675Z" fill="#172736"/>
<rect x="359.412" y="75.25" width="39" height="65" fill="#33D18F" fill-opacity="0.2" stroke="#33D18F" stroke-opacity="0.2" stroke-width="2.5" stroke-linejoin="round"/>
<path d="M365.672 109.562H367.912V112.282H367.456V109.958H366.128V112.282H365.672V109.562ZM369.377 112.322C369.044 112.322 368.785 112.236 368.601 112.062C368.42 111.889 368.329 111.644 368.329 111.326V111.17C368.329 110.853 368.421 110.608 368.605 110.434C368.789 110.261 369.045 110.174 369.373 110.174C369.699 110.174 369.944 110.26 370.109 110.43C370.277 110.598 370.361 110.84 370.361 111.154C370.361 111.242 370.359 111.312 370.353 111.362L368.753 111.334C368.756 111.766 368.968 111.982 369.389 111.982C369.635 111.982 369.841 111.886 370.009 111.694L370.293 111.938C370.205 112.056 370.083 112.149 369.925 112.218C369.768 112.288 369.585 112.322 369.377 112.322ZM369.941 111.058C369.939 110.877 369.891 110.74 369.797 110.646C369.704 110.55 369.564 110.502 369.377 110.502C369.193 110.502 369.045 110.552 368.933 110.65C368.824 110.749 368.764 110.898 368.753 111.098L369.941 111.058ZM370.734 110.214H371.166V110.538C371.23 110.429 371.323 110.342 371.446 110.278C371.571 110.212 371.72 110.178 371.894 110.178C372.195 110.178 372.424 110.268 372.582 110.446C372.742 110.622 372.822 110.864 372.822 111.17V111.326C372.822 111.633 372.742 111.876 372.582 112.054C372.424 112.23 372.195 112.318 371.894 112.318C371.72 112.318 371.571 112.286 371.446 112.222C371.323 112.158 371.23 112.073 371.166 111.966V113.082H370.734V110.214ZM371.154 111.294C371.154 111.529 371.207 111.702 371.314 111.814C371.423 111.924 371.576 111.978 371.774 111.978C372.179 111.978 372.382 111.75 372.382 111.294V111.198C372.382 110.745 372.179 110.518 371.774 110.518C371.582 110.518 371.43 110.574 371.318 110.686C371.208 110.796 371.154 110.966 371.154 111.198V111.294ZM374.174 112.322C373.841 112.322 373.582 112.236 373.398 112.062C373.217 111.889 373.126 111.644 373.126 111.326V111.17C373.126 110.853 373.218 110.608 373.402 110.434C373.586 110.261 373.842 110.174 374.17 110.174C374.495 110.174 374.741 110.26 374.906 110.43C375.074 110.598 375.158 110.84 375.158 111.154C375.158 111.242 375.155 111.312 375.15 111.362L373.55 111.334C373.553 111.766 373.765 111.982 374.186 111.982C374.431 111.982 374.638 111.886 374.806 111.694L375.09 111.938C375.002 112.056 374.879 112.149 374.722 112.218C374.565 112.288 374.382 112.322 374.174 112.322ZM374.738 111.058C374.735 110.877 374.687 110.74 374.594 110.646C374.501 110.55 374.361 110.502 374.174 110.502C373.99 110.502 373.842 110.552 373.73 110.65C373.621 110.749 373.561 110.898 373.55 111.098L374.738 111.058ZM375.531 110.214H376.975V110.574H375.963V112.282H375.531V110.214ZM378.229 112.322C377.89 112.322 377.629 112.236 377.445 112.062C377.261 111.889 377.169 111.644 377.169 111.326V111.17C377.169 110.853 377.261 110.608 377.445 110.434C377.629 110.261 377.89 110.174 378.229 110.174C378.57 110.174 378.832 110.261 379.013 110.434C379.197 110.605 379.289 110.85 379.289 111.17V111.326C379.289 111.646 379.197 111.893 379.013 112.066C378.832 112.237 378.57 112.322 378.229 112.322ZM377.609 111.29C377.609 111.533 377.661 111.709 377.765 111.818C377.869 111.928 378.024 111.982 378.229 111.982C378.434 111.982 378.589 111.928 378.693 111.818C378.8 111.709 378.853 111.533 378.853 111.29V111.206C378.853 110.964 378.8 110.788 378.693 110.678C378.589 110.569 378.434 110.514 378.229 110.514C378.024 110.514 377.869 110.569 377.765 110.678C377.661 110.788 377.609 110.964 377.609 111.206V111.29ZM379.687 110.214H380.855C381.074 110.214 381.24 110.258 381.355 110.346C381.472 110.434 381.531 110.566 381.531 110.742C381.531 110.98 381.423 111.138 381.207 111.218C381.33 111.248 381.424 111.305 381.491 111.39C381.56 111.473 381.595 111.576 381.595 111.698C381.595 111.89 381.535 112.036 381.415 112.134C381.295 112.233 381.116 112.282 380.879 112.282H379.687V110.214ZM380.835 111.97C381.056 111.97 381.167 111.873 381.167 111.678C381.167 111.58 381.14 111.506 381.087 111.458C381.036 111.41 380.951 111.386 380.831 111.386H380.111V111.97H380.835ZM380.799 111.082C380.911 111.082 380.992 111.058 381.043 111.01C381.094 110.962 381.119 110.893 381.119 110.802C381.119 110.618 381.011 110.526 380.795 110.526H380.111V111.082H380.799ZM382.932 112.322C382.593 112.322 382.332 112.236 382.148 112.062C381.964 111.889 381.872 111.644 381.872 111.326V111.17C381.872 110.853 381.964 110.608 382.148 110.434C382.332 110.261 382.593 110.174 382.932 110.174C383.273 110.174 383.535 110.261 383.716 110.434C383.9 110.605 383.992 110.85 383.992 111.17V111.326C383.992 111.646 383.9 111.893 383.716 112.066C383.535 112.237 383.273 112.322 382.932 112.322ZM382.312 111.29C382.312 111.533 382.364 111.709 382.468 111.818C382.572 111.928 382.727 111.982 382.932 111.982C383.137 111.982 383.292 111.928 383.396 111.818C383.503 111.709 383.556 111.533 383.556 111.29V111.206C383.556 110.964 383.503 110.788 383.396 110.678C383.292 110.569 383.137 110.514 382.932 110.514C382.727 110.514 382.572 110.569 382.468 110.678C382.364 110.788 382.312 110.964 382.312 111.206V111.29ZM384.39 110.214H384.822V110.538C384.886 110.429 384.979 110.342 385.102 110.278C385.227 110.212 385.377 110.178 385.55 110.178C385.851 110.178 386.081 110.268 386.238 110.446C386.398 110.622 386.478 110.864 386.478 111.17V111.326C386.478 111.633 386.398 111.876 386.238 112.054C386.081 112.23 385.851 112.318 385.55 112.318C385.377 112.318 385.227 112.286 385.102 112.222C384.979 112.158 384.886 112.073 384.822 111.966V113.082H384.39V110.214ZM384.81 111.294C384.81 111.529 384.863 111.702 384.97 111.814C385.079 111.924 385.233 111.978 385.43 111.978C385.835 111.978 386.038 111.75 386.038 111.294V111.198C386.038 110.745 385.835 110.518 385.43 110.518C385.238 110.518 385.086 110.574 384.974 110.686C384.865 110.796 384.81 110.966 384.81 111.198V111.294ZM386.874 110.214H387.306V111.118H387.426L388.282 110.214H388.806L387.902 111.15L388.854 112.282H388.31L387.55 111.378H387.306V112.282H386.874V110.214ZM389.694 112.318C389.457 112.318 389.27 112.268 389.134 112.166C388.998 112.062 388.93 111.917 388.93 111.73C388.93 111.517 389.005 111.36 389.154 111.258C389.303 111.157 389.534 111.106 389.846 111.106H390.426V110.966C390.426 110.809 390.387 110.694 390.31 110.622C390.235 110.548 390.115 110.51 389.95 110.51C389.814 110.51 389.693 110.537 389.586 110.59C389.482 110.641 389.398 110.713 389.334 110.806L389.03 110.622C389.115 110.481 389.241 110.372 389.406 110.294C389.571 110.217 389.755 110.178 389.958 110.178C390.241 110.178 390.458 110.24 390.61 110.362C390.762 110.485 390.838 110.682 390.838 110.954V112.282H390.442V111.942C390.375 112.068 390.275 112.162 390.142 112.226C390.011 112.288 389.862 112.318 389.694 112.318ZM389.346 111.698C389.346 111.797 389.386 111.87 389.466 111.918C389.546 111.964 389.653 111.986 389.786 111.986C389.973 111.986 390.126 111.946 390.246 111.866C390.366 111.784 390.426 111.67 390.426 111.526V111.394H389.858C389.682 111.394 389.553 111.42 389.47 111.47C389.387 111.521 389.346 111.597 389.346 111.698Z" fill="#172736"/>
<rect x="373.14" y="100.25" width="11.375" height="7.25" rx="1.6875" fill="#33D18F" fill-opacity="0.2"/>
<path d="M376.534 105.429C376.228 105.429 375.973 105.375 375.769 105.267C375.565 105.159 375.407 104.986 375.296 104.749L375.688 104.524C375.775 104.695 375.889 104.82 376.03 104.898C376.174 104.976 376.345 105.015 376.543 105.015C377.029 105.015 377.272 104.805 377.272 104.385C377.272 104.178 377.218 104.026 377.11 103.93C377.002 103.834 376.832 103.786 376.601 103.786C376.454 103.786 376.321 103.807 376.201 103.849C376.084 103.891 375.965 103.953 375.845 104.034L375.467 103.872L375.625 102.315H377.614V102.751H376.016L375.922 103.62C376.147 103.473 376.418 103.399 376.736 103.399C377.426 103.399 377.771 103.726 377.771 104.38C377.771 104.728 377.666 104.991 377.456 105.168C377.249 105.342 376.942 105.429 376.534 105.429ZM378.791 102.967C378.641 103.108 378.431 103.186 378.161 103.201V102.751C378.521 102.742 378.77 102.597 378.908 102.315H379.295V105.375H378.791V102.967ZM381.126 105.429C380.82 105.429 380.561 105.375 380.348 105.267C380.138 105.159 379.977 104.989 379.866 104.758L380.258 104.529C380.345 104.697 380.459 104.82 380.6 104.898C380.741 104.976 380.915 105.015 381.122 105.015C381.605 105.015 381.846 104.814 381.846 104.412C381.846 104.226 381.8 104.092 381.707 104.011C381.614 103.93 381.47 103.89 381.275 103.89C381.116 103.89 380.945 103.917 380.762 103.971L380.573 103.683L381.639 102.751H380.042V102.315H382.26V102.715L381.306 103.548C381.39 103.542 381.447 103.539 381.477 103.539C381.735 103.539 381.945 103.608 382.107 103.746C382.272 103.881 382.355 104.103 382.355 104.412C382.355 104.745 382.25 104.998 382.04 105.172C381.83 105.343 381.525 105.429 381.126 105.429Z" fill="#172736"/>
<rect x="423.412" y="51.25" width="64" height="46" fill="#33D18F" fill-opacity="0.2" stroke="#33D18F" stroke-opacity="0.2" stroke-width="2.5" stroke-linejoin="round"/>
<path d="M441.672 76.5622H443.912V79.2822H443.456V76.9582H442.128V79.2822H441.672V76.5622ZM445.377 79.3222C445.044 79.3222 444.785 79.2356 444.601 79.0622C444.42 78.8889 444.329 78.6436 444.329 78.3262V78.1702C444.329 77.8529 444.421 77.6076 444.605 77.4342C444.789 77.2609 445.045 77.1742 445.373 77.1742C445.699 77.1742 445.944 77.2596 446.109 77.4302C446.277 77.5982 446.361 77.8396 446.361 78.1542C446.361 78.2422 446.359 78.3116 446.353 78.3622L444.753 78.3342C444.756 78.7662 444.968 78.9822 445.389 78.9822C445.635 78.9822 445.841 78.8862 446.009 78.6942L446.293 78.9382C446.205 79.0556 446.083 79.1489 445.925 79.2182C445.768 79.2876 445.585 79.3222 445.377 79.3222ZM445.941 78.0582C445.939 77.8769 445.891 77.7396 445.797 77.6462C445.704 77.5502 445.564 77.5022 445.377 77.5022C445.193 77.5022 445.045 77.5516 444.933 77.6502C444.824 77.7489 444.764 77.8982 444.753 78.0982L445.941 78.0582ZM446.734 77.2142H447.166V77.5382C447.23 77.4289 447.323 77.3422 447.446 77.2782C447.571 77.2116 447.72 77.1782 447.894 77.1782C448.195 77.1782 448.424 77.2676 448.582 77.4462C448.742 77.6222 448.822 77.8636 448.822 78.1702V78.3262C448.822 78.6329 448.742 78.8756 448.582 79.0542C448.424 79.2302 448.195 79.3182 447.894 79.3182C447.72 79.3182 447.571 79.2862 447.446 79.2222C447.323 79.1582 447.23 79.0729 447.166 78.9662V80.0822H446.734V77.2142ZM447.154 78.2942C447.154 78.5289 447.207 78.7022 447.314 78.8142C447.423 78.9236 447.576 78.9782 447.774 78.9782C448.179 78.9782 448.382 78.7502 448.382 78.2942V78.1982C448.382 77.7449 448.179 77.5182 447.774 77.5182C447.582 77.5182 447.43 77.5742 447.318 77.6862C447.208 77.7956 447.154 77.9662 447.154 78.1982V78.2942ZM450.174 79.3222C449.841 79.3222 449.582 79.2356 449.398 79.0622C449.217 78.8889 449.126 78.6436 449.126 78.3262V78.1702C449.126 77.8529 449.218 77.6076 449.402 77.4342C449.586 77.2609 449.842 77.1742 450.17 77.1742C450.495 77.1742 450.741 77.2596 450.906 77.4302C451.074 77.5982 451.158 77.8396 451.158 78.1542C451.158 78.2422 451.155 78.3116 451.15 78.3622L449.55 78.3342C449.553 78.7662 449.765 78.9822 450.186 78.9822C450.431 78.9822 450.638 78.8862 450.806 78.6942L451.09 78.9382C451.002 79.0556 450.879 79.1489 450.722 79.2182C450.565 79.2876 450.382 79.3222 450.174 79.3222ZM450.738 78.0582C450.735 77.8769 450.687 77.7396 450.594 77.6462C450.501 77.5502 450.361 77.5022 450.174 77.5022C449.99 77.5022 449.842 77.5516 449.73 77.6502C449.621 77.7489 449.561 77.8982 449.55 78.0982L450.738 78.0582ZM451.531 77.2142H452.975V77.5742H451.963V79.2822H451.531V77.2142ZM454.229 79.3222C453.89 79.3222 453.629 79.2356 453.445 79.0622C453.261 78.8889 453.169 78.6436 453.169 78.3262V78.1702C453.169 77.8529 453.261 77.6076 453.445 77.4342C453.629 77.2609 453.89 77.1742 454.229 77.1742C454.57 77.1742 454.832 77.2609 455.013 77.4342C455.197 77.6049 455.289 77.8502 455.289 78.1702V78.3262C455.289 78.6462 455.197 78.8929 455.013 79.0662C454.832 79.2369 454.57 79.3222 454.229 79.3222ZM453.609 78.2902C453.609 78.5329 453.661 78.7089 453.765 78.8182C453.869 78.9276 454.024 78.9822 454.229 78.9822C454.434 78.9822 454.589 78.9276 454.693 78.8182C454.8 78.7089 454.853 78.5329 454.853 78.2902V78.2062C454.853 77.9636 454.8 77.7876 454.693 77.6782C454.589 77.5689 454.434 77.5142 454.229 77.5142C454.024 77.5142 453.869 77.5689 453.765 77.6782C453.661 77.7876 453.609 77.9636 453.609 78.2062V78.2902ZM455.687 77.2142H456.855C457.074 77.2142 457.24 77.2582 457.355 77.3462C457.472 77.4342 457.531 77.5662 457.531 77.7422C457.531 77.9796 457.423 78.1382 457.207 78.2182C457.33 78.2476 457.424 78.3049 457.491 78.3902C457.56 78.4729 457.595 78.5756 457.595 78.6982C457.595 78.8902 457.535 79.0356 457.415 79.1342C457.295 79.2329 457.116 79.2822 456.879 79.2822H455.687V77.2142ZM456.835 78.9702C457.056 78.9702 457.167 78.8729 457.167 78.6782C457.167 78.5796 457.14 78.5062 457.087 78.4582C457.036 78.4102 456.951 78.3862 456.831 78.3862H456.111V78.9702H456.835ZM456.799 78.0822C456.911 78.0822 456.992 78.0582 457.043 78.0102C457.094 77.9622 457.119 77.8929 457.119 77.8022C457.119 77.6182 457.011 77.5262 456.795 77.5262H456.111V78.0822H456.799ZM458.932 79.3222C458.593 79.3222 458.332 79.2356 458.148 79.0622C457.964 78.8889 457.872 78.6436 457.872 78.3262V78.1702C457.872 77.8529 457.964 77.6076 458.148 77.4342C458.332 77.2609 458.593 77.1742 458.932 77.1742C459.273 77.1742 459.535 77.2609 459.716 77.4342C459.9 77.6049 459.992 77.8502 459.992 78.1702V78.3262C459.992 78.6462 459.9 78.8929 459.716 79.0662C459.535 79.2369 459.273 79.3222 458.932 79.3222ZM458.312 78.2902C458.312 78.5329 458.364 78.7089 458.468 78.8182C458.572 78.9276 458.727 78.9822 458.932 78.9822C459.137 78.9822 459.292 78.9276 459.396 78.8182C459.503 78.7089 459.556 78.5329 459.556 78.2902V78.2062C459.556 77.9636 459.503 77.7876 459.396 77.6782C459.292 77.5689 459.137 77.5142 458.932 77.5142C458.727 77.5142 458.572 77.5689 458.468 77.6782C458.364 77.7876 458.312 77.9636 458.312 78.2062V78.2902ZM460.39 77.2142H460.822V77.5382C460.886 77.4289 460.979 77.3422 461.102 77.2782C461.227 77.2116 461.377 77.1782 461.55 77.1782C461.851 77.1782 462.081 77.2676 462.238 77.4462C462.398 77.6222 462.478 77.8636 462.478 78.1702V78.3262C462.478 78.6329 462.398 78.8756 462.238 79.0542C462.081 79.2302 461.851 79.3182 461.55 79.3182C461.377 79.3182 461.227 79.2862 461.102 79.2222C460.979 79.1582 460.886 79.0729 460.822 78.9662V80.0822H460.39V77.2142ZM460.81 78.2942C460.81 78.5289 460.863 78.7022 460.97 78.8142C461.079 78.9236 461.233 78.9782 461.43 78.9782C461.835 78.9782 462.038 78.7502 462.038 78.2942V78.1982C462.038 77.7449 461.835 77.5182 461.43 77.5182C461.238 77.5182 461.086 77.5742 460.974 77.6862C460.865 77.7956 460.81 77.9662 460.81 78.1982V78.2942ZM462.874 77.2142H463.306V78.1182H463.426L464.282 77.2142H464.806L463.902 78.1502L464.854 79.2822H464.31L463.55 78.3782H463.306V79.2822H462.874V77.2142ZM465.694 79.3182C465.457 79.3182 465.27 79.2676 465.134 79.1662C464.998 79.0622 464.93 78.9169 464.93 78.7302C464.93 78.5169 465.005 78.3596 465.154 78.2582C465.303 78.1569 465.534 78.1062 465.846 78.1062H466.426V77.9662C466.426 77.8089 466.387 77.6942 466.31 77.6222C466.235 77.5476 466.115 77.5102 465.95 77.5102C465.814 77.5102 465.693 77.5369 465.586 77.5902C465.482 77.6409 465.398 77.7129 465.334 77.8062L465.03 77.6222C465.115 77.4809 465.241 77.3716 465.406 77.2942C465.571 77.2169 465.755 77.1782 465.958 77.1782C466.241 77.1782 466.458 77.2396 466.61 77.3622C466.762 77.4849 466.838 77.6822 466.838 77.9542V79.2822H466.442V78.9422C466.375 79.0676 466.275 79.1622 466.142 79.2262C466.011 79.2876 465.862 79.3182 465.694 79.3182ZM465.346 78.6982C465.346 78.7969 465.386 78.8702 465.466 78.9182C465.546 78.9636 465.653 78.9862 465.786 78.9862C465.973 78.9862 466.126 78.9462 466.246 78.8662C466.366 78.7836 466.426 78.6702 466.426 78.5262V78.3942H465.858C465.682 78.3942 465.553 78.4196 465.47 78.4702C465.387 78.5209 465.346 78.5969 465.346 78.6982Z" fill="#172736"/>
<rect x="449.14" y="67.25" width="11.375" height="7.25" rx="1.6875" fill="#33D18F" fill-opacity="0.2"/>
<path d="M452.624 72.429C452.318 72.429 452.063 72.375 451.859 72.267C451.655 72.159 451.497 71.9865 451.386 71.7495L451.778 71.5245C451.865 71.6955 451.979 71.82 452.12 71.898C452.264 71.976 452.435 72.015 452.633 72.015C453.119 72.015 453.362 71.805 453.362 71.385C453.362 71.178 453.308 71.0265 453.2 70.9305C453.092 70.8345 452.922 70.7865 452.691 70.7865C452.544 70.7865 452.411 70.8075 452.291 70.8495C452.174 70.8915 452.055 70.953 451.935 71.034L451.557 70.872L451.715 69.315H453.704V69.7515H452.106L452.012 70.62C452.237 70.473 452.508 70.3995 452.826 70.3995C453.516 70.3995 453.861 70.7265 453.861 71.3805C453.861 71.7285 453.756 71.991 453.546 72.168C453.339 72.342 453.032 72.429 452.624 72.429ZM454.882 69.9675C454.732 70.1085 454.522 70.1865 454.252 70.2015V69.7515C454.612 69.7425 454.861 69.597 454.999 69.315H455.386V72.375H454.882V69.9675ZM456.469 72.375C456.721 71.346 457.14 70.473 457.725 69.756H455.997V69.315H458.247V69.711C457.932 70.083 457.677 70.488 457.482 70.926C457.29 71.361 457.143 71.844 457.041 72.375H456.469Z" fill="#172736"/>
<path d="M1022.41 174.972H1139.41L1148.41 185.472V218.472L1022.41 247.972V174.972Z" fill="#33D18F" fill-opacity="0.2" stroke="#33D18F" stroke-opacity="0.2" stroke-width="2.5" stroke-linejoin="round"/>
<path d="M1068.67 206.284H1070.91V209.004H1070.46V206.68H1069.13V209.004H1068.67V206.284ZM1072.38 209.044C1072.04 209.044 1071.79 208.958 1071.6 208.784C1071.42 208.611 1071.33 208.366 1071.33 208.048V207.892C1071.33 207.575 1071.42 207.33 1071.61 207.156C1071.79 206.983 1072.05 206.896 1072.37 206.896C1072.7 206.896 1072.94 206.982 1073.11 207.152C1073.28 207.32 1073.36 207.562 1073.36 207.876C1073.36 207.964 1073.36 208.034 1073.35 208.084L1071.75 208.056C1071.76 208.488 1071.97 208.704 1072.39 208.704C1072.63 208.704 1072.84 208.608 1073.01 208.416L1073.29 208.66C1073.21 208.778 1073.08 208.871 1072.93 208.94C1072.77 209.01 1072.59 209.044 1072.38 209.044ZM1072.94 207.78C1072.94 207.599 1072.89 207.462 1072.8 207.368C1072.7 207.272 1072.56 207.224 1072.38 207.224C1072.19 207.224 1072.05 207.274 1071.93 207.372C1071.82 207.471 1071.76 207.62 1071.75 207.82L1072.94 207.78ZM1073.73 206.936H1074.17V207.26C1074.23 207.151 1074.32 207.064 1074.45 207C1074.57 206.934 1074.72 206.9 1074.89 206.9C1075.2 206.9 1075.42 206.99 1075.58 207.168C1075.74 207.344 1075.82 207.586 1075.82 207.892V208.048C1075.82 208.355 1075.74 208.598 1075.58 208.776C1075.42 208.952 1075.2 209.04 1074.89 209.04C1074.72 209.04 1074.57 209.008 1074.45 208.944C1074.32 208.88 1074.23 208.795 1074.17 208.688V209.804H1073.73V206.936ZM1074.15 208.016C1074.15 208.251 1074.21 208.424 1074.31 208.536C1074.42 208.646 1074.58 208.7 1074.77 208.7C1075.18 208.7 1075.38 208.472 1075.38 208.016V207.92C1075.38 207.467 1075.18 207.24 1074.77 207.24C1074.58 207.24 1074.43 207.296 1074.32 207.408C1074.21 207.518 1074.15 207.688 1074.15 207.92V208.016ZM1077.17 209.044C1076.84 209.044 1076.58 208.958 1076.4 208.784C1076.22 208.611 1076.13 208.366 1076.13 208.048V207.892C1076.13 207.575 1076.22 207.33 1076.4 207.156C1076.59 206.983 1076.84 206.896 1077.17 206.896C1077.5 206.896 1077.74 206.982 1077.91 207.152C1078.07 207.32 1078.16 207.562 1078.16 207.876C1078.16 207.964 1078.16 208.034 1078.15 208.084L1076.55 208.056C1076.55 208.488 1076.76 208.704 1077.19 208.704C1077.43 208.704 1077.64 208.608 1077.81 208.416L1078.09 208.66C1078 208.778 1077.88 208.871 1077.72 208.94C1077.56 209.01 1077.38 209.044 1077.17 209.044ZM1077.74 207.78C1077.74 207.599 1077.69 207.462 1077.59 207.368C1077.5 207.272 1077.36 207.224 1077.17 207.224C1076.99 207.224 1076.84 207.274 1076.73 207.372C1076.62 207.471 1076.56 207.62 1076.55 207.82L1077.74 207.78ZM1078.53 206.936H1079.97V207.296H1078.96V209.004H1078.53V206.936ZM1081.23 209.044C1080.89 209.044 1080.63 208.958 1080.44 208.784C1080.26 208.611 1080.17 208.366 1080.17 208.048V207.892C1080.17 207.575 1080.26 207.33 1080.44 207.156C1080.63 206.983 1080.89 206.896 1081.23 206.896C1081.57 206.896 1081.83 206.983 1082.01 207.156C1082.2 207.327 1082.29 207.572 1082.29 207.892V208.048C1082.29 208.368 1082.2 208.615 1082.01 208.788C1081.83 208.959 1081.57 209.044 1081.23 209.044ZM1080.61 208.012C1080.61 208.255 1080.66 208.431 1080.76 208.54C1080.87 208.65 1081.02 208.704 1081.23 208.704C1081.43 208.704 1081.59 208.65 1081.69 208.54C1081.8 208.431 1081.85 208.255 1081.85 208.012V207.928C1081.85 207.686 1081.8 207.51 1081.69 207.4C1081.59 207.291 1081.43 207.236 1081.23 207.236C1081.02 207.236 1080.87 207.291 1080.76 207.4C1080.66 207.51 1080.61 207.686 1080.61 207.928V208.012ZM1082.69 206.936H1083.85C1084.07 206.936 1084.24 206.98 1084.35 207.068C1084.47 207.156 1084.53 207.288 1084.53 207.464C1084.53 207.702 1084.42 207.86 1084.21 207.94C1084.33 207.97 1084.42 208.027 1084.49 208.112C1084.56 208.195 1084.59 208.298 1084.59 208.42C1084.59 208.612 1084.53 208.758 1084.41 208.856C1084.29 208.955 1084.12 209.004 1083.88 209.004H1082.69V206.936ZM1083.83 208.692C1084.06 208.692 1084.17 208.595 1084.17 208.4C1084.17 208.302 1084.14 208.228 1084.09 208.18C1084.04 208.132 1083.95 208.108 1083.83 208.108H1083.11V208.692H1083.83ZM1083.8 207.804C1083.91 207.804 1083.99 207.78 1084.04 207.732C1084.09 207.684 1084.12 207.615 1084.12 207.524C1084.12 207.34 1084.01 207.248 1083.79 207.248H1083.11V207.804H1083.8ZM1085.93 209.044C1085.59 209.044 1085.33 208.958 1085.15 208.784C1084.96 208.611 1084.87 208.366 1084.87 208.048V207.892C1084.87 207.575 1084.96 207.33 1085.15 207.156C1085.33 206.983 1085.59 206.896 1085.93 206.896C1086.27 206.896 1086.53 206.983 1086.72 207.156C1086.9 207.327 1086.99 207.572 1086.99 207.892V208.048C1086.99 208.368 1086.9 208.615 1086.72 208.788C1086.53 208.959 1086.27 209.044 1085.93 209.044ZM1085.31 208.012C1085.31 208.255 1085.36 208.431 1085.47 208.54C1085.57 208.65 1085.73 208.704 1085.93 208.704C1086.14 208.704 1086.29 208.65 1086.4 208.54C1086.5 208.431 1086.56 208.255 1086.56 208.012V207.928C1086.56 207.686 1086.5 207.51 1086.4 207.4C1086.29 207.291 1086.14 207.236 1085.93 207.236C1085.73 207.236 1085.57 207.291 1085.47 207.4C1085.36 207.51 1085.31 207.686 1085.31 207.928V208.012ZM1087.39 206.936H1087.82V207.26C1087.89 207.151 1087.98 207.064 1088.1 207C1088.23 206.934 1088.38 206.9 1088.55 206.9C1088.85 206.9 1089.08 206.99 1089.24 207.168C1089.4 207.344 1089.48 207.586 1089.48 207.892V208.048C1089.48 208.355 1089.4 208.598 1089.24 208.776C1089.08 208.952 1088.85 209.04 1088.55 209.04C1088.38 209.04 1088.23 209.008 1088.1 208.944C1087.98 208.88 1087.89 208.795 1087.82 208.688V209.804H1087.39V206.936ZM1087.81 208.016C1087.81 208.251 1087.86 208.424 1087.97 208.536C1088.08 208.646 1088.23 208.7 1088.43 208.7C1088.84 208.7 1089.04 208.472 1089.04 208.016V207.92C1089.04 207.467 1088.84 207.24 1088.43 207.24C1088.24 207.24 1088.09 207.296 1087.97 207.408C1087.86 207.518 1087.81 207.688 1087.81 207.92V208.016ZM1089.87 206.936H1090.31V207.84H1090.43L1091.28 206.936H1091.81L1090.9 207.872L1091.85 209.004H1091.31L1090.55 208.1H1090.31V209.004H1089.87V206.936ZM1092.69 209.04C1092.46 209.04 1092.27 208.99 1092.13 208.888C1092 208.784 1091.93 208.639 1091.93 208.452C1091.93 208.239 1092 208.082 1092.15 207.98C1092.3 207.879 1092.53 207.828 1092.85 207.828H1093.43V207.688C1093.43 207.531 1093.39 207.416 1093.31 207.344C1093.24 207.27 1093.12 207.232 1092.95 207.232C1092.81 207.232 1092.69 207.259 1092.59 207.312C1092.48 207.363 1092.4 207.435 1092.33 207.528L1092.03 207.344C1092.12 207.203 1092.24 207.094 1092.41 207.016C1092.57 206.939 1092.76 206.9 1092.96 206.9C1093.24 206.9 1093.46 206.962 1093.61 207.084C1093.76 207.207 1093.84 207.404 1093.84 207.676V209.004H1093.44V208.664C1093.38 208.79 1093.28 208.884 1093.14 208.948C1093.01 209.01 1092.86 209.04 1092.69 209.04ZM1092.35 208.42C1092.35 208.519 1092.39 208.592 1092.47 208.64C1092.55 208.686 1092.65 208.708 1092.79 208.708C1092.97 208.708 1093.13 208.668 1093.25 208.588C1093.37 208.506 1093.43 208.392 1093.43 208.248V208.116H1092.86C1092.68 208.116 1092.55 208.142 1092.47 208.192C1092.39 208.243 1092.35 208.319 1092.35 208.42Z" fill="#172736"/>
<rect x="1076.14" y="196.972" width="11.375" height="7.25" rx="1.6875" fill="#33D18F" fill-opacity="0.2"/>
<path d="M1079.54 202.151C1079.23 202.151 1078.97 202.097 1078.77 201.989C1078.57 201.881 1078.41 201.709 1078.3 201.472L1078.69 201.247C1078.78 201.418 1078.89 201.542 1079.03 201.62C1079.18 201.698 1079.35 201.737 1079.54 201.737C1080.03 201.737 1080.27 201.527 1080.27 201.107C1080.27 200.9 1080.22 200.749 1080.11 200.653C1080 200.557 1079.83 200.509 1079.6 200.509C1079.46 200.509 1079.32 200.53 1079.2 200.572C1079.09 200.614 1078.97 200.675 1078.85 200.756L1078.47 200.594L1078.63 199.037H1080.62V199.474H1079.02L1078.92 200.342C1079.15 200.195 1079.42 200.122 1079.74 200.122C1080.43 200.122 1080.77 200.449 1080.77 201.103C1080.77 201.451 1080.67 201.713 1080.46 201.89C1080.25 202.064 1079.94 202.151 1079.54 202.151ZM1081.79 199.69C1081.64 199.831 1081.43 199.909 1081.16 199.924V199.474C1081.52 199.465 1081.77 199.319 1081.91 199.037H1082.3V202.097H1081.79V199.69ZM1082.95 201.688C1083.48 201.307 1083.87 201.007 1084.13 200.788C1084.39 200.566 1084.56 200.39 1084.65 200.261C1084.74 200.129 1084.78 200 1084.78 199.874C1084.78 199.709 1084.73 199.591 1084.62 199.519C1084.51 199.444 1084.37 199.406 1084.19 199.406C1083.99 199.406 1083.82 199.451 1083.7 199.541C1083.57 199.631 1083.46 199.78 1083.36 199.987L1082.93 199.811C1083.05 199.532 1083.21 199.325 1083.42 199.19C1083.63 199.052 1083.9 198.983 1084.21 198.983C1084.54 198.983 1084.8 199.057 1085 199.204C1085.19 199.348 1085.29 199.564 1085.29 199.852C1085.29 200.032 1085.24 200.203 1085.15 200.365C1085.06 200.527 1084.89 200.71 1084.66 200.914C1084.43 201.115 1084.09 201.364 1083.65 201.661H1085.3V202.097H1082.95V201.688Z" fill="#172736"/>
<path d="M845.412 138.827L932.412 138.25V123.25H936.412V111.25H907.912V96.75H845.412V138.827Z" fill="#FFEDD6" stroke="#FFCF94" stroke-width="2.5" stroke-linecap="round" stroke-linejoin="round"/>
<path d="M873.836 124.26V120.435H874.725L875.912 123.568L877.093 120.435H877.976V124.26H877.352L877.369 121.166L876.204 124.26H875.597L874.432 121.166L874.449 124.26H873.836ZM879.265 122.91C879.265 123.217 879.264 123.431 879.26 123.551L880.762 121.352H881.431V124.26H880.852V122.696C880.852 122.4 880.854 122.19 880.857 122.066L879.361 124.26H878.686V121.352H879.265V122.91ZM882.119 121.352H882.727V122.522H884.212V121.352H884.819V124.26H884.212V123.022H882.727V124.26H882.119V121.352ZM886.088 122.91C886.088 123.217 886.086 123.431 886.082 123.551L887.584 121.352H888.254V124.26H887.674V122.696C887.674 122.4 887.676 122.19 887.68 122.066L886.184 124.26H885.509V121.352H886.088V122.91ZM888.79 122.426H890.298V122.921H888.79V122.426ZM890.832 121.352H891.439V122.623H891.608L892.812 121.352H893.548L892.277 122.668L893.616 124.26H892.851L891.782 122.989H891.439V124.26H890.832V121.352ZM894.166 124.862H894.379C894.507 124.862 894.608 124.843 894.683 124.805C894.762 124.772 894.829 124.71 894.886 124.62C894.942 124.534 895.002 124.402 895.066 124.226H894.773L893.716 121.352H894.385L895.218 123.81H895.223L896.028 121.352H896.674L895.611 124.327C895.518 124.597 895.422 124.807 895.324 124.957C895.227 125.107 895.111 125.216 894.976 125.284C894.841 125.351 894.672 125.385 894.469 125.385H894.166V124.862ZM898.192 123.056L897.461 124.26H896.786L897.77 122.758L896.848 121.352H897.551L898.226 122.465L898.912 121.352H899.587L898.642 122.758L899.621 124.26H898.918L898.192 123.056ZM900.066 121.352H900.673V122.522H902.158V121.352H902.766V124.26H902.158V123.022H900.673V124.26H900.066V121.352ZM904.13 123.174C903.871 123.137 903.674 123.043 903.539 122.893C903.404 122.743 903.337 122.537 903.337 122.274C903.337 121.97 903.429 121.742 903.612 121.588C903.8 121.43 904.066 121.352 904.411 121.352H906.003V124.26H905.412V123.191H904.777L903.989 124.26H903.264L904.13 123.174ZM903.944 122.274C903.944 122.578 904.113 122.73 904.45 122.73H905.412V121.813H904.45C904.113 121.813 903.944 121.967 903.944 122.274Z" fill="#172736"/>
<rect x="883.853" y="111.25" width="8" height="6" rx="1.5" fill="#FFCF94"/>
<rect x="883.853" y="111.25" width="8" height="6" rx="1.5" stroke="#FFA436" stroke-opacity="0.2" stroke-width="0.5"/>
<path d="M886.678 115.298C886.406 115.298 886.18 115.25 885.998 115.154C885.817 115.058 885.677 114.905 885.578 114.694L885.926 114.494C886.004 114.646 886.105 114.757 886.23 114.826C886.358 114.895 886.51 114.93 886.686 114.93C887.118 114.93 887.334 114.743 887.334 114.37C887.334 114.186 887.286 114.051 887.19 113.966C887.094 113.881 886.944 113.838 886.738 113.838C886.608 113.838 886.489 113.857 886.382 113.894C886.278 113.931 886.173 113.986 886.066 114.058L885.73 113.914L885.87 112.53H887.638V112.918H886.218L886.134 113.69C886.334 113.559 886.576 113.494 886.858 113.494C887.472 113.494 887.778 113.785 887.778 114.366C887.778 114.675 887.685 114.909 887.498 115.066C887.314 115.221 887.041 115.298 886.678 115.298ZM889.21 115.29C888.879 115.29 888.623 115.203 888.442 115.03C888.261 114.857 888.17 114.611 888.17 114.294V114.138C888.17 113.821 888.261 113.575 888.442 113.402C888.623 113.229 888.881 113.142 889.214 113.142C889.462 113.142 889.666 113.195 889.826 113.302C889.989 113.409 890.101 113.562 890.162 113.762L889.766 113.882C889.686 113.615 889.502 113.482 889.214 113.482C889.017 113.482 888.866 113.538 888.762 113.65C888.658 113.759 888.606 113.934 888.606 114.174V114.258C888.606 114.717 888.809 114.946 889.214 114.946C889.505 114.946 889.69 114.811 889.77 114.542L890.158 114.658C890.097 114.861 889.986 115.017 889.826 115.126C889.666 115.235 889.461 115.29 889.21 115.29Z" fill="#172736"/>
</svg>
