<svg width="1149" height="358" viewBox="0 0 1149 358" fill="none" xmlns="http://www.w3.org/2000/svg">
<path d="M14.3323 200.941C14.3772 200.425 14.8098 200.028 15.3286 200.028H31.4116V2.52783C31.4116 1.97555 31.8593 1.52783 32.4116 1.52783H352.912H487.912H1120.91C1121.46 1.52783 1121.91 1.97555 1121.91 2.52783V87.0278H1146.91C1147.46 87.0278 1147.91 87.4755 1147.91 88.0278V217.751C1147.91 218.208 1147.63 218.601 1147.18 218.714C1129.52 223.203 1080.13 235.328 1017.41 249.528C954.488 263.775 889.965 275.933 864.712 280.387C864.234 280.471 863.912 280.882 863.912 281.367V298.528C863.912 299.08 863.464 299.528 862.912 299.528H751.984C751.936 299.528 751.89 299.531 751.843 299.538C701.146 306.875 592.398 322.63 562.412 327.028C532.412 331.428 436.912 339.528 392.912 343.028H307.412V347.565C307.412 348.102 307.012 348.543 306.475 348.563C261.909 350.247 167.612 353.939 139.412 355.528C111.296 357.112 36.7575 356.213 1.95532 355.548C1.37672 355.537 0.954074 355.039 1.00413 354.462L14.3323 200.941Z" fill="white"/>
<path d="M468.412 309.028C467.859 309.028 467.412 308.58 467.412 308.028V303.528V280.528H484.912V309.028H468.412Z" fill="white"/>
<path d="M533.412 209.528V251.028H521.162V209.528H533.412Z" fill="white"/>
<path d="M156.912 132.028C156.912 131.476 156.464 131.028 155.912 131.028H126.412V138.528C126.412 139.08 126.859 139.528 127.412 139.528H155.912C156.464 139.528 156.912 139.08 156.912 138.528V132.028Z" fill="white"/>
<path d="M964.412 109.528V97.5278C964.412 96.9755 964.859 96.5278 965.412 96.5278H979.162H985.412H994.912H1013.41V109.528H994.912H979.162H964.412Z" fill="white"/>
<path d="M933.412 124.528C932.859 124.528 932.412 124.976 932.412 125.528V139.028H845.412V97.0278C845.412 96.7517 845.635 96.5278 845.912 96.5278H936.412V123.528C936.412 124.08 935.964 124.528 935.412 124.528H933.412Z" fill="white"/>
<path d="M31.4116 200.028H15.3286C14.8098 200.028 14.3772 200.425 14.3323 200.941L1.00413 354.462C0.954074 355.039 1.37672 355.537 1.95532 355.548C36.7575 356.213 111.296 357.112 139.412 355.528C167.612 353.939 261.909 350.247 306.475 348.563C307.012 348.543 307.412 348.102 307.412 347.565V343.028M31.4116 200.028V2.52783C31.4116 1.97555 31.8593 1.52783 32.4116 1.52783H352.912M31.4116 200.028H80.4116C80.9639 200.028 81.4116 199.58 81.4116 199.028V167.528M307.412 343.028H392.912C436.912 339.528 532.412 331.428 562.412 327.028C592.398 322.63 701.146 306.875 751.843 299.538C751.89 299.531 751.936 299.528 751.984 299.528H862.912C863.464 299.528 863.912 299.08 863.912 298.528V281.367C863.912 280.882 864.234 280.471 864.712 280.387C889.965 275.933 954.488 263.775 1017.41 249.528C1080.13 235.328 1129.52 223.203 1147.18 218.714C1147.63 218.601 1147.91 218.208 1147.91 217.751V88.0278C1147.91 87.4755 1147.46 87.0278 1146.91 87.0278H1121.91M307.412 343.028V205.028C307.412 204.476 307.859 204.028 308.412 204.028H310.412M1121.91 87.0278V2.52783C1121.91 1.97555 1121.46 1.52783 1120.91 1.52783H487.912M1121.91 87.0278V95.0278M31.9116 139.528H84.4116M80.9116 153.528V139.528M96.9116 139.528H106.912M120.912 139.528H138.412M151.912 139.528H165.912M179.912 139.528H284.912M298.412 139.528H306.912M320.412 139.528H323.912M338.412 139.528H358.912M364.912 139.528H358.912M378.912 139.528H396.912C397.464 139.528 397.912 139.08 397.912 138.528V74.0278M397.912 71.0278V74.0278M397.912 56.0278V2.02783M81.9116 185.028H84.9116M124.912 176.528V184.028C124.912 184.58 124.464 185.028 123.912 185.028H100.912M124.912 176.528H120.412M124.912 176.528H200.412M107.412 176.528H101.912C101.359 176.528 100.912 176.976 100.912 177.528V185.028M97.4116 185.028H100.912M213.912 176.528H222.912M397.912 176.528H400.412C400.964 176.528 401.412 176.976 401.412 177.528V202.028M236.412 176.528H310.412M310.412 176.528H355.412M310.412 176.528V204.028M310.412 204.028H360.412M366.412 176.528H375.912M375.912 176.528H387.412M375.912 176.528V204.028M375.912 204.028H395.412M375.912 204.028H360.412M407.412 204.028H395.412M395.412 204.028V216.528M395.412 269.528V280.528M395.412 280.528V287.028M395.412 280.528H360.412M360.412 280.528V304.528M360.412 280.528V242.028M360.412 204.028V242.028M360.412 242.028H395.412M395.412 232.528V242.028M395.412 242.028V254.528M395.412 309.028V325.528M395.412 342.028V325.528M440.412 339.028V328.028M440.412 314.028V304.528C440.412 303.976 440.859 303.528 441.412 303.528H467.412M467.412 303.528V308.028C467.412 308.58 467.859 309.028 468.412 309.028H484.912M467.412 303.528V280.528M484.912 309.028V335.028M484.912 309.028V280.528M484.912 204.028H448.912M484.912 204.028V209.528M484.912 204.028V198.028M448.912 204.028H428.912M448.912 204.028V216.528M448.912 269.528V279.528C448.912 280.08 449.359 280.528 449.912 280.528H467.412M484.912 280.528H467.412M484.912 280.528V251.028M448.912 232.528V242.028M448.912 242.028V254.528M448.912 242.028H484.912M484.912 242.028V251.028M484.912 242.028V209.528M484.912 251.028H495.412M528.412 331.028V310.028C528.412 309.476 528.859 309.028 529.412 309.028H532.412C532.964 309.028 533.412 308.58 533.412 308.028V251.028M533.412 251.028V209.528M533.412 251.028H521.162M533.412 209.528H552.912M533.412 209.528H521.162M484.912 209.528H494.412M508.912 251.028H521.162M521.162 251.028V209.528M521.162 209.528H508.912M521.162 209.528V204.028M484.912 185.028V177.028C484.912 176.476 485.359 176.028 485.912 176.028H521.162M521.162 176.028V189.528M521.162 176.028H574.412M574.412 176.028H589.412M574.412 176.028V325.028M574.412 251.028H620.412M620.412 251.028V176.528M620.412 251.028V287.028M620.412 176.528H602.412M620.412 176.528H674.412M1040.91 176.528H1138.43C1138.74 176.528 1139.02 176.664 1139.21 176.899L1147.41 187.028M952.412 176.528H1022.91M1022.91 176.528H1026.91M1022.91 176.528V248.528M900.912 176.528H934.912M934.912 176.528H939.912M934.912 176.528V204.028M934.912 267.528V204.028M934.912 204.028H849.912C849.359 204.028 848.912 203.58 848.912 203.028V176.528M775.912 176.528H848.912M848.912 176.528H887.912M687.412 176.528H757.412M757.412 176.528H762.412M757.412 176.528V299.528M217.412 352.528V176.528M241.412 176.528V162.028M241.412 151.028V139.528M217.912 139.528V2.02783M99.9116 139.528V129.528C99.9116 128.976 100.359 128.528 100.912 128.528H125.412C125.964 128.528 126.412 128.976 126.412 129.528V131.028M126.412 131.028H155.912C156.464 131.028 156.912 131.476 156.912 132.028V138.528C156.912 139.08 156.464 139.528 155.912 139.528H127.412C126.859 139.528 126.412 139.08 126.412 138.528V131.028ZM126.412 100.528V2.02783M601.912 139.028H619.912M619.912 139.028H674.412M619.912 139.028V146.028M619.912 139.028V85.0278M687.412 139.028H739.912M739.912 139.028V134.528C739.912 133.976 740.359 133.528 740.912 133.528H756.912M739.912 139.028H743.912M1013.41 139.028H1019.91C1020.46 139.028 1020.91 138.58 1020.91 138.028V125.528C1020.91 124.976 1020.46 124.528 1019.91 124.528H1014.41C1013.86 124.528 1013.41 124.08 1013.41 123.528V109.528M1013.41 109.528H1019.41M1013.41 109.528H994.912M1013.41 109.528V96.5278M989.912 139.028H994.912M994.912 139.028H999.912M994.912 139.028V109.528M994.912 109.528H979.162M994.912 109.528V96.5278M960.912 139.028H964.412M964.412 139.028H973.912M964.412 139.028V109.528M964.412 109.528V97.5278C964.412 96.9755 964.859 96.5278 965.412 96.5278H979.162M964.412 109.528H963.412M964.412 109.528H979.162M979.162 109.528V96.5278M979.162 96.5278H985.412M994.912 96.5278H1013.41M994.912 96.5278H985.412M1013.41 96.5278H1023.16M985.412 96.5278V59.0278M932.412 139.028H947.412M932.412 139.028V125.528C932.412 124.976 932.859 124.528 933.412 124.528H935.412C935.964 124.528 936.412 124.08 936.412 123.528V96.5278M932.412 139.028H845.412M936.412 96.5278V1.52783M936.412 96.5278H845.912C845.635 96.5278 845.412 96.7517 845.412 97.0278M840.912 139.028H845.412M845.412 139.028V97.0278M845.412 97.0278H846.412M845.412 97.0278H810.412C809.859 97.0278 809.412 97.4755 809.412 98.0278V139.028M775.412 139.028H809.412M809.412 139.028H828.412M754.412 139.028H758.162M758.162 139.028H761.912M758.162 139.028V2.02783M619.912 177.528V170.028M619.912 85.0278H570.412M619.912 85.0278V60.5278C619.912 59.9755 619.464 59.5278 618.912 59.5278H570.412M570.412 85.0278V139.028M570.412 85.0278V2.02783M567.912 139.028H570.412M570.412 139.028H587.912M553.912 139.028H480.412C479.859 139.028 479.412 138.58 479.412 138.028V98.0278M479.412 98.0278H424.412C423.859 98.0278 423.412 97.5801 423.412 97.0278V95.0278M479.412 98.0278H486.912C487.464 98.0278 487.912 97.5801 487.912 97.0278V51.0278M487.912 51.0278H416.912M487.912 51.0278V47.0278M402.412 51.0278H398.412M323.412 139.528V129.528C323.412 128.976 323.859 128.528 324.412 128.528H341.912M341.912 128.528H357.912C358.464 128.528 358.912 128.976 358.912 129.528V139.528M341.912 128.528V139.528M302.412 139.528V75.0278C302.412 74.4755 302.859 74.0278 303.412 74.0278H352.912M1118.41 176.528V169.528M1070.41 132.528H1067.41C1066.86 132.528 1066.41 132.08 1066.41 131.528V119.528M1118.41 146.528V132.528M1118.41 132.528V120.528C1118.41 119.976 1117.96 119.528 1117.41 119.528H1091.16M1118.41 132.528H1110.91M1084.91 132.528H1091.16M1091.16 132.528H1097.41M1091.16 132.528V119.528M1091.16 119.528H1066.41M1066.41 119.528V96.5278M1066.41 96.5278V2.52783M1066.41 96.5278H1055.41M1023.16 96.5278H1032.91M1023.16 96.5278V87.5278M1023.16 67.0278V59.0278M1023.16 59.0278V43.0278M1023.16 59.0278H985.412M985.412 59.0278V1.52783M1023.16 23.5278V1.52783M352.912 74.0278V1.52783M352.912 74.0278H397.912M352.912 1.52783H487.912M423.412 85.5278V51.0278M302.412 75.0278V71.5278M302.412 56.5278V2.02783M439.412 51.0278V1.52783M395.412 325.528H380.912M487.912 35.0278V1.52783" stroke="#BFC4C8" stroke-width="2" stroke-linecap="round" stroke-linejoin="round"/>
<path d="M1041.59 81.9703L1041.59 81.5383C1041.58 81.2343 1041.5 81.0034 1041.34 80.8455C1041.17 80.6876 1040.91 80.5751 1040.53 80.5081C1040.15 80.433 1039.61 80.392 1038.92 80.3851L1034.57 80.334L1034.5 74.4065L1042.66 74.2997L1042.67 75.6676L1035.7 75.7588L1035.75 79.0586L1039.12 79.0984C1040.07 79.11 1040.81 79.1843 1041.33 79.3215C1041.84 79.4508 1042.22 79.6779 1042.45 80.0028C1042.68 80.3199 1042.8 80.7824 1042.81 81.3903L1042.82 81.9543L1041.59 81.9703ZM1039.74 71.5921C1040.4 71.5835 1040.85 71.5815 1041.11 71.5862L1036.37 68.4439L1036.36 67.016L1042.56 66.9348L1042.58 68.1707L1039.24 68.2143C1038.61 68.2226 1038.16 68.2245 1037.9 68.2199L1042.62 71.3504L1042.64 72.7903L1036.43 72.8715L1036.42 71.6356L1039.74 71.5921ZM1042.53 62.1305L1042.53 62.2625C1042.55 63.4704 1042.31 64.3575 1041.82 64.924C1041.33 65.4905 1040.53 65.781 1039.42 65.7955C1038.32 65.8099 1037.52 65.5404 1037.01 64.987C1036.5 64.4336 1036.24 63.553 1036.22 62.3451L1036.22 62.2131L1033.98 62.2425L1033.96 60.9466L1036.2 60.9172L1036.2 60.7852C1036.19 59.5693 1036.43 58.6781 1036.92 58.1116C1037.41 57.5451 1038.21 57.2547 1039.31 57.2402C1040.42 57.2258 1041.22 57.4952 1041.73 58.0486C1042.24 58.602 1042.5 59.4867 1042.51 60.7026L1042.52 60.8346L1044.88 60.8037L1044.9 62.0995L1042.53 62.1305ZM1039.41 64.4876C1040.21 64.477 1040.77 64.2937 1041.08 63.9377C1041.39 63.5816 1041.54 63.0396 1041.53 62.3117L1041.52 62.1197L1037.23 62.1759L1037.23 62.3679C1037.24 63.0958 1037.4 63.6338 1037.72 63.9816C1038.04 64.3295 1038.6 64.4982 1039.41 64.4876ZM1041.5 60.6678C1041.5 59.9399 1041.33 59.402 1041.02 59.0541C1040.7 58.7062 1040.14 58.5375 1039.33 58.5481C1038.52 58.5587 1037.96 58.742 1037.66 59.0981C1037.35 59.4541 1037.2 59.9961 1037.21 60.724L1037.21 60.916L1041.51 60.8598L1041.5 60.6678ZM1037.27 54.4183L1037.3 56.6621L1036.22 56.6762L1036.14 50.8807L1037.22 50.8666L1037.25 53.1104L1042.38 53.0433L1042.39 54.3512L1037.27 54.4183ZM1042.42 47.0122C1042.43 48.0281 1042.18 48.8154 1041.67 49.3742C1041.16 49.933 1040.42 50.2186 1039.47 50.231L1039 50.2372C1038.05 50.2496 1037.31 49.9833 1036.79 49.4381C1036.26 48.893 1035.99 48.1125 1035.97 47.0965C1035.96 46.0726 1036.21 45.2853 1036.72 44.7345C1037.23 44.1759 1037.96 43.8903 1038.92 43.8777L1039.39 43.8716C1040.35 43.859 1041.09 44.1253 1041.62 44.6704C1042.14 45.2077 1042.4 45.9883 1042.42 47.0122ZM1039.35 48.9126C1040.07 48.903 1040.6 48.7401 1040.92 48.4239C1041.25 48.1076 1041.41 47.6415 1041.4 47.0255C1041.39 46.4096 1041.22 45.9478 1040.89 45.6401C1040.56 45.3244 1040.03 45.1713 1039.3 45.1809L1039.05 45.1842C1038.32 45.1937 1037.79 45.3606 1037.47 45.6849C1037.14 46.0011 1036.99 46.4672 1036.99 47.0832C1037 47.6991 1037.17 48.1609 1037.5 48.4686C1037.84 48.7763 1038.37 48.9254 1039.09 48.9159L1039.35 48.9126ZM1036.04 42.7217L1035.99 39.218C1035.98 38.5621 1036.11 38.0604 1036.37 37.713C1036.63 37.3575 1037.02 37.1764 1037.55 37.1695C1038.26 37.1601 1038.74 37.4779 1038.99 38.1227C1039.07 37.7536 1039.24 37.4673 1039.49 37.264C1039.74 37.0528 1040.05 36.9447 1040.41 36.9399C1040.99 36.9324 1041.43 37.1067 1041.73 37.4628C1042.03 37.8189 1042.18 38.3529 1042.19 39.0648L1042.24 42.6405L1036.04 42.7217ZM1041.26 39.2091C1041.25 38.5451 1040.95 38.217 1040.37 38.2246C1040.08 38.2285 1039.86 38.3114 1039.71 38.4732C1039.57 38.6271 1039.5 38.884 1039.51 39.244L1039.54 41.4038L1041.29 41.3809L1041.26 39.2091ZM1038.6 39.3519C1038.59 39.0159 1038.52 38.7729 1038.37 38.6228C1038.23 38.4727 1038.02 38.3994 1037.75 38.403C1037.19 38.4102 1036.92 38.7378 1036.93 39.3858L1036.96 41.4376L1038.62 41.4157L1038.6 39.3519ZM1042.23 32.904C1042.25 33.9199 1042 34.7073 1041.48 35.266C1040.97 35.8248 1040.24 36.1104 1039.29 36.1229L1038.82 36.129C1037.87 36.1414 1037.13 35.8751 1036.6 35.33C1036.07 34.7848 1035.8 34.0043 1035.79 32.9884C1035.78 31.9645 1036.03 31.1771 1036.54 30.6264C1037.04 30.0677 1037.78 29.7821 1038.74 29.7695L1039.2 29.7634C1040.16 29.7508 1040.91 30.0171 1041.43 30.5623C1041.95 31.0995 1042.22 31.8801 1042.23 32.904ZM1039.16 34.8044C1039.89 34.7949 1040.42 34.632 1040.74 34.3157C1041.06 33.9994 1041.22 33.5333 1041.21 32.9174C1041.21 32.3014 1041.04 31.8396 1040.7 31.5319C1040.37 31.2163 1039.84 31.0632 1039.11 31.0727L1038.86 31.076C1038.13 31.0855 1037.61 31.2524 1037.28 31.5767C1036.96 31.893 1036.8 32.3591 1036.81 32.975C1036.82 33.591 1036.99 34.0528 1037.32 34.3605C1037.65 34.6681 1038.18 34.8172 1038.91 34.8077L1039.16 34.8044ZM1039.16 27.3341C1039.82 27.3256 1040.27 27.3236 1040.53 27.3282L1035.79 24.1859L1035.78 22.7581L1041.98 22.6768L1042 23.9127L1038.66 23.9564C1038.03 23.9647 1037.58 23.9665 1037.32 23.962L1042.04 27.0925L1042.06 28.5323L1035.85 28.6136L1035.84 27.3777L1039.16 27.3341ZM1033.89 26.527L1033.95 26.5262C1034.19 26.5231 1034.37 26.4608 1034.48 26.3393C1034.58 26.21 1034.63 26.0013 1034.63 25.7134C1034.62 25.4174 1034.57 25.2101 1034.46 25.0914C1034.35 24.9649 1034.17 24.9032 1033.93 24.9064L1033.87 24.9072L1033.86 23.8273C1034.39 23.8203 1034.77 23.9593 1035.02 24.2441C1035.25 24.5211 1035.37 25.0075 1035.38 25.7035C1035.39 26.3994 1035.28 26.8889 1035.04 27.172C1034.81 27.4552 1034.43 27.6001 1033.91 27.6069L1033.89 26.527ZM1051.99 66.4392L1054.57 67.9654L1054.59 69.4053L1051.36 67.3474L1048.39 69.3545L1048.37 67.8547L1050.72 66.3837L1048.33 64.9509L1048.31 63.511L1051.34 65.4876L1054.51 63.3578L1054.53 64.8577L1051.99 66.4392ZM1054.59 59.8559C1054.6 60.8719 1054.35 61.6592 1053.84 62.218C1053.33 62.7767 1052.59 63.0623 1051.64 63.0748L1051.17 63.0809C1050.22 63.0934 1049.48 62.827 1048.95 62.2819C1048.43 61.7367 1048.16 60.9562 1048.14 59.9403C1048.13 58.9164 1048.38 58.1291 1048.89 57.5783C1049.4 57.0196 1050.13 56.734 1051.09 56.7215L1051.56 56.7153C1052.52 56.7028 1053.26 56.9691 1053.79 57.5142C1054.31 58.0515 1054.57 58.832 1054.59 59.8559ZM1051.52 61.7563C1052.24 61.7468 1052.77 61.5839 1053.09 61.2676C1053.42 60.9514 1053.58 60.4852 1053.57 59.8693C1053.56 59.2534 1053.39 58.7915 1053.06 58.4839C1052.73 58.1682 1052.2 58.0151 1051.47 58.0246L1051.22 58.0279C1050.49 58.0375 1049.96 58.2044 1049.64 58.5286C1049.31 58.8449 1049.16 59.311 1049.16 59.9269C1049.17 60.5429 1049.34 61.0047 1049.67 61.3124C1050.01 61.6201 1050.54 61.7691 1051.26 61.7596L1051.52 61.7563ZM1053.38 56.2271L1053.37 55.9271C1053.37 55.5831 1053.24 55.3368 1052.98 55.1882C1052.71 55.0396 1052.26 54.9616 1051.62 54.9539L1048.2 54.9147L1048.13 49.8032L1054.33 49.7219L1054.35 51.0178L1049.23 51.0849L1049.26 53.7727L1051.75 53.8002C1052.43 53.8153 1052.97 53.8842 1053.36 54.0071C1053.74 54.1301 1054.03 54.3344 1054.21 54.62C1054.38 54.8978 1054.47 55.2807 1054.47 55.7686L1054.48 56.2126L1053.38 56.2271ZM1053.28 48.88L1053.28 48.5801C1053.27 48.2361 1053.14 47.9898 1052.88 47.8411C1052.62 47.6926 1052.16 47.6145 1051.52 47.6069L1048.1 47.5677L1048.04 42.4561L1054.24 42.3749L1054.26 43.6708L1049.13 43.7379L1049.17 46.4257L1051.65 46.4531C1052.33 46.4682 1052.87 46.5372 1053.26 46.6601C1053.65 46.783 1053.93 46.9873 1054.11 47.273C1054.28 47.5508 1054.37 47.9337 1054.38 48.4216L1054.38 48.8656L1053.28 48.88ZM1053.1 38.8027C1052.07 37.4082 1051.25 36.3707 1050.66 35.6904C1050.06 35.0022 1049.58 34.5444 1049.24 34.3169C1048.88 34.0896 1048.54 33.9781 1048.2 33.9825C1047.76 33.9882 1047.45 34.1363 1047.26 34.4268C1047.06 34.7094 1046.97 35.0907 1046.97 35.5707C1046.98 36.1146 1047.11 36.553 1047.35 36.8858C1047.59 37.2187 1047.99 37.5135 1048.55 37.7702L1048.1 38.9162C1047.35 38.614 1046.79 38.1853 1046.42 37.63C1046.05 37.0749 1045.86 36.3734 1045.84 35.5254C1045.83 34.6455 1046.02 33.947 1046.4 33.4299C1046.78 32.9049 1047.35 32.6374 1048.12 32.6274C1048.6 32.6211 1049.06 32.7391 1049.5 32.9814C1049.93 33.2238 1050.42 33.6533 1050.98 34.2702C1051.52 34.8871 1052.2 35.7743 1053 36.9318L1052.95 32.5282L1054.11 32.513L1054.19 38.7884L1053.1 38.8027Z" fill="#172736"/>
<path d="M418.591 280.971L418.586 280.539C418.582 280.235 418.499 280.004 418.337 279.846C418.174 279.688 417.905 279.575 417.528 279.508C417.151 279.433 416.614 279.392 415.918 279.385L411.573 279.334L411.496 273.407L419.655 273.3L419.673 274.668L412.701 274.759L412.745 278.059L416.117 278.099C417.07 278.11 417.807 278.185 418.329 278.322C418.842 278.451 419.217 278.678 419.454 279.003C419.682 279.32 419.8 279.783 419.808 280.391L419.815 280.955L418.591 280.971ZM416.739 270.592C417.395 270.584 417.851 270.582 418.107 270.586L413.374 267.444L413.355 266.016L419.559 265.935L419.575 267.171L416.239 267.215C415.607 267.223 415.159 267.225 414.895 267.22L419.616 270.351L419.635 271.791L413.432 271.872L413.416 270.636L416.739 270.592ZM419.532 261.131L419.533 261.263C419.549 262.471 419.313 263.358 418.824 263.924C418.328 264.491 417.527 264.781 416.423 264.796C415.319 264.81 414.516 264.541 414.013 263.987C413.501 263.434 413.238 262.553 413.222 261.345L413.22 261.213L410.976 261.243L410.959 259.947L413.203 259.917L413.201 259.785C413.186 258.57 413.426 257.678 413.923 257.112C414.411 256.545 415.207 256.255 416.311 256.24C417.415 256.226 418.223 256.495 418.734 257.049C419.237 257.602 419.497 258.487 419.513 259.703L419.515 259.835L421.878 259.804L421.895 261.1L419.532 261.131ZM416.406 263.488C417.214 263.477 417.772 263.294 418.079 262.938C418.387 262.582 418.535 262.04 418.526 261.312L418.523 261.12L414.228 261.176L414.23 261.368C414.24 262.096 414.403 262.634 414.719 262.982C415.036 263.33 415.598 263.498 416.406 263.488ZM418.504 259.668C418.495 258.94 418.332 258.402 418.015 258.054C417.699 257.706 417.136 257.538 416.328 257.548C415.521 257.559 414.963 257.742 414.656 258.098C414.348 258.454 414.199 258.996 414.209 259.724L414.211 259.916L418.507 259.86L418.504 259.668ZM414.27 253.419L414.3 255.662L413.22 255.676L413.144 249.881L414.224 249.867L414.253 252.111L419.377 252.044L419.394 253.351L414.27 253.419ZM419.418 246.012C419.431 247.028 419.181 247.816 418.669 248.374C418.156 248.933 417.424 249.219 416.472 249.231L416.004 249.237C415.052 249.25 414.312 248.984 413.785 248.438C413.258 247.893 412.988 247.113 412.974 246.097C412.961 245.073 413.211 244.286 413.723 243.735C414.228 243.176 414.96 242.891 415.92 242.878L416.388 242.872C417.348 242.859 418.092 243.126 418.619 243.671C419.138 244.208 419.404 244.989 419.418 246.012ZM416.346 247.913C417.074 247.903 417.6 247.74 417.924 247.424C418.248 247.108 418.406 246.642 418.398 246.026C418.39 245.41 418.22 244.948 417.888 244.64C417.555 244.325 417.025 244.172 416.297 244.181L416.046 244.184C415.318 244.194 414.792 244.361 414.468 244.685C414.144 245.001 413.986 245.467 413.994 246.083C414.002 246.699 414.172 247.161 414.504 247.469C414.836 247.777 415.366 247.926 416.094 247.916L416.346 247.913ZM413.037 241.722L412.991 238.218C412.983 237.562 413.108 237.061 413.367 236.713C413.627 236.358 414.021 236.177 414.548 236.17C415.26 236.16 415.741 236.478 415.989 237.123C416.072 236.754 416.241 236.468 416.494 236.264C416.739 236.053 417.046 235.945 417.414 235.94C417.99 235.933 418.428 236.107 418.729 236.463C419.029 236.819 419.184 237.353 419.194 238.065L419.24 241.641L413.037 241.722ZM418.259 238.209C418.251 237.545 417.954 237.217 417.371 237.225C417.075 237.229 416.856 237.312 416.714 237.473C416.572 237.627 416.503 237.884 416.508 238.244L416.536 240.404L418.288 240.381L418.259 238.209ZM415.597 238.352C415.593 238.016 415.518 237.773 415.372 237.623C415.226 237.473 415.017 237.4 414.745 237.403C414.193 237.41 413.921 237.738 413.929 238.386L413.956 240.438L415.624 240.416L415.597 238.352ZM419.233 231.904C419.246 232.92 418.997 233.708 418.484 234.266C417.971 234.825 417.239 235.111 416.287 235.123L415.819 235.129C414.867 235.142 414.127 234.875 413.6 234.33C413.073 233.785 412.803 233.005 412.79 231.989C412.776 230.965 413.026 230.177 413.539 229.627C414.043 229.068 414.776 228.782 415.736 228.77L416.204 228.764C417.164 228.751 417.907 229.017 418.434 229.563C418.953 230.1 419.22 230.88 419.233 231.904ZM416.162 233.805C416.89 233.795 417.416 233.632 417.739 233.316C418.063 233 418.221 232.534 418.213 231.918C418.205 231.302 418.035 230.84 417.703 230.532C417.371 230.216 416.841 230.063 416.113 230.073L415.861 230.076C415.133 230.086 414.607 230.253 414.283 230.577C413.959 230.893 413.801 231.359 413.81 231.975C413.818 232.591 413.988 233.053 414.32 233.361C414.652 233.668 415.182 233.817 415.91 233.808L416.162 233.805ZM416.16 226.334C416.816 226.326 417.272 226.324 417.528 226.328L412.794 223.186L412.776 221.758L418.979 221.677L418.995 222.913L415.66 222.957C415.028 222.965 414.58 222.967 414.316 222.962L419.037 226.093L419.056 227.533L412.852 227.614L412.836 226.378L416.16 226.334ZM410.893 225.527L410.953 225.526C411.193 225.523 411.368 225.461 411.478 225.34C411.581 225.21 411.63 225.002 411.626 224.714C411.622 224.418 411.568 224.21 411.462 224.092C411.348 223.965 411.172 223.903 410.932 223.907L410.872 223.907L410.858 222.827C411.385 222.821 411.771 222.96 412.015 223.244C412.251 223.521 412.373 224.008 412.382 224.704C412.391 225.4 412.278 225.889 412.041 226.172C411.805 226.455 411.427 226.6 410.907 226.607L410.893 225.527ZM428.966 263.975L431.554 265.501L431.573 266.941L428.342 264.883L425.368 266.89L425.348 265.39L427.705 263.919L425.31 262.486L425.291 261.047L428.317 263.023L431.494 260.893L431.513 262.393L428.966 263.975ZM431.568 257.391C431.581 258.407 431.331 259.195 430.819 259.753C430.306 260.312 429.574 260.598 428.622 260.61L428.154 260.616C427.202 260.629 426.462 260.363 425.935 259.817C425.408 259.272 425.138 258.492 425.124 257.476C425.111 256.452 425.361 255.665 425.873 255.114C426.378 254.555 427.11 254.27 428.07 254.257L428.538 254.251C429.498 254.238 430.242 254.505 430.769 255.05C431.288 255.587 431.554 256.368 431.568 257.391ZM428.496 259.292C429.224 259.282 429.75 259.119 430.074 258.803C430.398 258.487 430.556 258.021 430.548 257.405C430.54 256.789 430.37 256.327 430.038 256.019C429.705 255.704 429.175 255.551 428.447 255.56L428.196 255.563C427.468 255.573 426.942 255.74 426.618 256.064C426.294 256.38 426.136 256.847 426.144 257.462C426.152 258.078 426.322 258.54 426.654 258.848C426.986 259.156 427.516 259.305 428.244 259.295L428.496 259.292ZM430.356 253.763L430.352 253.463C430.348 253.119 430.216 252.872 429.958 252.724C429.693 252.575 429.239 252.497 428.599 252.489L425.178 252.45L425.112 247.339L431.315 247.257L431.332 248.553L426.208 248.62L426.244 251.308L428.728 251.336C429.408 251.351 429.945 251.42 430.339 251.543C430.725 251.666 431.007 251.87 431.187 252.156C431.359 252.433 431.448 252.816 431.454 253.304L431.46 253.748L430.356 253.763ZM430.26 246.416L430.256 246.116C430.252 245.772 430.12 245.525 429.862 245.377C429.596 245.228 429.143 245.15 428.503 245.142L425.082 245.103L425.015 239.992L431.219 239.91L431.236 241.206L426.112 241.273L426.147 243.961L428.632 243.989C429.312 244.004 429.849 244.073 430.243 244.196C430.629 244.319 430.911 244.523 431.091 244.809C431.263 245.086 431.352 245.469 431.358 245.957L431.364 246.401L430.26 246.416ZM424.73 234.668C425.111 235.063 425.326 235.62 425.376 236.34L424.176 236.356C424.139 235.396 423.743 234.737 422.986 234.379L422.972 233.347L431.132 233.24L431.149 234.584L424.73 234.668Z" fill="#172736"/>
<path d="M844.912 139.605L931.912 139.028V124.028H935.912V112.028H907.412L907.278 97.0278H845.046L844.912 139.605Z" fill="#FFEDD6" stroke="#FFCF94" stroke-width="2.5" stroke-linecap="round" stroke-linejoin="round"/>
<path d="M873.336 125.038V121.213H874.225L875.412 124.346L876.593 121.213H877.476V125.038H876.852L876.869 121.944L875.704 125.038H875.097L873.932 121.944L873.949 125.038H873.336ZM878.765 123.688C878.765 123.995 878.764 124.209 878.76 124.329L880.262 122.129H880.931V125.038H880.352V123.474C880.352 123.178 880.354 122.968 880.357 122.844L878.861 125.038H878.186V122.129H878.765V123.688ZM881.619 122.129H882.227V123.299H883.712V122.129H884.319V125.038H883.712V123.8H882.227V125.038H881.619V122.129ZM885.588 123.688C885.588 123.995 885.586 124.209 885.582 124.329L887.084 122.129H887.754V125.038H887.174V123.474C887.174 123.178 887.176 122.968 887.18 122.844L885.684 125.038H885.009V122.129H885.588V123.688ZM888.29 123.204H889.798V123.699H888.29V123.204ZM890.332 122.129H890.939V123.401H891.108L892.312 122.129H893.048L891.777 123.446L893.116 125.038H892.351L891.282 123.766H890.939V125.038H890.332V122.129ZM893.666 125.639H893.879C894.007 125.639 894.108 125.621 894.183 125.583C894.262 125.549 894.329 125.488 894.386 125.398C894.442 125.311 894.502 125.18 894.566 125.004H894.273L893.216 122.129H893.885L894.718 124.588H894.723L895.528 122.129H896.174L895.111 125.105C895.018 125.375 894.922 125.585 894.824 125.735C894.727 125.885 894.611 125.994 894.476 126.061C894.341 126.129 894.172 126.163 893.969 126.163H893.666V125.639ZM897.692 123.834L896.961 125.038H896.286L897.27 123.536L896.348 122.129H897.051L897.726 123.243L898.412 122.129H899.087L898.142 123.536L899.121 125.038H898.418L897.692 123.834ZM899.566 122.129H900.173V123.299H901.658V122.129H902.266V125.038H901.658V123.8H900.173V125.038H899.566V122.129ZM903.63 123.952C903.371 123.914 903.174 123.821 903.039 123.671C902.904 123.521 902.837 123.314 902.837 123.052C902.837 122.748 902.929 122.519 903.112 122.366C903.3 122.208 903.566 122.129 903.911 122.129H905.503V125.038H904.912V123.969H904.277L903.489 125.038H902.764L903.63 123.952ZM903.444 123.052C903.444 123.356 903.613 123.508 903.95 123.508H904.912V122.591H903.95C903.613 122.591 903.444 122.744 903.444 123.052Z" fill="#172736"/>
<rect x="883.353" y="112.028" width="8" height="6" rx="1.5" fill="#FFCF94"/>
<rect x="883.353" y="112.028" width="8" height="6" rx="1.5" stroke="#FFA436" stroke-opacity="0.2" stroke-width="0.5"/>
<path d="M886.205 116.076C885.805 116.076 885.515 115.98 885.337 115.788C885.161 115.593 885.073 115.293 885.073 114.888V114.58C885.073 114.134 885.17 113.804 885.365 113.588C885.559 113.369 885.854 113.26 886.249 113.26C886.734 113.26 887.074 113.413 887.269 113.72L886.933 113.948C886.773 113.734 886.542 113.628 886.241 113.628C885.993 113.628 885.809 113.697 885.689 113.836C885.569 113.974 885.509 114.197 885.509 114.504V114.604C885.589 114.5 885.699 114.422 885.841 114.372C885.982 114.318 886.146 114.292 886.333 114.292C886.642 114.292 886.881 114.366 887.049 114.516C887.217 114.662 887.301 114.88 887.301 115.168C887.301 115.456 887.207 115.68 887.021 115.84C886.837 115.997 886.565 116.076 886.205 116.076ZM885.545 115.156C885.545 115.524 885.766 115.708 886.209 115.708C886.425 115.708 886.586 115.662 886.693 115.572C886.802 115.478 886.857 115.344 886.857 115.168C886.857 114.81 886.645 114.632 886.221 114.632C885.77 114.632 885.545 114.806 885.545 115.156ZM888.735 116.068C888.405 116.068 888.149 115.981 887.967 115.808C887.786 115.634 887.695 115.389 887.695 115.072V114.916C887.695 114.598 887.786 114.353 887.967 114.18C888.149 114.006 888.406 113.92 888.739 113.92C888.987 113.92 889.191 113.973 889.351 114.08C889.514 114.186 889.626 114.34 889.687 114.54L889.291 114.66C889.211 114.393 889.027 114.26 888.739 114.26C888.542 114.26 888.391 114.316 888.287 114.428C888.183 114.537 888.131 114.712 888.131 114.952V115.036C888.131 115.494 888.334 115.724 888.739 115.724C889.03 115.724 889.215 115.589 889.295 115.32L889.683 115.436C889.622 115.638 889.511 115.794 889.351 115.904C889.191 116.013 888.986 116.068 888.735 116.068Z" fill="#172736"/>
<rect x="398.912" y="1.25" width="40" height="50" fill="#33D18F" fill-opacity="0.2" stroke="#33D18F" stroke-opacity="0.2" stroke-width="2.5" stroke-linejoin="round"/>
<path d="M405.845 28.53H408.085V31.25H407.629V28.926H406.301V31.25H405.845V28.53ZM409.551 31.29C409.218 31.29 408.959 31.2033 408.775 31.03C408.594 30.8567 408.503 30.6113 408.503 30.294V30.138C408.503 29.8207 408.595 29.5753 408.779 29.402C408.963 29.2287 409.219 29.142 409.547 29.142C409.872 29.142 410.118 29.2273 410.283 29.398C410.451 29.566 410.535 29.8073 410.535 30.122C410.535 30.21 410.532 30.2793 410.527 30.33L408.927 30.302C408.93 30.734 409.142 30.95 409.563 30.95C409.808 30.95 410.015 30.854 410.183 30.662L410.467 30.906C410.379 31.0233 410.256 31.1167 410.099 31.186C409.942 31.2553 409.759 31.29 409.551 31.29ZM410.115 30.026C410.112 29.8447 410.064 29.7073 409.971 29.614C409.878 29.518 409.738 29.47 409.551 29.47C409.367 29.47 409.219 29.5193 409.107 29.618C408.998 29.7167 408.938 29.866 408.927 30.066L410.115 30.026ZM410.908 29.182H411.34V29.506C411.404 29.3967 411.497 29.31 411.62 29.246C411.745 29.1793 411.894 29.146 412.068 29.146C412.369 29.146 412.598 29.2353 412.756 29.414C412.916 29.59 412.996 29.8313 412.996 30.138V30.294C412.996 30.6007 412.916 30.8433 412.756 31.022C412.598 31.198 412.369 31.286 412.068 31.286C411.894 31.286 411.745 31.254 411.62 31.19C411.497 31.126 411.404 31.0407 411.34 30.934V32.05H410.908V29.182ZM411.328 30.262C411.328 30.4967 411.381 30.67 411.488 30.782C411.597 30.8913 411.75 30.946 411.948 30.946C412.353 30.946 412.556 30.718 412.556 30.262V30.166C412.556 29.7127 412.353 29.486 411.948 29.486C411.756 29.486 411.604 29.542 411.492 29.654C411.382 29.7633 411.328 29.934 411.328 30.166V30.262ZM414.348 31.29C414.015 31.29 413.756 31.2033 413.572 31.03C413.391 30.8567 413.3 30.6113 413.3 30.294V30.138C413.3 29.8207 413.392 29.5753 413.576 29.402C413.76 29.2287 414.016 29.142 414.344 29.142C414.669 29.142 414.915 29.2273 415.08 29.398C415.248 29.566 415.332 29.8073 415.332 30.122C415.332 30.21 415.329 30.2793 415.324 30.33L413.724 30.302C413.727 30.734 413.939 30.95 414.36 30.95C414.605 30.95 414.812 30.854 414.98 30.662L415.264 30.906C415.176 31.0233 415.053 31.1167 414.896 31.186C414.739 31.2553 414.556 31.29 414.348 31.29ZM414.912 30.026C414.909 29.8447 414.861 29.7073 414.768 29.614C414.675 29.518 414.535 29.47 414.348 29.47C414.164 29.47 414.016 29.5193 413.904 29.618C413.795 29.7167 413.735 29.866 413.724 30.066L414.912 30.026ZM415.704 29.182H417.148V29.542H416.136V31.25H415.704V29.182ZM418.403 31.29C418.064 31.29 417.803 31.2033 417.619 31.03C417.435 30.8567 417.343 30.6113 417.343 30.294V30.138C417.343 29.8207 417.435 29.5753 417.619 29.402C417.803 29.2287 418.064 29.142 418.403 29.142C418.744 29.142 419.005 29.2287 419.187 29.402C419.371 29.5727 419.463 29.818 419.463 30.138V30.294C419.463 30.614 419.371 30.8607 419.187 31.034C419.005 31.2047 418.744 31.29 418.403 31.29ZM417.783 30.258C417.783 30.5007 417.835 30.6767 417.939 30.786C418.043 30.8953 418.197 30.95 418.403 30.95C418.608 30.95 418.763 30.8953 418.867 30.786C418.973 30.6767 419.027 30.5007 419.027 30.258V30.174C419.027 29.9313 418.973 29.7553 418.867 29.646C418.763 29.5367 418.608 29.482 418.403 29.482C418.197 29.482 418.043 29.5367 417.939 29.646C417.835 29.7553 417.783 29.9313 417.783 30.174V30.258ZM419.861 29.182H421.029C421.247 29.182 421.414 29.226 421.529 29.314C421.646 29.402 421.705 29.534 421.705 29.71C421.705 29.9473 421.597 30.106 421.381 30.186C421.503 30.2153 421.598 30.2727 421.665 30.358C421.734 30.4407 421.769 30.5433 421.769 30.666C421.769 30.858 421.709 31.0033 421.589 31.102C421.469 31.2007 421.29 31.25 421.053 31.25H419.861V29.182ZM421.009 30.938C421.23 30.938 421.341 30.8407 421.341 30.646C421.341 30.5473 421.314 30.474 421.261 30.426C421.21 30.378 421.125 30.354 421.005 30.354H420.285V30.938H421.009ZM420.973 30.05C421.085 30.05 421.166 30.026 421.217 29.978C421.267 29.93 421.293 29.8607 421.293 29.77C421.293 29.586 421.185 29.494 420.969 29.494H420.285V30.05H420.973ZM423.106 31.29C422.767 31.29 422.506 31.2033 422.322 31.03C422.138 30.8567 422.046 30.6113 422.046 30.294V30.138C422.046 29.8207 422.138 29.5753 422.322 29.402C422.506 29.2287 422.767 29.142 423.106 29.142C423.447 29.142 423.709 29.2287 423.89 29.402C424.074 29.5727 424.166 29.818 424.166 30.138V30.294C424.166 30.614 424.074 30.8607 423.89 31.034C423.709 31.2047 423.447 31.29 423.106 31.29ZM422.486 30.258C422.486 30.5007 422.538 30.6767 422.642 30.786C422.746 30.8953 422.901 30.95 423.106 30.95C423.311 30.95 423.466 30.8953 423.57 30.786C423.677 30.6767 423.73 30.5007 423.73 30.258V30.174C423.73 29.9313 423.677 29.7553 423.57 29.646C423.466 29.5367 423.311 29.482 423.106 29.482C422.901 29.482 422.746 29.5367 422.642 29.646C422.538 29.7553 422.486 29.9313 422.486 30.174V30.258ZM424.564 29.182H424.996V29.506C425.06 29.3967 425.153 29.31 425.276 29.246C425.401 29.1793 425.55 29.146 425.724 29.146C426.025 29.146 426.254 29.2353 426.412 29.414C426.572 29.59 426.652 29.8313 426.652 30.138V30.294C426.652 30.6007 426.572 30.8433 426.412 31.022C426.254 31.198 426.025 31.286 425.724 31.286C425.55 31.286 425.401 31.254 425.276 31.19C425.153 31.126 425.06 31.0407 424.996 30.934V32.05H424.564V29.182ZM424.984 30.262C424.984 30.4967 425.037 30.67 425.144 30.782C425.253 30.8913 425.406 30.946 425.604 30.946C426.009 30.946 426.212 30.718 426.212 30.262V30.166C426.212 29.7127 426.009 29.486 425.604 29.486C425.412 29.486 425.26 29.542 425.148 29.654C425.038 29.7633 424.984 29.934 424.984 30.166V30.262ZM427.048 29.182H427.48V30.086H427.6L428.456 29.182H428.98L428.076 30.118L429.028 31.25H428.484L427.724 30.346H427.48V31.25H427.048V29.182ZM429.868 31.286C429.63 31.286 429.444 31.2353 429.308 31.134C429.172 31.03 429.104 30.8847 429.104 30.698C429.104 30.4847 429.178 30.3273 429.328 30.226C429.477 30.1247 429.708 30.074 430.02 30.074H430.6V29.934C430.6 29.7767 430.561 29.662 430.484 29.59C430.409 29.5153 430.289 29.478 430.124 29.478C429.988 29.478 429.866 29.5047 429.76 29.558C429.656 29.6087 429.572 29.6807 429.508 29.774L429.204 29.59C429.289 29.4487 429.414 29.3393 429.58 29.262C429.745 29.1847 429.929 29.146 430.132 29.146C430.414 29.146 430.632 29.2073 430.784 29.33C430.936 29.4527 431.012 29.65 431.012 29.922V31.25H430.616V30.91C430.549 31.0353 430.449 31.13 430.316 31.194C430.185 31.2553 430.036 31.286 429.868 31.286ZM429.52 30.666C429.52 30.7647 429.56 30.838 429.64 30.886C429.72 30.9313 429.826 30.954 429.96 30.954C430.146 30.954 430.3 30.914 430.42 30.834C430.54 30.7513 430.6 30.638 430.6 30.494V30.362H430.032C429.856 30.362 429.726 30.3873 429.644 30.438C429.561 30.4887 429.52 30.5647 429.52 30.666Z" fill="#172736"/>
<rect x="414.912" y="18.25" width="7" height="8" rx="1.6875" fill="#33D18F" fill-opacity="0.2"/>
<path d="M416.108 23.804C415.658 23.804 415.333 23.696 415.132 23.48C414.934 23.261 414.835 22.9235 414.835 22.4675V22.121C414.835 21.62 414.944 21.248 415.163 21.005C415.382 20.759 415.714 20.636 416.158 20.636C416.704 20.636 417.086 20.8085 417.305 21.1535L416.927 21.41C416.747 21.17 416.488 21.05 416.149 21.05C415.87 21.05 415.663 21.128 415.528 21.284C415.393 21.44 415.325 21.6905 415.325 22.0355V22.148C415.415 22.031 415.54 21.944 415.699 21.887C415.858 21.827 416.042 21.797 416.252 21.797C416.6 21.797 416.869 21.881 417.058 22.049C417.247 22.214 417.341 22.4585 417.341 22.7825C417.341 23.1065 417.236 23.3585 417.026 23.5385C416.819 23.7155 416.513 23.804 416.108 23.804ZM415.366 22.769C415.366 23.183 415.615 23.39 416.113 23.39C416.356 23.39 416.537 23.339 416.657 23.237C416.78 23.132 416.842 22.9805 416.842 22.7825C416.842 22.3805 416.603 22.1795 416.126 22.1795C415.619 22.1795 415.366 22.376 415.366 22.769ZM418.444 21.3425C418.294 21.4835 418.084 21.5615 417.814 21.5765V21.1265C418.174 21.1175 418.423 20.972 418.561 20.69H418.948V23.75H418.444V21.3425ZM420.76 23.804C420.454 23.804 420.199 23.75 419.995 23.642C419.791 23.534 419.634 23.3615 419.523 23.1245L419.914 22.8995C420.001 23.0705 420.115 23.195 420.256 23.273C420.4 23.351 420.571 23.39 420.769 23.39C421.255 23.39 421.498 23.18 421.498 22.76C421.498 22.553 421.444 22.4015 421.336 22.3055C421.228 22.2095 421.059 22.1615 420.828 22.1615C420.681 22.1615 420.547 22.1825 420.427 22.2245C420.31 22.2665 420.192 22.328 420.072 22.409L419.694 22.247L419.851 20.69H421.84V21.1265H420.243L420.148 21.995C420.373 21.848 420.645 21.7745 420.963 21.7745C421.653 21.7745 421.998 22.1015 421.998 22.7555C421.998 23.1035 421.893 23.366 421.683 23.543C421.476 23.717 421.168 23.804 420.76 23.804Z" fill="#172736"/>
<rect x="350.912" y="1.25" width="48" height="72" fill="#33D18F" fill-opacity="0.2" stroke="#33D18F" stroke-opacity="0.2" stroke-width="2.5" stroke-linejoin="round"/>
<path d="M361.345 40.53H363.585V43.25H363.129V40.926H361.801V43.25H361.345V40.53ZM365.051 43.29C364.718 43.29 364.459 43.2033 364.275 43.03C364.094 42.8567 364.003 42.6113 364.003 42.294V42.138C364.003 41.8207 364.095 41.5753 364.279 41.402C364.463 41.2287 364.719 41.142 365.047 41.142C365.372 41.142 365.618 41.2273 365.783 41.398C365.951 41.566 366.035 41.8073 366.035 42.122C366.035 42.21 366.032 42.2793 366.027 42.33L364.427 42.302C364.43 42.734 364.642 42.95 365.063 42.95C365.308 42.95 365.515 42.854 365.683 42.662L365.967 42.906C365.879 43.0233 365.756 43.1167 365.599 43.186C365.442 43.2553 365.259 43.29 365.051 43.29ZM365.615 42.026C365.612 41.8447 365.564 41.7073 365.471 41.614C365.378 41.518 365.238 41.47 365.051 41.47C364.867 41.47 364.719 41.5193 364.607 41.618C364.498 41.7167 364.438 41.866 364.427 42.066L365.615 42.026ZM366.408 41.182H366.84V41.506C366.904 41.3967 366.997 41.31 367.12 41.246C367.245 41.1793 367.394 41.146 367.568 41.146C367.869 41.146 368.098 41.2353 368.256 41.414C368.416 41.59 368.496 41.8313 368.496 42.138V42.294C368.496 42.6007 368.416 42.8433 368.256 43.022C368.098 43.198 367.869 43.286 367.568 43.286C367.394 43.286 367.245 43.254 367.12 43.19C366.997 43.126 366.904 43.0407 366.84 42.934V44.05H366.408V41.182ZM366.828 42.262C366.828 42.4967 366.881 42.67 366.988 42.782C367.097 42.8913 367.25 42.946 367.448 42.946C367.853 42.946 368.056 42.718 368.056 42.262V42.166C368.056 41.7127 367.853 41.486 367.448 41.486C367.256 41.486 367.104 41.542 366.992 41.654C366.882 41.7633 366.828 41.934 366.828 42.166V42.262ZM369.848 43.29C369.515 43.29 369.256 43.2033 369.072 43.03C368.891 42.8567 368.8 42.6113 368.8 42.294V42.138C368.8 41.8207 368.892 41.5753 369.076 41.402C369.26 41.2287 369.516 41.142 369.844 41.142C370.169 41.142 370.415 41.2273 370.58 41.398C370.748 41.566 370.832 41.8073 370.832 42.122C370.832 42.21 370.829 42.2793 370.824 42.33L369.224 42.302C369.227 42.734 369.439 42.95 369.86 42.95C370.105 42.95 370.312 42.854 370.48 42.662L370.764 42.906C370.676 43.0233 370.553 43.1167 370.396 43.186C370.239 43.2553 370.056 43.29 369.848 43.29ZM370.412 42.026C370.409 41.8447 370.361 41.7073 370.268 41.614C370.175 41.518 370.035 41.47 369.848 41.47C369.664 41.47 369.516 41.5193 369.404 41.618C369.295 41.7167 369.235 41.866 369.224 42.066L370.412 42.026ZM371.204 41.182H372.648V41.542H371.636V43.25H371.204V41.182ZM373.903 43.29C373.564 43.29 373.303 43.2033 373.119 43.03C372.935 42.8567 372.843 42.6113 372.843 42.294V42.138C372.843 41.8207 372.935 41.5753 373.119 41.402C373.303 41.2287 373.564 41.142 373.903 41.142C374.244 41.142 374.505 41.2287 374.687 41.402C374.871 41.5727 374.963 41.818 374.963 42.138V42.294C374.963 42.614 374.871 42.8607 374.687 43.034C374.505 43.2047 374.244 43.29 373.903 43.29ZM373.283 42.258C373.283 42.5007 373.335 42.6767 373.439 42.786C373.543 42.8953 373.697 42.95 373.903 42.95C374.108 42.95 374.263 42.8953 374.367 42.786C374.473 42.6767 374.527 42.5007 374.527 42.258V42.174C374.527 41.9313 374.473 41.7553 374.367 41.646C374.263 41.5367 374.108 41.482 373.903 41.482C373.697 41.482 373.543 41.5367 373.439 41.646C373.335 41.7553 373.283 41.9313 373.283 42.174V42.258ZM375.361 41.182H376.529C376.747 41.182 376.914 41.226 377.029 41.314C377.146 41.402 377.205 41.534 377.205 41.71C377.205 41.9473 377.097 42.106 376.881 42.186C377.003 42.2153 377.098 42.2727 377.165 42.358C377.234 42.4407 377.269 42.5433 377.269 42.666C377.269 42.858 377.209 43.0033 377.089 43.102C376.969 43.2007 376.79 43.25 376.553 43.25H375.361V41.182ZM376.509 42.938C376.73 42.938 376.841 42.8407 376.841 42.646C376.841 42.5473 376.814 42.474 376.761 42.426C376.71 42.378 376.625 42.354 376.505 42.354H375.785V42.938H376.509ZM376.473 42.05C376.585 42.05 376.666 42.026 376.717 41.978C376.767 41.93 376.793 41.8607 376.793 41.77C376.793 41.586 376.685 41.494 376.469 41.494H375.785V42.05H376.473ZM378.606 43.29C378.267 43.29 378.006 43.2033 377.822 43.03C377.638 42.8567 377.546 42.6113 377.546 42.294V42.138C377.546 41.8207 377.638 41.5753 377.822 41.402C378.006 41.2287 378.267 41.142 378.606 41.142C378.947 41.142 379.209 41.2287 379.39 41.402C379.574 41.5727 379.666 41.818 379.666 42.138V42.294C379.666 42.614 379.574 42.8607 379.39 43.034C379.209 43.2047 378.947 43.29 378.606 43.29ZM377.986 42.258C377.986 42.5007 378.038 42.6767 378.142 42.786C378.246 42.8953 378.401 42.95 378.606 42.95C378.811 42.95 378.966 42.8953 379.07 42.786C379.177 42.6767 379.23 42.5007 379.23 42.258V42.174C379.23 41.9313 379.177 41.7553 379.07 41.646C378.966 41.5367 378.811 41.482 378.606 41.482C378.401 41.482 378.246 41.5367 378.142 41.646C378.038 41.7553 377.986 41.9313 377.986 42.174V42.258ZM380.064 41.182H380.496V41.506C380.56 41.3967 380.653 41.31 380.776 41.246C380.901 41.1793 381.05 41.146 381.224 41.146C381.525 41.146 381.754 41.2353 381.912 41.414C382.072 41.59 382.152 41.8313 382.152 42.138V42.294C382.152 42.6007 382.072 42.8433 381.912 43.022C381.754 43.198 381.525 43.286 381.224 43.286C381.05 43.286 380.901 43.254 380.776 43.19C380.653 43.126 380.56 43.0407 380.496 42.934V44.05H380.064V41.182ZM380.484 42.262C380.484 42.4967 380.537 42.67 380.644 42.782C380.753 42.8913 380.906 42.946 381.104 42.946C381.509 42.946 381.712 42.718 381.712 42.262V42.166C381.712 41.7127 381.509 41.486 381.104 41.486C380.912 41.486 380.76 41.542 380.648 41.654C380.538 41.7633 380.484 41.934 380.484 42.166V42.262ZM382.548 41.182H382.98V42.086H383.1L383.956 41.182H384.48L383.576 42.118L384.528 43.25H383.984L383.224 42.346H382.98V43.25H382.548V41.182ZM385.368 43.286C385.13 43.286 384.944 43.2353 384.808 43.134C384.672 43.03 384.604 42.8847 384.604 42.698C384.604 42.4847 384.678 42.3273 384.828 42.226C384.977 42.1247 385.208 42.074 385.52 42.074H386.1V41.934C386.1 41.7767 386.061 41.662 385.984 41.59C385.909 41.5153 385.789 41.478 385.624 41.478C385.488 41.478 385.366 41.5047 385.26 41.558C385.156 41.6087 385.072 41.6807 385.008 41.774L384.704 41.59C384.789 41.4487 384.914 41.3393 385.08 41.262C385.245 41.1847 385.429 41.146 385.632 41.146C385.914 41.146 386.132 41.2073 386.284 41.33C386.436 41.4527 386.512 41.65 386.512 41.922V43.25H386.116V42.91C386.049 43.0353 385.949 43.13 385.816 43.194C385.685 43.2553 385.536 43.286 385.368 43.286ZM385.02 42.666C385.02 42.7647 385.06 42.838 385.14 42.886C385.22 42.9313 385.326 42.954 385.46 42.954C385.646 42.954 385.8 42.914 385.92 42.834C386.04 42.7513 386.1 42.638 386.1 42.494V42.362H385.532C385.356 42.362 385.226 42.3873 385.144 42.438C385.061 42.4887 385.02 42.5647 385.02 42.666Z" fill="#172736"/>
<rect x="369.912" y="25.25" width="9" height="12" rx="1.6875" fill="#33D18F" fill-opacity="0.2"/>
<path d="M372.671 32.804C372.221 32.804 371.895 32.696 371.694 32.48C371.496 32.261 371.397 31.9235 371.397 31.4675V31.121C371.397 30.62 371.507 30.248 371.726 30.005C371.945 29.759 372.276 29.636 372.72 29.636C373.266 29.636 373.649 29.8085 373.868 30.1535L373.49 30.41C373.31 30.17 373.05 30.05 372.711 30.05C372.432 30.05 372.225 30.128 372.09 30.284C371.955 30.44 371.888 30.6905 371.888 31.0355V31.148C371.978 31.031 372.102 30.944 372.261 30.887C372.42 30.827 372.605 30.797 372.815 30.797C373.163 30.797 373.431 30.881 373.62 31.049C373.809 31.214 373.904 31.4585 373.904 31.7825C373.904 32.1065 373.799 32.3585 373.589 32.5385C373.382 32.7155 373.076 32.804 372.671 32.804ZM371.928 31.769C371.928 32.183 372.177 32.39 372.675 32.39C372.918 32.39 373.1 32.339 373.22 32.237C373.343 32.132 373.404 31.9805 373.404 31.7825C373.404 31.3805 373.166 31.1795 372.689 31.1795C372.182 31.1795 371.928 31.376 371.928 31.769ZM375.006 30.3425C374.856 30.4835 374.646 30.5615 374.376 30.5765V30.1265C374.736 30.1175 374.985 29.972 375.123 29.69H375.51V32.75H375.006V30.3425ZM376.792 30.3425C376.642 30.4835 376.432 30.5615 376.162 30.5765V30.1265C376.522 30.1175 376.771 29.972 376.909 29.69H377.296V32.75H376.792V30.3425Z" fill="#172736"/>
</svg>
