<svg width="1128" height="501" viewBox="0 0 1128 501" fill="none" xmlns="http://www.w3.org/2000/svg">
<g id="b1f6">
<g id="Group 1198">
<g id="Ellipse 30">
<path d="M595.567 294.52L581.016 289.633L572.244 314.536L587.045 319.304L595.567 294.52Z" fill="white"/>
<path d="M564.341 310.928C564.164 311.456 564.452 312.027 564.983 312.198L572.244 314.536L581.016 289.633L572.449 286.756L564.341 310.928Z" fill="white"/>
<path d="M586.608 259.834L581.993 258.306L572.449 286.756L581.016 289.633L590.997 261.297L586.608 259.834Z" fill="white"/>
<path d="M567.935 344.036L596.626 353.533L590.184 375.466L561.17 365.71L567.935 344.036Z" fill="white"/>
<path d="M245.556 184.474C245.962 184.883 246.629 184.865 247.012 184.434L264.482 164.819C264.849 164.408 264.813 163.777 264.403 163.409C257.804 157.479 251.3 151.445 244.894 145.31L225.641 164.44L245.556 184.474Z" fill="white"/>
<path d="M228.806 46.956C229.188 46.5913 229.22 45.993 228.88 45.5893L221.072 36.3124L216.975 39.7221L225.838 49.7949L228.806 46.956Z" fill="white"/>
<path fill-rule="evenodd" clip-rule="evenodd" d="M596.626 353.533L567.935 344.036L561.17 365.71L590.184 375.466L596.626 353.533Z" fill="white"/>
<path fill-rule="evenodd" clip-rule="evenodd" d="M264.403 163.409C264.813 163.777 264.849 164.408 264.482 164.819L247.012 184.434C246.629 184.865 245.962 184.883 245.556 184.474L225.641 164.44L244.894 145.31C251.3 151.445 257.804 157.479 264.403 163.409ZM596.626 353.533L567.935 344.036L561.17 365.71L590.184 375.466L596.626 353.533Z" fill="white"/>
<path fill-rule="evenodd" clip-rule="evenodd" d="M264.403 163.409C264.813 163.777 264.849 164.408 264.482 164.819L247.012 184.434C246.629 184.865 245.962 184.883 245.556 184.474L225.641 164.44L244.894 145.31C251.3 151.445 257.804 157.479 264.403 163.409ZM596.626 353.533L567.935 344.036L561.17 365.71L590.184 375.466L596.626 353.533Z" fill="white"/>
<path fill-rule="evenodd" clip-rule="evenodd" d="M571.77 445.631C599.894 453.575 628.551 460.248 657.676 465.584C712.096 475.554 768.147 480.854 825.4 481.056C826.53 481.06 827.66 481.062 828.791 481.062H995.344H1085.27C1085.82 481.062 1086.27 480.614 1086.27 480.062V381.018L1105.93 380.973C1115.38 380.973 1126.75 374.632 1126.75 363.504V333.449C1126.75 332.896 1126.3 332.449 1125.75 332.449H1107.91C1107.36 332.449 1106.91 332.001 1106.91 331.449V265.725C1106.91 265.173 1106.46 264.725 1105.91 264.725H1062.91H999.51V253.078C999.51 252.526 999.062 252.078 998.51 252.078H826.466L826.054 252.079C825.836 252.079 825.618 252.079 825.4 252.079C758.385 252.079 693.484 242.837 631.948 225.546L625.409 249.495L594.271 238.472C593.735 238.282 593.148 238.577 592.981 239.12L586.608 259.834L590.997 261.297L581.016 289.633L595.567 294.52L587.045 319.304L572.244 314.536L564.983 312.198C564.452 312.027 564.164 311.456 564.341 310.928L572.449 286.756L581.993 258.306L586.608 259.834L592.981 239.12C593.148 238.577 593.735 238.282 594.271 238.472L625.409 249.495L631.948 225.546C610.781 219.598 590.012 212.698 569.693 204.894C518.402 185.195 469.974 159.736 425.229 129.299C416.766 123.542 408.434 117.606 400.239 111.498L392.478 105.292C371.239 89.0613 350.947 71.6546 331.699 53.1693C321.21 43.0966 311.032 32.7036 301.179 22.0061C300.807 21.602 300.178 21.5729 299.771 21.9415L287.259 33.2638L258.857 1.5295C258.667 1.31754 258.396 1.1964 258.112 1.1964H221.072V36.3124L228.88 45.5893C229.22 45.993 229.188 46.5913 228.806 46.956L225.838 49.7949L216.975 39.7221L221.072 36.3124V1.1964H152.052H124.75H82.1836L1 1.1964C34.6002 61.2228 76.7976 117.197 122.537 168.203C125.919 171.821 129.332 175.413 132.775 178.977L132.946 179.153C153.485 200.408 175.093 220.725 197.69 240.258C208.906 249.954 220.366 259.457 232.059 268.785C243.705 278.076 255.582 287.194 267.681 296.158C289.36 312.219 311.75 327.373 334.797 341.563C359.796 356.956 385.568 371.215 412.04 384.269C436.979 396.567 462.54 407.796 488.663 417.895C489.52 418.226 490.377 418.557 491.236 418.885C500.802 422.552 510.444 426.067 520.157 429.428C537.147 435.306 554.356 440.712 571.77 445.631ZM264.403 163.409C264.813 163.777 264.849 164.408 264.482 164.819L247.012 184.434C246.629 184.865 245.962 184.883 245.556 184.474L225.641 164.44L244.894 145.31C251.3 151.445 257.804 157.479 264.403 163.409ZM596.626 353.533L567.935 344.036L561.17 365.71L590.184 375.466L596.626 353.533Z" fill="white"/>
<path d="M267.681 296.158L300.507 251.638M267.681 296.158C289.36 312.219 311.75 327.373 334.797 341.563M267.681 296.158C255.582 287.194 243.705 278.076 232.059 268.785M999.51 264.725H1062.91M999.51 264.725L995.344 265.842M999.51 264.725V253.078M287.259 33.2638L246.305 72.5025L237.201 81.2254M287.259 33.2638L258.857 1.5295M287.259 33.2638L299.771 21.9415M331.699 53.1693C350.947 71.6546 371.239 89.0613 392.478 105.292L400.239 111.498M331.699 53.1693L262.683 129.51M331.699 53.1693C321.21 43.0966 311.032 32.7036 301.179 22.0061M124.62 1.00011C124.664 1.06555 124.707 1.13098 124.75 1.1964M197.69 60.7739C196.865 59.7936 196.042 58.8112 195.222 57.8269M340.225 194.018L316.341 175.649M340.225 194.018L355.195 173.434M340.225 194.018C343.674 196.544 347.144 199.044 350.634 201.517M400.239 111.498C408.434 117.606 416.766 123.542 425.229 129.299M400.239 111.498L355.195 173.434M189.186 127.766L210.273 108.454M189.186 127.766L225.641 164.44M189.186 127.766L184.623 131.944M1 1.1964L82.1836 1.1964H124.75M1 1.1964C35.0616 63.2895 75.9063 118.322 122.537 168.203M1 1.1964C34.6002 61.2228 76.7976 117.197 122.537 168.203M1086.27 381.018L1105.93 380.973C1115.38 380.973 1126.75 374.632 1126.75 363.504V333.449M1086.27 381.018H1059.73C1059.28 381.018 1058.88 380.714 1058.77 380.276L1058.05 377.59C1057.93 377.153 1057.53 376.849 1057.08 376.849H1011.85M1086.27 381.018V480.062M197.69 240.258L233.484 199.797M197.69 240.258C208.906 249.954 220.366 259.457 232.059 268.785M197.69 240.258C175.093 220.725 153.485 200.408 132.946 179.153M236.122 196.815L233.484 199.797M233.484 199.797L255.24 216.625M300.507 251.638L327.018 215.683C327.345 215.239 327.971 215.144 328.416 215.471C344.488 227.276 360.998 238.519 377.919 249.171M300.507 251.638L275.33 232.165M265.145 224.287C265.145 224.287 263.746 223.205 262.85 222.511C260.963 221.052 267.681 226.248 267.681 226.248L265.145 224.287ZM265.145 224.287L232.059 268.785M244.894 145.31C251.3 151.445 257.804 157.479 264.403 163.409C264.813 163.777 264.849 164.408 264.482 164.819L247.012 184.434C246.629 184.865 245.962 184.883 245.556 184.474L225.641 164.44M244.894 145.31L225.641 164.44M244.894 145.31C243.711 144.178 242.532 143.043 241.357 141.904M826.466 252.078L826.054 252.079M826.466 252.078H998.51M826.466 252.078C826.329 252.079 826.191 252.079 826.054 252.079M195.222 57.8269L216.975 39.7221M195.222 57.8269L189.921 62.4016M221.072 36.3124V1.1964M221.072 36.3124L228.88 45.5893C229.22 45.993 229.188 46.5913 228.806 46.956L225.838 49.7949M221.072 36.3124L216.975 39.7221M221.072 1.1964H152.052H124.75M221.072 1.1964H258.112M237.201 62.4016L225.838 49.7949M237.201 62.4016L217.175 81.2637C216.767 81.6475 216.124 81.6221 215.748 81.2072L212.465 77.584M237.201 62.4016L226.571 50.6081M205.125 69.4842L226.571 50.6081M205.125 69.4842L208.497 73.2054M205.125 69.4842C202.884 66.8959 202.89 66.8914 205.125 69.4842ZM226.571 50.6081L225.838 49.7949M225.838 49.7949L216.975 39.7221M147.74 34.3176C139.818 23.4727 132.152 12.4293 124.75 1.1964M156.288 45.8115C164.657 56.8659 173.295 67.7051 182.192 78.3196M193.389 91.4023C206.879 106.841 220.929 121.777 235.508 136.181M262.683 129.51C270.919 137.269 279.316 144.857 287.87 152.271M262.683 129.51C259.796 126.79 256.929 124.049 254.082 121.288M246.305 113.816L256.946 102.118C257.307 101.722 257.291 101.111 256.91 100.734L237.201 81.2254M246.305 113.816L244.471 111.73M246.305 113.816L247.876 115.387M238.24 105.498L226.33 93.0232C225.949 92.6242 225.964 91.9922 226.362 91.6106L237.201 81.2254M177.195 138.747L158.176 156.165L141.287 171.632L132.946 179.153M334.797 341.563C359.796 356.956 385.568 371.215 412.04 384.269C436.979 396.567 462.54 407.796 488.663 417.895M334.797 341.563L386.377 255.609C386.663 255.133 387.283 254.981 387.757 255.27C411.054 269.489 435.103 282.597 459.83 294.52M368.755 213.993C369.723 214.641 370.693 215.287 371.665 215.931C397.356 232.954 424.07 248.558 451.695 262.631M368.755 213.993L382.795 192.937M368.755 213.993C365.501 211.818 362.265 209.619 359.045 207.398M425.229 129.299L382.795 192.937M425.229 129.299C469.974 159.736 518.402 185.195 569.693 204.894M382.795 192.937L374.053 186.76M355.195 173.434L365.311 180.583M463.254 269.404C486.141 280.608 509.632 290.768 533.665 299.825M468.895 298.825C487.356 307.453 506.185 315.425 525.351 322.71M488.663 417.895C489.52 418.226 490.377 418.557 491.236 418.885C500.802 422.552 510.444 426.067 520.157 429.428M488.663 417.895L501.659 384.176M525.351 322.71L523.371 327.847M525.351 322.71L538.586 326.763M533.665 299.825L542.122 276.776M533.665 299.825L537.058 301.413M569.693 204.894C590.012 212.698 610.781 219.598 631.948 225.546M569.693 204.894L542.122 276.776M570.112 443.805L581.356 405.523M581.356 405.523L552.592 396.547C552.064 396.382 551.77 395.822 551.935 395.294L557.705 376.808M581.356 405.523L590.184 375.466M567.935 344.036L569.815 338.013C569.979 337.487 570.538 337.193 571.065 337.356L574.124 338.302M567.935 344.036L596.626 353.533M567.935 344.036L561.17 365.71M596.626 353.533L598.573 346.902C598.727 346.377 598.432 345.826 597.909 345.665L590.997 343.525M596.626 353.533L590.184 375.466M590.184 375.466L561.17 365.71M561.17 365.71L560.191 368.845M520.157 429.428C537.147 435.306 554.356 440.712 571.77 445.631C599.894 453.575 628.551 460.248 657.676 465.584C712.096 475.554 768.147 480.854 825.4 481.056M520.157 429.428L528.58 403.944M523.371 327.847L550.685 337.061M523.371 327.847L514.656 350.458M550.685 337.061L552.343 332.044C552.519 331.511 552.222 330.938 551.686 330.774L548.164 329.696M550.685 337.061L548.164 344.687M543.14 359.889L514.656 350.458M543.14 359.889L535.739 382.281M543.14 359.889L545.644 352.313M514.656 350.458L501.659 384.176M531.649 394.658L501.659 384.176M531.649 394.658L531.123 396.249L532.509 392.056L531.649 394.658ZM631.948 225.546C693.484 242.837 758.385 252.079 825.4 252.079C825.618 252.079 825.836 252.079 826.054 252.079M631.948 225.546L625.409 249.495M625.409 249.495L604.591 325.732C604.439 326.29 604.79 326.86 605.357 326.976L677.339 341.63L735.504 350.052M625.409 249.495L594.271 238.472C593.735 238.282 593.148 238.577 592.981 239.12L586.608 259.834M586.608 259.834L581.993 258.306M586.608 259.834L590.997 261.297M608.666 267.183L590.997 261.297M563.752 252.263L581.993 258.306M581.993 258.306L572.449 286.756M590.997 261.297L581.016 289.633M572.244 314.536L564.983 312.198C564.452 312.027 564.164 311.456 564.341 310.928L572.449 286.756M572.244 314.536L587.045 319.304M572.244 314.536L581.016 289.633M554.427 280.704L558.102 281.938M598.851 295.623L595.567 294.52M545.644 305.968L549.445 307.193M590.997 320.577L587.045 319.304M553.595 295.623L558.102 281.938M558.102 281.938L572.449 286.756M550.931 302.717L549.445 307.193M549.445 307.193L587.045 319.304M542.122 276.776L546.024 278.247M595.567 294.52L581.016 289.633M595.567 294.52L587.045 319.304M613.612 352.313L675.136 365.71L732.652 372.64M744.676 374.043L809.207 376.849M825.4 376.849V481.056M825.4 481.056C826.53 481.06 827.66 481.062 828.791 481.062H995.344M826.441 376.849H875.941M888.366 376.849V379.255C888.366 379.808 888.814 380.255 889.366 380.255H930.516M967.526 380.255H930.516M930.516 380.255V404.202C930.516 404.754 930.964 405.202 931.516 405.202H994.344C994.897 405.202 995.344 404.754 995.344 404.202V376.849M995.344 376.849V481.062M995.344 376.849H999.51H978.458M995.344 481.062H1085.27M1022.38 352.947H1062.91M1066.07 352.947H1062.91M1062.91 352.947V264.725M1062.91 264.725H1105.91M995.344 265.842V352.947M995.344 265.842H968.526C967.974 265.842 967.526 266.289 967.526 266.842V352.947M995.344 352.947H1009.22M995.344 352.947H986.587M974.217 352.947H967.526M908.42 352.947H967.526M886.838 355.842H825.4L746.558 351.631M132.775 178.977C132.499 178.983 132.223 178.874 132.021 178.655M132.775 178.977C129.332 175.413 125.919 171.821 122.537 168.203M132.775 178.977C132.832 179.036 132.889 179.095 132.946 179.153M132.775 178.977L132.946 179.153M132.021 178.655C128.844 175.194 125.682 171.71 122.537 168.203M132.021 178.655C132.167 178.813 132.313 178.972 132.459 179.131C132.587 179.271 132.805 179.281 132.946 179.153M258.112 1.1964C258.396 1.1964 258.667 1.31754 258.857 1.5295M258.112 1.1964C258.396 1.1964 258.667 1.31754 258.857 1.5295M299.771 21.9415C300.178 21.5729 300.807 21.602 301.179 22.0061M299.771 21.9415C300.178 21.5729 300.807 21.602 301.179 22.0061M998.51 252.078C999.062 252.078 999.51 252.526 999.51 253.078M998.51 252.078C999.062 252.078 999.51 252.526 999.51 253.078M1105.91 264.725C1106.46 264.725 1106.91 265.173 1106.91 265.725M1105.91 264.725C1106.46 264.725 1106.91 265.173 1106.91 265.725M1106.91 265.725V331.449M1106.91 331.449C1106.91 332.001 1107.36 332.449 1107.91 332.449M1106.91 331.449C1106.91 332.001 1107.36 332.449 1107.91 332.449M1107.91 332.449H1125.75M1125.75 332.449C1126.3 332.449 1126.75 332.896 1126.75 333.449M1125.75 332.449C1126.3 332.449 1126.75 332.896 1126.75 333.449M1086.27 480.062C1086.27 480.614 1085.82 481.062 1085.27 481.062M1086.27 480.062C1086.27 480.614 1085.82 481.062 1085.27 481.062M581.016 289.633L572.449 286.756M821.595 499.354C821.17 499.355 822.02 499.354 821.595 499.354Z" stroke="#BFC4C8" stroke-width="2" stroke-linecap="round" stroke-linejoin="round"/>
</g>
<text id="title" fill="#172736" xml:space="preserve" style="white-space: pre" font-family="CoFo Weather 20240219" font-size="10" font-weight="500" letter-spacing="0em"><tspan x="1005.71" y="304.473">&#x41b;&#x438;&#x444;&#x442;&#x43e;&#x432;&#x43e;&#x439;&#10;</tspan><tspan x="1015.08" y="314.473">&#x445;&#x43e;&#x43b;&#x43b; 2</tspan></text>
<g id="b1f6-603">
<path id="Ellipse 32" d="M216.29 39.0226C217.112 38.2992 227.242 49.8596 227.975 50.6731L237.288 61.0051C238.016 61.8128 237.966 63.0544 237.174 63.8L217.86 81.9915C217.045 82.7591 215.758 82.7087 215.006 81.8792L205.065 70.9075C204.316 70.0806 193.453 58.2596 194.29 57.5224L205.065 48.5224L216.29 39.0226Z" fill="#33D18F" fill-opacity="0.2" stroke="#33D18F" stroke-opacity="0.2" stroke-width="2.00001" stroke-linejoin="round"/>
<text id="title_2" transform="translate(212.29 64.8556) rotate(-42.802)" fill="#172736" xml:space="preserve" style="white-space: pre" font-family="CoFo Weather 20240219" font-size="3" font-weight="500" letter-spacing="0em"><tspan x="0.155762" y="2.535">&#x41a;&#x43e;&#x43c;&#x43d;&#x430;&#x442;&#x430;&#10;</tspan><tspan x="0.533691" y="5.535">&#x442;&#x438;&#x448;&#x438;&#x43d;&#x44b;</tspan></text>
<g id="Frame 14">
<rect x="208.29" y="57.422" width="8.25" height="5" rx="1.125" transform="rotate(-40.8801 208.29 57.422)" fill="#33D18F" fill-opacity="0.2"/>
<text id="603" transform="translate(209.795 57.4418) rotate(-40.8801)" fill="#172736" xml:space="preserve" style="white-space: pre" font-family="CoFo Weather 20240219" font-size="3" font-weight="500" letter-spacing="0.02em"><tspan x="0.0571876" y="2.535">603</tspan></text>
</g>
</g>
<g id="b1f6-608">
<path id="Ellipse 34" d="M263.735 224.507C264.403 223.609 265.678 223.434 266.563 224.119L300.346 250.25C301.205 250.915 301.376 252.144 300.731 253.018L269.652 295.146C268.996 296.036 267.741 296.224 266.852 295.565C255.284 286.981 243.918 278.255 232.764 269.371C231.919 268.698 231.762 267.478 232.405 266.613L263.735 224.507Z" fill="#33D18F" fill-opacity="0.2" stroke="#33D18F" stroke-opacity="0.2" stroke-width="2.00001" stroke-linejoin="round"/>
<text id="title_3" transform="translate(256.017 276.656) rotate(-51.4632)" fill="#172736" xml:space="preserve" style="white-space: pre" font-family="CoFo Weather 20240219" font-size="6.00002" font-weight="500" letter-spacing="0em"><tspan x="0" y="5.07001">&#x41f;&#x435;&#x440;&#x435;&#x433;&#x43e;&#x432;&#x43e;&#x440;&#x43a;&#x430;</tspan></text>
<g id="Frame 11">
<rect x="253.79" y="262.9" width="17.5" height="9" rx="2.25" transform="rotate(-51.4649 253.79 262.9)" fill="#33D18F" fill-opacity="0.2"/>
<text id="608" transform="translate(256.365 262.074) rotate(-51.4649)" fill="#172736" xml:space="preserve" style="white-space: pre" font-family="CoFo Weather 20240219" font-size="6" font-weight="500" letter-spacing="0.02em"><tspan x="0.459102" y="5.07">608</tspan></text>
</g>
</g>
<g id="b1f6-6b">
<path id="Ellipse 35" d="M490.434 418.869C489.886 418.659 489.339 418.449 488.791 418.238C488.277 418.04 488.021 417.463 488.217 416.948L500.823 384.003C501.015 383.5 501.573 383.239 502.082 383.415L531.87 393.672C532.387 393.85 532.665 394.411 532.494 394.93L521.319 428.858C521.144 429.388 520.57 429.673 520.042 429.491C510.55 426.205 499.688 422.415 490.434 418.869Z" fill="#33D18F" fill-opacity="0.2" stroke="#33D18F" stroke-opacity="0.2" stroke-width="2.00001" stroke-linejoin="round"/>
<text id="title_4" transform="translate(494.999 408.961)" fill="#172736" xml:space="preserve" style="white-space: pre" font-family="CoFo Weather 20240219" font-size="4" font-weight="500" letter-spacing="0em"><tspan x="0" y="3.38">&#x41f;&#x435;&#x440;&#x435;&#x433;&#x43e;&#x432;&#x43e;&#x440;&#x43a;&#x430;</tspan></text>
<g id="Frame 16">
<rect x="502.728" y="399.929" width="9.375" height="7.25" rx="1.6875" fill="#33D18F" fill-opacity="0.2"/>
<text id="6&#208;&#177;" transform="translate(504.415 401.054)" fill="#172736" xml:space="preserve" style="white-space: pre" font-family="CoFo Weather 20240219" font-size="4.5" font-weight="500" letter-spacing="0.02em"><tspan x="0.138105" y="4.0525">6&#x431;</tspan></text>
</g>
</g>
<g id="b1f6-606">
<path id="Ellipse 33" d="M234.122 267.776L265.949 224.883C266.273 224.446 266.188 223.83 265.757 223.496L235.785 200.312C235.327 199.959 235.264 199.292 235.648 198.859L236.869 197.478C237.236 197.064 237.197 196.432 236.783 196.066C236.369 195.7 235.738 195.739 235.372 196.152L198.256 238.064C197.518 238.898 197.602 240.175 198.445 240.903C209.168 250.154 220.112 259.23 231.269 268.146C232.154 268.853 233.448 268.685 234.122 267.776Z" fill="#33D18F" fill-opacity="0.2" stroke="#33D18F" stroke-opacity="0.2" stroke-width="2.00001" stroke-linejoin="round"/>
<text id="title_5" transform="translate(221.017 251.656) rotate(-51.4632)" fill="#172736" xml:space="preserve" style="white-space: pre" font-family="CoFo Weather 20240219" font-size="6.00002" font-weight="500" letter-spacing="0em"><tspan x="0" y="5.07001">&#x41f;&#x435;&#x440;&#x435;&#x433;&#x43e;&#x432;&#x43e;&#x440;&#x43a;&#x430;</tspan></text>
<g id="Frame 15">
<rect x="218.79" y="237.9" width="17.5" height="9" rx="2.25" transform="rotate(-51.4649 218.79 237.9)" fill="#33D18F" fill-opacity="0.2"/>
<text id="606" transform="translate(221.365 237.074) rotate(-51.4649)" fill="#172736" xml:space="preserve" style="white-space: pre" font-family="CoFo Weather 20240219" font-size="6" font-weight="500" letter-spacing="0.02em"><tspan x="0.497188" y="5.07">606</tspan></text>
</g>
</g>
<g id="b1f6-k">
<path id="Ellipse 36" d="M550.836 396.232L579.623 405.216C580.141 405.377 580.436 405.923 580.287 406.444L570.043 442.36C569.892 442.891 569.336 443.199 568.805 443.047C552.803 438.482 539.993 434.597 524.355 429.207C523.839 429.029 523.559 428.469 523.729 427.95L534.824 394.107C534.98 393.63 535.466 393.343 535.959 393.436L550.836 396.232Z" fill="#FFEDD6" stroke="#FFCF94" stroke-width="2.00001" stroke-linejoin="round"/>
<text id="title_6" fill="#172736" xml:space="preserve" style="white-space: pre" font-family="CoFo Weather 20240219" font-size="5.62502" font-weight="500" letter-spacing="0em"><tspan x="533.724" y="421.754">&#x41c;&#x438;&#x43d;&#x438;-&#x43a;&#x443;&#x445;&#x43d;&#x44f;</tspan></text>
</g>
</g>
<g id="b1f6-paper">
<text id="title_7" transform="translate(258.29 159.892) rotate(-48.8097)" fill="#172736" xml:space="preserve" style="white-space: pre" font-family="CoFo Weather 20240219" font-size="8" font-weight="500" letter-spacing="0em"><tspan x="10.7995" y="6.76">&#x423;&#x442;&#x438;&#x43b;&#x438;&#x437;&#x430;&#x446;&#x438;&#x44f; </tspan><tspan x="20.2448" y="14.76">&#x431;&#x443;&#x43c;&#x430;&#x433;&#x438;</tspan></text>
<path id="Ellipse 40" d="M282.29 129.523C282.29 132.008 280.275 134.023 277.79 134.023C275.305 134.023 273.29 132.008 273.29 129.523C273.29 127.037 275.305 125.023 277.79 125.023C280.275 125.023 282.29 127.037 282.29 129.523Z" fill="#73E553"/>
</g>
<text id="title_8" fill="#172736" xml:space="preserve" style="white-space: pre" font-family="CoFo Weather 20240219" font-size="10" font-weight="500" letter-spacing="0em"><tspan x="313.712" y="107.473">&#x41b;&#x438;&#x444;&#x442;&#x43e;&#x432;&#x43e;&#x439;&#10;</tspan><tspan x="324.303" y="117.473">&#x445;&#x43e;&#x43b;&#x43b; 1</tspan></text>
<g id="b1f6-ac">
<path id="Ellipse 31" d="M244.589 183.567C245.329 184.311 246.544 184.278 247.242 183.494L263.586 165.144C264.254 164.394 264.189 163.245 263.443 162.573C257.493 157.216 251.621 151.775 245.828 146.251C245.112 145.568 243.983 145.579 243.281 146.276L226.583 162.867C225.869 163.577 225.866 164.731 226.575 165.445L244.589 183.567Z" fill="#475DEB" fill-opacity="0.2" stroke="#475DEB" stroke-opacity="0.2" stroke-width="2" stroke-linecap="round" stroke-linejoin="round"/>
<text id="&#208;&#144;&#208;&#186;&#209;&#131;&#209;&#129;&#209;&#130;&#208;&#184;&#209;&#135;&#208;&#181;&#209;&#129;&#208;&#186;&#208;&#184;&#208;&#181; &#208;&#186;&#208;&#176;&#208;&#177;&#208;&#184;&#208;&#189;&#208;&#186;&#208;&#184;" transform="translate(237.412 154.023) rotate(43.3854)" fill="black" xml:space="preserve" style="white-space: pre" font-family="CoFo Weather 20240219" font-size="3.4451" font-weight="500" letter-spacing="0em"><tspan x="1.19753" y="2.68856">&#x410;&#x43a;&#x443;&#x441;&#x442;&#x438;&#x447;&#x435;&#x441;&#x43a;&#x438;&#x435; </tspan><tspan x="6.15827" y="5.68856">&#x43a;&#x430;&#x431;&#x438;&#x43d;&#x43a;&#x438;</tspan></text>
</g>
</g>
</svg>
