<svg width="1149" height="358" viewBox="0 0 1149 358" fill="none" xmlns="http://www.w3.org/2000/svg">
<path d="M14.3323 200.941C14.3772 200.425 14.8098 200.028 15.3286 200.028H31.4116V2.52783C31.4116 1.97555 31.8593 1.52783 32.4116 1.52783H352.912H487.912H1120.91C1121.46 1.52783 1121.91 1.97555 1121.91 2.52783V87.0278H1146.91C1147.46 87.0278 1147.91 87.4755 1147.91 88.0278V217.751C1147.91 218.208 1147.63 218.601 1147.18 218.714C1129.52 223.203 1080.13 235.328 1017.41 249.528C954.488 263.775 889.965 275.933 864.712 280.387C864.234 280.471 863.912 280.882 863.912 281.367V298.528C863.912 299.08 863.464 299.528 862.912 299.528H751.984C751.936 299.528 751.89 299.531 751.843 299.538C706.51 306.099 614.758 319.391 574.412 325.274C569.638 325.97 565.584 326.563 562.412 327.028C532.412 331.428 436.912 339.528 392.912 343.028H307.412V347.565C307.412 348.102 307.012 348.543 306.475 348.563C261.909 350.247 167.612 353.939 139.412 355.528C111.296 357.112 36.7575 356.213 1.95532 355.548C1.37672 355.537 0.954074 355.039 1.00413 354.462L14.3323 200.941Z" fill="white"/>
<path d="M468.412 309.028C467.859 309.028 467.412 308.58 467.412 308.028V303.528V280.528H484.912V309.028H468.412Z" fill="white"/>
<path d="M533.412 209.528V251.028H521.162V209.528H533.412Z" fill="white"/>
<path d="M156.912 132.028C156.912 131.476 156.464 131.028 155.912 131.028H126.412V138.528C126.412 139.08 126.859 139.528 127.412 139.528H155.912C156.464 139.528 156.912 139.08 156.912 138.528V132.028Z" fill="white"/>
<path d="M964.412 109.528V97.5278C964.412 96.9755 964.859 96.5278 965.412 96.5278H979.162H985.412H994.912H1013.41V109.528H994.912H979.162H964.412Z" fill="white"/>
<path d="M933.412 124.528C932.859 124.528 932.412 124.976 932.412 125.528V139.028H845.412V97.0278C845.412 96.7517 845.635 96.5278 845.912 96.5278H936.412V123.528C936.412 124.08 935.964 124.528 935.412 124.528H933.412Z" fill="white"/>
<path d="M31.4116 200.028H15.3286C14.8098 200.028 14.3772 200.425 14.3323 200.941L1.00413 354.462C0.954074 355.039 1.37672 355.537 1.95532 355.548C36.7575 356.213 111.296 357.112 139.412 355.528C167.612 353.939 261.909 350.247 306.475 348.563C307.012 348.543 307.412 348.102 307.412 347.565V343.028M31.4116 200.028V2.52783C31.4116 1.97555 31.8593 1.52783 32.4116 1.52783H352.912H487.912M31.4116 200.028H80.4116C80.9639 200.028 81.4116 199.58 81.4116 199.028V167.528M307.412 343.028H392.912C436.912 339.528 532.412 331.428 562.412 327.028C565.584 326.563 569.638 325.97 574.412 325.274M307.412 343.028V205.028C307.412 204.476 307.859 204.028 308.412 204.028H310.412M1121.91 87.0278H1146.91C1147.46 87.0278 1147.91 87.4755 1147.91 88.0278V217.751C1147.91 218.208 1147.63 218.601 1147.18 218.714C1129.52 223.203 1080.13 235.328 1017.41 249.528C954.488 263.775 889.965 275.933 864.712 280.387C864.234 280.471 863.912 280.882 863.912 281.367V298.528C863.912 299.08 863.464 299.528 862.912 299.528H751.984C751.936 299.528 751.89 299.531 751.843 299.538C706.51 306.099 614.758 319.391 574.412 325.274M1121.91 87.0278V2.52783C1121.91 1.97555 1121.46 1.52783 1120.91 1.52783H487.912M1121.91 87.0278V95.0278M31.9116 139.528H84.4116M80.9116 153.528V139.528M96.9116 139.528H106.912M120.912 139.528H138.412M151.912 139.528H165.912M179.912 139.528H284.912M298.412 139.528H306.912M320.412 139.528H323.912M338.412 139.528H358.912M364.912 139.528H358.912M378.912 139.528H396.912C397.464 139.528 397.912 139.08 397.912 138.528V74.0278M397.912 71.0278V74.0278M397.912 56.0278V2.02783M81.9116 185.028H84.9116M124.912 176.528V184.028C124.912 184.58 124.464 185.028 123.912 185.028H100.912M124.912 176.528H120.412M124.912 176.528H200.412M107.412 176.528H101.912C101.359 176.528 100.912 176.976 100.912 177.528V185.028M97.4116 185.028H100.912M213.912 176.528H222.912M397.912 176.528H400.412C400.964 176.528 401.412 176.976 401.412 177.528V202.028M236.412 176.528H310.412M310.412 176.528H355.412M310.412 176.528V204.028M310.412 204.028H360.412M366.412 176.528H375.912M375.912 176.528H387.412M375.912 176.528V204.028M375.912 204.028H395.412M375.912 204.028H360.412M407.412 204.028H395.412M395.412 204.028V216.528M395.412 269.528V280.528M395.412 280.528V287.028M395.412 280.528H360.412M360.412 280.528V304.528M360.412 280.528V242.028M360.412 204.028V242.028M360.412 242.028H395.412M395.412 232.528V242.028M395.412 242.028V254.528M395.412 309.028V325.528M395.412 342.028V325.528M440.412 339.028V328.028M440.412 314.028V304.528C440.412 303.976 440.859 303.528 441.412 303.528H467.412M467.412 303.528V308.028C467.412 308.58 467.859 309.028 468.412 309.028H484.912M467.412 303.528V280.528M484.912 309.028V335.028M484.912 309.028V280.528M484.912 204.028H448.912M484.912 204.028V209.528M484.912 204.028V198.028M448.912 204.028H428.912M448.912 204.028V216.528M448.912 269.528V279.528C448.912 280.08 449.359 280.528 449.912 280.528H467.412M484.912 280.528H467.412M484.912 280.528V251.028M448.912 232.528V242.028M448.912 242.028V254.528M448.912 242.028H484.912M484.912 242.028V251.028M484.912 242.028V209.528M484.912 251.028H495.412M528.412 331.028V310.028C528.412 309.476 528.859 309.028 529.412 309.028H532.412C532.964 309.028 533.412 308.58 533.412 308.028V287.528V251.028M533.412 251.028V209.528M533.412 251.028H521.162M533.412 209.528H552.912M533.412 209.528H521.162M484.912 209.528H494.412M508.912 251.028H521.162M521.162 251.028V209.528M521.162 209.528H508.912M521.162 209.528V204.028M484.912 185.028V177.028C484.912 176.476 485.359 176.028 485.912 176.028H521.162M521.162 176.028V189.528M521.162 176.028H574.412M574.412 176.028H589.412M574.412 176.028V282.528M602.412 176.528H620.412H674.412M1040.91 176.528H1138.43C1138.74 176.528 1139.02 176.664 1139.21 176.899L1147.41 187.028M952.412 176.528H1022.91M1022.91 176.528H1026.91M1022.91 176.528V248.528M900.912 176.528H934.912M934.912 176.528H939.912M934.912 176.528V204.028M934.912 267.528V204.028M934.912 204.028H849.912C849.359 204.028 848.912 203.58 848.912 203.028V176.528M775.912 176.528H848.912M848.912 176.528H887.912M687.412 176.528H757.412M757.412 176.528H762.412M757.412 176.528V299.528M217.412 352.528V176.528M217.912 139.528V100.528M99.9116 139.528V129.528C99.9116 128.976 100.359 128.528 100.912 128.528H126.412M126.412 128.528V131.028M126.412 128.528V2.02783M126.412 131.028H155.912C156.464 131.028 156.912 131.476 156.912 132.028V138.528C156.912 139.08 156.464 139.528 155.912 139.528H127.412C126.859 139.528 126.412 139.08 126.412 138.528V131.028ZM601.912 139.028H619.912M619.912 139.028H674.412M619.912 139.028V146.028M619.912 139.028V60.5278C619.912 59.9755 619.464 59.5278 618.912 59.5278H570.412M687.412 139.028H739.912M739.912 139.028V134.528C739.912 133.976 740.359 133.528 740.912 133.528H756.912M739.912 139.028H743.912M1013.41 139.028H1019.91C1020.46 139.028 1020.91 138.58 1020.91 138.028V125.528C1020.91 124.976 1020.46 124.528 1019.91 124.528H1014.41C1013.86 124.528 1013.41 124.08 1013.41 123.528V109.528M1013.41 109.528H1019.41M1013.41 109.528H994.912M1013.41 109.528V96.5278M989.912 139.028H994.912M994.912 139.028H999.912M994.912 139.028V109.528M994.912 109.528H979.162M994.912 109.528V96.5278M960.912 139.028H964.412M964.412 139.028H973.912M964.412 139.028V109.528M964.412 109.528V97.5278C964.412 96.9755 964.859 96.5278 965.412 96.5278H979.162M964.412 109.528H963.412M964.412 109.528H979.162M979.162 109.528V96.5278M979.162 96.5278H985.412M994.912 96.5278H1013.41M994.912 96.5278H985.412M1013.41 96.5278H1023.16M985.412 96.5278V59.0278M932.412 139.028H947.412M932.412 139.028V125.528C932.412 124.976 932.859 124.528 933.412 124.528H935.412C935.964 124.528 936.412 124.08 936.412 123.528V96.5278M932.412 139.028H845.412M936.412 96.5278V1.52783M936.412 96.5278H845.912C845.635 96.5278 845.412 96.7517 845.412 97.0278M840.912 139.028H845.412M845.412 139.028V97.0278M845.412 97.0278H846.412M845.412 97.0278H810.412C809.859 97.0278 809.412 97.4755 809.412 98.0278V139.028M775.412 139.028H809.412M809.412 139.028H828.412M754.412 139.028H758.162M758.162 139.028H761.912M758.162 139.028V2.02783M619.912 170.028V281.528C619.912 282.08 619.464 282.528 618.912 282.528H574.412M567.912 139.028H570.412M570.412 139.028H587.912M570.412 139.028V85.0278V2.02783M553.912 139.028H480.412C479.859 139.028 479.412 138.58 479.412 138.028V98.0278M479.412 98.0278H424.412C423.859 98.0278 423.412 97.5801 423.412 97.0278V95.0278M479.412 98.0278H486.912C487.464 98.0278 487.912 97.5801 487.912 97.0278V51.0278M487.912 51.0278H416.912M487.912 51.0278V47.0278M402.412 51.0278H398.412M323.412 139.528V129.528C323.412 128.976 323.859 128.528 324.412 128.528H341.912M358.912 128.528H341.912M358.912 128.528V139.528M358.912 128.528V74.0278M341.912 128.528V139.528M302.412 139.528V75.0278C302.412 74.4755 302.859 74.0278 303.412 74.0278H352.912H358.912M1118.41 176.528V169.528M1070.41 132.528H1067.41C1066.86 132.528 1066.41 132.08 1066.41 131.528V119.528M1118.41 146.528V132.528M1118.41 132.528V120.528C1118.41 119.976 1117.96 119.528 1117.41 119.528H1091.16M1118.41 132.528H1110.91M1084.91 132.528H1091.16M1091.16 132.528H1097.41M1091.16 132.528V119.528M1091.16 119.528H1066.41M1066.41 119.528V96.5278M1066.41 96.5278V2.52783M1066.41 96.5278H1055.41M1023.16 96.5278H1032.91M1023.16 96.5278V87.5278M1023.16 67.0278V59.0278M1023.16 59.0278V43.0278M1023.16 59.0278H985.412M985.412 59.0278V1.52783M1023.16 23.5278V1.52783M423.412 85.5278V51.0278M302.412 75.0278V71.5278M302.412 56.5278V2.02783M439.412 51.0278V1.52783M397.912 74.0278H358.912M395.412 325.528H380.912M487.912 35.0278V1.52783M574.412 325.274V282.528" stroke="#BFC4C8" stroke-width="2" stroke-linecap="round" stroke-linejoin="round"/>
<path d="M1040.59 81.9703L1040.59 81.5383C1040.58 81.2343 1040.5 81.0034 1040.34 80.8455C1040.17 80.6876 1039.9 80.5751 1039.53 80.5081C1039.15 80.433 1038.61 80.392 1037.92 80.3851L1033.57 80.334L1033.5 74.4065L1041.65 74.2997L1041.67 75.6676L1034.7 75.7588L1034.74 79.0586L1038.12 79.0984C1039.07 79.11 1039.81 79.1843 1040.33 79.3215C1040.84 79.4508 1041.22 79.6779 1041.45 80.0028C1041.68 80.3199 1041.8 80.7824 1041.81 81.3903L1041.82 81.9543L1040.59 81.9703ZM1038.74 71.5921C1039.4 71.5835 1039.85 71.5815 1040.11 71.5862L1035.37 68.4439L1035.36 67.016L1041.56 66.9348L1041.57 68.1707L1038.24 68.2143C1037.61 68.2226 1037.16 68.2245 1036.89 68.2199L1041.62 71.3504L1041.64 72.7903L1035.43 72.8715L1035.42 71.6356L1038.74 71.5921ZM1041.53 62.1305L1041.53 62.2625C1041.55 63.4704 1041.31 64.3575 1040.82 64.924C1040.33 65.4905 1039.53 65.781 1038.42 65.7955C1037.32 65.8099 1036.52 65.5404 1036.01 64.987C1035.5 64.4336 1035.24 63.553 1035.22 62.3451L1035.22 62.2131L1032.98 62.2425L1032.96 60.9466L1035.2 60.9172L1035.2 60.7852C1035.19 59.5693 1035.43 58.6781 1035.92 58.1116C1036.41 57.5451 1037.21 57.2547 1038.31 57.2402C1039.42 57.2258 1040.22 57.4952 1040.73 58.0486C1041.24 58.602 1041.5 59.4867 1041.51 60.7026L1041.51 60.8346L1043.88 60.8037L1043.9 62.0995L1041.53 62.1305ZM1038.41 64.4876C1039.21 64.477 1039.77 64.2937 1040.08 63.9377C1040.39 63.5816 1040.54 63.0396 1040.53 62.3117L1040.52 62.1197L1036.23 62.1759L1036.23 62.3679C1036.24 63.0958 1036.4 63.6338 1036.72 63.9816C1037.04 64.3295 1037.6 64.4982 1038.41 64.4876ZM1040.5 60.6678C1040.49 59.9399 1040.33 59.402 1040.02 59.0541C1039.7 58.7062 1039.14 58.5375 1038.33 58.5481C1037.52 58.5587 1036.96 58.742 1036.66 59.0981C1036.35 59.4541 1036.2 59.9961 1036.21 60.724L1036.21 60.916L1040.51 60.8598L1040.5 60.6678ZM1036.27 54.4183L1036.3 56.6621L1035.22 56.6762L1035.14 50.8807L1036.22 50.8666L1036.25 53.1104L1041.38 53.0433L1041.39 54.3512L1036.27 54.4183ZM1041.42 47.0122C1041.43 48.0281 1041.18 48.8154 1040.67 49.3742C1040.16 49.933 1039.42 50.2186 1038.47 50.231L1038 50.2372C1037.05 50.2496 1036.31 49.9833 1035.79 49.4381C1035.26 48.893 1034.99 48.1125 1034.97 47.0965C1034.96 46.0726 1035.21 45.2853 1035.72 44.7345C1036.23 44.1759 1036.96 43.8903 1037.92 43.8777L1038.39 43.8716C1039.35 43.859 1040.09 44.1253 1040.62 44.6704C1041.14 45.2077 1041.4 45.9883 1041.42 47.0122ZM1038.35 48.9126C1039.07 48.903 1039.6 48.7401 1039.92 48.4239C1040.25 48.1076 1040.41 47.6415 1040.4 47.0255C1040.39 46.4096 1040.22 45.9478 1039.89 45.6401C1039.56 45.3244 1039.03 45.1713 1038.3 45.1809L1038.05 45.1842C1037.32 45.1937 1036.79 45.3606 1036.47 45.6849C1036.14 46.0011 1035.99 46.4672 1035.99 47.0832C1036 47.6991 1036.17 48.1609 1036.5 48.4686C1036.84 48.7763 1037.37 48.9254 1038.09 48.9159L1038.35 48.9126ZM1035.04 42.7217L1034.99 39.218C1034.98 38.5621 1035.11 38.0604 1035.37 37.713C1035.63 37.3575 1036.02 37.1764 1036.55 37.1695C1037.26 37.1601 1037.74 37.4779 1037.99 38.1227C1038.07 37.7536 1038.24 37.4673 1038.49 37.264C1038.74 37.0528 1039.05 36.9447 1039.41 36.9399C1039.99 36.9324 1040.43 37.1067 1040.73 37.4628C1041.03 37.8189 1041.18 38.3529 1041.19 39.0648L1041.24 42.6405L1035.04 42.7217ZM1040.26 39.2091C1040.25 38.5451 1039.95 38.217 1039.37 38.2246C1039.07 38.2285 1038.86 38.3114 1038.71 38.4732C1038.57 38.6271 1038.5 38.884 1038.51 39.244L1038.54 41.4038L1040.29 41.3809L1040.26 39.2091ZM1037.6 39.3519C1037.59 39.0159 1037.52 38.7729 1037.37 38.6228C1037.23 38.4727 1037.02 38.3994 1036.74 38.403C1036.19 38.4102 1035.92 38.7378 1035.93 39.3858L1035.96 41.4376L1037.62 41.4157L1037.6 39.3519ZM1041.23 32.904C1041.25 33.9199 1041 34.7073 1040.48 35.266C1039.97 35.8248 1039.24 36.1104 1038.29 36.1229L1037.82 36.129C1036.87 36.1414 1036.13 35.8751 1035.6 35.33C1035.07 34.7848 1034.8 34.0043 1034.79 32.9884C1034.78 31.9645 1035.03 31.1771 1035.54 30.6264C1036.04 30.0677 1036.78 29.7821 1037.74 29.7695L1038.2 29.7634C1039.16 29.7508 1039.91 30.0171 1040.43 30.5623C1040.95 31.0995 1041.22 31.8801 1041.23 32.904ZM1038.16 34.8044C1038.89 34.7949 1039.42 34.632 1039.74 34.3157C1040.06 33.9994 1040.22 33.5333 1040.21 32.9174C1040.21 32.3014 1040.04 31.8396 1039.7 31.5319C1039.37 31.2163 1038.84 31.0632 1038.11 31.0727L1037.86 31.076C1037.13 31.0855 1036.61 31.2524 1036.28 31.5767C1035.96 31.893 1035.8 32.3591 1035.81 32.975C1035.82 33.591 1035.99 34.0528 1036.32 34.3605C1036.65 34.6681 1037.18 34.8172 1037.91 34.8077L1038.16 34.8044ZM1038.16 27.3341C1038.82 27.3256 1039.27 27.3236 1039.53 27.3282L1034.79 24.1859L1034.78 22.7581L1040.98 22.6768L1041 23.9127L1037.66 23.9564C1037.03 23.9647 1036.58 23.9665 1036.32 23.962L1041.04 27.0925L1041.06 28.5323L1034.85 28.6136L1034.84 27.3777L1038.16 27.3341ZM1032.89 26.527L1032.95 26.5262C1033.19 26.5231 1033.37 26.4608 1033.48 26.3393C1033.58 26.21 1033.63 26.0013 1033.63 25.7134C1033.62 25.4174 1033.57 25.2101 1033.46 25.0914C1033.35 24.9649 1033.17 24.9032 1032.93 24.9064L1032.87 24.9072L1032.86 23.8273C1033.39 23.8203 1033.77 23.9593 1034.02 24.2441C1034.25 24.5211 1034.37 25.0075 1034.38 25.7035C1034.39 26.3994 1034.28 26.8889 1034.04 27.172C1033.81 27.4552 1033.43 27.6001 1032.91 27.6069L1032.89 26.527ZM1050.98 66.4392L1053.57 67.9654L1053.59 69.4053L1050.36 67.3474L1047.39 69.3545L1047.37 67.8547L1049.72 66.3837L1047.33 64.9509L1047.31 63.511L1050.34 65.4876L1053.51 63.3578L1053.53 64.8577L1050.98 66.4392ZM1053.59 59.8559C1053.6 60.8719 1053.35 61.6592 1052.84 62.218C1052.33 62.7767 1051.59 63.0623 1050.64 63.0748L1050.17 63.0809C1049.22 63.0934 1048.48 62.827 1047.95 62.2819C1047.43 61.7367 1047.16 60.9562 1047.14 59.9403C1047.13 58.9164 1047.38 58.1291 1047.89 57.5783C1048.4 57.0196 1049.13 56.734 1050.09 56.7215L1050.56 56.7153C1051.52 56.7028 1052.26 56.9691 1052.79 57.5142C1053.31 58.0515 1053.57 58.832 1053.59 59.8559ZM1050.52 61.7563C1051.24 61.7468 1051.77 61.5839 1052.09 61.2676C1052.42 60.9514 1052.58 60.4852 1052.57 59.8693C1052.56 59.2534 1052.39 58.7915 1052.06 58.4839C1051.72 58.1682 1051.19 58.0151 1050.47 58.0246L1050.21 58.0279C1049.49 58.0375 1048.96 58.2044 1048.64 58.5286C1048.31 58.8449 1048.16 59.311 1048.16 59.9269C1048.17 60.5429 1048.34 61.0047 1048.67 61.3124C1049.01 61.6201 1049.54 61.7691 1050.26 61.7596L1050.52 61.7563ZM1052.38 56.2271L1052.37 55.9271C1052.37 55.5831 1052.24 55.3368 1051.98 55.1882C1051.71 55.0396 1051.26 54.9616 1050.62 54.9539L1047.2 54.9147L1047.13 49.8032L1053.33 49.7219L1053.35 51.0178L1048.23 51.0849L1048.26 53.7727L1050.75 53.8002C1051.43 53.8153 1051.96 53.8842 1052.36 54.0071C1052.74 54.1301 1053.03 54.3344 1053.21 54.62C1053.38 54.8978 1053.47 55.2807 1053.47 55.7686L1053.48 56.2126L1052.38 56.2271ZM1052.28 48.88L1052.28 48.5801C1052.27 48.2361 1052.14 47.9898 1051.88 47.8411C1051.62 47.6926 1051.16 47.6145 1050.52 47.6069L1047.1 47.5677L1047.03 42.4561L1053.24 42.3749L1053.26 43.6708L1048.13 43.7379L1048.17 46.4257L1050.65 46.4531C1051.33 46.4682 1051.87 46.5372 1052.26 46.6601C1052.65 46.783 1052.93 46.9873 1053.11 47.273C1053.28 47.5508 1053.37 47.9337 1053.38 48.4216L1053.38 48.8656L1052.28 48.88ZM1052.1 38.8027C1051.06 37.4082 1050.25 36.3707 1049.66 35.6904C1049.06 35.0022 1048.58 34.5444 1048.24 34.3169C1047.88 34.0896 1047.54 33.9781 1047.2 33.9825C1046.76 33.9882 1046.45 34.1363 1046.26 34.4268C1046.06 34.7094 1045.97 35.0907 1045.97 35.5707C1045.98 36.1146 1046.11 36.553 1046.35 36.8858C1046.59 37.2187 1046.99 37.5135 1047.55 37.7702L1047.1 38.9162C1046.35 38.614 1045.79 38.1853 1045.42 37.63C1045.05 37.0749 1044.85 36.3734 1044.84 35.5254C1044.83 34.6455 1045.02 33.947 1045.4 33.4299C1045.78 32.9049 1046.35 32.6374 1047.12 32.6274C1047.6 32.6211 1048.06 32.7391 1048.49 32.9814C1048.93 33.2238 1049.42 33.6533 1049.98 34.2702C1050.52 34.8871 1051.2 35.7743 1052 36.9318L1051.95 32.5282L1053.11 32.513L1053.19 38.7884L1052.1 38.8027Z" fill="#172736"/>
<path d="M419.591 288.97L419.586 288.538C419.582 288.234 419.499 288.003 419.337 287.846C419.174 287.688 418.905 287.575 418.528 287.508C418.151 287.433 417.614 287.392 416.918 287.385L412.573 287.334L412.496 281.407L420.655 281.3L420.673 282.668L413.701 282.759L413.745 286.059L417.117 286.098C418.07 286.11 418.807 286.184 419.329 286.321C419.842 286.451 420.217 286.678 420.454 287.003C420.682 287.32 420.8 287.782 420.808 288.39L420.815 288.954L419.591 288.97ZM417.739 278.592C418.395 278.583 418.851 278.582 419.107 278.586L414.374 275.444L414.355 274.016L420.559 273.935L420.575 275.171L417.239 275.214C416.607 275.223 416.159 275.224 415.895 275.22L420.616 278.35L420.635 279.79L414.432 279.871L414.416 278.636L417.739 278.592ZM420.532 269.13L420.533 269.262C420.549 270.47 420.313 271.358 419.824 271.924C419.328 272.491 418.527 272.781 417.423 272.795C416.319 272.81 415.516 272.54 415.013 271.987C414.501 271.434 414.238 270.553 414.222 269.345L414.22 269.213L411.976 269.242L411.959 267.947L414.203 267.917L414.201 267.785C414.186 266.569 414.426 265.678 414.923 265.112C415.411 264.545 416.207 264.255 417.311 264.24C418.415 264.226 419.223 264.495 419.734 265.049C420.237 265.602 420.497 266.487 420.513 267.703L420.515 267.835L422.878 267.804L422.895 269.1L420.532 269.13ZM417.406 271.488C418.214 271.477 418.772 271.294 419.079 270.938C419.387 270.582 419.535 270.04 419.526 269.312L419.523 269.12L415.228 269.176L415.23 269.368C415.24 270.096 415.403 270.634 415.719 270.982C416.036 271.33 416.598 271.498 417.406 271.488ZM419.504 267.668C419.495 266.94 419.332 266.402 419.015 266.054C418.699 265.706 418.136 265.538 417.328 265.548C416.521 265.559 415.963 265.742 415.656 266.098C415.348 266.454 415.199 266.996 415.209 267.724L415.211 267.916L419.507 267.86L419.504 267.668ZM415.27 261.418L415.3 263.662L414.22 263.676L414.144 257.881L415.224 257.867L415.253 260.11L420.377 260.043L420.394 261.351L415.27 261.418ZM420.418 254.012C420.431 255.028 420.181 255.815 419.669 256.374C419.156 256.933 418.424 257.219 417.472 257.231L417.004 257.237C416.052 257.25 415.312 256.983 414.785 256.438C414.258 255.893 413.988 255.112 413.974 254.097C413.961 253.073 414.211 252.285 414.723 251.735C415.228 251.176 415.96 250.89 416.92 250.878L417.388 250.872C418.348 250.859 419.092 251.125 419.619 251.67C420.138 252.208 420.404 252.988 420.418 254.012ZM417.346 255.913C418.074 255.903 418.6 255.74 418.924 255.424C419.248 255.108 419.406 254.641 419.398 254.026C419.39 253.41 419.22 252.948 418.888 252.64C418.555 252.324 418.025 252.171 417.297 252.181L417.046 252.184C416.318 252.194 415.792 252.361 415.468 252.685C415.144 253.001 414.986 253.467 414.994 254.083C415.002 254.699 415.172 255.161 415.504 255.469C415.836 255.776 416.366 255.925 417.094 255.916L417.346 255.913ZM414.037 249.722L413.991 246.218C413.983 245.562 414.108 245.06 414.367 244.713C414.627 244.358 415.021 244.176 415.548 244.169C416.26 244.16 416.741 244.478 416.989 245.123C417.072 244.754 417.241 244.467 417.494 244.264C417.739 244.053 418.046 243.945 418.414 243.94C418.99 243.932 419.428 244.107 419.729 244.463C420.029 244.819 420.184 245.353 420.194 246.065L420.24 249.641L414.037 249.722ZM419.259 246.209C419.251 245.545 418.954 245.217 418.371 245.225C418.075 245.228 417.856 245.311 417.714 245.473C417.572 245.627 417.503 245.884 417.508 246.244L417.536 248.404L419.288 248.381L419.259 246.209ZM416.597 246.352C416.593 246.016 416.518 245.773 416.372 245.623C416.226 245.473 416.017 245.399 415.745 245.403C415.193 245.41 414.921 245.738 414.929 246.386L414.956 248.438L416.624 248.416L416.597 246.352ZM420.233 239.904C420.246 240.92 419.997 241.707 419.484 242.266C418.971 242.825 418.239 243.11 417.287 243.123L416.819 243.129C415.867 243.141 415.127 242.875 414.6 242.33C414.073 241.785 413.803 241.004 413.79 239.988C413.776 238.964 414.026 238.177 414.539 237.626C415.043 237.068 415.776 236.782 416.736 236.77L417.204 236.763C418.164 236.751 418.907 237.017 419.434 237.562C419.953 238.1 420.22 238.88 420.233 239.904ZM417.162 241.804C417.89 241.795 418.416 241.632 418.739 241.316C419.063 240.999 419.221 240.533 419.213 239.917C419.205 239.301 419.035 238.84 418.703 238.532C418.371 238.216 417.841 238.063 417.113 238.073L416.861 238.076C416.133 238.086 415.607 238.252 415.283 238.577C414.959 238.893 414.801 239.359 414.81 239.975C414.818 240.591 414.988 241.053 415.32 241.36C415.652 241.668 416.182 241.817 416.91 241.808L417.162 241.804ZM417.16 234.334C417.816 234.326 418.272 234.324 418.528 234.328L413.794 231.186L413.776 229.758L419.979 229.677L419.995 230.913L416.66 230.956C416.028 230.965 415.58 230.967 415.316 230.962L420.037 234.092L420.056 235.532L413.852 235.614L413.836 234.378L417.16 234.334ZM411.893 233.527L411.953 233.526C412.193 233.523 412.368 233.461 412.478 233.339C412.581 233.21 412.63 233.001 412.626 232.713C412.622 232.417 412.568 232.21 412.462 232.091C412.348 231.965 412.172 231.903 411.932 231.906L411.872 231.907L411.858 230.827C412.385 230.82 412.771 230.959 413.015 231.244C413.251 231.521 413.373 232.008 413.382 232.703C413.391 233.399 413.278 233.889 413.041 234.172C412.805 234.455 412.427 234.6 411.907 234.607L411.893 233.527ZM429.966 271.974L432.554 273.501L432.573 274.941L429.342 272.883L426.368 274.89L426.348 273.39L428.705 271.919L426.31 270.486L426.291 269.046L429.317 271.023L432.494 268.893L432.513 270.393L429.966 271.974ZM432.568 265.391C432.581 266.407 432.331 267.194 431.819 267.753C431.306 268.312 430.574 268.598 429.622 268.61L429.154 268.616C428.202 268.629 427.462 268.362 426.935 267.817C426.408 267.272 426.138 266.491 426.124 265.476C426.111 264.452 426.361 263.664 426.873 263.114C427.378 262.555 428.11 262.269 429.07 262.257L429.538 262.251C430.498 262.238 431.242 262.504 431.769 263.049C432.288 263.587 432.554 264.367 432.568 265.391ZM429.496 267.292C430.224 267.282 430.75 267.119 431.074 266.803C431.398 266.487 431.556 266.021 431.548 265.405C431.54 264.789 431.37 264.327 431.038 264.019C430.705 263.703 430.175 263.55 429.447 263.56L429.196 263.563C428.468 263.573 427.942 263.74 427.618 264.064C427.294 264.38 427.136 264.846 427.144 265.462C427.152 266.078 427.322 266.54 427.654 266.848C427.986 267.155 428.516 267.304 429.244 267.295L429.496 267.292ZM431.356 261.762L431.352 261.462C431.348 261.118 431.216 260.872 430.958 260.723C430.693 260.575 430.239 260.497 429.599 260.489L426.178 260.45L426.112 255.338L432.315 255.257L432.332 256.553L427.208 256.62L427.244 259.308L429.728 259.335C430.408 259.351 430.945 259.42 431.339 259.542C431.725 259.665 432.007 259.87 432.187 260.155C432.359 260.433 432.448 260.816 432.454 261.304L432.46 261.748L431.356 261.762ZM431.26 254.415L431.256 254.115C431.252 253.771 431.12 253.525 430.862 253.376C430.596 253.228 430.143 253.15 429.503 253.142L426.082 253.103L426.015 247.991L432.219 247.91L432.236 249.206L427.112 249.273L427.147 251.961L429.632 251.988C430.312 252.004 430.849 252.072 431.243 252.195C431.629 252.318 431.911 252.523 432.091 252.808C432.263 253.086 432.352 253.469 432.358 253.957L432.364 254.401L431.26 254.415ZM425.73 242.668C426.111 243.063 426.326 243.62 426.376 244.34L425.176 244.355C425.139 243.396 424.743 242.737 423.986 242.379L423.972 241.347L432.132 241.24L432.149 242.584L425.73 242.668Z" fill="#172736"/>
<rect x="423.912" y="51.5278" width="64" height="46" fill="#33D18F" fill-opacity="0.2" stroke="#33D18F" stroke-opacity="0.2" stroke-width="2.5" stroke-linejoin="round"/>
<path d="M442.172 76.8401H444.412V79.5601H443.956V77.2361H442.628V79.5601H442.172V76.8401ZM445.877 79.6001C445.544 79.6001 445.285 79.5134 445.101 79.3401C444.92 79.1667 444.829 78.9214 444.829 78.6041V78.4481C444.829 78.1307 444.921 77.8854 445.105 77.7121C445.289 77.5387 445.545 77.4521 445.873 77.4521C446.199 77.4521 446.444 77.5374 446.609 77.7081C446.777 77.8761 446.861 78.1174 446.861 78.4321C446.861 78.5201 446.859 78.5894 446.853 78.6401L445.253 78.6121C445.256 79.0441 445.468 79.2601 445.889 79.2601C446.135 79.2601 446.341 79.1641 446.509 78.9721L446.793 79.2161C446.705 79.3334 446.583 79.4267 446.425 79.4961C446.268 79.5654 446.085 79.6001 445.877 79.6001ZM446.441 78.3361C446.439 78.1547 446.391 78.0174 446.297 77.9241C446.204 77.8281 446.064 77.7801 445.877 77.7801C445.693 77.7801 445.545 77.8294 445.433 77.9281C445.324 78.0267 445.264 78.1761 445.253 78.3761L446.441 78.3361ZM447.234 77.4921H447.666V77.8161C447.73 77.7067 447.823 77.6201 447.946 77.5561C448.071 77.4894 448.22 77.4561 448.394 77.4561C448.695 77.4561 448.924 77.5454 449.082 77.7241C449.242 77.9001 449.322 78.1414 449.322 78.4481V78.6041C449.322 78.9107 449.242 79.1534 449.082 79.3321C448.924 79.5081 448.695 79.5961 448.394 79.5961C448.22 79.5961 448.071 79.5641 447.946 79.5001C447.823 79.4361 447.73 79.3507 447.666 79.2441V80.3601H447.234V77.4921ZM447.654 78.5721C447.654 78.8067 447.707 78.9801 447.814 79.0921C447.923 79.2014 448.076 79.2561 448.274 79.2561C448.679 79.2561 448.882 79.0281 448.882 78.5721V78.4761C448.882 78.0227 448.679 77.7961 448.274 77.7961C448.082 77.7961 447.93 77.8521 447.818 77.9641C447.708 78.0734 447.654 78.2441 447.654 78.4761V78.5721ZM450.674 79.6001C450.341 79.6001 450.082 79.5134 449.898 79.3401C449.717 79.1667 449.626 78.9214 449.626 78.6041V78.4481C449.626 78.1307 449.718 77.8854 449.902 77.7121C450.086 77.5387 450.342 77.4521 450.67 77.4521C450.995 77.4521 451.241 77.5374 451.406 77.7081C451.574 77.8761 451.658 78.1174 451.658 78.4321C451.658 78.5201 451.655 78.5894 451.65 78.6401L450.05 78.6121C450.053 79.0441 450.265 79.2601 450.686 79.2601C450.931 79.2601 451.138 79.1641 451.306 78.9721L451.59 79.2161C451.502 79.3334 451.379 79.4267 451.222 79.4961C451.065 79.5654 450.882 79.6001 450.674 79.6001ZM451.238 78.3361C451.235 78.1547 451.187 78.0174 451.094 77.9241C451.001 77.8281 450.861 77.7801 450.674 77.7801C450.49 77.7801 450.342 77.8294 450.23 77.9281C450.121 78.0267 450.061 78.1761 450.05 78.3761L451.238 78.3361ZM452.031 77.4921H453.475V77.8521H452.463V79.5601H452.031V77.4921ZM454.729 79.6001C454.39 79.6001 454.129 79.5134 453.945 79.3401C453.761 79.1667 453.669 78.9214 453.669 78.6041V78.4481C453.669 78.1307 453.761 77.8854 453.945 77.7121C454.129 77.5387 454.39 77.4521 454.729 77.4521C455.07 77.4521 455.332 77.5387 455.513 77.7121C455.697 77.8827 455.789 78.1281 455.789 78.4481V78.6041C455.789 78.9241 455.697 79.1707 455.513 79.3441C455.332 79.5147 455.07 79.6001 454.729 79.6001ZM454.109 78.5681C454.109 78.8107 454.161 78.9867 454.265 79.0961C454.369 79.2054 454.524 79.2601 454.729 79.2601C454.934 79.2601 455.089 79.2054 455.193 79.0961C455.3 78.9867 455.353 78.8107 455.353 78.5681V78.4841C455.353 78.2414 455.3 78.0654 455.193 77.9561C455.089 77.8467 454.934 77.7921 454.729 77.7921C454.524 77.7921 454.369 77.8467 454.265 77.9561C454.161 78.0654 454.109 78.2414 454.109 78.4841V78.5681ZM456.187 77.4921H457.355C457.574 77.4921 457.74 77.5361 457.855 77.6241C457.972 77.7121 458.031 77.8441 458.031 78.0201C458.031 78.2574 457.923 78.4161 457.707 78.4961C457.83 78.5254 457.924 78.5827 457.991 78.6681C458.06 78.7507 458.095 78.8534 458.095 78.9761C458.095 79.1681 458.035 79.3134 457.915 79.4121C457.795 79.5107 457.616 79.5601 457.379 79.5601H456.187V77.4921ZM457.335 79.2481C457.556 79.2481 457.667 79.1507 457.667 78.9561C457.667 78.8574 457.64 78.7841 457.587 78.7361C457.536 78.6881 457.451 78.6641 457.331 78.6641H456.611V79.2481H457.335ZM457.299 78.3601C457.411 78.3601 457.492 78.3361 457.543 78.2881C457.594 78.2401 457.619 78.1707 457.619 78.0801C457.619 77.8961 457.511 77.8041 457.295 77.8041H456.611V78.3601H457.299ZM459.432 79.6001C459.093 79.6001 458.832 79.5134 458.648 79.3401C458.464 79.1667 458.372 78.9214 458.372 78.6041V78.4481C458.372 78.1307 458.464 77.8854 458.648 77.7121C458.832 77.5387 459.093 77.4521 459.432 77.4521C459.773 77.4521 460.035 77.5387 460.216 77.7121C460.4 77.8827 460.492 78.1281 460.492 78.4481V78.6041C460.492 78.9241 460.4 79.1707 460.216 79.3441C460.035 79.5147 459.773 79.6001 459.432 79.6001ZM458.812 78.5681C458.812 78.8107 458.864 78.9867 458.968 79.0961C459.072 79.2054 459.227 79.2601 459.432 79.2601C459.637 79.2601 459.792 79.2054 459.896 79.0961C460.003 78.9867 460.056 78.8107 460.056 78.5681V78.4841C460.056 78.2414 460.003 78.0654 459.896 77.9561C459.792 77.8467 459.637 77.7921 459.432 77.7921C459.227 77.7921 459.072 77.8467 458.968 77.9561C458.864 78.0654 458.812 78.2414 458.812 78.4841V78.5681ZM460.89 77.4921H461.322V77.8161C461.386 77.7067 461.479 77.6201 461.602 77.5561C461.727 77.4894 461.877 77.4561 462.05 77.4561C462.351 77.4561 462.581 77.5454 462.738 77.7241C462.898 77.9001 462.978 78.1414 462.978 78.4481V78.6041C462.978 78.9107 462.898 79.1534 462.738 79.3321C462.581 79.5081 462.351 79.5961 462.05 79.5961C461.877 79.5961 461.727 79.5641 461.602 79.5001C461.479 79.4361 461.386 79.3507 461.322 79.2441V80.3601H460.89V77.4921ZM461.31 78.5721C461.31 78.8067 461.363 78.9801 461.47 79.0921C461.579 79.2014 461.733 79.2561 461.93 79.2561C462.335 79.2561 462.538 79.0281 462.538 78.5721V78.4761C462.538 78.0227 462.335 77.7961 461.93 77.7961C461.738 77.7961 461.586 77.8521 461.474 77.9641C461.365 78.0734 461.31 78.2441 461.31 78.4761V78.5721ZM463.374 77.4921H463.806V78.3961H463.926L464.782 77.4921H465.306L464.402 78.4281L465.354 79.5601H464.81L464.05 78.6561H463.806V79.5601H463.374V77.4921ZM466.194 79.5961C465.957 79.5961 465.77 79.5454 465.634 79.4441C465.498 79.3401 465.43 79.1947 465.43 79.0081C465.43 78.7947 465.505 78.6374 465.654 78.5361C465.803 78.4347 466.034 78.3841 466.346 78.3841H466.926V78.2441C466.926 78.0867 466.887 77.9721 466.81 77.9001C466.735 77.8254 466.615 77.7881 466.45 77.7881C466.314 77.7881 466.193 77.8147 466.086 77.8681C465.982 77.9187 465.898 77.9907 465.834 78.0841L465.53 77.9001C465.615 77.7587 465.741 77.6494 465.906 77.5721C466.071 77.4947 466.255 77.4561 466.458 77.4561C466.741 77.4561 466.958 77.5174 467.11 77.6401C467.262 77.7627 467.338 77.9601 467.338 78.2321V79.5601H466.942V79.2201C466.875 79.3454 466.775 79.4401 466.642 79.5041C466.511 79.5654 466.362 79.5961 466.194 79.5961ZM465.846 78.9761C465.846 79.0747 465.886 79.1481 465.966 79.1961C466.046 79.2414 466.153 79.2641 466.286 79.2641C466.473 79.2641 466.626 79.2241 466.746 79.1441C466.866 79.0614 466.926 78.9481 466.926 78.8041V78.6721H466.358C466.182 78.6721 466.053 78.6974 465.97 78.7481C465.887 78.7987 465.846 78.8747 465.846 78.9761Z" fill="#172736"/>
<rect x="449.64" y="67.5278" width="11.375" height="7.25" rx="1.6875" fill="#33D18F" fill-opacity="0.2"/>
<path d="M452.412 72.6528C452.664 71.6238 453.083 70.7508 453.668 70.0338H451.94V69.5928H454.19V69.9888C453.875 70.3608 453.62 70.7658 453.425 71.2038C453.233 71.6388 453.086 72.1218 452.984 72.6528H452.412ZM455.364 70.2453C455.214 70.3863 455.004 70.4643 454.734 70.4793V70.0293C455.094 70.0203 455.343 69.8748 455.481 69.5928H455.868V72.6528H455.364V70.2453ZM456.952 72.6528C457.204 71.6238 457.622 70.7508 458.207 70.0338H456.479V69.5928H458.729V69.9888C458.414 70.3608 458.159 70.7658 457.964 71.2038C457.772 71.6388 457.625 72.1218 457.523 72.6528H456.952Z" fill="#172736"/>
<rect x="398.912" y="1.25" width="43" height="50" fill="#33D18F" fill-opacity="0.2" stroke="#33D18F" stroke-opacity="0.2" stroke-width="2.5" stroke-linejoin="round"/>
<path d="M407.345 28.53H409.585V31.25H409.129V28.926H407.801V31.25H407.345V28.53ZM411.051 31.29C410.718 31.29 410.459 31.2033 410.275 31.03C410.094 30.8567 410.003 30.6113 410.003 30.294V30.138C410.003 29.8207 410.095 29.5753 410.279 29.402C410.463 29.2287 410.719 29.142 411.047 29.142C411.372 29.142 411.618 29.2273 411.783 29.398C411.951 29.566 412.035 29.8073 412.035 30.122C412.035 30.21 412.032 30.2793 412.027 30.33L410.427 30.302C410.43 30.734 410.642 30.95 411.063 30.95C411.308 30.95 411.515 30.854 411.683 30.662L411.967 30.906C411.879 31.0233 411.756 31.1167 411.599 31.186C411.442 31.2553 411.259 31.29 411.051 31.29ZM411.615 30.026C411.612 29.8447 411.564 29.7073 411.471 29.614C411.378 29.518 411.238 29.47 411.051 29.47C410.867 29.47 410.719 29.5193 410.607 29.618C410.498 29.7167 410.438 29.866 410.427 30.066L411.615 30.026ZM412.408 29.182H412.84V29.506C412.904 29.3967 412.997 29.31 413.12 29.246C413.245 29.1793 413.394 29.146 413.568 29.146C413.869 29.146 414.098 29.2353 414.256 29.414C414.416 29.59 414.496 29.8313 414.496 30.138V30.294C414.496 30.6007 414.416 30.8433 414.256 31.022C414.098 31.198 413.869 31.286 413.568 31.286C413.394 31.286 413.245 31.254 413.12 31.19C412.997 31.126 412.904 31.0407 412.84 30.934V32.05H412.408V29.182ZM412.828 30.262C412.828 30.4967 412.881 30.67 412.988 30.782C413.097 30.8913 413.25 30.946 413.448 30.946C413.853 30.946 414.056 30.718 414.056 30.262V30.166C414.056 29.7127 413.853 29.486 413.448 29.486C413.256 29.486 413.104 29.542 412.992 29.654C412.882 29.7633 412.828 29.934 412.828 30.166V30.262ZM415.848 31.29C415.515 31.29 415.256 31.2033 415.072 31.03C414.891 30.8567 414.8 30.6113 414.8 30.294V30.138C414.8 29.8207 414.892 29.5753 415.076 29.402C415.26 29.2287 415.516 29.142 415.844 29.142C416.169 29.142 416.415 29.2273 416.58 29.398C416.748 29.566 416.832 29.8073 416.832 30.122C416.832 30.21 416.829 30.2793 416.824 30.33L415.224 30.302C415.227 30.734 415.439 30.95 415.86 30.95C416.105 30.95 416.312 30.854 416.48 30.662L416.764 30.906C416.676 31.0233 416.553 31.1167 416.396 31.186C416.239 31.2553 416.056 31.29 415.848 31.29ZM416.412 30.026C416.409 29.8447 416.361 29.7073 416.268 29.614C416.175 29.518 416.035 29.47 415.848 29.47C415.664 29.47 415.516 29.5193 415.404 29.618C415.295 29.7167 415.235 29.866 415.224 30.066L416.412 30.026ZM417.204 29.182H418.648V29.542H417.636V31.25H417.204V29.182ZM419.903 31.29C419.564 31.29 419.303 31.2033 419.119 31.03C418.935 30.8567 418.843 30.6113 418.843 30.294V30.138C418.843 29.8207 418.935 29.5753 419.119 29.402C419.303 29.2287 419.564 29.142 419.903 29.142C420.244 29.142 420.505 29.2287 420.687 29.402C420.871 29.5727 420.963 29.818 420.963 30.138V30.294C420.963 30.614 420.871 30.8607 420.687 31.034C420.505 31.2047 420.244 31.29 419.903 31.29ZM419.283 30.258C419.283 30.5007 419.335 30.6767 419.439 30.786C419.543 30.8953 419.697 30.95 419.903 30.95C420.108 30.95 420.263 30.8953 420.367 30.786C420.473 30.6767 420.527 30.5007 420.527 30.258V30.174C420.527 29.9313 420.473 29.7553 420.367 29.646C420.263 29.5367 420.108 29.482 419.903 29.482C419.697 29.482 419.543 29.5367 419.439 29.646C419.335 29.7553 419.283 29.9313 419.283 30.174V30.258ZM421.361 29.182H422.529C422.747 29.182 422.914 29.226 423.029 29.314C423.146 29.402 423.205 29.534 423.205 29.71C423.205 29.9473 423.097 30.106 422.881 30.186C423.003 30.2153 423.098 30.2727 423.165 30.358C423.234 30.4407 423.269 30.5433 423.269 30.666C423.269 30.858 423.209 31.0033 423.089 31.102C422.969 31.2007 422.79 31.25 422.553 31.25H421.361V29.182ZM422.509 30.938C422.73 30.938 422.841 30.8407 422.841 30.646C422.841 30.5473 422.814 30.474 422.761 30.426C422.71 30.378 422.625 30.354 422.505 30.354H421.785V30.938H422.509ZM422.473 30.05C422.585 30.05 422.666 30.026 422.717 29.978C422.767 29.93 422.793 29.8607 422.793 29.77C422.793 29.586 422.685 29.494 422.469 29.494H421.785V30.05H422.473ZM424.606 31.29C424.267 31.29 424.006 31.2033 423.822 31.03C423.638 30.8567 423.546 30.6113 423.546 30.294V30.138C423.546 29.8207 423.638 29.5753 423.822 29.402C424.006 29.2287 424.267 29.142 424.606 29.142C424.947 29.142 425.209 29.2287 425.39 29.402C425.574 29.5727 425.666 29.818 425.666 30.138V30.294C425.666 30.614 425.574 30.8607 425.39 31.034C425.209 31.2047 424.947 31.29 424.606 31.29ZM423.986 30.258C423.986 30.5007 424.038 30.6767 424.142 30.786C424.246 30.8953 424.401 30.95 424.606 30.95C424.811 30.95 424.966 30.8953 425.07 30.786C425.177 30.6767 425.23 30.5007 425.23 30.258V30.174C425.23 29.9313 425.177 29.7553 425.07 29.646C424.966 29.5367 424.811 29.482 424.606 29.482C424.401 29.482 424.246 29.5367 424.142 29.646C424.038 29.7553 423.986 29.9313 423.986 30.174V30.258ZM426.064 29.182H426.496V29.506C426.56 29.3967 426.653 29.31 426.776 29.246C426.901 29.1793 427.05 29.146 427.224 29.146C427.525 29.146 427.754 29.2353 427.912 29.414C428.072 29.59 428.152 29.8313 428.152 30.138V30.294C428.152 30.6007 428.072 30.8433 427.912 31.022C427.754 31.198 427.525 31.286 427.224 31.286C427.05 31.286 426.901 31.254 426.776 31.19C426.653 31.126 426.56 31.0407 426.496 30.934V32.05H426.064V29.182ZM426.484 30.262C426.484 30.4967 426.537 30.67 426.644 30.782C426.753 30.8913 426.906 30.946 427.104 30.946C427.509 30.946 427.712 30.718 427.712 30.262V30.166C427.712 29.7127 427.509 29.486 427.104 29.486C426.912 29.486 426.76 29.542 426.648 29.654C426.538 29.7633 426.484 29.934 426.484 30.166V30.262ZM428.548 29.182H428.98V30.086H429.1L429.956 29.182H430.48L429.576 30.118L430.528 31.25H429.984L429.224 30.346H428.98V31.25H428.548V29.182ZM431.368 31.286C431.13 31.286 430.944 31.2353 430.808 31.134C430.672 31.03 430.604 30.8847 430.604 30.698C430.604 30.4847 430.678 30.3273 430.828 30.226C430.977 30.1247 431.208 30.074 431.52 30.074H432.1V29.934C432.1 29.7767 432.061 29.662 431.984 29.59C431.909 29.5153 431.789 29.478 431.624 29.478C431.488 29.478 431.366 29.5047 431.26 29.558C431.156 29.6087 431.072 29.6807 431.008 29.774L430.704 29.59C430.789 29.4487 430.914 29.3393 431.08 29.262C431.245 29.1847 431.429 29.146 431.632 29.146C431.914 29.146 432.132 29.2073 432.284 29.33C432.436 29.4527 432.512 29.65 432.512 29.922V31.25H432.116V30.91C432.049 31.0353 431.949 31.13 431.816 31.194C431.685 31.2553 431.536 31.286 431.368 31.286ZM431.02 30.666C431.02 30.7647 431.06 30.838 431.14 30.886C431.22 30.9313 431.326 30.954 431.46 30.954C431.646 30.954 431.8 30.914 431.92 30.834C432.04 30.7513 432.1 30.638 432.1 30.494V30.362H431.532C431.356 30.362 431.226 30.3873 431.144 30.438C431.061 30.4887 431.02 30.5647 431.02 30.666Z" fill="#172736"/>
<rect x="415.912" y="18.25" width="7" height="8" rx="1.6875" fill="#33D18F" fill-opacity="0.2"/>
<path d="M416.406 23.75C416.658 22.721 417.077 21.848 417.662 21.131H415.934V20.69H418.184V21.086C417.869 21.458 417.614 21.863 417.419 22.301C417.227 22.736 417.08 23.219 416.978 23.75H416.406ZM419.358 21.3425C419.208 21.4835 418.998 21.5615 418.728 21.5765V21.1265C419.088 21.1175 419.337 20.972 419.475 20.69H419.862V23.75H419.358V21.3425ZM421.675 23.804C421.369 23.804 421.114 23.75 420.91 23.642C420.706 23.534 420.548 23.3615 420.437 23.1245L420.829 22.8995C420.916 23.0705 421.03 23.195 421.171 23.273C421.315 23.351 421.486 23.39 421.684 23.39C422.17 23.39 422.413 23.18 422.413 22.76C422.413 22.553 422.359 22.4015 422.251 22.3055C422.143 22.2095 421.973 22.1615 421.742 22.1615C421.595 22.1615 421.462 22.1825 421.342 22.2245C421.225 22.2665 421.106 22.328 420.986 22.409L420.608 22.247L420.766 20.69H422.755V21.1265H421.157L421.063 21.995C421.288 21.848 421.559 21.7745 421.877 21.7745C422.567 21.7745 422.912 22.1015 422.912 22.7555C422.912 23.1035 422.807 23.366 422.597 23.543C422.39 23.717 422.083 23.804 421.675 23.804Z" fill="#172736"/>
<rect x="30.9116" y="138.25" width="52" height="61" fill="#33D18F" fill-opacity="0.2" stroke="#33D18F" stroke-opacity="0.2" stroke-width="2.5" stroke-linejoin="round"/>
<path d="M42.8455 171.53H45.0855V174.25H44.6295V171.926H43.3015V174.25H42.8455V171.53ZM46.5511 174.29C46.2177 174.29 45.9591 174.203 45.7751 174.03C45.5937 173.857 45.5031 173.611 45.5031 173.294V173.138C45.5031 172.821 45.5951 172.575 45.7791 172.402C45.9631 172.229 46.2191 172.142 46.5471 172.142C46.8724 172.142 47.1177 172.227 47.2831 172.398C47.4511 172.566 47.5351 172.807 47.5351 173.122C47.5351 173.21 47.5324 173.279 47.5271 173.33L45.9271 173.302C45.9297 173.734 46.1417 173.95 46.5631 173.95C46.8084 173.95 47.0151 173.854 47.1831 173.662L47.4671 173.906C47.3791 174.023 47.2564 174.117 47.0991 174.186C46.9417 174.255 46.7591 174.29 46.5511 174.29ZM47.1151 173.026C47.1124 172.845 47.0644 172.707 46.9711 172.614C46.8777 172.518 46.7377 172.47 46.5511 172.47C46.3671 172.47 46.2191 172.519 46.1071 172.618C45.9977 172.717 45.9377 172.866 45.9271 173.066L47.1151 173.026ZM47.9076 172.182H48.3396V172.506C48.4036 172.397 48.4969 172.31 48.6196 172.246C48.7449 172.179 48.8942 172.146 49.0676 172.146C49.3689 172.146 49.5982 172.235 49.7556 172.414C49.9156 172.59 49.9956 172.831 49.9956 173.138V173.294C49.9956 173.601 49.9156 173.843 49.7556 174.022C49.5982 174.198 49.3689 174.286 49.0676 174.286C48.8942 174.286 48.7449 174.254 48.6196 174.19C48.4969 174.126 48.4036 174.041 48.3396 173.934V175.05H47.9076V172.182ZM48.3276 173.262C48.3276 173.497 48.3809 173.67 48.4876 173.782C48.5969 173.891 48.7502 173.946 48.9476 173.946C49.3529 173.946 49.5556 173.718 49.5556 173.262V173.166C49.5556 172.713 49.3529 172.486 48.9476 172.486C48.7556 172.486 48.6036 172.542 48.4916 172.654C48.3822 172.763 48.3276 172.934 48.3276 173.166V173.262ZM51.348 174.29C51.0146 174.29 50.756 174.203 50.572 174.03C50.3906 173.857 50.3 173.611 50.3 173.294V173.138C50.3 172.821 50.392 172.575 50.576 172.402C50.76 172.229 51.016 172.142 51.344 172.142C51.6693 172.142 51.9146 172.227 52.08 172.398C52.248 172.566 52.332 172.807 52.332 173.122C52.332 173.21 52.3293 173.279 52.324 173.33L50.724 173.302C50.7266 173.734 50.9386 173.95 51.36 173.95C51.6053 173.95 51.812 173.854 51.98 173.662L52.264 173.906C52.176 174.023 52.0533 174.117 51.896 174.186C51.7386 174.255 51.556 174.29 51.348 174.29ZM51.912 173.026C51.9093 172.845 51.8613 172.707 51.768 172.614C51.6746 172.518 51.5346 172.47 51.348 172.47C51.164 172.47 51.016 172.519 50.904 172.618C50.7946 172.717 50.7346 172.866 50.724 173.066L51.912 173.026ZM52.7045 172.182H54.1485V172.542H53.1365V174.25H52.7045V172.182ZM55.4028 174.29C55.0642 174.29 54.8028 174.203 54.6188 174.03C54.4348 173.857 54.3428 173.611 54.3428 173.294V173.138C54.3428 172.821 54.4348 172.575 54.6188 172.402C54.8028 172.229 55.0642 172.142 55.4028 172.142C55.7442 172.142 56.0055 172.229 56.1868 172.402C56.3708 172.573 56.4628 172.818 56.4628 173.138V173.294C56.4628 173.614 56.3708 173.861 56.1868 174.034C56.0055 174.205 55.7442 174.29 55.4028 174.29ZM54.7828 173.258C54.7828 173.501 54.8348 173.677 54.9388 173.786C55.0428 173.895 55.1975 173.95 55.4028 173.95C55.6082 173.95 55.7628 173.895 55.8668 173.786C55.9735 173.677 56.0268 173.501 56.0268 173.258V173.174C56.0268 172.931 55.9735 172.755 55.8668 172.646C55.7628 172.537 55.6082 172.482 55.4028 172.482C55.1975 172.482 55.0428 172.537 54.9388 172.646C54.8348 172.755 54.7828 172.931 54.7828 173.174V173.258ZM56.8607 172.182H58.0287C58.2474 172.182 58.414 172.226 58.5287 172.314C58.646 172.402 58.7047 172.534 58.7047 172.71C58.7047 172.947 58.5967 173.106 58.3807 173.186C58.5034 173.215 58.598 173.273 58.6647 173.358C58.734 173.441 58.7687 173.543 58.7687 173.666C58.7687 173.858 58.7087 174.003 58.5887 174.102C58.4687 174.201 58.29 174.25 58.0527 174.25H56.8607V172.182ZM58.0087 173.938C58.23 173.938 58.3407 173.841 58.3407 173.646C58.3407 173.547 58.314 173.474 58.2607 173.426C58.21 173.378 58.1247 173.354 58.0047 173.354H57.2847V173.938H58.0087ZM57.9727 173.05C58.0847 173.05 58.166 173.026 58.2167 172.978C58.2674 172.93 58.2927 172.861 58.2927 172.77C58.2927 172.586 58.1847 172.494 57.9687 172.494H57.2847V173.05H57.9727ZM60.1059 174.29C59.7673 174.29 59.5059 174.203 59.3219 174.03C59.1379 173.857 59.0459 173.611 59.0459 173.294V173.138C59.0459 172.821 59.1379 172.575 59.3219 172.402C59.5059 172.229 59.7673 172.142 60.1059 172.142C60.4473 172.142 60.7086 172.229 60.8899 172.402C61.0739 172.573 61.1659 172.818 61.1659 173.138V173.294C61.1659 173.614 61.0739 173.861 60.8899 174.034C60.7086 174.205 60.4473 174.29 60.1059 174.29ZM59.4859 173.258C59.4859 173.501 59.5379 173.677 59.6419 173.786C59.7459 173.895 59.9006 173.95 60.1059 173.95C60.3113 173.95 60.4659 173.895 60.5699 173.786C60.6766 173.677 60.7299 173.501 60.7299 173.258V173.174C60.7299 172.931 60.6766 172.755 60.5699 172.646C60.4659 172.537 60.3113 172.482 60.1059 172.482C59.9006 172.482 59.7459 172.537 59.6419 172.646C59.5379 172.755 59.4859 172.931 59.4859 173.174V173.258ZM61.5638 172.182H61.9958V172.506C62.0598 172.397 62.1532 172.31 62.2758 172.246C62.4012 172.179 62.5505 172.146 62.7238 172.146C63.0252 172.146 63.2545 172.235 63.4118 172.414C63.5718 172.59 63.6518 172.831 63.6518 173.138V173.294C63.6518 173.601 63.5718 173.843 63.4118 174.022C63.2545 174.198 63.0252 174.286 62.7238 174.286C62.5505 174.286 62.4012 174.254 62.2758 174.19C62.1532 174.126 62.0598 174.041 61.9958 173.934V175.05H61.5638V172.182ZM61.9838 173.262C61.9838 173.497 62.0372 173.67 62.1438 173.782C62.2532 173.891 62.4065 173.946 62.6038 173.946C63.0092 173.946 63.2118 173.718 63.2118 173.262V173.166C63.2118 172.713 63.0092 172.486 62.6038 172.486C62.4118 172.486 62.2598 172.542 62.1478 172.654C62.0385 172.763 61.9838 172.934 61.9838 173.166V173.262ZM64.0482 172.182H64.4802V173.086H64.6002L65.4562 172.182H65.9802L65.0762 173.118L66.0282 174.25H65.4842L64.7242 173.346H64.4802V174.25H64.0482V172.182ZM66.8677 174.286C66.6304 174.286 66.4437 174.235 66.3077 174.134C66.1717 174.03 66.1037 173.885 66.1037 173.698C66.1037 173.485 66.1784 173.327 66.3277 173.226C66.477 173.125 66.7077 173.074 67.0197 173.074H67.5997V172.934C67.5997 172.777 67.561 172.662 67.4837 172.59C67.409 172.515 67.289 172.478 67.1237 172.478C66.9877 172.478 66.8664 172.505 66.7597 172.558C66.6557 172.609 66.5717 172.681 66.5077 172.774L66.2037 172.59C66.289 172.449 66.4144 172.339 66.5797 172.262C66.745 172.185 66.929 172.146 67.1317 172.146C67.4144 172.146 67.6317 172.207 67.7837 172.33C67.9357 172.453 68.0117 172.65 68.0117 172.922V174.25H67.6157V173.91C67.549 174.035 67.449 174.13 67.3157 174.194C67.185 174.255 67.0357 174.286 66.8677 174.286ZM66.5197 173.666C66.5197 173.765 66.5597 173.838 66.6397 173.886C66.7197 173.931 66.8264 173.954 66.9597 173.954C67.1464 173.954 67.2997 173.914 67.4197 173.834C67.5397 173.751 67.5997 173.638 67.5997 173.494V173.362H67.0317C66.8557 173.362 66.7264 173.387 66.6437 173.438C66.561 173.489 66.5197 173.565 66.5197 173.666Z" fill="#172736"/>
<rect x="51.9116" y="159.25" width="8" height="10" rx="1.6875" fill="#33D18F" fill-opacity="0.2"/>
<path d="M52.8514 165.75C53.1034 164.721 53.5219 163.848 54.1069 163.131H52.3789V162.69H54.6289V163.086C54.3139 163.458 54.0589 163.863 53.8639 164.301C53.6719 164.736 53.5249 165.219 53.4229 165.75H52.8514ZM56.3714 165.804C55.9394 165.804 55.6079 165.684 55.3769 165.444C55.1489 165.204 55.0349 164.848 55.0349 164.377V164.062C55.0349 163.591 55.1489 163.236 55.3769 162.996C55.6079 162.756 55.9394 162.636 56.3714 162.636C56.8004 162.636 57.1289 162.756 57.3569 162.996C57.5879 163.236 57.7034 163.591 57.7034 164.062V164.377C57.7034 164.848 57.5879 165.204 57.3569 165.444C57.1289 165.684 56.8004 165.804 56.3714 165.804ZM55.5524 164.35C55.5524 164.716 55.6214 164.98 55.7594 165.142C55.9004 165.301 56.1044 165.381 56.3714 165.381C56.6354 165.381 56.8364 165.301 56.9744 165.142C57.1154 164.98 57.1859 164.716 57.1859 164.35V164.089C57.1859 163.723 57.1154 163.461 56.9744 163.302C56.8364 163.14 56.6354 163.059 56.3714 163.059C56.1044 163.059 55.9004 163.14 55.7594 163.302C55.6214 163.461 55.5524 163.723 55.5524 164.089V164.35ZM58.8241 163.342C58.6741 163.483 58.4641 163.561 58.1941 163.576V163.126C58.5541 163.117 58.8031 162.972 58.9411 162.69H59.3281V165.75H58.8241V163.342Z" fill="#172736"/>
<path d="M844.912 139.105L931.912 138.528V123.528H935.912V111.528H907.412L907.278 96.5278H845.046L844.912 139.105Z" fill="#FFEDD6" stroke="#FFCF94" stroke-width="2.5" stroke-linecap="round" stroke-linejoin="round"/>
<path d="M873.336 124.538V120.713H874.225L875.412 123.846L876.593 120.713H877.476V124.538H876.852L876.869 121.444L875.704 124.538H875.097L873.932 121.444L873.949 124.538H873.336ZM878.765 123.188C878.765 123.495 878.764 123.709 878.76 123.829L880.262 121.629H880.931V124.538H880.352V122.974C880.352 122.678 880.354 122.468 880.357 122.344L878.861 124.538H878.186V121.629H878.765V123.188ZM881.619 121.629H882.227V122.799H883.712V121.629H884.319V124.538H883.712V123.3H882.227V124.538H881.619V121.629ZM885.588 123.188C885.588 123.495 885.586 123.709 885.582 123.829L887.084 121.629H887.754V124.538H887.174V122.974C887.174 122.678 887.176 122.468 887.18 122.344L885.684 124.538H885.009V121.629H885.588V123.188ZM888.29 122.704H889.798V123.199H888.29V122.704ZM890.332 121.629H890.939V122.901H891.108L892.312 121.629H893.048L891.777 122.946L893.116 124.538H892.351L891.282 123.266H890.939V124.538H890.332V121.629ZM893.666 125.139H893.879C894.007 125.139 894.108 125.121 894.183 125.083C894.262 125.049 894.329 124.988 894.386 124.898C894.442 124.811 894.502 124.68 894.566 124.504H894.273L893.216 121.629H893.885L894.718 124.088H894.723L895.528 121.629H896.174L895.111 124.605C895.018 124.875 894.922 125.085 894.824 125.235C894.727 125.385 894.611 125.494 894.476 125.561C894.341 125.629 894.172 125.663 893.969 125.663H893.666V125.139ZM897.692 123.334L896.961 124.538H896.286L897.27 123.036L896.348 121.629H897.051L897.726 122.743L898.412 121.629H899.087L898.142 123.036L899.121 124.538H898.418L897.692 123.334ZM899.566 121.629H900.173V122.799H901.658V121.629H902.266V124.538H901.658V123.3H900.173V124.538H899.566V121.629ZM903.63 123.452C903.371 123.414 903.174 123.321 903.039 123.171C902.904 123.021 902.837 122.814 902.837 122.552C902.837 122.248 902.929 122.019 903.112 121.866C903.3 121.708 903.566 121.629 903.911 121.629H905.503V124.538H904.912V123.469H904.277L903.489 124.538H902.764L903.63 123.452ZM903.444 122.552C903.444 122.856 903.613 123.008 903.95 123.008H904.912V122.091H903.95C903.613 122.091 903.444 122.244 903.444 122.552Z" fill="#172736"/>
<rect x="883.353" y="111.528" width="8" height="6" rx="1.5" fill="#FFCF94"/>
<rect x="883.353" y="111.528" width="8" height="6" rx="1.5" stroke="#FFA436" stroke-opacity="0.2" stroke-width="0.5"/>
<path d="M885.667 115.528C885.891 114.613 886.263 113.837 886.783 113.2H885.247V112.808H887.247V113.16C886.967 113.49 886.74 113.85 886.567 114.24C886.396 114.626 886.266 115.056 886.175 115.528H885.667ZM888.573 115.568C888.243 115.568 887.987 115.481 887.805 115.308C887.624 115.134 887.533 114.889 887.533 114.572V114.416C887.533 114.098 887.624 113.853 887.805 113.68C887.987 113.506 888.244 113.42 888.577 113.42C888.825 113.42 889.029 113.473 889.189 113.58C889.352 113.686 889.464 113.84 889.525 114.04L889.129 114.16C889.049 113.893 888.865 113.76 888.577 113.76C888.38 113.76 888.229 113.816 888.125 113.928C888.021 114.037 887.969 114.212 887.969 114.452V114.536C887.969 114.994 888.172 115.224 888.577 115.224C888.868 115.224 889.053 115.089 889.133 114.82L889.521 114.936C889.46 115.138 889.349 115.294 889.189 115.404C889.029 115.513 888.824 115.568 888.573 115.568Z" fill="#172736"/>
</svg>
