<svg width="1128" height="501" viewBox="0 0 1128 501" fill="none" xmlns="http://www.w3.org/2000/svg">
<g id="b1f7">
<g id="Ellipse 30">
<path fill-rule="evenodd" clip-rule="evenodd" d="M596.626 353.533L567.935 344.036L561.17 365.71L590.184 375.466L596.626 353.533Z" fill="white"/>
<path d="M567.935 344.036L596.626 353.533L590.184 375.466L561.17 365.71L567.935 344.036Z" fill="white"/>
<path d="M595.567 294.52L581.016 289.633L572.244 314.536L587.045 319.304L595.567 294.52Z" fill="white"/>
<path d="M564.341 310.928C564.164 311.456 564.453 312.027 564.983 312.198L572.244 314.536L581.016 289.633L572.449 286.756L564.341 310.928Z" fill="white"/>
<path d="M586.608 259.834L581.993 258.306L572.449 286.756L581.016 289.633L590.997 261.297L586.608 259.834Z" fill="white"/>
<path d="M334.797 341.563C359.796 356.956 385.568 371.215 412.04 384.269L455.506 292.42C431.993 280.914 409.102 268.334 386.896 254.744L334.797 341.563Z" fill="white"/>
<path d="M300.507 251.638L267.681 296.158C289.36 312.219 311.75 327.373 334.797 341.563L386.896 254.744C366.542 242.288 346.764 228.983 327.611 214.879L311.381 236.89L300.507 251.638Z" fill="white"/>
<path d="M245.556 184.474C245.962 184.883 246.629 184.865 247.012 184.434L264.482 164.819C264.849 164.408 264.813 163.777 264.403 163.409C257.804 157.479 251.3 151.445 244.894 145.31L225.641 164.44L245.556 184.474Z" fill="white"/>
<path fill-rule="evenodd" clip-rule="evenodd" d="M596.626 353.533L567.935 344.036L561.17 365.71L590.184 375.466L596.626 353.533Z" fill="white"/>
<path fill-rule="evenodd" clip-rule="evenodd" d="M571.77 445.631C599.894 453.575 628.551 460.248 657.676 465.584C712.096 475.554 768.147 480.854 825.4 481.056C826.53 481.06 827.66 481.062 828.791 481.062H995.344H1085.27C1085.82 481.062 1086.27 480.614 1086.27 480.062V381.018H1105.93C1115.77 381.018 1126.75 374.292 1126.75 363.511V333.449C1126.75 332.896 1126.3 332.449 1125.75 332.449H1107.91C1107.36 332.449 1106.91 332.001 1106.91 331.449V265.725C1106.91 265.173 1106.46 264.725 1105.91 264.725H1062.91H999.51V253.078C999.51 252.526 999.062 252.078 998.51 252.078H826.466L826.054 252.079C825.836 252.079 825.618 252.079 825.4 252.079C758.385 252.079 693.484 242.837 631.948 225.546L625.409 249.495L594.271 238.472C593.735 238.282 593.148 238.577 592.981 239.12L586.608 259.834L590.997 261.297L581.016 289.633L595.567 294.52L587.045 319.304L572.244 314.536L564.983 312.198C564.453 312.027 564.164 311.456 564.341 310.928L572.449 286.756L581.993 258.306L586.608 259.834L592.981 239.12C593.148 238.577 593.735 238.282 594.271 238.472L625.409 249.495L631.948 225.546C610.781 219.598 590.012 212.698 569.693 204.894C518.402 185.195 469.974 159.736 425.229 129.299C416.766 123.542 408.434 117.606 400.239 111.498L392.478 105.292C371.239 89.0613 350.947 71.6547 331.699 53.1693C321.21 43.0966 311.032 32.7036 301.179 22.0061C300.807 21.602 300.178 21.5729 299.771 21.9415L287.259 33.2638L258.857 1.5295C258.667 1.31754 258.396 1.1964 258.112 1.1964H221.072H152.052H124.75H82.1836L1 1.1964C34.6002 61.2228 76.7976 117.197 122.537 168.203C125.919 171.821 129.332 175.413 132.775 178.977L132.946 179.153L141.287 171.632L158.176 156.165L170.029 145.31L189.186 127.766L225.641 164.44L244.894 145.31C251.3 151.445 257.804 157.479 264.403 163.409C264.813 163.777 264.849 164.408 264.482 164.819L247.012 184.434C246.629 184.865 245.962 184.883 245.556 184.474L225.641 164.44L189.186 127.766L170.029 145.31L158.176 156.165L141.287 171.632L132.946 179.153C143.448 190.021 154.229 200.644 165.279 211.042C175.841 220.98 186.647 230.713 197.69 240.258C208.234 249.373 218.992 258.317 229.958 267.106C230.658 267.666 231.358 268.226 232.059 268.785C243.705 278.076 255.582 287.194 267.681 296.158L300.507 251.638L311.381 236.89L327.611 214.879C346.764 228.983 366.542 242.288 386.896 254.744C409.102 268.334 431.993 280.914 455.506 292.42L412.04 384.269C436.979 396.567 462.54 407.796 488.663 417.895C489.52 418.226 490.377 418.557 491.236 418.885C500.802 422.552 510.444 426.067 520.157 429.428C537.147 435.306 554.356 440.712 571.77 445.631ZM596.626 353.533L567.935 344.036L561.17 365.71L590.184 375.466L596.626 353.533Z" fill="white"/>
<path d="M267.681 296.158L300.507 251.638L311.381 236.89M267.681 296.158C289.36 312.219 311.75 327.373 334.797 341.563M267.681 296.158C255.582 287.194 243.705 278.076 232.059 268.785C231.358 268.226 230.658 267.666 229.958 267.106M412.04 384.269C385.568 371.215 359.796 356.956 334.797 341.563M412.04 384.269C436.979 396.567 462.54 407.796 488.663 417.895M412.04 384.269L455.506 292.42M999.51 264.725H1062.91M999.51 264.725L995.344 265.842M999.51 264.725V253.078M287.259 33.2638L246.305 72.5025L237.201 81.2254M287.259 33.2638L258.857 1.5295M287.259 33.2638L299.771 21.9415M331.699 53.1693C350.947 71.6546 371.239 89.0613 392.478 105.292L400.239 111.498M331.699 53.1693L262.683 129.51M331.699 53.1693C321.21 43.0966 311.032 32.7036 301.179 22.0061M327.611 214.879C346.764 228.983 366.542 242.288 386.896 254.744M327.611 214.879L311.381 236.89M327.611 214.879C320.658 209.759 313.787 204.534 307.002 199.205C306.728 198.991 306.363 198.933 306.038 199.053L297.627 202.155M124.62 1.00011C124.664 1.06555 124.707 1.13098 124.75 1.1964M152.052 1.1964C165.626 20.713 180.033 39.607 195.222 57.8269C195.698 58.398 196.174 58.9684 196.652 59.5381M152.052 1.1964H221.072H258.112M152.052 1.1964H124.75M340.225 194.018L316.341 175.649M340.225 194.018L355.195 173.434M340.225 194.018C343.674 196.544 347.144 199.044 350.634 201.517M400.239 111.498C408.434 117.606 416.766 123.542 425.229 129.299M400.239 111.498L355.195 173.434M189.186 127.766L210.273 108.454M189.186 127.766L225.641 164.44M189.186 127.766L170.029 145.31M1 1.1964L82.1836 1.1964H124.75M1 1.1964C35.0616 63.2895 75.9063 118.322 122.537 168.203M1 1.1964C34.6002 61.2228 76.7976 117.197 122.537 168.203M1086.27 381.018H1105.93C1115.77 381.018 1126.75 374.292 1126.75 363.511V333.449M1086.27 381.018H1059.73C1059.28 381.018 1058.88 380.714 1058.77 380.276L1058.05 377.59C1057.93 377.153 1057.53 376.849 1057.08 376.849H1011.85M1086.27 381.018V480.062M197.69 240.258C208.234 249.373 218.992 258.317 229.958 267.106M197.69 240.258C186.647 230.713 175.841 220.98 165.279 211.042M197.69 240.258L222.899 212.351M244.894 145.31C251.3 151.445 257.804 157.479 264.403 163.409C264.813 163.777 264.849 164.408 264.482 164.819L247.012 184.434C246.629 184.865 245.962 184.883 245.556 184.474L225.641 164.44M244.894 145.31L225.641 164.44M244.894 145.31C243.711 144.178 242.532 143.043 241.357 141.904M826.466 252.078L826.054 252.079M826.466 252.078H998.51M826.466 252.078C826.329 252.079 826.191 252.079 826.054 252.079M825.4 252.079C758.385 252.079 693.484 242.837 631.948 225.546M825.4 252.079C825.618 252.079 825.836 252.079 826.054 252.079M825.4 252.079V355.842M182.192 78.3196C161.599 53.7516 142.389 27.965 124.75 1.1964M193.389 91.4023C206.879 106.841 220.929 121.777 235.508 136.181M262.683 129.51C270.919 137.269 279.316 144.857 287.87 152.271M262.683 129.51C259.796 126.79 256.929 124.049 254.082 121.288M246.305 113.816L256.946 102.118C257.307 101.722 257.291 101.111 256.91 100.734L237.201 81.2254M246.305 113.816L244.471 111.73M246.305 113.816L247.876 115.387M238.24 105.498L226.33 93.0232C225.949 92.6242 225.964 91.9922 226.362 91.6106L237.201 81.2254M334.797 341.563L386.896 254.744M386.896 254.744C409.102 268.334 431.993 280.914 455.506 292.42M368.755 213.993C369.723 214.641 370.693 215.287 371.665 215.931C382.759 223.282 394.043 230.368 405.509 237.18M368.755 213.993L382.795 192.937M368.755 213.993C365.501 211.818 362.265 209.619 359.045 207.398M425.229 129.299L382.795 192.937M425.229 129.299C469.974 159.736 518.402 185.195 569.693 204.894M382.795 192.937L374.053 186.76M355.195 173.434L365.311 180.583M459.83 294.52C458.386 293.824 456.945 293.124 455.506 292.42M468.895 298.825C487.356 307.453 506.185 315.425 525.351 322.71M488.663 417.895C489.52 418.226 490.377 418.557 491.236 418.885C500.802 422.552 510.444 426.067 520.157 429.428M488.663 417.895L501.659 384.176M525.351 322.71L523.371 327.847M525.351 322.71L538.586 326.763M533.665 299.825L542.122 276.776M533.665 299.825L537.058 301.413M533.665 299.825C492.038 284.138 452.574 264.441 414.096 242.211M569.693 204.894C590.012 212.698 610.781 219.598 631.948 225.546M569.693 204.894L542.122 276.776M570.112 443.805L581.356 405.523M581.356 405.523L552.592 396.547C552.064 396.382 551.77 395.822 551.935 395.294L557.705 376.808M581.356 405.523L590.184 375.466M567.935 344.036L569.815 338.013C569.979 337.487 570.538 337.193 571.065 337.356L574.124 338.302M567.935 344.036L596.626 353.533M567.935 344.036L561.17 365.71M596.626 353.533L598.573 346.902C598.727 346.377 598.432 345.826 597.909 345.665L590.997 343.525M596.626 353.533L590.184 375.466M590.184 375.466L561.17 365.71M561.17 365.71L560.191 368.845M520.157 429.428C537.147 435.306 554.356 440.712 571.77 445.631C599.894 453.575 628.551 460.248 657.676 465.584C712.096 475.554 768.147 480.854 825.4 481.056M520.157 429.428L528.58 403.944M523.371 327.847L550.685 337.061M523.371 327.847L514.656 350.458M550.685 337.061L552.343 332.044C552.519 331.511 552.222 330.938 551.686 330.774L548.164 329.696M550.685 337.061L548.164 344.687M543.14 359.889L514.656 350.458M543.14 359.889L535.739 382.281M543.14 359.889L545.644 352.313M514.656 350.458L501.659 384.176M531.649 394.658L501.659 384.176M531.649 394.658L531.123 396.249L532.509 392.056L531.649 394.658ZM631.948 225.546L625.409 249.495M625.409 249.495L604.559 323.142C604.404 323.689 604.736 324.255 605.289 324.387L609.818 325.471M625.409 249.495L594.271 238.472C593.735 238.282 593.148 238.577 592.981 239.12L586.608 259.834M586.608 259.834L581.993 258.306M586.608 259.834L590.997 261.297M608.666 267.183L590.997 261.297M563.752 252.263L581.993 258.306M581.993 258.306L572.449 286.756M590.997 261.297L581.016 289.633M572.244 314.536L564.983 312.198C564.452 312.027 564.164 311.456 564.341 310.928L572.449 286.756M572.244 314.536L587.045 319.304M572.244 314.536L581.016 289.633M554.427 280.704L558.102 281.938M598.851 295.623L595.567 294.52M545.644 305.968L549.445 307.193M590.997 320.577L587.045 319.304M553.595 295.623L558.102 281.938M558.102 281.938L572.449 286.756M550.931 302.717L549.445 307.193M549.445 307.193L587.045 319.304M542.122 276.776L546.024 278.247M595.567 294.52L581.016 289.633M595.567 294.52L587.045 319.304M613.612 352.313L675.136 365.71L677.339 365.975M732.652 372.64L677.339 365.975M744.676 374.043L776.941 375.446M825.4 376.849V481.056M825.4 376.849H893.323M825.4 376.849L776.941 375.446M825.4 481.056C826.53 481.06 827.66 481.062 828.791 481.062H995.344M967.526 380.255H930.516M930.516 380.255V404.202C930.516 404.754 930.964 405.202 931.516 405.202H994.344C994.897 405.202 995.344 404.754 995.344 404.202V376.849M930.516 380.255H909.441M995.344 376.849V481.062M995.344 376.849H999.51H978.458M995.344 481.062H1085.27M1022.38 352.947H1062.91M1066.07 352.947H1062.91M1062.91 352.947V264.725M1062.91 264.725H1105.91M995.344 265.842V352.947M995.344 265.842H968.526C967.974 265.842 967.526 266.289 967.526 266.842V352.947M995.344 352.947H1009.22M995.344 352.947H986.587M974.217 352.947H967.526M967.526 352.947H909.42C908.868 352.947 908.42 353.395 908.42 353.947V354.842C908.42 355.394 907.972 355.842 907.42 355.842H876.793M825.4 355.842L820.557 355.583M825.4 355.842H866.91M746.558 351.631L809.811 355.009M735.504 350.052L677.339 341.63L619.641 327.822M216.433 81.9627L214.449 79.7733M132.775 178.977C132.499 178.983 132.223 178.874 132.021 178.655M132.775 178.977C129.332 175.413 125.919 171.821 122.537 168.203M132.775 178.977C132.832 179.036 132.889 179.095 132.946 179.153M132.775 178.977L132.946 179.153M132.021 178.655C128.844 175.194 125.682 171.71 122.537 168.203M132.021 178.655C132.167 178.813 132.313 178.972 132.459 179.131C132.587 179.271 132.805 179.281 132.946 179.153M258.112 1.1964C258.396 1.1964 258.667 1.31754 258.857 1.5295M258.112 1.1964C258.396 1.1964 258.667 1.31754 258.857 1.5295M299.771 21.9415C300.178 21.5729 300.807 21.602 301.179 22.0061M299.771 21.9415C300.178 21.5729 300.807 21.602 301.179 22.0061M998.51 252.078C999.062 252.078 999.51 252.526 999.51 253.078M998.51 252.078C999.062 252.078 999.51 252.526 999.51 253.078M1105.91 264.725C1106.46 264.725 1106.91 265.173 1106.91 265.725M1105.91 264.725C1106.46 264.725 1106.91 265.173 1106.91 265.725M1106.91 265.725V331.449M1106.91 331.449C1106.91 332.001 1107.36 332.449 1107.91 332.449M1106.91 331.449C1106.91 332.001 1107.36 332.449 1107.91 332.449M1107.91 332.449H1125.75M1125.75 332.449C1126.3 332.449 1126.75 332.896 1126.75 333.449M1125.75 332.449C1126.3 332.449 1126.75 332.896 1126.75 333.449M1086.27 480.062C1086.27 480.614 1085.82 481.062 1085.27 481.062M1086.27 480.062C1086.27 480.614 1085.82 481.062 1085.27 481.062M212.465 77.584L214.449 79.7733M214.449 79.7733L240.641 56.1006C241.046 55.7348 241.083 55.112 240.724 54.701L223.779 35.2958M195.222 2.59279L223.779 35.2958M196.652 59.5381L223.779 35.2958M196.652 59.5381L205.784 70.2956M237.201 196.519L222.899 212.351M237.201 196.519L229.734 204.785L222.899 212.351M237.201 196.519L239.048 198.006M311.381 236.89L276.928 209.787M276.928 209.787L275.04 212.091M276.928 209.787L288.691 205.449M229.958 267.106L267.681 221.071M267.681 221.071L246.305 203.852M267.681 221.071L269.163 219.263M165.279 211.042L192.681 183.951C193.072 183.564 193.703 183.566 194.092 183.956L212.931 202.86M165.279 211.042C154.229 200.644 143.448 190.021 132.946 179.153M170.029 145.31L158.176 156.165L141.287 171.632L132.946 179.153M170.029 145.31L200.872 174.936C201.279 175.327 201.928 175.304 202.306 174.886L210.273 166.095M677.339 365.975L673.558 396.249M776.941 375.446V404.043M1075.81 352.947H1103.49M222.899 212.351L220.733 210.382M581.016 289.633L572.449 286.756M821.595 499.354C821.17 499.355 822.02 499.354 821.595 499.354Z" stroke="#BFC4C8" stroke-width="2" stroke-linecap="round" stroke-linejoin="round"/>
</g>
<text id="title" fill="#172736" xml:space="preserve" style="white-space: pre" font-family="CoFo Weather 20240219" font-size="10" font-weight="500" letter-spacing="0em"><tspan x="1003.71" y="306.473">&#x41b;&#x438;&#x444;&#x442;&#x43e;&#x432;&#x43e;&#x439;&#10;</tspan><tspan x="1013.08" y="316.473">&#x445;&#x43e;&#x43b;&#x43b; 2</tspan></text>
<g id="b1f7-paper">
<text id="title_2" transform="translate(254.29 159.892) rotate(-48.8097)" fill="#172736" xml:space="preserve" style="white-space: pre" font-family="CoFo Weather 20240219" font-size="8" font-weight="500" letter-spacing="0em"><tspan x="10.7995" y="6.76">&#x423;&#x442;&#x438;&#x43b;&#x438;&#x437;&#x430;&#x446;&#x438;&#x44f; </tspan><tspan x="20.2448" y="14.76">&#x431;&#x443;&#x43c;&#x430;&#x433;&#x438;</tspan></text>
<path id="Ellipse 40" d="M278.29 129.523C278.29 132.008 276.275 134.023 273.79 134.023C271.305 134.023 269.29 132.008 269.29 129.523C269.29 127.037 271.305 125.023 273.79 125.023C276.275 125.023 278.29 127.037 278.29 129.523Z" fill="#73E553"/>
</g>
<text id="title_3" fill="#172736" xml:space="preserve" style="white-space: pre" font-family="CoFo Weather 20240219" font-size="10" font-weight="500" letter-spacing="0em"><tspan x="309.712" y="107.473">&#x41b;&#x438;&#x444;&#x442;&#x43e;&#x432;&#x43e;&#x439;&#10;</tspan><tspan x="320.303" y="117.473">&#x445;&#x43e;&#x43b;&#x43b; 1</tspan></text>
<g id="b1f7-712">
<path id="Ellipse 37" d="M231.269 268.155C242.657 277.241 255.779 287.328 267.668 296.152C268.112 296.482 268.738 296.387 269.066 295.943L312.236 237.538C312.558 237.103 312.475 236.491 312.05 236.157L277.532 209.051C277.104 208.715 276.486 208.782 276.141 209.203L229.809 265.693C229.456 266.124 229.523 266.76 229.957 267.107C230.394 267.457 230.831 267.806 231.269 268.155Z" fill="#33D18F" fill-opacity="0.2" stroke="#33D18F" stroke-opacity="0.2" stroke-width="2.00001" stroke-linejoin="round"/>
<text id="title_4" transform="translate(259.017 271.656) rotate(-51.4632)" fill="#172736" xml:space="preserve" style="white-space: pre" font-family="CoFo Weather 20240219" font-size="6.00002" font-weight="500" letter-spacing="0em"><tspan x="0" y="5.07001">&#x41f;&#x435;&#x440;&#x435;&#x433;&#x43e;&#x432;&#x43e;&#x440;&#x43a;&#x430;</tspan></text>
<g id="Frame 11">
<rect x="256.79" y="255.553" width="14.5" height="9" rx="2.25" transform="rotate(-51.4649 256.79 255.553)" fill="#33D18F" fill-opacity="0.2"/>
<text id="712" transform="translate(259.365 254.728) rotate(-51.4649)" fill="#172736" xml:space="preserve" style="white-space: pre" font-family="CoFo Weather 20240219" font-size="6" font-weight="500" letter-spacing="0.02em"><tspan x="0.0958204" y="5.07">712</tspan></text>
</g>
</g>
<g id="b1f7-k">
<path id="Ellipse 36" d="M550.789 395.939L579.576 404.923C580.094 405.084 580.389 405.63 580.24 406.152L569.996 442.068C569.845 442.599 569.289 442.906 568.758 442.754C552.756 438.189 539.946 434.304 524.308 428.914C523.792 428.736 523.512 428.176 523.682 427.657L534.777 393.814C534.933 393.338 535.419 393.05 535.912 393.143L550.789 395.939Z" fill="#FFEDD6" stroke="#FFCF94" stroke-width="2.00001" stroke-linejoin="round"/>
<text id="title_5" fill="#172736" xml:space="preserve" style="white-space: pre" font-family="CoFo Weather 20240219" font-size="5.62502" font-weight="500" letter-spacing="0em"><tspan x="532.876" y="421.445">&#x41c;&#x438;&#x43d;&#x438;-&#x43a;&#x443;&#x445;&#x43d;&#x44f;</tspan></text>
</g>
</g>
</svg>
