<svg width="1128" height="501" viewBox="0 0 1128 501" fill="none" xmlns="http://www.w3.org/2000/svg">
<g id="b1f8">
<g id="Ellipse 30">
<path fill-rule="evenodd" clip-rule="evenodd" d="M595.922 353.533L567.232 344.036L560.466 365.71L589.48 375.466L595.922 353.533Z" fill="white"/>
<path d="M567.232 344.036L595.922 353.533L589.48 375.466L560.466 365.71L567.232 344.036Z" fill="white"/>
<path d="M594.864 294.52L580.313 289.633L571.541 314.536L586.342 319.304L594.864 294.52Z" fill="white"/>
<path d="M563.638 310.928C563.461 311.456 563.749 312.027 564.28 312.198L571.541 314.536L580.313 289.633L571.746 286.756L563.638 310.928Z" fill="white"/>
<path d="M585.904 259.834L581.29 258.306L571.746 286.756L580.313 289.633L590.294 261.297L585.904 259.834Z" fill="white"/>
<path d="M244.853 184.474C245.259 184.883 245.926 184.865 246.309 184.434L263.779 164.819C264.146 164.408 264.11 163.777 263.7 163.409C257.101 157.479 250.597 151.445 244.19 145.31L224.938 164.44L244.853 184.474Z" fill="white"/>
<path fill-rule="evenodd" clip-rule="evenodd" d="M595.922 353.533L567.232 344.036L560.466 365.71L589.48 375.466L595.922 353.533Z" fill="white"/>
<path fill-rule="evenodd" clip-rule="evenodd" d="M595.922 353.533L567.232 344.036L560.466 365.71L589.48 375.466L595.922 353.533Z" fill="white"/>
<path fill-rule="evenodd" clip-rule="evenodd" d="M571.067 445.631C599.191 453.575 627.848 460.248 656.973 465.584C673.739 468.656 690.66 471.284 707.724 473.457C718.373 474.812 729.078 475.991 739.835 476.989C767.786 479.582 796.092 480.955 824.697 481.056C825.827 481.06 826.957 481.062 828.088 481.062H858.518H913.239H994.641H1027.1H1084.57C1085.12 481.062 1085.57 480.614 1085.57 480.062V381.018H1105.23C1115.07 381.018 1126.05 374.292 1126.05 363.511V333.449C1126.05 332.896 1125.6 332.449 1125.05 332.449H1107.21C1106.65 332.449 1106.21 332.001 1106.21 331.449V265.725C1106.21 265.173 1105.76 264.725 1105.21 264.725H1062.21H998.807V253.078C998.807 252.526 998.359 252.078 997.807 252.078H935.415H861.99H825.763L825.351 252.079C825.133 252.079 824.915 252.079 824.697 252.079C780.809 252.079 737.828 248.115 696.105 240.523C684.422 238.397 672.837 235.986 661.359 233.299C651.236 230.928 641.197 228.342 631.245 225.546L624.706 249.495L592.585 238.124L585.904 259.834L590.294 261.297L580.313 289.633L594.864 294.52L586.342 319.304L571.541 314.536L564.28 312.198C563.749 312.027 563.461 311.456 563.638 310.928L571.746 286.756L581.29 258.306L585.904 259.834L592.585 238.124L624.706 249.495L631.245 225.546C610.078 219.598 589.309 212.698 568.99 204.894C557.977 200.664 547.095 196.169 536.354 191.416C497.072 174.032 459.664 153.201 424.526 129.299C416.063 123.542 407.731 117.606 399.536 111.498L391.774 105.292C370.536 89.0613 350.244 71.6546 330.996 53.1693C320.507 43.0966 310.329 32.7036 300.476 22.0061C300.104 21.602 299.475 21.5729 299.068 21.9415L286.556 33.2638L258.154 1.5295C257.964 1.31754 257.693 1.1964 257.409 1.1964H220.369H182.813L216.907 40.8088L222.323 35.9681C222.738 35.5978 223.375 35.6364 223.741 36.054L230.93 44.2433C231.303 44.6685 231.25 45.3184 230.812 45.6768L225.112 50.3423L216.907 40.8088L182.813 1.1964H151.349H124.047H81.4805L69.5763 1.1964L2.00264 1.1964C1.23874 1.1964 0.757097 2.01817 1.13173 2.68389C9.79045 18.0704 19.0125 33.1896 28.7126 48.0259C53.3043 85.6392 80.9679 121.435 110.311 155.16C114.125 159.543 117.967 163.891 121.834 168.203C125.216 171.821 128.629 175.413 132.072 178.977L132.242 179.153L140.584 171.632L157.472 156.165L160.754 153.16L169.326 145.31L188.483 127.766L218.125 157.586L224.938 164.44L244.19 145.31C250.597 151.445 257.101 157.479 263.7 163.409C264.11 163.777 264.146 164.408 263.779 164.819L246.309 184.434C245.926 184.865 245.259 184.883 244.853 184.474L224.938 164.44L218.125 157.586L188.483 127.766L169.326 145.31L160.754 153.16L157.472 156.165L140.584 171.632L132.242 179.153C142.744 190.021 153.526 200.644 164.576 211.042C175.137 220.98 185.944 230.713 196.987 240.258C207.53 249.373 218.289 258.317 229.255 267.106C229.954 267.666 230.655 268.226 231.356 268.785C243.001 278.076 254.879 287.194 266.978 296.158C275.728 302.641 284.593 308.975 293.571 315.158C306.837 324.294 320.349 333.1 334.094 341.563C334.364 341.73 334.635 341.896 334.905 342.062C345.388 348.502 356.007 354.743 366.756 360.78C381.38 368.992 396.244 376.826 411.337 384.269C425.625 391.315 440.117 398.01 454.802 404.342C465.749 409.063 476.803 413.582 487.959 417.895C488.816 418.226 489.674 418.557 490.532 418.885C500.099 422.552 509.741 426.067 519.454 429.428C536.444 435.306 553.653 440.712 571.067 445.631ZM595.922 353.533L567.232 344.036L560.466 365.71L589.48 375.466L595.922 353.533Z" fill="white"/>
<path d="M223.741 36.054C223.375 35.6364 222.738 35.5978 222.323 35.9681L216.907 40.8088L225.112 50.3423L230.812 45.6768C231.25 45.3184 231.303 44.6685 230.93 44.2433L223.741 36.054Z" fill="white"/>
<path d="M266.978 296.158C254.879 287.194 243.001 278.076 231.356 268.785C230.655 268.226 229.954 267.666 229.255 267.106C218.289 258.317 207.53 249.373 196.987 240.258M266.978 296.158L285.189 271.46M266.978 296.158C275.728 302.641 284.593 308.975 293.571 315.158M998.807 264.725H1062.21M998.807 264.725L994.641 265.842M998.807 264.725V253.078M286.556 33.2638L245.602 72.5025L236.498 81.2254M286.556 33.2638L258.154 1.5295M286.556 33.2638L299.068 21.9415M330.996 53.1693C350.244 71.6546 370.536 89.0613 391.774 105.292L399.536 111.498M330.996 53.1693L261.98 129.51M330.996 53.1693C320.507 43.0966 310.329 32.7036 300.476 22.0061M123.917 1.00011C123.96 1.06555 124.004 1.13098 124.047 1.1964M339.522 194.018L315.638 175.649M339.522 194.018L354.492 173.434M339.522 194.018C342.971 196.544 346.441 199.044 349.931 201.517M399.536 111.498C407.731 117.606 416.063 123.542 424.526 129.299M399.536 111.498L354.492 173.434M188.483 127.766L209.57 108.454M188.483 127.766L169.326 145.31L160.754 153.16M188.483 127.766L218.125 157.586M1085.57 381.018H1105.23C1115.07 381.018 1126.05 374.292 1126.05 363.511V333.449M1085.57 381.018H1059.03C1058.58 381.018 1058.18 380.714 1058.06 380.276L1057.34 377.59C1057.23 377.153 1056.83 376.849 1056.38 376.849H1028.37M1085.57 381.018V480.062M196.987 240.258C185.944 230.713 175.137 220.98 164.576 211.042M196.987 240.258L236.498 196.519M244.19 145.31C250.597 151.445 257.101 157.479 263.7 163.409C264.11 163.777 264.146 164.408 263.779 164.819L246.309 184.434C245.926 184.865 245.259 184.883 244.853 184.474L224.938 164.44M244.19 145.31L224.938 164.44M244.19 145.31C243.008 144.178 241.829 143.043 240.654 141.904M224.938 164.44L218.125 157.586M825.763 252.078L825.351 252.079M825.763 252.078C825.626 252.079 825.488 252.079 825.351 252.079M825.763 252.078H861.99M824.697 252.079C824.915 252.079 825.133 252.079 825.351 252.079M824.697 252.079V285.901M824.697 252.079C780.809 252.079 737.828 248.115 696.105 240.523M234.805 136.181C223.481 124.993 212.508 113.478 201.873 101.657M261.98 129.51C270.216 137.269 278.613 144.857 287.167 152.271M261.98 129.51C259.093 126.79 256.226 124.049 253.379 121.288M245.602 113.816L256.243 102.118C256.604 101.722 256.588 101.111 256.207 100.734L236.498 81.2254M245.602 113.816L243.768 111.73M245.602 113.816L247.173 115.387M237.537 105.498L225.627 93.0232C225.246 92.6242 225.26 91.9922 225.659 91.6106L236.498 81.2254M368.051 213.993C369.02 214.641 369.99 215.287 370.962 215.931C397.239 233.342 424.581 249.201 452.562 263.707M368.051 213.993L382.092 192.937M368.051 213.993C364.798 211.818 361.562 209.619 358.342 207.398M424.526 129.299L382.092 192.937M424.526 129.299C459.664 153.201 497.072 174.032 536.354 191.416M382.092 192.937L373.35 186.76M354.492 173.434L364.608 180.583M487.959 417.895C488.816 418.226 489.674 418.557 490.532 418.885C500.099 422.552 509.741 426.067 519.454 429.428M487.959 417.895C476.803 413.582 465.749 409.063 454.802 404.342M487.959 417.895L499.845 387.06M524.648 322.71L522.668 327.847M524.648 322.71L537.882 326.763M524.648 322.71C523.358 322.22 522.068 321.726 520.78 321.229M532.962 299.825L541.419 276.776M532.962 299.825L536.354 301.413M532.962 299.825C508.148 290.474 484.102 279.698 460.575 267.809M568.99 204.894C589.309 212.698 610.078 219.598 631.245 225.546M568.99 204.894L556.755 236.792M568.99 204.894C557.977 200.664 547.095 196.169 536.354 191.416M569.409 443.805L580.653 405.523M580.653 405.523L551.889 396.547C551.361 396.382 551.067 395.822 551.232 395.294L557.002 376.808M580.653 405.523L589.48 375.466M567.232 344.036L569.112 338.013C569.276 337.487 569.835 337.193 570.362 337.356L573.421 338.302M567.232 344.036L595.922 353.533M567.232 344.036L560.466 365.71M595.922 353.533L589.48 375.466M595.922 353.533L597.659 347.621M589.48 375.466L560.466 365.71M560.466 365.71L559.488 368.845M519.454 429.428C536.444 435.306 553.653 440.712 571.067 445.631C599.191 453.575 627.848 460.248 656.973 465.584C673.739 468.656 690.66 471.284 707.724 473.457M519.454 429.428L527.877 403.944M522.668 327.847L549.982 337.061M522.668 327.847L513.953 350.458M549.982 337.061L551.64 332.044C551.816 331.511 551.519 330.938 550.983 330.774L547.461 329.696M549.982 337.061L547.461 344.687M542.437 359.889L513.953 350.458M542.437 359.889L535.036 382.281M542.437 359.889L544.941 352.313M513.953 350.458L500.956 384.176M530.946 394.658L500.956 384.176M530.946 394.658L530.42 396.249L531.805 392.056L530.946 394.658ZM500.956 384.176L499.845 387.06M590.294 343.525L597.206 345.665C597.728 345.826 598.024 346.377 597.87 346.902L597.659 347.621M631.245 225.546L624.706 249.495M631.245 225.546C641.197 228.342 651.236 230.928 661.359 233.299M624.706 249.495C612.162 245.054 605.129 242.565 592.585 238.124M624.706 249.495L621.365 261.297M624.706 249.495L592.585 238.124M592.585 238.124L585.904 259.834M585.904 259.834L581.29 258.306M585.904 259.834L590.294 261.297M607.963 267.183L590.294 261.297M563.049 252.263L581.29 258.306M581.29 258.306L571.746 286.756M590.294 261.297L580.313 289.633M571.541 314.536L564.28 312.198C563.749 312.027 563.461 311.456 563.638 310.928L571.746 286.756M571.541 314.536L586.342 319.304M571.541 314.536L580.313 289.633M553.724 280.704L557.399 281.938M598.148 295.623L594.864 294.52M544.941 305.968L548.742 307.193M590.294 320.577L586.342 319.304M552.892 295.623L557.399 281.938M557.399 281.938L571.746 286.756M550.227 302.717L548.742 307.193M548.742 307.193L586.342 319.304M541.419 276.776L545.321 278.247M541.419 276.776L556.755 236.792M594.864 294.52L580.313 289.633M594.864 294.52L586.342 319.304M612.909 352.313L674.433 365.71L676.635 365.975L678.364 366.172M966.823 380.044H929.813M929.813 380.044V404.202C929.813 404.754 930.261 405.202 930.813 405.202H993.641C994.194 405.202 994.641 404.754 994.641 404.202V376.849M929.813 380.044H924.578M994.641 376.849V379.044C994.641 379.596 994.194 380.044 993.641 380.044H977.688M994.641 376.849V428.955M994.641 481.062H913.239M994.641 481.062V428.955M994.641 481.062H1027.1M1011.15 376.849H1028.37M1021.68 352.947H1062.21M1065.37 352.947H1062.21M1062.21 352.947V264.725M1062.21 264.725H1105.21M994.641 265.842V352.947M994.641 265.842H967.823C967.271 265.842 966.823 266.289 966.823 266.842V288.98M994.641 352.947H1008.52M994.641 352.947H985.884M973.514 352.947H966.823M966.823 352.947H908.717C908.164 352.947 907.717 353.395 907.717 353.947V354.842C907.717 355.394 907.269 355.842 906.717 355.842H905.142M966.823 352.947V288.98M824.697 355.842L819.854 355.583M824.697 355.842V285.901M824.697 355.842H829.896M217.915 84.3481L215.932 82.1588M132.072 178.977C128.629 175.413 125.216 171.821 121.834 168.203C117.967 163.891 114.125 159.543 110.311 155.16M132.072 178.977C132.129 179.036 132.186 179.095 132.242 179.153M132.072 178.977L132.242 179.153M124.047 1.1964H81.4805L69.5763 1.1964M124.047 1.1964H151.349H182.813M124.047 1.1964C136.157 19.5738 149.007 37.4883 162.536 54.8634M257.409 1.1964H220.369H182.813M257.409 1.1964C257.693 1.1964 257.964 1.31754 258.154 1.5295M257.409 1.1964C257.693 1.1964 257.964 1.31754 258.154 1.5295M299.068 21.9415C299.475 21.5729 300.104 21.602 300.476 22.0061M299.068 21.9415C299.475 21.5729 300.104 21.602 300.476 22.0061M997.807 252.078C998.359 252.078 998.807 252.526 998.807 253.078M997.807 252.078H935.415M997.807 252.078C998.359 252.078 998.807 252.526 998.807 253.078M1105.21 264.725C1105.76 264.725 1106.21 265.173 1106.21 265.725M1105.21 264.725C1105.76 264.725 1106.21 265.173 1106.21 265.725M1106.21 265.725V331.449M1106.21 331.449C1106.21 332.001 1106.65 332.449 1107.21 332.449M1106.21 331.449C1106.21 332.001 1106.65 332.449 1107.21 332.449M1107.21 332.449H1125.05M1125.05 332.449C1125.6 332.449 1126.05 332.896 1126.05 333.449M1125.05 332.449C1125.6 332.449 1126.05 332.896 1126.05 333.449M1085.57 480.062C1085.57 480.614 1085.12 481.062 1084.57 481.062M1085.57 480.062C1085.57 480.614 1085.12 481.062 1084.57 481.062M1084.57 481.062H1027.1M213.948 79.9695L215.932 82.1588M215.932 82.1588L235.774 64.2257C236.176 63.8617 236.215 63.2429 235.861 62.8314L225.112 50.3423M195.949 59.5381L205.081 70.2956M195.949 59.5381L216.907 40.8088M195.949 59.5381L188.081 65.9928M236.498 196.519L238.345 198.006M236.498 196.519L234.293 194.403M164.576 211.042C153.526 200.644 142.744 190.021 132.242 179.153M164.576 211.042L206.982 168.68M209.57 166.095L206.982 168.68M609.115 325.471L604.585 324.387C604.033 324.255 603.701 323.689 603.856 323.142L621.365 261.297M618.938 327.822L676.635 341.63L679.39 342.029M809.108 355.009L745.855 351.631L692.182 343.881M1075.11 352.947H1102.79M245.602 203.852L301.737 249.017M580.313 289.633L571.746 286.756M132.242 179.153L140.584 171.632L157.472 156.165L160.754 153.16M69.5763 1.1964L2.00264 1.1964C1.23874 1.1964 0.757097 2.01817 1.13173 2.68389C9.79045 18.0704 19.0125 33.1896 28.7126 48.0259M69.5763 1.1964V21.9503C69.5763 22.2952 69.3986 22.6158 69.1061 22.7985L67.3794 23.8769M59.3854 28.8695L28.7126 48.0259M182.813 1.1964L216.907 40.8088M216.907 40.8088L222.323 35.9681C222.738 35.5978 223.375 35.6364 223.741 36.054L230.93 44.2433C231.303 44.6685 231.25 45.3184 230.812 45.6768L225.112 50.3423M216.907 40.8088L225.112 50.3423M218.125 157.586L215.765 159.946M206.982 168.68L227.34 187.854M301.737 249.017L299.804 251.638L285.189 271.46M301.737 249.017L310.678 236.89L326.314 215.683C326.642 215.239 327.268 215.144 327.713 215.471C334.585 220.519 341.538 225.464 348.569 230.305M356.663 235.807C362.714 239.87 368.821 243.855 374.983 247.761M382.635 252.545C383.942 253.358 385.198 254.135 386.193 254.744C388.395 256.092 390.604 257.429 392.819 258.757M285.189 271.46L301.736 283.193M293.571 315.158C306.837 324.294 320.349 333.1 334.094 341.563C334.364 341.73 334.635 341.896 334.905 342.062M293.571 315.158L311.2 291.15C311.531 290.699 311.428 290.065 310.972 289.742L309.444 288.658M334.905 342.062L350.72 316.326C351.002 315.867 351.599 315.714 352.068 315.982L372.939 327.898M334.905 342.062C345.388 348.502 356.007 354.743 366.756 360.78M366.756 360.78C381.38 368.992 396.244 376.826 411.337 384.269C425.625 391.315 440.117 398.01 454.802 404.342M366.756 360.78L382.062 334.265C382.339 333.785 382.173 333.171 381.692 332.896L380.332 332.12M454.802 404.342L465.959 374.91C466.156 374.39 466.74 374.13 467.258 374.333L468.508 374.821M499.845 387.06L478.09 378.563M966.823 288.98H936.415C935.863 288.98 935.415 288.532 935.415 287.98V286.689M935.415 252.078H861.99M935.415 252.078V277.125M861.99 252.078V284.901C861.99 285.453 861.543 285.901 860.99 285.901H859.502M824.697 285.901H850.532M858.518 481.062H828.088C826.957 481.062 825.827 481.06 824.697 481.056C796.092 480.955 767.786 479.582 739.835 476.989M858.518 481.062H913.239M858.518 481.062L859.993 443.828M913.239 481.062V461.59C913.239 461.038 912.792 460.59 912.239 460.59H900.75C900.186 460.59 899.734 460.125 899.751 459.561L899.838 456.543M900.19 444.429L901.276 407.1C901.292 406.545 900.853 406.083 900.298 406.071L873.561 405.472M900.19 444.429L859.993 443.828M900.19 444.429L900.1 447.551M859.993 443.828L861.484 406.184C861.506 405.639 861.96 405.212 862.506 405.224L863.91 405.255M994.641 428.955H1015.02M1027.1 481.062V429.955C1027.1 429.403 1026.65 428.955 1026.1 428.955H1024.41M1028.37 376.849V400.282M556.755 236.792L533.736 227.349M536.354 191.416L524.043 222.303C523.84 222.813 524.085 223.391 524.593 223.599L525.843 224.112M621.365 261.297L651.829 268.762C652.367 268.894 652.91 268.563 653.039 268.024L653.352 266.721M661.359 233.299C672.837 235.986 684.422 238.397 696.105 240.523M661.359 233.299L655.445 257.983M696.105 240.523L679.39 342.029M679.39 342.029L682.522 342.482M707.724 473.457L712.761 423.686C712.816 423.145 713.292 422.747 713.834 422.789L715.352 422.907M707.724 473.457C718.373 474.812 729.078 475.991 739.835 476.989M749.409 374.279L744.664 425.182M749.409 374.279L725.663 371.57M749.409 374.279L772.702 375.292M739.835 476.989L744.664 425.182M744.664 425.182L724.865 423.646M160.754 153.16L141.233 130.012C140.875 129.588 140.24 129.536 139.818 129.897L139.27 130.367M195.085 94.0188C193.576 92.3001 192.074 90.5751 190.579 88.844M184.865 82.1588C182.83 79.7525 180.808 77.3346 178.798 74.9053C178.445 74.4789 178.507 73.847 178.935 73.496L180.146 72.5025M400.713 263.429C407.104 267.164 413.549 270.817 420.048 274.385M428.688 279.064C437.303 283.664 446.01 288.117 454.802 292.42C473.191 301.418 491.913 309.737 510.916 317.35M688.448 367.323L715.271 370.384M782.96 375.64L809.108 376.397M819.854 376.708L824.697 376.849H876.09M886.122 376.849H888.454C889.006 376.849 889.454 377.296 889.454 377.849V379.044C889.454 379.596 889.902 380.044 890.454 380.044H908.738H916.109M131.862 136.709L110.311 155.16M597.659 347.621L603.572 349.461M28.7126 48.0259C53.3043 85.6392 80.9679 121.435 110.311 155.16M820.892 499.354C820.467 499.355 821.317 499.354 820.892 499.354ZM866.207 355.842H876.09H895.285H840.725H866.207Z" stroke="#BFC4C8" stroke-width="2" stroke-linecap="round" stroke-linejoin="round"/>
</g>
<g id="b1f8-k">
<path id="Ellipse 36" d="M549 394.981L577.787 403.964C578.305 404.126 578.6 404.671 578.451 405.193L568.207 441.109C568.056 441.64 567.5 441.947 566.969 441.796C550.967 437.23 538.157 433.345 522.519 427.955C522.003 427.778 521.723 427.217 521.893 426.699L532.988 392.856C533.144 392.379 533.63 392.092 534.123 392.185L549 394.981Z" fill="#FFEDD6" stroke="#FFCF94" stroke-width="2.00001" stroke-linejoin="round"/>
<text id="title" fill="#172736" xml:space="preserve" style="white-space: pre" font-family="CoFo Weather 20240219" font-size="5.62502" font-weight="500" letter-spacing="0em"><tspan x="530.98" y="420.585">&#x41c;&#x438;&#x43d;&#x438;-&#x43a;&#x443;&#x445;&#x43d;&#x44f;</tspan></text>
</g>
<g id="b1f8-803">
<path id="Ellipse 37" d="M215.261 81.4186L213.948 79.9694L205.081 70.2955L196.58 60.2812C196.229 59.8677 196.272 59.2498 196.676 58.8884L216.147 41.4876C216.565 41.1147 217.207 41.1568 217.572 41.5809L225.112 50.3421L235.861 62.8313C236.216 63.2428 236.177 63.8616 235.774 64.2256L216.673 81.4891C216.264 81.859 215.632 81.8275 215.261 81.4186Z" fill="#33D18F" fill-opacity="0.2" stroke="#33D18F" stroke-opacity="0.2" stroke-width="2.00001" stroke-linejoin="round"/>
<text id="title_2" fill="#172736" xml:space="preserve" style="white-space: pre" font-family="CoFo Weather 20240219" font-size="3.75001" font-weight="500" letter-spacing="0em"><tspan x="208.449" y="64.3519">&#x41a;&#x43e;&#x43c;&#x43d;&#x430;&#x442;&#x430; &#10;</tspan><tspan x="209.266" y="68.3519">&#x442;&#x438;&#x448;&#x438;&#x43d;&#x44b;</tspan></text>
<g id="n">
<rect x="212.099" y="54.0933" width="8.25" height="5.5" rx="1.125" fill="#33D18F" fill-opacity="0.2"/>
<text id="803" fill="#172736" xml:space="preserve" style="white-space: pre" font-family="CoFo Weather 20240219" font-size="3" font-weight="500" letter-spacing="0.02em"><tspan x="213.254" y="57.8783">803</tspan></text>
</g>
</g>
<g id="b1f8-808">
<path id="Ellipse 38" d="M165.328 211.748C175.414 221.219 185.723 230.504 196.247 239.618C196.658 239.974 197.278 239.936 197.643 239.532L235.842 197.245C236.206 196.841 236.182 196.22 235.786 195.847L207.688 169.346C207.295 168.975 206.678 168.984 206.295 169.366L165.306 210.313C164.907 210.712 164.916 211.362 165.328 211.748Z" fill="#33D18F" fill-opacity="0.2" stroke="#33D18F" stroke-opacity="0.2" stroke-width="2.00001" stroke-linejoin="round"/>
<text id="title_3" fill="#172736" xml:space="preserve" style="white-space: pre" font-family="CoFo Weather 20240219" font-size="3.75001" font-weight="500" letter-spacing="0em"><tspan x="187.328" y="208.281">&#x41f;&#x435;&#x440;&#x435;&#x433;&#x43e;&#x432;&#x43e;&#x440;&#x43d;&#x430;&#x44f;</tspan></text>
<g id="n_2">
<rect x="196.412" y="198.023" width="9.25" height="5.5" rx="1.125" fill="#33D18F" fill-opacity="0.2"/>
<text id="808" fill="#172736" xml:space="preserve" style="white-space: pre" font-family="CoFo Weather 20240219" font-size="3" font-weight="500" letter-spacing="0.02em"><tspan x="197.99" y="201.808">808</tspan></text>
</g>
</g>
<g id="b1f8-810">
<path id="Ellipse 39" d="M301.169 249.788L299.804 251.638L285.189 271.46L267.574 295.352C267.245 295.797 266.618 295.891 266.173 295.561C242.492 277.989 219.664 259.824 197.761 240.926C197.336 240.56 197.296 239.916 197.672 239.5L235.865 197.219C236.221 196.826 236.821 196.778 237.234 197.11L300.991 248.415C301.408 248.751 301.487 249.357 301.169 249.788Z" fill="#33D18F" fill-opacity="0.2" stroke="#33D18F" stroke-opacity="0.2" stroke-width="2.00001" stroke-linejoin="round"/>
<text id="title_4" fill="#172736" xml:space="preserve" style="white-space: pre" font-family="CoFo Weather 20240219" font-size="3.75001" font-weight="500" letter-spacing="0em"><tspan x="237.103" y="249.471">&#x423;&#x447;&#x435;&#x431;&#x43d;&#x44b;&#x439; &#x437;&#x430;&#x43b;</tspan></text>
<g id="n_3">
<rect x="245.237" y="239.212" width="8.25" height="5.5" rx="1.125" fill="#33D18F" fill-opacity="0.2"/>
<text id="810" fill="#172736" xml:space="preserve" style="white-space: pre" font-family="CoFo Weather 20240219" font-size="3" font-weight="500" letter-spacing="0.02em"><tspan x="246.77" y="242.997">810</tspan></text>
</g>
</g>
<text id="title_5" fill="#172736" xml:space="preserve" style="white-space: pre" font-family="CoFo Weather 20240219" font-size="10" font-weight="500" letter-spacing="0em"><tspan x="309.009" y="118.609">&#x41b;&#x438;&#x444;&#x442;&#x43e;&#x432;&#x43e;&#x439;&#10;</tspan><tspan x="319.6" y="128.609">&#x445;&#x43e;&#x43b;&#x43b; 1</tspan></text>
<text id="title_6" fill="#172736" xml:space="preserve" style="white-space: pre" font-family="CoFo Weather 20240219" font-size="10" font-weight="500" letter-spacing="0em"><tspan x="1003.01" y="306.473">&#x41b;&#x438;&#x444;&#x442;&#x43e;&#x432;&#x43e;&#x439;&#10;</tspan><tspan x="1012.38" y="316.473">&#x445;&#x43e;&#x43b;&#x43b; 2</tspan></text>
</g>
</svg>
