<svg width="1149" height="357" viewBox="0 0 1149 357" fill="none" xmlns="http://www.w3.org/2000/svg">
<path d="M14.3318 200.414C14.3767 199.897 14.8093 199.5 15.3281 199.5H31.4111V2C31.4111 1.44772 31.8589 1 32.4111 1H1120.91C1121.46 1 1121.91 1.44772 1121.91 2V86.5H1146.91C1147.46 86.5 1147.91 86.9477 1147.91 87.5V217.223C1147.91 217.68 1147.62 218.073 1147.18 218.186C1129.52 222.675 1080.13 234.801 1017.41 249C954.487 263.247 889.965 275.406 864.712 279.859C864.234 279.943 863.911 280.354 863.911 280.84V298C863.911 298.552 863.463 299 862.911 299H751.983C751.935 299 751.889 299.003 751.842 299.01C706.509 305.571 614.758 318.863 574.411 324.746C569.638 325.442 565.584 326.035 562.411 326.5C532.411 330.9 436.911 339 392.911 342.5H307.411V347.037C307.411 347.575 307.011 348.015 306.474 348.035C261.909 349.719 167.612 353.411 139.411 355C111.296 356.584 36.757 355.685 1.95484 355.02C1.37623 355.009 0.953586 354.511 1.00364 353.934L14.3318 200.414Z" fill="white"/>
<path d="M468.411 308.5C467.859 308.5 467.411 308.052 467.411 307.5V303V280H484.911V308.5H468.411Z" fill="white"/>
<path d="M533.411 209V250.5H521.161V209H533.411Z" fill="white"/>
<path d="M156.911 131.5C156.911 130.948 156.463 130.5 155.911 130.5H126.411V138C126.411 138.552 126.859 139 127.411 139H155.911C156.463 139 156.911 138.552 156.911 138V131.5Z" fill="white"/>
<path d="M31.4111 199.5H15.3281C14.8093 199.5 14.3767 199.897 14.3318 200.414L1.00364 353.934C0.953586 354.511 1.37623 355.009 1.95484 355.02C36.757 355.685 111.295 356.584 139.411 355C167.612 353.411 261.909 349.719 306.474 348.035C307.011 348.015 307.411 347.575 307.411 347.037V342.5M31.4111 199.5V2C31.4111 1.44772 31.8589 1 32.4111 1H1120.91C1121.46 1 1121.91 1.44772 1121.91 2V86.5M31.4111 199.5H80.4111C80.9634 199.5 81.4111 199.052 81.4111 198.5V167M307.411 342.5H392.911C436.911 339 532.411 330.9 562.411 326.5C565.584 326.035 569.638 325.442 574.411 324.746M307.411 342.5V204.5C307.411 203.948 307.859 203.5 308.411 203.5H310.411M1121.91 86.5H1146.91C1147.46 86.5 1147.91 86.9477 1147.91 87.5V217.223C1147.91 217.68 1147.62 218.073 1147.18 218.186C1129.52 222.675 1080.13 234.801 1017.41 249C954.487 263.247 889.965 275.406 864.712 279.859C864.234 279.943 863.911 280.354 863.911 280.84V298C863.911 298.552 863.463 299 862.911 299H751.983C751.935 299 751.889 299.003 751.842 299.01C706.509 305.571 614.758 318.863 574.411 324.746M1121.91 86.5V94.5M31.9111 139H84.4111M80.9111 153V139M96.9111 139H106.911M120.911 139H138.411M151.911 139H165.911M179.911 139H284.911M298.411 139H306.911M320.411 139H323.911M338.411 139H358.911M364.911 139H358.911M378.911 139H396.911C397.463 139 397.911 138.552 397.911 138V97.5M81.9111 184.5H84.9111M124.911 176V183.5C124.911 184.052 124.463 184.5 123.911 184.5H100.911M124.911 176H120.411M124.911 176H200.411M107.411 176H101.911C101.359 176 100.911 176.448 100.911 177V184.5M97.4111 184.5H100.911M397.911 176H400.411C400.963 176 401.411 176.448 401.411 177V201.5M236.411 176H310.411M310.411 176H355.411M310.411 176V203.5M310.411 203.5H360.411M366.411 176H375.911M375.911 176H387.411M375.911 176V203.5M375.911 203.5H395.411M375.911 203.5H360.411M407.411 203.5H395.411M395.411 203.5V216M395.411 269V280M395.411 280V286.5M395.411 280H360.411M360.411 280V304M360.411 280V241.5M360.411 203.5V241.5M360.411 241.5H395.411M395.411 232V241.5M395.411 241.5V254M395.411 308.5V325M395.411 341.5V325M440.411 338.5V327.5M440.411 313.5V304C440.411 303.448 440.859 303 441.411 303H467.411M467.411 303V307.5C467.411 308.052 467.859 308.5 468.411 308.5H484.911M467.411 303V280M484.911 308.5V334.5M484.911 308.5V280M484.911 203.5H448.911M484.911 203.5V209M484.911 203.5V197.5M448.911 203.5H428.911M448.911 203.5V216M448.911 269V279C448.911 279.552 449.359 280 449.911 280H467.411M484.911 280H467.411M484.911 280V250.5M448.911 232V241.5M448.911 241.5V254M448.911 241.5H484.911M484.911 241.5V250.5M484.911 241.5V209M484.911 250.5H495.411M528.411 330.5V309.5C528.411 308.948 528.859 308.5 529.411 308.5H532.411C532.963 308.5 533.411 308.052 533.411 307.5V250.5M533.411 250.5V209M533.411 250.5H521.161M533.411 209H552.911M533.411 209H521.161M484.911 209H494.411M508.911 250.5H521.161M521.161 250.5V209M521.161 209H508.911M521.161 209V203.5M484.911 184.5V176.5C484.911 175.948 485.359 175.5 485.911 175.5H521.161M521.161 175.5V189M521.161 175.5H574.411M574.411 175.5H589.411M574.411 175.5V282M602.411 176H674.411M1040.91 176H1138.43C1138.74 176 1139.02 176.136 1139.21 176.371L1147.41 186.5M952.411 176H1022.91M1022.91 176H1026.91M1022.91 176V248M900.911 176H934.911M934.911 176H939.911M934.911 176V203.5M934.911 267V203.5M934.911 203.5H849.911C849.359 203.5 848.911 203.052 848.911 202.5V189M775.911 176H848.911M848.911 176V189M848.911 176H863.911M887.911 176H863.911M687.411 176H708.411M757.411 176H762.411M757.411 176V250.5M757.411 176H708.411M757.411 299V250.5M217.911 201L217.411 176M99.9111 139V129C99.9111 128.448 100.359 128 100.911 128H126.411M126.411 128V130.5M126.411 128V1.5M126.411 130.5H155.911C156.463 130.5 156.911 130.948 156.911 131.5V138C156.911 138.552 156.463 139 155.911 139H127.411C126.859 139 126.411 138.552 126.411 138V130.5ZM601.911 138.5H619.911M619.911 138.5H674.411M619.911 138.5V145.5M619.911 138.5V90M687.411 138.5H739.911M739.911 138.5V134C739.911 133.448 740.359 133 740.911 133H756.911M739.911 138.5H743.911M1013.41 138.5H1019.91C1020.46 138.5 1020.91 138.052 1020.91 137.5V109M989.911 138.5H994.911M994.911 138.5H999.911M994.911 138.5V109M994.911 109H979.161M994.911 109V96M994.911 109H1010.91M960.911 138.5H964.411M964.411 138.5H973.911M964.411 138.5V109M964.411 109V97C964.411 96.4477 964.859 96 965.411 96H979.161M964.411 109H963.411M964.411 109H979.161M979.161 109V96M979.161 96H985.411M994.911 96H1010.91M994.911 96H985.411M994.911 96H1020.91M1010.91 96H1020.91M1010.91 96V109M985.411 96V58.5M936.411 138.5H947.411M936.411 138.5V110M936.411 138.5H928.911M936.411 96V1M936.411 96V110M936.411 96H908.411M840.911 138.5H845.411M845.411 138.5V96.5M845.411 138.5H911.911M845.411 96.5H846.411M845.411 96.5H810.411C809.859 96.5 809.411 96.9477 809.411 97.5V138.5M845.411 96.5C845.411 96.2239 845.635 96 845.911 96H908.411M775.411 138.5H809.411M809.411 138.5H828.411M754.411 138.5H758.161M758.161 138.5H761.911M758.161 138.5V1.5M619.911 169.5V281C619.911 281.552 619.463 282 618.911 282H574.411M570.411 90V138.5M570.411 90V1.5M570.411 90H619.911M567.911 138.5H570.411M570.411 138.5H587.911M553.911 138.5H480.411C479.859 138.5 479.411 138.052 479.411 137.5V98.5C479.411 97.9477 478.963 97.5 478.411 97.5H423.411M323.411 139V129C323.411 128.448 323.859 128 324.411 128H341.911M358.911 128H341.911M358.911 128V139M358.911 128V73.5M341.911 128V139M302.411 139V74.5C302.411 73.9477 302.859 73.5 303.411 73.5H358.911M1118.41 176V169M1070.41 132H1067.41C1066.86 132 1066.41 131.552 1066.41 131V119M1118.41 146V132M1118.41 132V120C1118.41 119.448 1117.96 119 1117.41 119H1091.16M1118.41 132H1110.91M1084.91 132H1091.16M1091.16 132H1097.41M1091.16 132V119M1091.16 119H1066.41M1066.41 119V96M1066.41 96V2M1066.41 96H1055.41M1023.16 96H1032.91M1023.16 96V87M1023.16 96H1020.91M1023.16 66.5V58.5M1023.16 58.5V42.5M1023.16 58.5H985.411M985.411 58.5V1M1023.16 23V1M570.411 54H619.397C619.955 54 620.405 54.4562 620.397 55.0139L619.911 90M395.411 325H380.911M358.911 73.5H396.911C397.463 73.5 397.911 73.9477 397.911 74.5V97.5M574.411 324.746V282M936.411 110H909.411C908.859 110 908.411 109.552 908.411 109V96M1020.91 96V109M1020.91 109H1010.91M848.911 189H862.911C863.463 189 863.911 188.552 863.911 188V176M757.411 250.5H709.411C708.859 250.5 708.411 250.052 708.411 249.5V197.5M397.911 97.5H401.411M935.911 96H946.911M216.911 176H222.411M212.911 176H216.411M708.411 176V181.5" stroke="#BFC4C8" stroke-width="2" stroke-linecap="round" stroke-linejoin="round"/>
<path d="M1043.59 80.4425L1043.59 80.0105C1043.58 79.7065 1043.5 79.4756 1043.34 79.3177C1043.17 79.1598 1042.9 79.0473 1042.53 78.9802C1042.15 78.9052 1041.61 78.8642 1040.92 78.8573L1036.57 78.8062L1036.5 72.8787L1044.65 72.7719L1044.67 74.1398L1037.7 74.231L1037.74 77.5307L1041.12 77.5706C1042.07 77.5821 1042.81 77.6565 1043.33 77.7937C1043.84 77.9229 1044.22 78.1501 1044.45 78.475C1044.68 78.792 1044.8 79.2545 1044.81 79.8625L1044.81 80.4264L1043.59 80.4425ZM1041.74 70.0642C1042.39 70.0557 1042.85 70.0537 1043.11 70.0583L1038.37 66.916L1038.35 65.4881L1044.56 65.4069L1044.57 66.6428L1041.24 66.6865C1040.61 66.6948 1040.16 66.6966 1039.89 66.6921L1044.62 69.8226L1044.63 71.2624L1038.43 71.3436L1038.42 70.1078L1041.74 70.0642ZM1044.53 60.6027L1044.53 60.7346C1044.55 61.9425 1044.31 62.8297 1043.82 63.3962C1043.33 63.9627 1042.53 64.2532 1041.42 64.2677C1040.32 64.2821 1039.52 64.0126 1039.01 63.4591C1038.5 62.9058 1038.24 62.0252 1038.22 60.8173L1038.22 60.6853L1035.98 60.7147L1035.96 59.4188L1038.2 59.3894L1038.2 59.2574C1038.19 58.0415 1038.43 57.1503 1038.92 56.5837C1039.41 56.0173 1040.21 55.7268 1041.31 55.7124C1042.41 55.6979 1043.22 55.9674 1043.73 56.5207C1044.24 57.0742 1044.5 57.9589 1044.51 59.1748L1044.51 59.3068L1046.88 59.2758L1046.89 60.5717L1044.53 60.6027ZM1041.41 62.9598C1042.21 62.9492 1042.77 62.7659 1043.08 62.4098C1043.39 62.0538 1043.53 61.5118 1043.53 60.7838L1043.52 60.5919L1039.23 60.6481L1039.23 60.8401C1039.24 61.568 1039.4 62.1059 1039.72 62.4538C1040.04 62.8017 1040.6 62.9704 1041.41 62.9598ZM1043.5 59.14C1043.49 58.412 1043.33 57.8741 1043.01 57.5262C1042.7 57.1784 1042.14 57.0097 1041.33 57.0203C1040.52 57.0309 1039.96 57.2142 1039.66 57.5702C1039.35 57.9263 1039.2 58.4683 1039.21 59.1962L1039.21 59.3882L1043.51 59.332L1043.5 59.14ZM1039.27 52.8905L1039.3 55.1343L1038.22 55.1484L1038.14 49.3529L1039.22 49.3388L1039.25 51.5826L1044.38 51.5155L1044.39 52.8234L1039.27 52.8905ZM1044.42 45.4844C1044.43 46.5003 1044.18 47.2876 1043.67 47.8464C1043.16 48.4051 1042.42 48.6907 1041.47 48.7032L1041 48.7093C1040.05 48.7218 1039.31 48.4554 1038.78 47.9103C1038.26 47.3652 1037.99 46.5846 1037.97 45.5687C1037.96 44.5448 1038.21 43.7575 1038.72 43.2067C1039.23 42.648 1039.96 42.3624 1040.92 42.3499L1041.39 42.3437C1042.35 42.3312 1043.09 42.5975 1043.62 43.1426C1044.14 43.6799 1044.4 44.4604 1044.42 45.4844ZM1041.35 47.3847C1042.07 47.3752 1042.6 47.2123 1042.92 46.896C1043.25 46.5798 1043.41 46.1137 1043.4 45.4977C1043.39 44.8818 1043.22 44.4199 1042.89 44.1123C1042.55 43.7966 1042.02 43.6435 1041.3 43.653L1041.05 43.6563C1040.32 43.6659 1039.79 43.8328 1039.47 44.157C1039.14 44.4733 1038.99 44.9394 1038.99 45.5554C1039 46.1713 1039.17 46.6331 1039.5 46.9408C1039.84 47.2485 1040.37 47.3976 1041.09 47.388L1041.35 47.3847ZM1038.04 41.1939L1037.99 37.6902C1037.98 37.0342 1038.11 36.5326 1038.37 36.1851C1038.63 35.8297 1039.02 35.6485 1039.55 35.6416C1040.26 35.6323 1040.74 35.95 1040.99 36.5948C1041.07 36.2257 1041.24 35.9395 1041.49 35.7362C1041.74 35.5249 1042.05 35.4169 1042.41 35.4121C1042.99 35.4046 1043.43 35.5788 1043.73 35.9349C1044.03 36.291 1044.18 36.825 1044.19 37.537L1044.24 41.1127L1038.04 41.1939ZM1043.26 37.6812C1043.25 37.0173 1042.95 36.6891 1042.37 36.6968C1042.07 36.7006 1041.86 36.7835 1041.71 36.9454C1041.57 37.0993 1041.5 37.3562 1041.51 37.7162L1041.54 39.876L1043.29 39.853L1043.26 37.6812ZM1040.6 37.8241C1040.59 37.4881 1040.52 37.2451 1040.37 37.095C1040.23 36.9449 1040.02 36.8716 1039.74 36.8752C1039.19 36.8824 1038.92 37.21 1038.93 37.8579L1038.96 39.9097L1040.62 39.8879L1040.6 37.8241ZM1044.23 31.3762C1044.25 32.3921 1044 33.1794 1043.48 33.7382C1042.97 34.297 1042.24 34.5826 1041.29 34.595L1040.82 34.6012C1039.87 34.6136 1039.13 34.3473 1038.6 33.8021C1038.07 33.257 1037.8 32.4765 1037.79 31.4605C1037.78 30.4366 1038.03 29.6493 1038.54 29.0985C1039.04 28.5399 1039.78 28.2543 1040.74 28.2417L1041.2 28.2356C1042.16 28.223 1042.91 28.4893 1043.43 29.0344C1043.95 29.5717 1044.22 30.3523 1044.23 31.3762ZM1041.16 33.2766C1041.89 33.267 1042.42 33.1041 1042.74 32.7879C1043.06 32.4716 1043.22 32.0055 1043.21 31.3895C1043.2 30.7736 1043.03 30.3118 1042.7 30.0041C1042.37 29.6884 1041.84 29.5353 1041.11 29.5449L1040.86 29.5482C1040.13 29.5577 1039.61 29.7246 1039.28 30.0489C1038.96 30.3651 1038.8 30.8312 1038.81 31.4472C1038.82 32.0631 1038.99 32.525 1039.32 32.8326C1039.65 33.1403 1040.18 33.2894 1040.91 33.2799L1041.16 33.2766ZM1041.16 25.8063C1041.82 25.7977 1042.27 25.7958 1042.53 25.8004L1037.79 22.6581L1037.78 21.2302L1043.98 21.149L1043.99 22.3849L1040.66 22.4286C1040.03 22.4368 1039.58 22.4387 1039.32 22.4342L1044.04 25.5646L1044.06 27.0045L1037.85 27.0857L1037.84 25.8498L1041.16 25.8063ZM1035.89 24.9992L1035.95 24.9984C1036.19 24.9953 1036.37 24.933 1036.48 24.8115C1036.58 24.6822 1036.63 24.4735 1036.63 24.1855C1036.62 23.8895 1036.57 23.6822 1036.46 23.5636C1036.35 23.4371 1036.17 23.3754 1035.93 23.3785L1035.87 23.3793L1035.86 22.2994C1036.38 22.2925 1036.77 22.4315 1037.01 22.7163C1037.25 22.9932 1037.37 23.4797 1037.38 24.1756C1037.39 24.8716 1037.28 25.3611 1037.04 25.6442C1036.8 25.9273 1036.43 26.0723 1035.91 26.0791L1035.89 24.9992ZM1053.98 64.9114L1056.57 66.4376L1056.59 67.8775L1053.36 65.8196L1050.39 67.8267L1050.37 66.3268L1052.72 64.8559L1050.33 63.4231L1050.31 61.9832L1053.34 63.9598L1056.51 61.83L1056.53 63.3299L1053.98 64.9114ZM1056.59 58.3281C1056.6 59.344 1056.35 60.1314 1055.84 60.6901C1055.32 61.2489 1054.59 61.5345 1053.64 61.547L1053.17 61.5531C1052.22 61.5655 1051.48 61.2992 1050.95 60.7541C1050.43 60.2089 1050.16 59.4284 1050.14 58.4125C1050.13 57.3886 1050.38 56.6012 1050.89 56.0505C1051.4 55.4918 1052.13 55.2062 1053.09 55.1936L1053.56 55.1875C1054.52 55.1749 1055.26 55.4412 1055.79 55.9864C1056.31 56.5236 1056.57 57.3042 1056.59 58.3281ZM1053.52 60.2285C1054.24 60.219 1054.77 60.0561 1055.09 59.7398C1055.42 59.4235 1055.57 58.9574 1055.57 58.3415C1055.56 57.7255 1055.39 57.2637 1055.06 56.956C1054.72 56.6403 1054.19 56.4873 1053.47 56.4968L1053.21 56.5001C1052.49 56.5096 1051.96 56.6765 1051.64 57.0008C1051.31 57.3171 1051.15 57.7832 1051.16 58.3991C1051.17 59.0151 1051.34 59.4769 1051.67 59.7846C1052.01 60.0922 1052.54 60.2413 1053.26 60.2318L1053.52 60.2285ZM1055.37 54.6992L1055.37 54.3993C1055.37 54.0553 1055.24 53.809 1054.98 53.6603C1054.71 53.5118 1054.26 53.4337 1053.62 53.4261L1050.2 53.3869L1050.13 48.2753L1056.33 48.1941L1056.35 49.49L1051.23 49.5571L1051.26 52.2448L1053.75 52.2723C1054.43 52.2874 1054.96 52.3564 1055.36 52.4793C1055.74 52.6022 1056.03 52.8065 1056.21 53.0922C1056.38 53.37 1056.47 53.7529 1056.47 54.2408L1056.48 54.6848L1055.37 54.6992ZM1055.28 47.3522L1055.27 47.0522C1055.27 46.7083 1055.14 46.462 1054.88 46.3133C1054.62 46.1648 1054.16 46.0867 1053.52 46.0791L1050.1 46.0399L1050.03 40.9283L1056.24 40.8471L1056.25 42.143L1051.13 42.2101L1051.17 44.8978L1053.65 44.9253C1054.33 44.9404 1054.87 45.0094 1055.26 45.1322C1055.65 45.2552 1055.93 45.4595 1056.11 45.7452C1056.28 46.023 1056.37 46.4058 1056.38 46.8938L1056.38 47.3377L1055.28 47.3522ZM1055.1 37.2749C1054.06 35.8803 1053.25 34.8429 1052.66 34.1626C1052.06 33.4744 1051.58 33.0166 1051.24 32.7891C1050.88 32.5617 1050.54 32.4502 1050.2 32.4546C1049.76 32.4604 1049.45 32.6085 1049.26 32.899C1049.06 33.1816 1048.97 33.5629 1048.97 34.0428C1048.98 34.5868 1049.1 35.0252 1049.35 35.358C1049.59 35.6908 1049.99 35.9856 1050.55 36.2424L1050.1 37.3884C1049.35 37.0862 1048.79 36.6574 1048.42 36.1022C1048.05 35.5471 1047.85 34.8455 1047.84 33.9976C1047.83 33.1177 1048.02 32.4192 1048.4 31.9021C1048.78 31.3771 1049.35 31.1096 1050.12 31.0995C1050.6 31.0933 1051.06 31.2113 1051.49 31.4536C1051.93 31.6959 1052.42 32.1255 1052.98 32.7423C1053.52 33.3592 1054.19 34.2465 1055 35.404L1054.94 31.0004L1056.11 30.9852L1056.19 37.2606L1055.1 37.2749Z" fill="#172736"/>
<path d="M416.591 292.442L416.585 292.01C416.581 291.707 416.498 291.476 416.336 291.318C416.174 291.16 415.904 291.047 415.528 290.98C415.151 290.905 414.614 290.864 413.918 290.857L409.573 290.806L409.495 284.879L417.654 284.772L417.672 286.14L410.701 286.231L410.744 289.531L414.117 289.571C415.069 289.582 415.806 289.656 416.328 289.794C416.842 289.923 417.217 290.15 417.453 290.475C417.681 290.792 417.799 291.255 417.807 291.862L417.815 292.426L416.591 292.442ZM414.739 282.064C415.395 282.056 415.851 282.054 416.107 282.058L411.373 278.916L411.355 277.488L417.558 277.407L417.574 278.643L414.239 278.687C413.607 278.695 413.159 278.697 412.894 278.692L417.616 281.823L417.635 283.262L411.431 283.344L411.415 282.108L414.739 282.064ZM417.531 272.603L417.533 272.735C417.549 273.943 417.312 274.83 416.824 275.396C416.327 275.963 415.527 276.253 414.423 276.268C413.319 276.282 412.515 276.013 412.012 275.459C411.501 274.906 411.237 274.025 411.221 272.817L411.22 272.685L408.976 272.715L408.959 271.419L411.203 271.389L411.201 271.257C411.185 270.042 411.425 269.15 411.922 268.584C412.411 268.017 413.207 267.727 414.311 267.712C415.415 267.698 416.222 267.967 416.734 268.521C417.237 269.074 417.497 269.959 417.512 271.175L417.514 271.307L419.878 271.276L419.895 272.572L417.531 272.603ZM414.406 274.96C415.214 274.949 415.771 274.766 416.079 274.41C416.386 274.054 416.535 273.512 416.525 272.784L416.523 272.592L412.227 272.648L412.23 272.84C412.239 273.568 412.402 274.106 412.719 274.454C413.036 274.802 413.598 274.97 414.406 274.96ZM416.504 271.14C416.494 270.412 416.331 269.874 416.015 269.526C415.698 269.178 415.136 269.01 414.328 269.02C413.52 269.031 412.962 269.214 412.655 269.57C412.348 269.926 412.199 270.468 412.208 271.196L412.211 271.388L416.506 271.332L416.504 271.14ZM412.27 264.89L412.299 267.134L411.219 267.148L411.143 261.353L412.223 261.339L412.253 263.583L417.376 263.516L417.393 264.823L412.27 264.89ZM417.417 257.484C417.431 258.5 417.181 259.288 416.668 259.846C416.155 260.405 415.423 260.691 414.471 260.703L414.003 260.709C413.051 260.722 412.312 260.455 411.785 259.91C411.257 259.365 410.987 258.585 410.974 257.569C410.96 256.545 411.21 255.757 411.723 255.207C412.228 254.648 412.96 254.362 413.92 254.35L414.388 254.344C415.348 254.331 416.091 254.597 416.619 255.143C417.138 255.68 417.404 256.46 417.417 257.484ZM414.346 259.385C415.074 259.375 415.6 259.212 415.924 258.896C416.247 258.58 416.405 258.114 416.397 257.498C416.389 256.882 416.219 256.42 415.887 256.112C415.555 255.797 415.025 255.644 414.297 255.653L414.045 255.656C413.317 255.666 412.791 255.833 412.467 256.157C412.144 256.473 411.986 256.939 411.994 257.555C412.002 258.171 412.172 258.633 412.504 258.941C412.836 259.248 413.366 259.398 414.094 259.388L414.346 259.385ZM411.037 253.194L410.991 249.69C410.982 249.034 411.108 248.533 411.367 248.185C411.626 247.83 412.02 247.649 412.548 247.642C413.26 247.632 413.74 247.95 413.989 248.595C414.072 248.226 414.24 247.94 414.493 247.736C414.739 247.525 415.045 247.417 415.413 247.412C415.989 247.405 416.427 247.579 416.728 247.935C417.029 248.291 417.184 248.825 417.193 249.537L417.24 253.113L411.037 253.194ZM416.259 249.681C416.25 249.017 415.954 248.689 415.37 248.697C415.074 248.701 414.855 248.784 414.713 248.945C414.571 249.099 414.503 249.356 414.507 249.716L414.536 251.876L416.287 251.853L416.259 249.681ZM413.597 249.824C413.592 249.488 413.517 249.245 413.371 249.095C413.225 248.945 413.016 248.872 412.744 248.875C412.192 248.882 411.92 249.21 411.929 249.858L411.956 251.91L413.624 251.888L413.597 249.824ZM417.233 243.376C417.246 244.392 416.996 245.179 416.483 245.738C415.971 246.297 415.238 246.583 414.286 246.595L413.818 246.601C412.867 246.614 412.127 246.347 411.6 245.802C411.073 245.257 410.802 244.476 410.789 243.461C410.776 242.437 411.025 241.649 411.538 241.099C412.043 240.54 412.775 240.254 413.735 240.242L414.203 240.236C415.163 240.223 415.907 240.489 416.434 241.034C416.953 241.572 417.219 242.352 417.233 243.376ZM414.161 245.277C414.889 245.267 415.415 245.104 415.739 244.788C416.063 244.472 416.221 244.005 416.213 243.39C416.205 242.774 416.035 242.312 415.702 242.004C415.37 241.688 414.84 241.535 414.112 241.545L413.86 241.548C413.132 241.558 412.607 241.725 412.283 242.049C411.959 242.365 411.801 242.831 411.809 243.447C411.817 244.063 411.987 244.525 412.319 244.833C412.651 245.14 413.181 245.289 413.909 245.28L414.161 245.277ZM414.159 237.806C414.815 237.798 415.271 237.796 415.527 237.8L410.794 234.658L410.775 233.23L416.979 233.149L416.995 234.385L413.659 234.429C413.027 234.437 412.579 234.439 412.315 234.434L417.036 237.565L417.055 239.005L410.852 239.086L410.836 237.85L414.159 237.806ZM408.892 236.999L408.952 236.998C409.192 236.995 409.368 236.933 409.478 236.812C409.58 236.682 409.63 236.473 409.626 236.186C409.622 235.89 409.567 235.682 409.462 235.564C409.348 235.437 409.171 235.375 408.931 235.379L408.871 235.379L408.857 234.299C409.385 234.293 409.771 234.431 410.015 234.716C410.25 234.993 410.373 235.48 410.382 236.176C410.391 236.872 410.277 237.361 410.041 237.644C409.805 237.927 409.426 238.072 408.907 238.079L408.892 236.999ZM426.965 275.447L429.553 276.973L429.572 278.413L426.341 276.355L423.367 278.362L423.347 276.862L425.704 275.391L423.309 273.958L423.291 272.518L426.317 274.495L429.493 272.365L429.513 273.865L426.965 275.447ZM429.567 268.863C429.581 269.879 429.331 270.667 428.818 271.225C428.305 271.784 427.573 272.07 426.621 272.082L426.153 272.088C425.201 272.101 424.462 271.834 423.935 271.289C423.407 270.744 423.137 269.964 423.124 268.948C423.11 267.924 423.36 267.137 423.873 266.586C424.378 266.027 425.11 265.741 426.07 265.729L426.538 265.723C427.498 265.71 428.241 265.977 428.769 266.522C429.288 267.059 429.554 267.839 429.567 268.863ZM426.496 270.764C427.224 270.754 427.75 270.591 428.074 270.275C428.397 269.959 428.555 269.493 428.547 268.877C428.539 268.261 428.369 267.799 428.037 267.491C427.705 267.176 427.175 267.023 426.447 267.032L426.195 267.035C425.467 267.045 424.941 267.212 424.617 267.536C424.294 267.852 424.136 268.318 424.144 268.934C424.152 269.55 424.322 270.012 424.654 270.32C424.986 270.628 425.516 270.777 426.244 270.767L426.496 270.764ZM428.356 265.235L428.352 264.935C428.347 264.591 428.216 264.344 427.958 264.196C427.692 264.047 427.239 263.969 426.599 263.961L423.178 263.922L423.111 258.811L429.315 258.729L429.332 260.025L424.208 260.092L424.243 262.78L426.728 262.808C427.408 262.823 427.945 262.892 428.339 263.015C428.724 263.138 429.007 263.342 429.187 263.627C429.358 263.905 429.447 264.288 429.454 264.776L429.46 265.22L428.356 265.235ZM428.259 257.887L428.256 257.588C428.251 257.244 428.12 256.997 427.862 256.849C427.596 256.7 427.143 256.622 426.503 256.614L423.082 256.575L423.015 251.464L429.218 251.382L429.235 252.678L424.112 252.745L424.147 255.433L426.632 255.461C427.312 255.476 427.849 255.545 428.242 255.668C428.628 255.79 428.911 255.995 429.09 256.28C429.262 256.558 429.351 256.941 429.358 257.429L429.363 257.873L428.259 257.887ZM422.729 246.14C423.11 246.535 423.326 247.092 423.375 247.812L422.175 247.827C422.139 246.868 421.742 246.209 420.985 245.851L420.972 244.819L429.131 244.712L429.149 246.056L422.729 246.14Z" fill="#172736"/>
<path d="M845.911 138.577H936.411V110H908.277V96H845.911V138.577Z" fill="#FFEDD6" stroke="#FFCF94" stroke-width="2.5" stroke-linecap="round" stroke-linejoin="round"/>
<path d="M872.336 123.01V119.185H873.224L874.411 122.318L875.593 119.185H876.476V123.01H875.851L875.868 119.916L874.704 123.01H874.096L872.932 119.916L872.949 123.01H872.336ZM877.765 121.66C877.765 121.967 877.763 122.181 877.759 122.301L879.261 120.102H879.931V123.01H879.351V121.446C879.351 121.15 879.353 120.94 879.357 120.816L877.861 123.01H877.186V120.102H877.765V121.66ZM880.619 120.102H881.226V121.272H882.711V120.102H883.319V123.01H882.711V121.772H881.226V123.01H880.619V120.102ZM884.588 121.66C884.588 121.967 884.586 122.181 884.582 122.301L886.084 120.102H886.753V123.01H886.174V121.446C886.174 121.15 886.176 120.94 886.179 120.816L884.683 123.01H884.008V120.102H884.588V121.66ZM887.29 121.176H888.797V121.671H887.29V121.176ZM889.331 120.102H889.939V121.373H890.107L891.311 120.102H892.048L890.777 121.418L892.115 123.01H891.35L890.282 121.739H889.939V123.01H889.331V120.102ZM892.665 123.612H892.879C893.006 123.612 893.108 123.593 893.183 123.555C893.261 123.522 893.329 123.46 893.385 123.37C893.441 123.284 893.501 123.152 893.565 122.976H893.273L892.215 120.102H892.885L893.717 122.56H893.723L894.527 120.102H895.174L894.111 123.077C894.017 123.347 893.921 123.557 893.824 123.707C893.726 123.857 893.61 123.966 893.475 124.034C893.34 124.101 893.171 124.135 892.969 124.135H892.665V123.612ZM896.692 121.806L895.96 123.01H895.285L896.27 121.508L895.347 120.102H896.05L896.725 121.215L897.412 120.102H898.087L897.142 121.508L898.12 123.01H897.417L896.692 121.806ZM898.565 120.102H899.173V121.272H900.658V120.102H901.265V123.01H900.658V121.772H899.173V123.01H898.565V120.102ZM902.629 121.924C902.371 121.887 902.174 121.793 902.039 121.643C901.904 121.493 901.836 121.287 901.836 121.024C901.836 120.72 901.928 120.492 902.112 120.338C902.299 120.18 902.566 120.102 902.911 120.102H904.503V123.01H903.912V121.941H903.276L902.489 123.01H901.763L902.629 121.924ZM902.444 121.024C902.444 121.328 902.613 121.48 902.95 121.48H903.912V120.563H902.95C902.613 120.563 902.444 120.717 902.444 121.024Z" fill="#172736"/>
<rect x="882.353" y="110" width="8" height="6" rx="1.5" fill="#FFCF94"/>
<rect x="882.353" y="110" width="8" height="6" rx="1.5" stroke="#FFA436" stroke-opacity="0.2" stroke-width="0.5"/>
<path d="M885.185 114.048C884.801 114.048 884.513 113.977 884.321 113.836C884.132 113.692 884.037 113.491 884.037 113.232C884.037 113.061 884.084 112.919 884.177 112.804C884.271 112.689 884.403 112.609 884.573 112.564C884.427 112.516 884.316 112.439 884.241 112.332C884.169 112.225 884.133 112.099 884.133 111.952C884.133 111.733 884.221 111.559 884.397 111.428C884.573 111.297 884.836 111.232 885.185 111.232C885.535 111.232 885.796 111.297 885.969 111.428C886.145 111.559 886.233 111.733 886.233 111.952C886.233 112.096 886.196 112.223 886.121 112.332C886.047 112.439 885.935 112.516 885.785 112.564C885.959 112.609 886.092 112.689 886.185 112.804C886.281 112.919 886.329 113.061 886.329 113.232C886.329 113.491 886.233 113.692 886.041 113.836C885.852 113.977 885.567 114.048 885.185 114.048ZM884.489 113.212C884.489 113.372 884.545 113.493 884.657 113.576C884.769 113.656 884.945 113.696 885.185 113.696C885.425 113.696 885.601 113.656 885.713 113.576C885.825 113.493 885.881 113.372 885.881 113.212C885.881 113.06 885.824 112.944 885.709 112.864C885.597 112.781 885.423 112.74 885.185 112.74C884.948 112.74 884.772 112.781 884.657 112.864C884.545 112.944 884.489 113.06 884.489 113.212ZM884.573 111.988C884.573 112.263 884.777 112.4 885.185 112.4C885.401 112.4 885.556 112.364 885.649 112.292C885.745 112.22 885.793 112.119 885.793 111.988C885.793 111.855 885.747 111.753 885.653 111.684C885.56 111.615 885.404 111.58 885.185 111.58C884.967 111.58 884.809 111.615 884.713 111.684C884.62 111.753 884.573 111.855 884.573 111.988ZM887.77 114.04C887.439 114.04 887.183 113.953 887.002 113.78C886.821 113.607 886.73 113.361 886.73 113.044V112.888C886.73 112.571 886.821 112.325 887.002 112.152C887.183 111.979 887.441 111.892 887.774 111.892C888.022 111.892 888.226 111.945 888.386 112.052C888.549 112.159 888.661 112.312 888.722 112.512L888.326 112.632C888.246 112.365 888.062 112.232 887.774 112.232C887.577 112.232 887.426 112.288 887.322 112.4C887.218 112.509 887.166 112.684 887.166 112.924V113.008C887.166 113.467 887.369 113.696 887.774 113.696C888.065 113.696 888.25 113.561 888.33 113.292L888.718 113.408C888.657 113.611 888.546 113.767 888.386 113.876C888.226 113.985 888.021 114.04 887.77 114.04Z" fill="#172736"/>
<rect x="29.9111" y="138" width="52" height="62" fill="#33D18F" fill-opacity="0.2" stroke="#33D18F" stroke-opacity="0.2" stroke-width="2.5" stroke-linejoin="round"/>
<path d="M42.1711 171.312H44.4111V174.032H43.9551V171.708H42.6271V174.032H42.1711V171.312ZM45.8768 174.072C45.5434 174.072 45.2848 173.986 45.1008 173.812C44.9194 173.639 44.8288 173.394 44.8288 173.076V172.92C44.8288 172.603 44.9208 172.358 45.1048 172.184C45.2888 172.011 45.5448 171.924 45.8728 171.924C46.1981 171.924 46.4434 172.01 46.6088 172.18C46.7768 172.348 46.8608 172.59 46.8608 172.904C46.8608 172.992 46.8581 173.062 46.8528 173.112L45.2528 173.084C45.2554 173.516 45.4674 173.732 45.8888 173.732C46.1341 173.732 46.3408 173.636 46.5088 173.444L46.7928 173.688C46.7048 173.806 46.5821 173.899 46.4248 173.968C46.2674 174.038 46.0848 174.072 45.8768 174.072ZM46.4408 172.808C46.4381 172.627 46.3901 172.49 46.2968 172.396C46.2034 172.3 46.0634 172.252 45.8768 172.252C45.6928 172.252 45.5448 172.302 45.4328 172.4C45.3234 172.499 45.2634 172.648 45.2528 172.848L46.4408 172.808ZM47.2333 171.964H47.6653V172.288C47.7293 172.179 47.8226 172.092 47.9453 172.028C48.0706 171.962 48.2199 171.928 48.3933 171.928C48.6946 171.928 48.9239 172.018 49.0813 172.196C49.2413 172.372 49.3213 172.614 49.3213 172.92V173.076C49.3213 173.383 49.2413 173.626 49.0813 173.804C48.9239 173.98 48.6946 174.068 48.3933 174.068C48.2199 174.068 48.0706 174.036 47.9453 173.972C47.8226 173.908 47.7293 173.823 47.6653 173.716V174.832H47.2333V171.964ZM47.6533 173.044C47.6533 173.279 47.7066 173.452 47.8133 173.564C47.9226 173.674 48.0759 173.728 48.2733 173.728C48.6786 173.728 48.8813 173.5 48.8813 173.044V172.948C48.8813 172.495 48.6786 172.268 48.2733 172.268C48.0813 172.268 47.9293 172.324 47.8173 172.436C47.7079 172.546 47.6533 172.716 47.6533 172.948V173.044ZM50.6736 174.072C50.3403 174.072 50.0816 173.986 49.8976 173.812C49.7163 173.639 49.6256 173.394 49.6256 173.076V172.92C49.6256 172.603 49.7176 172.358 49.9016 172.184C50.0856 172.011 50.3416 171.924 50.6696 171.924C50.995 171.924 51.2403 172.01 51.4056 172.18C51.5736 172.348 51.6576 172.59 51.6576 172.904C51.6576 172.992 51.655 173.062 51.6496 173.112L50.0496 173.084C50.0523 173.516 50.2643 173.732 50.6856 173.732C50.931 173.732 51.1376 173.636 51.3056 173.444L51.5896 173.688C51.5016 173.806 51.379 173.899 51.2216 173.968C51.0643 174.038 50.8816 174.072 50.6736 174.072ZM51.2376 172.808C51.235 172.627 51.187 172.49 51.0936 172.396C51.0003 172.3 50.8603 172.252 50.6736 172.252C50.4896 172.252 50.3416 172.302 50.2296 172.4C50.1203 172.499 50.0603 172.648 50.0496 172.848L51.2376 172.808ZM52.0301 171.964H53.4741V172.324H52.4621V174.032H52.0301V171.964ZM54.7285 174.072C54.3898 174.072 54.1285 173.986 53.9445 173.812C53.7605 173.639 53.6685 173.394 53.6685 173.076V172.92C53.6685 172.603 53.7605 172.358 53.9445 172.184C54.1285 172.011 54.3898 171.924 54.7285 171.924C55.0698 171.924 55.3312 172.011 55.5125 172.184C55.6965 172.355 55.7885 172.6 55.7885 172.92V173.076C55.7885 173.396 55.6965 173.643 55.5125 173.816C55.3312 173.987 55.0698 174.072 54.7285 174.072ZM54.1085 173.04C54.1085 173.283 54.1605 173.459 54.2645 173.568C54.3685 173.678 54.5232 173.732 54.7285 173.732C54.9338 173.732 55.0885 173.678 55.1925 173.568C55.2992 173.459 55.3525 173.283 55.3525 173.04V172.956C55.3525 172.714 55.2992 172.538 55.1925 172.428C55.0885 172.319 54.9338 172.264 54.7285 172.264C54.5232 172.264 54.3685 172.319 54.2645 172.428C54.1605 172.538 54.1085 172.714 54.1085 172.956V173.04ZM56.1864 171.964H57.3544C57.573 171.964 57.7397 172.008 57.8544 172.096C57.9717 172.184 58.0304 172.316 58.0304 172.492C58.0304 172.73 57.9224 172.888 57.7064 172.968C57.829 172.998 57.9237 173.055 57.9904 173.14C58.0597 173.223 58.0944 173.326 58.0944 173.448C58.0944 173.64 58.0344 173.786 57.9144 173.884C57.7944 173.983 57.6157 174.032 57.3784 174.032H56.1864V171.964ZM57.3344 173.72C57.5557 173.72 57.6664 173.623 57.6664 173.428C57.6664 173.33 57.6397 173.256 57.5864 173.208C57.5357 173.16 57.4504 173.136 57.3304 173.136H56.6104V173.72H57.3344ZM57.2984 172.832C57.4104 172.832 57.4917 172.808 57.5424 172.76C57.593 172.712 57.6184 172.643 57.6184 172.552C57.6184 172.368 57.5104 172.276 57.2944 172.276H56.6104V172.832H57.2984ZM59.4316 174.072C59.093 174.072 58.8316 173.986 58.6476 173.812C58.4636 173.639 58.3716 173.394 58.3716 173.076V172.92C58.3716 172.603 58.4636 172.358 58.6476 172.184C58.8316 172.011 59.093 171.924 59.4316 171.924C59.773 171.924 60.0343 172.011 60.2156 172.184C60.3996 172.355 60.4916 172.6 60.4916 172.92V173.076C60.4916 173.396 60.3996 173.643 60.2156 173.816C60.0343 173.987 59.773 174.072 59.4316 174.072ZM58.8116 173.04C58.8116 173.283 58.8636 173.459 58.9676 173.568C59.0716 173.678 59.2263 173.732 59.4316 173.732C59.637 173.732 59.7916 173.678 59.8956 173.568C60.0023 173.459 60.0556 173.283 60.0556 173.04V172.956C60.0556 172.714 60.0023 172.538 59.8956 172.428C59.7916 172.319 59.637 172.264 59.4316 172.264C59.2263 172.264 59.0716 172.319 58.9676 172.428C58.8636 172.538 58.8116 172.714 58.8116 172.956V173.04ZM60.8895 171.964H61.3215V172.288C61.3855 172.179 61.4788 172.092 61.6015 172.028C61.7268 171.962 61.8762 171.928 62.0495 171.928C62.3508 171.928 62.5802 172.018 62.7375 172.196C62.8975 172.372 62.9775 172.614 62.9775 172.92V173.076C62.9775 173.383 62.8975 173.626 62.7375 173.804C62.5802 173.98 62.3508 174.068 62.0495 174.068C61.8762 174.068 61.7268 174.036 61.6015 173.972C61.4788 173.908 61.3855 173.823 61.3215 173.716V174.832H60.8895V171.964ZM61.3095 173.044C61.3095 173.279 61.3628 173.452 61.4695 173.564C61.5788 173.674 61.7322 173.728 61.9295 173.728C62.3348 173.728 62.5375 173.5 62.5375 173.044V172.948C62.5375 172.495 62.3348 172.268 61.9295 172.268C61.7375 172.268 61.5855 172.324 61.4735 172.436C61.3642 172.546 61.3095 172.716 61.3095 172.948V173.044ZM63.3739 171.964H63.8059V172.868H63.9259L64.7819 171.964H65.3059L64.4019 172.9L65.3539 174.032H64.8099L64.0499 173.128H63.8059V174.032H63.3739V171.964ZM66.1934 174.068C65.956 174.068 65.7694 174.018 65.6334 173.916C65.4974 173.812 65.4294 173.667 65.4294 173.48C65.4294 173.267 65.504 173.11 65.6534 173.008C65.8027 172.907 66.0334 172.856 66.3454 172.856H66.9254V172.716C66.9254 172.559 66.8867 172.444 66.8094 172.372C66.7347 172.298 66.6147 172.26 66.4494 172.26C66.3134 172.26 66.192 172.287 66.0854 172.34C65.9814 172.391 65.8974 172.463 65.8334 172.556L65.5294 172.372C65.6147 172.231 65.74 172.122 65.9054 172.044C66.0707 171.967 66.2547 171.928 66.4574 171.928C66.74 171.928 66.9574 171.99 67.1094 172.112C67.2614 172.235 67.3374 172.432 67.3374 172.704V174.032H66.9414V173.692C66.8747 173.818 66.7747 173.912 66.6414 173.976C66.5107 174.038 66.3614 174.068 66.1934 174.068ZM65.8454 173.448C65.8454 173.547 65.8854 173.62 65.9654 173.668C66.0454 173.714 66.152 173.736 66.2854 173.736C66.472 173.736 66.6254 173.696 66.7454 173.616C66.8654 173.534 66.9254 173.42 66.9254 173.276V173.144H66.3574C66.1814 173.144 66.052 173.17 65.9694 173.22C65.8867 173.271 65.8454 173.347 65.8454 173.448Z" fill="#172736"/>
<rect x="49.6396" y="162" width="11.375" height="7.25" rx="1.6875" fill="#33D18F" fill-opacity="0.2"/>
<path d="M52.8834 167.179C52.4514 167.179 52.1274 167.099 51.9114 166.94C51.6984 166.778 51.5919 166.552 51.5919 166.261C51.5919 166.069 51.6444 165.908 51.7494 165.779C51.8544 165.65 52.0029 165.56 52.1949 165.509C52.0299 165.455 51.9054 165.368 51.8214 165.248C51.7404 165.128 51.6999 164.986 51.6999 164.821C51.6999 164.575 51.7989 164.378 51.9969 164.231C52.1949 164.084 52.4904 164.011 52.8834 164.011C53.2764 164.011 53.5704 164.084 53.7654 164.231C53.9634 164.378 54.0624 164.575 54.0624 164.821C54.0624 164.983 54.0204 165.125 53.9364 165.248C53.8524 165.368 53.7264 165.455 53.5584 165.509C53.7534 165.56 53.9034 165.65 54.0084 165.779C54.1164 165.908 54.1704 166.069 54.1704 166.261C54.1704 166.552 54.0624 166.778 53.8464 166.94C53.6334 167.099 53.3124 167.179 52.8834 167.179ZM52.1004 166.238C52.1004 166.418 52.1634 166.555 52.2894 166.648C52.4154 166.738 52.6134 166.783 52.8834 166.783C53.1534 166.783 53.3514 166.738 53.4774 166.648C53.6034 166.555 53.6664 166.418 53.6664 166.238C53.6664 166.067 53.6019 165.937 53.4729 165.847C53.3469 165.754 53.1504 165.707 52.8834 165.707C52.6164 165.707 52.4184 165.754 52.2894 165.847C52.1634 165.937 52.1004 166.067 52.1004 166.238ZM52.1949 164.861C52.1949 165.17 52.4244 165.325 52.8834 165.325C53.1264 165.325 53.3004 165.284 53.4054 165.203C53.5134 165.122 53.5674 165.008 53.5674 164.861C53.5674 164.711 53.5149 164.597 53.4099 164.519C53.3049 164.441 53.1294 164.402 52.8834 164.402C52.6374 164.402 52.4604 164.441 52.3524 164.519C52.2474 164.597 52.1949 164.711 52.1949 164.861ZM55.9759 167.179C55.5439 167.179 55.2124 167.059 54.9814 166.819C54.7534 166.579 54.6394 166.223 54.6394 165.752V165.437C54.6394 164.966 54.7534 164.611 54.9814 164.371C55.2124 164.131 55.5439 164.011 55.9759 164.011C56.4049 164.011 56.7334 164.131 56.9614 164.371C57.1924 164.611 57.3079 164.966 57.3079 165.437V165.752C57.3079 166.223 57.1924 166.579 56.9614 166.819C56.7334 167.059 56.4049 167.179 55.9759 167.179ZM55.1569 165.725C55.1569 166.091 55.2259 166.355 55.3639 166.517C55.5049 166.676 55.7089 166.756 55.9759 166.756C56.2399 166.756 56.4409 166.676 56.5789 166.517C56.7199 166.355 56.7904 166.091 56.7904 165.725V165.464C56.7904 165.098 56.7199 164.836 56.5789 164.677C56.4409 164.515 56.2399 164.434 55.9759 164.434C55.7089 164.434 55.5049 164.515 55.3639 164.677C55.2259 164.836 55.1569 165.098 55.1569 165.464V165.725ZM58.4286 164.717C58.2786 164.858 58.0686 164.936 57.7986 164.951V164.501C58.1586 164.492 58.4076 164.347 58.5456 164.065H58.9326V167.125H58.4286V164.717Z" fill="#172736"/>
<rect x="357.911" y="73" width="40" height="67" fill="#33D18F" fill-opacity="0.2" stroke="#33D18F" stroke-opacity="0.2" stroke-width="2.5" stroke-linejoin="round"/>
<path d="M364.171 108.312H366.411V111.032H365.955V108.708H364.627V111.032H364.171V108.312ZM367.877 111.072C367.543 111.072 367.285 110.986 367.101 110.812C366.919 110.639 366.829 110.394 366.829 110.076V109.92C366.829 109.603 366.921 109.358 367.105 109.184C367.289 109.011 367.545 108.924 367.873 108.924C368.198 108.924 368.443 109.01 368.609 109.18C368.777 109.348 368.861 109.59 368.861 109.904C368.861 109.992 368.858 110.062 368.853 110.112L367.253 110.084C367.255 110.516 367.467 110.732 367.889 110.732C368.134 110.732 368.341 110.636 368.509 110.444L368.793 110.688C368.705 110.806 368.582 110.899 368.425 110.968C368.267 111.038 368.085 111.072 367.877 111.072ZM368.441 109.808C368.438 109.627 368.39 109.49 368.297 109.396C368.203 109.3 368.063 109.252 367.877 109.252C367.693 109.252 367.545 109.302 367.433 109.4C367.323 109.499 367.263 109.648 367.253 109.848L368.441 109.808ZM369.233 108.964H369.665V109.288C369.729 109.179 369.823 109.092 369.945 109.028C370.071 108.962 370.22 108.928 370.393 108.928C370.695 108.928 370.924 109.018 371.081 109.196C371.241 109.372 371.321 109.614 371.321 109.92V110.076C371.321 110.383 371.241 110.626 371.081 110.804C370.924 110.98 370.695 111.068 370.393 111.068C370.22 111.068 370.071 111.036 369.945 110.972C369.823 110.908 369.729 110.823 369.665 110.716V111.832H369.233V108.964ZM369.653 110.044C369.653 110.279 369.707 110.452 369.813 110.564C369.923 110.674 370.076 110.728 370.273 110.728C370.679 110.728 370.881 110.5 370.881 110.044V109.948C370.881 109.495 370.679 109.268 370.273 109.268C370.081 109.268 369.929 109.324 369.817 109.436C369.708 109.546 369.653 109.716 369.653 109.948V110.044ZM372.674 111.072C372.34 111.072 372.082 110.986 371.898 110.812C371.716 110.639 371.626 110.394 371.626 110.076V109.92C371.626 109.603 371.718 109.358 371.902 109.184C372.086 109.011 372.342 108.924 372.67 108.924C372.995 108.924 373.24 109.01 373.406 109.18C373.574 109.348 373.658 109.59 373.658 109.904C373.658 109.992 373.655 110.062 373.65 110.112L372.05 110.084C372.052 110.516 372.264 110.732 372.686 110.732C372.931 110.732 373.138 110.636 373.306 110.444L373.59 110.688C373.502 110.806 373.379 110.899 373.222 110.968C373.064 111.038 372.882 111.072 372.674 111.072ZM373.238 109.808C373.235 109.627 373.187 109.49 373.094 109.396C373 109.3 372.86 109.252 372.674 109.252C372.49 109.252 372.342 109.302 372.23 109.4C372.12 109.499 372.06 109.648 372.05 109.848L373.238 109.808ZM374.03 108.964H375.474V109.324H374.462V111.032H374.03V108.964ZM376.729 111.072C376.39 111.072 376.129 110.986 375.945 110.812C375.761 110.639 375.669 110.394 375.669 110.076V109.92C375.669 109.603 375.761 109.358 375.945 109.184C376.129 109.011 376.39 108.924 376.729 108.924C377.07 108.924 377.331 109.011 377.513 109.184C377.697 109.355 377.789 109.6 377.789 109.92V110.076C377.789 110.396 377.697 110.643 377.513 110.816C377.331 110.987 377.07 111.072 376.729 111.072ZM376.109 110.04C376.109 110.283 376.161 110.459 376.265 110.568C376.369 110.678 376.523 110.732 376.729 110.732C376.934 110.732 377.089 110.678 377.193 110.568C377.299 110.459 377.353 110.283 377.353 110.04V109.956C377.353 109.714 377.299 109.538 377.193 109.428C377.089 109.319 376.934 109.264 376.729 109.264C376.523 109.264 376.369 109.319 376.265 109.428C376.161 109.538 376.109 109.714 376.109 109.956V110.04ZM378.186 108.964H379.354C379.573 108.964 379.74 109.008 379.854 109.096C379.972 109.184 380.03 109.316 380.03 109.492C380.03 109.73 379.922 109.888 379.706 109.968C379.829 109.998 379.924 110.055 379.99 110.14C380.06 110.223 380.094 110.326 380.094 110.448C380.094 110.64 380.034 110.786 379.914 110.884C379.794 110.983 379.616 111.032 379.378 111.032H378.186V108.964ZM379.334 110.72C379.556 110.72 379.666 110.623 379.666 110.428C379.666 110.33 379.64 110.256 379.586 110.208C379.536 110.16 379.45 110.136 379.33 110.136H378.61V110.72H379.334ZM379.298 109.832C379.41 109.832 379.492 109.808 379.542 109.76C379.593 109.712 379.618 109.643 379.618 109.552C379.618 109.368 379.51 109.276 379.294 109.276H378.61V109.832H379.298ZM381.432 111.072C381.093 111.072 380.832 110.986 380.648 110.812C380.464 110.639 380.372 110.394 380.372 110.076V109.92C380.372 109.603 380.464 109.358 380.648 109.184C380.832 109.011 381.093 108.924 381.432 108.924C381.773 108.924 382.034 109.011 382.216 109.184C382.4 109.355 382.492 109.6 382.492 109.92V110.076C382.492 110.396 382.4 110.643 382.216 110.816C382.034 110.987 381.773 111.072 381.432 111.072ZM380.812 110.04C380.812 110.283 380.864 110.459 380.968 110.568C381.072 110.678 381.226 110.732 381.432 110.732C381.637 110.732 381.792 110.678 381.896 110.568C382.002 110.459 382.056 110.283 382.056 110.04V109.956C382.056 109.714 382.002 109.538 381.896 109.428C381.792 109.319 381.637 109.264 381.432 109.264C381.226 109.264 381.072 109.319 380.968 109.428C380.864 109.538 380.812 109.714 380.812 109.956V110.04ZM382.89 108.964H383.322V109.288C383.386 109.179 383.479 109.092 383.602 109.028C383.727 108.962 383.876 108.928 384.05 108.928C384.351 108.928 384.58 109.018 384.738 109.196C384.898 109.372 384.978 109.614 384.978 109.92V110.076C384.978 110.383 384.898 110.626 384.738 110.804C384.58 110.98 384.351 111.068 384.05 111.068C383.876 111.068 383.727 111.036 383.602 110.972C383.479 110.908 383.386 110.823 383.322 110.716V111.832H382.89V108.964ZM383.31 110.044C383.31 110.279 383.363 110.452 383.47 110.564C383.579 110.674 383.732 110.728 383.93 110.728C384.335 110.728 384.538 110.5 384.538 110.044V109.948C384.538 109.495 384.335 109.268 383.93 109.268C383.738 109.268 383.586 109.324 383.474 109.436C383.364 109.546 383.31 109.716 383.31 109.948V110.044ZM385.374 108.964H385.806V109.868H385.926L386.782 108.964H387.306L386.402 109.9L387.354 111.032H386.81L386.05 110.128H385.806V111.032H385.374V108.964ZM388.193 111.068C387.956 111.068 387.769 111.018 387.633 110.916C387.497 110.812 387.429 110.667 387.429 110.48C387.429 110.267 387.504 110.11 387.653 110.008C387.803 109.907 388.033 109.856 388.345 109.856H388.925V109.716C388.925 109.559 388.887 109.444 388.809 109.372C388.735 109.298 388.615 109.26 388.449 109.26C388.313 109.26 388.192 109.287 388.085 109.34C387.981 109.391 387.897 109.463 387.833 109.556L387.529 109.372C387.615 109.231 387.74 109.122 387.905 109.044C388.071 108.967 388.255 108.928 388.457 108.928C388.74 108.928 388.957 108.99 389.109 109.112C389.261 109.235 389.337 109.432 389.337 109.704V111.032H388.941V110.692C388.875 110.818 388.775 110.912 388.641 110.976C388.511 111.038 388.361 111.068 388.193 111.068ZM387.845 110.448C387.845 110.547 387.885 110.62 387.965 110.668C388.045 110.714 388.152 110.736 388.285 110.736C388.472 110.736 388.625 110.696 388.745 110.616C388.865 110.534 388.925 110.42 388.925 110.276V110.144H388.357C388.181 110.144 388.052 110.17 387.969 110.22C387.887 110.271 387.845 110.347 387.845 110.448Z" fill="#172736"/>
<rect x="371.64" y="99" width="11.375" height="7.25" rx="1.6875" fill="#33D18F" fill-opacity="0.2"/>
<path d="M375.031 104.179C374.599 104.179 374.275 104.099 374.059 103.94C373.846 103.778 373.739 103.552 373.739 103.261C373.739 103.069 373.792 102.908 373.897 102.779C374.002 102.65 374.15 102.56 374.342 102.509C374.177 102.455 374.053 102.368 373.969 102.248C373.888 102.128 373.847 101.986 373.847 101.821C373.847 101.575 373.946 101.378 374.144 101.231C374.342 101.084 374.638 101.011 375.031 101.011C375.424 101.011 375.718 101.084 375.913 101.231C376.111 101.378 376.21 101.575 376.21 101.821C376.21 101.983 376.168 102.125 376.084 102.248C376 102.368 375.874 102.455 375.706 102.509C375.901 102.56 376.051 102.65 376.156 102.779C376.264 102.908 376.318 103.069 376.318 103.261C376.318 103.552 376.21 103.778 375.994 103.94C375.781 104.099 375.46 104.179 375.031 104.179ZM374.248 103.238C374.248 103.418 374.311 103.555 374.437 103.648C374.563 103.738 374.761 103.783 375.031 103.783C375.301 103.783 375.499 103.738 375.625 103.648C375.751 103.555 375.814 103.418 375.814 103.238C375.814 103.067 375.749 102.937 375.62 102.847C375.494 102.754 375.298 102.707 375.031 102.707C374.764 102.707 374.566 102.754 374.437 102.847C374.311 102.937 374.248 103.067 374.248 103.238ZM374.342 101.861C374.342 102.17 374.572 102.325 375.031 102.325C375.274 102.325 375.448 102.284 375.553 102.203C375.661 102.122 375.715 102.008 375.715 101.861C375.715 101.711 375.662 101.597 375.557 101.519C375.452 101.441 375.277 101.402 375.031 101.402C374.785 101.402 374.608 101.441 374.5 101.519C374.395 101.597 374.342 101.711 374.342 101.861ZM377.37 101.717C377.22 101.858 377.01 101.936 376.74 101.951V101.501C377.1 101.492 377.349 101.347 377.487 101.065H377.874V104.125H377.37V101.717ZM379.705 104.179C379.399 104.179 379.139 104.125 378.926 104.017C378.716 103.909 378.556 103.739 378.445 103.508L378.836 103.279C378.923 103.447 379.037 103.57 379.178 103.648C379.319 103.726 379.493 103.765 379.7 103.765C380.183 103.765 380.425 103.564 380.425 103.162C380.425 102.976 380.378 102.842 380.285 102.761C380.192 102.68 380.048 102.64 379.853 102.64C379.694 102.64 379.523 102.667 379.34 102.721L379.151 102.433L380.218 101.501H378.62V101.065H380.839V101.465L379.885 102.298C379.969 102.292 380.026 102.289 380.056 102.289C380.314 102.289 380.524 102.358 380.686 102.496C380.851 102.631 380.933 102.853 380.933 103.162C380.933 103.495 380.828 103.748 380.618 103.922C380.408 104.093 380.104 104.179 379.705 104.179Z" fill="#172736"/>
<rect x="808.911" y="96" width="36" height="43" fill="#33D18F" fill-opacity="0.2" stroke="#33D18F" stroke-opacity="0.2" stroke-width="2.5" stroke-linejoin="round"/>
<path d="M813.171 119.312H815.411V122.032H814.955V119.708H813.627V122.032H813.171V119.312ZM816.877 122.072C816.543 122.072 816.285 121.986 816.101 121.812C815.919 121.639 815.829 121.394 815.829 121.076V120.92C815.829 120.603 815.921 120.358 816.105 120.184C816.289 120.011 816.545 119.924 816.873 119.924C817.198 119.924 817.443 120.01 817.609 120.18C817.777 120.348 817.861 120.59 817.861 120.904C817.861 120.992 817.858 121.062 817.853 121.112L816.253 121.084C816.255 121.516 816.467 121.732 816.889 121.732C817.134 121.732 817.341 121.636 817.509 121.444L817.793 121.688C817.705 121.806 817.582 121.899 817.425 121.968C817.267 122.038 817.085 122.072 816.877 122.072ZM817.441 120.808C817.438 120.627 817.39 120.49 817.297 120.396C817.203 120.3 817.063 120.252 816.877 120.252C816.693 120.252 816.545 120.302 816.433 120.4C816.323 120.499 816.263 120.648 816.253 120.848L817.441 120.808ZM818.233 119.964H818.665V120.288C818.729 120.179 818.823 120.092 818.945 120.028C819.071 119.962 819.22 119.928 819.393 119.928C819.695 119.928 819.924 120.018 820.081 120.196C820.241 120.372 820.321 120.614 820.321 120.92V121.076C820.321 121.383 820.241 121.626 820.081 121.804C819.924 121.98 819.695 122.068 819.393 122.068C819.22 122.068 819.071 122.036 818.945 121.972C818.823 121.908 818.729 121.823 818.665 121.716V122.832H818.233V119.964ZM818.653 121.044C818.653 121.279 818.707 121.452 818.813 121.564C818.923 121.674 819.076 121.728 819.273 121.728C819.679 121.728 819.881 121.5 819.881 121.044V120.948C819.881 120.495 819.679 120.268 819.273 120.268C819.081 120.268 818.929 120.324 818.817 120.436C818.708 120.546 818.653 120.716 818.653 120.948V121.044ZM821.674 122.072C821.34 122.072 821.082 121.986 820.898 121.812C820.716 121.639 820.626 121.394 820.626 121.076V120.92C820.626 120.603 820.718 120.358 820.902 120.184C821.086 120.011 821.342 119.924 821.67 119.924C821.995 119.924 822.24 120.01 822.406 120.18C822.574 120.348 822.658 120.59 822.658 120.904C822.658 120.992 822.655 121.062 822.65 121.112L821.05 121.084C821.052 121.516 821.264 121.732 821.686 121.732C821.931 121.732 822.138 121.636 822.306 121.444L822.59 121.688C822.502 121.806 822.379 121.899 822.222 121.968C822.064 122.038 821.882 122.072 821.674 122.072ZM822.238 120.808C822.235 120.627 822.187 120.49 822.094 120.396C822 120.3 821.86 120.252 821.674 120.252C821.49 120.252 821.342 120.302 821.23 120.4C821.12 120.499 821.06 120.648 821.05 120.848L822.238 120.808ZM823.03 119.964H824.474V120.324H823.462V122.032H823.03V119.964ZM825.729 122.072C825.39 122.072 825.129 121.986 824.945 121.812C824.761 121.639 824.669 121.394 824.669 121.076V120.92C824.669 120.603 824.761 120.358 824.945 120.184C825.129 120.011 825.39 119.924 825.729 119.924C826.07 119.924 826.331 120.011 826.513 120.184C826.697 120.355 826.789 120.6 826.789 120.92V121.076C826.789 121.396 826.697 121.643 826.513 121.816C826.331 121.987 826.07 122.072 825.729 122.072ZM825.109 121.04C825.109 121.283 825.161 121.459 825.265 121.568C825.369 121.678 825.523 121.732 825.729 121.732C825.934 121.732 826.089 121.678 826.193 121.568C826.299 121.459 826.353 121.283 826.353 121.04V120.956C826.353 120.714 826.299 120.538 826.193 120.428C826.089 120.319 825.934 120.264 825.729 120.264C825.523 120.264 825.369 120.319 825.265 120.428C825.161 120.538 825.109 120.714 825.109 120.956V121.04ZM827.186 119.964H828.354C828.573 119.964 828.74 120.008 828.854 120.096C828.972 120.184 829.03 120.316 829.03 120.492C829.03 120.73 828.922 120.888 828.706 120.968C828.829 120.998 828.924 121.055 828.99 121.14C829.06 121.223 829.094 121.326 829.094 121.448C829.094 121.64 829.034 121.786 828.914 121.884C828.794 121.983 828.616 122.032 828.378 122.032H827.186V119.964ZM828.334 121.72C828.556 121.72 828.666 121.623 828.666 121.428C828.666 121.33 828.64 121.256 828.586 121.208C828.536 121.16 828.45 121.136 828.33 121.136H827.61V121.72H828.334ZM828.298 120.832C828.41 120.832 828.492 120.808 828.542 120.76C828.593 120.712 828.618 120.643 828.618 120.552C828.618 120.368 828.51 120.276 828.294 120.276H827.61V120.832H828.298ZM830.432 122.072C830.093 122.072 829.832 121.986 829.648 121.812C829.464 121.639 829.372 121.394 829.372 121.076V120.92C829.372 120.603 829.464 120.358 829.648 120.184C829.832 120.011 830.093 119.924 830.432 119.924C830.773 119.924 831.034 120.011 831.216 120.184C831.4 120.355 831.492 120.6 831.492 120.92V121.076C831.492 121.396 831.4 121.643 831.216 121.816C831.034 121.987 830.773 122.072 830.432 122.072ZM829.812 121.04C829.812 121.283 829.864 121.459 829.968 121.568C830.072 121.678 830.226 121.732 830.432 121.732C830.637 121.732 830.792 121.678 830.896 121.568C831.002 121.459 831.056 121.283 831.056 121.04V120.956C831.056 120.714 831.002 120.538 830.896 120.428C830.792 120.319 830.637 120.264 830.432 120.264C830.226 120.264 830.072 120.319 829.968 120.428C829.864 120.538 829.812 120.714 829.812 120.956V121.04ZM831.89 119.964H832.322V120.288C832.386 120.179 832.479 120.092 832.602 120.028C832.727 119.962 832.876 119.928 833.05 119.928C833.351 119.928 833.58 120.018 833.738 120.196C833.898 120.372 833.978 120.614 833.978 120.92V121.076C833.978 121.383 833.898 121.626 833.738 121.804C833.58 121.98 833.351 122.068 833.05 122.068C832.876 122.068 832.727 122.036 832.602 121.972C832.479 121.908 832.386 121.823 832.322 121.716V122.832H831.89V119.964ZM832.31 121.044C832.31 121.279 832.363 121.452 832.47 121.564C832.579 121.674 832.732 121.728 832.93 121.728C833.335 121.728 833.538 121.5 833.538 121.044V120.948C833.538 120.495 833.335 120.268 832.93 120.268C832.738 120.268 832.586 120.324 832.474 120.436C832.364 120.546 832.31 120.716 832.31 120.948V121.044ZM834.374 119.964H834.806V120.868H834.926L835.782 119.964H836.306L835.402 120.9L836.354 122.032H835.81L835.05 121.128H834.806V122.032H834.374V119.964ZM837.193 122.068C836.956 122.068 836.769 122.018 836.633 121.916C836.497 121.812 836.429 121.667 836.429 121.48C836.429 121.267 836.504 121.11 836.653 121.008C836.803 120.907 837.033 120.856 837.345 120.856H837.925V120.716C837.925 120.559 837.887 120.444 837.809 120.372C837.735 120.298 837.615 120.26 837.449 120.26C837.313 120.26 837.192 120.287 837.085 120.34C836.981 120.391 836.897 120.463 836.833 120.556L836.529 120.372C836.615 120.231 836.74 120.122 836.905 120.044C837.071 119.967 837.255 119.928 837.457 119.928C837.74 119.928 837.957 119.99 838.109 120.112C838.261 120.235 838.337 120.432 838.337 120.704V122.032H837.941V121.692C837.875 121.818 837.775 121.912 837.641 121.976C837.511 122.038 837.361 122.068 837.193 122.068ZM836.845 121.448C836.845 121.547 836.885 121.62 836.965 121.668C837.045 121.714 837.152 121.736 837.285 121.736C837.472 121.736 837.625 121.696 837.745 121.616C837.865 121.534 837.925 121.42 837.925 121.276V121.144H837.357C837.181 121.144 837.052 121.17 836.969 121.22C836.887 121.271 836.845 121.347 836.845 121.448Z" fill="#172736"/>
<rect x="820.64" y="110" width="12.375" height="7.25" rx="1.6875" fill="#33D18F" fill-opacity="0.2"/>
<path d="M823.962 115.179C823.53 115.179 823.206 115.099 822.99 114.94C822.777 114.778 822.67 114.552 822.67 114.261C822.67 114.069 822.723 113.908 822.828 113.779C822.933 113.65 823.081 113.56 823.273 113.509C823.108 113.455 822.984 113.368 822.9 113.248C822.819 113.128 822.778 112.986 822.778 112.821C822.778 112.575 822.877 112.378 823.075 112.231C823.273 112.084 823.569 112.011 823.962 112.011C824.355 112.011 824.649 112.084 824.844 112.231C825.042 112.378 825.141 112.575 825.141 112.821C825.141 112.983 825.099 113.125 825.015 113.248C824.931 113.368 824.805 113.455 824.637 113.509C824.832 113.56 824.982 113.65 825.087 113.779C825.195 113.908 825.249 114.069 825.249 114.261C825.249 114.552 825.141 114.778 824.925 114.94C824.712 115.099 824.391 115.179 823.962 115.179ZM823.179 114.238C823.179 114.418 823.242 114.555 823.368 114.648C823.494 114.738 823.692 114.783 823.962 114.783C824.232 114.783 824.43 114.738 824.556 114.648C824.682 114.555 824.745 114.418 824.745 114.238C824.745 114.067 824.68 113.937 824.551 113.847C824.425 113.754 824.229 113.707 823.962 113.707C823.695 113.707 823.497 113.754 823.368 113.847C823.242 113.937 823.179 114.067 823.179 114.238ZM823.273 112.861C823.273 113.17 823.503 113.325 823.962 113.325C824.205 113.325 824.379 113.284 824.484 113.203C824.592 113.122 824.646 113.008 824.646 112.861C824.646 112.711 824.593 112.597 824.488 112.519C824.383 112.441 824.208 112.402 823.962 112.402C823.716 112.402 823.539 112.441 823.431 112.519C823.326 112.597 823.273 112.711 823.273 112.861ZM825.719 114.715C826.247 114.334 826.64 114.034 826.898 113.815C827.159 113.593 827.333 113.418 827.42 113.289C827.507 113.157 827.55 113.028 827.55 112.902C827.55 112.737 827.496 112.618 827.388 112.546C827.283 112.471 827.141 112.434 826.961 112.434C826.757 112.434 826.592 112.479 826.466 112.569C826.34 112.659 826.227 112.807 826.128 113.014L825.701 112.839C825.818 112.56 825.981 112.353 826.191 112.218C826.401 112.08 826.665 112.011 826.983 112.011C827.313 112.011 827.574 112.084 827.766 112.231C827.961 112.375 828.059 112.591 828.059 112.879C828.059 113.059 828.012 113.23 827.919 113.392C827.826 113.554 827.663 113.737 827.429 113.941C827.195 114.142 826.859 114.391 826.421 114.688H828.072V115.125H825.719V114.715ZM829.756 115.179C829.45 115.179 829.195 115.125 828.991 115.017C828.787 114.909 828.629 114.736 828.518 114.499L828.91 114.274C828.997 114.445 829.111 114.57 829.252 114.648C829.396 114.726 829.567 114.765 829.765 114.765C830.251 114.765 830.494 114.555 830.494 114.135C830.494 113.928 830.44 113.776 830.332 113.68C830.224 113.584 830.054 113.536 829.823 113.536C829.676 113.536 829.543 113.557 829.423 113.599C829.306 113.641 829.187 113.703 829.067 113.784L828.689 113.622L828.847 112.065H830.836V112.501H829.238L829.144 113.37C829.369 113.223 829.64 113.149 829.958 113.149C830.648 113.149 830.993 113.476 830.993 114.13C830.993 114.478 830.888 114.741 830.678 114.918C830.471 115.092 830.164 115.179 829.756 115.179Z" fill="#172736"/>
</svg>
