<svg width="1128" height="501" viewBox="0 0 1128 501" fill="none" xmlns="http://www.w3.org/2000/svg">
<g id="b1f9">
<g id="Ellipse 30">
<path d="M595.567 294.52L581.016 289.633L572.244 314.536L587.045 319.304L595.567 294.52Z" fill="white"/>
<path d="M564.341 310.928C564.164 311.456 564.452 312.027 564.983 312.198L572.244 314.536L581.016 289.633L572.449 286.756L564.341 310.928Z" fill="white"/>
<path d="M586.608 259.834L581.993 258.306L572.449 286.756L581.016 289.633L590.997 261.297L586.608 259.834Z" fill="white"/>
<path d="M245.556 184.474C245.962 184.883 246.629 184.865 247.012 184.434L264.482 164.819C264.849 164.408 264.813 163.777 264.403 163.409C257.804 157.479 251.3 151.445 244.894 145.31L225.641 164.44L245.556 184.474Z" fill="white"/>
<path fill-rule="evenodd" clip-rule="evenodd" d="M571.77 445.631C599.001 453.323 626.733 459.823 654.904 465.072C655.828 465.244 656.752 465.415 657.676 465.584C712.096 475.554 768.147 480.854 825.4 481.056C826.53 481.06 827.66 481.062 828.791 481.062H911.042H945.628H995.344H1085.27C1085.82 481.062 1086.27 480.614 1086.27 480.062V381.018H1105.93C1115.77 381.018 1126.75 374.292 1126.75 363.511V333.449C1126.75 332.896 1126.3 332.449 1125.75 332.449H1107.91C1107.36 332.449 1106.91 332.001 1106.91 331.449V265.725C1106.91 265.173 1106.46 264.725 1105.91 264.725H1062.91H999.51V253.078C999.51 252.526 999.062 252.078 998.51 252.078H866.91H826.466L826.054 252.079C825.836 252.079 825.618 252.079 825.4 252.079C803.823 252.079 782.465 251.121 761.368 249.245C739.174 247.271 717.269 244.281 695.702 240.321C674.096 236.354 652.828 231.413 631.948 225.546L625.409 249.495L594.271 238.472C593.735 238.282 593.148 238.577 592.981 239.12L586.608 259.834L590.997 261.297L581.016 289.633L595.567 294.52L587.045 319.304L572.244 314.536L564.983 312.198C564.452 312.027 564.164 311.456 564.341 310.928L572.449 286.756L581.993 258.306L586.608 259.834L592.981 239.12C593.148 238.577 593.735 238.282 594.271 238.472L625.409 249.495L631.948 225.546C610.781 219.598 590.012 212.698 569.693 204.894C549.058 196.969 528.887 188.112 509.233 178.373C480.033 163.905 451.973 147.491 425.229 129.299C416.766 123.542 408.434 117.606 400.239 111.498L392.478 105.292C371.239 89.0613 350.947 71.6546 331.699 53.1693C321.21 43.0966 311.032 32.7036 301.179 22.0061C300.807 21.602 300.178 21.5729 299.771 21.9415L287.259 33.2638L260.399 3.25218L259.809 2.59279L258.857 1.5295C258.667 1.31754 258.396 1.1964 258.112 1.1964H221.072H152.052H124.75H82.1836L1 1.1964C34.6002 61.2228 76.7976 117.197 122.537 168.203C125.919 171.821 129.332 175.413 132.775 178.977L132.946 179.153L141.287 171.632L158.176 156.165L170.029 145.31L189.186 127.766L225.641 164.44L244.894 145.31C251.3 151.445 257.804 157.479 264.403 163.409C264.813 163.777 264.849 164.408 264.482 164.819L247.012 184.434C246.629 184.865 245.962 184.883 245.556 184.474L225.641 164.44L189.186 127.766L170.029 145.31L158.176 156.165L141.287 171.632L132.946 179.153C143.448 190.021 154.229 200.644 165.279 211.042C175.841 220.98 186.647 230.713 197.69 240.258C208.234 249.373 218.992 258.317 229.958 267.106C230.658 267.666 231.358 268.226 232.059 268.785C243.705 278.076 255.582 287.194 267.681 296.158C289.36 312.219 311.75 327.373 334.797 341.563C359.796 356.956 385.568 371.215 412.04 384.269C436.979 396.567 462.54 407.796 488.663 417.895C489.52 418.226 490.377 418.557 491.236 418.885C500.802 422.552 510.444 426.067 520.157 429.428C537.147 435.306 554.356 440.712 571.77 445.631ZM596.626 353.533L567.935 344.036L561.17 365.71L590.184 375.466L596.626 353.533Z" fill="white"/>
<path d="M567.935 344.036L596.626 353.533L590.184 375.466L561.17 365.71L567.935 344.036Z" fill="white"/>
<path d="M267.681 296.158L300.507 251.638L311.381 236.89M267.681 296.158C289.36 312.219 311.75 327.373 334.797 341.563M267.681 296.158C255.582 287.194 243.705 278.076 232.059 268.785C231.358 268.226 230.658 267.666 229.958 267.106M412.04 384.269C385.568 371.215 359.796 356.956 334.797 341.563M412.04 384.269C436.979 396.567 462.54 407.796 488.663 417.895M412.04 384.269L419.908 367.643M999.51 264.725H1062.91M999.51 264.725L995.344 265.842M999.51 264.725V253.078M287.259 33.2638L246.305 72.5025L237.201 81.2254M287.259 33.2638L299.771 21.9415M287.259 33.2638L260.399 3.25218M331.699 53.1693C350.947 71.6546 371.239 89.0613 392.478 105.292L400.239 111.498M331.699 53.1693L262.683 129.51M331.699 53.1693C321.21 43.0966 311.032 32.7036 301.179 22.0061M327.611 214.879L311.381 236.89M327.611 214.879C320.756 209.831 301.831 195.748 294.289 189.873C293.858 189.537 293.239 189.61 292.895 190.035L291.27 192.046M327.611 214.879C334.064 219.631 340.588 224.292 347.181 228.861M124.62 1.00011C124.664 1.06555 124.707 1.13098 124.75 1.1964M340.225 194.018L316.341 175.649M340.225 194.018L355.195 173.434M340.225 194.018C343.674 196.544 347.144 199.044 350.634 201.517M400.239 111.498C408.434 117.606 416.766 123.542 425.229 129.299M400.239 111.498L355.195 173.434M189.186 127.766L210.273 108.454M189.186 127.766L225.641 164.44M189.186 127.766L170.029 145.31L158.176 156.165L141.287 171.632L132.946 179.153M1 1.1964L82.1836 1.1964H124.75M1 1.1964C35.0616 63.2895 75.9063 118.322 122.537 168.203M1 1.1964C34.6002 61.2228 76.7976 117.197 122.537 168.203M1086.27 381.018H1105.93C1115.77 381.018 1126.75 374.292 1126.75 363.511V333.449M1086.27 381.018H1059.73C1059.28 381.018 1058.88 380.714 1058.77 380.276L1058.05 377.59C1057.93 377.153 1057.53 376.849 1057.08 376.849H1011.85M1086.27 381.018V480.062M197.69 240.258C208.234 249.373 218.992 258.317 229.958 267.106M197.69 240.258C186.647 230.713 175.841 220.98 165.279 211.042C154.229 200.644 143.448 190.021 132.946 179.153M197.69 240.258L222.899 212.351M244.894 145.31C251.3 151.445 257.804 157.479 264.403 163.409C264.813 163.777 264.849 164.408 264.482 164.819L247.012 184.434C246.629 184.865 245.962 184.883 245.556 184.474L225.641 164.44M244.894 145.31L225.641 164.44M244.894 145.31C243.711 144.178 242.532 143.043 241.357 141.904M826.466 252.078L826.054 252.079M826.466 252.078C826.329 252.079 826.191 252.079 826.054 252.079M826.466 252.078H866.91M825.4 252.079C825.618 252.079 825.836 252.079 826.054 252.079M825.4 252.079V355.842M825.4 252.079C803.823 252.079 782.465 251.121 761.368 249.245M235.508 136.181C223.571 124.387 211.989 112.237 200.778 99.7457M262.683 129.51C270.919 137.269 279.316 144.857 287.87 152.271M262.683 129.51C259.796 126.79 256.929 124.049 254.082 121.288M246.305 113.816L256.946 102.118C257.307 101.722 257.291 101.111 256.91 100.734L237.201 81.2254M246.305 113.816L244.471 111.73M246.305 113.816L247.876 115.387M238.24 105.498L226.33 93.0232C225.949 92.6242 225.964 91.9922 226.362 91.6106L237.201 81.2254M334.797 341.563L386.896 254.744M386.896 254.744C385.21 253.712 383.527 252.674 381.848 251.63M386.896 254.744C388.584 255.777 390.275 256.804 391.971 257.825M368.755 213.993C369.723 214.641 370.693 215.287 371.665 215.931C382.759 223.282 394.043 230.368 405.509 237.18M368.755 213.993L382.795 192.937M368.755 213.993C365.501 211.818 362.265 209.619 359.045 207.398M425.229 129.299L382.795 192.937M425.229 129.299C451.973 147.491 480.033 163.905 509.233 178.373M382.795 192.937L374.053 186.76M355.195 173.434L365.311 180.583M488.663 417.895C489.52 418.226 490.377 418.557 491.236 418.885C500.802 422.552 510.444 426.067 520.157 429.428M488.663 417.895L501.659 384.176M525.351 322.71L523.371 327.847M525.351 322.71L538.586 326.763M525.351 322.71C523.507 322.009 521.666 321.302 519.827 320.588M533.665 299.825L542.122 276.776M533.665 299.825L537.058 301.413M533.665 299.825C531.911 299.164 530.161 298.495 528.414 297.82M569.693 204.894C590.012 212.698 610.781 219.598 631.948 225.546M569.693 204.894L542.122 276.776M569.693 204.894C549.058 196.969 528.887 188.112 509.233 178.373M570.112 443.805L581.356 405.523M581.356 405.523L552.592 396.547C552.064 396.382 551.77 395.822 551.935 395.294L557.705 376.808M581.356 405.523L590.184 375.466M567.935 344.036L569.815 338.013C569.979 337.487 570.538 337.193 571.065 337.356L574.124 338.302M567.935 344.036L596.626 353.533M567.935 344.036L561.17 365.71M596.626 353.533L590.184 375.466M596.626 353.533L598.364 347.615M590.184 375.466L561.17 365.71M561.17 365.71L560.191 368.845M520.157 429.428C537.147 435.306 554.356 440.712 571.77 445.631C599.001 453.323 626.733 459.823 654.904 465.072M520.157 429.428L528.58 403.944M523.371 327.847L550.685 337.061M523.371 327.847L514.656 350.458M550.685 337.061L552.343 332.044C552.519 331.511 552.222 330.938 551.686 330.774L548.164 329.696M550.685 337.061L548.164 344.687M543.14 359.889L514.656 350.458M543.14 359.889L535.739 382.281M543.14 359.889L545.644 352.313M514.656 350.458L501.659 384.176M531.649 394.658L501.659 384.176M531.649 394.658L531.123 396.249L532.509 392.056L531.649 394.658ZM590.997 343.525L597.909 345.665C598.432 345.826 598.727 346.377 598.573 346.902L598.364 347.615M631.948 225.546L625.409 249.495M631.948 225.546C652.828 231.413 674.096 236.354 695.702 240.321M625.409 249.495L604.559 323.142C604.404 323.689 604.736 324.255 605.289 324.387C629.305 330.135 653.322 335.882 677.339 341.63M625.409 249.495L594.271 238.472C593.735 238.282 593.148 238.577 592.981 239.12L586.608 259.834M586.608 259.834L581.993 258.306M586.608 259.834L590.997 261.297M608.666 267.183L590.997 261.297M563.752 252.263L581.993 258.306M581.993 258.306L572.449 286.756M590.997 261.297L581.016 289.633M572.244 314.536L564.983 312.198C564.452 312.027 564.164 311.456 564.341 310.928L572.449 286.756M572.244 314.536L587.045 319.304M572.244 314.536L581.016 289.633M554.427 280.704L558.102 281.938M598.851 295.623L595.567 294.52M545.644 305.968L549.445 307.193M590.997 320.577L587.045 319.304M553.595 295.623L558.102 281.938M558.102 281.938L572.449 286.756M550.931 302.717L549.445 307.193M549.445 307.193L587.045 319.304M542.122 276.776L546.024 278.247M595.567 294.52L581.016 289.633M595.567 294.52L587.045 319.304M586.608 320.577L587.045 319.304M613.612 352.313L673.52 365.358M967.526 380.255H930.516M930.516 380.255V404.202C930.516 404.754 930.964 405.202 931.516 405.202H967.526M930.516 380.255H926.498M995.344 376.849V404.202C995.344 404.754 994.897 405.202 994.344 405.202H967.526M995.344 376.849H999.51H978.458M995.344 376.849V436.028M995.344 481.062H1085.27M995.344 481.062H945.628M995.344 481.062V436.028M1022.38 352.947H1062.91M1066.07 352.947H1062.91M1062.91 352.947V264.725M1062.91 264.725H1105.91M995.344 265.842V352.947M995.344 265.842H968.526C967.974 265.842 967.526 266.289 967.526 266.842V352.947M995.344 352.947H1009.22M995.344 352.947H986.587M974.217 352.947H967.526M967.526 352.947H909.42C908.868 352.947 908.42 353.395 908.42 353.947V354.842C908.42 355.394 907.972 355.842 907.42 355.842H906.079M825.4 355.842L820.557 355.583M825.4 355.842H832.642M677.339 341.63L683.216 309.203M677.339 341.63L683.216 342.481M216.433 81.9627L214.449 79.7733M132.775 178.977C132.499 178.983 132.223 178.874 132.021 178.655M132.775 178.977C129.332 175.413 125.919 171.821 122.537 168.203M132.775 178.977C132.832 179.036 132.889 179.095 132.946 179.153M132.775 178.977L132.946 179.153M132.021 178.655C128.844 175.194 125.682 171.71 122.537 168.203M132.021 178.655C132.167 178.813 132.313 178.972 132.459 179.131C132.587 179.271 132.805 179.281 132.946 179.153M124.75 1.1964H152.052H221.072H258.112M124.75 1.1964C141.083 25.9822 158.762 49.9261 177.639 72.8402M258.112 1.1964C258.396 1.1964 258.667 1.31754 258.857 1.5295M258.112 1.1964C258.396 1.1964 258.667 1.31754 258.857 1.5295M258.857 1.5295L259.809 2.59279L260.399 3.25218M299.771 21.9415C300.178 21.5729 300.807 21.602 301.179 22.0061M299.771 21.9415C300.178 21.5729 300.807 21.602 301.179 22.0061M998.51 252.078C999.062 252.078 999.51 252.526 999.51 253.078M998.51 252.078H866.91M998.51 252.078C999.062 252.078 999.51 252.526 999.51 253.078M1105.91 264.725C1106.46 264.725 1106.91 265.173 1106.91 265.725M1105.91 264.725C1106.46 264.725 1106.91 265.173 1106.91 265.725M1106.91 265.725V331.449M1106.91 331.449C1106.91 332.001 1107.36 332.449 1107.91 332.449M1106.91 331.449C1106.91 332.001 1107.36 332.449 1107.91 332.449M1107.91 332.449H1125.75M1125.75 332.449C1126.3 332.449 1126.75 332.896 1126.75 333.449M1125.75 332.449C1126.3 332.449 1126.75 332.896 1126.75 333.449M1086.27 480.062C1086.27 480.614 1085.82 481.062 1085.27 481.062M1086.27 480.062C1086.27 480.614 1085.82 481.062 1085.27 481.062M212.465 77.584L214.449 79.7733M214.449 79.7733L233.934 62.1626C234.337 61.7986 234.376 61.1799 234.022 60.7685L217.179 41.1935M237.201 196.519L222.899 212.351M237.201 196.519L229.734 204.785L222.899 212.351M237.201 196.519L239.048 198.006M311.381 236.89L276.928 209.787M276.928 209.787L275.04 212.091M276.928 209.787L284.586 200.314M229.958 267.106L267.681 221.071M267.681 221.071L246.305 203.852M267.681 221.071L269.163 219.263M455.506 292.42C446.255 287.893 437.101 283.2 428.046 278.344M455.506 292.42L440.922 323.237M455.506 292.42C473.583 301.266 491.983 309.455 510.656 316.964M414.096 242.211C431.002 251.978 448.098 261.256 465.484 269.92M809.811 355.009L751.663 351.904M866.91 355.842H841.831M866.91 355.842V340.923M866.91 355.842H895.452M1075.81 352.947H1103.49M222.899 212.351L220.733 210.382M581.016 289.633L572.449 286.756M188.38 64.0247L194.449 58.5266C194.871 58.1449 195.525 58.1908 195.889 58.6269C195.923 58.6668 195.956 58.7068 195.989 58.7467C196.352 59.1799 197.001 59.2266 197.422 58.8503L217.179 41.1935M177.639 72.8402L180.574 70.2956M177.639 72.8402C178.134 73.4412 178.63 74.0414 179.126 74.6409M465.484 269.92L509.233 178.373M465.484 269.92C482.967 278.632 500.744 286.723 518.915 294.065M695.702 240.321L689.094 276.776M695.702 240.321C717.269 244.281 739.174 247.271 761.368 249.245M751.663 351.904L761.368 249.245M751.663 351.904L692.636 343.845M773.393 375.291L749.155 374.238M782.198 375.598L809.811 376.397M217.179 41.1935L260.399 3.25218M194.533 92.7093L191.112 88.4503M356.042 234.917C361.992 238.927 367.996 242.863 374.053 246.723M400.459 262.869C406.936 266.666 413.469 270.377 420.055 274.003M673.52 365.358L675.136 365.71L678.511 366.114M673.52 365.358L654.904 465.072M654.904 465.072C655.828 465.244 656.752 465.415 657.676 465.584C712.096 475.554 768.147 480.854 825.4 481.056C826.53 481.06 827.66 481.062 828.791 481.062H911.042M749.155 374.238L744.676 374.043L725.66 371.764M749.155 374.238L740.252 475.513M598.364 347.615L602.622 348.95M688.065 367.259L716.371 370.651M820.557 376.708L825.4 376.849H877.135M866.91 330.476V252.078M887.199 376.849H888.236C888.788 376.849 889.236 377.296 889.236 377.849V379.255C889.236 379.808 889.684 380.255 890.236 380.255H909.441H911.042M917.152 380.255H911.042M911.042 380.255V436.028M911.042 481.062V436.028M911.042 481.062H945.628M911.042 436.028H922.933M934.593 436.028H945.628M956.664 436.028H945.628M945.628 436.028V481.062M967.526 405.202V435.028C967.526 435.58 967.974 436.028 968.526 436.028H976.236M986.587 436.028H995.344M821.595 499.354C821.17 499.355 822.02 499.354 821.595 499.354Z" stroke="#BFC4C8" stroke-width="2" stroke-linecap="round" stroke-linejoin="round"/>
</g>
<text id="title" fill="#172736" style="white-space: pre" xml:space="preserve" font-family="CoFo Weather 20240219" font-size="10" font-weight="500" letter-spacing="0em"><tspan x="1003.21" y="309.973">&#x41b;&#x438;&#x444;&#x442;&#x43e;&#x432;&#x43e;&#x439;&#10;</tspan><tspan x="1012.58" y="319.973">&#x445;&#x43e;&#x43b;&#x43b; 2</tspan></text>
<g id="b1f9-paper">
<text id="title_2" transform="translate(259.79 161.392) rotate(-48.8097)" fill="#172736" style="white-space: pre" xml:space="preserve" font-family="CoFo Weather 20240219" font-size="8" font-weight="500" letter-spacing="0em"><tspan x="10.7995" y="6.76">&#x423;&#x442;&#x438;&#x43b;&#x438;&#x437;&#x430;&#x446;&#x438;&#x44f; </tspan><tspan x="20.2448" y="14.76">&#x431;&#x443;&#x43c;&#x430;&#x433;&#x438;</tspan></text>
<path id="Ellipse 40" d="M283.79 131.023C283.79 133.508 281.775 135.523 279.29 135.523C276.805 135.523 274.79 133.508 274.79 131.023C274.79 128.537 276.805 126.523 279.29 126.523C281.775 126.523 283.79 128.537 283.79 131.023Z" fill="#73E553"/>
</g>
<text id="title_3" fill="#172736" style="white-space: pre" xml:space="preserve" font-family="CoFo Weather 20240219" font-size="10" font-weight="500" letter-spacing="0em"><tspan x="315.212" y="108.973">&#x41b;&#x438;&#x444;&#x442;&#x43e;&#x432;&#x43e;&#x439;&#10;</tspan><tspan x="325.803" y="118.973">&#x445;&#x43e;&#x43b;&#x43b; 1</tspan></text>
<g id="b1f9-9b">
<path id="Ellipse 35" d="M490.47 418.474C489.922 418.264 489.375 418.053 488.827 417.842C488.313 417.644 488.057 417.067 488.254 416.553L500.859 383.608C501.052 383.104 501.609 382.844 502.118 383.019L531.906 393.276C532.423 393.454 532.701 394.015 532.53 394.535L521.355 428.463C521.18 428.993 520.606 429.278 520.078 429.095C510.587 425.809 499.724 422.02 490.47 418.474Z" fill="#33D18F" fill-opacity="0.2" stroke="#33D18F" stroke-opacity="0.2" stroke-width="2.00001" stroke-linejoin="round"/>
<text id="title_4" transform="translate(495.79 408.555)" fill="#172736" style="white-space: pre" xml:space="preserve" font-family="CoFo Weather 20240219" font-size="4" font-weight="500" letter-spacing="0em"><tspan x="0" y="3.38">&#x41f;&#x435;&#x440;&#x435;&#x433;&#x43e;&#x432;&#x43e;&#x440;&#x43a;&#x430;</tspan></text>
<g id="Frame 16">
<rect x="503.519" y="399.523" width="9.375" height="7.25" rx="1.6875" fill="#33D18F" fill-opacity="0.2"/>
<text id="9&#208;&#177;" transform="translate(505.206 400.648)" fill="#172736" style="white-space: pre" xml:space="preserve" font-family="CoFo Weather 20240219" font-size="4.5" font-weight="500" letter-spacing="0.02em"><tspan x="0.138105" y="4.0525">9&#x431;</tspan></text>
</g>
</g>
<g id="b1f9-903">
<path id="Ellipse 37" d="M215.754 41.127C216.588 40.3813 217.872 40.4654 218.602 41.3135L234.78 60.1163C235.488 60.9392 235.411 62.1765 234.605 62.9044L215.861 79.8458C215.043 80.5857 213.779 80.5227 213.038 79.7051L211.724 78.2559L211.724 78.2558C211.721 78.2513 211.718 78.2471 211.714 78.2432L196.554 60.9424C195.831 60.1175 195.907 58.8639 196.724 58.1329L215.754 41.127Z" fill="#33D18F" fill-opacity="0.2" stroke="#33D18F" stroke-opacity="0.2" stroke-width="2.00001" stroke-linejoin="round"/>
<text id="title_5" transform="translate(206.79 60.836)" fill="#172736" style="white-space: pre" xml:space="preserve" font-family="CoFo Weather 20240219" font-size="4" font-weight="500" letter-spacing="0em"><tspan x="0.0410156" y="3.38">&#x41a;&#x43e;&#x43c;&#x43d;&#x430;&#x442;&#x430;&#10;</tspan><tspan x="0.544922" y="7.38">&#x442;&#x438;&#x448;&#x438;&#x43d;&#x44b;</tspan></text>
<g id="Frame 17">
<rect x="209.519" y="51.8038" width="12.375" height="7.25" rx="1.6875" fill="#33D18F" fill-opacity="0.2"/>
<text id="903" transform="translate(211.206 52.9288)" fill="#172736" style="white-space: pre" xml:space="preserve" font-family="CoFo Weather 20240219" font-size="4.5" font-weight="500" letter-spacing="0.02em"><tspan x="0.0747948" y="4.0525">903</tspan></text>
</g>
</g>
<g id="b1f9-k">
<path id="Ellipse 36" d="M550.872 395.837L579.659 404.82C580.177 404.982 580.472 405.527 580.323 406.049L570.079 441.965C569.928 442.496 569.372 442.803 568.841 442.651C552.839 438.086 540.029 434.201 524.391 428.811C523.875 428.633 523.595 428.073 523.765 427.555L534.86 393.712C535.016 393.235 535.502 392.948 535.995 393.04L550.872 395.837Z" fill="#FFEDD6" stroke="#FFCF94" stroke-width="2.00001" stroke-linejoin="round"/>
<text id="title_6" fill="#172736" style="white-space: pre" xml:space="preserve" font-family="CoFo Weather 20240219" font-size="5.62502" font-weight="500" letter-spacing="0em"><tspan x="532.852" y="421.441">&#x41c;&#x438;&#x43d;&#x438;-&#x43a;&#x443;&#x445;&#x43d;&#x44f;</tspan></text>
</g>
</g>
</svg>
