<svg width="1149" height="358" viewBox="0 0 1149 358" fill="none" xmlns="http://www.w3.org/2000/svg">
<path d="M14.3318 200.941C14.3767 200.425 14.8093 200.028 15.3281 200.028H31.4111V2.52783C31.4111 1.97555 31.8588 1.52783 32.4111 1.52783H217.411H302.411H347.911H1120.91C1121.46 1.52783 1121.91 1.97555 1121.91 2.52783V87.0278H1146.91C1147.46 87.0278 1147.91 87.4755 1147.91 88.0278V217.751C1147.91 218.208 1147.62 218.601 1147.18 218.714C1129.52 223.203 1080.13 235.328 1017.41 249.528C954.487 263.775 889.965 275.933 864.712 280.387C864.234 280.471 863.911 280.882 863.911 281.367V298.528C863.911 299.08 863.463 299.528 862.911 299.528H751.983C751.935 299.528 751.889 299.531 751.842 299.538C706.509 306.099 614.758 319.391 574.411 325.274C569.638 325.97 565.584 326.563 562.411 327.028C532.411 331.428 436.911 339.528 392.911 343.028H307.411V347.565C307.411 348.102 307.011 348.543 306.474 348.563C261.909 350.247 167.612 353.939 139.411 355.528C111.296 357.112 36.757 356.213 1.95484 355.548C1.37623 355.537 0.953586 355.039 1.00364 354.462L14.3318 200.941Z" fill="white"/>
<path d="M468.411 309.028C467.859 309.028 467.411 308.58 467.411 308.028V303.528V280.528H484.911V309.028H468.411Z" fill="white"/>
<path d="M533.411 209.528V251.028H521.161V209.528H533.411Z" fill="white"/>
<path d="M156.911 132.028C156.911 131.476 156.463 131.028 155.911 131.028H126.411V138.528C126.411 139.08 126.859 139.528 127.411 139.528H155.911C156.463 139.528 156.911 139.08 156.911 138.528V132.028Z" fill="white"/>
<path d="M31.4111 200.028H15.3281C14.8093 200.028 14.3767 200.425 14.3318 200.941L1.00364 354.462C0.953586 355.039 1.37623 355.537 1.95484 355.548C36.757 356.213 111.295 357.112 139.411 355.528C167.612 353.939 261.909 350.247 306.474 348.563C307.011 348.543 307.411 348.102 307.411 347.565V343.028M31.4111 200.028V2.52783C31.4111 1.97555 31.8588 1.52783 32.4111 1.52783H217.411M31.4111 200.028H80.4111C80.9634 200.028 81.4111 199.58 81.4111 199.028V167.528M307.411 343.028H392.911C436.911 339.528 532.411 331.428 562.411 327.028C565.584 326.563 569.638 325.97 574.411 325.274M307.411 343.028V205.028C307.411 204.476 307.859 204.028 308.411 204.028H310.411M1121.91 87.0278H1146.91C1147.46 87.0278 1147.91 87.4755 1147.91 88.0278V217.751C1147.91 218.208 1147.62 218.601 1147.18 218.714C1129.52 223.203 1080.13 235.328 1017.41 249.528C954.487 263.775 889.965 275.933 864.712 280.387C864.234 280.471 863.911 280.882 863.911 281.367V298.528C863.911 299.08 863.463 299.528 862.911 299.528H751.983C751.935 299.528 751.889 299.531 751.842 299.538C706.509 306.099 614.758 319.391 574.411 325.274M1121.91 87.0278V2.52783C1121.91 1.97555 1121.46 1.52783 1120.91 1.52783H347.911M1121.91 87.0278V95.0278M31.9111 139.528H84.4111M80.9111 153.528V139.528M96.9111 139.528H106.911M120.911 139.528H138.411M151.911 139.528H165.911M179.911 139.528H217.411M284.911 139.528H217.411M298.411 139.528H306.911M320.411 139.528H323.911M338.411 139.528H358.911M364.911 139.528H358.911M378.911 139.528H396.911C397.463 139.528 397.911 139.08 397.911 138.528V98.0278M81.9111 185.028H84.9111M124.911 176.528V184.028C124.911 184.58 124.463 185.028 123.911 185.028H100.911M124.911 176.528H120.411M124.911 176.528H200.411M107.411 176.528H101.911C101.359 176.528 100.911 176.976 100.911 177.528V185.028M97.4111 185.028H100.911M397.911 176.528H400.411C400.963 176.528 401.411 176.976 401.411 177.528V202.028M236.411 176.528H310.411M310.411 176.528H355.411M310.411 176.528V204.028M310.411 204.028H360.411M366.411 176.528H375.911M375.911 176.528H387.411M375.911 176.528V204.028M375.911 204.028H395.411M375.911 204.028H360.411M407.411 204.028H395.411M395.411 204.028V216.528M395.411 269.528V280.528M395.411 280.528V287.028M395.411 280.528H360.411M360.411 280.528V304.528M360.411 280.528V242.028M360.411 204.028V242.028M360.411 242.028H395.411M395.411 232.528V242.028M395.411 242.028V254.528M395.411 309.028V325.528M395.411 342.028V325.528M440.411 339.028V328.028M440.411 314.028V304.528C440.411 303.976 440.859 303.528 441.411 303.528H467.411M467.411 303.528V308.028C467.411 308.58 467.859 309.028 468.411 309.028H484.911M467.411 303.528V280.528M484.911 309.028V335.028M484.911 309.028V280.528M484.911 204.028H448.911M484.911 204.028V209.528M484.911 204.028V198.028M448.911 204.028H428.911M448.911 204.028V216.528M448.911 269.528V279.528C448.911 280.08 449.359 280.528 449.911 280.528H467.411M484.911 280.528H467.411M484.911 280.528V251.028M448.911 232.528V242.028M448.911 242.028V254.528M448.911 242.028H484.911M484.911 242.028V251.028M484.911 242.028V209.528M484.911 251.028H495.411M528.411 331.028V310.028C528.411 309.476 528.859 309.028 529.411 309.028H532.411C532.963 309.028 533.411 308.58 533.411 308.028V251.028M533.411 251.028V209.528M533.411 251.028H521.161M533.411 209.528H552.911M533.411 209.528H521.161M484.911 209.528H494.411M508.911 251.028H521.161M521.161 251.028V209.528M521.161 209.528H508.911M521.161 209.528V204.028M484.911 185.028V177.028C484.911 176.476 485.359 176.028 485.911 176.028H521.161M521.161 176.028V189.528M521.161 176.028H574.411M574.411 176.028H589.411M574.411 176.028V248.528M602.411 176.528H674.411M1040.91 176.528H1138.43C1138.74 176.528 1139.02 176.664 1139.21 176.899L1147.41 187.028M952.411 176.528H1022.91M1022.91 176.528H1026.91M1022.91 176.528V248.528M900.911 176.528H934.911M934.911 176.528H939.911M934.911 176.528V204.028M934.911 267.528V204.028M934.911 204.028H849.911C849.359 204.028 848.911 203.58 848.911 203.028V189.528M775.911 176.528H848.911M848.911 176.528V189.528M848.911 176.528H863.911M887.911 176.528H863.911M687.411 176.528H708.411M757.411 176.528H762.411M757.411 176.528V251.028M757.411 176.528H708.411M757.411 299.528V251.028M217.411 352.056V176.528M99.9111 139.528V129.528C99.9111 128.976 100.359 128.528 100.911 128.528H126.411M126.411 128.528V131.028M126.411 128.528V2.02783M126.411 131.028H155.911C156.463 131.028 156.911 131.476 156.911 132.028V138.528C156.911 139.08 156.463 139.528 155.911 139.528H127.411C126.859 139.528 126.411 139.08 126.411 138.528V131.028ZM601.911 139.028H619.911M619.911 139.028H674.411M619.911 139.028V146.028M687.411 139.028H739.911M739.911 139.028V134.528C739.911 133.976 740.359 133.528 740.911 133.528H756.911M739.911 139.028H743.911M1013.41 139.028H1019.91C1020.46 139.028 1020.91 138.58 1020.91 138.028V109.528M989.911 139.028H994.911M994.911 139.028H999.911M994.911 139.028V109.528M994.911 109.528H979.161M994.911 109.528V96.5278M994.911 109.528H1010.91M960.911 139.028H964.411M964.411 139.028H973.911M964.411 139.028V109.528M964.411 109.528V97.5278C964.411 96.9755 964.859 96.5278 965.411 96.5278H979.161M964.411 109.528H963.411M964.411 109.528H979.161M979.161 109.528V96.5278M979.161 96.5278H985.411M994.911 96.5278H1010.91M994.911 96.5278H985.411M994.911 96.5278H1020.91M1010.91 96.5278H1020.91M1010.91 96.5278V109.528M985.411 96.5278V59.0278M936.411 139.028H947.411M936.411 139.028V110.528M936.411 139.028H928.911M936.411 96.5278V1.52783M936.411 96.5278V110.528M936.411 96.5278H908.411M840.911 139.028H845.411M845.411 139.028V97.0278M845.411 139.028H911.911M845.411 97.0278H846.411M845.411 97.0278H810.411C809.859 97.0278 809.411 97.4755 809.411 98.0278V139.028M845.411 97.0278C845.411 96.7517 845.635 96.5278 845.911 96.5278H908.411M775.411 139.028H809.411M809.411 139.028H828.411M754.411 139.028H758.161M758.161 139.028H761.911M758.161 139.028V2.02783M619.911 170.028V247.528C619.911 248.08 619.463 248.528 618.911 248.528H574.411M567.911 139.028H570.411M570.411 139.028H587.911M570.411 139.028V2.02783M553.911 139.028H480.411C479.859 139.028 479.411 138.58 479.411 138.028V99.0278C479.411 98.4755 478.963 98.0278 478.411 98.0278H424.411C423.859 98.0278 423.411 97.5801 423.411 97.0278V94.0278M323.411 139.528V129.528C323.411 128.976 323.859 128.528 324.411 128.528H341.911M358.911 128.528H341.911M358.911 128.528V139.528M358.911 128.528V74.0278M341.911 128.528V139.528M302.411 139.528V74.0278M302.411 74.0278H347.911M302.411 74.0278V70.5278M1118.41 176.528V169.528M1070.41 132.528H1067.41C1066.86 132.528 1066.41 132.08 1066.41 131.528V119.528M1118.41 146.528V132.528M1118.41 132.528V120.528C1118.41 119.976 1117.96 119.528 1117.41 119.528H1091.16M1118.41 132.528H1110.91M1084.91 132.528H1091.16M1091.16 132.528H1097.41M1091.16 132.528V119.528M1091.16 119.528H1066.41M1066.41 119.528V96.5278M1066.41 96.5278V2.52783M1066.41 96.5278H1055.41M1023.16 96.5278H1032.91M1023.16 96.5278V87.5278M1023.16 96.5278H1020.91M1023.16 67.0278V59.0278M1023.16 59.0278V43.0278M1023.16 59.0278H985.411M985.411 59.0278V1.52783M1023.16 23.5278V1.52783M395.411 325.528H380.911M358.911 74.0278H396.911C397.463 74.0278 397.911 74.4755 397.911 75.0278V98.0278M358.911 74.0278H347.911M574.411 325.274V248.528M936.411 110.528H909.411C908.859 110.528 908.411 110.08 908.411 109.528V96.5278M1020.91 96.5278V109.528M1020.91 109.528H1010.91M848.911 189.528H862.911C863.463 189.528 863.911 189.08 863.911 188.528V176.528M757.411 251.028H709.411C708.859 251.028 708.411 250.58 708.411 250.028V198.028M397.911 98.0278H401.411M935.911 96.5278H946.911M216.911 176.528H222.411M212.911 176.528H216.411M708.411 176.528V182.028M347.911 74.0278V1.52783M347.911 1.52783H302.411M302.411 58.5278V1.52783M302.411 1.52783H217.411M217.411 139.528V1.52783M423.411 82.0278V53.5278M423.411 53.5278H415.911M423.411 53.5278H437.911M484.911 53.5278V97.0278C484.911 97.5801 484.463 98.0278 483.911 98.0278H478.911M484.911 53.5278V49.0278M484.911 53.5278H437.911M484.911 36.0278V1.52783M437.911 53.5278V1.52783M401.911 53.5278H398.411M398.411 53.5278V58.5278M398.411 53.5278V1.52783" stroke="#BFC4C8" stroke-width="2" stroke-linecap="round" stroke-linejoin="round"/>
<path d="M1041.59 82.9703L1041.59 82.5383C1041.58 82.2343 1041.5 82.0034 1041.34 81.8455C1041.17 81.6876 1040.9 81.5751 1040.53 81.5081C1040.15 81.433 1039.61 81.392 1038.92 81.3851L1034.57 81.334L1034.5 75.4065L1042.65 75.2997L1042.67 76.6676L1035.7 76.7588L1035.74 80.0586L1039.12 80.0984C1040.07 80.11 1040.81 80.1843 1041.33 80.3215C1041.84 80.4508 1042.22 80.6779 1042.45 81.0028C1042.68 81.3199 1042.8 81.7824 1042.81 82.3903L1042.81 82.9543L1041.59 82.9703ZM1039.74 72.5921C1040.39 72.5835 1040.85 72.5815 1041.11 72.5862L1036.37 69.4439L1036.35 68.016L1042.56 67.9348L1042.57 69.1707L1039.24 69.2143C1038.61 69.2226 1038.16 69.2245 1037.89 69.2199L1042.62 72.3504L1042.63 73.7903L1036.43 73.8715L1036.42 72.6356L1039.74 72.5921ZM1042.53 63.1305L1042.53 63.2625C1042.55 64.4704 1042.31 65.3575 1041.82 65.924C1041.33 66.4905 1040.53 66.781 1039.42 66.7955C1038.32 66.8099 1037.52 66.5404 1037.01 65.987C1036.5 65.4336 1036.24 64.553 1036.22 63.3451L1036.22 63.2131L1033.98 63.2425L1033.96 61.9466L1036.2 61.9172L1036.2 61.7852C1036.19 60.5693 1036.43 59.6781 1036.92 59.1116C1037.41 58.5451 1038.21 58.2547 1039.31 58.2402C1040.41 58.2258 1041.22 58.4952 1041.73 59.0486C1042.24 59.602 1042.5 60.4867 1042.51 61.7026L1042.51 61.8346L1044.88 61.8037L1044.89 63.0995L1042.53 63.1305ZM1039.41 65.4876C1040.21 65.477 1040.77 65.2937 1041.08 64.9377C1041.39 64.5816 1041.53 64.0396 1041.53 63.3117L1041.52 63.1197L1037.23 63.1759L1037.23 63.3679C1037.24 64.0958 1037.4 64.6338 1037.72 64.9816C1038.04 65.3295 1038.6 65.4982 1039.41 65.4876ZM1041.5 61.6678C1041.49 60.9399 1041.33 60.402 1041.01 60.0541C1040.7 59.7062 1040.14 59.5375 1039.33 59.5481C1038.52 59.5587 1037.96 59.742 1037.66 60.0981C1037.35 60.4541 1037.2 60.9961 1037.21 61.724L1037.21 61.916L1041.51 61.8598L1041.5 61.6678ZM1037.27 55.4183L1037.3 57.6621L1036.22 57.6762L1036.14 51.8807L1037.22 51.8666L1037.25 54.1104L1042.38 54.0433L1042.39 55.3512L1037.27 55.4183ZM1042.42 48.0122C1042.43 49.0281 1042.18 49.8154 1041.67 50.3742C1041.16 50.933 1040.42 51.2186 1039.47 51.231L1039 51.2372C1038.05 51.2496 1037.31 50.9833 1036.78 50.4381C1036.26 49.893 1035.99 49.1125 1035.97 48.0965C1035.96 47.0726 1036.21 46.2853 1036.72 45.7345C1037.23 45.1759 1037.96 44.8903 1038.92 44.8777L1039.39 44.8716C1040.35 44.859 1041.09 45.1253 1041.62 45.6704C1042.14 46.2077 1042.4 46.9883 1042.42 48.0122ZM1039.35 49.9126C1040.07 49.903 1040.6 49.7401 1040.92 49.4239C1041.25 49.1076 1041.41 48.6415 1041.4 48.0255C1041.39 47.4096 1041.22 46.9478 1040.89 46.6401C1040.55 46.3244 1040.02 46.1713 1039.3 46.1809L1039.05 46.1842C1038.32 46.1937 1037.79 46.3606 1037.47 46.6849C1037.14 47.0011 1036.99 47.4672 1036.99 48.0832C1037 48.6991 1037.17 49.1609 1037.5 49.4686C1037.84 49.7763 1038.37 49.9254 1039.09 49.9159L1039.35 49.9126ZM1036.04 43.7217L1035.99 40.218C1035.98 39.5621 1036.11 39.0604 1036.37 38.713C1036.63 38.3575 1037.02 38.1764 1037.55 38.1695C1038.26 38.1601 1038.74 38.4779 1038.99 39.1227C1039.07 38.7536 1039.24 38.4673 1039.49 38.264C1039.74 38.0528 1040.05 37.9447 1040.41 37.9399C1040.99 37.9324 1041.43 38.1067 1041.73 38.4628C1042.03 38.8189 1042.18 39.3529 1042.19 40.0648L1042.24 43.6405L1036.04 43.7217ZM1041.26 40.2091C1041.25 39.5451 1040.95 39.217 1040.37 39.2246C1040.07 39.2285 1039.86 39.3114 1039.71 39.4732C1039.57 39.6271 1039.5 39.884 1039.51 40.244L1039.54 42.4038L1041.29 42.3809L1041.26 40.2091ZM1038.6 40.3519C1038.59 40.0159 1038.52 39.7729 1038.37 39.6228C1038.23 39.4727 1038.02 39.3994 1037.74 39.403C1037.19 39.4102 1036.92 39.7378 1036.93 40.3858L1036.96 42.4376L1038.62 42.4157L1038.6 40.3519ZM1042.23 33.904C1042.25 34.9199 1042 35.7073 1041.48 36.266C1040.97 36.8248 1040.24 37.1104 1039.29 37.1229L1038.82 37.129C1037.87 37.1414 1037.13 36.8751 1036.6 36.33C1036.07 35.7848 1035.8 35.0043 1035.79 33.9884C1035.78 32.9645 1036.03 32.1771 1036.54 31.6264C1037.04 31.0677 1037.78 30.7821 1038.74 30.7695L1039.2 30.7634C1040.16 30.7508 1040.91 31.0171 1041.43 31.5623C1041.95 32.0995 1042.22 32.8801 1042.23 33.904ZM1039.16 35.8044C1039.89 35.7949 1040.42 35.632 1040.74 35.3157C1041.06 34.9994 1041.22 34.5333 1041.21 33.9174C1041.2 33.3014 1041.03 32.8396 1040.7 32.5319C1040.37 32.2163 1039.84 32.0632 1039.11 32.0727L1038.86 32.076C1038.13 32.0855 1037.61 32.2524 1037.28 32.5767C1036.96 32.893 1036.8 33.3591 1036.81 33.975C1036.82 34.591 1036.99 35.0528 1037.32 35.3605C1037.65 35.6681 1038.18 35.8172 1038.91 35.8077L1039.16 35.8044ZM1039.16 28.3341C1039.82 28.3256 1040.27 28.3236 1040.53 28.3282L1035.79 25.1859L1035.78 23.7581L1041.98 23.6768L1041.99 24.9127L1038.66 24.9564C1038.03 24.9647 1037.58 24.9665 1037.32 24.962L1042.04 28.0925L1042.06 29.5323L1035.85 29.6136L1035.84 28.3777L1039.16 28.3341ZM1033.89 27.527L1033.95 27.5262C1034.19 27.5231 1034.37 27.4608 1034.48 27.3393C1034.58 27.21 1034.63 27.0013 1034.63 26.7134C1034.62 26.4174 1034.57 26.2101 1034.46 26.0914C1034.35 25.9649 1034.17 25.9032 1033.93 25.9064L1033.87 25.9072L1033.86 24.8273C1034.38 24.8203 1034.77 24.9593 1035.01 25.2441C1035.25 25.5211 1035.37 26.0075 1035.38 26.7035C1035.39 27.3994 1035.28 27.8889 1035.04 28.172C1034.8 28.4552 1034.43 28.6001 1033.91 28.6069L1033.89 27.527ZM1051.98 67.4392L1054.57 68.9654L1054.59 70.4053L1051.36 68.3474L1048.39 70.3545L1048.37 68.8547L1050.72 67.3837L1048.33 65.9509L1048.31 64.511L1051.34 66.4876L1054.51 64.3578L1054.53 65.8577L1051.98 67.4392ZM1054.59 60.8559C1054.6 61.8719 1054.35 62.6592 1053.84 63.218C1053.32 63.7767 1052.59 64.0623 1051.64 64.0748L1051.17 64.0809C1050.22 64.0934 1049.48 63.827 1048.95 63.2819C1048.43 62.7367 1048.16 61.9562 1048.14 60.9403C1048.13 59.9164 1048.38 59.1291 1048.89 58.5783C1049.4 58.0196 1050.13 57.734 1051.09 57.7215L1051.56 57.7153C1052.52 57.7028 1053.26 57.9691 1053.79 58.5142C1054.31 59.0515 1054.57 59.832 1054.59 60.8559ZM1051.52 62.7563C1052.24 62.7468 1052.77 62.5839 1053.09 62.2676C1053.42 61.9514 1053.57 61.4852 1053.57 60.8693C1053.56 60.2534 1053.39 59.7915 1053.06 59.4839C1052.72 59.1682 1052.19 59.0151 1051.47 59.0246L1051.21 59.0279C1050.49 59.0375 1049.96 59.2044 1049.64 59.5286C1049.31 59.8449 1049.15 60.311 1049.16 60.9269C1049.17 61.5429 1049.34 62.0047 1049.67 62.3124C1050.01 62.6201 1050.54 62.7691 1051.26 62.7596L1051.52 62.7563ZM1053.37 57.2271L1053.37 56.9271C1053.37 56.5831 1053.24 56.3368 1052.98 56.1882C1052.71 56.0396 1052.26 55.9616 1051.62 55.9539L1048.2 55.9147L1048.13 50.8032L1054.33 50.7219L1054.35 52.0178L1049.23 52.0849L1049.26 54.7727L1051.75 54.8002C1052.43 54.8153 1052.96 54.8842 1053.36 55.0071C1053.74 55.1301 1054.03 55.3344 1054.21 55.62C1054.38 55.8978 1054.47 56.2807 1054.47 56.7686L1054.48 57.2126L1053.37 57.2271ZM1053.28 49.88L1053.27 49.5801C1053.27 49.2361 1053.14 48.9898 1052.88 48.8411C1052.62 48.6926 1052.16 48.6145 1051.52 48.6069L1048.1 48.5677L1048.03 43.4561L1054.24 43.3749L1054.25 44.6708L1049.13 44.7379L1049.17 47.4257L1051.65 47.4531C1052.33 47.4682 1052.87 47.5372 1053.26 47.6601C1053.65 47.783 1053.93 47.9873 1054.11 48.273C1054.28 48.5508 1054.37 48.9337 1054.38 49.4216L1054.38 49.8656L1053.28 49.88ZM1053.1 39.8027C1052.06 38.4082 1051.25 37.3707 1050.66 36.6904C1050.06 36.0022 1049.58 35.5444 1049.24 35.3169C1048.88 35.0896 1048.54 34.9781 1048.2 34.9825C1047.76 34.9882 1047.45 35.1363 1047.26 35.4268C1047.06 35.7094 1046.97 36.0907 1046.97 36.5707C1046.98 37.1146 1047.1 37.553 1047.35 37.8858C1047.59 38.2187 1047.99 38.5135 1048.55 38.7702L1048.1 39.9162C1047.35 39.614 1046.79 39.1853 1046.42 38.63C1046.05 38.0749 1045.85 37.3734 1045.84 36.5254C1045.83 35.6455 1046.02 34.947 1046.4 34.4299C1046.78 33.9049 1047.35 33.6374 1048.12 33.6274C1048.6 33.6211 1049.06 33.7391 1049.49 33.9814C1049.93 34.2238 1050.42 34.6533 1050.98 35.2702C1051.52 35.8871 1052.19 36.7743 1053 37.9318L1052.94 33.5282L1054.11 33.513L1054.19 39.7884L1053.1 39.8027Z" fill="#172736"/>
<rect x="422.911" y="52.25" width="62" height="46" fill="#33D18F" fill-opacity="0.2" stroke="#33D18F" stroke-opacity="0.2" stroke-width="2.5" stroke-linejoin="round"/>
<path d="M438.845 77.53H441.085V80.25H440.629V77.926H439.301V80.25H438.845V77.53ZM442.551 80.29C442.217 80.29 441.959 80.2033 441.775 80.03C441.593 79.8567 441.503 79.6113 441.503 79.294V79.138C441.503 78.8207 441.595 78.5753 441.779 78.402C441.963 78.2287 442.219 78.142 442.547 78.142C442.872 78.142 443.117 78.2273 443.283 78.398C443.451 78.566 443.535 78.8073 443.535 79.122C443.535 79.21 443.532 79.2793 443.527 79.33L441.927 79.302C441.929 79.734 442.141 79.95 442.563 79.95C442.808 79.95 443.015 79.854 443.183 79.662L443.467 79.906C443.379 80.0233 443.256 80.1167 443.099 80.186C442.941 80.2553 442.759 80.29 442.551 80.29ZM443.115 79.026C443.112 78.8447 443.064 78.7073 442.971 78.614C442.877 78.518 442.737 78.47 442.551 78.47C442.367 78.47 442.219 78.5193 442.107 78.618C441.997 78.7167 441.937 78.866 441.927 79.066L443.115 79.026ZM443.907 78.182H444.339V78.506C444.403 78.3967 444.496 78.31 444.619 78.246C444.744 78.1793 444.894 78.146 445.067 78.146C445.368 78.146 445.598 78.2353 445.755 78.414C445.915 78.59 445.995 78.8313 445.995 79.138V79.294C445.995 79.6007 445.915 79.8433 445.755 80.022C445.598 80.198 445.368 80.286 445.067 80.286C444.894 80.286 444.744 80.254 444.619 80.19C444.496 80.126 444.403 80.0407 444.339 79.934V81.05H443.907V78.182ZM444.327 79.262C444.327 79.4967 444.38 79.67 444.487 79.782C444.596 79.8913 444.75 79.946 444.947 79.946C445.352 79.946 445.555 79.718 445.555 79.262V79.166C445.555 78.7127 445.352 78.486 444.947 78.486C444.755 78.486 444.603 78.542 444.491 78.654C444.382 78.7633 444.327 78.934 444.327 79.166V79.262ZM447.347 80.29C447.014 80.29 446.755 80.2033 446.571 80.03C446.39 79.8567 446.299 79.6113 446.299 79.294V79.138C446.299 78.8207 446.391 78.5753 446.575 78.402C446.759 78.2287 447.015 78.142 447.343 78.142C447.669 78.142 447.914 78.2273 448.079 78.398C448.247 78.566 448.331 78.8073 448.331 79.122C448.331 79.21 448.329 79.2793 448.323 79.33L446.723 79.302C446.726 79.734 446.938 79.95 447.359 79.95C447.605 79.95 447.811 79.854 447.979 79.662L448.263 79.906C448.175 80.0233 448.053 80.1167 447.895 80.186C447.738 80.2553 447.555 80.29 447.347 80.29ZM447.911 79.026C447.909 78.8447 447.861 78.7073 447.767 78.614C447.674 78.518 447.534 78.47 447.347 78.47C447.163 78.47 447.015 78.5193 446.903 78.618C446.794 78.7167 446.734 78.866 446.723 79.066L447.911 79.026ZM448.704 78.182H450.148V78.542H449.136V80.25H448.704V78.182ZM451.402 80.29C451.064 80.29 450.802 80.2033 450.618 80.03C450.434 79.8567 450.342 79.6113 450.342 79.294V79.138C450.342 78.8207 450.434 78.5753 450.618 78.402C450.802 78.2287 451.064 78.142 451.402 78.142C451.744 78.142 452.005 78.2287 452.186 78.402C452.37 78.5727 452.462 78.818 452.462 79.138V79.294C452.462 79.614 452.37 79.8607 452.186 80.034C452.005 80.2047 451.744 80.29 451.402 80.29ZM450.782 79.258C450.782 79.5007 450.834 79.6767 450.938 79.786C451.042 79.8953 451.197 79.95 451.402 79.95C451.608 79.95 451.762 79.8953 451.866 79.786C451.973 79.6767 452.026 79.5007 452.026 79.258V79.174C452.026 78.9313 451.973 78.7553 451.866 78.646C451.762 78.5367 451.608 78.482 451.402 78.482C451.197 78.482 451.042 78.5367 450.938 78.646C450.834 78.7553 450.782 78.9313 450.782 79.174V79.258ZM452.86 78.182H454.028C454.247 78.182 454.414 78.226 454.528 78.314C454.646 78.402 454.704 78.534 454.704 78.71C454.704 78.9473 454.596 79.106 454.38 79.186C454.503 79.2153 454.598 79.2727 454.664 79.358C454.734 79.4407 454.768 79.5433 454.768 79.666C454.768 79.858 454.708 80.0033 454.588 80.102C454.468 80.2007 454.29 80.25 454.052 80.25H452.86V78.182ZM454.008 79.938C454.23 79.938 454.34 79.8407 454.34 79.646C454.34 79.5473 454.314 79.474 454.26 79.426C454.21 79.378 454.124 79.354 454.004 79.354H453.284V79.938H454.008ZM453.972 79.05C454.084 79.05 454.166 79.026 454.216 78.978C454.267 78.93 454.292 78.8607 454.292 78.77C454.292 78.586 454.184 78.494 453.968 78.494H453.284V79.05H453.972ZM456.105 80.29C455.767 80.29 455.505 80.2033 455.321 80.03C455.137 79.8567 455.045 79.6113 455.045 79.294V79.138C455.045 78.8207 455.137 78.5753 455.321 78.402C455.505 78.2287 455.767 78.142 456.105 78.142C456.447 78.142 456.708 78.2287 456.889 78.402C457.073 78.5727 457.165 78.818 457.165 79.138V79.294C457.165 79.614 457.073 79.8607 456.889 80.034C456.708 80.2047 456.447 80.29 456.105 80.29ZM455.485 79.258C455.485 79.5007 455.537 79.6767 455.641 79.786C455.745 79.8953 455.9 79.95 456.105 79.95C456.311 79.95 456.465 79.8953 456.569 79.786C456.676 79.6767 456.729 79.5007 456.729 79.258V79.174C456.729 78.9313 456.676 78.7553 456.569 78.646C456.465 78.5367 456.311 78.482 456.105 78.482C455.9 78.482 455.745 78.5367 455.641 78.646C455.537 78.7553 455.485 78.9313 455.485 79.174V79.258ZM457.563 78.182H457.995V78.506C458.059 78.3967 458.153 78.31 458.275 78.246C458.401 78.1793 458.55 78.146 458.723 78.146C459.025 78.146 459.254 78.2353 459.411 78.414C459.571 78.59 459.651 78.8313 459.651 79.138V79.294C459.651 79.6007 459.571 79.8433 459.411 80.022C459.254 80.198 459.025 80.286 458.723 80.286C458.55 80.286 458.401 80.254 458.275 80.19C458.153 80.126 458.059 80.0407 457.995 79.934V81.05H457.563V78.182ZM457.983 79.262C457.983 79.4967 458.037 79.67 458.143 79.782C458.253 79.8913 458.406 79.946 458.603 79.946C459.009 79.946 459.211 79.718 459.211 79.262V79.166C459.211 78.7127 459.009 78.486 458.603 78.486C458.411 78.486 458.259 78.542 458.147 78.654C458.038 78.7633 457.983 78.934 457.983 79.166V79.262ZM460.048 78.182H460.48V79.086H460.6L461.456 78.182H461.98L461.076 79.118L462.028 80.25H461.484L460.724 79.346H460.48V80.25H460.048V78.182ZM462.867 80.286C462.63 80.286 462.443 80.2353 462.307 80.134C462.171 80.03 462.103 79.8847 462.103 79.698C462.103 79.4847 462.178 79.3273 462.327 79.226C462.477 79.1247 462.707 79.074 463.019 79.074H463.599V78.934C463.599 78.7767 463.561 78.662 463.483 78.59C463.409 78.5153 463.289 78.478 463.123 78.478C462.987 78.478 462.866 78.5047 462.759 78.558C462.655 78.6087 462.571 78.6807 462.507 78.774L462.203 78.59C462.289 78.4487 462.414 78.3393 462.579 78.262C462.745 78.1847 462.929 78.146 463.131 78.146C463.414 78.146 463.631 78.2073 463.783 78.33C463.935 78.4527 464.011 78.65 464.011 78.922V80.25H463.615V79.91C463.549 80.0353 463.449 80.13 463.315 80.194C463.185 80.2553 463.035 80.286 462.867 80.286ZM462.519 79.666C462.519 79.7647 462.559 79.838 462.639 79.886C462.719 79.9313 462.826 79.954 462.959 79.954C463.146 79.954 463.299 79.914 463.419 79.834C463.539 79.7513 463.599 79.638 463.599 79.494V79.362H463.031C462.855 79.362 462.726 79.3873 462.643 79.438C462.561 79.4887 462.519 79.5647 462.519 79.666Z" fill="#172736"/>
<rect x="443.911" y="69.25" width="16" height="5" rx="1.6875" fill="#33D18F" fill-opacity="0.2"/>
<path d="M449.597 73.304C449.042 73.304 448.658 73.13 448.445 72.782L448.827 72.53C449.004 72.77 449.264 72.89 449.606 72.89C449.885 72.89 450.092 72.812 450.227 72.656C450.362 72.497 450.429 72.2465 450.429 71.9045V71.792C450.339 71.909 450.213 71.9975 450.051 72.0575C449.892 72.1145 449.708 72.143 449.498 72.143C449.15 72.143 448.881 72.0605 448.692 71.8955C448.506 71.7275 448.413 71.4815 448.413 71.1575C448.413 70.8335 448.517 70.583 448.724 70.406C448.931 70.226 449.237 70.136 449.642 70.136C450.092 70.136 450.417 70.2455 450.618 70.4645C450.819 70.6805 450.92 71.0165 450.92 71.4725V71.819C450.92 72.32 450.81 72.6935 450.591 72.9395C450.372 73.1825 450.041 73.304 449.597 73.304ZM448.908 71.1575C448.908 71.5595 449.147 71.7605 449.624 71.7605C450.131 71.7605 450.384 71.564 450.384 71.171C450.384 70.97 450.323 70.817 450.2 70.712C450.077 70.604 449.891 70.55 449.642 70.55C449.399 70.55 449.216 70.6025 449.093 70.7075C448.97 70.8095 448.908 70.9595 448.908 71.1575ZM452.04 70.8425C451.89 70.9835 451.68 71.0615 451.41 71.0765V70.6265C451.77 70.6175 452.019 70.472 452.157 70.19H452.544V73.25H452.04V70.8425ZM453.628 73.25C453.88 72.221 454.298 71.348 454.883 70.631H453.155V70.19H455.405V70.586C455.09 70.958 454.835 71.363 454.64 71.801C454.448 72.236 454.301 72.719 454.199 73.25H453.628Z" fill="#172736"/>
<rect x="398.911" y="1.25" width="38" height="51" fill="#33D18F" fill-opacity="0.2" stroke="#33D18F" stroke-opacity="0.2" stroke-width="2.5" stroke-linejoin="round"/>
<path d="M404.171 28.53H406.411V31.25H405.955V28.926H404.627V31.25H404.171V28.53ZM407.877 31.29C407.543 31.29 407.285 31.2033 407.101 31.03C406.919 30.8567 406.829 30.6113 406.829 30.294V30.138C406.829 29.8207 406.921 29.5753 407.105 29.402C407.289 29.2287 407.545 29.142 407.873 29.142C408.198 29.142 408.443 29.2273 408.609 29.398C408.777 29.566 408.861 29.8073 408.861 30.122C408.861 30.21 408.858 30.2793 408.853 30.33L407.253 30.302C407.255 30.734 407.467 30.95 407.889 30.95C408.134 30.95 408.341 30.854 408.509 30.662L408.793 30.906C408.705 31.0233 408.582 31.1167 408.425 31.186C408.267 31.2553 408.085 31.29 407.877 31.29ZM408.441 30.026C408.438 29.8447 408.39 29.7073 408.297 29.614C408.203 29.518 408.063 29.47 407.877 29.47C407.693 29.47 407.545 29.5193 407.433 29.618C407.323 29.7167 407.263 29.866 407.253 30.066L408.441 30.026ZM409.233 29.182H409.665V29.506C409.729 29.3967 409.823 29.31 409.945 29.246C410.071 29.1793 410.22 29.146 410.393 29.146C410.695 29.146 410.924 29.2353 411.081 29.414C411.241 29.59 411.321 29.8313 411.321 30.138V30.294C411.321 30.6007 411.241 30.8433 411.081 31.022C410.924 31.198 410.695 31.286 410.393 31.286C410.22 31.286 410.071 31.254 409.945 31.19C409.823 31.126 409.729 31.0407 409.665 30.934V32.05H409.233V29.182ZM409.653 30.262C409.653 30.4967 409.707 30.67 409.813 30.782C409.923 30.8913 410.076 30.946 410.273 30.946C410.679 30.946 410.881 30.718 410.881 30.262V30.166C410.881 29.7127 410.679 29.486 410.273 29.486C410.081 29.486 409.929 29.542 409.817 29.654C409.708 29.7633 409.653 29.934 409.653 30.166V30.262ZM412.674 31.29C412.34 31.29 412.082 31.2033 411.898 31.03C411.716 30.8567 411.626 30.6113 411.626 30.294V30.138C411.626 29.8207 411.718 29.5753 411.902 29.402C412.086 29.2287 412.342 29.142 412.67 29.142C412.995 29.142 413.24 29.2273 413.406 29.398C413.574 29.566 413.658 29.8073 413.658 30.122C413.658 30.21 413.655 30.2793 413.65 30.33L412.05 30.302C412.052 30.734 412.264 30.95 412.686 30.95C412.931 30.95 413.138 30.854 413.306 30.662L413.59 30.906C413.502 31.0233 413.379 31.1167 413.222 31.186C413.064 31.2553 412.882 31.29 412.674 31.29ZM413.238 30.026C413.235 29.8447 413.187 29.7073 413.094 29.614C413 29.518 412.86 29.47 412.674 29.47C412.49 29.47 412.342 29.5193 412.23 29.618C412.12 29.7167 412.06 29.866 412.05 30.066L413.238 30.026ZM414.03 29.182H415.474V29.542H414.462V31.25H414.03V29.182ZM416.729 31.29C416.39 31.29 416.129 31.2033 415.945 31.03C415.761 30.8567 415.669 30.6113 415.669 30.294V30.138C415.669 29.8207 415.761 29.5753 415.945 29.402C416.129 29.2287 416.39 29.142 416.729 29.142C417.07 29.142 417.331 29.2287 417.513 29.402C417.697 29.5727 417.789 29.818 417.789 30.138V30.294C417.789 30.614 417.697 30.8607 417.513 31.034C417.331 31.2047 417.07 31.29 416.729 31.29ZM416.109 30.258C416.109 30.5007 416.161 30.6767 416.265 30.786C416.369 30.8953 416.523 30.95 416.729 30.95C416.934 30.95 417.089 30.8953 417.193 30.786C417.299 30.6767 417.353 30.5007 417.353 30.258V30.174C417.353 29.9313 417.299 29.7553 417.193 29.646C417.089 29.5367 416.934 29.482 416.729 29.482C416.523 29.482 416.369 29.5367 416.265 29.646C416.161 29.7553 416.109 29.9313 416.109 30.174V30.258ZM418.186 29.182H419.354C419.573 29.182 419.74 29.226 419.854 29.314C419.972 29.402 420.03 29.534 420.03 29.71C420.03 29.9473 419.922 30.106 419.706 30.186C419.829 30.2153 419.924 30.2727 419.99 30.358C420.06 30.4407 420.094 30.5433 420.094 30.666C420.094 30.858 420.034 31.0033 419.914 31.102C419.794 31.2007 419.616 31.25 419.378 31.25H418.186V29.182ZM419.334 30.938C419.556 30.938 419.666 30.8407 419.666 30.646C419.666 30.5473 419.64 30.474 419.586 30.426C419.536 30.378 419.45 30.354 419.33 30.354H418.61V30.938H419.334ZM419.298 30.05C419.41 30.05 419.492 30.026 419.542 29.978C419.593 29.93 419.618 29.8607 419.618 29.77C419.618 29.586 419.51 29.494 419.294 29.494H418.61V30.05H419.298ZM421.432 31.29C421.093 31.29 420.832 31.2033 420.648 31.03C420.464 30.8567 420.372 30.6113 420.372 30.294V30.138C420.372 29.8207 420.464 29.5753 420.648 29.402C420.832 29.2287 421.093 29.142 421.432 29.142C421.773 29.142 422.034 29.2287 422.216 29.402C422.4 29.5727 422.492 29.818 422.492 30.138V30.294C422.492 30.614 422.4 30.8607 422.216 31.034C422.034 31.2047 421.773 31.29 421.432 31.29ZM420.812 30.258C420.812 30.5007 420.864 30.6767 420.968 30.786C421.072 30.8953 421.226 30.95 421.432 30.95C421.637 30.95 421.792 30.8953 421.896 30.786C422.002 30.6767 422.056 30.5007 422.056 30.258V30.174C422.056 29.9313 422.002 29.7553 421.896 29.646C421.792 29.5367 421.637 29.482 421.432 29.482C421.226 29.482 421.072 29.5367 420.968 29.646C420.864 29.7553 420.812 29.9313 420.812 30.174V30.258ZM422.89 29.182H423.322V29.506C423.386 29.3967 423.479 29.31 423.602 29.246C423.727 29.1793 423.876 29.146 424.05 29.146C424.351 29.146 424.58 29.2353 424.738 29.414C424.898 29.59 424.978 29.8313 424.978 30.138V30.294C424.978 30.6007 424.898 30.8433 424.738 31.022C424.58 31.198 424.351 31.286 424.05 31.286C423.876 31.286 423.727 31.254 423.602 31.19C423.479 31.126 423.386 31.0407 423.322 30.934V32.05H422.89V29.182ZM423.31 30.262C423.31 30.4967 423.363 30.67 423.47 30.782C423.579 30.8913 423.732 30.946 423.93 30.946C424.335 30.946 424.538 30.718 424.538 30.262V30.166C424.538 29.7127 424.335 29.486 423.93 29.486C423.738 29.486 423.586 29.542 423.474 29.654C423.364 29.7633 423.31 29.934 423.31 30.166V30.262ZM425.374 29.182H425.806V30.086H425.926L426.782 29.182H427.306L426.402 30.118L427.354 31.25H426.81L426.05 30.346H425.806V31.25H425.374V29.182ZM428.193 31.286C427.956 31.286 427.769 31.2353 427.633 31.134C427.497 31.03 427.429 30.8847 427.429 30.698C427.429 30.4847 427.504 30.3273 427.653 30.226C427.803 30.1247 428.033 30.074 428.345 30.074H428.925V29.934C428.925 29.7767 428.887 29.662 428.809 29.59C428.735 29.5153 428.615 29.478 428.449 29.478C428.313 29.478 428.192 29.5047 428.085 29.558C427.981 29.6087 427.897 29.6807 427.833 29.774L427.529 29.59C427.615 29.4487 427.74 29.3393 427.905 29.262C428.071 29.1847 428.255 29.146 428.457 29.146C428.74 29.146 428.957 29.2073 429.109 29.33C429.261 29.4527 429.337 29.65 429.337 29.922V31.25H428.941V30.91C428.875 31.0353 428.775 31.13 428.641 31.194C428.511 31.2553 428.361 31.286 428.193 31.286ZM427.845 30.666C427.845 30.7647 427.885 30.838 427.965 30.886C428.045 30.9313 428.152 30.954 428.285 30.954C428.472 30.954 428.625 30.914 428.745 30.834C428.865 30.7513 428.925 30.638 428.925 30.494V30.362H428.357C428.181 30.362 428.052 30.3873 427.969 30.438C427.887 30.4887 427.845 30.5647 427.845 30.666Z" fill="#172736"/>
<rect x="411.911" y="21.25" width="10" height="5" rx="1.6875" fill="#33D18F" fill-opacity="0.2"/>
<path d="M414.507 25.304C413.952 25.304 413.568 25.13 413.355 24.782L413.737 24.53C413.914 24.77 414.174 24.89 414.516 24.89C414.795 24.89 415.002 24.812 415.137 24.656C415.272 24.497 415.339 24.2465 415.339 23.9045V23.792C415.249 23.909 415.123 23.9975 414.961 24.0575C414.802 24.1145 414.618 24.143 414.408 24.143C414.06 24.143 413.791 24.0605 413.602 23.8955C413.416 23.7275 413.323 23.4815 413.323 23.1575C413.323 22.8335 413.427 22.583 413.634 22.406C413.841 22.226 414.147 22.136 414.552 22.136C415.002 22.136 415.327 22.2455 415.528 22.4645C415.729 22.6805 415.83 23.0165 415.83 23.4725V23.819C415.83 24.32 415.72 24.6935 415.501 24.9395C415.282 25.1825 414.951 25.304 414.507 25.304ZM413.818 23.1575C413.818 23.5595 414.057 23.7605 414.534 23.7605C415.041 23.7605 415.294 23.564 415.294 23.171C415.294 22.97 415.233 22.817 415.11 22.712C414.987 22.604 414.801 22.55 414.552 22.55C414.309 22.55 414.126 22.6025 414.003 22.7075C413.88 22.8095 413.818 22.9595 413.818 23.1575ZM416.95 22.8425C416.8 22.9835 416.59 23.0615 416.32 23.0765V22.6265C416.68 22.6175 416.929 22.472 417.067 22.19H417.454V25.25H416.95V22.8425ZM419.266 25.304C418.96 25.304 418.705 25.25 418.501 25.142C418.297 25.034 418.14 24.8615 418.029 24.6245L418.42 24.3995C418.507 24.5705 418.621 24.695 418.762 24.773C418.906 24.851 419.077 24.89 419.275 24.89C419.761 24.89 420.004 24.68 420.004 24.26C420.004 24.053 419.95 23.9015 419.842 23.8055C419.734 23.7095 419.565 23.6615 419.334 23.6615C419.187 23.6615 419.053 23.6825 418.933 23.7245C418.816 23.7665 418.698 23.828 418.578 23.909L418.2 23.747L418.357 22.19H420.346V22.6265H418.749L418.654 23.495C418.879 23.348 419.151 23.2745 419.469 23.2745C420.159 23.2745 420.504 23.6015 420.504 24.2555C420.504 24.6035 420.399 24.866 420.189 25.043C419.982 25.217 419.674 25.304 419.266 25.304Z" fill="#172736"/>
<path d="M845.911 139.105H936.411V110.528H908.277V97.0278H845.911V139.105Z" fill="#FFEDD6" stroke="#FFCF94" stroke-width="2.5" stroke-linecap="round" stroke-linejoin="round"/>
<path d="M872.336 123.538V119.713H873.224L874.411 122.846L875.593 119.713H876.476V123.538H875.851L875.868 120.444L874.704 123.538H874.096L872.932 120.444L872.949 123.538H872.336ZM877.765 122.188C877.765 122.495 877.763 122.709 877.759 122.829L879.261 120.629H879.931V123.538H879.351V121.974C879.351 121.678 879.353 121.468 879.357 121.344L877.861 123.538H877.186V120.629H877.765V122.188ZM880.619 120.629H881.226V121.799H882.711V120.629H883.319V123.538H882.711V122.3H881.226V123.538H880.619V120.629ZM884.588 122.188C884.588 122.495 884.586 122.709 884.582 122.829L886.084 120.629H886.753V123.538H886.174V121.974C886.174 121.678 886.176 121.468 886.179 121.344L884.683 123.538H884.008V120.629H884.588V122.188ZM887.29 121.704H888.797V122.199H887.29V121.704ZM889.331 120.629H889.939V121.901H890.107L891.311 120.629H892.048L890.777 121.946L892.115 123.538H891.35L890.282 122.266H889.939V123.538H889.331V120.629ZM892.665 124.139H892.879C893.006 124.139 893.108 124.121 893.183 124.083C893.261 124.049 893.329 123.988 893.385 123.898C893.441 123.811 893.501 123.68 893.565 123.504H893.273L892.215 120.629H892.885L893.717 123.088H893.723L894.527 120.629H895.174L894.111 123.605C894.017 123.875 893.921 124.085 893.824 124.235C893.726 124.385 893.61 124.494 893.475 124.561C893.34 124.629 893.171 124.663 892.969 124.663H892.665V124.139ZM896.692 122.334L895.96 123.538H895.285L896.27 122.036L895.347 120.629H896.05L896.725 121.743L897.412 120.629H898.087L897.142 122.036L898.12 123.538H897.417L896.692 122.334ZM898.565 120.629H899.173V121.799H900.658V120.629H901.265V123.538H900.658V122.3H899.173V123.538H898.565V120.629ZM902.629 122.452C902.371 122.414 902.174 122.321 902.039 122.171C901.904 122.021 901.836 121.814 901.836 121.552C901.836 121.248 901.928 121.019 902.112 120.866C902.299 120.708 902.566 120.629 902.911 120.629H904.503V123.538H903.912V122.469H903.276L902.489 123.538H901.763L902.629 122.452ZM902.444 121.552C902.444 121.856 902.613 122.008 902.95 122.008H903.912V121.091H902.95C902.613 121.091 902.444 121.244 902.444 121.552Z" fill="#172736"/>
<rect x="882.353" y="110.528" width="8" height="6" rx="1.5" fill="#FFCF94"/>
<rect x="882.353" y="110.528" width="8" height="6" rx="1.5" stroke="#FFA436" stroke-opacity="0.2" stroke-width="0.5"/>
<path d="M885.12 114.576C884.627 114.576 884.286 114.421 884.096 114.112L884.436 113.888C884.594 114.101 884.824 114.208 885.128 114.208C885.376 114.208 885.56 114.138 885.68 114C885.8 113.858 885.86 113.636 885.86 113.332V113.232C885.78 113.336 885.668 113.414 885.524 113.468C885.383 113.518 885.219 113.544 885.032 113.544C884.723 113.544 884.484 113.47 884.316 113.324C884.151 113.174 884.068 112.956 884.068 112.668C884.068 112.38 884.16 112.157 884.344 112C884.528 111.84 884.8 111.76 885.16 111.76C885.56 111.76 885.85 111.857 886.028 112.052C886.207 112.244 886.296 112.542 886.296 112.948V113.256C886.296 113.701 886.199 114.033 886.004 114.252C885.81 114.468 885.515 114.576 885.12 114.576ZM884.508 112.668C884.508 113.025 884.72 113.204 885.144 113.204C885.595 113.204 885.82 113.029 885.82 112.68C885.82 112.501 885.766 112.365 885.656 112.272C885.547 112.176 885.382 112.128 885.16 112.128C884.944 112.128 884.782 112.174 884.672 112.268C884.563 112.358 884.508 112.492 884.508 112.668ZM887.735 114.568C887.404 114.568 887.148 114.481 886.967 114.308C886.786 114.134 886.695 113.889 886.695 113.572V113.416C886.695 113.098 886.786 112.853 886.967 112.68C887.148 112.506 887.406 112.42 887.739 112.42C887.987 112.42 888.191 112.473 888.351 112.58C888.514 112.686 888.626 112.84 888.687 113.04L888.291 113.16C888.211 112.893 888.027 112.76 887.739 112.76C887.542 112.76 887.391 112.816 887.287 112.928C887.183 113.037 887.131 113.212 887.131 113.452V113.536C887.131 113.994 887.334 114.224 887.739 114.224C888.03 114.224 888.215 114.089 888.295 113.82L888.683 113.936C888.622 114.138 888.511 114.294 888.351 114.404C888.191 114.513 887.986 114.568 887.735 114.568Z" fill="#172736"/>
<rect x="808.911" y="96.5278" width="36" height="43" fill="#33D18F" fill-opacity="0.2" stroke="#33D18F" stroke-opacity="0.2" stroke-width="2.5" stroke-linejoin="round"/>
<path d="M813.171 119.84H815.411V122.56H814.955V120.236H813.627V122.56H813.171V119.84ZM816.877 122.6C816.543 122.6 816.285 122.513 816.101 122.34C815.919 122.167 815.829 121.921 815.829 121.604V121.448C815.829 121.131 815.921 120.885 816.105 120.712C816.289 120.539 816.545 120.452 816.873 120.452C817.198 120.452 817.443 120.537 817.609 120.708C817.777 120.876 817.861 121.117 817.861 121.432C817.861 121.52 817.858 121.589 817.853 121.64L816.253 121.612C816.255 122.044 816.467 122.26 816.889 122.26C817.134 122.26 817.341 122.164 817.509 121.972L817.793 122.216C817.705 122.333 817.582 122.427 817.425 122.496C817.267 122.565 817.085 122.6 816.877 122.6ZM817.441 121.336C817.438 121.155 817.39 121.017 817.297 120.924C817.203 120.828 817.063 120.78 816.877 120.78C816.693 120.78 816.545 120.829 816.433 120.928C816.323 121.027 816.263 121.176 816.253 121.376L817.441 121.336ZM818.233 120.492H818.665V120.816C818.729 120.707 818.823 120.62 818.945 120.556C819.071 120.489 819.22 120.456 819.393 120.456C819.695 120.456 819.924 120.545 820.081 120.724C820.241 120.9 820.321 121.141 820.321 121.448V121.604C820.321 121.911 820.241 122.153 820.081 122.332C819.924 122.508 819.695 122.596 819.393 122.596C819.22 122.596 819.071 122.564 818.945 122.5C818.823 122.436 818.729 122.351 818.665 122.244V123.36H818.233V120.492ZM818.653 121.572C818.653 121.807 818.707 121.98 818.813 122.092C818.923 122.201 819.076 122.256 819.273 122.256C819.679 122.256 819.881 122.028 819.881 121.572V121.476C819.881 121.023 819.679 120.796 819.273 120.796C819.081 120.796 818.929 120.852 818.817 120.964C818.708 121.073 818.653 121.244 818.653 121.476V121.572ZM821.674 122.6C821.34 122.6 821.082 122.513 820.898 122.34C820.716 122.167 820.626 121.921 820.626 121.604V121.448C820.626 121.131 820.718 120.885 820.902 120.712C821.086 120.539 821.342 120.452 821.67 120.452C821.995 120.452 822.24 120.537 822.406 120.708C822.574 120.876 822.658 121.117 822.658 121.432C822.658 121.52 822.655 121.589 822.65 121.64L821.05 121.612C821.052 122.044 821.264 122.26 821.686 122.26C821.931 122.26 822.138 122.164 822.306 121.972L822.59 122.216C822.502 122.333 822.379 122.427 822.222 122.496C822.064 122.565 821.882 122.6 821.674 122.6ZM822.238 121.336C822.235 121.155 822.187 121.017 822.094 120.924C822 120.828 821.86 120.78 821.674 120.78C821.49 120.78 821.342 120.829 821.23 120.928C821.12 121.027 821.06 121.176 821.05 121.376L822.238 121.336ZM823.03 120.492H824.474V120.852H823.462V122.56H823.03V120.492ZM825.729 122.6C825.39 122.6 825.129 122.513 824.945 122.34C824.761 122.167 824.669 121.921 824.669 121.604V121.448C824.669 121.131 824.761 120.885 824.945 120.712C825.129 120.539 825.39 120.452 825.729 120.452C826.07 120.452 826.331 120.539 826.513 120.712C826.697 120.883 826.789 121.128 826.789 121.448V121.604C826.789 121.924 826.697 122.171 826.513 122.344C826.331 122.515 826.07 122.6 825.729 122.6ZM825.109 121.568C825.109 121.811 825.161 121.987 825.265 122.096C825.369 122.205 825.523 122.26 825.729 122.26C825.934 122.26 826.089 122.205 826.193 122.096C826.299 121.987 826.353 121.811 826.353 121.568V121.484C826.353 121.241 826.299 121.065 826.193 120.956C826.089 120.847 825.934 120.792 825.729 120.792C825.523 120.792 825.369 120.847 825.265 120.956C825.161 121.065 825.109 121.241 825.109 121.484V121.568ZM827.186 120.492H828.354C828.573 120.492 828.74 120.536 828.854 120.624C828.972 120.712 829.03 120.844 829.03 121.02C829.03 121.257 828.922 121.416 828.706 121.496C828.829 121.525 828.924 121.583 828.99 121.668C829.06 121.751 829.094 121.853 829.094 121.976C829.094 122.168 829.034 122.313 828.914 122.412C828.794 122.511 828.616 122.56 828.378 122.56H827.186V120.492ZM828.334 122.248C828.556 122.248 828.666 122.151 828.666 121.956C828.666 121.857 828.64 121.784 828.586 121.736C828.536 121.688 828.45 121.664 828.33 121.664H827.61V122.248H828.334ZM828.298 121.36C828.41 121.36 828.492 121.336 828.542 121.288C828.593 121.24 828.618 121.171 828.618 121.08C828.618 120.896 828.51 120.804 828.294 120.804H827.61V121.36H828.298ZM830.432 122.6C830.093 122.6 829.832 122.513 829.648 122.34C829.464 122.167 829.372 121.921 829.372 121.604V121.448C829.372 121.131 829.464 120.885 829.648 120.712C829.832 120.539 830.093 120.452 830.432 120.452C830.773 120.452 831.034 120.539 831.216 120.712C831.4 120.883 831.492 121.128 831.492 121.448V121.604C831.492 121.924 831.4 122.171 831.216 122.344C831.034 122.515 830.773 122.6 830.432 122.6ZM829.812 121.568C829.812 121.811 829.864 121.987 829.968 122.096C830.072 122.205 830.226 122.26 830.432 122.26C830.637 122.26 830.792 122.205 830.896 122.096C831.002 121.987 831.056 121.811 831.056 121.568V121.484C831.056 121.241 831.002 121.065 830.896 120.956C830.792 120.847 830.637 120.792 830.432 120.792C830.226 120.792 830.072 120.847 829.968 120.956C829.864 121.065 829.812 121.241 829.812 121.484V121.568ZM831.89 120.492H832.322V120.816C832.386 120.707 832.479 120.62 832.602 120.556C832.727 120.489 832.876 120.456 833.05 120.456C833.351 120.456 833.58 120.545 833.738 120.724C833.898 120.9 833.978 121.141 833.978 121.448V121.604C833.978 121.911 833.898 122.153 833.738 122.332C833.58 122.508 833.351 122.596 833.05 122.596C832.876 122.596 832.727 122.564 832.602 122.5C832.479 122.436 832.386 122.351 832.322 122.244V123.36H831.89V120.492ZM832.31 121.572C832.31 121.807 832.363 121.98 832.47 122.092C832.579 122.201 832.732 122.256 832.93 122.256C833.335 122.256 833.538 122.028 833.538 121.572V121.476C833.538 121.023 833.335 120.796 832.93 120.796C832.738 120.796 832.586 120.852 832.474 120.964C832.364 121.073 832.31 121.244 832.31 121.476V121.572ZM834.374 120.492H834.806V121.396H834.926L835.782 120.492H836.306L835.402 121.428L836.354 122.56H835.81L835.05 121.656H834.806V122.56H834.374V120.492ZM837.193 122.596C836.956 122.596 836.769 122.545 836.633 122.444C836.497 122.34 836.429 122.195 836.429 122.008C836.429 121.795 836.504 121.637 836.653 121.536C836.803 121.435 837.033 121.384 837.345 121.384H837.925V121.244C837.925 121.087 837.887 120.972 837.809 120.9C837.735 120.825 837.615 120.788 837.449 120.788C837.313 120.788 837.192 120.815 837.085 120.868C836.981 120.919 836.897 120.991 836.833 121.084L836.529 120.9C836.615 120.759 836.74 120.649 836.905 120.572C837.071 120.495 837.255 120.456 837.457 120.456C837.74 120.456 837.957 120.517 838.109 120.64C838.261 120.763 838.337 120.96 838.337 121.232V122.56H837.941V122.22C837.875 122.345 837.775 122.44 837.641 122.504C837.511 122.565 837.361 122.596 837.193 122.596ZM836.845 121.976C836.845 122.075 836.885 122.148 836.965 122.196C837.045 122.241 837.152 122.264 837.285 122.264C837.472 122.264 837.625 122.224 837.745 122.144C837.865 122.061 837.925 121.948 837.925 121.804V121.672H837.357C837.181 121.672 837.052 121.697 836.969 121.748C836.887 121.799 836.845 121.875 836.845 121.976Z" fill="#172736"/>
<rect x="820.64" y="110.528" width="12.375" height="7.25" rx="1.6875" fill="#33D18F" fill-opacity="0.2"/>
<path d="M823.9 115.707C823.345 115.707 822.961 115.533 822.748 115.185L823.13 114.933C823.307 115.173 823.567 115.293 823.909 115.293C824.188 115.293 824.395 115.215 824.53 115.059C824.665 114.9 824.732 114.649 824.732 114.307V114.195C824.642 114.312 824.516 114.4 824.354 114.46C824.195 114.517 824.011 114.546 823.801 114.546C823.453 114.546 823.184 114.463 822.995 114.298C822.809 114.13 822.716 113.884 822.716 113.56C822.716 113.236 822.82 112.986 823.027 112.809C823.234 112.629 823.54 112.539 823.945 112.539C824.395 112.539 824.72 112.648 824.921 112.867C825.122 113.083 825.223 113.419 825.223 113.875V114.222C825.223 114.723 825.113 115.096 824.894 115.342C824.675 115.585 824.344 115.707 823.9 115.707ZM823.211 113.56C823.211 113.962 823.45 114.163 823.927 114.163C824.434 114.163 824.687 113.967 824.687 113.574C824.687 113.373 824.626 113.22 824.503 113.115C824.38 113.007 824.194 112.953 823.945 112.953C823.702 112.953 823.519 113.005 823.396 113.11C823.273 113.212 823.211 113.362 823.211 113.56ZM825.668 115.243C826.196 114.862 826.589 114.562 826.847 114.343C827.108 114.121 827.282 113.946 827.369 113.817C827.456 113.685 827.5 113.556 827.5 113.43C827.5 113.265 827.446 113.146 827.338 113.074C827.233 112.999 827.09 112.962 826.91 112.962C826.706 112.962 826.541 113.007 826.415 113.097C826.289 113.187 826.177 113.335 826.078 113.542L825.65 113.367C825.767 113.088 825.931 112.881 826.141 112.746C826.351 112.608 826.615 112.539 826.933 112.539C827.263 112.539 827.524 112.612 827.716 112.759C827.911 112.903 828.008 113.119 828.008 113.407C828.008 113.587 827.962 113.758 827.869 113.92C827.776 114.082 827.612 114.265 827.378 114.469C827.144 114.67 826.808 114.919 826.37 115.216H828.022V115.653H825.668V115.243ZM829.705 115.707C829.399 115.707 829.144 115.653 828.94 115.545C828.736 115.437 828.579 115.264 828.468 115.027L828.859 114.802C828.946 114.973 829.06 115.098 829.201 115.176C829.345 115.254 829.516 115.293 829.714 115.293C830.2 115.293 830.443 115.083 830.443 114.663C830.443 114.456 830.389 114.304 830.281 114.208C830.173 114.112 830.004 114.064 829.773 114.064C829.626 114.064 829.492 114.085 829.372 114.127C829.255 114.169 829.137 114.231 829.017 114.312L828.639 114.15L828.796 112.593H830.785V113.029H829.188L829.093 113.898C829.318 113.751 829.59 113.677 829.908 113.677C830.598 113.677 830.943 114.004 830.943 114.658C830.943 115.006 830.838 115.269 830.628 115.446C830.421 115.62 830.113 115.707 829.705 115.707Z" fill="#172736"/>
<path d="M419.083 191.458L419.474 191.452C419.672 191.449 419.831 191.422 419.953 191.373C420.081 191.317 420.189 191.233 420.278 191.12C420.367 191.001 420.463 190.829 420.566 190.604L420.046 190.611L418.086 186.824L419.134 186.808L420.759 190.113L422.166 186.764L423.166 186.749L421.408 190.735C421.222 191.133 421.048 191.437 420.886 191.647C420.723 191.857 420.539 192.009 420.332 192.103C420.131 192.191 419.873 192.238 419.558 192.243L419.094 192.249L419.083 191.458ZM424.729 188.75L423.234 188.772L423.223 188.052L427.086 187.995L427.097 188.715L425.601 188.737L425.652 192.153L424.78 192.166L424.729 188.75ZM428.625 190.189C428.631 190.626 428.633 190.93 428.63 191.101L430.72 187.942L431.672 187.928L431.733 192.063L430.909 192.075L430.876 189.851C430.87 189.43 430.868 189.132 430.871 188.955L428.789 192.106L427.829 192.121L427.768 187.985L428.592 187.973L428.625 190.189ZM432.293 191.359L432.493 191.356C432.723 191.352 432.887 191.265 432.986 191.092C433.084 190.915 433.136 190.613 433.14 190.186L433.163 187.906L436.57 187.855L436.631 191.991L435.767 192.004L435.717 188.588L433.925 188.614L433.91 190.271C433.9 190.724 433.855 191.082 433.773 191.345C433.692 191.602 433.556 191.791 433.366 191.911C433.181 192.026 432.926 192.085 432.6 192.09L432.304 192.095L432.293 191.359ZM438.405 190.044C438.412 190.482 438.413 190.786 438.411 190.957L440.5 187.797L441.452 187.783L441.513 191.919L440.689 191.931L440.656 189.707C440.65 189.286 440.649 188.987 440.651 188.811L438.569 191.962L437.61 191.976L437.549 187.841L438.373 187.829L438.405 190.044ZM444.149 191.96C443.68 191.967 443.276 191.89 442.937 191.73C442.604 191.569 442.35 191.338 442.175 191.037L442.802 190.676C443.117 191.098 443.571 191.304 444.163 191.296C444.846 191.286 445.184 191.062 445.177 190.625C445.175 190.438 445.116 190.3 445.003 190.211C444.895 190.122 444.719 190.079 444.473 190.083L443.393 190.099L443.384 189.491L444.424 189.476C444.894 189.469 445.125 189.276 445.12 188.897C445.114 188.508 444.786 188.318 444.135 188.328C443.565 188.336 443.133 188.553 442.841 188.979L442.196 188.628C442.367 188.333 442.622 188.099 442.961 187.929C443.305 187.759 443.702 187.67 444.15 187.664C444.709 187.655 445.145 187.745 445.458 187.932C445.77 188.12 445.929 188.403 445.934 188.781C445.937 188.995 445.884 189.187 445.775 189.36C445.665 189.532 445.499 189.66 445.276 189.743C445.763 189.853 446.011 190.167 446.018 190.684C446.024 191.079 445.861 191.388 445.528 191.612C445.2 191.835 444.741 191.951 444.149 191.96ZM448.084 191.894C447.61 191.901 447.235 191.805 446.96 191.607C446.685 191.403 446.545 191.114 446.539 190.741C446.533 190.314 446.678 189.997 446.973 189.79C447.269 189.583 447.729 189.475 448.353 189.466L449.513 189.449L449.508 189.169C449.504 188.854 449.423 188.626 449.266 188.484C449.115 188.337 448.874 188.266 448.543 188.271C448.271 188.275 448.029 188.332 447.818 188.442C447.611 188.546 447.445 188.692 447.32 188.881L446.707 188.522C446.873 188.237 447.12 188.014 447.449 187.855C447.777 187.695 448.144 187.613 448.549 187.607C449.115 187.598 449.551 187.715 449.859 187.955C450.166 188.196 450.324 188.589 450.332 189.133L450.371 191.788L449.579 191.8L449.569 191.12C449.44 191.373 449.242 191.565 448.978 191.697C448.718 191.823 448.42 191.889 448.084 191.894ZM447.37 190.664C447.373 190.862 447.455 191.007 447.617 191.101C447.778 191.189 447.992 191.231 448.259 191.227C448.632 191.222 448.937 191.137 449.175 190.974C449.413 190.805 449.529 190.577 449.525 190.289L449.521 190.025L448.385 190.041C448.033 190.047 447.775 190.101 447.611 190.205C447.448 190.309 447.367 190.462 447.37 190.664ZM451.25 187.639L452.114 187.626L452.165 191.042L454.236 191.011L454.186 187.596L455.05 187.583L455.1 190.998L455.692 190.99L455.718 192.734L454.894 192.746L454.879 191.722L451.311 191.774L451.25 187.639ZM457.13 189.768C457.136 190.206 457.138 190.51 457.135 190.68L459.225 187.521L460.177 187.507L460.238 191.643L459.414 191.655L459.381 189.431C459.375 189.01 459.373 188.711 459.376 188.535L457.294 191.686L456.334 191.7L456.273 187.565L457.097 187.553L457.13 189.768ZM462.154 190.07C461.785 190.022 461.503 189.893 461.308 189.683C461.113 189.472 461.012 189.18 461.007 188.807C461 188.375 461.126 188.048 461.384 187.825C461.648 187.598 462.025 187.48 462.515 187.473L464.779 187.439L464.84 191.575L464 191.587L463.978 190.067L463.074 190.081L461.976 191.617L460.944 191.632L462.154 190.07ZM461.871 188.794C461.877 189.226 462.12 189.439 462.6 189.432L463.968 189.412L463.949 188.108L462.581 188.128C462.101 188.135 461.864 188.357 461.871 188.794ZM420.629 200.308C419.941 200.318 419.413 200.152 419.046 199.811C418.683 199.47 418.497 198.955 418.487 198.267L418.479 197.715C418.467 196.953 418.536 196.354 418.684 195.92C418.833 195.486 419.076 195.165 419.414 194.957C419.752 194.744 420.223 194.612 420.824 194.56C421.464 194.513 422.005 194.481 422.447 194.464L422.459 195.248C421.851 195.268 421.329 195.291 420.892 195.319C420.481 195.347 420.157 195.423 419.919 195.55C419.681 195.676 419.508 195.868 419.399 196.125C419.291 196.378 419.23 196.725 419.215 197.168L419.216 197.24C419.339 196.913 419.549 196.667 419.845 196.503C420.147 196.333 420.492 196.245 420.881 196.24C421.473 196.231 421.923 196.384 422.232 196.7C422.541 197.01 422.7 197.474 422.709 198.093L422.713 198.349C422.722 198.967 422.545 199.447 422.182 199.789C421.824 200.125 421.306 200.298 420.629 200.308ZM419.36 198.31C419.367 198.779 419.476 199.119 419.687 199.329C419.898 199.534 420.209 199.634 420.619 199.628C421.03 199.622 421.335 199.513 421.534 199.302C421.739 199.091 421.838 198.754 421.832 198.29L421.83 198.178C421.823 197.708 421.717 197.374 421.511 197.174C421.305 196.975 421 196.878 420.595 196.884C420.195 196.89 419.887 196.998 419.671 197.209C419.456 197.421 419.351 197.748 419.358 198.19L419.36 198.31ZM423.694 201.039L423.998 201.034C424.18 201.031 424.323 201.003 424.429 200.948C424.541 200.898 424.635 200.809 424.713 200.68C424.791 200.556 424.874 200.368 424.961 200.116L424.545 200.122L422.981 196.057L423.933 196.043L425.168 199.521L425.176 199.521L426.269 196.008L427.189 195.994L425.739 200.248C425.611 200.634 425.48 200.935 425.344 201.15C425.209 201.366 425.046 201.523 424.855 201.622C424.665 201.72 424.425 201.772 424.137 201.776L423.705 201.782L423.694 201.039ZM429.064 195.967L430.511 199.186L431.855 195.926L433.087 195.908L433.148 200.043L432.308 200.055L432.268 196.76L430.885 200.076L430.125 200.088L428.652 196.813L428.644 196.813L428.701 200.109L427.885 200.121L427.824 195.985L429.064 195.967ZM435.391 200.082C434.917 200.089 434.542 199.993 434.267 199.795C433.992 199.591 433.852 199.302 433.846 198.929C433.84 198.502 433.984 198.185 434.28 197.978C434.576 197.771 435.036 197.663 435.66 197.654L436.819 197.637L436.815 197.357C436.811 197.042 436.73 196.814 436.573 196.672C436.422 196.525 436.181 196.454 435.85 196.459C435.578 196.463 435.336 196.52 435.124 196.63C434.918 196.734 434.752 196.88 434.627 197.069L434.013 196.71C434.18 196.425 434.427 196.202 434.756 196.043C435.084 195.883 435.451 195.801 435.856 195.795C436.421 195.786 436.858 195.903 437.165 196.143C437.473 196.384 437.631 196.777 437.639 197.321L437.678 199.976L436.886 199.988L436.876 199.308C436.746 199.561 436.549 199.753 436.284 199.885C436.025 200.011 435.727 200.077 435.391 200.082ZM434.677 198.852C434.68 199.05 434.762 199.195 434.924 199.289C435.085 199.377 435.299 199.419 435.565 199.415C435.939 199.41 436.244 199.325 436.482 199.162C436.719 198.993 436.836 198.765 436.832 198.477L436.828 198.213L435.692 198.229C435.34 198.235 435.082 198.289 434.918 198.393C434.755 198.497 434.674 198.65 434.677 198.852ZM438.557 195.827L441.445 195.784L441.455 196.504L439.432 196.534L439.482 199.95L438.618 199.962L438.557 195.827ZM442.968 197.978C442.974 198.415 442.976 198.719 442.973 198.89L445.063 195.731L446.015 195.717L446.076 199.852L445.252 199.865L445.219 197.641C445.213 197.22 445.211 196.921 445.214 196.745L443.132 199.896L442.172 199.91L442.111 195.774L442.935 195.762L442.968 197.978Z" fill="#172736"/>
<path d="M415.911 189.75C415.911 192.235 413.896 194.25 411.411 194.25C408.926 194.25 406.911 192.235 406.911 189.75C406.911 187.265 408.926 185.25 411.411 185.25C413.896 185.25 415.911 187.265 415.911 189.75Z" fill="#73E553"/>
</svg>
