<svg width="872" height="512" viewBox="0 0 872 512" fill="none" xmlns="http://www.w3.org/2000/svg">
<g id="b2f1">
<g id="Vector 28">
<path d="M40.5758 2V6.054H66.9454V2C66.9454 1.44772 67.3931 1 67.9454 1H99.2477H141.18H285.919H611.11H667.555H724H778.132H834.074H864.793C865.345 1 865.793 1.44772 865.793 2V402.35C865.793 402.903 866.241 403.35 866.793 403.35H869.068C869.62 403.35 870.068 403.798 870.068 404.35V472.135V489.98C870.068 490.533 869.62 490.98 869.068 490.98H839.008C838.456 490.98 838.008 491.428 838.008 491.98V509.216C838.008 509.769 837.56 510.216 837.008 510.216H764.098H542.372H356.054H141.247H66.7229C66.1707 510.216 65.7229 509.769 65.7229 509.216V479.513C65.7229 478.961 65.2752 478.513 64.7229 478.513H62.8045C62.2522 478.513 61.8045 478.065 61.8045 477.513V454.388C61.8045 453.836 62.2522 453.388 62.8045 453.388H64.7229C65.2752 453.388 65.7229 452.94 65.7229 452.388V425.346V336.891V254.009V171.127V107.665C65.7229 107.113 65.2752 106.665 64.7229 106.665H2C1.44772 106.665 1 106.217 1 105.665V82.2167V2C1 1.44771 1.44772 1 2 1H39.5758C40.1281 1 40.5758 1.44772 40.5758 2Z" fill="white"/>
<path d="M40.5758 6.054V2C40.5758 1.44772 40.1281 1 39.5758 1H2C1.44772 1 1 1.44771 1 2V82.2167M40.5758 6.054H66.9454M40.5758 6.054V38.5809M66.9454 6.054V2C66.9454 1.44772 67.3931 1 67.9454 1H99.2477M66.9454 6.054V38.5809M99.2477 1H141.18M99.2477 1V27.8667M1 82.2167V105.665C1 106.217 1.44772 106.665 2 106.665H64.7229C65.2752 106.665 65.7229 107.113 65.7229 107.665V171.127V254.009M1 82.2167H24.5052M54.298 82.2167H99.2477M99.2477 82.2167L100.247 39.6043C100.261 39.043 99.8092 38.5809 99.2478 38.5809H89.3054M99.2477 82.2167V27.8667M99.2477 82.2167H127.695M40.5758 38.5809V81.2167C40.5758 81.769 40.1281 82.2167 39.5758 82.2167H36.0767M40.5758 38.5809H48.0566M141.18 83.7751V82.2167M141.18 1V27.8667M141.18 1H285.919M141.18 27.8667H99.2477M141.18 27.8667V68.129M141.18 82.2167H137.906M141.18 82.2167V80.245M141.18 82.2167H216.455M285.919 1H611.11M285.919 1V40.5228M285.919 171.127V254.009M285.919 336.891V254.009M285.919 254.009H356.054M834.074 254.009V179.553C834.074 179.003 833.631 178.557 833.081 178.553L724 177.747M834.074 254.009H724M834.074 254.009V336.257M834.074 1H864.793C865.345 1 865.793 1.44772 865.793 2V402.35C865.793 402.903 866.241 403.35 866.793 403.35H869.068C869.62 403.35 870.068 403.798 870.068 404.35V472.135M834.074 1V132.783C834.074 133.336 833.626 133.783 833.074 133.783H827.58M834.074 1H778.132M834.074 373.666V336.257M65.7229 254.009H179.686M65.7229 254.009V336.891M179.686 254.009V171.127M179.686 254.009V336.891M179.686 336.891H99.2477M179.686 336.891V424.346C179.686 424.898 179.238 425.346 178.686 425.346H163.923M83.814 336.891H65.7229M65.7229 336.891V425.346M65.7229 425.346V452.388C65.7229 452.94 65.2752 453.388 64.7229 453.388H62.8045C62.2522 453.388 61.8045 453.836 61.8045 454.388V477.513C61.8045 478.065 62.2522 478.513 62.8045 478.513H64.7229C65.2752 478.513 65.7229 478.961 65.7229 479.513V509.216C65.7229 509.769 66.1707 510.216 66.7229 510.216H141.247M65.7229 425.346H84.2557M141.247 425.346H104.049M141.247 425.346H143.882M141.247 425.346V480.6M141.247 510.216H356.054M141.247 510.216V493.944M356.054 510.216V254.009M356.054 510.216H542.372M356.054 254.009H542.372M542.372 254.009V510.216M542.372 254.009H611.11M542.372 510.216H764.098M611.11 336.257V254.009M611.11 254.009V178.56M611.11 254.009H724M611.11 1V133.783M611.11 1H667.555M611.11 133.783V178.56M611.11 133.783H633.931M778.132 133.783V1M778.132 133.783H773.157M778.132 133.783H797.418M778.132 1H724M724 1V133.783M724 1H667.555M724 133.783H719.062M724 133.783H743.214M667.555 133.783V1M667.555 133.783H664.639M667.555 133.783H688.463M611.11 178.56L724 177.747M724 177.747V254.009M724 254.009V336.257M764.098 461.922H725C724.447 461.922 724 461.474 724 460.922V336.257M764.098 461.922H791.835C792.387 461.922 792.835 461.474 792.835 460.922V395.438M764.098 461.922V475.655M764.098 510.216H837.008C837.56 510.216 838.008 509.769 838.008 509.216V491.98C838.008 491.428 838.456 490.98 839.008 490.98H869.068C869.62 490.98 870.068 490.533 870.068 489.981V472.135M764.098 510.216V489.388M792.835 336.257H834.074M792.835 336.257V376.138M792.835 336.257H753.63M724 336.257H740.344M838.008 472.135V405.166C838.008 404.614 838.456 404.166 839.008 404.166H865.793M870.068 472.135H851.33M59.9003 38.5809H77.4617M235.787 82.2167H248.848M248.848 82.2167V41.5228C248.848 40.9706 249.296 40.5228 249.848 40.5228H285.919M248.848 82.2167H258.056M285.919 40.5228V81.2167C285.919 81.769 285.471 82.2167 284.919 82.2167H269.465" stroke="#BFC4C8" stroke-width="2" stroke-linecap="round" stroke-linejoin="round"/>
</g>
<g id="b2f1-velo">
<path id="Vector 29" d="M179.686 254.009H65.7227V171.127H179.686V254.009Z" fill="#475DEB" fill-opacity="0.2" stroke="#475DEB" stroke-opacity="0.2" stroke-width="2.5"/>
<text id="title" fill="#172736" style="white-space: pre" xml:space="preserve" font-family="CoFo Weather 20240219" font-size="7.50003" font-weight="500" letter-spacing="0em"><tspan x="94.5761" y="213.671">&#x412;&#x435;&#x43b;&#x43e;&#x43f;&#x430;&#x440;&#x43a;&#x43e;&#x432;&#x43a;&#x430;</tspan></text>
</g>
<g id="b2f1-intro">
<rect id="Rectangle 2990" x="65.7109" y="112.067" width="104" height="52" fill="#475DEB" fill-opacity="0.2" stroke="#475DEB" stroke-opacity="0.2" stroke-width="2.5"/>
<text id="title_2" fill="#172736" style="white-space: pre" xml:space="preserve" font-family="CoFo Weather 20240219" font-size="7.50003" font-weight="500" letter-spacing="0em"><tspan x="106.139" y="140.655">&#x412;&#x44a;&#x435;&#x437;&#x434;</tspan></text>
</g>
</g>
</svg>
