<svg width="872" height="512" viewBox="0 0 872 512" fill="none" xmlns="http://www.w3.org/2000/svg">
<g id="b2f3">
<g id="Vector 28">
<path fill-rule="evenodd" clip-rule="evenodd" d="M865.793 402.35C865.793 402.903 866.241 403.35 866.793 403.35C866.241 403.35 865.793 402.903 865.793 402.35ZM839.008 490.98C838.456 490.98 838.008 491.428 838.008 491.98C838.008 491.428 838.456 490.98 839.008 490.98ZM65.7229 479.513C65.7229 478.961 65.2752 478.513 64.7229 478.513C65.2752 478.513 65.7229 478.961 65.7229 479.513ZM64.7229 453.388C65.2752 453.388 65.7229 452.94 65.7229 452.388C65.7229 452.94 65.2752 453.388 64.7229 453.388ZM65.7229 107.665C65.7229 107.113 65.2752 106.665 64.7229 106.665C65.2752 106.665 65.7229 107.113 65.7229 107.665ZM100.247 39.6043C100.261 39.043 99.8092 38.5809 99.2477 38.5809V82.2167L100.247 39.6043Z" fill="white"/>
<path d="M66.9454 6.054H40.5758V2C40.5758 1.44772 40.1281 1 39.5758 1H2C1.44772 1 1 1.44771 1 2V82.2167V84.6651C1 96.8153 10.8497 106.665 23 106.665H64.7229C65.2752 106.665 65.7229 107.113 65.7229 107.665V258.237V452.388C65.7229 452.94 65.2752 453.388 64.7229 453.388H62.8045C62.2522 453.388 61.8045 453.836 61.8045 454.388V477.513C61.8045 478.065 62.2522 478.513 62.8045 478.513H64.7229C65.2752 478.513 65.7229 478.961 65.7229 479.513V509.216C65.7229 509.769 66.1707 510.216 66.7229 510.216H837.008C837.56 510.216 838.008 509.769 838.008 509.216V491.98C838.008 491.428 838.456 490.98 839.008 490.98H869.068C869.62 490.98 870.068 490.533 870.068 489.98V472.135V404.35C870.068 403.798 869.62 403.35 869.068 403.35H866.793C866.241 403.35 865.793 402.903 865.793 402.35V255.434V2C865.793 1.44772 865.345 1 864.793 1H99.2477V27.8667V38.5809C99.8092 38.5809 100.261 39.043 100.247 39.6043L99.2477 82.2167V38.5809V27.8667V1H67.9454C67.3931 1 66.9454 1.44772 66.9454 2V6.054Z" fill="white"/>
<path d="M40.5758 6.054H66.9454M40.5758 6.054V38.5809M40.5758 6.054V2M66.9454 6.054V38.5809M66.9454 6.054V2M99.2477 1V27.8667V38.5809M99.2477 1H67.9454M99.2477 1H864.793M1 82.2167H24.5052M1 82.2167V84.6651M1 82.2167V2M54.298 82.2167H99.2477M99.2477 82.2167L100.247 39.6043C100.261 39.043 99.8092 38.5809 99.2477 38.5809M99.2477 82.2167V38.5809M40.5758 38.5809V81.2167C40.5758 81.769 40.1281 82.2167 39.5758 82.2167H36.0767M40.5758 38.5809H48.0566M838.008 472.135V405.166C838.008 404.614 838.456 404.166 839.008 404.166H865.793M870.068 472.135H851.33M870.068 472.135V404.35M870.068 472.135V489.98M59.9003 38.5809H77.4617M89.3054 38.5809H99.2477M65.7229 258.237H186.638M65.7229 258.237V452.388M65.7229 258.237V107.665M186.638 258.237V171.362M186.638 258.237V339.506M299.294 339.506V255.434M299.294 171.362V255.434M299.294 255.434H637.264M637.264 255.434V171.362M637.264 255.434V339.506M748.799 339.506V255.434M748.799 171.362V255.434M748.799 255.434H865.793M865.793 255.434V2M865.793 255.434V402.35M40.5758 2C40.5758 1.44772 40.1281 1 39.5758 1M40.5758 2C40.5758 1.44772 40.1281 1 39.5758 1M66.9454 2C66.9454 1.44772 67.3931 1 67.9454 1M66.9454 2C66.9454 1.44772 67.3931 1 67.9454 1M864.793 1C865.345 1 865.793 1.44772 865.793 2M864.793 1C865.345 1 865.793 1.44772 865.793 2M865.793 402.35C865.793 402.903 866.241 403.35 866.793 403.35M865.793 402.35C865.793 402.903 866.241 403.35 866.793 403.35M866.793 403.35H869.068M869.068 403.35C869.62 403.35 870.068 403.798 870.068 404.35M869.068 403.35C869.62 403.35 870.068 403.798 870.068 404.35M870.068 489.98C870.068 490.533 869.62 490.98 869.068 490.98M870.068 489.98C870.068 490.533 869.62 490.98 869.068 490.98M869.068 490.98H839.008M839.008 490.98C838.456 490.98 838.008 491.428 838.008 491.98M839.008 490.98C838.456 490.98 838.008 491.428 838.008 491.98M838.008 491.98V509.216M838.008 509.216C838.008 509.769 837.56 510.216 837.008 510.216M838.008 509.216C838.008 509.769 837.56 510.216 837.008 510.216M837.008 510.216H66.7229M66.7229 510.216C66.1707 510.216 65.7229 509.769 65.7229 509.216M66.7229 510.216C66.1707 510.216 65.7229 509.769 65.7229 509.216M65.7229 509.216V479.513M65.7229 479.513C65.7229 478.961 65.2752 478.513 64.7229 478.513M65.7229 479.513C65.7229 478.961 65.2752 478.513 64.7229 478.513M64.7229 478.513H62.8045M62.8045 478.513C62.2522 478.513 61.8045 478.065 61.8045 477.513M62.8045 478.513C62.2522 478.513 61.8045 478.065 61.8045 477.513M61.8045 477.513V454.388M61.8045 454.388C61.8045 453.836 62.2522 453.388 62.8045 453.388M61.8045 454.388C61.8045 453.836 62.2522 453.388 62.8045 453.388M62.8045 453.388H64.7229M64.7229 453.388C65.2752 453.388 65.7229 452.94 65.7229 452.388M64.7229 453.388C65.2752 453.388 65.7229 452.94 65.7229 452.388M65.7229 107.665C65.7229 107.113 65.2752 106.665 64.7229 106.665M65.7229 107.665C65.7229 107.113 65.2752 106.665 64.7229 106.665M64.7229 106.665H23M23 106.665C10.8497 106.665 1 96.8153 1 84.6651M23 106.665H2C1.44772 106.665 1 106.217 1 105.665V84.6651M1 2C1 1.44771 1.44772 1 2 1M1 2C1 1.44771 1.44772 1 2 1M2 1H39.5758" stroke="#BFC4C8" stroke-width="2" stroke-linecap="round" stroke-linejoin="round"/>
</g>
<g id="tile">
<path id="Vector" d="M186.288 84.748V76.9199M182.377 80.8314L190.205 80.8314" stroke="#BFC4C8" stroke-width="2" stroke-linecap="round" stroke-linejoin="round"/>
<path id="Vector_2" d="M186.288 418V410.171M182.377 414.083L190.205 414.083" stroke="#BFC4C8" stroke-width="2" stroke-linecap="round" stroke-linejoin="round"/>
<path id="Vector_3" d="M298.484 84.748V76.9199M294.572 80.8314L302.4 80.8314" stroke="#BFC4C8" stroke-width="2" stroke-linecap="round" stroke-linejoin="round"/>
<path id="Vector_4" d="M298.484 418V410.171M294.572 414.083L302.4 414.083" stroke="#BFC4C8" stroke-width="2" stroke-linecap="round" stroke-linejoin="round"/>
<path id="Vector_5" d="M410.679 84.748V76.9199M406.768 80.8314L414.596 80.8314" stroke="#BFC4C8" stroke-width="2" stroke-linecap="round" stroke-linejoin="round"/>
<path id="Vector_6" d="M410.679 418V410.171M406.768 414.083L414.596 414.083" stroke="#BFC4C8" stroke-width="2" stroke-linecap="round" stroke-linejoin="round"/>
<path id="Vector_7" d="M410.679 325.574V317.746M406.768 321.658L414.596 321.658" stroke="#BFC4C8" stroke-width="2" stroke-linecap="round" stroke-linejoin="round"/>
<path id="Vector_8" d="M410.679 195.398V187.57M406.768 191.481L414.596 191.481" stroke="#BFC4C8" stroke-width="2" stroke-linecap="round" stroke-linejoin="round"/>
<path id="Vector_9" d="M522.874 84.748V76.9199M518.963 80.8314L526.791 80.8314" stroke="#BFC4C8" stroke-width="2" stroke-linecap="round" stroke-linejoin="round"/>
<path id="Vector_10" d="M522.874 418V410.171M518.963 414.083L526.791 414.083" stroke="#BFC4C8" stroke-width="2" stroke-linecap="round" stroke-linejoin="round"/>
<path id="Vector_11" d="M522.874 325.574V317.746M518.963 321.658L526.791 321.658" stroke="#BFC4C8" stroke-width="2" stroke-linecap="round" stroke-linejoin="round"/>
<path id="Vector_12" d="M522.874 195.398V187.57M518.963 191.481L526.791 191.481" stroke="#BFC4C8" stroke-width="2" stroke-linecap="round" stroke-linejoin="round"/>
<path id="Vector_13" d="M635.07 84.748V76.9199M631.158 80.8314L638.986 80.8314" stroke="#BFC4C8" stroke-width="2" stroke-linecap="round" stroke-linejoin="round"/>
<path id="Vector_14" d="M635.07 418V410.171M631.158 414.083L638.986 414.083" stroke="#BFC4C8" stroke-width="2" stroke-linecap="round" stroke-linejoin="round"/>
<path id="Vector_15" d="M747.265 84.748V76.9199M743.354 80.8314L751.182 80.8314" stroke="#BFC4C8" stroke-width="2" stroke-linecap="round" stroke-linejoin="round"/>
<path id="Vector_16" d="M747.265 418V410.171M743.354 414.083L751.182 414.083" stroke="#BFC4C8" stroke-width="2" stroke-linecap="round" stroke-linejoin="round"/>
</g>
<path id="Vector_17" d="M222.275 313.804L222.275 195.355M201.209 195.355V313.805M285.472 195.355V313.805M243.34 313.805V195.355M264.406 313.804L264.406 195.355" stroke="#BFC4C8" stroke-width="2" stroke-linecap="round" stroke-linejoin="round"/>
<path id="Vector_18" d="M715.655 313.804L715.655 195.355M736.721 195.355V313.805M652.458 195.355V313.805M694.589 313.805V195.355M673.524 313.804L673.524 195.355" stroke="#BFC4C8" stroke-width="2" stroke-linecap="round" stroke-linejoin="round"/>
<g id="b2f3-electro">
<g id="Rectangle 2983">
<rect x="614.506" y="54.5625" width="18.2676" height="18.4683" fill="#475DEB" fill-opacity="0.2"/>
<rect x="613.256" y="53.3125" width="20.7676" height="20.9683" stroke="#475DEB" stroke-opacity="0.2" stroke-width="2.5"/>
</g>
<g id="Rectangle 2985">
<rect x="302" y="182.067" width="18.2676" height="18.4683" fill="#475DEB" fill-opacity="0.2"/>
<rect x="300.75" y="180.817" width="20.7676" height="20.9683" stroke="#475DEB" stroke-opacity="0.2" stroke-width="2.5"/>
</g>
<g id="Rectangle 2984">
<rect x="638.193" y="54.5625" width="18.2676" height="18.4683" fill="#475DEB" fill-opacity="0.2"/>
<rect x="636.943" y="53.3125" width="20.7676" height="20.9683" stroke="#475DEB" stroke-opacity="0.2" stroke-width="2.5"/>
</g>
<text id="title" fill="#172736" style="white-space: pre" xml:space="preserve" font-family="CoFo Weather 20240219" font-size="7.50003" font-weight="500" letter-spacing="0em"><tspan x="325.695" y="189.611">&#x417;&#x430;&#x440;&#x44f;&#x434;&#x43d;&#x43e;&#x435; &#x443;&#x441;&#x442;&#x440;&#x43e;&#x439;&#x441;&#x442;&#x432;&#x43e; &#x2028;</tspan><tspan x="325.695" y="197.611">&#x434;&#x43b;&#x44f; &#x44d;&#x43b;&#x435;&#x43a;&#x442;&#x440;&#x43e;&#x43c;&#x43e;&#x431;&#x438;&#x43b;&#x44f;</tspan></text>
<text id="title_2" fill="#172736" style="white-space: pre" xml:space="preserve" font-family="CoFo Weather 20240219" font-size="7.50003" font-weight="500" letter-spacing="0em"><tspan x="596.755" y="38.7359">&#x417;&#x430;&#x440;&#x44f;&#x434;&#x43d;&#x43e;&#x435; &#x443;&#x441;&#x442;&#x440;&#x43e;&#x439;&#x441;&#x442;&#x432;&#x43e; &#x2028;</tspan><tspan x="600.794" y="46.7359">&#x434;&#x43b;&#x44f; &#x44d;&#x43b;&#x435;&#x43a;&#x442;&#x440;&#x43e;&#x43c;&#x43e;&#x431;&#x438;&#x43b;&#x44f;</tspan></text>
</g>
</g>
</svg>
