<svg width="1035" height="317" viewBox="0 0 1035 317" fill="none" xmlns="http://www.w3.org/2000/svg">
<g id="b3f1">
<g id="map">
<path d="M129 313.5C129 314.052 129.448 314.5 130 314.5H251.5C252.052 314.5 252.5 314.052 252.5 313.5V286.5H412.5V270H751.5C752.052 270 752.5 269.552 752.5 269V244H818.5C819.052 244 819.5 243.552 819.5 243V220.5C819.5 219.948 819.948 219.5 820.5 219.5H898C898.552 219.5 899 219.052 899 218.5V197.5H982.5C983.052 197.5 983.5 197.052 983.5 196.5V154H1010.5V162.5C1010.5 163.052 1010.95 163.5 1011.5 163.5H1032.5C1033.05 163.5 1033.5 163.052 1033.5 162.5V110C1033.5 109.448 1033.05 109 1032.5 109H1011.5C1010.95 109 1010.5 109.448 1010.5 110V117H983.5V2C983.5 1.44771 983.052 1 982.5 1H570L570.468 15.9688C570.485 16.533 570.033 17 569.468 17H493V6.5C493 5.94772 492.552 5.5 492 5.5H447C446.448 5.5 446 5.94772 446 6.5V15C446 15.5523 445.552 16 445 16H405C404.448 16 404 15.5523 404 15V2H2C1.44772 2 1 2.44772 1 3V285.5C1 286.052 1.44772 286.5 2 286.5H128C128.552 286.5 129 286.948 129 287.5V313.5Z" fill="white"/>
<path d="M441.5 178.5H452.5V215V227H441.5V178.5Z" fill="white"/>
<path d="M767 161C767 160.448 767.448 160 768 160H819.5V183C819.5 183.552 819.052 184 818.5 184H767V161Z" fill="white"/>
<path d="M244 267.5C244 281.031 233.031 292 219.5 292C205.969 292 195 281.031 195 267.5C195 253.969 205.969 243 219.5 243C233.031 243 244 253.969 244 267.5Z" fill="white"/>
<path d="M535 82.5H528.5C527.948 82.5 527.5 82.0523 527.5 81.5V40.5C527.5 39.9477 527.948 39.5 528.5 39.5H563.5H599.5V81.5C599.5 82.0523 599.052 82.5 598.5 82.5H580.5H563.5H535Z" fill="white"/>
<path d="M252.5 286.5V313.5C252.5 314.052 252.052 314.5 251.5 314.5H130C129.448 314.5 129 314.052 129 313.5V287.5C129 286.948 128.552 286.5 128 286.5H2C1.44772 286.5 1 286.052 1 285.5V3C1 2.44772 1.44772 2 2 2H404M252.5 286.5H412.5M252.5 286.5H297M252.5 286.5V184.5M412.5 286.5V270M412.5 286.5H327.5M404 2V15C404 15.5523 404.448 16 405 16H445C445.552 16 446 15.5523 446 15V6.5C446 5.94772 446.448 5.5 447 5.5H492C492.552 5.5 493 5.94772 493 6.5V17M404 2V88.5M983.5 119V117M983.5 119H974M983.5 119V115.5M983.5 117H1010.5M983.5 117V2C983.5 1.44771 983.052 1 982.5 1H570M1010.5 117V110C1010.5 109.448 1010.95 109 1011.5 109H1032.5C1033.05 109 1033.5 109.448 1033.5 110V162.5C1033.5 163.052 1033.05 163.5 1032.5 163.5H1011.5C1010.95 163.5 1010.5 163.052 1010.5 162.5V154M1010.5 117V125.5M1010.5 154H983.5M1010.5 154V147M983.5 154V196.5C983.5 197.052 983.052 197.5 982.5 197.5H899M983.5 154V147M899 197.5V218.5C899 219.052 898.552 219.5 898 219.5H820.5C819.948 219.5 819.5 219.948 819.5 220.5V243C819.5 243.552 819.052 244 818.5 244H752.5M899 197.5V160M752.5 244V269C752.5 269.552 752.052 270 751.5 270H412.5M752.5 244H739.5C738.948 244 738.5 243.552 738.5 243V184M412.5 270V253M493 17H569.468C570.033 17 570.485 16.533 570.468 15.9688L570 1M493 17L493 44M570 1V17M58.5 2V133.5C58.5 134.052 58.0523 134.5 57.5 134.5H1M297 286.5H327.5M297 286.5V253M412.5 184V179.5C412.5 178.948 412.948 178.5 413.5 178.5H418M412.5 184V218.5M412.5 184H404M252.5 184.5V178.5M252.5 184.5H267M327.5 286.5V269M327.5 195.5V184.5M376 184H366M376 184V195.5M376 184H404M376 244.5V253M376 253H412.5M376 253V286M412.5 253V227M376 210V218.5M376 218.5V230.5M376 218.5H412.5M412.5 218.5V227M327.5 230.5V218.5M327.5 218.5V210M327.5 218.5H297M297 218.5V184.5M297 218.5V253M327.5 256V253M327.5 253V244.5M327.5 253H297M404 152V132.5M404 132.5V88.5M404 132.5H514.5M404 88.5H324.171C323.765 88.5 323.407 88.2545 323.206 87.9016C321.037 84.0925 311.876 77.5 289.5 77.5C265.9 77.5 240 82.8333 230 85.5C226.333 86.6667 216.4 89 206 89C195.675 89 179.897 84.7291 173.146 82.5474C173.046 82.5151 172.947 82.5 172.842 82.5H128M527.5 132.5H684.5M859 132.5H891.5C892.052 132.5 892.5 132.052 892.5 131.5V90M892.5 90H895M892.5 90H862M836.5 132.5H843M843 132.5H847M843 132.5V90M843 90H836.5M843 90H862M705 132.5H815.5M815.5 132.5H823.5M815.5 132.5V1.5M862 90V53M862 53V1.5M862 53H895M895 53V60.5M895 53V38.5M903.5 90H895M895 90V79.5M895 20.5V1.5M983.5 109H934.5M934.5 109V118.5M934.5 109V1.5M983.5 160H859M705 160H737.5C738.052 160 738.5 160.448 738.5 161V184M404 184V172M412.5 227H418M468 178.5H452.5M452.5 178.5H441.5M452.5 178.5V215M441.5 178.5H430.5M441.5 178.5V227M430.5 227H441.5M441.5 227H452.5M452.5 227V215M452.5 227V270M452.5 215H471.5M487 215H490.5M490.5 215V190.5M490.5 215V270M471.5 215H474M471.5 215V209.5M495.5 160H490.5M490.5 160H485.5M490.5 160V190.5M490.5 190.5H494M506.5 190.5H510C510.552 190.5 511 190.052 511 189.5V160M511 160H506.5M511 160H533M533 160V174.5M533 160H554.5M545 174.5H533M533 174.5H520.5M557.5 160H554.5M554.5 160V189.5C554.5 190.052 554.948 190.5 555.5 190.5H557.5M570 190.5H575.5M575.5 190.5V160M575.5 190.5V270M604.5 160H575.5M575.5 160H570M520.5 190.5H532.75M532.75 190.5H545M532.75 190.5V270M663.5 160H628M628 160H625.5M628 160V187.5C628 188.052 628.448 188.5 629 188.5H655M685.5 160H682M682 160H676.5M682 160V187.5C682 188.052 681.552 188.5 681 188.5H655M655 188.5V270M738.5 184H753M847 160H819.5M819.5 160H768C767.448 160 767 160.448 767 161V184M819.5 160V183C819.5 183.552 819.052 184 818.5 184H767M764 184H767M46.5 134.5V142.5M72 134.5H127C127.552 134.5 128 134.052 128 133.5V2M58.5 94H1.5M1.5 46H58.5M819.5 220V202C819.5 201.448 819.948 201 820.5 201H843.5C844.052 201 844.5 201.448 844.5 202V219.5M934.5 119H938.5M951.5 119H957.5M957.5 119H963M957.5 119V109M88.5 94V2.5M26.5 180.5H1M46.5 180.5H65M46.5 180.5V172M46.5 180.5V206.5M65 180.5V173C65 172.448 64.5523 172 64 172H60.5M65 180.5V195.5M46.5 172V165M46.5 172H49.5M46.5 285V206.5M46.5 206.5H72M25 181V229M85.5 287V222.5M85.5 222.5V206.5M85.5 222.5H128M128 222.5V229M128 222.5V173C128 172.448 127.552 172 127 172H100.5C99.9477 172 99.5 172.448 99.5 173V179C99.5 179.552 99.0523 180 98.5 180H85.5M85.5 180V165M85.5 180V190M58.5 120H84.5M84.5 142.5V134.5M171.5 184H163.5M160.5 249H164C164.552 249 165 249.448 165 250V286C165 286.552 164.552 287 164 287H130C129.448 287 129 286.552 129 286V249M146.5 249H129M129 249V240M404.5 44H446.5M493 44V48.5M493 44H483M471 44H461C460.448 44 460 43.5523 460 43V5.5M487.5 69.5V82.5M487.5 82.5V93.5M487.5 82.5H404.5M462 132.5V111C462 110.448 462.448 110 463 110H484M509 121.5V132.5M484 110H509M484 110V132.5M535 82.5H528.5C527.948 82.5 527.5 82.0523 527.5 81.5V40.5C527.5 39.9477 527.948 39.5 528.5 39.5H563.5M535 82.5H563.5M535 82.5V132.5M599.5 18V1.5M599.5 18H656M599.5 18V39.5M656 18H735.5M656 18V1.5M656 18V40.5M735.5 18H815.5M735.5 18V1.5M656 59.5V93.5M815.5 89.5H785M764.5 89.5H735.5M735.5 89.5V94M735.5 89.5V81.5M599.5 39.5V81.5C599.5 82.0523 599.052 82.5 598.5 82.5H580.5M599.5 39.5H563.5M563.5 39.5V82.5M563.5 82.5H580.5M580.5 82.5V132.5M244 267.5C244 281.031 233.031 292 219.5 292C205.969 292 195 281.031 195 267.5C195 253.969 205.969 243 219.5 243C233.031 243 244 253.969 244 267.5Z" stroke="#BFC4C8" stroke-width="2" stroke-linecap="round" stroke-linejoin="round"/>
</g>
<g id="b3f1-vending">
<rect id="Rectangle 3" x="287" y="161" width="52" height="25" rx="2" fill="#FFEDD6" stroke="#FFCF94" stroke-width="2.5" stroke-linejoin="round"/>
<text id="title" transform="translate(291 169)" fill="#172736" style="white-space: pre" xml:space="preserve" font-family="CoFo Weather 20240219" font-size="10" font-weight="500" letter-spacing="0em"><tspan x="0.291914" y="8.45001">&#x412;&#x435;&#x43d;&#x434;&#x438;&#x43d;&#x433;</tspan></text>
</g>
<g id="b3f1-g">
<path id="Vector" d="M324.5 88H404.5V3H129V82H174C180.667 84.1667 196.6 88.5 207 88.5C217.4 88.5 227.333 86.1667 231 85C241 82.3333 266.9 77 290.5 77C314.1 77 323 84.3333 324.5 88Z" fill="#475DEB" fill-opacity="0.2" stroke="#475DEB" stroke-opacity="0.2" stroke-width="2.5"/>
<text id="title_2" transform="translate(228 36)" fill="#172736" style="white-space: pre" xml:space="preserve" font-family="CoFo Weather 20240219" font-size="14" font-weight="500" letter-spacing="0em"><tspan x="0.269531" y="11.83">&#x413;&#x430;&#x440;&#x434;&#x435;&#x440;&#x43e;&#x431;</tspan></text>
</g>
<g id="b3f1-enter">
<path id="Union" d="M219.5 243C225.645 243 231.261 245.263 235.562 249H254V315H129V249H203.438C207.739 245.263 213.355 243 219.5 243Z" fill="#475DEB" fill-opacity="0.2" stroke="#475DEB" stroke-opacity="0.2" stroke-width="2.5"/>
<text id="title_3" transform="translate(165 282)" fill="#172736" style="white-space: pre" xml:space="preserve" font-family="CoFo Weather 20240219" font-size="12" font-weight="500" letter-spacing="0em"><tspan x="0.113281" y="10.14">&#x412;&#x445;&#x43e;&#x434;&#x43d;&#x430;&#x44f; &#10;</tspan><tspan x="5.82031" y="22.14">&#x433;&#x440;&#x443;&#x43f;&#x43f;&#x430;</tspan></text>
</g>
<g id="b3f1-elevator">
<rect id="Rectangle 2991" x="297" y="183.722" width="116" height="104" fill="#475DEB" fill-opacity="0.2" stroke="#475DEB" stroke-opacity="0.2" stroke-width="2.5"/>
<text id="title_4" transform="translate(339.851 264.031) rotate(-90.75)" fill="#172736" style="white-space: pre" xml:space="preserve" font-family="CoFo Weather 20240219" font-size="12" font-weight="500" letter-spacing="0em"><tspan x="0.304688" y="10.14">&#x41b;&#x438;&#x444;&#x442;&#x43e;&#x432;&#x43e;&#x439; &#10;</tspan><tspan x="14.1152" y="22.14">&#x445;&#x43e;&#x43b;&#x43b; 1</tspan></text>
</g>
<text id="title_5" transform="translate(903.851 77.0308) rotate(-90.75)" fill="#172736" style="white-space: pre" xml:space="preserve" font-family="CoFo Weather 20240219" font-size="12" font-weight="500" letter-spacing="0em"><tspan x="0.304688" y="10.14">&#x41b;&#x438;&#x444;&#x442;&#x43e;&#x432;&#x43e;&#x439; &#10;</tspan><tspan x="12.6504" y="22.14">&#x445;&#x43e;&#x43b;&#x43b; 2</tspan></text>
<g id="b3f1-coffee">
<g id="Ellipse 34">
<path d="M246.078 102.294C246.073 100.503 246.073 98.7119 246.079 96.9211C246.081 96.3677 246.533 95.9217 247.086 95.9258L274.097 96.1273L319.203 96.4637L320.02 96.4698C320.57 96.4739 321.014 96.9212 321.013 97.4711L321.012 98.2888L321.002 105.664L320.988 116.672L320.976 125.909L320.976 125.913L320.975 126.707C320.974 127.249 320.542 127.691 320.001 127.705L319.201 127.726L283.823 128.655L261.149 129.25L247.613 129.605C247.065 129.62 246.607 129.19 246.588 128.642C246.554 127.696 246.522 126.751 246.492 125.805C246.419 123.534 246.356 121.264 246.302 118.994L246.078 102.294Z" fill="#FFEDD6"/>
<path d="M320.988 116.672L321.002 105.664L321.012 98.2888M320.988 116.672L320.976 125.909M320.988 116.672C320.984 119.591 320.979 123.623 320.976 125.909M319.203 96.4637L274.097 96.1273L247.086 95.9258C246.533 95.9217 246.081 96.3677 246.079 96.9211C246.073 98.7119 246.073 100.503 246.078 102.294L246.302 118.994C246.356 121.264 246.419 123.534 246.492 125.805C246.522 126.751 246.554 127.696 246.588 128.642C246.607 129.19 247.065 129.62 247.613 129.605L261.149 129.25L283.823 128.655L319.201 127.726M319.203 96.4637C320.205 96.4712 321.013 97.2865 321.012 98.2888M319.203 96.4637L320.02 96.4698C320.57 96.4739 321.014 96.9212 321.013 97.4711L321.012 98.2888M320.976 125.909L320.976 125.913M319.201 127.726L320.001 127.705C320.542 127.691 320.974 127.249 320.975 126.707C320.975 126.476 320.975 126.209 320.976 125.913M319.201 127.726C320.187 127.701 320.973 126.898 320.976 125.913" stroke="#FFCF94" stroke-width="2.00001" stroke-linejoin="round"/>
</g>
<text id="title_6" transform="translate(255.999 110.041) rotate(-1.30293)" fill="#172736" style="white-space: pre" xml:space="preserve" font-family="CoFo Weather 20240219" font-size="10" font-weight="500" letter-spacing="0em"><tspan x="0.180559" y="8.45001">&#x41a;&#x420;&#x41e;&#x41a;-&#x43a;&#x43e;&#x444;&#x435;</tspan></text>
</g>
</g>
</svg>
