<svg width="1135" height="359" viewBox="0 0 1135 359" fill="none" xmlns="http://www.w3.org/2000/svg">
<g id="b3f11">
<g id="Vector">
<path d="M11.8645 200.958C11.9012 200.434 12.3369 200.028 12.8621 200.028H29.4297C29.982 200.028 30.4297 199.58 30.4297 199.028V3.52783C30.4297 2.97555 30.8774 2.52783 31.4297 2.52783H1119.43C1119.98 2.52783 1120.43 2.97555 1120.43 3.52783V85.0278C1120.43 85.5801 1120.88 86.0278 1121.43 86.0278H1130.44C1130.99 86.0278 1131.44 86.4663 1131.44 87.0125L1133 188.528L1133.42 215.758C1133.42 216.212 1133.15 216.606 1132.72 216.728C1111.86 222.581 1051.8 239.065 1024.93 245.528C1019.97 246.721 1014.24 248.057 1007.93 249.494C984.055 254.933 951.871 261.824 921.43 267.963C896.304 273.031 872.365 277.587 855.264 280.392C854.78 280.471 854.43 280.888 854.43 281.378V299.528C854.43 300.08 853.982 300.528 853.43 300.528H751.007C750.955 300.528 750.907 300.531 750.856 300.539C721.371 305.109 657.144 314.868 611.43 321.214C605.4 322.051 599.693 322.829 594.43 323.528C586.62 324.564 576.907 325.716 565.93 326.932C552.304 328.442 536.73 330.053 520.43 331.671C506.212 333.082 491.441 334.499 476.93 335.859C461.291 337.324 445.953 338.724 431.93 339.979C416.339 341.376 402.374 342.594 391.43 343.528H386.43H305.43V348.077C305.43 348.609 305.027 349.048 304.495 349.072C297.5 349.394 271.535 350.384 213.43 352.306C198.085 352.813 180.499 353.386 160.43 354.028C63.175 357.14 15.1044 357.352 1.95968 357.054C1.39148 357.041 0.962781 356.556 1.0025 355.989L11.8645 200.958Z" fill="white"/>
<path d="M196.93 135.028C196.377 135.028 195.93 135.476 195.93 136.028V140.528H213.93V135.028H196.93Z" fill="white"/>
<path d="M1006.93 110.528C1006.93 111.08 1006.48 111.528 1005.93 111.528H999.43H996.93H981.43H966.18H950.93V101.528C950.93 100.976 951.377 100.528 951.93 100.528H966.18H970.93H981.43H996.93H1006.93V110.528Z" fill="white"/>
<path d="M893.43 115.028C893.43 115.58 893.877 116.028 894.43 116.028H923.93V102.028H893.43V115.028Z" fill="white"/>
<path d="M305.43 343.528V348.077C305.43 348.609 305.027 349.048 304.495 349.072C297.5 349.394 271.535 350.384 213.43 352.306M305.43 343.528H386.43M305.43 343.528V205.528M1133 188.528L1133.42 215.758C1133.42 216.212 1133.15 216.606 1132.72 216.728C1111.86 222.581 1051.8 239.065 1024.93 245.528C1019.97 246.721 1014.24 248.057 1007.93 249.494M1133 188.528L1131.44 87.0125C1131.44 86.4663 1130.99 86.0278 1130.44 86.0278H1121.43C1120.88 86.0278 1120.43 85.5801 1120.43 85.0278V3.52783C1120.43 2.97555 1119.98 2.52783 1119.43 2.52783H31.4297C30.8774 2.52783 30.4297 2.97555 30.4297 3.52783V199.028C30.4297 199.58 29.982 200.028 29.4297 200.028H12.8621C12.3369 200.028 11.9012 200.434 11.8645 200.958L1.0025 355.989C0.962781 356.556 1.39148 357.041 1.95968 357.054C15.1044 357.352 63.175 357.14 160.43 354.028C180.499 353.386 198.085 352.813 213.43 352.306M1133 188.528L1124.23 179.337C1124.04 179.14 1123.78 179.028 1123.5 179.028H1026.43M663.43 179.028H611.43M611.43 179.028V172.528M611.43 179.028H594.43M611.43 179.028V253.028M611.43 321.214C605.4 322.051 599.693 322.829 594.43 323.528C586.62 324.564 576.907 325.716 565.93 326.932M611.43 321.214C657.144 314.868 721.371 305.109 750.856 300.539C750.907 300.531 750.955 300.528 751.007 300.528H853.43C853.982 300.528 854.43 300.08 854.43 299.528V281.378C854.43 280.888 854.78 280.471 855.264 280.392C872.365 277.587 896.304 273.031 921.43 267.963M611.43 321.214V307.528M565.93 326.932V253.028M565.93 326.932C552.304 328.442 536.73 330.053 520.43 331.671M565.93 179.028H580.43M565.93 179.028V211.028M565.93 179.028H514.43C513.877 179.028 513.43 179.476 513.43 180.028V185.028M611.43 253.028V293.528M611.43 253.028H565.93M565.93 253.028V211.028M565.93 211.028H557.93M513.43 205.528V211.028M513.43 211.028V251.528M513.43 211.028H523.93M513.43 211.028H501.43M513.43 251.528H499.93M513.43 251.528H523.93M523.93 251.528V211.028M523.93 251.528V306.528C523.93 307.08 523.482 307.528 522.93 307.528H521.43C520.877 307.528 520.43 307.976 520.43 308.528V331.671M543.43 211.028H523.93M520.43 331.671C506.212 333.082 491.441 334.499 476.93 335.859M476.93 335.859V310.528M476.93 335.859C461.291 337.324 445.953 338.724 431.93 339.979M476.93 211.028V205.528M476.93 211.028H486.93M476.93 211.028V251.528M476.93 205.528V199.528M476.93 205.528H440.43M476.93 251.528H486.93M476.93 251.528V281.528M476.93 187.028V180.028C476.93 179.476 477.377 179.028 477.93 179.028H494.43C494.982 179.028 495.43 179.476 495.43 180.028V184.028C495.43 184.58 495.877 185.028 496.43 185.028H513.43M513.43 185.028V191.028M440.43 205.528H419.93M440.43 205.528V218.028M440.43 233.528V256.028M440.43 272.028V280.528C440.43 281.08 440.877 281.528 441.43 281.528H460.43M476.93 281.528H460.43M476.93 281.528V310.528M460.43 281.528V305.528M476.93 310.528H461.43C460.877 310.528 460.43 310.08 460.43 309.528V305.528M460.43 305.528H432.93C432.377 305.528 431.93 305.976 431.93 306.528V314.028M431.93 339.979C416.339 341.376 402.374 342.594 391.43 343.528H386.43M431.93 339.979V330.028M386.43 343.528V322.214C386.43 321.662 385.982 321.214 385.43 321.214H367.93M388.43 205.528V218.028M388.43 205.528H395.93M388.43 205.528H371.93M388.43 233.528V244.778M388.43 244.778V256.028M388.43 244.778H352.93M352.93 244.778V205.528M352.93 244.778V279.028M352.93 205.528H305.43M352.93 205.528H371.93M352.93 305.528V279.028M352.93 279.028H388.43M388.43 279.028V272.028M388.43 279.028V287.028M305.43 205.528V192.278M305.43 179.028H349.93M305.43 179.028V192.278M305.43 179.028H233.43M392.93 179.028H394.93C395.482 179.028 395.93 179.476 395.93 180.028V205.528M395.93 205.528H408.43M362.43 179.028H371.93M371.93 179.028H381.43M371.93 179.028V205.528M305.43 192.278H317.43C317.982 192.278 318.43 192.726 318.43 193.278V204.028M196.43 179.028H122.43M122.43 179.028H117.93M122.43 179.028V186.028C122.43 186.58 121.982 187.028 121.43 187.028H98.9297C98.3774 187.028 97.9297 186.58 97.9297 186.028V180.028C97.9297 179.476 98.3774 179.028 98.9297 179.028H103.43M217.93 179.028H213.43M213.43 179.028H208.93M213.43 179.028V352.306M750.93 179.028H746.93M746.93 179.028H678.93M746.93 179.028V300.528M875.93 179.028H837.43M837.43 179.028H764.93M837.43 179.028V205.028C837.43 205.58 837.877 206.028 838.43 206.028H921.43M921.43 206.028V179.028M921.43 206.028V267.963M925.93 179.028H921.43M921.43 179.028H890.43M921.43 267.963C951.871 261.824 984.055 254.933 1007.93 249.494M1012.43 179.028H1007.93M1007.93 179.028H940.43M1007.93 179.028V249.494M31.4297 200.028H76.9297C77.482 200.028 77.9297 199.58 77.9297 199.028V170.028M77.9297 156.028V141.528C77.9297 140.976 77.482 140.528 76.9297 140.528H29.9297M293.93 140.528H297.43M297.43 140.528H300.93M297.43 140.528V78.0278M297.43 78.0278V74.5278M297.43 78.0278H344.93M391.93 78.0278V74.5278M391.93 78.0278V139.528C391.93 140.08 391.482 140.528 390.93 140.528H373.93M391.93 78.0278H353.43M315.43 140.528H317.43C317.982 140.528 318.43 140.08 318.43 139.528V132.528C318.43 131.976 318.877 131.528 319.43 131.528H353.43M353.43 131.528V140.528M353.43 131.528V78.0278M335.43 132.028V139.528C335.43 140.08 335.877 140.528 336.43 140.528H353.43M359.43 140.528H353.43M353.43 78.0278H344.93M344.93 78.0278V3.02783M297.43 60.5278V3.02783M391.93 60.5278V55.5278M391.93 55.5278V3.02783M391.93 55.5278H396.93M478.93 51.0278V55.5278M478.93 55.5278V100.028C478.93 100.58 478.482 101.028 477.93 101.028H471.43M478.93 55.5278H432.93M416.93 95.0278V100.028C416.93 100.58 417.377 101.028 417.93 101.028H471.43M409.43 55.5278H416.93M416.93 55.5278V80.5278M416.93 55.5278H432.93M432.93 55.5278V3.02783M478.93 37.5278V3.02783M471.43 101.028V142.028C471.43 142.58 471.877 143.028 472.43 143.028H544.93M677.93 143.028H729.93C730.482 143.028 730.93 142.58 730.93 142.028V137.528C730.93 136.976 731.377 136.528 731.93 136.528H745.93M745.93 136.528V142.028C745.93 142.58 746.377 143.028 746.93 143.028H750.43M745.93 136.528V3.02783M592.43 143.028H611.93M611.93 143.028H663.93M611.93 143.028V95.5278M558.93 143.028H562.43M562.43 143.028H578.43M562.43 143.028V3.02783M95.9297 140.528H97.9297M97.9297 140.528H104.43M97.9297 140.528V131.528C97.9297 130.976 98.3774 130.528 98.9297 130.528H122.93M122.93 130.528V133.528M122.93 130.528V96.5278C122.93 95.9755 123.377 95.5278 123.93 95.5278H125.43C125.982 95.5278 126.43 95.0801 126.43 94.5278V3.02783M117.43 140.528H122.93M122.93 140.528H134.43M122.93 140.528V133.528M122.93 133.528H153.43C153.982 133.528 154.43 133.976 154.43 134.528V140.528M148.43 140.528H154.43M154.43 140.528H161.93M176.43 140.528H195.93M195.93 140.528V136.028C195.93 135.476 196.377 135.028 196.93 135.028H213.93M195.93 140.528H213.93M213.93 135.028V140.528M213.93 135.028V3.02783M213.93 140.528H280.93M763.43 143.028H797.93M797.93 143.028H816.43M797.93 143.028V97.0278C797.93 96.4755 798.377 96.0278 798.93 96.0278H832.93C833.482 96.0278 833.93 96.4755 833.93 97.0278V102.028M833.93 143.028H829.93M833.93 143.028H903.93M833.93 143.028V102.028M999.43 143.028H1005.93C1006.48 143.028 1006.93 142.58 1006.93 142.028V129.028C1006.93 128.476 1006.48 128.028 1005.93 128.028H1000.43C999.877 128.028 999.43 127.58 999.43 127.028V111.528M999.43 111.528H1005.93C1006.48 111.528 1006.93 111.08 1006.93 110.528V100.528M999.43 111.528H996.93M1006.93 100.528H1018.43M1006.93 100.528H996.93M1006.93 100.528V91.5278M948.43 143.028H950.93M950.93 143.028H959.93M950.93 143.028V111.528M950.93 111.528V101.528C950.93 100.976 951.377 100.528 951.93 100.528H966.18M950.93 111.528H966.18M974.93 143.028H981.43M981.43 143.028H985.43M981.43 143.028V111.528M981.43 111.528V100.528M981.43 111.528H966.18M981.43 111.528H996.93M981.43 100.528H996.93M981.43 100.528H970.93M966.18 111.528V100.528M966.18 100.528H970.93M996.93 111.528V100.528M1006.93 26.0278V3.02783M970.93 100.528V61.0278M970.93 3.02783V61.0278M970.93 61.0278H1006.93M1006.93 71.0278V61.0278M1006.93 61.0278V47.0278M917.43 143.028H923.93M923.93 143.028H934.93M923.93 143.028V116.028M923.93 116.028H894.43C893.877 116.028 893.43 115.58 893.43 115.028V102.028M923.93 116.028V102.028M893.43 102.028H833.93M893.43 102.028H923.93M923.93 102.028V3.02783M1054.93 135.028H1051.43C1050.88 135.028 1050.43 134.58 1050.43 134.028V123.528M1095.43 135.028H1104.43M1104.43 135.028V148.528M1104.43 135.028V124.528C1104.43 123.976 1103.98 123.528 1103.43 123.528H1076.93M1050.43 123.528H1076.93M1050.43 123.528V100.528M1069.43 135.028H1076.93M1076.93 135.028H1082.43M1076.93 135.028V123.528M1050.43 100.528V3.02783M1050.43 100.528H1039.93" stroke="#BFC4C8" stroke-width="2" stroke-linecap="round" stroke-linejoin="round"/>
</g>
<g id="b1f11-r">
<text id="title" transform="translate(405.93 121.25)" fill="#172736" xml:space="preserve" style="white-space: pre" font-family="CoFo Weather 20240219" font-size="8" font-weight="500" letter-spacing="0em"><tspan x="16.8698" y="6.76">&#x420;&#x435;&#x441;&#x435;&#x43f;&#x448;&#x43d;</tspan></text>
<path id="Line 16" d="M462.882 112.25C462.882 112.25 453.261 116.906 441.495 116.936C429.728 116.966 419.929 112.447 419.929 112.447" stroke="#475DEB" stroke-width="2"/>
</g>
<g id="b1f11-paper">
<text id="title_2" transform="translate(368.93 141.266) rotate(-0.844763)" fill="#172736" xml:space="preserve" style="white-space: pre" font-family="CoFo Weather 20240219" font-size="8" font-weight="500" letter-spacing="0em"><tspan x="10.7995" y="6.76">&#x423;&#x442;&#x438;&#x43b;&#x438;&#x437;&#x430;&#x446;&#x438;&#x44f; </tspan><tspan x="20.2448" y="14.76">&#x431;&#x443;&#x43c;&#x430;&#x433;&#x438;</tspan></text>
<path id="Ellipse 40" d="M405.93 133.75C405.93 136.235 403.915 138.25 401.43 138.25C398.944 138.25 396.93 136.235 396.93 133.75C396.93 131.265 398.944 129.25 401.43 129.25C403.915 129.25 405.93 131.265 405.93 133.75Z" fill="#73E553"/>
</g>
<text id="title_3" transform="translate(1016.78 83.5586) rotate(-90.75)" fill="#172736" xml:space="preserve" style="white-space: pre" font-family="CoFo Weather 20240219" font-size="12" font-weight="500" letter-spacing="0em"><tspan x="0.304688" y="10.14">&#x41b;&#x438;&#x444;&#x442;&#x43e;&#x432;&#x43e;&#x439; &#10;</tspan><tspan x="12.6504" y="22.14">&#x445;&#x43e;&#x43b;&#x43b; 2</tspan></text>
<text id="title_4" transform="translate(406.78 292.559) rotate(-90.75)" fill="#172736" xml:space="preserve" style="white-space: pre" font-family="CoFo Weather 20240219" font-size="12" font-weight="500" letter-spacing="0em"><tspan x="0.304688" y="10.14">&#x41b;&#x438;&#x444;&#x442;&#x43e;&#x432;&#x43e;&#x439; &#10;</tspan><tspan x="14.1152" y="22.14">&#x445;&#x43e;&#x43b;&#x43b; 1</tspan></text>
<g id="b1f11-1111">
<rect id="Rectangle 10" x="344.93" y="2.52783" width="48" height="76" fill="#33D18F" fill-opacity="0.2" stroke="#33D18F" stroke-opacity="0.2" stroke-width="2.5" stroke-linejoin="round"/>
<text id="title_5" transform="translate(350.93 42.5601)" fill="#172736" xml:space="preserve" style="white-space: pre" font-family="CoFo Weather 20240219" font-size="4" font-weight="500" letter-spacing="0em"><tspan x="0" y="3.38">&#x41f;&#x435;&#x440;&#x435;&#x433;&#x43e;&#x432;&#x43e;&#x440;&#x43a;&#x430;</tspan></text>
<g id="Frame 24">
<rect x="362.658" y="33.5278" width="11.375" height="7.25" rx="1.6875" fill="#33D18F" fill-opacity="0.2"/>
<text id="1111" transform="translate(364.346 34.6528)" fill="#172736" xml:space="preserve" style="white-space: pre" font-family="CoFo Weather 20240219" font-size="4.5" font-weight="500" letter-spacing="0.02em"><tspan x="0.461436" y="4.0525">1111</tspan></text>
</g>
</g>
<g id="b1f11-1113">
<rect id="Rectangle 12" x="392.93" y="1.25" width="40" height="53" fill="#33D18F" fill-opacity="0.2" stroke="#33D18F" stroke-opacity="0.2" stroke-width="2.5" stroke-linejoin="round"/>
<text id="title_6" transform="translate(396.93 32.25)" fill="#172736" xml:space="preserve" style="white-space: pre" font-family="CoFo Weather 20240219" font-size="4" font-weight="500" letter-spacing="0em"><tspan x="0" y="3.38">&#x41f;&#x435;&#x440;&#x435;&#x433;&#x43e;&#x432;&#x43e;&#x440;&#x43a;&#x430;</tspan></text>
<g id="Frame 26">
<rect x="408.93" y="25.25" width="8" height="5" rx="1.6875" fill="#33D18F" fill-opacity="0.2"/>
<text id="1113" transform="translate(408.43 25.25)" fill="#172736" xml:space="preserve" style="white-space: pre" font-family="CoFo Weather 20240219" font-size="4.5" font-weight="500" letter-spacing="0.02em"><tspan x="0.398935" y="4.0525">1113</tspan></text>
</g>
</g>
<g id="b1f11-1117">
<path id="Rectangle 11" d="M479.93 54.25V102.25H418.93V79.75V54.25H479.93Z" fill="#33D18F" fill-opacity="0.2" stroke="#33D18F" stroke-opacity="0.2" stroke-width="2.5" stroke-linejoin="round"/>
<text id="title_7" transform="translate(430.93 81.25)" fill="#172736" xml:space="preserve" style="white-space: pre" font-family="CoFo Weather 20240219" font-size="4" font-weight="500" letter-spacing="0em"><tspan x="0" y="3.38">&#x41f;&#x435;&#x440;&#x435;&#x433;&#x43e;&#x432;&#x43e;&#x440;&#x43a;&#x430;</tspan></text>
<g id="Frame 25">
<rect x="442.113" y="73.4541" width="12.375" height="7.25" rx="1.6875" fill="#33D18F" fill-opacity="0.2"/>
<text id="1117" transform="translate(443.801 74.5791)" fill="#172736" xml:space="preserve" style="white-space: pre" font-family="CoFo Weather 20240219" font-size="4.5" font-weight="500" letter-spacing="0.02em"><tspan x="0.489023" y="4.0525">1117</tspan></text>
</g>
</g>
<g id="b1f11-k">
<path id="Vector 36" d="M923.93 143.528H916.93H833.93V102.528H894.43V115.528H923.93V143.528Z" fill="#FFEDD6" stroke="#FFCF94" stroke-width="2.5" stroke-linecap="round" stroke-linejoin="round"/>
<text id="title_8" fill="#172736" xml:space="preserve" style="white-space: pre" font-family="CoFo Weather 20240219" font-size="5.62502" font-weight="500" letter-spacing="0em"><tspan x="863.989" y="128.478">&#x41c;&#x438;&#x43d;&#x438;-&#x43a;&#x443;&#x445;&#x43d;&#x44f;</tspan></text>
<g id="Frame 10">
<rect x="874.371" y="115.528" width="9" height="6" rx="1.5" fill="#FFCF94"/>
<rect x="874.371" y="115.528" width="9" height="6" rx="1.5" stroke="#FFA436" stroke-opacity="0.2" stroke-width="0.5"/>
<text id="&#209;&#129;11" fill="#172736" xml:space="preserve" style="white-space: pre" font-family="CoFo Weather 20240219" font-size="4" font-weight="500" letter-spacing="0.02em"><tspan x="876.172" y="119.908">&#x441;11</tspan></text>
</g>
</g>
</g>
</svg>
