<svg width="1149" height="357" viewBox="0 0 1149 357" fill="none" xmlns="http://www.w3.org/2000/svg">
<g id="b3f10">
<g id="Vector">
<path d="M12.25 198.75H30.75V2.25C30.75 1.69772 31.1977 1.25 31.75 1.25H1119.75C1120.3 1.25 1120.75 1.69772 1120.75 2.25V84.75H1146.25C1146.8 84.75 1147.25 85.1977 1147.25 85.75V217.492C1147.25 217.94 1146.97 218.328 1146.54 218.449C1125.87 224.234 1073.85 237.842 1030.75 245.75C987.45 253.695 902.102 270.188 864.035 277.597C863.565 277.689 863.25 278.095 863.25 278.574V298.25C863.25 298.802 862.802 299.25 862.25 299.25H751.327C751.276 299.25 751.227 299.253 751.177 299.261C717.803 304.434 639.917 316.254 594.75 322.25C549.55 328.25 440.583 338.083 391.75 342.25H305.75V346.799C305.75 347.332 305.35 347.77 304.818 347.794C295.983 348.201 256.83 349.675 160.75 352.75C63.4954 355.862 15.4247 356.074 2.28 355.776C1.71179 355.763 1.28309 355.278 1.32282 354.711L12.25 198.75Z" fill="white"/>
<path d="M31.75 184.75C31.1977 184.75 30.75 185.198 30.75 185.75V198.75H12.25L1.82158 354.183C1.78285 354.76 2.24071 355.25 2.81934 355.25H53.25L105.269 354.269C105.814 354.258 106.25 353.814 106.25 353.269V343.75C106.25 338.663 102.949 331.54 100.845 327.78C100.542 327.237 100.777 326.547 101.349 326.306C106.182 324.269 115.731 319.269 122.75 312.25C130.35 304.65 132.25 289.75 132.25 283.25V207.75H125.25C124.698 207.75 124.25 207.302 124.25 206.75V185.75C124.25 185.198 123.802 184.75 123.25 184.75H31.75Z" fill="white"/>
<path d="M358.75 279.25H371.25V289.75C371.25 290.302 370.802 290.75 370.25 290.75H358.75V279.25V241V202.75H322.75H308.75V191.25H321.75C322.302 191.25 322.75 191.698 322.75 192.25V202.75H358.75V241V279.25Z" fill="white"/>
<path d="M357.75 128.25H339.5V138.75H357.75V128.25Z" fill="white"/>
<path d="M934.75 124.75C935.302 124.75 935.75 124.302 935.75 123.75V96.25C935.75 95.6977 935.302 95.25 934.75 95.25H869.25H842.75C842.198 95.25 841.75 95.6977 841.75 96.25V136.25C841.75 136.802 842.198 137.25 842.75 137.25H930.25C930.802 137.25 931.25 136.802 931.25 136.25V125.75C931.25 125.198 931.698 124.75 932.25 124.75H934.75Z" fill="white"/>
<path d="M466.75 309.75C466.198 309.75 465.75 309.302 465.75 308.75V302.75H453.75V280.75H465.75H480.254C480.805 280.75 481.252 280.305 481.254 279.754L481.367 249.25L482.25 309.75H466.75Z" fill="white"/>
<path d="M531.75 249.25H519.75V208.75H531.75V249.25Z" fill="white"/>
<path d="M634.75 175.25H619.25V181.75H633.75C634.302 181.75 634.75 181.302 634.75 180.75V175.25Z" fill="white"/>
<path d="M963.25 108.25V96.25H979.75H994.75H1010.25H1019.75V108.25V125.25C1019.75 125.802 1019.3 126.25 1018.75 126.25H1011.25C1010.7 126.25 1010.25 125.802 1010.25 125.25V108.25H994.75H979.75H963.25Z" fill="white"/>
<path d="M30.75 198.75H12.25M30.75 198.75V2.25C30.75 1.69772 31.1977 1.25 31.75 1.25H1119.75C1120.3 1.25 1120.75 1.69772 1120.75 2.25V84.75M30.75 198.75V185.75C30.75 185.198 31.1977 184.75 31.75 184.75H123.25C123.802 184.75 124.25 185.198 124.25 185.75V206.75C124.25 207.302 124.698 207.75 125.25 207.75H132.25M12.25 198.75L1.32282 354.711C1.28309 355.278 1.71179 355.763 2.28 355.776C15.4247 356.074 63.4954 355.862 160.75 352.75C256.83 349.675 295.983 348.201 304.818 347.794C305.35 347.77 305.75 347.332 305.75 346.799V342.25M12.25 198.75L1.82158 354.183C1.78285 354.76 2.24071 355.25 2.81934 355.25H53.25L105.269 354.269C105.814 354.258 106.25 353.814 106.25 353.269V343.75C106.25 338.663 102.949 331.54 100.845 327.78C100.542 327.237 100.777 326.547 101.349 326.306C106.182 324.269 115.731 319.269 122.75 312.25C130.35 304.65 132.25 289.75 132.25 283.25V207.75M305.75 342.25H391.75C440.583 338.083 549.55 328.25 594.75 322.25C639.917 316.254 717.803 304.434 751.177 299.261C751.227 299.253 751.276 299.25 751.327 299.25H862.25C862.802 299.25 863.25 298.802 863.25 298.25V278.574C863.25 278.095 863.565 277.689 864.035 277.597C902.102 270.188 987.45 253.695 1030.75 245.75C1073.85 237.842 1125.87 224.234 1146.54 218.449C1146.97 218.328 1147.25 217.94 1147.25 217.492V85.75C1147.25 85.1977 1146.8 84.75 1146.25 84.75H1120.75M305.75 342.25V203.75C305.75 203.198 306.198 202.75 306.75 202.75H308.75M1120.75 84.75V93.25M119.25 139.25H125.25M125.25 139.25H135.75M125.25 139.25V131.25M150.75 139.25H155.25C155.802 139.25 156.25 138.802 156.25 138.25V132.25C156.25 131.698 155.802 131.25 155.25 131.25H125.25M125.25 131.25V128.25M125.25 128.25V2.25M125.25 128.25H99.75M99.75 128.25V138.25C99.75 138.802 100.198 139.25 100.75 139.25H104.75M99.75 128.25H95.75M82.25 128.25H73.5069C73.3384 128.25 73.1754 128.291 73.0274 128.372C69.5735 130.254 61.8376 134.076 56.75 135.25C51.55 136.45 46.9167 137.083 45.25 137.25H30.75M132.25 207.75H145.25M207.25 254.75H220.75M220.75 254.75V309.25C220.75 309.802 220.302 310.25 219.75 310.25H217.75C217.198 310.25 216.75 310.698 216.75 311.25V350.75M220.75 254.75V207.75M220.75 207.75H179.75M220.75 207.75C226.583 206.944 241.05 203.716 252.25 197.25C263.45 190.784 269.917 181.556 271.75 177.75L272.474 176.303C272.643 175.964 272.989 175.75 273.368 175.75H286.75M159.25 207.75H179.75M179.75 207.75V254.75M132.75 254.75H179.75M179.75 254.75H193.75M397.25 175.75H400.25C400.802 175.75 401.25 176.198 401.25 176.75V202.75M401.25 202.75H404.75M401.25 202.75H393.75M300.75 175.75H308.75M308.75 175.75H354.25M308.75 175.75V191.25M365.25 175.75H374.75M374.75 175.75H386.25M374.75 175.75V202.75M374.75 202.75H393.75M374.75 202.75H358.75M393.75 202.75V215.75M393.75 308.75V320.75M393.75 320.75V342.25M393.75 320.75H373.25M358.75 202.75V241M358.75 202.75H322.75M393.75 269.75V279.25M393.75 279.25V285.75M393.75 279.25H371.25M358.75 279.25H371.25M358.75 279.25V290.75M358.75 279.25V241M371.25 279.25V289.75C371.25 290.302 370.802 290.75 370.25 290.75H358.75M358.75 303.75V290.75M358.75 241H393.75M393.75 231.75V241M393.75 241V253.75M308.75 202.75V191.25M308.75 202.75H322.75M308.75 191.25H321.75C322.302 191.25 322.75 191.698 322.75 192.25V202.75M194.25 95.9799C201.11 93.5669 208.52 92.25 216.25 92.25C221.059 92.25 225.744 92.7597 230.25 93.7259M156.467 131.75C161.46 119.229 170.59 108.676 182.25 101.637M213.25 91.75V1.25M244.25 98.4325C249.759 101.012 254.825 104.329 259.309 108.25M268.517 118.25C275.907 128.279 280.25 140.527 280.25 153.75M253.25 102.75L260.228 69.8526C260.243 69.7844 260.25 69.7148 260.25 69.6451V1.25M304.75 138.75H301.25M301.25 138.75H298.75M301.25 138.75V132.75M301.25 132.75H285.75C285.198 132.75 284.75 133.198 284.75 133.75V138.75M301.25 132.75V74.25M287.75 138.75H284.75M284.75 138.75H278.75M318.25 138.75H321.25M321.25 138.75H324.25M321.25 138.75V129.25C321.25 128.698 321.698 128.25 322.25 128.25H339.5M339.5 128.25H357.75M339.5 128.25V138.75M357.75 128.25V138.75M357.75 128.25V74.25M339.5 138.75H336.75M339.5 138.75H357.75M357.75 138.75H364.25M357.75 74.25H301.25M357.75 74.25H396.75M301.25 1.25V74.25M396.75 74.25V71.25M396.75 74.25V137.75C396.75 138.302 396.302 138.75 395.75 138.75H377.75M396.75 56.25V54.25C396.75 53.6977 397.198 53.25 397.75 53.25H421.75C422.302 53.25 422.75 53.6977 422.75 54.25V67.75M422.75 81.75V94.75C422.75 95.3023 423.198 95.75 423.75 95.75H477.75M477.75 95.75V98.75C477.75 99.3023 478.198 99.75 478.75 99.75H508.25M477.75 95.75V1.75M521.25 99.75H530.25M543.25 99.75H569.25M569.25 99.75V45.75M569.25 99.75V137.75C569.25 138.302 569.698 138.75 570.25 138.75H585.75M600.25 138.75H618.25C618.802 138.75 619.25 138.302 619.25 137.75V99.75M569.25 1.75V45.75M569.25 45.75H618.25C618.802 45.75 619.25 46.1977 619.25 46.75V99.75M619.25 99.75H627.75M800.75 91.75V98.75C800.75 99.3023 800.302 99.75 799.75 99.75H755.75M730.25 99.75H755.75M755.75 99.75V1.25M707.25 99.75H711.75M711.75 99.75H716.25M711.75 99.75V1.25M641.25 99.75H667.25M667.25 99.75H693.25M667.25 99.75V1.25M800.75 77.75V70.25M800.75 70.25V1.25M800.75 70.25H815.75M829.75 70.25H869.25M869.25 70.25V74.25M869.25 70.25V1.25M869.25 88.75V95.25M869.25 95.25H842.75C842.198 95.25 841.75 95.6977 841.75 96.25V136.25C841.75 136.802 842.198 137.25 842.75 137.25H930.25C930.802 137.25 931.25 136.802 931.25 136.25V125.75C931.25 125.198 931.698 124.75 932.25 124.75H934.75C935.302 124.75 935.75 124.302 935.75 123.75V96.25M869.25 95.25H934.75C935.302 95.25 935.75 95.6977 935.75 96.25M437.75 338.25V328.25M437.75 313.25V303.75C437.75 303.198 438.198 302.75 438.75 302.75H453.75M465.75 302.75V308.75C465.75 309.302 466.198 309.75 466.75 309.75H482.25M465.75 302.75H453.75M465.75 302.75V280.75M482.25 309.75V334.25M482.25 309.75L481.367 249.25M453.75 302.75V280.75M453.75 280.75H447.25C446.698 280.75 446.25 280.302 446.25 279.75V270.25M453.75 280.75H465.75M465.75 280.75H480.254C480.805 280.75 481.252 280.305 481.254 279.754L481.367 249.25M446.25 254.25V241.25M446.25 241.25V232.25M446.25 241.25H481.25M481.25 241.25L481.367 249.25M481.25 241.25V208.75M481.367 249.25H492.25M531.75 249.25V307.25C531.75 307.802 531.302 308.25 530.75 308.25H528.25C527.698 308.25 527.25 308.698 527.25 309.25V329.75M531.75 249.25H519.75M531.75 249.25V208.75M507.75 249.25H519.75M519.75 249.25V208.75M519.75 208.75H507.75M519.75 208.75H531.75M519.75 208.75V202.75M446.25 202.75H480.25C480.802 202.75 481.25 203.198 481.25 203.75V208.75M446.25 202.75H435.75M446.25 202.75V215.75M481.25 208.75H493.25M531.75 208.75H551.75M519.75 188.25V181.75M519.75 181.75V176.25C519.75 175.698 520.198 175.25 520.75 175.25H575.25M519.75 181.75H503.75C503.198 181.75 502.75 181.302 502.75 180.75V176.25C502.75 175.698 502.302 175.25 501.75 175.25H483.75C483.198 175.25 482.75 175.698 482.75 176.25V183.25M575.25 175.25H588.25M575.25 175.25V272.75M572.75 324.25V292.75C572.75 292.198 573.198 291.75 573.75 291.75H574.25C574.802 291.75 575.25 291.302 575.25 290.75V272.75M575.25 272.75H619.25M619.25 272.75V291.75M619.25 272.75V181.75M602.25 175.25H619.25M619.25 175.25H634.75M619.25 175.25V181.75M634.75 175.25H649.25M634.75 175.25V180.75C634.75 181.302 634.302 181.75 633.75 181.75H619.25M664.75 175.25H676.75M689.75 175.25H693.25M693.25 175.25V159.75M693.25 175.25V197.75C693.25 198.302 693.698 198.75 694.25 198.75H752.75M811.75 198.75V165.25M811.75 198.75V202.75M811.75 198.75H755.75M811.75 219.25V224.75M811.75 224.75V299.25M811.75 224.75H819.75M755.75 198.75V299.25M755.75 198.75H752.75M752.75 198.75V134.25M752.75 134.25H738.75C738.198 134.25 737.75 133.802 737.75 133.25V128.75C737.75 128.198 737.302 127.75 736.75 127.75H694.25C693.698 127.75 693.25 128.198 693.25 128.75V143.75M752.75 134.25H754.75C755.302 134.25 755.75 133.802 755.75 133.25V128.75C755.75 128.198 756.198 127.75 756.75 127.75H810.75C811.302 127.75 811.75 128.198 811.75 128.75V150.25M833.75 224.75H839.75C840.302 224.75 840.75 224.302 840.75 223.75V203.75C840.75 203.198 841.198 202.75 841.75 202.75H848.75M932.75 263.75V202.75M932.75 202.75V175.75M932.75 202.75H848.75M932.75 175.75H899.75M932.75 175.75H938.25M885.75 175.75H849.75C849.198 175.75 848.75 176.198 848.75 176.75V202.75M951.25 175.75H1021.75M1021.75 175.75H1026.25M1021.75 175.75V246.75M1147.75 182.75L1138.51 175.945C1138.34 175.818 1138.13 175.75 1137.92 175.75H1119.75M1039.75 175.75H1119.75M1119.75 175.75V167.75M1064.75 119.75V131.25C1064.75 131.802 1065.2 132.25 1065.75 132.25H1068.75M1064.75 119.75H1090M1064.75 119.75V96.25M1119.75 146.25V132.25M1119.75 132.25V120.75C1119.75 120.198 1119.3 119.75 1118.75 119.75H1090M1119.75 132.25H1109.25M1084.25 132.25H1090M1090 132.25H1095.75M1090 132.25V119.75M1064.75 96.25V1.75M1064.75 96.25H1054.75M935.75 96.25H947.75M963.25 96.25H961.25M963.25 96.25V108.25M963.25 96.25H979.75M930.75 137.25H934.75C935.302 137.25 935.75 136.802 935.75 136.25V125.25M936.75 137.25H947.75M960.25 137.25H963.25M963.25 137.25H973.25M963.25 137.25V108.25M963.25 137.25V138.25M988.25 137.25H994.75M994.75 137.25H1020.25M994.75 137.25V108.25M994.75 108.25V96.25M994.75 108.25H979.75M994.75 108.25H1010.25M994.75 96.25H1010.25M994.75 96.25H979.75M963.25 108.25H979.75M1030.75 96.25H1019.75M1019.75 96.25V108.25M1019.75 96.25H1010.25M1019.75 96.25V87.25M1019.75 108.25H1010.25M1019.75 108.25V125.25C1019.75 125.802 1019.3 126.25 1018.75 126.25H1011.25C1010.7 126.25 1010.25 125.802 1010.25 125.25V108.25M1010.25 96.25V108.25M979.75 96.25V108.25M1019.75 21.25V1.75M983.25 1.75V56.25M983.25 56.25V95.25M983.25 56.25H1020.25M1020.25 66.25V56.25M1020.25 56.25V44.25M932.75 95.25V1.75" stroke="#BFC4C8" stroke-width="2" stroke-linecap="round" stroke-linejoin="round"/>
</g>
<text id="title" transform="translate(1031.1 79.2808) rotate(-90.75)" fill="#172736" style="white-space: pre" xml:space="preserve" font-family="CoFo Weather 20240219" font-size="12" font-weight="500" letter-spacing="0em"><tspan x="0.304688" y="10.14">&#x41b;&#x438;&#x444;&#x442;&#x43e;&#x432;&#x43e;&#x439; &#10;</tspan><tspan x="12.6504" y="22.14">&#x445;&#x43e;&#x43b;&#x43b; 2</tspan></text>
<text id="title_2" transform="translate(412.101 297.281) rotate(-90.75)" fill="#172736" style="white-space: pre" xml:space="preserve" font-family="CoFo Weather 20240219" font-size="12" font-weight="500" letter-spacing="0em"><tspan x="0.304688" y="10.14">&#x41b;&#x438;&#x444;&#x442;&#x43e;&#x432;&#x43e;&#x439; &#10;</tspan><tspan x="14.1152" y="22.14">&#x445;&#x43e;&#x43b;&#x43b; 1</tspan></text>
<g id="b3f10-1022">
<rect id="Rectangle 9" x="667.25" y="1.25" width="45" height="98" fill="#33D18F" fill-opacity="0.2" stroke="#33D18F" stroke-opacity="0.2" stroke-width="2.5" stroke-linejoin="round"/>
<text id="title_3" transform="translate(676.25 51.2822)" fill="#172736" style="white-space: pre" xml:space="preserve" font-family="CoFo Weather 20240219" font-size="4" font-weight="500" letter-spacing="0em"><tspan x="0" y="3.38">&#x41f;&#x435;&#x440;&#x435;&#x433;&#x43e;&#x432;&#x43e;&#x440;&#x43a;&#x430;</tspan></text>
<g id="Frame 23">
<rect x="683.979" y="42.25" width="14.375" height="7.25" rx="1.6875" fill="#33D18F" fill-opacity="0.2"/>
<text id="1022" transform="translate(685.666 43.375)" fill="#172736" style="white-space: pre" xml:space="preserve" font-family="CoFo Weather 20240219" font-size="4.5" font-weight="500" letter-spacing="0.02em"><tspan x="0.203623" y="4.0525">1022</tspan></text>
</g>
</g>
<g id="b3f10-1013">
<path id="Rectangle 11" d="M692.25 128.972H737.25V133.472H752.25V198.972H692.25V128.972Z" fill="#33D18F" fill-opacity="0.2" stroke="#33D18F" stroke-opacity="0.2" stroke-width="2.5" stroke-linejoin="round"/>
<text id="title_4" transform="translate(705.25 166.004)" fill="#172736" style="white-space: pre" xml:space="preserve" font-family="CoFo Weather 20240219" font-size="4" font-weight="500" letter-spacing="0em"><tspan x="0" y="3.38">&#x41f;&#x435;&#x440;&#x435;&#x433;&#x43e;&#x432;&#x43e;&#x440;&#x43a;&#x430;</tspan></text>
<g id="Frame 25">
<rect x="712.979" y="156.972" width="13.375" height="7.25" rx="1.6875" fill="#33D18F" fill-opacity="0.2"/>
<text id="1013" transform="translate(714.666 158.097)" fill="#172736" style="white-space: pre" xml:space="preserve" font-family="CoFo Weather 20240219" font-size="4.5" font-weight="500" letter-spacing="0.02em"><tspan x="0.239756" y="4.0525">1013</tspan></text>
</g>
</g>
<g id="b3f10-1015">
<path id="Rectangle 12" d="M812.25 128.972H756.75V133.472H752.25V198.972H812.25V128.972Z" fill="#33D18F" fill-opacity="0.2" stroke="#33D18F" stroke-opacity="0.2" stroke-width="2.5" stroke-linejoin="round"/>
<text id="title_5" transform="translate(765.25 166.004)" fill="#172736" style="white-space: pre" xml:space="preserve" font-family="CoFo Weather 20240219" font-size="4" font-weight="500" letter-spacing="0em"><tspan x="0" y="3.38">&#x41f;&#x435;&#x440;&#x435;&#x433;&#x43e;&#x432;&#x43e;&#x440;&#x43a;&#x430;</tspan></text>
<g id="Frame 26">
<rect x="772.979" y="156.972" width="13.375" height="7.25" rx="1.6875" fill="#33D18F" fill-opacity="0.2"/>
<text id="1015" transform="translate(774.666 158.097)" fill="#172736" style="white-space: pre" xml:space="preserve" font-family="CoFo Weather 20240219" font-size="4.5" font-weight="500" letter-spacing="0.02em"><tspan x="0.239756" y="4.0525">1015</tspan></text>
</g>
</g>
<g id="b3f10-1024">
<rect id="Rectangle 10" x="712.25" y="1.25" width="44" height="98" fill="#33D18F" fill-opacity="0.2" stroke="#33D18F" stroke-opacity="0.2" stroke-width="2.5" stroke-linejoin="round"/>
<text id="title_6" transform="translate(720.25 51.2822)" fill="#172736" style="white-space: pre" xml:space="preserve" font-family="CoFo Weather 20240219" font-size="4" font-weight="500" letter-spacing="0em"><tspan x="0" y="3.38">&#x41f;&#x435;&#x440;&#x435;&#x433;&#x43e;&#x432;&#x43e;&#x440;&#x43a;&#x430;</tspan></text>
<g id="Frame 24">
<rect x="727.979" y="42.25" width="14.375" height="7.25" rx="1.6875" fill="#33D18F" fill-opacity="0.2"/>
<text id="1024" transform="translate(729.666 43.375)" fill="#172736" style="white-space: pre" xml:space="preserve" font-family="CoFo Weather 20240219" font-size="4.5" font-weight="500" letter-spacing="0.02em"><tspan x="0.172861" y="4.0525">1024</tspan></text>
</g>
</g>
<g id="b3f10-k">
<path id="Vector 34" d="M993.75 124.472H998.25V110.972H968.75V94.9722H904.25V136.972H993.75V124.472Z" fill="#FFEDD6" stroke="#FFCF94" stroke-width="2.5" stroke-linecap="round" stroke-linejoin="round"/>
<text id="title_7" fill="#172736" style="white-space: pre" xml:space="preserve" font-family="CoFo Weather 20240219" font-size="5.62502" font-weight="500" letter-spacing="0em"><tspan x="932.309" y="121.923">&#x41c;&#x438;&#x43d;&#x438;-&#x43a;&#x443;&#x445;&#x43d;&#x44f;</tspan></text>
<g id="Frame 10">
<rect x="942.691" y="108.972" width="10" height="6" rx="1.5" fill="#FFCF94"/>
<rect x="942.691" y="108.972" width="10" height="6" rx="1.5" stroke="#FFA436" stroke-opacity="0.2" stroke-width="0.5"/>
<text id="10c" fill="#172736" style="white-space: pre" xml:space="preserve" font-family="CoFo Weather 20240219" font-size="4" font-weight="500" letter-spacing="0.02em"><tspan x="944.365" y="113.352">10c</tspan></text>
</g>
</g>
<g id="b3f10-1007">
<path id="Vector 30" d="M66.25 184.25H30.25V198.25H11.75L1.25 354.75H52.75L105.75 353.75V343.25C105.75 337.65 101.75 329.583 99.75 326.25C104.083 324.583 114.65 319.35 122.25 311.75C129.85 304.15 131.75 289.25 131.75 282.75V207.25H123.75V184.25H66.25Z" fill="#33D18F" fill-opacity="0.2" stroke="#33D18F" stroke-opacity="0.2" stroke-width="2.5" stroke-linecap="round" stroke-linejoin="round"/>
<g id="Frame 20">
<rect x="59.9785" y="262.25" width="14.375" height="7.25" rx="1.6875" fill="#33D18F" fill-opacity="0.2"/>
<text id="1007" transform="translate(61.666 263.375)" fill="#172736" style="white-space: pre" xml:space="preserve" font-family="CoFo Weather 20240219" font-size="4.5" font-weight="500" letter-spacing="0.02em"><tspan x="0.183847" y="4.0525">1007</tspan></text>
</g>
<text id="title_8" transform="translate(34.25 271.25)" fill="#172736" style="white-space: pre" xml:space="preserve" font-family="CoFo Weather 20240219" font-size="5.62502" font-weight="500" letter-spacing="0em"><tspan x="0.422426" y="4.94063">&#x41a;&#x43e;&#x432;&#x43e;&#x440;&#x43a;&#x438;&#x43d;&#x433; &#x43c;&#x430;&#x440;&#x43a;&#x435;&#x442;&#x438;&#x43d;&#x433;&#x430;</tspan></text>
</g>
</g>
</svg>
