<svg width="1130" height="320" viewBox="0 0 1130 320" fill="none" xmlns="http://www.w3.org/2000/svg">
<g id="b3f2">
<g id="area">
<path d="M1076 88.5V2C1076 1.44772 1075.55 1 1075 1H2C1.44772 1 1 1.44772 1 2.00001V317.5C1 318.052 1.44771 318.5 2 318.5H449.5C450.052 318.5 450.5 318.052 450.5 317.5V296H915.5C916.052 296 916.5 295.552 916.5 295V272C916.5 271.448 916.948 271 917.5 271H996C996.552 271 997 270.552 997 270V245C997 244.448 997.448 244 998 244H1102C1102.55 244 1103 243.552 1103 243V179.5C1103 178.948 1103.45 178.5 1104 178.5H1127C1127.55 178.5 1128 178.052 1128 177.5V122.5C1128 121.948 1127.55 121.5 1127 121.5H1103V89.5C1103 88.9477 1102.55 88.5 1102 88.5H1076Z" fill="white"/>
<path d="M476 41V72C476 72.5523 475.552 73 475 73H442V41H476Z" fill="white"/>
<path d="M937 99.5H951.5H967H977V110.5V132.5H938C937.448 132.5 937 132.052 937 131.5V110.5V99.5Z" fill="white"/>
<path d="M889.5 61H940V21H889.5V61Z" fill="white"/>
<path d="M418.5 303C417.948 303 417.5 302.552 417.5 302V280H430V303H418.5Z" fill="white"/>
<path d="M495 237V198.5H483V249.5H495V237Z" fill="white"/>
<path d="M1076 88.5V2C1076 1.44772 1075.55 1 1075 1H2C1.44772 1 1 1.44772 1 2.00001V317.5C1 318.052 1.44771 318.5 2 318.5H449.5C450.052 318.5 450.5 318.052 450.5 317.5V296M1076 88.5V95.5M1076 88.5H1102C1102.55 88.5 1103 88.9477 1103 89.5V121.5M1103 121.5H1127C1127.55 121.5 1128 121.948 1128 122.5V177.5C1128 178.052 1127.55 178.5 1127 178.5H1104C1103.45 178.5 1103 178.948 1103 179.5V243C1103 243.552 1102.55 244 1102 244H998C997.448 244 997 244.448 997 245V270C997 270.552 996.552 271 996 271H917.5C916.948 271 916.5 271.448 916.5 272V295C916.5 295.552 916.052 296 915.5 296H450.5M1103 121.5H1075.5M450.5 296V280M50.5 318.5V198M50.5 198V190.5M50.5 198H69.5M50.5 198H45M69.5 190.5V198M69.5 198H75M26.5 198H1.5M1.5 140.5H50.5M64 140.5H67.5C68.0523 140.5 68.5 140.052 68.5 139.5V130.5C68.5 129.948 68.9477 129.5 69.5 129.5H91C91.5523 129.5 92 129.948 92 130.5V149.5M92 174.5V198M92 198V318.5M92 198H88M92 104V1M180 1V20.5M271.5 1V75.5M271.5 89.5V103.5M271.5 103.5V123M271.5 103.5H280.5M294 103.5H314.5C315.052 103.5 315.5 103.052 315.5 102.5V89.5M315.5 75.5V73M315.5 73V1M315.5 73H328M476 41V72C476 72.5523 475.552 73 475 73H442M476 41H481.5M476 41H442M442 41V1M442 41V73M355 1V37M355 37V42M355 37H371M341 73H355M355 73V53.5M355 73H371M371 37V73M371 37H399M371 73H379M399 37H414.5C415.052 37 415.5 37.4477 415.5 38V42M399 37V73M391 73H399M399 73H415.5M415.5 73H417.5M415.5 73V53M429.5 73H442M493.5 41H505M505 41V19C505 18.4477 505.448 18 506 18H533.5M505 41V51.5M607.5 73V36.5C607.5 35.9477 607.052 35.5 606.5 35.5H578.5M626 1V71.5C626 72.0523 626.448 72.5 627 72.5H658M674 1V72.5M716.5 1V72.5M716.5 72.5H734M716.5 72.5H689M761 1V71.5C761 72.0523 760.552 72.5 760 72.5H747.5M590 72.5H578.5M578.5 72.5H551.5M578.5 72.5V35.5M538.5 73H534.5C533.948 73 533.5 72.5523 533.5 72V18M977 1V24.5M977 89.5V99.5M977 99.5H967M977 99.5V110.5M977 99.5H988M905 99.5H889.5M889.5 99.5H800C799.448 99.5 799 99.0523 799 98.5V94C799 93.4477 798.552 93 798 93H531.5C530.948 93 530.5 93.4477 530.5 94V164M889.5 99.5V61M921 99.5H919M921 99.5V110.5M921 99.5H937M937 99.5H951.5M937 99.5V110.5M1024.5 121.5V131.5C1024.5 132.052 1024.05 132.5 1023.5 132.5H977M1024.5 121.5V99.5M1024.5 121.5H1075.5M951.5 99.5V110M951.5 99.5H967M967 99.5V110M977 132.5H938C937.448 132.5 937 132.052 937 131.5V110.5M977 132.5V110.5M977 110.5H937M1011 99.5H1024.5M1024.5 99.5V1M977 45.5V61M977 61V69M977 61H940M889.5 61H940M889.5 61V21M940 61V21M940 61V95.5M940 1V21M940 21H889.5M889.5 1V21M799 21V1M578.5 1V35.5M533.5 1V18M271.5 149V176.5M271.5 176.5V204.5M271.5 176.5H315.5M355 188V176.5M355 176.5V172.5M355 176.5H315.5M355 92H333M355 92H362C362.552 92 363 92.4477 363 93V97M355 92V131.5M271.5 204.5V318.5M271.5 204.5H324.5M359 204.5H369.5M359 204.5V216M359 204.5H324.5M359 269V278M359 278V283M359 278H324.5M324.5 278V290.5M324.5 278V241M324.5 204.5V241M324.5 241H359M359 231.5V241M359 241V254.5M315.5 176.5V204M514 93H443C442.448 93 442 93.4477 442 94V96C442 96.5523 441.552 97 441 97H379M355 149V147M355 147H379M355 147V131.5M483 164V148C483 147.448 482.552 147 482 147H446.5M483 164H530.5M483 164H480.5M530.5 164V196.5C530.5 197.052 530.948 197.5 531.5 197.5H538C538.552 197.5 539 197.948 539 198.5V237M467 164H446.5M446.5 164V147M446.5 164V167.5M446.5 147H379M379 97H376.5M379 97V131.5M379 147V131.5M379 131.5H369.5M355 131.5H358M400.5 204.5H410M410 204.5H450.5M410 204.5V216.5M450.5 204.5V241M450.5 204.5V199.5C450.5 198.948 450.948 198.5 451.5 198.5H457.5M410 231.5V241M410 241V254M410 241H450.5M450.5 241V249.5M410 269V279C410 279.552 410.448 280 411 280H417.5M450.5 280H430M450.5 280V249.5M417.5 280V302C417.5 302.552 417.948 303 418.5 303H430M417.5 280H430M430 303V280M430 303V308C430 308.552 430.448 309 431 309H450.5M359 306V318M495 198.5H511.5M495 198.5V237M495 198.5H483M495 237H522.5M495 237V249.5M539 237V296M539 237H533.5M471 198.5H483M483 198.5V249.5M483 249.5H495M483 249.5H468M495 249.5V296M450.5 249.5H457.5M997.5 244.5V216C997.5 215.448 997.948 215 998.5 215H1074.5C1075.05 215 1075.5 214.552 1075.5 214V167.5M1075.5 121.5V139M1075.5 144.5V139M1075.5 139H1066M1051.5 139H1047.5C1046.95 139 1046.5 138.552 1046.5 138V130.75M1046.5 130.75V122.5M1046.5 130.75H1039.5" stroke="#BFC4C8" stroke-width="2" stroke-linecap="round" stroke-linejoin="round"/>
</g>
<text id="title" transform="translate(986.851 87.0308) rotate(-90.75)" fill="#172736" xml:space="preserve" style="white-space: pre" font-family="CoFo Weather 20240219" font-size="12" font-weight="500" letter-spacing="0em"><tspan x="0.304688" y="10.14">&#x41b;&#x438;&#x444;&#x442;&#x43e;&#x432;&#x43e;&#x439; &#10;</tspan><tspan x="12.6504" y="22.14">&#x445;&#x43e;&#x43b;&#x43b; 2</tspan></text>
<g id="b3f2-203">
<path id="Vector 18" d="M272.5 1.5V318.5H93V129V1.5H272.5Z" fill="#33D18F" fill-opacity="0.2" stroke="#33D18F" stroke-opacity="0.2" stroke-width="2.5" stroke-linecap="round" stroke-linejoin="round"/>
<text id="title_2" transform="translate(139.5 137.456)" fill="#172736" xml:space="preserve" style="white-space: pre" font-family="CoFo Weather 20240219" font-size="10" font-weight="500" letter-spacing="0em"><tspan x="0.228371" y="8.45001">&#x41a;&#x43e;&#x43d;&#x444;&#x435;&#x440;&#x435;&#x43d;&#x446;-&#x437;&#x430;&#x43b;</tspan></text>
<g id="n">
<rect x="169.088" y="121.5" width="22" height="12" rx="3" fill="#33D18F" fill-opacity="0.2"/>
<text id="203" fill="#172736" xml:space="preserve" style="white-space: pre" font-family="CoFo Weather 20240219" font-size="8" font-weight="500" letter-spacing="0.02em"><tspan x="172.315" y="130.26">203</tspan></text>
</g>
</g>
<g id="b2f2-atm">
<g id="n_2">
<rect x="314" y="99.7222" width="40" height="38" fill="#475DEB" fill-opacity="0.2"/>
<rect x="314" y="99.7222" width="40" height="38" stroke="#475DEB" stroke-opacity="0.2" stroke-width="2.5"/>
<text id="&#208;&#145;&#208;&#176;&#208;&#189;&#208;&#186;&#208;&#190;&#208;&#188;&#208;&#176;&#209;&#130;" fill="#172736" xml:space="preserve" style="white-space: pre" font-family="CoFo Weather 20240219" font-size="6" font-weight="500" letter-spacing="0em"><tspan x="319.589" y="120.792">&#x411;&#x430;&#x43d;&#x43a;&#x43e;&#x43c;&#x430;&#x442;</tspan></text>
</g>
</g>
<g id="b3f2-201">
<path id="Vector 26" d="M1.5 140V1.5H93V129H68.5V140H1.5Z" fill="#33D18F" fill-opacity="0.2" stroke="#33D18F" stroke-opacity="0.2" stroke-width="2.5" stroke-linecap="round" stroke-linejoin="round"/>
<text id="title_3" transform="translate(11 71.6782)" fill="#172736" xml:space="preserve" style="white-space: pre" font-family="CoFo Weather 20240219" font-size="10" font-weight="500" letter-spacing="0em"><tspan x="0.385601" y="8.45001">&#x423;&#x447;&#x435;&#x431;&#x43d;&#x44b;&#x439; &#x43a;&#x43b;&#x430;&#x441;&#x441;</tspan></text>
<g id="n_3">
<rect x="39.5879" y="55.7222" width="20" height="12" rx="3" fill="#33D18F" fill-opacity="0.2"/>
<text id="201" fill="#172736" xml:space="preserve" style="white-space: pre" font-family="CoFo Weather 20240219" font-size="8" font-weight="500" letter-spacing="0.02em"><tspan x="42.756" y="64.4822">201</tspan></text>
</g>
</g>
<path id="Vector 24" d="M998 242V213H1075.5V165" stroke="#C5C9CD" stroke-width="2.5" stroke-linecap="round"/>
<path id="Vector 25" d="M1039 131.5H1046.5M1046.5 124V140H1052M1065.5 140H1075.5M1075.5 146.5V124" stroke="#C5C9CD" stroke-width="2.5" stroke-linecap="round" stroke-linejoin="round"/>
<g id="b3f2-stolovaya">
<path id="Vector 17" d="M539.5 197V296H917V271H997.5V244H1103.5V178.5H1128V121.5H1024V132H936.5V111.5H920.5V100.5H798.5V93H530.5V197H539.5Z" fill="#FFEDD6" stroke="#FFCF94" stroke-width="2.5" stroke-linecap="round" stroke-linejoin="round"/>
<text id="title_4" fill="#172736" xml:space="preserve" style="white-space: pre" font-family="CoFo Weather 20240219" font-size="15.0001" font-weight="500" letter-spacing="0em"><tspan x="732.668" y="176.195">&#x421;&#x442;&#x43e;&#x43b;&#x43e;&#x432;&#x430;&#x44f;</tspan></text>
</g>
<text id="title_5" transform="translate(373.851 294.031) rotate(-90.75)" fill="#172736" xml:space="preserve" style="white-space: pre" font-family="CoFo Weather 20240219" font-size="12" font-weight="500" letter-spacing="0em"><tspan x="0.304688" y="10.14">&#x41b;&#x438;&#x444;&#x442;&#x43e;&#x432;&#x43e;&#x439; &#10;</tspan><tspan x="14.1152" y="22.14">&#x445;&#x43e;&#x43b;&#x43b; 1</tspan></text>
<path id="Rectangle 9" d="M1076 121.722H1128V178.722H1102V242.722H997V214.722H1038H1076V121.722Z" fill="#3394D1" fill-opacity="0.2" stroke="#338FD1" stroke-opacity="0.2" stroke-width="2.5" stroke-linejoin="round"/>
<path id="Rectangle 10" d="M886 167.722H1075V214.722H997V272.722H917V293.722H876V244.722V167.722H886Z" fill="#FFDBD6" stroke="#94817E" stroke-opacity="0.2" stroke-width="2.5" stroke-linejoin="round"/>
<text id="title_6" transform="matrix(0 -1 1 0 888 270.722)" fill="#172736" xml:space="preserve" style="white-space: pre" font-family="CoFo Weather 20240219" font-size="13" font-weight="500" letter-spacing="0em"><tspan x="0.419434" y="10.985">&#x41c;&#x44f;&#x433;&#x43a;&#x430;&#x44f; &#x437;&#x43e;&#x43d;&#x430; &#10;</tspan><tspan x="10.5376" y="23.985">&#x441;&#x442;&#x43e;&#x43b;&#x43e;&#x432;&#x43e;&#x439;</tspan></text>
<text id="title_7" fill="#172736" xml:space="preserve" style="white-space: pre" font-family="CoFo Weather 20240219" font-size="13" font-weight="500" letter-spacing="0em"><tspan x="1031.56" y="226.707">&#x41b;&#x435;&#x442;&#x43d;&#x44f;&#x44f; &#10;</tspan><tspan x="1029.05" y="239.707">&#x432;&#x435;&#x440;&#x430;&#x43d;&#x434;&#x430;</tspan></text>
</g>
</svg>
