<svg width="1103" height="330" viewBox="0 0 1103 330" fill="none" xmlns="http://www.w3.org/2000/svg">
<g id="b3f3">
<g id="area">
<path d="M1025.92 2C1025.92 1.44772 1025.48 1 1024.92 1H30.4233C29.8711 1 29.4233 1.44772 29.4233 2V184H12.3533C11.8291 184 11.3939 184.405 11.3559 184.928L1.00281 327.406C0.960156 327.993 1.43123 328.49 2.01971 328.479L281.443 323.019C281.987 323.009 282.423 322.564 282.423 322.019V317.5C282.423 316.948 282.871 316.5 283.423 316.5H360.923C399.723 316.5 597.757 289.833 691.923 276.5H791.423C791.976 276.5 792.423 276.052 792.423 275.5V259.8C792.423 259.332 792.748 258.927 793.204 258.824L1100.64 189.676C1101.1 189.573 1101.42 189.168 1101.42 188.7V85C1101.42 84.4477 1100.98 84 1100.42 84H1026.92C1026.37 84 1025.92 83.5523 1025.92 83V2Z" fill="white"/>
<path d="M911.923 92H935.923V101.5H911.923H883.423V92H901.923H911.923Z" fill="white"/>
<path d="M441.923 285.5H428.423C427.871 285.5 427.423 285.052 427.423 284.5V280H414.923V260H427.423H441.923V285.5Z" fill="white"/>
<path d="M327.423 268V257H339.923V267C339.923 267.552 339.476 268 338.923 268H327.423Z" fill="white"/>
<path d="M477.423 193.5H487.423V231H477.423V193.5Z" fill="white"/>
<path d="M777.423 162.5V173.5H789.423C789.976 173.5 790.423 173.052 790.423 172.5V162.5H777.423Z" fill="white"/>
<path d="M29.4233 184H12.3533C11.8291 184 11.3939 184.405 11.3559 184.928L1.00281 327.406C0.960156 327.993 1.43123 328.49 2.01971 328.479L281.443 323.019C281.987 323.009 282.423 322.564 282.423 322.019V317.5C282.423 316.948 282.871 316.5 283.423 316.5H360.923C399.723 316.5 597.757 289.833 691.923 276.5H791.423C791.976 276.5 792.423 276.052 792.423 275.5V259.8C792.423 259.332 792.748 258.927 793.204 258.824L1100.64 189.676C1101.1 189.573 1101.42 189.168 1101.42 188.7V85C1101.42 84.4477 1100.98 84 1100.42 84H1026.92C1026.37 84 1025.92 83.5523 1025.92 83V2C1025.92 1.44772 1025.48 1 1024.92 1H30.4233C29.8711 1 29.4233 1.44772 29.4233 2V184ZM29.4233 184V191C29.4233 191.552 29.8711 192 30.4233 192H71.9233C72.4756 192 72.9233 191.552 72.9233 191V171M1026.92 157V206.5M1026.92 88V84.5M1026.92 134.5V122M1026.92 122V110.5C1026.92 109.948 1026.48 109.5 1025.92 109.5H975.423M1026.92 122H1016.42M1003.42 122H993.423M979.923 122H975.423M975.423 122V123M975.423 122V109.5M975.423 109.5V1.5M935.423 129.5H906.923M891.923 129.5H879.423M467.923 116V128.5C467.923 129.052 468.371 129.5 468.923 129.5H522.923M467.923 101.5V87C467.923 86.4477 468.371 86 468.923 86H480.923C481.476 86 481.923 85.5523 481.923 85V83M481.923 69.5V66C481.923 65.4477 481.476 65 480.923 65H467.923M454.423 65H446.923C446.371 65 445.923 65.4477 445.923 66V70.5M445.923 84.5V88C445.923 88.5523 445.476 89 444.923 89H365.923M537.423 129.5H522.923M522.923 129.5V84M522.923 1V84M522.923 84H567.923M567.923 84V129.5M567.923 84V47M615.423 129.5H567.923M567.923 129.5H550.423M567.923 34V1M608.423 1.5V18.5M696.423 129.5H693.423M693.423 129.5H629.923M693.423 129.5V1.5M757.923 129.5H741.423M741.423 129.5H710.423M741.423 129.5V87.5C741.423 86.9477 741.871 86.5 742.423 86.5H774.423C774.976 86.5 775.423 86.9477 775.423 87.5V92.5C775.423 93.0523 775.871 93.5 776.423 93.5H829.923C830.476 93.5 830.923 93.9477 830.923 94.5V102.5C830.923 103.052 831.371 103.5 831.923 103.5H857.923M857.923 103.5V129.5M857.923 103.5V92.5M866.423 129.5H857.923M857.923 129.5H770.423M857.923 92.5V1M857.923 92.5H830.923M858.423 92H868.423M881.423 92H883.423M883.423 92V101.5M883.423 92H901.923M911.923 92H935.923M911.923 92V101.5M911.923 92H901.923M935.923 92V101.5M935.923 92V81.5M911.923 129.5V101.5M911.923 101.5H883.423M911.923 101.5H935.923M883.423 129.5V101.5M935.923 101.5V117M935.923 21.5V1.5M901.923 92V53.5M901.923 1.5V53.5M901.923 53.5H935.923M935.923 63V53.5M935.923 53.5V41M999.923 109.5V122M770.923 1V17.5M6.42334 254.5H72.9233M72.9233 142V129M72.9233 129H29.4233M72.9233 129H75.4233M293.923 129H364.423C364.976 129 365.423 128.552 365.423 128V1M272.423 129H275.423M275.423 129H280.423M275.423 129V1M163.423 129H199.423M199.423 129H260.423M199.423 129V1M134.923 129H138.173M138.173 129H141.423M138.173 129V122.5C138.173 121.948 137.726 121.5 137.173 121.5H115.673M115.673 121.5H115.423M115.673 121.5V129M115.673 121.5V1M87.9233 129H92.4233M92.4233 129H96.9233M92.4233 129V120.5C92.4233 119.948 92.8711 119.5 93.4233 119.5H115.423M109.423 129H115.673M115.673 129H121.923M96.9233 163.5H93.4233C92.8711 163.5 92.4233 163.948 92.4233 164.5V171M92.4233 171V238M92.4233 171H87.9233M92.4233 171H113.923M85.9233 254.5H92.4233M92.4233 254.5V250.5M92.4233 254.5V258.5M92.4233 271.5V326.5M199.423 163.5V324M199.423 163.5H195.423M199.423 163.5H202.923M335.423 163.5H354.923M365.423 163.5H366.923C367.476 163.5 367.923 163.948 367.923 164.5V186.5M367.923 186.5H360.923M367.923 186.5H379.923M215.423 163.5H282.423M282.423 163.5H325.923M282.423 163.5V186.5M282.423 317V186.5M282.423 186.5H327.423M360.923 186.5V200M360.923 186.5H327.423M327.423 186.5V223M360.923 249V257M360.923 257V263M360.923 257H339.923M360.923 214V223M360.923 223V236M360.923 223H327.423M327.423 223V257M327.423 257V268M327.423 257H339.923M390.923 186.5H441.923M441.923 186.5V183M441.923 186.5V193.5M402.423 313.5V301.5M402.423 288.5V281C402.423 280.448 402.871 280 403.423 280H414.923M441.923 285.5V308.5M441.923 285.5H428.423C427.871 285.5 427.423 285.052 427.423 284.5V280M441.923 285.5V260M427.423 280V260M427.423 280H414.923M427.423 260H414.923M427.423 260H441.923M414.923 280V260M414.923 260H408.923C408.371 260 407.923 259.552 407.923 259V249M441.923 260V231M407.923 236V223M407.923 223V214M407.923 223H441.923M441.923 223V193.5M441.923 223V231M407.923 200V187.5M342.923 295.5H360.923M360.923 295.5V285.5M360.923 295.5V317M327.423 268V279M327.423 268H338.923C339.476 268 339.923 267.552 339.923 267V257M72.9233 171V155M72.9233 171H76.4233M113.923 171V163.5M113.923 171V192M109.423 163.5H113.923M113.923 163.5H182.423M441.923 171V163.5C441.923 162.948 442.371 162.5 442.923 162.5H477.423M525.923 162.5H538.923M525.923 162.5H477.423M525.923 162.5V193.5M484.423 304.5V285.5C484.423 284.948 484.871 284.5 485.423 284.5H486.423C486.976 284.5 487.423 284.052 487.423 283.5V231M526.423 193.5H525.923M525.923 193.5H518.423M525.923 193.5V237M507.923 193.5H487.423M487.423 193.5H477.423M487.423 193.5V231M487.423 193.5V193M477.423 193.5H463.423M477.423 193.5V189.5M477.423 193.5V231M441.923 193.5H452.923M477.423 162.5V180M477.423 231H487.423M477.423 231H461.923M441.923 231H452.923M525.923 237V298.5M525.923 237H567.923M567.923 237V162.5M567.923 237V269M567.923 157V162.5M567.923 162.5H551.423M567.923 162.5H617.423M567.923 282.5V292.5M952.923 162.5H1025.92M873.923 162.5H935.423M935.423 162.5H940.923M935.423 162.5V228.5M825.923 162.5H854.923M854.923 162.5H859.923M854.923 162.5V188M854.923 188V245.5M854.923 188H778.423C777.871 188 777.423 187.552 777.423 187V173.5M710.423 162.5H777.423M777.423 162.5V173.5M777.423 162.5H790.423M777.423 173.5H789.423C789.976 173.5 790.423 173.052 790.423 172.5V162.5M790.423 162.5H812.923M629.423 162.5H692.923M692.923 162.5H697.923M692.923 162.5V276" stroke="#BFC4C8" stroke-width="2" stroke-linecap="round" stroke-linejoin="round"/>
</g>
<text id="title" transform="translate(943.774 82.5308) rotate(-90.75)" fill="#172736" xml:space="preserve" style="white-space: pre" font-family="CoFo Weather 20240219" font-size="12" font-weight="500" letter-spacing="0em"><tspan x="0.304688" y="10.14">&#x41b;&#x438;&#x444;&#x442;&#x43e;&#x432;&#x43e;&#x439; &#10;</tspan><tspan x="12.6504" y="22.14">&#x445;&#x43e;&#x43b;&#x43b; 2</tspan></text>
<text id="title_2" transform="translate(375.774 283.531) rotate(-90.75)" fill="#172736" xml:space="preserve" style="white-space: pre" font-family="CoFo Weather 20240219" font-size="12" font-weight="500" letter-spacing="0em"><tspan x="0.304688" y="10.14">&#x41b;&#x438;&#x444;&#x442;&#x43e;&#x432;&#x43e;&#x439; &#10;</tspan><tspan x="14.1152" y="22.14">&#x445;&#x43e;&#x43b;&#x43b; 1</tspan></text>
<g id="b3f3-paper">
<text id="title_3" transform="translate(397.923 97.2383) rotate(-0.844763)" fill="#172736" xml:space="preserve" style="white-space: pre" font-family="CoFo Weather 20240219" font-size="8" font-weight="500" letter-spacing="0em"><tspan x="0" y="6.76">&#x423;&#x442;&#x438;&#x43b;&#x438;&#x437;&#x430;&#x446;&#x438;&#x44f; </tspan><tspan x="0" y="14.76">&#x431;&#x443;&#x43c;&#x430;&#x433;&#x438;</tspan></text>
<path id="Ellipse 40" d="M393.923 101.722C393.923 104.207 391.909 106.222 389.423 106.222C386.938 106.222 384.923 104.207 384.923 101.722C384.923 99.2369 386.938 97.2222 389.423 97.2222C391.909 97.2222 393.923 99.2369 393.923 101.722Z" fill="#73E553"/>
</g>
<g id="b3f3-311">
<rect id="Rectangle 8" x="364.923" y="1.5" width="36" height="86" fill="#33D18F" fill-opacity="0.2" stroke="#33D18F" stroke-opacity="0.2" stroke-width="2.5" stroke-linejoin="round"/>
<text id="title_4" transform="translate(368.923 47.5322)" fill="#172736" xml:space="preserve" style="white-space: pre" font-family="CoFo Weather 20240219" font-size="4" font-weight="500" letter-spacing="0em"><tspan x="0" y="3.38">&#x41f;&#x435;&#x440;&#x435;&#x433;&#x43e;&#x432;&#x43e;&#x440;&#x43a;&#x430;</tspan></text>
<g id="Frame 16">
<rect x="376.652" y="38.5" width="10.375" height="7.25" rx="1.6875" fill="#33D18F" fill-opacity="0.2"/>
<text id="311" transform="translate(378.339 39.625)" fill="#172736" xml:space="preserve" style="white-space: pre" font-family="CoFo Weather 20240219" font-size="4.5" font-weight="500" letter-spacing="0.02em"><tspan x="0.318447" y="4.0525">311</tspan></text>
</g>
</g>
<g id="b3f3-315">
<rect id="Rectangle 6" x="444.923" y="1.5" width="38" height="62" fill="#33D18F" fill-opacity="0.2" stroke="#33D18F" stroke-opacity="0.2" stroke-width="2.5" stroke-linejoin="round"/>
<text id="title_5" transform="translate(449.923 47.5322)" fill="#172736" xml:space="preserve" style="white-space: pre" font-family="CoFo Weather 20240219" font-size="4" font-weight="500" letter-spacing="0em"><tspan x="0" y="3.38">&#x41f;&#x435;&#x440;&#x435;&#x433;&#x43e;&#x432;&#x43e;&#x440;&#x43a;&#x430;</tspan></text>
<g id="Frame 18">
<rect x="457.652" y="38.5" width="11.375" height="7.25" rx="1.6875" fill="#33D18F" fill-opacity="0.2"/>
<text id="315" transform="translate(459.339 39.625)" fill="#172736" xml:space="preserve" style="white-space: pre" font-family="CoFo Weather 20240219" font-size="4.5" font-weight="500" letter-spacing="0.02em"><tspan x="0.255947" y="4.0525">315</tspan></text>
</g>
</g>
<g id="b3f3-317">
<rect id="Rectangle 5" x="482.923" y="1.5" width="40" height="86" fill="#33D18F" fill-opacity="0.2" stroke="#33D18F" stroke-opacity="0.2" stroke-width="2.5" stroke-linejoin="round"/>
<text id="title_6" transform="translate(488.923 47.5322)" fill="#172736" xml:space="preserve" style="white-space: pre" font-family="CoFo Weather 20240219" font-size="4" font-weight="500" letter-spacing="0em"><tspan x="0" y="3.38">&#x41f;&#x435;&#x440;&#x435;&#x433;&#x43e;&#x432;&#x43e;&#x440;&#x43a;&#x430;</tspan></text>
<g id="Frame 19">
<rect x="496.652" y="38.5" width="11.375" height="7.25" rx="1.6875" fill="#33D18F" fill-opacity="0.2"/>
<text id="317" transform="translate(498.339 39.625)" fill="#172736" xml:space="preserve" style="white-space: pre" font-family="CoFo Weather 20240219" font-size="4.5" font-weight="500" letter-spacing="0.02em"><tspan x="0.346035" y="4.0525">317</tspan></text>
</g>
</g>
<g id="b3f3-k">
<path id="Vector 20" d="M775.423 128H857.423V104H830.923V92.5H775.423V128Z" fill="#FFEDD6" stroke="#FFCF94" stroke-width="2.5" stroke-linecap="round" stroke-linejoin="round"/>
<text id="title_7" fill="#172736" xml:space="preserve" style="white-space: pre" font-family="CoFo Weather 20240219" font-size="5.62502" font-weight="500" letter-spacing="0em"><tspan x="800.982" y="116.45">&#x41c;&#x438;&#x43d;&#x438;-&#x43a;&#x443;&#x445;&#x43d;&#x44f;</tspan></text>
</g>
</g>
</svg>
