<svg width="962" height="299" viewBox="0 0 962 299" fill="none" xmlns="http://www.w3.org/2000/svg">
<g id="b3f4">
<g id="area">
<path d="M28.9287 1C28.3764 1 27.9287 1.44771 27.9287 2V164C27.9287 164.552 27.481 165 26.9287 165H10.8633C10.3372 165 9.90113 165.408 9.86561 165.932L1.00237 296.912C0.962766 297.497 1.43303 297.99 2.01948 297.979L181.429 294.5L255.462 292.032C256.001 292.014 256.429 291.572 256.429 291.033V288C256.429 287.448 256.876 287 257.429 287H328.429C380.762 281.167 492.729 268.8 521.929 266C551.098 263.203 607.975 254.186 632.85 250.013C632.904 250.004 632.957 250 633.012 250H722.929C723.481 250 723.929 249.552 723.929 249V235.301C723.929 234.833 724.253 234.427 724.71 234.325L959.647 181.675C960.104 181.573 960.429 181.167 960.429 180.699V73.5C960.429 72.9477 959.981 72.5 959.429 72.5H938.929C938.376 72.5 937.929 72.0523 937.929 71.5V2C937.929 1.44772 937.481 1 936.929 1H28.9287Z" fill="white"/>
<path d="M83.4287 146.5C82.8764 146.5 82.4287 146.948 82.4287 147.5V154.5H102.929C103.481 154.5 103.929 154.052 103.929 153.5V146.5H83.4287Z" fill="white"/>
<path d="M269.929 115.5C269.929 116.052 269.481 116.5 268.929 116.5H252.429V61H291.929H298.929V107.5V115H285.429C284.876 115 284.429 114.552 284.429 114V107.5H270.929C270.376 107.5 269.929 107.948 269.929 108.5V115.5Z" fill="white"/>
<path d="M390.929 259C390.376 259 389.929 258.552 389.929 258V253.5V233H402.929V259H390.929Z" fill="white"/>
<path d="M445.429 174H436.429V209H445.429V174Z" fill="white"/>
<path d="M853.929 77V90H845.929H831.429H820.429V77H825.929H831.429H845.929H853.929Z" fill="white"/>
<path d="M66.9287 128V116.5M66.9287 116.5H28.9287M66.9287 116.5H69.9287M100.429 116.5H113.929M126.929 116.5H137.929M66.9287 154.5V164C66.9287 164.552 66.481 165 65.9287 165H30.4287H28.9287M66.9287 154.5V139M66.9287 154.5H82.4287M82.4287 154.5V147.5C82.4287 146.948 82.8764 146.5 83.4287 146.5H103.929M82.4287 154.5H102.929C103.481 154.5 103.929 154.052 103.929 153.5V146.5M332.929 146.5H333.929C334.481 146.5 334.929 146.948 334.929 147.5V169.5M334.929 169.5H338.929M334.929 169.5H328.929M258.929 169.5H257.429C256.876 169.5 256.429 169.948 256.429 170.5V287.5M258.929 169.5V146.5M258.929 169.5H299.929M197.429 146.5H258.929M258.929 146.5H296.429M305.929 146.5H314.679M314.679 146.5H323.429M314.679 146.5V169.5M314.679 169.5H299.929M314.679 169.5H328.929M177.929 146.5H182.179M182.179 146.5H186.429M182.179 146.5V295M103.929 146.5H165.429M80.9287 116.5H84.6787M84.6787 116.5H88.4287M84.6787 116.5V107.5C84.6787 106.948 85.1264 106.5 85.6787 106.5H103.929M104.429 116V1.5M150.929 116.5H182.179M182.179 116.5H237.929M182.179 116.5V1.5M252.429 1.5V45.5M247.929 116.5H252.429M252.429 116.5H268.929C269.481 116.5 269.929 116.052 269.929 115.5V108.5C269.929 107.948 270.376 107.5 270.929 107.5H284.429M252.429 116.5V61M284.429 107.5V114C284.429 114.552 284.876 115 285.429 115H298.929M284.429 107.5H298.929M298.929 115V107.5M298.929 115H304.929M298.929 107.5V61M298.929 61H291.929M298.929 61H331.929C332.481 61 332.929 61.4477 332.929 62V114C332.929 114.552 332.481 115 331.929 115H315.929M252.429 59.5V61M252.429 61H291.929M291.929 61V1.5M332.929 45.5V41M332.929 41V1.5M332.929 41H336.429M347.429 41H353.929M353.929 41V61M353.929 41H366.429M353.929 76.5V79C353.929 79.5523 354.376 80 354.929 80H400.429M400.429 80V114C400.429 114.552 400.876 115 401.429 115H461.929M400.429 80V77.5C400.429 76.9477 400.876 76.5 401.429 76.5H405.929C406.481 76.5 406.929 76.0523 406.929 75.5V42C406.929 41.4477 406.481 41 405.929 41H366.429M473.929 115H490.929M502.929 115H518.929M518.929 115V121.5M518.929 115V71C518.929 70.4477 518.481 70 517.929 70H477.429M518.929 115H563.429M477.429 70V114M477.429 70V1M406.929 27.5V1.5M366.429 41V1.5M574.929 115H635.429C635.981 115 636.429 114.552 636.429 114V1M299.929 169.5V233M299.929 233V253.5M299.929 233H328.929M328.929 233V238.5M328.929 233V225.5M328.929 169.5V180.5M328.929 212V202M328.929 202V193.5M328.929 202H300.929M312.429 267.5H327.929C328.481 267.5 328.929 267.948 328.929 268.5V287.5M367.929 283V273M367.929 261V254.5C367.929 253.948 368.376 253.5 368.929 253.5H389.929M389.929 253.5V258C389.929 258.552 390.376 259 390.929 259H402.929M389.929 253.5V233M402.929 259V278.5M402.929 259V233M373.929 169.5H401.929C402.481 169.5 402.929 169.948 402.929 170.5V174M373.929 169.5H364.929M373.929 169.5V180.5M373.929 225.5V232C373.929 232.552 374.376 233 374.929 233H379.429M402.929 233V202.75M402.929 233H389.929M373.929 193.5V202.75M373.929 202.75V212M373.929 202.75H402.929M402.929 202.75V174M389.929 233H379.429M379.429 233V253M402.929 174H412.929M473.429 174H480.429M480.429 174V208.25M480.429 174V146.5M402.929 153V147.5C402.929 146.948 403.376 146.5 403.929 146.5H480.429M480.429 146.5H490.929M753.929 146.5H784.929M916.929 146.5H958.929M870.429 146.5H891.429M891.429 146.5H904.429M891.429 146.5V196.5M851.429 146.5H855.179M855.179 146.5H858.929M855.179 146.5V205.5M795.929 146.5H817.679M817.679 146.5H839.429M817.679 146.5V213.5M780.929 147.5V169M780.929 169V222M780.929 169H712.429C711.876 169 711.429 168.552 711.429 168V146.5M648.429 146.5H711.429M711.429 146.5H741.429M574.929 146.5H633.429M633.429 146.5H636.429M633.429 146.5V249.5M480.429 270V208.25M480.429 208.25H516.429C516.981 208.25 517.429 207.802 517.429 207.25V146.5M505.429 146.5H517.429M517.429 146.5H561.929M440.929 274.5V258.5C440.929 257.948 441.376 257.5 441.929 257.5H444.429C444.981 257.5 445.429 257.052 445.429 256.5V209M424.429 174H436.429M436.429 174H445.429M436.429 174V209M436.429 174V168M445.429 174H462.929M445.429 174V209M403.429 209H412.929M445.429 209H436.429M424.429 209H436.429M436.429 157.5V147.5M891.429 99.5V108.5C891.429 109.052 891.876 109.5 892.429 109.5H896.929M891.429 99.5V1M891.429 99.5H913.679M913.679 99.5H934.929C935.481 99.5 935.929 99.9477 935.929 100.5V121M913.679 99.5V109.5M906.929 109.5H913.679M913.679 109.5H918.929M927.929 109.5H935.929M845.929 115.5H852.929C853.481 115.5 853.929 115.052 853.929 114.5V90M766.929 115.5H708.429C707.876 115.5 707.429 115.052 707.429 114.5V77M707.429 77H677.929C677.376 77 676.929 77.4477 676.929 78V114.5M707.429 77H785.429M691.929 115.5H648.929M793.429 115.5H785.429M785.429 115.5H777.429M785.429 115.5V77M785.429 77V1M785.429 77H793.429M815.429 115.5H806.429M806.429 115.5H803.429M806.429 115.5V90M835.429 115.5H831.429M831.429 115.5H827.429M831.429 115.5V90M831.429 90V77M831.429 90H845.929M831.429 90H820.429M831.429 77H845.929M831.429 77H825.929M853.929 77V90M853.929 77H845.929M853.929 77V71.5M853.929 90H845.929M806.429 90V79M806.429 90H820.429M820.429 90V77M803.429 77H820.429M820.429 77H825.929M845.929 90V77M825.929 77V1M826.429 47.5H853.929M853.929 47.5V55M853.929 47.5V34.5M853.929 18V1M521.929 266C551.098 263.203 607.975 254.186 632.85 250.013C632.904 250.004 632.957 250 633.012 250H722.929C723.481 250 723.929 249.552 723.929 249V235.301C723.929 234.833 724.253 234.427 724.71 234.325L959.647 181.675C960.104 181.573 960.429 181.167 960.429 180.699V73.5C960.429 72.9477 959.981 72.5 959.429 72.5H938.929C938.376 72.5 937.929 72.0523 937.929 71.5V2C937.929 1.44772 937.481 1 936.929 1H28.9287C28.3764 1 27.9287 1.44771 27.9287 2V164C27.9287 164.552 27.481 165 26.9287 165H10.8633C10.3372 165 9.90113 165.408 9.86561 165.932L1.00237 296.912C0.962766 297.497 1.43303 297.99 2.01948 297.979L181.429 294.5L255.462 292.032C256.001 292.014 256.429 291.572 256.429 291.033V288C256.429 287.448 256.876 287 257.429 287H328.429C380.762 281.167 492.729 268.8 521.929 266Z" stroke="#BFC4C8" stroke-width="2" stroke-linecap="round" stroke-linejoin="round"/>
</g>
<g id="b3f4-paper">
<text id="title" transform="translate(348.429 140.238) rotate(-0.844763)" fill="#172736" xml:space="preserve" style="white-space: pre" font-family="CoFo Weather 20240219" font-size="8" font-weight="500" letter-spacing="0em"><tspan x="0" y="6.76">&#x423;&#x442;&#x438;&#x43b;&#x438;&#x437;&#x430;&#x446;&#x438;&#x44f; </tspan><tspan x="0" y="14.76">&#x431;&#x443;&#x43c;&#x430;&#x433;&#x438;</tspan></text>
<path id="Ellipse 40" d="M346.429 144.722C346.429 147.207 344.414 149.222 341.929 149.222C339.443 149.222 337.429 147.207 337.429 144.722C337.429 142.237 339.443 140.222 341.929 140.222C344.414 140.222 346.429 142.237 346.429 144.722Z" fill="#73E553"/>
</g>
<text id="title_2" transform="translate(859.279 85.5308) rotate(-90.75)" fill="#172736" xml:space="preserve" style="white-space: pre" font-family="CoFo Weather 20240219" font-size="12" font-weight="500" letter-spacing="0em"><tspan x="0.304688" y="10.14">&#x41b;&#x438;&#x444;&#x442;&#x43e;&#x432;&#x43e;&#x439; &#10;</tspan><tspan x="12.6504" y="22.14">&#x445;&#x43e;&#x43b;&#x43b; 2</tspan></text>
<text id="title_3" transform="translate(342.279 244.531) rotate(-90.75)" fill="#172736" xml:space="preserve" style="white-space: pre" font-family="CoFo Weather 20240219" font-size="12" font-weight="500" letter-spacing="0em"><tspan x="0.304688" y="10.14">&#x41b;&#x438;&#x444;&#x442;&#x43e;&#x432;&#x43e;&#x439; &#10;</tspan><tspan x="14.1152" y="22.14">&#x445;&#x43e;&#x43b;&#x43b; 1</tspan></text>
<g id="b3f4-k">
<path id="Vector 27" d="M705.429 114.222H767.929H783.929V105.414V92.7222V77.2222H767.929H705.429V114.222Z" fill="#FFEDD6" stroke="#FFCF94" stroke-width="2.5" stroke-linecap="round" stroke-linejoin="round"/>
<text id="title_4" fill="#172736" xml:space="preserve" style="white-space: pre" font-family="CoFo Weather 20240219" font-size="5.62502" font-weight="500" letter-spacing="0em"><tspan x="732.988" y="106.163">&#x41c;&#x438;&#x43d;&#x438;-&#x43a;&#x443;&#x445;&#x43d;&#x44f;</tspan></text>
<g id="Frame 10">
<rect x="743.429" y="94.2222" width="8" height="5" rx="1.5" fill="#FFCF94"/>
<rect x="743.429" y="94.2222" width="8" height="5" rx="1.5" stroke="#FFA436" stroke-opacity="0.2" stroke-width="0.5"/>
<text id="4&#209;&#129;" fill="#172736" xml:space="preserve" style="white-space: pre" font-family="CoFo Weather 20240219" font-size="4" font-weight="500" letter-spacing="0.02em"><tspan x="744.981" y="98.1022">4&#x441;</tspan></text>
</g>
</g>
<g id="b3f4-doctor">
<path id="Vector 23" d="M960.429 147.5V182L891.429 197.5V147.5H960.429Z" fill="#007E76" fill-opacity="0.2" stroke="#007E76" stroke-opacity="0.2" stroke-width="2.5" stroke-linecap="round" stroke-linejoin="round"/>
<text id="title_5" transform="translate(914.429 166.951)" fill="#172736" xml:space="preserve" style="white-space: pre" font-family="CoFo Weather 20240219" font-size="5.62502" font-weight="500" letter-spacing="0em"><tspan x="0.370928" y="4.94063">&#x41a;&#x430;&#x431;&#x438;&#x43d;&#x435;&#x442;&#10;</tspan><tspan x="3.64212" y="10.9406">&#x412;&#x440;&#x430;&#x447;&#x430;</tspan></text>
<g id="n">
<rect x="920.141" y="157.5" width="11.375" height="7.25" rx="1.6875" fill="#007E76" fill-opacity="0.2"/>
<text id="416" transform="translate(921.828 158.625)" fill="#172736" xml:space="preserve" style="white-space: pre" font-family="CoFo Weather 20240219" font-size="4.5" font-weight="500" letter-spacing="0.02em"><tspan x="0.238369" y="4.0525">416</tspan></text>
</g>
</g>
<g id="b3f4-417">
<rect id="Rectangle 5" x="354.429" y="41.2222" width="52" height="39" fill="#33D18F" fill-opacity="0.2" stroke="#33D18F" stroke-opacity="0.2" stroke-width="2.5" stroke-linejoin="round"/>
<text id="title_6" transform="translate(366.429 63.2544)" fill="#172736" xml:space="preserve" style="white-space: pre" font-family="CoFo Weather 20240219" font-size="4" font-weight="500" letter-spacing="0em"><tspan x="0" y="3.38">&#x41f;&#x435;&#x440;&#x435;&#x433;&#x43e;&#x432;&#x43e;&#x440;&#x43a;&#x430;</tspan></text>
<g id="Frame 19">
<rect x="374.157" y="54.2222" width="11.375" height="7.25" rx="1.6875" fill="#33D18F" fill-opacity="0.2"/>
<text id="417" transform="translate(375.845 55.3472)" fill="#172736" xml:space="preserve" style="white-space: pre" font-family="CoFo Weather 20240219" font-size="4.5" font-weight="500" letter-spacing="0.02em"><tspan x="0.357022" y="4.0525">417</tspan></text>
</g>
</g>
</g>
</svg>
