<svg width="1150" height="358" viewBox="0 0 1150 358" fill="none" xmlns="http://www.w3.org/2000/svg">
<g id="b3f5">
<g id="area">
<path d="M14.3323 200.664C14.3772 200.147 14.8098 199.75 15.3286 199.75H31.4116V2.25C31.4116 1.69772 31.8593 1.25 32.4116 1.25H352.912H1120.91C1121.46 1.25 1121.91 1.69772 1121.91 2.25V85.75C1121.91 86.3023 1122.36 86.75 1122.91 86.75H1146.91C1147.46 86.75 1147.91 87.1977 1147.91 87.75V217.473C1147.91 217.93 1147.63 218.323 1147.18 218.436C1129.52 222.925 1080.13 235.051 1017.41 249.25C954.488 263.497 889.965 275.656 864.712 280.109C864.234 280.193 863.912 280.604 863.912 281.09V298.25C863.912 298.802 863.464 299.25 862.912 299.25H751.984C751.936 299.25 751.89 299.253 751.843 299.26C701.146 306.598 592.398 322.352 562.412 326.75C532.412 331.15 436.912 339.25 392.912 342.75H307.412V347.287C307.412 347.825 307.012 348.265 306.475 348.285C261.909 349.969 167.612 353.661 139.412 355.25C111.296 356.834 36.7575 355.935 1.95532 355.27C1.37672 355.259 0.954074 354.761 1.00413 354.184L14.3323 200.664Z" fill="white"/>
<path d="M468.412 308.75C467.859 308.75 467.412 308.302 467.412 307.75V303.25V280.25H484.912V308.75H468.412Z" fill="white"/>
<path d="M533.412 209.25V250.75H521.162V209.25H533.412Z" fill="white"/>
<path d="M156.912 131.75C156.912 131.198 156.464 130.75 155.912 130.75H126.412V138.25C126.412 138.802 126.859 139.25 127.412 139.25H155.912C156.464 139.25 156.912 138.802 156.912 138.25V131.75Z" fill="white"/>
<path d="M964.412 109.25V97.25C964.412 96.6977 964.859 96.25 965.412 96.25H979.162H985.412H994.912H1013.41V109.25H994.912H979.162H964.412Z" fill="white"/>
<path d="M933.412 124.25C932.859 124.25 932.412 124.698 932.412 125.25V138.75H845.412V96.75C845.412 96.4739 845.635 96.25 845.912 96.25H936.412V123.25C936.412 123.802 935.964 124.25 935.412 124.25H933.412Z" fill="white"/>
<path d="M31.4116 199.75H15.3286C14.8098 199.75 14.3772 200.147 14.3323 200.664L1.00413 354.184C0.954074 354.761 1.37672 355.259 1.95532 355.27C36.7575 355.935 111.296 356.834 139.412 355.25C167.612 353.661 261.909 349.969 306.475 348.285C307.012 348.265 307.412 347.825 307.412 347.287V342.75M31.4116 199.75V2.25C31.4116 1.69772 31.8593 1.25 32.4116 1.25H352.912M31.4116 199.75H80.4116C80.9639 199.75 81.4116 199.302 81.4116 198.75V167.25M307.412 342.75H392.912C436.912 339.25 532.412 331.15 562.412 326.75C592.398 322.352 701.146 306.598 751.843 299.26C751.89 299.253 751.936 299.25 751.984 299.25H862.912C863.464 299.25 863.912 298.802 863.912 298.25V281.09C863.912 280.604 864.234 280.193 864.712 280.109C889.965 275.656 954.488 263.497 1017.41 249.25C1080.13 235.051 1129.52 222.925 1147.18 218.436C1147.63 218.323 1147.91 217.93 1147.91 217.473V87.75C1147.91 87.1977 1147.46 86.75 1146.91 86.75H1122.91C1122.36 86.75 1121.91 86.3023 1121.91 85.75V2.25C1121.91 1.69772 1121.46 1.25 1120.91 1.25H352.912M307.412 342.75V204.75C307.412 204.198 307.859 203.75 308.412 203.75H310.412M31.9116 139.25H84.4116M80.9116 153.25V139.25M96.9116 139.25H106.912M120.912 139.25H138.412M151.912 139.25H165.912M179.912 139.25H284.912M298.412 139.25H306.912M320.412 139.25H323.912M338.412 139.25H358.912M364.912 139.25H358.912M378.912 139.25H396.912C397.464 139.25 397.912 138.802 397.912 138.25V70.75M397.912 55.75V1.75M81.9116 184.75H84.9116M124.912 176.25V183.75C124.912 184.302 124.464 184.75 123.912 184.75H100.912M124.912 176.25H120.412M124.912 176.25H200.412M107.412 176.25H101.912C101.359 176.25 100.912 176.698 100.912 177.25V184.75M97.4116 184.75H100.912M213.912 176.25H222.912M397.912 176.25H400.412C400.964 176.25 401.412 176.698 401.412 177.25V201.75M236.412 176.25H310.412M310.412 176.25H355.412M310.412 176.25V203.75M310.412 203.75H360.412M366.412 176.25H375.912M375.912 176.25H387.412M375.912 176.25V203.75M375.912 203.75H395.412M375.912 203.75H360.412M407.412 203.75H395.412M395.412 203.75V216.25M395.412 269.25V280.25M395.412 280.25V286.75M395.412 280.25H360.412M360.412 280.25V304.25M360.412 280.25V241.75M360.412 203.75V241.75M360.412 241.75H395.412M395.412 232.25V241.75M395.412 241.75V254.25M395.412 308.75V341.75M440.412 338.75V327.75M440.412 313.75V304.25C440.412 303.698 440.859 303.25 441.412 303.25H467.412M467.412 303.25V307.75C467.412 308.302 467.859 308.75 468.412 308.75H484.912M467.412 303.25V280.25M484.912 308.75V334.75M484.912 308.75V280.25M484.912 203.75H448.912M484.912 203.75V209.25M484.912 203.75V197.75M448.912 203.75H428.912M448.912 203.75V216.25M448.912 269.25V279.25C448.912 279.802 449.359 280.25 449.912 280.25H467.412M484.912 280.25H467.412M484.912 280.25V250.75M448.912 232.25V241.75M448.912 241.75V254.25M448.912 241.75H484.912M484.912 241.75V250.75M484.912 241.75V209.25M484.912 250.75H495.412M528.412 330.75V309.75C528.412 309.198 528.859 308.75 529.412 308.75H532.412C532.964 308.75 533.412 308.302 533.412 307.75V250.75M533.412 250.75V209.25M533.412 250.75H521.162M533.412 209.25H552.912M533.412 209.25H521.162M484.912 209.25H494.412M508.912 250.75H521.162M521.162 250.75V209.25M521.162 209.25H508.912M521.162 209.25V203.75M484.912 184.75V176.75C484.912 176.198 485.359 175.75 485.912 175.75H521.162M521.162 175.75V189.25M521.162 175.75H574.412M574.412 175.75H589.412M574.412 175.75V324.75M574.412 250.75H619.412C619.964 250.75 620.412 250.302 620.412 249.75V176.25M620.412 176.25H602.412M620.412 176.25H674.412M1040.91 176.25H1138.43C1138.74 176.25 1139.02 176.386 1139.21 176.621L1147.41 186.75M952.412 176.25H1022.91M1022.91 176.25H1026.91M1022.91 176.25V248.25M900.912 176.25H934.912M934.912 176.25H939.912M934.912 176.25V203.75M934.912 267.25V203.75M934.912 203.75H849.912C849.359 203.75 848.912 203.302 848.912 202.75V176.25M775.912 176.25H848.912M848.912 176.25H887.912M687.412 176.25H757.412M757.412 176.25H762.412M757.412 176.25V299.25M217.412 352.25V176.25M241.412 176.25V161.75M241.412 150.75V139.25M217.912 139.25V1.75M99.9116 139.25V129.25C99.9116 128.698 100.359 128.25 100.912 128.25H125.412C125.964 128.25 126.412 128.698 126.412 129.25V130.75M126.412 130.75H155.912C156.464 130.75 156.912 131.198 156.912 131.75V138.25C156.912 138.802 156.464 139.25 155.912 139.25H127.412C126.859 139.25 126.412 138.802 126.412 138.25V130.75ZM126.412 100.25V1.75M601.912 138.75H619.912M619.912 138.75H674.412M619.912 138.75V145.75M619.912 138.75V85.75C619.912 85.1977 619.464 84.75 618.912 84.75H570.412M687.412 138.75H739.912M739.912 138.75V134.25C739.912 133.698 740.359 133.25 740.912 133.25H756.912M739.912 138.75H743.912M1013.41 138.75H1019.91C1020.46 138.75 1020.91 138.302 1020.91 137.75V125.25C1020.91 124.698 1020.46 124.25 1019.91 124.25H1014.41C1013.86 124.25 1013.41 123.802 1013.41 123.25V109.25M1013.41 109.25H1019.41M1013.41 109.25H994.912M1013.41 109.25V96.25M989.912 138.75H994.912M994.912 138.75H999.912M994.912 138.75V109.25M994.912 109.25H979.162M994.912 109.25V96.25M960.912 138.75H964.412M964.412 138.75H973.912M964.412 138.75V109.25M964.412 109.25V97.25C964.412 96.6977 964.859 96.25 965.412 96.25H979.162M964.412 109.25H963.412M964.412 109.25H979.162M979.162 109.25V96.25M979.162 96.25H985.412M994.912 96.25H1013.41M994.912 96.25H985.412M1013.41 96.25H1023.16M985.412 96.25V58.75M932.412 138.75H947.412M932.412 138.75V125.25C932.412 124.698 932.859 124.25 933.412 124.25H935.412C935.964 124.25 936.412 123.802 936.412 123.25V96.25M932.412 138.75H845.412M936.412 96.25V1.25M936.412 96.25H845.912C845.635 96.25 845.412 96.4739 845.412 96.75M840.912 138.75H845.412M845.412 138.75V96.75M845.412 96.75H846.412M845.412 96.75H810.412C809.859 96.75 809.412 97.1977 809.412 97.75V138.75M775.412 138.75H809.412M809.412 138.75H828.412M754.412 138.75H758.162M758.162 138.75H761.912M758.162 138.75V1.75M619.912 177.25V169.75M570.412 84.75V138.75M570.412 84.75V1.75M567.912 138.75H570.412M570.412 138.75H587.912M423.412 138.75H479.412M479.412 138.75H553.912M479.412 138.75V97.75M479.412 97.75H423.412M479.412 97.75H486.912C487.464 97.75 487.912 97.3023 487.912 96.75V51.75C487.912 51.1977 487.464 50.75 486.912 50.75H416.912M423.412 123.75V97.75M423.412 97.75V94.75M402.412 50.75H398.412M323.412 139.25V129.25C323.412 128.698 323.859 128.25 324.412 128.25H341.912M358.912 128.25H341.912M358.912 128.25V73.75M358.912 128.25V139.25M341.912 128.25V139.25M302.412 139.25V74.75C302.412 74.1977 302.859 73.75 303.412 73.75H352.912M397.912 73.75H358.912M1118.41 176.25V169.25M1070.41 132.25H1067.41C1066.86 132.25 1066.41 131.802 1066.41 131.25V119.25M1118.41 146.25V132.25M1118.41 132.25V120.25C1118.41 119.698 1117.96 119.25 1117.41 119.25H1091.16M1118.41 132.25H1110.91M1084.91 132.25H1091.16M1091.16 132.25H1097.41M1091.16 132.25V119.25M1091.16 119.25H1066.41M1066.41 119.25V96.25M1066.41 96.25V2.25M1066.41 96.25H1055.41M1023.16 96.25H1032.91M1023.16 96.25V87.25M1023.16 66.75V58.75M1023.16 58.75V42.75M1023.16 58.75H985.412M985.412 58.75V1.25M1023.16 23.25V1.25M358.912 73.75H352.912M352.912 73.75V1.25M423.412 85.25V50.75" stroke="#BFC4C8" stroke-width="2" stroke-linecap="round" stroke-linejoin="round"/>
</g>
<text id="title" transform="translate(1032.26 82.2808) rotate(-90.75)" fill="#172736" xml:space="preserve" style="white-space: pre" font-family="CoFo Weather 20240219" font-size="12" font-weight="500" letter-spacing="0em"><tspan x="0.304688" y="10.14">&#x41b;&#x438;&#x444;&#x442;&#x43e;&#x432;&#x43e;&#x439; &#10;</tspan><tspan x="12.6504" y="22.14">&#x445;&#x43e;&#x43b;&#x43b; 2</tspan></text>
<text id="title_2" transform="translate(412.262 291.281) rotate(-90.75)" fill="#172736" xml:space="preserve" style="white-space: pre" font-family="CoFo Weather 20240219" font-size="12" font-weight="500" letter-spacing="0em"><tspan x="0.304688" y="10.14">&#x41b;&#x438;&#x444;&#x442;&#x43e;&#x432;&#x43e;&#x439; &#10;</tspan><tspan x="14.1152" y="22.14">&#x445;&#x43e;&#x43b;&#x43b; 1</tspan></text>
<g id="b1f5-511">
<rect id="Rectangle 6" x="351.412" y="1.25" width="47" height="74" fill="#33D18F" fill-opacity="0.2" stroke="#33D18F" stroke-opacity="0.2" stroke-width="2.5" stroke-linejoin="round"/>
<text id="title_3" transform="translate(361.412 40.2822)" fill="#172736" xml:space="preserve" style="white-space: pre" font-family="CoFo Weather 20240219" font-size="4" font-weight="500" letter-spacing="0em"><tspan x="0" y="3.38">&#x41f;&#x435;&#x440;&#x435;&#x433;&#x43e;&#x432;&#x43e;&#x440;&#x43a;&#x430;</tspan></text>
<g id="Frame 20">
<rect x="369.14" y="31.25" width="10.375" height="7.25" rx="1.6875" fill="#33D18F" fill-opacity="0.2"/>
<text id="511" transform="translate(370.828 32.375)" fill="#172736" xml:space="preserve" style="white-space: pre" font-family="CoFo Weather 20240219" font-size="4.5" font-weight="500" letter-spacing="0.02em"><tspan x="0.36459" y="4.0525">511</tspan></text>
</g>
</g>
<g id="b1f5-513">
<rect id="Rectangle 7" x="359.412" y="75.25" width="39" height="65" fill="#33D18F" fill-opacity="0.2" stroke="#33D18F" stroke-opacity="0.2" stroke-width="2.5" stroke-linejoin="round"/>
<text id="title_4" transform="translate(365.412 109.282)" fill="#172736" xml:space="preserve" style="white-space: pre" font-family="CoFo Weather 20240219" font-size="4" font-weight="500" letter-spacing="0em"><tspan x="0" y="3.38">&#x41f;&#x435;&#x440;&#x435;&#x433;&#x43e;&#x432;&#x43e;&#x440;&#x43a;&#x430;</tspan></text>
<g id="Frame 21">
<rect x="373.14" y="100.25" width="11.375" height="7.25" rx="1.6875" fill="#33D18F" fill-opacity="0.2"/>
<text id="513" transform="translate(374.828 101.375)" fill="#172736" xml:space="preserve" style="white-space: pre" font-family="CoFo Weather 20240219" font-size="4.5" font-weight="500" letter-spacing="0.02em"><tspan x="0.30209" y="4.0525">513</tspan></text>
</g>
</g>
<g id="b1f5-517">
<rect id="Rectangle 8" x="423.412" y="51.25" width="64" height="46" fill="#33D18F" fill-opacity="0.2" stroke="#33D18F" stroke-opacity="0.2" stroke-width="2.5" stroke-linejoin="round"/>
<text id="title_5" transform="translate(441.412 76.2822)" fill="#172736" xml:space="preserve" style="white-space: pre" font-family="CoFo Weather 20240219" font-size="4" font-weight="500" letter-spacing="0em"><tspan x="0" y="3.38">&#x41f;&#x435;&#x440;&#x435;&#x433;&#x43e;&#x432;&#x43e;&#x440;&#x43a;&#x430;</tspan></text>
<g id="Frame 22">
<rect x="449.14" y="67.25" width="11.375" height="7.25" rx="1.6875" fill="#33D18F" fill-opacity="0.2"/>
<text id="517" transform="translate(450.828 68.375)" fill="#172736" xml:space="preserve" style="white-space: pre" font-family="CoFo Weather 20240219" font-size="4.5" font-weight="500" letter-spacing="0.02em"><tspan x="0.392178" y="4.0525">517</tspan></text>
</g>
</g>
<g id="b1f5-512">
<path id="Rectangle 9" d="M1022.41 174.972H1139.41L1148.41 185.472V218.472L1022.41 247.972V174.972Z" fill="#33D18F" fill-opacity="0.2" stroke="#33D18F" stroke-opacity="0.2" stroke-width="2.5" stroke-linejoin="round"/>
<text id="title_6" transform="translate(1068.41 206.004)" fill="#172736" xml:space="preserve" style="white-space: pre" font-family="CoFo Weather 20240219" font-size="4" font-weight="500" letter-spacing="0em"><tspan x="0" y="3.38">&#x41f;&#x435;&#x440;&#x435;&#x433;&#x43e;&#x432;&#x43e;&#x440;&#x43a;&#x430;</tspan></text>
<g id="Frame 23">
<rect x="1076.14" y="196.972" width="11.375" height="7.25" rx="1.6875" fill="#33D18F" fill-opacity="0.2"/>
<text id="512" transform="translate(1077.83 198.097)" fill="#172736" xml:space="preserve" style="white-space: pre" font-family="CoFo Weather 20240219" font-size="4.5" font-weight="500" letter-spacing="0.02em"><tspan x="0.304287" y="4.0525">512</tspan></text>
</g>
</g>
<g id="b1f5-k">
<path id="Vector 27" d="M845.412 138.827L932.412 138.25V123.25H936.412V111.25H907.912V96.75H845.412V138.827Z" fill="#FFEDD6" stroke="#FFCF94" stroke-width="2.5" stroke-linecap="round" stroke-linejoin="round"/>
<text id="title_7" fill="#172736" xml:space="preserve" style="white-space: pre" font-family="CoFo Weather 20240219" font-size="5.62502" font-weight="500" letter-spacing="0em"><tspan x="873.471" y="124.2">&#x41c;&#x438;&#x43d;&#x438;-&#x43a;&#x443;&#x445;&#x43d;&#x44f;</tspan></text>
<g id="Frame 10">
<rect x="883.853" y="111.25" width="8" height="6" rx="1.5" fill="#FFCF94"/>
<rect x="883.853" y="111.25" width="8" height="6" rx="1.5" stroke="#FFA436" stroke-opacity="0.2" stroke-width="0.5"/>
<text id="5&#209;&#129;" fill="#172736" xml:space="preserve" style="white-space: pre" font-family="CoFo Weather 20240219" font-size="4" font-weight="500" letter-spacing="0.02em"><tspan x="885.43" y="115.63">5&#x441;</tspan></text>
</g>
</g>
</g>
</svg>
