<svg width="1149" height="358" viewBox="0 0 1149 358" fill="none" xmlns="http://www.w3.org/2000/svg">
<g id="b3f7">
<g id="area">
<path d="M14.3323 200.941C14.3772 200.425 14.8098 200.028 15.3286 200.028H31.4116V2.52783C31.4116 1.97555 31.8593 1.52783 32.4116 1.52783H352.912H487.912H1120.91C1121.46 1.52783 1121.91 1.97555 1121.91 2.52783V87.0278H1146.91C1147.46 87.0278 1147.91 87.4755 1147.91 88.0278V217.751C1147.91 218.208 1147.63 218.601 1147.18 218.714C1129.52 223.203 1080.13 235.328 1017.41 249.528C954.488 263.775 889.965 275.933 864.712 280.387C864.234 280.471 863.912 280.882 863.912 281.367V298.528C863.912 299.08 863.464 299.528 862.912 299.528H751.984C751.936 299.528 751.89 299.531 751.843 299.538C706.51 306.099 614.758 319.391 574.412 325.274C569.638 325.97 565.584 326.563 562.412 327.028C532.412 331.428 436.912 339.528 392.912 343.028H307.412V347.565C307.412 348.102 307.012 348.543 306.475 348.563C261.909 350.247 167.612 353.939 139.412 355.528C111.296 357.112 36.7575 356.213 1.95532 355.548C1.37672 355.537 0.954074 355.039 1.00413 354.462L14.3323 200.941Z" fill="white"/>
<path d="M468.412 309.028C467.859 309.028 467.412 308.58 467.412 308.028V303.528V280.528H484.912V309.028H468.412Z" fill="white"/>
<path d="M533.412 209.528V251.028H521.162V209.528H533.412Z" fill="white"/>
<path d="M156.912 132.028C156.912 131.476 156.464 131.028 155.912 131.028H126.412V138.528C126.412 139.08 126.859 139.528 127.412 139.528H155.912C156.464 139.528 156.912 139.08 156.912 138.528V132.028Z" fill="white"/>
<path d="M964.412 109.528V97.5278C964.412 96.9755 964.859 96.5278 965.412 96.5278H979.162H985.412H994.912H1013.41V109.528H994.912H979.162H964.412Z" fill="white"/>
<path d="M933.412 124.528C932.859 124.528 932.412 124.976 932.412 125.528V139.028H845.412V97.0278C845.412 96.7517 845.635 96.5278 845.912 96.5278H936.412V123.528C936.412 124.08 935.964 124.528 935.412 124.528H933.412Z" fill="white"/>
<path d="M31.4116 200.028H15.3286C14.8098 200.028 14.3772 200.425 14.3323 200.941L1.00413 354.462C0.954074 355.039 1.37672 355.537 1.95532 355.548C36.7575 356.213 111.296 357.112 139.412 355.528C167.612 353.939 261.909 350.247 306.475 348.563C307.012 348.543 307.412 348.102 307.412 347.565V343.028M31.4116 200.028V2.52783C31.4116 1.97555 31.8593 1.52783 32.4116 1.52783H352.912H487.912M31.4116 200.028H80.4116C80.9639 200.028 81.4116 199.58 81.4116 199.028V167.528M307.412 343.028H392.912C436.912 339.528 532.412 331.428 562.412 327.028C565.584 326.563 569.638 325.97 574.412 325.274M307.412 343.028V205.028C307.412 204.476 307.859 204.028 308.412 204.028H310.412M1121.91 87.0278H1146.91C1147.46 87.0278 1147.91 87.4755 1147.91 88.0278V217.751C1147.91 218.208 1147.63 218.601 1147.18 218.714C1129.52 223.203 1080.13 235.328 1017.41 249.528C954.488 263.775 889.965 275.933 864.712 280.387C864.234 280.471 863.912 280.882 863.912 281.367V298.528C863.912 299.08 863.464 299.528 862.912 299.528H751.984C751.936 299.528 751.89 299.531 751.843 299.538C706.51 306.099 614.758 319.391 574.412 325.274M1121.91 87.0278V2.52783C1121.91 1.97555 1121.46 1.52783 1120.91 1.52783H487.912M1121.91 87.0278V95.0278M31.9116 139.528H84.4116M80.9116 153.528V139.528M96.9116 139.528H106.912M120.912 139.528H138.412M151.912 139.528H165.912M179.912 139.528H284.912M298.412 139.528H306.912M320.412 139.528H323.912M338.412 139.528H358.912M364.912 139.528H358.912M378.912 139.528H396.912C397.464 139.528 397.912 139.08 397.912 138.528V74.0278M397.912 71.0278V74.0278M397.912 56.0278V2.02783M81.9116 185.028H84.9116M124.912 176.528V184.028C124.912 184.58 124.464 185.028 123.912 185.028H100.912M124.912 176.528H120.412M124.912 176.528H200.412M107.412 176.528H101.912C101.359 176.528 100.912 176.976 100.912 177.528V185.028M97.4116 185.028H100.912M213.912 176.528H222.912M397.912 176.528H400.412C400.964 176.528 401.412 176.976 401.412 177.528V202.028M236.412 176.528H310.412M310.412 176.528H355.412M310.412 176.528V204.028M310.412 204.028H360.412M366.412 176.528H375.912M375.912 176.528H387.412M375.912 176.528V204.028M375.912 204.028H395.412M375.912 204.028H360.412M407.412 204.028H395.412M395.412 204.028V216.528M395.412 269.528V280.528M395.412 280.528V287.028M395.412 280.528H360.412M360.412 280.528V304.528M360.412 280.528V242.028M360.412 204.028V242.028M360.412 242.028H395.412M395.412 232.528V242.028M395.412 242.028V254.528M395.412 309.028V325.528M395.412 342.028V325.528M440.412 339.028V328.028M440.412 314.028V304.528C440.412 303.976 440.859 303.528 441.412 303.528H467.412M467.412 303.528V308.028C467.412 308.58 467.859 309.028 468.412 309.028H484.912M467.412 303.528V280.528M484.912 309.028V335.028M484.912 309.028V280.528M484.912 204.028H448.912M484.912 204.028V209.528M484.912 204.028V198.028M448.912 204.028H428.912M448.912 204.028V216.528M448.912 269.528V279.528C448.912 280.08 449.359 280.528 449.912 280.528H467.412M484.912 280.528H467.412M484.912 280.528V251.028M448.912 232.528V242.028M448.912 242.028V254.528M448.912 242.028H484.912M484.912 242.028V251.028M484.912 242.028V209.528M484.912 251.028H495.412M528.412 331.028V310.028C528.412 309.476 528.859 309.028 529.412 309.028H532.412C532.964 309.028 533.412 308.58 533.412 308.028V287.528V251.028M533.412 251.028V209.528M533.412 251.028H521.162M533.412 209.528H552.912M533.412 209.528H521.162M484.912 209.528H494.412M508.912 251.028H521.162M521.162 251.028V209.528M521.162 209.528H508.912M521.162 209.528V204.028M484.912 185.028V177.028C484.912 176.476 485.359 176.028 485.912 176.028H521.162M521.162 176.028V189.528M521.162 176.028H574.412M574.412 176.028H589.412M574.412 176.028V282.528M602.412 176.528H620.412H674.412M1040.91 176.528H1138.43C1138.74 176.528 1139.02 176.664 1139.21 176.899L1147.41 187.028M952.412 176.528H1022.91M1022.91 176.528H1026.91M1022.91 176.528V248.528M900.912 176.528H934.912M934.912 176.528H939.912M934.912 176.528V204.028M934.912 267.528V204.028M934.912 204.028H849.912C849.359 204.028 848.912 203.58 848.912 203.028V176.528M775.912 176.528H848.912M848.912 176.528H887.912M687.412 176.528H757.412M757.412 176.528H762.412M757.412 176.528V299.528M217.412 352.528V176.528M217.912 139.528V100.528M99.9116 139.528V129.528C99.9116 128.976 100.359 128.528 100.912 128.528H126.412M126.412 128.528V131.028M126.412 128.528V2.02783M126.412 131.028H155.912C156.464 131.028 156.912 131.476 156.912 132.028V138.528C156.912 139.08 156.464 139.528 155.912 139.528H127.412C126.859 139.528 126.412 139.08 126.412 138.528V131.028ZM601.912 139.028H619.912M619.912 139.028H674.412M619.912 139.028V146.028M619.912 139.028V60.5278C619.912 59.9755 619.464 59.5278 618.912 59.5278H570.412M687.412 139.028H739.912M739.912 139.028V134.528C739.912 133.976 740.359 133.528 740.912 133.528H756.912M739.912 139.028H743.912M1013.41 139.028H1019.91C1020.46 139.028 1020.91 138.58 1020.91 138.028V125.528C1020.91 124.976 1020.46 124.528 1019.91 124.528H1014.41C1013.86 124.528 1013.41 124.08 1013.41 123.528V109.528M1013.41 109.528H1019.41M1013.41 109.528H994.912M1013.41 109.528V96.5278M989.912 139.028H994.912M994.912 139.028H999.912M994.912 139.028V109.528M994.912 109.528H979.162M994.912 109.528V96.5278M960.912 139.028H964.412M964.412 139.028H973.912M964.412 139.028V109.528M964.412 109.528V97.5278C964.412 96.9755 964.859 96.5278 965.412 96.5278H979.162M964.412 109.528H963.412M964.412 109.528H979.162M979.162 109.528V96.5278M979.162 96.5278H985.412M994.912 96.5278H1013.41M994.912 96.5278H985.412M1013.41 96.5278H1023.16M985.412 96.5278V59.0278M932.412 139.028H947.412M932.412 139.028V125.528C932.412 124.976 932.859 124.528 933.412 124.528H935.412C935.964 124.528 936.412 124.08 936.412 123.528V96.5278M932.412 139.028H845.412M936.412 96.5278V1.52783M936.412 96.5278H845.912C845.635 96.5278 845.412 96.7517 845.412 97.0278M840.912 139.028H845.412M845.412 139.028V97.0278M845.412 97.0278H846.412M845.412 97.0278H810.412C809.859 97.0278 809.412 97.4755 809.412 98.0278V139.028M775.412 139.028H809.412M809.412 139.028H828.412M754.412 139.028H758.162M758.162 139.028H761.912M758.162 139.028V2.02783M619.912 170.028V281.528C619.912 282.08 619.464 282.528 618.912 282.528H574.412M567.912 139.028H570.412M570.412 139.028H587.912M570.412 139.028V85.0278V2.02783M553.912 139.028H480.412C479.859 139.028 479.412 138.58 479.412 138.028V98.0278M479.412 98.0278H424.412C423.859 98.0278 423.412 97.5801 423.412 97.0278V95.0278M479.412 98.0278H486.912C487.464 98.0278 487.912 97.5801 487.912 97.0278V51.0278M487.912 51.0278H416.912M487.912 51.0278V47.0278M402.412 51.0278H398.412M323.412 139.528V129.528C323.412 128.976 323.859 128.528 324.412 128.528H341.912M358.912 128.528H341.912M358.912 128.528V139.528M358.912 128.528V74.0278M341.912 128.528V139.528M302.412 139.528V75.0278C302.412 74.4755 302.859 74.0278 303.412 74.0278H352.912H358.912M1118.41 176.528V169.528M1070.41 132.528H1067.41C1066.86 132.528 1066.41 132.08 1066.41 131.528V119.528M1118.41 146.528V132.528M1118.41 132.528V120.528C1118.41 119.976 1117.96 119.528 1117.41 119.528H1091.16M1118.41 132.528H1110.91M1084.91 132.528H1091.16M1091.16 132.528H1097.41M1091.16 132.528V119.528M1091.16 119.528H1066.41M1066.41 119.528V96.5278M1066.41 96.5278V2.52783M1066.41 96.5278H1055.41M1023.16 96.5278H1032.91M1023.16 96.5278V87.5278M1023.16 67.0278V59.0278M1023.16 59.0278V43.0278M1023.16 59.0278H985.412M985.412 59.0278V1.52783M1023.16 23.5278V1.52783M423.412 85.5278V51.0278M302.412 75.0278V71.5278M302.412 56.5278V2.02783M439.412 51.0278V1.52783M397.912 74.0278H358.912M395.412 325.528H380.912M487.912 35.0278V1.52783M574.412 325.274V282.528" stroke="#BFC4C8" stroke-width="2" stroke-linecap="round" stroke-linejoin="round"/>
</g>
<text id="title" transform="translate(1031.76 82.5586) rotate(-90.75)" fill="#172736" style="white-space: pre" xml:space="preserve" font-family="CoFo Weather 20240219" font-size="12" font-weight="500" letter-spacing="0em"><tspan x="0.304688" y="10.14">&#x41b;&#x438;&#x444;&#x442;&#x43e;&#x432;&#x43e;&#x439; &#10;</tspan><tspan x="12.6504" y="22.14">&#x445;&#x43e;&#x43b;&#x43b; 2</tspan></text>
<text id="title_2" transform="translate(410.762 289.559) rotate(-90.75)" fill="#172736" style="white-space: pre" xml:space="preserve" font-family="CoFo Weather 20240219" font-size="12" font-weight="500" letter-spacing="0em"><tspan x="0.304688" y="10.14">&#x41b;&#x438;&#x444;&#x442;&#x43e;&#x432;&#x43e;&#x439; &#10;</tspan><tspan x="14.1152" y="22.14">&#x445;&#x43e;&#x43b;&#x43b; 1</tspan></text>
<g id="b3f7-717">
<rect id="Rectangle 8" x="423.912" y="51.5278" width="64" height="46" fill="#33D18F" fill-opacity="0.2" stroke="#33D18F" stroke-opacity="0.2" stroke-width="2.5" stroke-linejoin="round"/>
<text id="title_3" transform="translate(441.912 76.5601)" fill="#172736" style="white-space: pre" xml:space="preserve" font-family="CoFo Weather 20240219" font-size="4" font-weight="500" letter-spacing="0em"><tspan x="0" y="3.38">&#x41f;&#x435;&#x440;&#x435;&#x433;&#x43e;&#x432;&#x43e;&#x440;&#x43a;&#x430;</tspan></text>
<g id="Frame 22">
<rect x="449.64" y="67.5278" width="11.375" height="7.25" rx="1.6875" fill="#33D18F" fill-opacity="0.2"/>
<text id="717" transform="translate(451.328 68.6528)" fill="#172736" style="white-space: pre" xml:space="preserve" font-family="CoFo Weather 20240219" font-size="4.5" font-weight="500" letter-spacing="0.02em"><tspan x="0.409756" y="4.0525">717</tspan></text>
</g>
</g>
<g id="b3f7-715">
<rect id="Rectangle 9" x="398.912" y="1.25" width="43" height="50" fill="#33D18F" fill-opacity="0.2" stroke="#33D18F" stroke-opacity="0.2" stroke-width="2.5" stroke-linejoin="round"/>
<text id="title_4" transform="translate(406.912 28.25)" fill="#172736" style="white-space: pre" xml:space="preserve" font-family="CoFo Weather 20240219" font-size="4" font-weight="500" letter-spacing="0em"><tspan x="0.173828" y="3.38">&#x41f;&#x435;&#x440;&#x435;&#x433;&#x43e;&#x432;&#x43e;&#x440;&#x43a;&#x430;</tspan></text>
<g id="Frame 23">
<rect x="415.912" y="18.25" width="7" height="8" rx="1.6875" fill="#33D18F" fill-opacity="0.2"/>
<text id="715" transform="translate(415.412 19.75)" fill="#172736" style="white-space: pre" xml:space="preserve" font-family="CoFo Weather 20240219" font-size="4.5" font-weight="500" letter-spacing="0.02em"><tspan x="0.319668" y="4.0525">715</tspan></text>
</g>
</g>
<g id="b3f7-701">
<rect id="Rectangle 10" x="30.9116" y="138.25" width="52" height="61" fill="#33D18F" fill-opacity="0.2" stroke="#33D18F" stroke-opacity="0.2" stroke-width="2.5" stroke-linejoin="round"/>
<text id="title_5" transform="translate(37.9116 171.25)" fill="#172736" style="white-space: pre" xml:space="preserve" font-family="CoFo Weather 20240219" font-size="4" font-weight="500" letter-spacing="0em"><tspan x="4.67383" y="3.38">&#x41f;&#x435;&#x440;&#x435;&#x433;&#x43e;&#x432;&#x43e;&#x440;&#x43a;&#x430;</tspan></text>
<g id="Frame 24">
<rect x="51.9116" y="159.25" width="8" height="10" rx="1.6875" fill="#33D18F" fill-opacity="0.2"/>
<text id="701" transform="translate(51.9116 161.75)" fill="#172736" style="white-space: pre" xml:space="preserve" font-family="CoFo Weather 20240219" font-size="4.5" font-weight="500" letter-spacing="0.02em"><tspan x="0.264736" y="4.0525">701</tspan></text>
</g>
</g>
<g id="b3f7-k">
<path id="Vector 27" d="M844.912 139.105L931.912 138.528V123.528H935.912V111.528H907.412L907.278 96.5278H845.046L844.912 139.105Z" fill="#FFEDD6" stroke="#FFCF94" stroke-width="2.5" stroke-linecap="round" stroke-linejoin="round"/>
<text id="title_6" fill="#172736" style="white-space: pre" xml:space="preserve" font-family="CoFo Weather 20240219" font-size="5.62502" font-weight="500" letter-spacing="0em"><tspan x="872.971" y="124.478">&#x41c;&#x438;&#x43d;&#x438;-&#x43a;&#x443;&#x445;&#x43d;&#x44f;</tspan></text>
<g id="Frame 10">
<rect x="883.353" y="111.528" width="8" height="6" rx="1.5" fill="#FFCF94"/>
<rect x="883.353" y="111.528" width="8" height="6" rx="1.5" stroke="#FFA436" stroke-opacity="0.2" stroke-width="0.5"/>
<text id="7&#209;&#129;" fill="#172736" style="white-space: pre" xml:space="preserve" font-family="CoFo Weather 20240219" font-size="4" font-weight="500" letter-spacing="0.02em"><tspan x="885.067" y="115.908">7&#x441;</tspan></text>
</g>
</g>
</g>
</svg>
