<svg width="1149" height="357" viewBox="0 0 1149 357" fill="none" xmlns="http://www.w3.org/2000/svg">
<g id="b3f8">
<g id="Vector">
<path d="M14.3318 200.414C14.3767 199.897 14.8093 199.5 15.3281 199.5H31.4111V2C31.4111 1.44772 31.8589 1 32.4111 1H1120.91C1121.46 1 1121.91 1.44772 1121.91 2V86.5H1146.91C1147.46 86.5 1147.91 86.9477 1147.91 87.5V217.223C1147.91 217.68 1147.62 218.073 1147.18 218.186C1129.52 222.675 1080.13 234.801 1017.41 249C954.487 263.247 889.965 275.406 864.712 279.859C864.234 279.943 863.911 280.354 863.911 280.84V298C863.911 298.552 863.463 299 862.911 299H751.983C751.935 299 751.889 299.003 751.842 299.01C706.509 305.571 614.758 318.863 574.411 324.746C569.638 325.442 565.584 326.035 562.411 326.5C532.411 330.9 436.911 339 392.911 342.5H307.411V347.037C307.411 347.575 307.011 348.015 306.474 348.035C261.909 349.719 167.612 353.411 139.411 355C111.295 356.584 36.757 355.685 1.95484 355.02C1.37623 355.009 0.953586 354.511 1.00364 353.934L14.3318 200.414Z" fill="white"/>
<path d="M468.411 308.5C467.859 308.5 467.411 308.052 467.411 307.5V303V280H484.911V308.5H468.411Z" fill="white"/>
<path d="M533.411 209V250.5H521.161V209H533.411Z" fill="white"/>
<path d="M156.911 131.5C156.911 130.948 156.463 130.5 155.911 130.5H126.411V138C126.411 138.552 126.859 139 127.411 139H155.911C156.463 139 156.911 138.552 156.911 138V131.5Z" fill="white"/>
<path d="M31.4111 199.5H15.3281C14.8093 199.5 14.3767 199.897 14.3318 200.414L1.00364 353.934C0.953586 354.511 1.37623 355.009 1.95484 355.02C36.757 355.685 111.295 356.584 139.411 355C167.612 353.411 261.909 349.719 306.474 348.035C307.011 348.015 307.411 347.575 307.411 347.037V342.5M31.4111 199.5V2C31.4111 1.44772 31.8589 1 32.4111 1H1120.91C1121.46 1 1121.91 1.44772 1121.91 2V86.5M31.4111 199.5H80.4111C80.9634 199.5 81.4111 199.052 81.4111 198.5V167M307.411 342.5H392.911C436.911 339 532.411 330.9 562.411 326.5C565.584 326.035 569.638 325.442 574.411 324.746M307.411 342.5V204.5C307.411 203.948 307.859 203.5 308.411 203.5H310.411M1121.91 86.5H1146.91C1147.46 86.5 1147.91 86.9477 1147.91 87.5V217.223C1147.91 217.68 1147.62 218.073 1147.18 218.186C1129.52 222.675 1080.13 234.801 1017.41 249C954.487 263.247 889.965 275.406 864.712 279.859C864.234 279.943 863.911 280.354 863.911 280.84V298C863.911 298.552 863.463 299 862.911 299H751.983C751.935 299 751.889 299.003 751.842 299.01C706.509 305.571 614.758 318.863 574.411 324.746M1121.91 86.5V94.5M31.9111 139H84.4111M80.9111 153V139M96.9111 139H106.911M120.911 139H138.411M151.911 139H165.911M179.911 139H284.911M298.411 139H306.911M320.411 139H323.911M338.411 139H358.911M364.911 139H358.911M378.911 139H396.911C397.463 139 397.911 138.552 397.911 138V97.5M81.9111 184.5H84.9111M124.911 176V183.5C124.911 184.052 124.463 184.5 123.911 184.5H100.911M124.911 176H120.411M124.911 176H200.411M107.411 176H101.911C101.359 176 100.911 176.448 100.911 177V184.5M97.4111 184.5H100.911M397.911 176H400.411C400.963 176 401.411 176.448 401.411 177V201.5M236.411 176H310.411M310.411 176H355.411M310.411 176V203.5M310.411 203.5H360.411M366.411 176H375.911M375.911 176H387.411M375.911 176V203.5M375.911 203.5H395.411M375.911 203.5H360.411M407.411 203.5H395.411M395.411 203.5V216M395.411 269V280M395.411 280V286.5M395.411 280H360.411M360.411 280V304M360.411 280V241.5M360.411 203.5V241.5M360.411 241.5H395.411M395.411 232V241.5M395.411 241.5V254M395.411 308.5V325M395.411 341.5V325M440.411 338.5V327.5M440.411 313.5V304C440.411 303.448 440.859 303 441.411 303H467.411M467.411 303V307.5C467.411 308.052 467.859 308.5 468.411 308.5H484.911M467.411 303V280M484.911 308.5V334.5M484.911 308.5V280M484.911 203.5H448.911M484.911 203.5V209M484.911 203.5V197.5M448.911 203.5H428.911M448.911 203.5V216M448.911 269V279C448.911 279.552 449.359 280 449.911 280H467.411M484.911 280H467.411M484.911 280V250.5M448.911 232V241.5M448.911 241.5V254M448.911 241.5H484.911M484.911 241.5V250.5M484.911 241.5V209M484.911 250.5H495.411M528.411 330.5V309.5C528.411 308.948 528.859 308.5 529.411 308.5H532.411C532.963 308.5 533.411 308.052 533.411 307.5V250.5M533.411 250.5V209M533.411 250.5H521.161M533.411 209H552.911M533.411 209H521.161M484.911 209H494.411M508.911 250.5H521.161M521.161 250.5V209M521.161 209H508.911M521.161 209V203.5M484.911 184.5V176.5C484.911 175.948 485.359 175.5 485.911 175.5H521.161M521.161 175.5V189M521.161 175.5H574.411M574.411 175.5H589.411M574.411 175.5V282M602.411 176H674.411M1040.91 176H1138.43C1138.74 176 1139.02 176.136 1139.21 176.371L1147.41 186.5M952.411 176H1022.91M1022.91 176H1026.91M1022.91 176V248M900.911 176H934.911M934.911 176H939.911M934.911 176V203.5M934.911 267V203.5M934.911 203.5H849.911C849.359 203.5 848.911 203.052 848.911 202.5V189M775.911 176H848.911M848.911 176V189M848.911 176H863.911M887.911 176H863.911M687.411 176H708.411M757.411 176H762.411M757.411 176V250.5M757.411 176H708.411M757.411 299V250.5M217.911 201L217.411 176M99.9111 139V129C99.9111 128.448 100.359 128 100.911 128H126.411M126.411 128V130.5M126.411 128V1.5M126.411 130.5H155.911C156.463 130.5 156.911 130.948 156.911 131.5V138C156.911 138.552 156.463 139 155.911 139H127.411C126.859 139 126.411 138.552 126.411 138V130.5ZM601.911 138.5H619.911M619.911 138.5H674.411M619.911 138.5V145.5M619.911 138.5V90M687.411 138.5H739.911M739.911 138.5V134C739.911 133.448 740.359 133 740.911 133H756.911M739.911 138.5H743.911M1013.41 138.5H1019.91C1020.46 138.5 1020.91 138.052 1020.91 137.5V109M989.911 138.5H994.911M994.911 138.5H999.911M994.911 138.5V109M994.911 109H979.161M994.911 109V96M994.911 109H1010.91M960.911 138.5H964.411M964.411 138.5H973.911M964.411 138.5V109M964.411 109V97C964.411 96.4477 964.859 96 965.411 96H979.161M964.411 109H963.411M964.411 109H979.161M979.161 109V96M979.161 96H985.411M994.911 96H1010.91M994.911 96H985.411M994.911 96H1020.91M1010.91 96H1020.91M1010.91 96V109M985.411 96V58.5M936.411 138.5H947.411M936.411 138.5V110M936.411 138.5H928.911M936.411 96V1M936.411 96V110M936.411 96H908.411M840.911 138.5H845.411M845.411 138.5V96.5M845.411 138.5H911.911M845.411 96.5H846.411M845.411 96.5H810.411C809.859 96.5 809.411 96.9477 809.411 97.5V138.5M845.411 96.5C845.411 96.2239 845.635 96 845.911 96H908.411M775.411 138.5H809.411M809.411 138.5H828.411M754.411 138.5H758.161M758.161 138.5H761.911M758.161 138.5V1.5M619.911 169.5V281C619.911 281.552 619.463 282 618.911 282H574.411M570.411 90V138.5M570.411 90V1.5M570.411 90H619.911M567.911 138.5H570.411M570.411 138.5H587.911M553.911 138.5H480.411C479.859 138.5 479.411 138.052 479.411 137.5V98.5C479.411 97.9477 478.963 97.5 478.411 97.5H423.411M323.411 139V129C323.411 128.448 323.859 128 324.411 128H341.911M358.911 128H341.911M358.911 128V139M358.911 128V73.5M341.911 128V139M302.411 139V74.5C302.411 73.9477 302.859 73.5 303.411 73.5H358.911M1118.41 176V169M1070.41 132H1067.41C1066.86 132 1066.41 131.552 1066.41 131V119M1118.41 146V132M1118.41 132V120C1118.41 119.448 1117.96 119 1117.41 119H1091.16M1118.41 132H1110.91M1084.91 132H1091.16M1091.16 132H1097.41M1091.16 132V119M1091.16 119H1066.41M1066.41 119V96M1066.41 96V2M1066.41 96H1055.41M1023.16 96H1032.91M1023.16 96V87M1023.16 96H1020.91M1023.16 66.5V58.5M1023.16 58.5V42.5M1023.16 58.5H985.411M985.411 58.5V1M1023.16 23V1M570.411 54H619.397C619.955 54 620.405 54.4562 620.397 55.0139L619.911 90M395.411 325H380.911M358.911 73.5H396.911C397.463 73.5 397.911 73.9477 397.911 74.5V97.5M574.411 324.746V282M936.411 110H909.411C908.859 110 908.411 109.552 908.411 109V96M1020.91 96V109M1020.91 109H1010.91M848.911 189H862.911C863.463 189 863.911 188.552 863.911 188V176M757.411 250.5H709.411C708.859 250.5 708.411 250.052 708.411 249.5V197.5M397.911 97.5H401.411M935.911 96H946.911M216.911 176H222.411M212.911 176H216.411M708.411 176V181.5" stroke="#BFC4C8" stroke-width="2" stroke-linecap="round" stroke-linejoin="round"/>
</g>
<text id="title" transform="translate(1034.76 81.0308) rotate(-90.75)" fill="#172736" xml:space="preserve" style="white-space: pre" font-family="CoFo Weather 20240219" font-size="12" font-weight="500" letter-spacing="0em"><tspan x="0.304688" y="10.14">&#x41b;&#x438;&#x444;&#x442;&#x43e;&#x432;&#x43e;&#x439; &#10;</tspan><tspan x="12.6504" y="22.14">&#x445;&#x43e;&#x43b;&#x43b; 2</tspan></text>
<text id="title_2" transform="translate(407.762 293.031) rotate(-90.75)" fill="#172736" xml:space="preserve" style="white-space: pre" font-family="CoFo Weather 20240219" font-size="12" font-weight="500" letter-spacing="0em"><tspan x="0.304688" y="10.14">&#x41b;&#x438;&#x444;&#x442;&#x43e;&#x432;&#x43e;&#x439; &#10;</tspan><tspan x="14.1152" y="22.14">&#x445;&#x43e;&#x43b;&#x43b; 1</tspan></text>
<g id="b3f8-k">
<path id="Vector 27" d="M845.911 138.577H936.411V110H908.277V96H845.911V138.577Z" fill="#FFEDD6" stroke="#FFCF94" stroke-width="2.5" stroke-linecap="round" stroke-linejoin="round"/>
<text id="title_3" fill="#172736" xml:space="preserve" style="white-space: pre" font-family="CoFo Weather 20240219" font-size="5.62502" font-weight="500" letter-spacing="0em"><tspan x="871.97" y="122.95">&#x41c;&#x438;&#x43d;&#x438;-&#x43a;&#x443;&#x445;&#x43d;&#x44f;</tspan></text>
<g id="Frame 10">
<rect x="882.353" y="110" width="8" height="6" rx="1.5" fill="#FFCF94"/>
<rect x="882.353" y="110" width="8" height="6" rx="1.5" stroke="#FFA436" stroke-opacity="0.2" stroke-width="0.5"/>
<text id="8&#209;&#129;" fill="#172736" xml:space="preserve" style="white-space: pre" font-family="CoFo Weather 20240219" font-size="4" font-weight="500" letter-spacing="0.02em"><tspan x="883.869" y="114.38">8&#x441;</tspan></text>
</g>
</g>
<g id="b3f8-801">
<rect id="Rectangle 8" x="29.9111" y="138" width="52" height="62" fill="#33D18F" fill-opacity="0.2" stroke="#33D18F" stroke-opacity="0.2" stroke-width="2.5" stroke-linejoin="round"/>
<text id="title_4" transform="translate(41.9111 171.032)" fill="#172736" xml:space="preserve" style="white-space: pre" font-family="CoFo Weather 20240219" font-size="4" font-weight="500" letter-spacing="0em"><tspan x="0" y="3.38">&#x41f;&#x435;&#x440;&#x435;&#x433;&#x43e;&#x432;&#x43e;&#x440;&#x43a;&#x430;</tspan></text>
<g id="Frame 22">
<rect x="49.6396" y="162" width="11.375" height="7.25" rx="1.6875" fill="#33D18F" fill-opacity="0.2"/>
<text id="801" transform="translate(51.3271 163.125)" fill="#172736" xml:space="preserve" style="white-space: pre" font-family="CoFo Weather 20240219" font-size="4.5" font-weight="500" letter-spacing="0.02em"><tspan x="0.0757716" y="4.0525">801</tspan></text>
</g>
</g>
<g id="b3f8-813">
<rect id="Rectangle 9" x="357.911" y="73" width="40" height="67" fill="#33D18F" fill-opacity="0.2" stroke="#33D18F" stroke-opacity="0.2" stroke-width="2.5" stroke-linejoin="round"/>
<text id="title_5" transform="translate(363.911 108.032)" fill="#172736" xml:space="preserve" style="white-space: pre" font-family="CoFo Weather 20240219" font-size="4" font-weight="500" letter-spacing="0em"><tspan x="0" y="3.38">&#x41f;&#x435;&#x440;&#x435;&#x433;&#x43e;&#x432;&#x43e;&#x440;&#x43a;&#x430;</tspan></text>
<g id="Frame 23">
<rect x="371.64" y="99" width="11.375" height="7.25" rx="1.6875" fill="#33D18F" fill-opacity="0.2"/>
<text id="813" transform="translate(373.327 100.125)" fill="#172736" xml:space="preserve" style="white-space: pre" font-family="CoFo Weather 20240219" font-size="4.5" font-weight="500" letter-spacing="0.02em"><tspan x="0.222988" y="4.0525">813</tspan></text>
</g>
</g>
<g id="b3f8-825">
<rect id="Rectangle 11" x="808.911" y="96" width="36" height="43" fill="#33D18F" fill-opacity="0.2" stroke="#33D18F" stroke-opacity="0.2" stroke-width="2.5" stroke-linejoin="round"/>
<text id="title_6" transform="translate(812.911 119.032)" fill="#172736" xml:space="preserve" style="white-space: pre" font-family="CoFo Weather 20240219" font-size="4" font-weight="500" letter-spacing="0em"><tspan x="0" y="3.38">&#x41f;&#x435;&#x440;&#x435;&#x433;&#x43e;&#x432;&#x43e;&#x440;&#x43a;&#x430;</tspan></text>
<g id="Frame 25">
<rect x="820.64" y="110" width="12.375" height="7.25" rx="1.6875" fill="#33D18F" fill-opacity="0.2"/>
<text id="825" transform="translate(822.327 111.125)" fill="#172736" xml:space="preserve" style="white-space: pre" font-family="CoFo Weather 20240219" font-size="4.5" font-weight="500" letter-spacing="0.02em"><tspan x="0.153896" y="4.0525">825</tspan></text>
</g>
</g>
</g>
</svg>
