<svg width="1149" height="358" viewBox="0 0 1149 358" fill="none" xmlns="http://www.w3.org/2000/svg">
<g id="b3f9">
<g id="Vector">
<path d="M14.3318 200.941C14.3767 200.425 14.8093 200.028 15.3281 200.028H31.4111V2.52783C31.4111 1.97555 31.8588 1.52783 32.4111 1.52783H217.411H302.411H347.911H1120.91C1121.46 1.52783 1121.91 1.97555 1121.91 2.52783V87.0278H1146.91C1147.46 87.0278 1147.91 87.4755 1147.91 88.0278V217.751C1147.91 218.208 1147.62 218.601 1147.18 218.714C1129.52 223.203 1080.13 235.328 1017.41 249.528C954.487 263.775 889.965 275.933 864.712 280.387C864.234 280.471 863.911 280.882 863.911 281.367V298.528C863.911 299.08 863.463 299.528 862.911 299.528H751.983C751.935 299.528 751.889 299.531 751.842 299.538C706.509 306.099 614.758 319.391 574.411 325.274C569.638 325.97 565.584 326.563 562.411 327.028C532.411 331.428 436.911 339.528 392.911 343.028H307.411V347.565C307.411 348.102 307.011 348.543 306.474 348.563C261.909 350.247 167.612 353.939 139.411 355.528C111.295 357.112 36.757 356.213 1.95484 355.548C1.37623 355.537 0.953586 355.039 1.00364 354.462L14.3318 200.941Z" fill="white"/>
<path d="M468.411 309.028C467.859 309.028 467.411 308.58 467.411 308.028V303.528V280.528H484.911V309.028H468.411Z" fill="white"/>
<path d="M533.411 209.528V251.028H521.161V209.528H533.411Z" fill="white"/>
<path d="M156.911 132.028C156.911 131.476 156.463 131.028 155.911 131.028H126.411V138.528C126.411 139.08 126.859 139.528 127.411 139.528H155.911C156.463 139.528 156.911 139.08 156.911 138.528V132.028Z" fill="white"/>
<path d="M31.4111 200.028H15.3281C14.8093 200.028 14.3767 200.425 14.3318 200.941L1.00364 354.462C0.953586 355.039 1.37623 355.537 1.95484 355.548C36.757 356.213 111.295 357.112 139.411 355.528C167.612 353.939 261.909 350.247 306.474 348.563C307.011 348.543 307.411 348.102 307.411 347.565V343.028M31.4111 200.028V2.52783C31.4111 1.97555 31.8588 1.52783 32.4111 1.52783H217.411M31.4111 200.028H80.4111C80.9634 200.028 81.4111 199.58 81.4111 199.028V167.528M307.411 343.028H392.911C436.911 339.528 532.411 331.428 562.411 327.028C565.584 326.563 569.638 325.97 574.411 325.274M307.411 343.028V205.028C307.411 204.476 307.859 204.028 308.411 204.028H310.411M1121.91 87.0278H1146.91C1147.46 87.0278 1147.91 87.4755 1147.91 88.0278V217.751C1147.91 218.208 1147.62 218.601 1147.18 218.714C1129.52 223.203 1080.13 235.328 1017.41 249.528C954.487 263.775 889.965 275.933 864.712 280.387C864.234 280.471 863.911 280.882 863.911 281.367V298.528C863.911 299.08 863.463 299.528 862.911 299.528H751.983C751.935 299.528 751.889 299.531 751.842 299.538C706.509 306.099 614.758 319.391 574.411 325.274M1121.91 87.0278V2.52783C1121.91 1.97555 1121.46 1.52783 1120.91 1.52783H347.911M1121.91 87.0278V95.0278M31.9111 139.528H84.4111M80.9111 153.528V139.528M96.9111 139.528H106.911M120.911 139.528H138.411M151.911 139.528H165.911M179.911 139.528H217.411M284.911 139.528H217.411M298.411 139.528H306.911M320.411 139.528H323.911M338.411 139.528H358.911M364.911 139.528H358.911M378.911 139.528H396.911C397.463 139.528 397.911 139.08 397.911 138.528V98.0278M81.9111 185.028H84.9111M124.911 176.528V184.028C124.911 184.58 124.463 185.028 123.911 185.028H100.911M124.911 176.528H120.411M124.911 176.528H200.411M107.411 176.528H101.911C101.359 176.528 100.911 176.976 100.911 177.528V185.028M97.4111 185.028H100.911M397.911 176.528H400.411C400.963 176.528 401.411 176.976 401.411 177.528V202.028M236.411 176.528H310.411M310.411 176.528H355.411M310.411 176.528V204.028M310.411 204.028H360.411M366.411 176.528H375.911M375.911 176.528H387.411M375.911 176.528V204.028M375.911 204.028H395.411M375.911 204.028H360.411M407.411 204.028H395.411M395.411 204.028V216.528M395.411 269.528V280.528M395.411 280.528V287.028M395.411 280.528H360.411M360.411 280.528V304.528M360.411 280.528V242.028M360.411 204.028V242.028M360.411 242.028H395.411M395.411 232.528V242.028M395.411 242.028V254.528M395.411 309.028V325.528M395.411 342.028V325.528M440.411 339.028V328.028M440.411 314.028V304.528C440.411 303.976 440.859 303.528 441.411 303.528H467.411M467.411 303.528V308.028C467.411 308.58 467.859 309.028 468.411 309.028H484.911M467.411 303.528V280.528M484.911 309.028V335.028M484.911 309.028V280.528M484.911 204.028H448.911M484.911 204.028V209.528M484.911 204.028V198.028M448.911 204.028H428.911M448.911 204.028V216.528M448.911 269.528V279.528C448.911 280.08 449.359 280.528 449.911 280.528H467.411M484.911 280.528H467.411M484.911 280.528V251.028M448.911 232.528V242.028M448.911 242.028V254.528M448.911 242.028H484.911M484.911 242.028V251.028M484.911 242.028V209.528M484.911 251.028H495.411M528.411 331.028V310.028C528.411 309.476 528.859 309.028 529.411 309.028H532.411C532.963 309.028 533.411 308.58 533.411 308.028V251.028M533.411 251.028V209.528M533.411 251.028H521.161M533.411 209.528H552.911M533.411 209.528H521.161M484.911 209.528H494.411M508.911 251.028H521.161M521.161 251.028V209.528M521.161 209.528H508.911M521.161 209.528V204.028M484.911 185.028V177.028C484.911 176.476 485.359 176.028 485.911 176.028H521.161M521.161 176.028V189.528M521.161 176.028H574.411M574.411 176.028H589.411M574.411 176.028V248.528M602.411 176.528H674.411M1040.91 176.528H1138.43C1138.74 176.528 1139.02 176.664 1139.21 176.899L1147.41 187.028M952.411 176.528H1022.91M1022.91 176.528H1026.91M1022.91 176.528V248.528M900.911 176.528H934.911M934.911 176.528H939.911M934.911 176.528V204.028M934.911 267.528V204.028M934.911 204.028H849.911C849.359 204.028 848.911 203.58 848.911 203.028V189.528M775.911 176.528H848.911M848.911 176.528V189.528M848.911 176.528H863.911M887.911 176.528H863.911M687.411 176.528H708.411M757.411 176.528H762.411M757.411 176.528V251.028M757.411 176.528H708.411M757.411 299.528V251.028M217.411 352.056V176.528M99.9111 139.528V129.528C99.9111 128.976 100.359 128.528 100.911 128.528H126.411M126.411 128.528V131.028M126.411 128.528V2.02783M126.411 131.028H155.911C156.463 131.028 156.911 131.476 156.911 132.028V138.528C156.911 139.08 156.463 139.528 155.911 139.528H127.411C126.859 139.528 126.411 139.08 126.411 138.528V131.028ZM601.911 139.028H619.911M619.911 139.028H674.411M619.911 139.028V146.028M687.411 139.028H739.911M739.911 139.028V134.528C739.911 133.976 740.359 133.528 740.911 133.528H756.911M739.911 139.028H743.911M1013.41 139.028H1019.91C1020.46 139.028 1020.91 138.58 1020.91 138.028V109.528M989.911 139.028H994.911M994.911 139.028H999.911M994.911 139.028V109.528M994.911 109.528H979.161M994.911 109.528V96.5278M994.911 109.528H1010.91M960.911 139.028H964.411M964.411 139.028H973.911M964.411 139.028V109.528M964.411 109.528V97.5278C964.411 96.9755 964.859 96.5278 965.411 96.5278H979.161M964.411 109.528H963.411M964.411 109.528H979.161M979.161 109.528V96.5278M979.161 96.5278H985.411M994.911 96.5278H1010.91M994.911 96.5278H985.411M994.911 96.5278H1020.91M1010.91 96.5278H1020.91M1010.91 96.5278V109.528M985.411 96.5278V59.0278M936.411 139.028H947.411M936.411 139.028V110.528M936.411 139.028H928.911M936.411 96.5278V1.52783M936.411 96.5278V110.528M936.411 96.5278H908.411M840.911 139.028H845.411M845.411 139.028V97.0278M845.411 139.028H911.911M845.411 97.0278H846.411M845.411 97.0278H810.411C809.859 97.0278 809.411 97.4755 809.411 98.0278V139.028M845.411 97.0278C845.411 96.7517 845.635 96.5278 845.911 96.5278H908.411M775.411 139.028H809.411M809.411 139.028H828.411M754.411 139.028H758.161M758.161 139.028H761.911M758.161 139.028V2.02783M619.911 170.028V247.528C619.911 248.08 619.463 248.528 618.911 248.528H574.411M567.911 139.028H570.411M570.411 139.028H587.911M570.411 139.028V2.02783M553.911 139.028H480.411C479.859 139.028 479.411 138.58 479.411 138.028V99.0278C479.411 98.4755 478.963 98.0278 478.411 98.0278H424.411C423.859 98.0278 423.411 97.5801 423.411 97.0278V94.0278M323.411 139.528V129.528C323.411 128.976 323.859 128.528 324.411 128.528H341.911M358.911 128.528H341.911M358.911 128.528V139.528M358.911 128.528V74.0278M341.911 128.528V139.528M302.411 139.528V74.0278M302.411 74.0278H347.911M302.411 74.0278V70.5278M1118.41 176.528V169.528M1070.41 132.528H1067.41C1066.86 132.528 1066.41 132.08 1066.41 131.528V119.528M1118.41 146.528V132.528M1118.41 132.528V120.528C1118.41 119.976 1117.96 119.528 1117.41 119.528H1091.16M1118.41 132.528H1110.91M1084.91 132.528H1091.16M1091.16 132.528H1097.41M1091.16 132.528V119.528M1091.16 119.528H1066.41M1066.41 119.528V96.5278M1066.41 96.5278V2.52783M1066.41 96.5278H1055.41M1023.16 96.5278H1032.91M1023.16 96.5278V87.5278M1023.16 96.5278H1020.91M1023.16 67.0278V59.0278M1023.16 59.0278V43.0278M1023.16 59.0278H985.411M985.411 59.0278V1.52783M1023.16 23.5278V1.52783M395.411 325.528H380.911M358.911 74.0278H396.911C397.463 74.0278 397.911 74.4755 397.911 75.0278V98.0278M358.911 74.0278H347.911M574.411 325.274V248.528M936.411 110.528H909.411C908.859 110.528 908.411 110.08 908.411 109.528V96.5278M1020.91 96.5278V109.528M1020.91 109.528H1010.91M848.911 189.528H862.911C863.463 189.528 863.911 189.08 863.911 188.528V176.528M757.411 251.028H709.411C708.859 251.028 708.411 250.58 708.411 250.028V198.028M397.911 98.0278H401.411M935.911 96.5278H946.911M216.911 176.528H222.411M212.911 176.528H216.411M708.411 176.528V182.028M347.911 74.0278V1.52783M347.911 1.52783H302.411M302.411 58.5278V1.52783M302.411 1.52783H217.411M217.411 139.528V1.52783M423.411 82.0278V53.5278M423.411 53.5278H415.911M423.411 53.5278H437.911M484.911 53.5278V97.0278C484.911 97.5801 484.463 98.0278 483.911 98.0278H478.911M484.911 53.5278V49.0278M484.911 53.5278H437.911M484.911 36.0278V1.52783M437.911 53.5278V1.52783M401.911 53.5278H398.411M398.411 53.5278V58.5278M398.411 53.5278V1.52783" stroke="#BFC4C8" stroke-width="2" stroke-linecap="round" stroke-linejoin="round"/>
</g>
<text id="title" transform="translate(1032.76 83.5586) rotate(-90.75)" fill="#172736" style="white-space: pre" xml:space="preserve" font-family="CoFo Weather 20240219" font-size="12" font-weight="500" letter-spacing="0em"><tspan x="0.304688" y="10.14">&#x41b;&#x438;&#x444;&#x442;&#x43e;&#x432;&#x43e;&#x439; &#10;</tspan><tspan x="12.6504" y="22.14">&#x445;&#x43e;&#x43b;&#x43b; 2</tspan></text>
<g id="b3f9-917">
<rect id="Rectangle 9" x="422.911" y="52.25" width="62" height="46" fill="#33D18F" fill-opacity="0.2" stroke="#33D18F" stroke-opacity="0.2" stroke-width="2.5" stroke-linejoin="round"/>
<text id="title_2" transform="translate(424.911 77.25)" fill="#172736" style="white-space: pre" xml:space="preserve" font-family="CoFo Weather 20240219" font-size="4" font-weight="500" letter-spacing="0em"><tspan x="13.6738" y="3.38">&#x41f;&#x435;&#x440;&#x435;&#x433;&#x43e;&#x432;&#x43e;&#x440;&#x43a;&#x430;</tspan></text>
<g id="Frame 23">
<rect x="443.911" y="69.25" width="16" height="5" rx="1.6875" fill="#33D18F" fill-opacity="0.2"/>
<text id="917" transform="translate(447.911 69.25)" fill="#172736" style="white-space: pre" xml:space="preserve" font-family="CoFo Weather 20240219" font-size="4.5" font-weight="500" letter-spacing="0.02em"><tspan x="0.317471" y="4.0525">917</tspan></text>
</g>
</g>
<g id="b3f9-915">
<rect id="Rectangle 12" x="398.911" y="1.25" width="38" height="51" fill="#33D18F" fill-opacity="0.2" stroke="#33D18F" stroke-opacity="0.2" stroke-width="2.5" stroke-linejoin="round"/>
<text id="title_3" transform="translate(403.911 28.25)" fill="#172736" style="white-space: pre" xml:space="preserve" font-family="CoFo Weather 20240219" font-size="4" font-weight="500" letter-spacing="0em"><tspan x="0" y="3.38">&#x41f;&#x435;&#x440;&#x435;&#x433;&#x43e;&#x432;&#x43e;&#x440;&#x43a;&#x430;</tspan></text>
<g id="Frame 26">
<rect x="411.911" y="21.25" width="10" height="5" rx="1.6875" fill="#33D18F" fill-opacity="0.2"/>
<text id="915" transform="translate(412.911 21.25)" fill="#172736" style="white-space: pre" xml:space="preserve" font-family="CoFo Weather 20240219" font-size="4.5" font-weight="500" letter-spacing="0.02em"><tspan x="0.227383" y="4.0525">915</tspan></text>
</g>
</g>
<g id="b3f9-k">
<path id="Vector 27" d="M845.911 139.105H936.411V110.528H908.277V97.0278H845.911V139.105Z" fill="#FFEDD6" stroke="#FFCF94" stroke-width="2.5" stroke-linecap="round" stroke-linejoin="round"/>
<text id="title_4" fill="#172736" style="white-space: pre" xml:space="preserve" font-family="CoFo Weather 20240219" font-size="5.62502" font-weight="500" letter-spacing="0em"><tspan x="871.97" y="123.478">&#x41c;&#x438;&#x43d;&#x438;-&#x43a;&#x443;&#x445;&#x43d;&#x44f;</tspan></text>
<g id="Frame 10">
<rect x="882.353" y="110.528" width="8" height="6" rx="1.5" fill="#FFCF94"/>
<rect x="882.353" y="110.528" width="8" height="6" rx="1.5" stroke="#FFA436" stroke-opacity="0.2" stroke-width="0.5"/>
<text id="9c" fill="#172736" style="white-space: pre" xml:space="preserve" font-family="CoFo Weather 20240219" font-size="4" font-weight="500" letter-spacing="0.02em"><tspan x="883.904" y="114.908">9c</tspan></text>
</g>
</g>
<g id="b3f9-925">
<rect id="Rectangle 11" x="808.911" y="96.5278" width="36" height="43" fill="#33D18F" fill-opacity="0.2" stroke="#33D18F" stroke-opacity="0.2" stroke-width="2.5" stroke-linejoin="round"/>
<text id="title_5" transform="translate(812.911 119.56)" fill="#172736" style="white-space: pre" xml:space="preserve" font-family="CoFo Weather 20240219" font-size="4" font-weight="500" letter-spacing="0em"><tspan x="0" y="3.38">&#x41f;&#x435;&#x440;&#x435;&#x433;&#x43e;&#x432;&#x43e;&#x440;&#x43a;&#x430;</tspan></text>
<g id="Frame 25">
<rect x="820.64" y="110.528" width="12.375" height="7.25" rx="1.6875" fill="#33D18F" fill-opacity="0.2"/>
<text id="925" transform="translate(822.327 111.653)" fill="#172736" style="white-space: pre" xml:space="preserve" font-family="CoFo Weather 20240219" font-size="4.5" font-weight="500" letter-spacing="0.02em"><tspan x="0.204433" y="4.0525">925</tspan></text>
</g>
</g>
<g id="b3f9-paper">
<text id="title_6" transform="translate(417.911 185.266) rotate(-0.844763)" fill="#172736" style="white-space: pre" xml:space="preserve" font-family="CoFo Weather 20240219" font-size="8" font-weight="500" letter-spacing="0em"><tspan x="0" y="6.76">&#x423;&#x442;&#x438;&#x43b;&#x438;&#x437;&#x430;&#x446;&#x438;&#x44f; </tspan><tspan x="0" y="14.76">&#x431;&#x443;&#x43c;&#x430;&#x433;&#x438;</tspan></text>
<path id="Ellipse 40" d="M415.911 189.75C415.911 192.235 413.896 194.25 411.411 194.25C408.926 194.25 406.911 192.235 406.911 189.75C406.911 187.265 408.926 185.25 411.411 185.25C413.896 185.25 415.911 187.265 415.911 189.75Z" fill="#73E553"/>
</g>
</g>
</svg>
