<svg width="328" height="660" viewBox="0 0 328 660" fill="none" xmlns="http://www.w3.org/2000/svg">
<g id="floors">
<g id="1">
<path id="Vector" d="M291.976 557.214C301.612 554.205 308.423 552.057 318.475 553.789L319.459 553.969L319.703 554.016L319.928 554.122C321.766 554.985 324.714 556.651 325.222 559.919C325.309 560.473 325.312 561.051 325.246 561.633V624.2L324.565 624.798C310.168 637.437 291.183 645.696 277.3 648.907L273.939 649.731L273.888 649.744L273.837 649.754C198.872 663.997 103.493 657.854 4.10522 635.6L2.54175 635.25V576.36L2.28491 573.75L2.13745 572.256L3.53198 571.697C53.1206 551.841 86.2317 556.466 126.873 562.128C148.98 565.208 173.32 568.598 203.914 568.598C255.584 568.598 277.492 561.736 291.976 557.214Z" fill="#CACED0" stroke="#EEEEEE" stroke-width="4"/>
<path id="Vector_2" fill-rule="evenodd" clip-rule="evenodd" d="M273.463 647.789L276.824 646.966V589.366C279.705 588.387 282.505 587.467 285.224 586.573C300.376 581.593 313.034 577.433 323.246 568.598V561.138C323.217 565.816 315.706 573.184 286.124 583.231C229.294 602.531 105.999 598.365 4.27515 573.554L4.54202 576.263C103.778 598.484 198.862 604.578 273.463 590.404V647.789Z" fill="#EEEEEE"/>
</g>
<g id="2">
<path id="Vector_3" d="M291.976 495.973C301.612 492.964 308.423 490.816 318.475 492.548L319.459 492.728L319.703 492.774L319.928 492.881C321.766 493.744 324.714 495.41 325.222 498.678C325.309 499.232 325.312 499.81 325.246 500.392V562.959L324.565 563.557C310.168 576.196 291.183 584.455 277.3 587.666L273.939 588.49L273.888 588.503L273.837 588.513C198.872 602.756 103.493 596.613 4.10522 574.358L2.54175 574.009V515.119L2.28491 512.509L2.13745 511.015L3.53198 510.456C53.1206 490.6 86.2317 495.224 126.873 500.887C148.98 503.967 173.32 507.356 203.914 507.356C255.584 507.356 277.492 500.495 291.976 495.973Z" fill="#CACED0" stroke="#EEEEEE" stroke-width="4"/>
<path id="Vector_4" fill-rule="evenodd" clip-rule="evenodd" d="M273.463 586.548L276.824 585.724V528.125C279.705 527.146 282.505 526.226 285.224 525.332C300.376 520.352 313.034 516.192 323.246 507.357V499.897C323.217 504.575 315.706 511.943 286.124 521.989C229.294 541.29 105.999 537.124 4.27515 512.313L4.54202 515.022C103.778 537.243 198.862 543.337 273.463 529.163V586.548Z" fill="#EEEEEE"/>
</g>
<g id="3">
<path id="Vector_5" d="M291.976 434.731C301.612 431.723 308.423 429.574 318.475 431.307L319.459 431.486L319.703 431.533L319.928 431.64C321.766 432.503 324.714 434.168 325.222 437.437C325.309 437.991 325.312 438.569 325.246 439.15V501.718L324.565 502.315C310.168 514.955 291.183 523.214 277.3 526.425L273.939 527.249L273.888 527.262L273.837 527.271C198.872 541.514 103.493 535.372 4.10522 513.117L2.54175 512.768V453.878L2.28491 451.268L2.13745 449.773L3.53198 449.215C53.1206 429.358 86.2317 433.983 126.873 439.646C148.98 442.726 173.32 446.115 203.914 446.115C255.584 446.115 277.492 439.253 291.976 434.731Z" fill="#CACED0" stroke="#EEEEEE" stroke-width="4"/>
<path id="Vector_6" fill-rule="evenodd" clip-rule="evenodd" d="M273.463 525.306L276.824 524.483V466.883C279.705 465.905 282.505 464.985 285.224 464.091C300.376 459.111 313.034 454.951 323.246 446.116V438.656C323.217 443.333 315.706 450.701 286.124 460.748C229.294 480.049 105.999 475.883 4.27515 451.072L4.54202 453.781C103.778 476.002 198.862 482.095 273.463 467.922V525.306Z" fill="#EEEEEE"/>
</g>
<g id="4">
<path id="Vector_7" d="M291.976 373.49C301.612 370.482 308.423 368.333 318.475 370.065L319.459 370.245L319.703 370.292L319.928 370.398C321.766 371.261 324.714 372.927 325.222 376.195C325.309 376.75 325.312 377.328 325.246 377.909V440.477L324.565 441.074C310.168 453.713 291.183 461.972 277.3 465.184L273.939 466.008L273.888 466.021L273.837 466.03C198.872 480.273 103.493 474.131 4.10522 451.876L2.54175 451.526V392.637L2.28491 390.026L2.13745 388.532L3.53198 387.974C53.1206 368.117 86.2317 372.742 126.873 378.404C148.98 381.484 173.32 384.874 203.914 384.874C255.584 384.874 277.492 378.012 291.976 373.49Z" fill="#CACED0" stroke="#EEEEEE" stroke-width="4"/>
<path id="Vector_8" fill-rule="evenodd" clip-rule="evenodd" d="M273.463 464.065L276.824 463.242V405.642C279.705 404.664 282.505 403.743 285.224 402.85C300.376 397.869 313.034 393.709 323.246 384.874V377.414C323.217 382.092 315.706 389.46 286.124 399.507C229.294 418.807 105.999 414.641 4.27515 389.831L4.54202 392.54C103.778 414.761 198.862 420.854 273.463 406.68V464.065Z" fill="#EEEEEE"/>
</g>
<g id="5">
<path id="Vector_9" d="M291.976 312.249C301.612 309.241 308.423 307.092 318.475 308.824L319.459 309.004L319.703 309.051L319.928 309.157C321.766 310.02 324.714 311.686 325.222 314.954C325.309 315.509 325.312 316.086 325.246 316.668V379.235L324.565 379.833C310.168 392.472 291.183 400.731 277.3 403.942L273.939 404.767L273.888 404.779L273.837 404.789C198.872 419.032 103.493 412.89 4.10522 390.635L2.54175 390.285V331.396L2.28491 328.785L2.13745 327.291L3.53198 326.732C53.1206 306.876 86.2317 311.501 126.873 317.163C148.98 320.243 173.32 323.633 203.914 323.633C255.584 323.633 277.492 316.771 291.976 312.249Z" fill="#CACED0" stroke="#EEEEEE" stroke-width="4"/>
<path id="Vector_10" fill-rule="evenodd" clip-rule="evenodd" d="M273.463 402.824L276.824 402.001V344.401C279.705 343.422 282.505 342.502 285.224 341.608C300.376 336.628 313.034 332.468 323.246 323.633V316.173C323.217 320.851 315.706 328.219 286.124 338.266C229.294 357.566 105.999 353.4 4.27515 328.59L4.54202 331.299C103.778 353.519 198.862 359.613 273.463 345.439V402.824Z" fill="#EEEEEE"/>
</g>
<g id="6">
<path id="Vector_11" d="M291.976 251.008C301.612 247.999 308.423 245.851 318.475 247.583L319.459 247.763L319.703 247.81L319.928 247.916C321.766 248.779 324.714 250.445 325.222 253.713C325.309 254.267 325.312 254.845 325.246 255.427V317.994L324.565 318.592C310.168 331.231 291.183 339.49 277.3 342.701L273.939 343.525L273.888 343.538L273.837 343.548C198.872 357.791 103.493 351.648 4.10522 329.394L2.54175 329.044V270.154L2.28491 267.544L2.13745 266.05L3.53198 265.491C53.1206 245.635 86.2317 250.259 126.873 255.922C148.98 259.002 173.32 262.392 203.914 262.392C255.584 262.392 277.492 255.53 291.976 251.008Z" fill="#CACED0" stroke="#EEEEEE" stroke-width="4"/>
<path id="Vector_12" fill-rule="evenodd" clip-rule="evenodd" d="M273.463 341.583L276.824 340.759V283.16C279.705 282.181 282.505 281.261 285.224 280.367C300.376 275.387 313.034 271.227 323.246 262.392V254.932C323.217 259.61 315.706 266.978 286.124 277.024C229.294 296.325 105.999 292.159 4.27515 267.348L4.54202 270.057C103.778 292.278 198.862 298.372 273.463 284.198V341.583Z" fill="#EEEEEE"/>
</g>
<g id="7">
<path id="Vector_13" d="M291.976 189.767C301.612 186.758 308.423 184.609 318.475 186.342L319.459 186.521L319.703 186.568L319.928 186.675C321.766 187.538 324.714 189.203 325.222 192.472C325.309 193.026 325.312 193.604 325.246 194.186V256.753L324.565 257.351C310.168 269.99 291.183 278.249 277.3 281.46L273.939 282.284L273.888 282.297L273.837 282.307C198.872 296.549 103.493 290.407 4.10522 268.152L2.54175 267.803V208.913L2.28491 206.303L2.13745 204.809L3.53198 204.25C53.1206 184.394 86.2317 189.018 126.873 194.681C148.98 197.761 173.32 201.15 203.914 201.15C255.584 201.15 277.492 194.289 291.976 189.767Z" fill="#CACED0" stroke="#EEEEEE" stroke-width="4"/>
<path id="Vector_14" fill-rule="evenodd" clip-rule="evenodd" d="M273.463 280.342L276.824 279.518V221.918C279.705 220.94 282.505 220.02 285.224 219.126C300.376 214.146 313.034 209.986 323.246 201.151V193.691C323.217 198.368 315.706 205.737 286.124 215.783C229.294 235.084 105.999 230.918 4.27515 206.107L4.54202 208.816C103.778 231.037 198.862 237.131 273.463 222.957V280.342Z" fill="#EEEEEE"/>
</g>
<g id="8">
<path id="Vector_15" d="M291.976 128.525C301.612 125.517 308.423 123.368 318.475 125.101L319.459 125.28L319.703 125.327L319.928 125.434C321.766 126.296 324.714 127.962 325.222 131.23C325.309 131.785 325.312 132.363 325.246 132.944V195.512L324.565 196.109C310.168 208.748 291.183 217.008 277.3 220.219L273.939 221.043L273.888 221.056L273.837 221.065C198.872 235.308 103.493 229.166 4.10522 206.911L2.54175 206.562V147.672L2.28491 145.062L2.13745 143.567L3.53198 143.009C53.1206 123.152 86.2317 127.777 126.873 133.439C148.98 136.52 173.32 139.909 203.914 139.909C255.584 139.909 277.492 133.047 291.976 128.525Z" fill="#CACED0" stroke="#EEEEEE" stroke-width="4"/>
<path id="Vector_16" fill-rule="evenodd" clip-rule="evenodd" d="M273.463 219.1L276.824 218.277V160.677C279.705 159.699 282.505 158.779 285.224 157.885C300.376 152.905 313.034 148.745 323.246 139.909V132.45C323.217 137.127 315.706 144.495 286.124 154.542C229.294 173.843 105.999 169.677 4.27515 144.866L4.54202 147.575C103.778 169.796 198.862 175.889 273.463 161.716V219.1Z" fill="#EEEEEE"/>
</g>
<g id="9">
<path id="Vector_17" d="M291.976 67.2842C301.612 64.2757 308.423 62.1271 318.475 63.8594L319.459 64.0391L319.703 64.0859L319.928 64.1924C321.766 65.0553 324.714 66.721 325.222 69.9893C325.309 70.5437 325.312 71.1216 325.246 71.7031V134.271L324.565 134.868C310.168 147.507 291.183 155.766 277.3 158.978L273.939 159.802L273.888 159.814L273.837 159.824C198.872 174.067 103.493 167.925 4.10522 145.67L2.54175 145.32V86.4307L2.28491 83.8203L2.13745 82.3262L3.53198 81.7676C53.1206 61.9112 86.2317 66.5358 126.873 72.1982C148.98 75.2783 173.32 78.668 203.914 78.668C255.584 78.6679 277.492 71.8061 291.976 67.2842Z" fill="#CACED0" stroke="#EEEEEE" stroke-width="4"/>
<path id="Vector_18" fill-rule="evenodd" clip-rule="evenodd" d="M273.463 157.859L276.824 157.036V99.4361C279.705 98.4576 282.505 97.5374 285.224 96.6435C300.376 91.6634 313.034 87.5034 323.246 78.6683V71.2083C323.217 75.886 315.706 83.2542 286.124 93.3008C229.294 112.601 105.999 108.435 4.27515 83.6247L4.54202 86.3338C103.778 108.555 198.862 114.648 273.463 100.474V157.859Z" fill="#EEEEEE"/>
</g>
<g id="10">
<path id="Vector_19" d="M291.976 6.04297C301.612 3.03451 308.423 0.885854 318.475 2.61816L319.459 2.79785L319.703 2.84473L319.928 2.95117C321.766 3.81407 324.714 5.47982 325.222 8.74805C325.309 9.30248 325.312 9.8804 325.246 10.4619V73.0293L324.565 73.627C310.168 86.266 291.183 94.5252 277.3 97.7363L273.939 98.5605L273.888 98.5732L273.837 98.583C198.872 112.826 103.493 106.684 4.10522 84.4287L2.54175 84.0791V25.1895L2.28491 22.5791L2.13745 21.085L3.53198 20.5264C53.1206 0.669998 86.2317 5.29462 126.873 10.957C148.98 14.0371 173.32 17.4268 203.914 17.4268C255.584 17.4267 277.492 10.5649 291.976 6.04297Z" fill="#CACED0" stroke="#EEEEEE" stroke-width="4"/>
<path id="Vector_20" fill-rule="evenodd" clip-rule="evenodd" d="M273.463 96.6179L276.824 95.7946V38.1949C279.705 37.2164 282.505 36.2962 285.224 35.4023C300.376 30.4222 313.034 26.2621 323.246 17.427V9.96712C323.217 14.6448 315.706 22.013 286.124 32.0596C229.294 51.3602 105.999 47.1941 4.27515 22.3835L4.54202 25.0926C103.778 47.3133 198.862 53.4069 273.463 39.2331V96.6179Z" fill="#EEEEEE"/>
</g>
</g>
</svg>
