<svg width="1035" height="316" viewBox="0 0 1035 316" fill="none" xmlns="http://www.w3.org/2000/svg">
<g id="map">
<g id="outline">
<path d="M129.25 314.75H252.75V286.75H412.75V270.25H752.75V244.25H819.75V219.75H899.25V197.75H983.75V154.25H1010.75V163.75H1033.75V109.25H1010.75V117.25H983.75V1.25H570.25L570.75 17.25H493.25V5.75H446.25V16.25H404.25V2.25H1.25V286.75H129.25V314.75Z" fill="white"/>
<path d="M441.75 178.75H452.75V215.25V227.25H441.75V178.75Z" fill="white"/>
<path d="M767.25 160.25H819.75V184.25H767.25V160.25Z" fill="white"/>
<path d="M244.25 267.75C244.25 281.281 233.281 292.25 219.75 292.25C206.219 292.25 195.25 281.281 195.25 267.75C195.25 254.219 206.219 243.25 219.75 243.25C233.281 243.25 244.25 254.219 244.25 267.75Z" fill="white"/>
<path d="M535.25 82.75H527.75V39.75H563.75H599.75V82.75H580.75H563.75H535.25Z" fill="white"/>
<path d="M252.75 286.75V314.75H129.25V286.75H1.25V2.25H404.25M252.75 286.75H412.75M252.75 286.75H297.25M252.75 286.75V184.75M412.75 286.75V270.25M412.75 286.75H327.75M404.25 2.25V16.25H446.25V5.75H493.25V17.25M404.25 2.25V88.75M983.75 119.25V117.25M983.75 119.25H974.25M983.75 119.25V115.75M983.75 117.25H1010.75M983.75 117.25V1.25H570.25M1010.75 117.25V109.25H1033.75V163.75H1010.75V154.25M1010.75 117.25V125.75M1010.75 154.25H983.75M1010.75 154.25V147.25M983.75 154.25V197.75H899.25M983.75 154.25V147.25M899.25 197.75V219.75H819.75V244.25H752.75M899.25 197.75V160.25M752.75 244.25V270.25H412.75M752.75 244.25H738.75V184.25M412.75 270.25V253.25M493.25 17.25H570.75L570.25 1.25M493.25 17.25L493.25 44.25M570.25 1.25V17.25M58.75 2.25V134.75H1.25M297.25 286.75H327.75M297.25 286.75V253.25M412.75 184.25V178.75H418.25M412.75 184.25V218.75M412.75 184.25H404.25M252.75 184.75V178.75M252.75 184.75H267.25M327.75 286.75V269.25M327.75 195.75V184.75M376.25 184.25H366.25M376.25 184.25V195.75M376.25 184.25H404.25M376.25 244.75V253.25M376.25 253.25H412.75M376.25 253.25V286.25M412.75 253.25V227.25M376.25 210.25V218.75M376.25 218.75V230.75M376.25 218.75H412.75M412.75 218.75V227.25M327.75 230.75V218.75M327.75 218.75V210.25M327.75 218.75H297.25M297.25 218.75V184.75M297.25 218.75V253.25M327.75 256.25V253.25M327.75 253.25V244.75M327.75 253.25H297.25M404.25 152.25V132.75M404.25 132.75V88.75M404.25 132.75H514.75M404.25 88.75H323.75C322.25 85.0833 313.35 77.75 289.75 77.75C266.15 77.75 240.25 83.0833 230.25 85.75C226.583 86.9167 216.65 89.25 206.25 89.25C195.85 89.25 179.917 84.9167 173.25 82.75H128.25M527.75 132.75H684.75M859.25 132.75H892.75V90.25M892.75 90.25H895.25M892.75 90.25H862.25M836.75 132.75H843.25M843.25 132.75H847.25M843.25 132.75V90.25M843.25 90.25H836.75M843.25 90.25H862.25M705.25 132.75H815.75M815.75 132.75H823.75M815.75 132.75V1.75M862.25 90.25V53.25M862.25 53.25V1.75M862.25 53.25H895.25M895.25 53.25V60.75M895.25 53.25V38.75M903.75 90.25H895.25M895.25 90.25V79.75M895.25 20.75V1.75M983.75 109.25H934.75M934.75 109.25V118.75M934.75 109.25V1.75M983.75 160.25H859.25M705.25 160.25H738.75V184.25M404.25 184.25V172.25M412.75 227.25H418.25M468.25 178.75H452.75M452.75 178.75H441.75M452.75 178.75V215.25M441.75 178.75H430.75M441.75 178.75V227.25M430.75 227.25H441.75M441.75 227.25H452.75M452.75 227.25V215.25M452.75 227.25V270.25M452.75 215.25H471.75M487.25 215.25H490.75M490.75 215.25V190.75M490.75 215.25V270.25M471.75 215.25H474.25M471.75 215.25V209.75M495.75 160.25H490.75M490.75 160.25H485.75M490.75 160.25V190.75M490.75 190.75H494.25M506.75 190.75H511.25V160.25M511.25 160.25H506.75M511.25 160.25H533.25M533.25 160.25V174.75M533.25 160.25H554.75M545.25 174.75H533.25M533.25 174.75H520.75M557.75 160.25H554.75M554.75 160.25V190.75H557.75M570.25 190.75H575.75M575.75 190.75V160.25M575.75 190.75V270.25M604.75 160.25H575.75M575.75 160.25H570.25M520.75 190.75H533M533 190.75H545.25M533 190.75V270.25M663.75 160.25H628.25M628.25 160.25H625.75M628.25 160.25V188.75H655.25M685.75 160.25H682.25M682.25 160.25H676.75M682.25 160.25V188.75H655.25M655.25 188.75V270.25M738.75 184.25H753.25M847.25 160.25H819.75M819.75 160.25H767.25V184.25M819.75 160.25V184.25H767.25M764.25 184.25H767.25M46.75 134.75V142.75M72.25 134.75H128.25V2.25M58.75 94.25H1.75M1.75 46.25H58.75M819.75 220.25V201.25H844.75V219.75M934.75 119.25H938.75M951.75 119.25H957.75M957.75 119.25H963.25M957.75 119.25V109.25M88.75 94.25V2.75M26.75 180.75H1.25M46.75 180.75H65.25M46.75 180.75V172.25M46.75 180.75V206.75M65.25 180.75V172.25H60.75M65.25 180.75V195.75M46.75 172.25V165.25M46.75 172.25H49.75M46.75 285.25V206.75M46.75 206.75H72.25M25.25 181.25V229.25M85.75 287.25V222.75M85.75 222.75V206.75M85.75 222.75H128.25M128.25 222.75V229.25M128.25 222.75V172.25H99.75V180.25H85.75M85.75 180.25V165.25M85.75 180.25V190.25M58.75 120.25H84.75M84.75 142.75V134.75M171.75 184.25H163.75M160.75 249.25H165.25V287.25H129.25V249.25M146.75 249.25H129.25M129.25 249.25V240.25M404.75 44.25H446.75M493.25 44.25V48.75M493.25 44.25H483.25M471.25 44.25H460.25V5.75M487.75 69.75V82.75M487.75 82.75V93.75M487.75 82.75H404.75M462.25 132.75V110.25H484.25M509.25 121.75V132.75M484.25 110.25H509.25M484.25 110.25V132.75M535.25 82.75H527.75V39.75H563.75M535.25 82.75H563.75M535.25 82.75V132.75M599.75 18.25V1.75M599.75 18.25H656.25M599.75 18.25V39.75M656.25 18.25H735.75M656.25 18.25V1.75M656.25 18.25V40.75M735.75 18.25H815.75M735.75 18.25V1.75M656.25 59.75V93.75M815.75 89.75H785.25M764.75 89.75H735.75M735.75 89.75V94.25M735.75 89.75V81.75M599.75 39.75V82.75H580.75M599.75 39.75H563.75M563.75 39.75V82.75M563.75 82.75H580.75M580.75 82.75V132.75M244.25 267.75C244.25 281.281 233.281 292.25 219.75 292.25C206.219 292.25 195.25 281.281 195.25 267.75C195.25 254.219 206.219 243.25 219.75 243.25C233.281 243.25 244.25 254.219 244.25 267.75Z" stroke="#172736" stroke-opacity="0.25" stroke-width="2.5" stroke-linecap="round"/>
</g>
<text id="title" transform="translate(340.232 274.28) rotate(-90.75)" fill="#172736" xml:space="preserve" style="white-space: pre" font-family="CoFo Weather 20240219" font-size="12" font-weight="500" letter-spacing="0em"><tspan x="0.394531" y="10.14">&#x41b;&#x438;&#x444;&#x442;&#x43e;&#x432;&#x43e;&#x439; &#10;</tspan><tspan x="18.3008" y="22.14">&#x445;&#x43e;&#x43b;&#x43b; 1</tspan></text>
<text id="title_2" transform="translate(904.232 87.2799) rotate(-90.75)" fill="#172736" xml:space="preserve" style="white-space: pre" font-family="CoFo Weather 20240219" font-size="12" font-weight="500" letter-spacing="0em"><tspan x="0.394531" y="10.14">&#x41b;&#x438;&#x444;&#x442;&#x43e;&#x432;&#x43e;&#x439; &#10;</tspan><tspan x="16.1387" y="22.14">&#x445;&#x43e;&#x43b;&#x43b; 2</tspan></text>
<g id="location">
<g id="Group 1202">
<g id="Rectangle 3">
<mask id="path-5-inside-1_271_10980" fill="white">
<rect x="287.25" y="161.25" width="52" height="25" rx="2"/>
</mask>
<rect x="287.25" y="161.25" width="52" height="25" rx="2" fill="#FFA436" fill-opacity="0.8" stroke="#FFA436" stroke-opacity="0.8" stroke-width="5" stroke-linejoin="round" mask="url(#path-5-inside-1_271_10980)"/>
</g>
<text id="title_3" transform="translate(285.25 169.25)" fill="#172736" xml:space="preserve" style="white-space: pre" font-family="CoFo Weather 20240219" font-size="10" font-weight="500" letter-spacing="0em"><tspan x="0.0516548" y="8.45001">&#x412;&#x435;&#x43d;&#x434;&#x438;&#x43d;&#x433;</tspan></text>
</g>
<g id="Group 1200">
<path id="Vector" d="M324.75 88.25H404.75V3.25H129.25V82.25H174.25C180.917 84.4167 196.85 88.75 207.25 88.75C217.65 88.75 227.583 86.4167 231.25 85.25C241.25 82.5833 267.15 77.25 290.75 77.25C314.35 77.25 323.25 84.5833 324.75 88.25Z" fill="#7027E2" fill-opacity="0.8" stroke="#7027E2" stroke-opacity="0.8" stroke-width="2.5" stroke-linecap="round"/>
<text id="title_4" transform="translate(218.25 36.25)" fill="#172736" xml:space="preserve" style="white-space: pre" font-family="CoFo Weather 20240219" font-size="14" font-weight="500" letter-spacing="0em"><tspan x="0.249023" y="11.83">&#x413;&#x430;&#x440;&#x434;&#x435;&#x440;&#x43e;&#x431;</tspan></text>
</g>
<g id="Group 1203">
<g id="Union">
<path d="M219.75 243.25C225.895 243.25 231.511 245.513 235.812 249.25H254.25V315.25H129.25V249.25H203.688C207.989 245.513 213.605 243.25 219.75 243.25Z" fill="#475DEB" fill-opacity="0.8"/>
<path d="M219.75 244.5C225.582 244.5 230.909 246.646 234.991 250.193L235.345 250.5H253V314H130.5V250.5H204.155L204.509 250.193C208.591 246.646 213.918 244.5 219.75 244.5Z" stroke="#475DEB" stroke-opacity="0.8" stroke-width="2.5"/>
</g>
<text id="title_5" transform="translate(157.25 282.25)" fill="#172736" xml:space="preserve" style="white-space: pre" font-family="CoFo Weather 20240219" font-size="12" font-weight="500" letter-spacing="0em"><tspan x="0.0449219" y="10.14">&#x412;&#x445;&#x43e;&#x434;&#x43d;&#x430;&#x44f; &#10;</tspan><tspan x="7.82031" y="22.14">&#x433;&#x440;&#x443;&#x43f;&#x43f;&#x430;</tspan></text>
</g>
<g id="Group 1201">
<g id="Ellipse 34">
<path d="M246.328 102.544C246.323 100.753 246.323 98.9619 246.329 97.1711C246.331 96.6177 246.783 96.1717 247.336 96.1758L274.347 96.3773L319.453 96.7137L320.27 96.7198C320.82 96.7239 321.264 97.1712 321.263 97.7211L321.262 98.5388L321.252 105.914L321.238 116.922L321.226 126.159L321.226 126.163L321.225 126.957C321.224 127.499 320.792 127.941 320.251 127.955L319.451 127.976L284.073 128.905L261.399 129.5L247.863 129.855C247.315 129.87 246.857 129.44 246.838 128.892C246.804 127.946 246.772 127.001 246.742 126.055C246.669 123.784 246.606 121.514 246.552 119.244L246.328 102.544Z" fill="#FFA436" fill-opacity="0.8"/>
<path d="M321.238 116.922L321.252 105.914L321.262 98.5388M321.238 116.922L321.226 126.159M321.238 116.922C321.234 119.841 321.229 123.873 321.226 126.159M319.453 96.7137L274.347 96.3773L247.336 96.1758C246.783 96.1717 246.331 96.6177 246.329 97.1711C246.323 98.9619 246.323 100.753 246.328 102.544L246.552 119.244C246.606 121.514 246.669 123.784 246.742 126.055C246.772 127.001 246.804 127.946 246.838 128.892C246.857 129.44 247.315 129.87 247.863 129.855L261.399 129.5L284.073 128.905L319.451 127.976M319.453 96.7137C320.455 96.7212 321.263 97.5365 321.262 98.5388M319.453 96.7137L320.27 96.7198C320.82 96.7239 321.264 97.1712 321.263 97.7211L321.262 98.5388M321.226 126.159L321.226 126.163M319.451 127.976L320.251 127.955C320.792 127.941 321.224 127.499 321.225 126.957C321.225 126.726 321.225 126.459 321.226 126.163M319.451 127.976C320.437 127.951 321.223 127.148 321.226 126.163" stroke="#FFA436" stroke-opacity="0.8" stroke-width="2.00001" stroke-linejoin="round"/>
</g>
<text id="title_6" transform="translate(246.252 110.518) rotate(-1.30293)" fill="#172736" xml:space="preserve" style="white-space: pre" font-family="CoFo Weather 20240219" font-size="10" font-weight="500" letter-spacing="0em"><tspan x="0.0320854" y="8.45001">&#x41a;&#x43e;&#x444;&#x435;-&#x442;&#x43e;&#x447;&#x43a;&#x430;</tspan></text>
</g>
</g>
</g>
</svg>
