<svg width="1191" height="477" viewBox="0 0 1191 477" fill="none" xmlns="http://www.w3.org/2000/svg">
<rect width="1191" height="477" fill="#F7F8F8"/>
<path d="M33.9348 249.708C33.9715 249.184 34.4072 248.778 34.9324 248.778H51.5C52.0523 248.778 52.5 248.33 52.5 247.778V52.2778C52.5 51.7255 52.9477 51.2778 53.5 51.2778H1141.5C1142.05 51.2778 1142.5 51.7255 1142.5 52.2778V133.778C1142.5 134.33 1142.95 134.778 1143.5 134.778H1152.52C1153.06 134.778 1153.51 135.216 1153.52 135.763L1155.07 237.278L1155.49 264.508C1155.5 264.962 1155.22 265.356 1154.79 265.478C1133.93 271.331 1073.87 287.815 1047 294.278C1042.04 295.471 1036.31 296.807 1030 298.244C1006.13 303.683 973.942 310.574 943.5 316.713C918.374 321.781 894.435 326.337 877.334 329.142C876.85 329.221 876.5 329.638 876.5 330.128V348.278C876.5 348.83 876.052 349.278 875.5 349.278H773.077C773.026 349.278 772.977 349.281 772.926 349.289C743.441 353.859 679.214 363.618 633.5 369.964C627.471 370.801 621.763 371.579 616.5 372.278C608.691 373.314 598.978 374.466 588 375.682C574.374 377.192 558.8 378.803 542.5 380.421C528.282 381.832 513.512 383.249 499 384.609C483.361 386.074 468.023 387.474 454 388.729C438.409 390.126 424.444 391.344 413.5 392.278H408.5H327.5V396.827C327.5 397.359 327.097 397.798 326.565 397.822C319.57 398.144 293.605 399.134 235.5 401.056C220.156 401.563 202.57 402.136 182.5 402.778C85.2454 405.89 37.1747 406.102 24.03 405.804C23.4618 405.791 23.0331 405.306 23.0728 404.739L33.9348 249.708Z" fill="white"/>
<path d="M219 183.778C218.448 183.778 218 184.226 218 184.778V189.278H236V183.778H219Z" fill="white"/>
<path d="M1029 159.278C1029 159.83 1028.55 160.278 1028 160.278H1021.5H1019H1003.5H988.25H973V150.278C973 149.726 973.448 149.278 974 149.278H988.25H993H1003.5H1019H1029V159.278Z" fill="white"/>
<path d="M915.5 163.778C915.5 164.33 915.948 164.778 916.5 164.778H946V150.778H915.5V163.778Z" fill="white"/>
<path d="M327.5 392.278V396.827C327.5 397.359 327.097 397.798 326.565 397.822C319.57 398.144 293.605 399.134 235.5 401.056M327.5 392.278H408.5M327.5 392.278V254.278M1155.07 237.278L1155.49 264.508C1155.5 264.962 1155.22 265.356 1154.79 265.478C1133.93 271.331 1073.87 287.815 1047 294.278C1042.04 295.471 1036.31 296.807 1030 298.244M1155.07 237.278L1153.52 135.763C1153.51 135.216 1153.06 134.778 1152.52 134.778H1143.5C1142.95 134.778 1142.5 134.33 1142.5 133.778V52.2778C1142.5 51.7255 1142.05 51.2778 1141.5 51.2778H53.5C52.9477 51.2778 52.5 51.7255 52.5 52.2778V247.778C52.5 248.33 52.0523 248.778 51.5 248.778H34.9324C34.4072 248.778 33.9715 249.184 33.9348 249.708L23.0728 404.739C23.0331 405.306 23.4618 405.791 24.03 405.804C37.1747 406.102 85.2454 405.89 182.5 402.778C202.57 402.136 220.156 401.563 235.5 401.056M1155.07 237.278L1146.3 228.087C1146.11 227.89 1145.85 227.778 1145.57 227.778H1048.5M685.5 227.778H633.5M633.5 227.778V221.278M633.5 227.778H616.5M633.5 227.778V301.778M633.5 369.964C627.471 370.801 621.763 371.579 616.5 372.278C608.691 373.314 598.978 374.466 588 375.682M633.5 369.964C679.214 363.618 743.441 353.859 772.926 349.289C772.977 349.281 773.026 349.278 773.077 349.278H875.5C876.052 349.278 876.5 348.83 876.5 348.278V330.128C876.5 329.638 876.85 329.221 877.334 329.142C894.435 326.337 918.374 321.781 943.5 316.713M633.5 369.964V356.278M588 375.682V301.778M588 375.682C574.374 377.192 558.8 378.803 542.5 380.421M588 227.778H602.5M588 227.778V259.778M588 227.778H536.5C535.948 227.778 535.5 228.226 535.5 228.778V233.778M633.5 301.778V342.278M633.5 301.778H588M588 301.778V259.778M588 259.778H580M535.5 254.278V259.778M535.5 259.778V300.278M535.5 259.778H546M535.5 259.778H523.5M535.5 300.278H522M535.5 300.278H546M546 300.278V259.778M546 300.278V355.278C546 355.83 545.552 356.278 545 356.278H543.5C542.948 356.278 542.5 356.726 542.5 357.278V380.421M565.5 259.778H546M542.5 380.421C528.282 381.832 513.512 383.249 499 384.609M499 384.609V359.278M499 384.609C483.361 386.074 468.023 387.474 454 388.729M499 259.778V254.278M499 259.778H509M499 259.778V300.278M499 254.278V248.278M499 254.278H462.5M499 300.278H509M499 300.278V330.278M499 235.778V228.778C499 228.226 499.448 227.778 500 227.778H516.5C517.052 227.778 517.5 228.226 517.5 228.778V232.778C517.5 233.33 517.948 233.778 518.5 233.778H535.5M535.5 233.778V239.778M462.5 254.278H442M462.5 254.278V266.778M462.5 282.278V304.778M462.5 320.778V329.278C462.5 329.83 462.948 330.278 463.5 330.278H482.5M499 330.278H482.5M499 330.278V359.278M482.5 330.278V354.278M499 359.278H483.5C482.948 359.278 482.5 358.83 482.5 358.278V354.278M482.5 354.278H455C454.448 354.278 454 354.726 454 355.278V362.778M454 388.729C438.409 390.126 424.444 391.344 413.5 392.278H408.5M454 388.729V378.778M408.5 392.278V370.964C408.5 370.412 408.052 369.964 407.5 369.964H390M410.5 254.278V266.778M410.5 254.278H418M410.5 254.278H394M410.5 282.278V293.528M410.5 293.528V304.778M410.5 293.528H375M375 293.528V254.278M375 293.528V327.778M375 254.278H327.5M375 254.278H394M375 354.278V327.778M375 327.778H410.5M410.5 327.778V320.778M410.5 327.778V335.778M327.5 254.278V241.028M327.5 227.778H372M327.5 227.778V241.028M327.5 227.778H255.5M415 227.778H417C417.552 227.778 418 228.226 418 228.778V254.278M418 254.278H430.5M384.5 227.778H394M394 227.778H403.5M394 227.778V254.278M327.5 241.028H339.5C340.052 241.028 340.5 241.476 340.5 242.028V252.778M218.5 227.778H144.5M144.5 227.778H140M144.5 227.778V234.778C144.5 235.33 144.052 235.778 143.5 235.778H121C120.448 235.778 120 235.33 120 234.778V228.778C120 228.226 120.448 227.778 121 227.778H125.5M240 227.778H235.5M235.5 227.778H231M235.5 227.778V401.056M773 227.778H769M769 227.778H701M769 227.778V349.278M898 227.778H859.5M859.5 227.778H787M859.5 227.778V253.778C859.5 254.33 859.948 254.778 860.5 254.778H943.5M943.5 254.778V227.778M943.5 254.778V316.713M948 227.778H943.5M943.5 227.778H912.5M943.5 316.713C973.942 310.574 1006.13 303.683 1030 298.244M1034.5 227.778H1030M1030 227.778H962.5M1030 227.778V298.244M53.5 248.778H99C99.5523 248.778 100 248.33 100 247.778V218.778M100 204.778V190.278C100 189.726 99.5523 189.278 99 189.278H52M316 189.278H319.5M319.5 189.278H323M319.5 189.278V126.778M319.5 126.778V123.278M319.5 126.778H367M414 126.778V123.278M414 126.778V188.278C414 188.83 413.552 189.278 413 189.278H396M414 126.778H375.5M337.5 189.278H339.5C340.052 189.278 340.5 188.83 340.5 188.278V181.278C340.5 180.726 340.948 180.278 341.5 180.278H375.5M375.5 180.278V189.278M375.5 180.278V126.778M357.5 180.778V188.278C357.5 188.83 357.948 189.278 358.5 189.278H375.5M381.5 189.278H375.5M375.5 126.778H367M367 126.778V51.7778M319.5 109.278V51.7778M414 109.278V104.278M414 104.278V51.7778M414 104.278H419M501 99.7778V104.278M501 104.278V148.778C501 149.33 500.552 149.778 500 149.778H493.5M501 104.278H455M439 143.778V148.778C439 149.33 439.448 149.778 440 149.778H493.5M431.5 104.278H439M439 104.278V129.278M439 104.278H455M455 104.278V51.7778M501 86.2778V51.7778M493.5 149.778V190.778C493.5 191.33 493.948 191.778 494.5 191.778H567M700 191.778H752C752.552 191.778 753 191.33 753 190.778V186.278C753 185.726 753.448 185.278 754 185.278H768M768 185.278V190.778C768 191.33 768.448 191.778 769 191.778H772.5M768 185.278V51.7778M614.5 191.778H634M634 191.778H686M634 191.778V144.278M581 191.778H584.5M584.5 191.778H600.5M584.5 191.778V51.7778M118 189.278H120M120 189.278H126.5M120 189.278V180.278C120 179.726 120.448 179.278 121 179.278H145M145 179.278V182.278M145 179.278V145.278C145 144.726 145.448 144.278 146 144.278H147.5C148.052 144.278 148.5 143.83 148.5 143.278V51.7778M139.5 189.278H145M145 189.278H156.5M145 189.278V182.278M145 182.278H175.5C176.052 182.278 176.5 182.726 176.5 183.278V189.278M170.5 189.278H176.5M176.5 189.278H184M198.5 189.278H218M218 189.278V184.778C218 184.226 218.448 183.778 219 183.778H236M218 189.278H236M236 183.778V189.278M236 183.778V51.7778M236 189.278H303M785.5 191.778H820M820 191.778H838.5M820 191.778V145.778C820 145.226 820.448 144.778 821 144.778H855C855.552 144.778 856 145.226 856 145.778V150.778M856 191.778H852M856 191.778H926M856 191.778V150.778M1021.5 191.778H1028C1028.55 191.778 1029 191.33 1029 190.778V177.778C1029 177.226 1028.55 176.778 1028 176.778H1022.5C1021.95 176.778 1021.5 176.33 1021.5 175.778V160.278M1021.5 160.278H1028C1028.55 160.278 1029 159.83 1029 159.278V149.278M1021.5 160.278H1019M1029 149.278H1040.5M1029 149.278H1019M1029 149.278V140.278M970.5 191.778H973M973 191.778H982M973 191.778V160.278M973 160.278V150.278C973 149.726 973.448 149.278 974 149.278H988.25M973 160.278H988.25M997 191.778H1003.5M1003.5 191.778H1007.5M1003.5 191.778V160.278M1003.5 160.278V149.278M1003.5 160.278H988.25M1003.5 160.278H1019M1003.5 149.278H1019M1003.5 149.278H993M988.25 160.278V149.278M988.25 149.278H993M1019 160.278V149.278M1029 74.7778V51.7778M993 149.278V109.778M993 51.7778V109.778M993 109.778H1029M1029 119.778V109.778M1029 109.778V95.7778M939.5 191.778H946M946 191.778H957M946 191.778V164.778M946 164.778H916.5C915.948 164.778 915.5 164.33 915.5 163.778V150.778M946 164.778V150.778M915.5 150.778H856M915.5 150.778H946M946 150.778V51.7778M1077 183.778H1073.5C1072.95 183.778 1072.5 183.33 1072.5 182.778V172.278M1117.5 183.778H1126.5M1126.5 183.778V197.278M1126.5 183.778V173.278C1126.5 172.726 1126.05 172.278 1125.5 172.278H1099M1072.5 172.278H1099M1072.5 172.278V149.278M1091.5 183.778H1099M1099 183.778H1104.5M1099 183.778V172.278M1072.5 149.278V51.7778M1072.5 149.278H1062" stroke="#BFC4C8" stroke-width="2" stroke-linecap="round" stroke-linejoin="round"/>
<path d="M445.39 171.56H448.038C448.614 171.56 449.043 171.696 449.326 171.968C449.609 172.235 449.75 172.648 449.75 173.208C449.75 173.763 449.609 174.176 449.326 174.448C449.043 174.715 448.614 174.848 448.038 174.848H446.302V177H445.39V171.56ZM448.006 174.08C448.289 174.08 448.497 174.011 448.63 173.872C448.769 173.728 448.838 173.507 448.838 173.208C448.838 172.904 448.769 172.683 448.63 172.544C448.497 172.4 448.289 172.328 448.006 172.328H446.302V174.08H448.006ZM452.262 177.08C451.595 177.08 451.078 176.907 450.71 176.56C450.347 176.213 450.166 175.723 450.166 175.088V174.776C450.166 174.141 450.35 173.651 450.718 173.304C451.086 172.957 451.598 172.784 452.254 172.784C452.905 172.784 453.395 172.955 453.726 173.296C454.062 173.632 454.23 174.115 454.23 174.744C454.23 174.92 454.225 175.059 454.214 175.16L451.014 175.104C451.019 175.968 451.443 176.4 452.286 176.4C452.777 176.4 453.19 176.208 453.526 175.824L454.094 176.312C453.918 176.547 453.673 176.733 453.358 176.872C453.043 177.011 452.678 177.08 452.262 177.08ZM453.39 174.552C453.385 174.189 453.289 173.915 453.102 173.728C452.915 173.536 452.635 173.44 452.262 173.44C451.894 173.44 451.598 173.539 451.374 173.736C451.155 173.933 451.035 174.232 451.014 174.632L453.39 174.552ZM456.871 177.08C456.21 177.08 455.698 176.907 455.335 176.56C454.972 176.213 454.791 175.723 454.791 175.088V174.776C454.791 174.141 454.972 173.651 455.335 173.304C455.698 172.957 456.212 172.784 456.879 172.784C457.375 172.784 457.783 172.891 458.103 173.104C458.428 173.317 458.652 173.624 458.775 174.024L457.983 174.264C457.823 173.731 457.455 173.464 456.879 173.464C456.484 173.464 456.183 173.576 455.975 173.8C455.767 174.019 455.663 174.368 455.663 174.848V175.016C455.663 175.933 456.068 176.392 456.879 176.392C457.46 176.392 457.831 176.123 457.991 175.584L458.767 175.816C458.644 176.221 458.423 176.533 458.103 176.752C457.783 176.971 457.372 177.08 456.871 177.08ZM461.356 177.08C460.689 177.08 460.172 176.907 459.804 176.56C459.441 176.213 459.26 175.723 459.26 175.088V174.776C459.26 174.141 459.444 173.651 459.812 173.304C460.18 172.957 460.692 172.784 461.348 172.784C461.998 172.784 462.489 172.955 462.82 173.296C463.156 173.632 463.324 174.115 463.324 174.744C463.324 174.92 463.318 175.059 463.308 175.16L460.108 175.104C460.113 175.968 460.537 176.4 461.38 176.4C461.87 176.4 462.284 176.208 462.62 175.824L463.188 176.312C463.012 176.547 462.766 176.733 462.452 176.872C462.137 177.011 461.772 177.08 461.356 177.08ZM462.484 174.552C462.478 174.189 462.382 173.915 462.196 173.728C462.009 173.536 461.729 173.44 461.356 173.44C460.988 173.44 460.692 173.539 460.468 173.736C460.249 173.933 460.129 174.232 460.108 174.632L462.484 174.552ZM464.069 172.864H467.885V177H467.021V173.584H464.933V177H464.069V172.864ZM468.866 172.864H469.73V176.28H471.37V172.864H472.242V176.28H473.882V172.864H474.746V177H468.866V172.864ZM475.725 172.864H476.589V174.528H478.701V172.864H479.565V177H478.701V175.24H476.589V177H475.725V172.864Z" fill="#172736"/>
<path d="M484.953 161C484.953 161 475.332 165.656 463.565 165.686C451.798 165.716 442 161.197 442 161.197" stroke="#475DEB" stroke-width="2"/>
<path d="M402.97 196.048L403.362 196.043C403.559 196.04 403.719 196.013 403.841 195.963C403.968 195.908 404.076 195.824 404.165 195.711C404.254 195.592 404.35 195.42 404.453 195.194L403.933 195.202L401.973 191.414L403.021 191.399L404.646 194.703L406.053 191.354L407.053 191.34L405.295 195.326C405.109 195.723 404.935 196.027 404.773 196.238C404.611 196.448 404.426 196.6 404.219 196.694C404.018 196.782 403.76 196.829 403.445 196.833L402.981 196.84L402.97 196.048ZM408.617 193.341L407.121 193.363L407.11 192.643L410.974 192.586L410.984 193.306L409.488 193.328L409.539 196.744L408.667 196.756L408.617 193.341ZM412.512 194.779C412.519 195.217 412.52 195.521 412.518 195.691L414.607 192.532L415.559 192.518L415.62 196.654L414.796 196.666L414.763 194.442C414.757 194.021 414.756 193.722 414.758 193.546L412.677 196.697L411.717 196.711L411.656 192.576L412.48 192.564L412.512 194.779ZM416.181 195.95L416.381 195.947C416.61 195.943 416.774 195.855 416.873 195.683C416.972 195.506 417.023 195.204 417.027 194.777L417.05 192.496L420.457 192.446L420.518 196.582L419.655 196.594L419.604 193.179L417.812 193.205L417.797 194.862C417.788 195.315 417.742 195.673 417.661 195.936C417.579 196.193 417.443 196.382 417.253 196.502C417.068 196.617 416.813 196.676 416.488 196.681L416.192 196.685L416.181 195.95ZM422.292 194.635C422.299 195.073 422.301 195.377 422.298 195.547L424.388 192.388L425.339 192.374L425.4 196.51L424.576 196.522L424.544 194.298C424.537 193.877 424.536 193.578 424.538 193.402L422.457 196.553L421.497 196.567L421.436 192.432L422.26 192.42L422.292 194.635ZM428.036 196.551C427.567 196.558 427.163 196.481 426.825 196.321C426.491 196.16 426.237 195.929 426.062 195.628L426.689 195.267C427.005 195.689 427.458 195.895 428.05 195.887C428.733 195.876 429.071 195.653 429.065 195.215C429.062 195.029 429.004 194.891 428.89 194.802C428.782 194.713 428.606 194.67 428.36 194.674L427.281 194.69L427.272 194.082L428.311 194.066C428.781 194.06 429.013 193.867 429.007 193.488C429.001 193.099 428.673 192.909 428.023 192.919C427.452 192.927 427.02 193.144 426.728 193.57L426.083 193.219C426.254 192.923 426.51 192.69 426.849 192.52C427.193 192.349 427.589 192.261 428.037 192.254C428.597 192.246 429.033 192.336 429.345 192.523C429.657 192.71 429.816 192.993 429.821 193.372C429.825 193.585 429.771 193.778 429.662 193.951C429.552 194.123 429.386 194.251 429.164 194.334C429.651 194.444 429.898 194.758 429.905 195.275C429.911 195.67 429.748 195.979 429.415 196.202C429.088 196.426 428.628 196.542 428.036 196.551ZM431.972 196.485C431.497 196.492 431.122 196.396 430.847 196.197C430.572 195.993 430.432 195.705 430.426 195.331C430.42 194.905 430.565 194.588 430.861 194.381C431.156 194.174 431.616 194.066 432.24 194.057L433.4 194.039L433.396 193.759C433.391 193.445 433.31 193.217 433.154 193.075C433.002 192.928 432.761 192.857 432.43 192.862C432.158 192.866 431.916 192.923 431.705 193.032C431.498 193.137 431.332 193.283 431.207 193.472L430.594 193.113C430.76 192.828 431.008 192.605 431.336 192.446C431.664 192.286 432.031 192.203 432.437 192.197C433.002 192.189 433.438 192.305 433.746 192.546C434.053 192.787 434.211 193.179 434.219 193.723L434.258 196.379L433.466 196.391L433.456 195.711C433.327 195.963 433.13 196.156 432.865 196.288C432.605 196.414 432.308 196.48 431.972 196.485ZM431.257 195.255C431.26 195.452 431.343 195.598 431.504 195.692C431.665 195.78 431.879 195.822 432.146 195.818C432.519 195.813 432.825 195.728 433.062 195.565C433.3 195.396 433.416 195.167 433.412 194.879L433.408 194.615L432.272 194.632C431.92 194.637 431.663 194.692 431.499 194.796C431.335 194.899 431.254 195.053 431.257 195.255ZM435.137 192.23L436.001 192.217L436.052 195.633L438.124 195.602L438.073 192.186L438.937 192.174L438.987 195.589L439.579 195.58L439.605 197.324L438.781 197.336L438.766 196.313L435.198 196.365L435.137 192.23ZM441.017 194.359C441.023 194.796 441.025 195.1 441.022 195.271L443.112 192.112L444.064 192.098L444.125 196.234L443.301 196.246L443.268 194.022C443.262 193.601 443.26 193.302 443.263 193.126L441.181 196.277L440.221 196.291L440.16 192.156L440.984 192.143L441.017 194.359ZM446.041 194.661C445.672 194.613 445.39 194.484 445.195 194.274C445 194.063 444.9 193.771 444.894 193.398C444.888 192.966 445.013 192.639 445.272 192.416C445.535 192.188 445.912 192.071 446.402 192.064L448.666 192.03L448.727 196.166L447.887 196.178L447.865 194.658L446.961 194.672L445.864 196.208L444.832 196.223L446.041 194.661ZM445.758 193.385C445.764 193.817 446.007 194.03 446.487 194.022L447.855 194.002L447.836 192.698L446.468 192.719C445.988 192.726 445.751 192.948 445.758 193.385ZM413.961 204.759C413.273 204.769 412.745 204.604 412.377 204.262C412.015 203.921 411.829 203.406 411.818 202.719L411.81 202.167C411.799 201.404 411.868 200.806 412.016 200.371C412.164 199.937 412.407 199.616 412.746 199.409C413.084 199.196 413.554 199.063 414.156 199.012C414.795 198.965 415.336 198.933 415.779 198.916L415.79 199.7C415.183 199.719 414.66 199.743 414.223 199.771C413.813 199.798 413.489 199.875 413.25 200.001C413.012 200.127 412.839 200.319 412.731 200.577C412.623 200.829 412.561 201.177 412.546 201.62L412.547 201.692C412.671 201.365 412.88 201.119 413.177 200.954C413.478 200.785 413.823 200.697 414.213 200.691C414.805 200.682 415.255 200.836 415.564 201.151C415.872 201.461 416.031 201.926 416.04 202.544L416.044 202.8C416.053 203.419 415.876 203.899 415.513 204.24C415.155 204.576 414.638 204.749 413.961 204.759ZM412.691 202.762C412.698 203.231 412.807 203.571 413.018 203.781C413.229 203.986 413.54 204.085 413.951 204.079C414.361 204.073 414.666 203.965 414.866 203.754C415.071 203.543 415.17 203.205 415.163 202.741L415.161 202.629C415.155 202.16 415.048 201.826 414.843 201.626C414.637 201.426 414.332 201.329 413.926 201.335C413.526 201.341 413.218 201.45 413.003 201.661C412.787 201.872 412.683 202.199 412.689 202.642L412.691 202.762ZM417.026 205.49L417.33 205.486C417.511 205.483 417.655 205.454 417.761 205.399C417.872 205.35 417.967 205.26 418.045 205.131C418.123 205.007 418.206 204.819 418.293 204.567L417.877 204.573L416.312 200.508L417.264 200.494L418.5 203.972L418.508 203.972L419.6 200.46L420.52 200.446L419.071 204.7C418.943 205.086 418.811 205.386 418.676 205.602C418.54 205.817 418.377 205.974 418.187 206.073C417.996 206.172 417.757 206.223 417.469 206.228L417.037 206.234L417.026 205.49ZM422.395 200.418L423.843 203.637L425.187 200.377L426.419 200.359L426.48 204.495L425.64 204.507L425.599 201.211L424.216 204.528L423.456 204.539L421.984 201.265L421.976 201.265L422.032 204.56L421.216 204.572L421.155 200.437L422.395 200.418ZM428.723 204.534C428.248 204.541 427.873 204.445 427.598 204.246C427.323 204.042 427.183 203.753 427.178 203.38C427.171 202.954 427.316 202.637 427.612 202.43C427.907 202.223 428.367 202.115 428.991 202.105L430.151 202.088L430.147 201.808C430.142 201.494 430.061 201.265 429.905 201.124C429.753 200.977 429.512 200.905 429.181 200.91C428.909 200.914 428.668 200.971 428.456 201.081C428.249 201.185 428.084 201.332 427.958 201.52L427.345 201.161C427.511 200.876 427.759 200.654 428.087 200.494C428.416 200.335 428.782 200.252 429.188 200.246C429.753 200.238 430.189 200.354 430.497 200.595C430.805 200.836 430.962 201.228 430.97 201.772L431.009 204.428L430.218 204.439L430.208 203.76C430.078 204.012 429.881 204.204 429.616 204.336C429.356 204.463 429.059 204.529 428.723 204.534ZM428.009 203.304C428.011 203.501 428.094 203.647 428.255 203.74C428.416 203.829 428.63 203.871 428.897 203.867C429.27 203.861 429.576 203.777 429.813 203.613C430.051 203.444 430.168 203.216 430.163 202.928L430.159 202.664L429.024 202.681C428.672 202.686 428.414 202.741 428.25 202.844C428.086 202.948 428.006 203.101 428.009 203.304ZM431.889 200.278L434.776 200.236L434.787 200.956L432.763 200.986L432.813 204.401L431.95 204.414L431.889 200.278ZM436.299 202.43C436.306 202.867 436.308 203.171 436.305 203.342L438.395 200.182L439.346 200.168L439.407 204.304L438.584 204.316L438.551 202.092C438.545 201.671 438.543 201.372 438.546 201.196L436.464 204.347L435.504 204.362L435.443 200.226L436.267 200.214L436.299 202.43Z" fill="#172736"/>
<path d="M428 182.5C428 184.985 425.985 187 423.5 187C421.015 187 419 184.985 419 182.5C419 180.015 421.015 178 423.5 178C425.985 178 428 180.015 428 182.5Z" fill="#73E553"/>
<path d="M1047.68 131.72L1047.67 131.288C1047.67 130.984 1047.59 130.753 1047.42 130.596C1047.26 130.438 1046.99 130.325 1046.62 130.258C1046.24 130.183 1045.7 130.142 1045.01 130.135L1040.66 130.084L1040.58 124.157L1048.74 124.05L1048.76 125.418L1041.79 125.509L1041.83 128.809L1045.21 128.848C1046.16 128.86 1046.9 128.934 1047.42 129.071C1047.93 129.201 1048.31 129.428 1048.54 129.753C1048.77 130.07 1048.89 130.532 1048.9 131.14L1048.9 131.704L1047.68 131.72ZM1045.83 121.342C1046.48 121.333 1046.94 121.332 1047.2 121.336L1042.46 118.194L1042.44 116.766L1048.65 116.685L1048.66 117.921L1045.33 117.964C1044.7 117.973 1044.25 117.974 1043.98 117.97L1048.7 121.1L1048.72 122.54L1042.52 122.621L1042.5 121.386L1045.83 121.342ZM1048.62 111.88L1048.62 112.012C1048.64 113.22 1048.4 114.108 1047.91 114.674C1047.42 115.241 1046.62 115.531 1045.51 115.545C1044.41 115.56 1043.6 115.29 1043.1 114.737C1042.59 114.184 1042.33 113.303 1042.31 112.095L1042.31 111.963L1040.06 111.992L1040.05 110.697L1042.29 110.667L1042.29 110.535C1042.27 109.319 1042.51 108.428 1043.01 107.862C1043.5 107.295 1044.3 107.005 1045.4 106.99C1046.5 106.976 1047.31 107.245 1047.82 107.799C1048.33 108.352 1048.59 109.237 1048.6 110.453L1048.6 110.585L1050.97 110.554L1050.98 111.85L1048.62 111.88ZM1045.49 114.238C1046.3 114.227 1046.86 114.044 1047.17 113.688C1047.47 113.332 1047.62 112.79 1047.61 112.062L1047.61 111.87L1043.32 111.926L1043.32 112.118C1043.33 112.846 1043.49 113.384 1043.81 113.732C1044.12 114.08 1044.69 114.248 1045.49 114.238ZM1047.59 110.418C1047.58 109.69 1047.42 109.152 1047.1 108.804C1046.79 108.456 1046.22 108.288 1045.42 108.298C1044.61 108.309 1044.05 108.492 1043.74 108.848C1043.44 109.204 1043.29 109.746 1043.3 110.474L1043.3 110.666L1047.6 110.61L1047.59 110.418ZM1043.36 104.168L1043.39 106.412L1042.31 106.426L1042.23 100.631L1043.31 100.617L1043.34 102.86L1048.47 102.793L1048.48 104.101L1043.36 104.168ZM1048.51 96.7622C1048.52 97.7781 1048.27 98.5654 1047.76 99.1242C1047.24 99.683 1046.51 99.9686 1045.56 99.981L1045.09 99.9872C1044.14 99.9996 1043.4 99.7333 1042.87 99.1881C1042.35 98.643 1042.08 97.8625 1042.06 96.8465C1042.05 95.8226 1042.3 95.0353 1042.81 94.4845C1043.32 93.9259 1044.05 93.6403 1045.01 93.6277L1045.48 93.6216C1046.44 93.609 1047.18 93.8753 1047.71 94.4204C1048.23 94.9577 1048.49 95.7383 1048.51 96.7622ZM1045.43 98.6626C1046.16 98.653 1046.69 98.4901 1047.01 98.1739C1047.34 97.8576 1047.49 97.3915 1047.49 96.7755C1047.48 96.1596 1047.31 95.6978 1046.98 95.3901C1046.64 95.0744 1046.11 94.9213 1045.39 94.9309L1045.13 94.9342C1044.41 94.9437 1043.88 95.1106 1043.56 95.4349C1043.23 95.7511 1043.07 96.2172 1043.08 96.8332C1043.09 97.4491 1043.26 97.9109 1043.59 98.2186C1043.92 98.5263 1044.45 98.6754 1045.18 98.6659L1045.43 98.6626ZM1042.13 92.4717L1042.08 88.968C1042.07 88.3121 1042.2 87.8104 1042.46 87.463C1042.72 87.1075 1043.11 86.9264 1043.64 86.9195C1044.35 86.9101 1044.83 87.2279 1045.08 87.8727C1045.16 87.5036 1045.33 87.2173 1045.58 87.014C1045.83 86.8028 1046.13 86.6947 1046.5 86.6899C1047.08 86.6824 1047.52 86.8567 1047.82 87.2128C1048.12 87.5689 1048.27 88.1029 1048.28 88.8148L1048.33 92.3905L1042.13 92.4717ZM1047.35 88.9591C1047.34 88.2951 1047.04 87.967 1046.46 87.9746C1046.16 87.9785 1045.94 88.0614 1045.8 88.2232C1045.66 88.3771 1045.59 88.634 1045.6 88.994L1045.62 91.1538L1047.38 91.1309L1047.35 88.9591ZM1044.69 89.1019C1044.68 88.7659 1044.61 88.5229 1044.46 88.3728C1044.31 88.2227 1044.1 88.1494 1043.83 88.153C1043.28 88.1602 1043.01 88.4878 1043.02 89.1358L1043.04 91.1876L1044.71 91.1657L1044.69 89.1019ZM1048.32 82.654C1048.33 83.6699 1048.09 84.4573 1047.57 85.016C1047.06 85.5748 1046.33 85.8604 1045.38 85.8729L1044.91 85.879C1043.96 85.8914 1043.22 85.6251 1042.69 85.08C1042.16 84.5348 1041.89 83.7543 1041.88 82.7384C1041.86 81.7145 1042.11 80.9271 1042.63 80.3764C1043.13 79.8177 1043.86 79.5321 1044.82 79.5195L1045.29 79.5134C1046.25 79.5008 1047 79.7671 1047.52 80.3123C1048.04 80.8495 1048.31 81.6301 1048.32 82.654ZM1045.25 84.5544C1045.98 84.5449 1046.5 84.382 1046.83 84.0657C1047.15 83.7494 1047.31 83.2833 1047.3 82.6674C1047.29 82.0514 1047.12 81.5896 1046.79 81.2819C1046.46 80.9663 1045.93 80.8132 1045.2 80.8227L1044.95 80.826C1044.22 80.8355 1043.7 81.0024 1043.37 81.3267C1043.05 81.643 1042.89 82.1091 1042.9 82.725C1042.91 83.341 1043.08 83.8028 1043.41 84.1105C1043.74 84.4181 1044.27 84.5672 1045 84.5577L1045.25 84.5544ZM1045.25 77.0841C1045.9 77.0756 1046.36 77.0736 1046.62 77.0782L1041.88 73.9359L1041.86 72.5081L1048.07 72.4268L1048.08 73.6627L1044.75 73.7064C1044.12 73.7147 1043.67 73.7165 1043.4 73.712L1048.13 76.8425L1048.14 78.2823L1041.94 78.3636L1041.92 77.1277L1045.25 77.0841ZM1039.98 76.277L1040.04 76.2762C1040.28 76.2731 1040.46 76.2108 1040.57 76.0893C1040.67 75.96 1040.72 75.7513 1040.71 75.4634C1040.71 75.1674 1040.66 74.9601 1040.55 74.8414C1040.44 74.7149 1040.26 74.6532 1040.02 74.6564L1039.96 74.6572L1039.95 73.5773C1040.47 73.5703 1040.86 73.7093 1041.1 73.9941C1041.34 74.2711 1041.46 74.7575 1041.47 75.4535C1041.48 76.1494 1041.37 76.6389 1041.13 76.922C1040.89 77.2052 1040.52 77.3501 1040 77.3569L1039.98 76.277ZM1058.07 116.189L1060.66 117.715L1060.68 119.155L1057.45 117.097L1054.48 119.105L1054.46 117.605L1056.81 116.134L1054.42 114.701L1054.4 113.261L1057.42 115.238L1060.6 113.108L1060.62 114.608L1058.07 116.189ZM1060.68 109.606C1060.69 110.622 1060.44 111.409 1059.93 111.968C1059.41 112.527 1058.68 112.812 1057.73 112.825L1057.26 112.831C1056.31 112.843 1055.57 112.577 1055.04 112.032C1054.52 111.487 1054.25 110.706 1054.23 109.69C1054.22 108.666 1054.47 107.879 1054.98 107.328C1055.49 106.77 1056.22 106.484 1057.18 106.471L1057.65 106.465C1058.61 106.453 1059.35 106.719 1059.88 107.264C1060.4 107.801 1060.66 108.582 1060.68 109.606ZM1057.6 111.506C1058.33 111.497 1058.86 111.334 1059.18 111.018C1059.51 110.701 1059.66 110.235 1059.66 109.619C1059.65 109.003 1059.48 108.542 1059.15 108.234C1058.81 107.918 1058.28 107.765 1057.56 107.775L1057.3 107.778C1056.58 107.787 1056.05 107.954 1055.73 108.279C1055.4 108.595 1055.24 109.061 1055.25 109.677C1055.26 110.293 1055.43 110.755 1055.76 111.062C1056.09 111.37 1056.62 111.519 1057.35 111.51L1057.6 111.506ZM1059.46 105.977L1059.46 105.677C1059.46 105.333 1059.32 105.087 1059.07 104.938C1058.8 104.79 1058.35 104.712 1057.71 104.704L1054.29 104.665L1054.22 99.5532L1060.42 99.4719L1060.44 100.768L1055.32 100.835L1055.35 103.523L1057.84 103.55C1058.52 103.565 1059.05 103.634 1059.45 103.757C1059.83 103.88 1060.11 104.084 1060.29 104.37C1060.47 104.648 1060.56 105.031 1060.56 105.519L1060.57 105.963L1059.46 105.977ZM1059.37 98.63L1059.36 98.3301C1059.36 97.9861 1059.23 97.7398 1058.97 97.5911C1058.7 97.4426 1058.25 97.3645 1057.61 97.3569L1054.19 97.3177L1054.12 92.2061L1060.33 92.1249L1060.34 93.4208L1055.22 93.4879L1055.26 96.1757L1057.74 96.2031C1058.42 96.2182 1058.96 96.2872 1059.35 96.4101C1059.74 96.533 1060.02 96.7373 1060.2 97.023C1060.37 97.3008 1060.46 97.6837 1060.47 98.1716L1060.47 98.6156L1059.37 98.63ZM1059.19 88.5527C1058.15 87.1582 1057.34 86.1207 1056.75 85.4404C1056.15 84.7522 1055.67 84.2944 1055.32 84.0669C1054.97 83.8396 1054.62 83.7281 1054.29 83.7325C1053.85 83.7382 1053.53 83.8863 1053.35 84.1768C1053.15 84.4594 1053.05 84.8407 1053.06 85.3207C1053.07 85.8646 1053.19 86.303 1053.44 86.6358C1053.68 86.9687 1054.08 87.2635 1054.64 87.5202L1054.18 88.6662C1053.44 88.364 1052.88 87.9353 1052.51 87.38C1052.14 86.8249 1051.94 86.1234 1051.93 85.2754C1051.92 84.3955 1052.11 83.697 1052.49 83.1799C1052.87 82.6549 1053.44 82.3874 1054.21 82.3774C1054.69 82.3711 1055.15 82.4891 1055.58 82.7314C1056.02 82.9738 1056.51 83.4033 1057.06 84.0202C1057.61 84.6371 1058.28 85.5243 1059.09 86.6818L1059.03 82.2782L1060.2 82.263L1060.28 88.5384L1059.19 88.5527Z" fill="#172736"/>
<path d="M437.68 340.721L437.674 340.289C437.67 339.985 437.587 339.754 437.425 339.596C437.263 339.438 436.993 339.325 436.616 339.258C436.239 339.183 435.703 339.142 435.007 339.135L430.662 339.084L430.584 333.157L438.743 333.05L438.761 334.418L431.79 334.509L431.833 337.809L435.206 337.849C436.158 337.86 436.895 337.935 437.417 338.072C437.931 338.201 438.306 338.428 438.542 338.753C438.77 339.07 438.888 339.533 438.896 340.141L438.904 340.705L437.68 340.721ZM435.828 330.342C436.484 330.334 436.94 330.332 437.196 330.336L432.462 327.194L432.443 325.766L438.647 325.685L438.663 326.921L435.327 326.965C434.695 326.973 434.247 326.975 433.983 326.97L438.705 330.101L438.724 331.541L432.52 331.622L432.504 330.386L435.828 330.342ZM438.62 320.881L438.622 321.013C438.638 322.221 438.401 323.108 437.913 323.674C437.416 324.241 436.616 324.531 435.512 324.546C434.408 324.56 433.604 324.291 433.101 323.737C432.59 323.184 432.326 322.303 432.31 321.095L432.309 320.963L430.065 320.993L430.048 319.697L432.292 319.667L432.29 319.535C432.274 318.32 432.514 317.428 433.011 316.862C433.5 316.295 434.296 316.005 435.4 315.99C436.504 315.976 437.311 316.245 437.823 316.799C438.326 317.352 438.585 318.237 438.601 319.453L438.603 319.585L440.967 319.554L440.984 320.85L438.62 320.881ZM435.495 323.238C436.303 323.227 436.86 323.044 437.168 322.688C437.475 322.332 437.624 321.79 437.614 321.062L437.612 320.87L433.316 320.926L433.319 321.118C433.328 321.846 433.491 322.384 433.808 322.732C434.124 323.08 434.687 323.248 435.495 323.238ZM437.593 319.418C437.583 318.69 437.42 318.152 437.104 317.804C436.787 317.456 436.225 317.288 435.417 317.298C434.609 317.309 434.051 317.492 433.744 317.848C433.437 318.204 433.288 318.746 433.297 319.474L433.3 319.666L437.595 319.61L437.593 319.418ZM433.359 313.169L433.388 315.412L432.308 315.426L432.232 309.631L433.312 309.617L433.341 311.861L438.465 311.794L438.482 313.101L433.359 313.169ZM438.506 305.762C438.519 306.778 438.27 307.566 437.757 308.124C437.244 308.683 436.512 308.969 435.56 308.981L435.092 308.987C434.14 309 433.401 308.734 432.873 308.188C432.346 307.643 432.076 306.863 432.063 305.847C432.049 304.823 432.299 304.036 432.812 303.485C433.317 302.926 434.049 302.641 435.009 302.628L435.477 302.622C436.437 302.609 437.18 302.876 437.707 303.421C438.226 303.958 438.493 304.739 438.506 305.762ZM435.435 307.663C436.163 307.653 436.689 307.49 437.012 307.174C437.336 306.858 437.494 306.392 437.486 305.776C437.478 305.16 437.308 304.698 436.976 304.39C436.644 304.075 436.114 303.922 435.386 303.931L435.134 303.934C434.406 303.944 433.88 304.111 433.556 304.435C433.232 304.751 433.075 305.217 433.083 305.833C433.091 306.449 433.261 306.911 433.593 307.219C433.925 307.527 434.455 307.676 435.183 307.666L435.435 307.663ZM432.125 301.472L432.08 297.968C432.071 297.312 432.196 296.811 432.456 296.463C432.715 296.108 433.109 295.927 433.637 295.92C434.349 295.91 434.829 296.228 435.077 296.873C435.161 296.504 435.329 296.218 435.582 296.014C435.828 295.803 436.134 295.695 436.502 295.69C437.078 295.683 437.516 295.857 437.817 296.213C438.118 296.569 438.273 297.103 438.282 297.815L438.329 301.391L432.125 301.472ZM437.348 297.959C437.339 297.295 437.043 296.967 436.459 296.975C436.163 296.979 435.944 297.062 435.802 297.223C435.66 297.377 435.591 297.634 435.596 297.994L435.624 300.154L437.376 300.131L437.348 297.959ZM434.686 298.102C434.681 297.766 434.606 297.523 434.46 297.373C434.314 297.223 434.105 297.15 433.833 297.153C433.281 297.16 433.009 297.488 433.018 298.136L433.045 300.188L434.713 300.166L434.686 298.102ZM438.321 291.654C438.335 292.67 438.085 293.458 437.572 294.016C437.06 294.575 436.327 294.861 435.375 294.873L434.907 294.879C433.955 294.892 433.216 294.625 432.689 294.08C432.162 293.535 431.891 292.755 431.878 291.739C431.865 290.715 432.114 289.927 432.627 289.377C433.132 288.818 433.864 288.532 434.824 288.52L435.292 288.514C436.252 288.501 436.996 288.767 437.523 289.313C438.042 289.85 438.308 290.63 438.321 291.654ZM435.25 293.555C435.978 293.545 436.504 293.382 436.828 293.066C437.152 292.75 437.31 292.284 437.302 291.668C437.293 291.052 437.123 290.59 436.791 290.282C436.459 289.966 435.929 289.813 435.201 289.823L434.949 289.826C434.221 289.836 433.695 290.003 433.372 290.327C433.048 290.643 432.89 291.109 432.898 291.725C432.906 292.341 433.076 292.803 433.408 293.111C433.74 293.418 434.27 293.567 434.998 293.558L435.25 293.555ZM435.248 286.084C435.904 286.076 436.36 286.074 436.616 286.078L431.883 282.936L431.864 281.508L438.068 281.427L438.084 282.663L434.748 282.707C434.116 282.715 433.668 282.717 433.404 282.712L438.125 285.843L438.144 287.283L431.941 287.364L431.925 286.128L435.248 286.084ZM429.981 285.277L430.041 285.276C430.281 285.273 430.456 285.211 430.567 285.09C430.669 284.96 430.718 284.752 430.715 284.464C430.711 284.168 430.656 283.96 430.55 283.842C430.437 283.715 430.26 283.653 430.02 283.657L429.96 283.657L429.946 282.577C430.474 282.571 430.86 282.71 431.103 282.994C431.339 283.271 431.461 283.758 431.471 284.454C431.48 285.15 431.366 285.639 431.13 285.922C430.893 286.205 430.515 286.35 429.995 286.357L429.981 285.277ZM448.054 323.725L450.642 325.251L450.661 326.691L447.43 324.633L444.456 326.64L444.436 325.14L446.793 323.669L444.398 322.236L444.379 320.797L447.406 322.773L450.582 320.643L450.602 322.143L448.054 323.725ZM450.656 317.141C450.669 318.157 450.42 318.945 449.907 319.503C449.394 320.062 448.662 320.348 447.71 320.36L447.242 320.366C446.29 320.379 445.551 320.113 445.023 319.567C444.496 319.022 444.226 318.242 444.213 317.226C444.199 316.202 444.449 315.415 444.962 314.864C445.467 314.305 446.199 314.02 447.159 314.007L447.627 314.001C448.587 313.988 449.33 314.255 449.857 314.8C450.376 315.337 450.643 316.118 450.656 317.141ZM447.585 319.042C448.313 319.032 448.839 318.869 449.162 318.553C449.486 318.237 449.644 317.771 449.636 317.155C449.628 316.539 449.458 316.077 449.126 315.769C448.794 315.454 448.264 315.301 447.536 315.31L447.284 315.313C446.556 315.323 446.03 315.49 445.706 315.814C445.382 316.13 445.225 316.597 445.233 317.212C445.241 317.828 445.411 318.29 445.743 318.598C446.075 318.906 446.605 319.055 447.333 319.045L447.585 319.042ZM449.444 313.513L449.441 313.213C449.436 312.869 449.305 312.622 449.047 312.474C448.781 312.325 448.328 312.247 447.688 312.239L444.267 312.2L444.2 307.089L450.403 307.007L450.42 308.303L445.297 308.37L445.332 311.058L447.817 311.086C448.497 311.101 449.034 311.17 449.427 311.293C449.813 311.416 450.096 311.62 450.276 311.906C450.447 312.183 450.536 312.566 450.543 313.054L450.548 313.498L449.444 313.513ZM449.348 306.166L449.344 305.866C449.34 305.522 449.209 305.275 448.951 305.127C448.685 304.978 448.232 304.9 447.592 304.892L444.171 304.853L444.104 299.742L450.307 299.66L450.324 300.956L445.201 301.023L445.236 303.711L447.72 303.739C448.401 303.754 448.938 303.823 449.331 303.946C449.717 304.069 450 304.273 450.179 304.559C450.351 304.836 450.44 305.219 450.446 305.707L450.452 306.151L449.348 306.166ZM443.818 294.418C444.199 294.813 444.415 295.37 444.464 296.09L443.264 296.106C443.228 295.146 442.831 294.487 442.074 294.129L442.061 293.097L450.22 292.99L450.238 294.334L443.818 294.418Z" fill="#172736"/>
<rect x="367" y="51.2778" width="48" height="76" fill="#33D18F" fill-opacity="0.2"/>
<rect x="368.25" y="52.5278" width="45.5" height="73.5" stroke="#33D18F" stroke-opacity="0.2" stroke-width="2.5" stroke-linejoin="round"/>
<path d="M373.26 91.5901H375.5V94.3101H375.044V91.9861H373.716V94.3101H373.26V91.5901ZM376.966 94.3501C376.632 94.3501 376.374 94.2634 376.19 94.0901C376.008 93.9167 375.918 93.6714 375.918 93.3541V93.1981C375.918 92.8807 376.01 92.6354 376.194 92.4621C376.378 92.2887 376.634 92.2021 376.962 92.2021C377.287 92.2021 377.532 92.2874 377.698 92.4581C377.866 92.6261 377.95 92.8674 377.95 93.1821C377.95 93.2701 377.947 93.3394 377.942 93.3901L376.342 93.3621C376.344 93.7941 376.556 94.0101 376.978 94.0101C377.223 94.0101 377.43 93.9141 377.598 93.7221L377.882 93.9661C377.794 94.0834 377.671 94.1767 377.514 94.2461C377.356 94.3154 377.174 94.3501 376.966 94.3501ZM377.53 93.0861C377.527 92.9047 377.479 92.7674 377.386 92.6741C377.292 92.5781 377.152 92.5301 376.966 92.5301C376.782 92.5301 376.634 92.5794 376.522 92.6781C376.412 92.7767 376.352 92.9261 376.342 93.1261L377.53 93.0861ZM378.322 92.2421H378.754V92.5661C378.818 92.4567 378.911 92.3701 379.034 92.3061C379.159 92.2394 379.309 92.2061 379.482 92.2061C379.783 92.2061 380.013 92.2954 380.17 92.4741C380.33 92.6501 380.41 92.8914 380.41 93.1981V93.3541C380.41 93.6607 380.33 93.9034 380.17 94.0821C380.013 94.2581 379.783 94.3461 379.482 94.3461C379.309 94.3461 379.159 94.3141 379.034 94.2501C378.911 94.1861 378.818 94.1007 378.754 93.9941V95.1101H378.322V92.2421ZM378.742 93.3221C378.742 93.5567 378.795 93.7301 378.902 93.8421C379.011 93.9514 379.165 94.0061 379.362 94.0061C379.767 94.0061 379.97 93.7781 379.97 93.3221V93.2261C379.97 92.7727 379.767 92.5461 379.362 92.5461C379.17 92.5461 379.018 92.6021 378.906 92.7141C378.797 92.8234 378.742 92.9941 378.742 93.2261V93.3221ZM381.762 94.3501C381.429 94.3501 381.17 94.2634 380.986 94.0901C380.805 93.9167 380.714 93.6714 380.714 93.3541V93.1981C380.714 92.8807 380.806 92.6354 380.99 92.4621C381.174 92.2887 381.43 92.2021 381.758 92.2021C382.084 92.2021 382.329 92.2874 382.494 92.4581C382.662 92.6261 382.746 92.8674 382.746 93.1821C382.746 93.2701 382.744 93.3394 382.738 93.3901L381.138 93.3621C381.141 93.7941 381.353 94.0101 381.774 94.0101C382.02 94.0101 382.226 93.9141 382.394 93.7221L382.678 93.9661C382.59 94.0834 382.468 94.1767 382.31 94.2461C382.153 94.3154 381.97 94.3501 381.762 94.3501ZM382.326 93.0861C382.324 92.9047 382.276 92.7674 382.182 92.6741C382.089 92.5781 381.949 92.5301 381.762 92.5301C381.578 92.5301 381.43 92.5794 381.318 92.6781C381.209 92.7767 381.149 92.9261 381.138 93.1261L382.326 93.0861ZM383.119 92.2421H384.563V92.6021H383.551V94.3101H383.119V92.2421ZM385.817 94.3501C385.479 94.3501 385.217 94.2634 385.033 94.0901C384.849 93.9167 384.757 93.6714 384.757 93.3541V93.1981C384.757 92.8807 384.849 92.6354 385.033 92.4621C385.217 92.2887 385.479 92.2021 385.817 92.2021C386.159 92.2021 386.42 92.2887 386.601 92.4621C386.785 92.6327 386.877 92.8781 386.877 93.1981V93.3541C386.877 93.6741 386.785 93.9207 386.601 94.0941C386.42 94.2647 386.159 94.3501 385.817 94.3501ZM385.197 93.3181C385.197 93.5607 385.249 93.7367 385.353 93.8461C385.457 93.9554 385.612 94.0101 385.817 94.0101C386.023 94.0101 386.177 93.9554 386.281 93.8461C386.388 93.7367 386.441 93.5607 386.441 93.3181V93.2341C386.441 92.9914 386.388 92.8154 386.281 92.7061C386.177 92.5967 386.023 92.5421 385.817 92.5421C385.612 92.5421 385.457 92.5967 385.353 92.7061C385.249 92.8154 385.197 92.9914 385.197 93.2341V93.3181ZM387.275 92.2421H388.443C388.662 92.2421 388.829 92.2861 388.943 92.3741C389.061 92.4621 389.119 92.5941 389.119 92.7701C389.119 93.0074 389.011 93.1661 388.795 93.2461C388.918 93.2754 389.013 93.3327 389.079 93.4181C389.149 93.5007 389.183 93.6034 389.183 93.7261C389.183 93.9181 389.123 94.0634 389.003 94.1621C388.883 94.2607 388.705 94.3101 388.467 94.3101H387.275V92.2421ZM388.423 93.9981C388.645 93.9981 388.755 93.9007 388.755 93.7061C388.755 93.6074 388.729 93.5341 388.675 93.4861C388.625 93.4381 388.539 93.4141 388.419 93.4141H387.699V93.9981H388.423ZM388.387 93.1101C388.499 93.1101 388.581 93.0861 388.631 93.0381C388.682 92.9901 388.707 92.9207 388.707 92.8301C388.707 92.6461 388.599 92.5541 388.383 92.5541H387.699V93.1101H388.387ZM390.52 94.3501C390.182 94.3501 389.92 94.2634 389.736 94.0901C389.552 93.9167 389.46 93.6714 389.46 93.3541V93.1981C389.46 92.8807 389.552 92.6354 389.736 92.4621C389.92 92.2887 390.182 92.2021 390.52 92.2021C390.862 92.2021 391.123 92.2887 391.304 92.4621C391.488 92.6327 391.58 92.8781 391.58 93.1981V93.3541C391.58 93.6741 391.488 93.9207 391.304 94.0941C391.123 94.2647 390.862 94.3501 390.52 94.3501ZM389.9 93.3181C389.9 93.5607 389.952 93.7367 390.056 93.8461C390.16 93.9554 390.315 94.0101 390.52 94.0101C390.726 94.0101 390.88 93.9554 390.984 93.8461C391.091 93.7367 391.144 93.5607 391.144 93.3181V93.2341C391.144 92.9914 391.091 92.8154 390.984 92.7061C390.88 92.5967 390.726 92.5421 390.52 92.5421C390.315 92.5421 390.16 92.5967 390.056 92.7061C389.952 92.8154 389.9 92.9914 389.9 93.2341V93.3181ZM391.978 92.2421H392.41V92.5661C392.474 92.4567 392.568 92.3701 392.69 92.3061C392.816 92.2394 392.965 92.2061 393.138 92.2061C393.44 92.2061 393.669 92.2954 393.826 92.4741C393.986 92.6501 394.066 92.8914 394.066 93.1981V93.3541C394.066 93.6607 393.986 93.9034 393.826 94.0821C393.669 94.2581 393.44 94.3461 393.138 94.3461C392.965 94.3461 392.816 94.3141 392.69 94.2501C392.568 94.1861 392.474 94.1007 392.41 93.9941V95.1101H391.978V92.2421ZM392.398 93.3221C392.398 93.5567 392.452 93.7301 392.558 93.8421C392.668 93.9514 392.821 94.0061 393.018 94.0061C393.424 94.0061 393.626 93.7781 393.626 93.3221V93.2261C393.626 92.7727 393.424 92.5461 393.018 92.5461C392.826 92.5461 392.674 92.6021 392.562 92.7141C392.453 92.8234 392.398 92.9941 392.398 93.2261V93.3221ZM394.463 92.2421H394.895V93.1461H395.015L395.871 92.2421H396.395L395.491 93.1781L396.443 94.3101H395.899L395.139 93.4061H394.895V94.3101H394.463V92.2421ZM397.282 94.3461C397.045 94.3461 396.858 94.2954 396.722 94.1941C396.586 94.0901 396.518 93.9447 396.518 93.7581C396.518 93.5447 396.593 93.3874 396.742 93.2861C396.892 93.1847 397.122 93.1341 397.434 93.1341H398.014V92.9941C398.014 92.8367 397.976 92.7221 397.898 92.6501C397.824 92.5754 397.704 92.5381 397.538 92.5381C397.402 92.5381 397.281 92.5647 397.174 92.6181C397.07 92.6687 396.986 92.7407 396.922 92.8341L396.618 92.6501C396.704 92.5087 396.829 92.3994 396.994 92.3221C397.16 92.2447 397.344 92.2061 397.546 92.2061C397.829 92.2061 398.046 92.2674 398.198 92.3901C398.35 92.5127 398.426 92.7101 398.426 92.9821V94.3101H398.03V93.9701C397.964 94.0954 397.864 94.1901 397.73 94.2541C397.6 94.3154 397.45 94.3461 397.282 94.3461ZM396.934 93.7261C396.934 93.8247 396.974 93.8981 397.054 93.9461C397.134 93.9914 397.241 94.0141 397.374 94.0141C397.561 94.0141 397.714 93.9741 397.834 93.8941C397.954 93.8114 398.014 93.6981 398.014 93.5541V93.4221H397.446C397.27 93.4221 397.141 93.4474 397.058 93.4981C396.976 93.5487 396.934 93.6247 396.934 93.7261Z" fill="#172736"/>
<rect x="384.729" y="82.2778" width="11.375" height="7.25" rx="1.6875" fill="#33D18F" fill-opacity="0.2"/>
<path d="M387.773 84.9953C387.623 85.1363 387.413 85.2143 387.143 85.2293V84.7793C387.503 84.7703 387.752 84.6248 387.89 84.3428H388.277V87.4028H387.773V84.9953ZM389.559 84.9953C389.409 85.1363 389.199 85.2143 388.929 85.2293V84.7793C389.289 84.7703 389.538 84.6248 389.676 84.3428H390.063V87.4028H389.559V84.9953ZM391.346 84.9953C391.196 85.1363 390.986 85.2143 390.716 85.2293V84.7793C391.076 84.7703 391.325 84.6248 391.463 84.3428H391.85V87.4028H391.346V84.9953ZM393.132 84.9953C392.982 85.1363 392.772 85.2143 392.502 85.2293V84.7793C392.862 84.7703 393.111 84.6248 393.249 84.3428H393.636V87.4028H393.132V84.9953Z" fill="#172736"/>
<rect x="415" y="50" width="40" height="53" fill="#33D18F" fill-opacity="0.2"/>
<rect x="416.25" y="51.25" width="37.5" height="50.5" stroke="#33D18F" stroke-opacity="0.2" stroke-width="2.5" stroke-linejoin="round"/>
<path d="M419.26 81.28H421.5V84H421.044V81.676H419.716V84H419.26V81.28ZM422.966 84.04C422.632 84.04 422.374 83.9533 422.19 83.78C422.008 83.6067 421.918 83.3613 421.918 83.044V82.888C421.918 82.5707 422.01 82.3253 422.194 82.152C422.378 81.9787 422.634 81.892 422.962 81.892C423.287 81.892 423.532 81.9773 423.698 82.148C423.866 82.316 423.95 82.5573 423.95 82.872C423.95 82.96 423.947 83.0293 423.942 83.08L422.342 83.052C422.344 83.484 422.556 83.7 422.978 83.7C423.223 83.7 423.43 83.604 423.598 83.412L423.882 83.656C423.794 83.7733 423.671 83.8667 423.514 83.936C423.356 84.0053 423.174 84.04 422.966 84.04ZM423.53 82.776C423.527 82.5947 423.479 82.4573 423.386 82.364C423.292 82.268 423.152 82.22 422.966 82.22C422.782 82.22 422.634 82.2693 422.522 82.368C422.412 82.4667 422.352 82.616 422.342 82.816L423.53 82.776ZM424.322 81.932H424.754V82.256C424.818 82.1467 424.911 82.06 425.034 81.996C425.159 81.9293 425.309 81.896 425.482 81.896C425.783 81.896 426.013 81.9853 426.17 82.164C426.33 82.34 426.41 82.5813 426.41 82.888V83.044C426.41 83.3507 426.33 83.5933 426.17 83.772C426.013 83.948 425.783 84.036 425.482 84.036C425.309 84.036 425.159 84.004 425.034 83.94C424.911 83.876 424.818 83.7907 424.754 83.684V84.8H424.322V81.932ZM424.742 83.012C424.742 83.2467 424.795 83.42 424.902 83.532C425.011 83.6413 425.165 83.696 425.362 83.696C425.767 83.696 425.97 83.468 425.97 83.012V82.916C425.97 82.4627 425.767 82.236 425.362 82.236C425.17 82.236 425.018 82.292 424.906 82.404C424.797 82.5133 424.742 82.684 424.742 82.916V83.012ZM427.762 84.04C427.429 84.04 427.17 83.9533 426.986 83.78C426.805 83.6067 426.714 83.3613 426.714 83.044V82.888C426.714 82.5707 426.806 82.3253 426.99 82.152C427.174 81.9787 427.43 81.892 427.758 81.892C428.084 81.892 428.329 81.9773 428.494 82.148C428.662 82.316 428.746 82.5573 428.746 82.872C428.746 82.96 428.744 83.0293 428.738 83.08L427.138 83.052C427.141 83.484 427.353 83.7 427.774 83.7C428.02 83.7 428.226 83.604 428.394 83.412L428.678 83.656C428.59 83.7733 428.468 83.8667 428.31 83.936C428.153 84.0053 427.97 84.04 427.762 84.04ZM428.326 82.776C428.324 82.5947 428.276 82.4573 428.182 82.364C428.089 82.268 427.949 82.22 427.762 82.22C427.578 82.22 427.43 82.2693 427.318 82.368C427.209 82.4667 427.149 82.616 427.138 82.816L428.326 82.776ZM429.119 81.932H430.563V82.292H429.551V84H429.119V81.932ZM431.817 84.04C431.479 84.04 431.217 83.9533 431.033 83.78C430.849 83.6067 430.757 83.3613 430.757 83.044V82.888C430.757 82.5707 430.849 82.3253 431.033 82.152C431.217 81.9787 431.479 81.892 431.817 81.892C432.159 81.892 432.42 81.9787 432.601 82.152C432.785 82.3227 432.877 82.568 432.877 82.888V83.044C432.877 83.364 432.785 83.6107 432.601 83.784C432.42 83.9547 432.159 84.04 431.817 84.04ZM431.197 83.008C431.197 83.2507 431.249 83.4267 431.353 83.536C431.457 83.6453 431.612 83.7 431.817 83.7C432.023 83.7 432.177 83.6453 432.281 83.536C432.388 83.4267 432.441 83.2507 432.441 83.008V82.924C432.441 82.6813 432.388 82.5053 432.281 82.396C432.177 82.2867 432.023 82.232 431.817 82.232C431.612 82.232 431.457 82.2867 431.353 82.396C431.249 82.5053 431.197 82.6813 431.197 82.924V83.008ZM433.275 81.932H434.443C434.662 81.932 434.829 81.976 434.943 82.064C435.061 82.152 435.119 82.284 435.119 82.46C435.119 82.6973 435.011 82.856 434.795 82.936C434.918 82.9653 435.013 83.0227 435.079 83.108C435.149 83.1907 435.183 83.2933 435.183 83.416C435.183 83.608 435.123 83.7533 435.003 83.852C434.883 83.9507 434.705 84 434.467 84H433.275V81.932ZM434.423 83.688C434.645 83.688 434.755 83.5907 434.755 83.396C434.755 83.2973 434.729 83.224 434.675 83.176C434.625 83.128 434.539 83.104 434.419 83.104H433.699V83.688H434.423ZM434.387 82.8C434.499 82.8 434.581 82.776 434.631 82.728C434.682 82.68 434.707 82.6107 434.707 82.52C434.707 82.336 434.599 82.244 434.383 82.244H433.699V82.8H434.387ZM436.52 84.04C436.182 84.04 435.92 83.9533 435.736 83.78C435.552 83.6067 435.46 83.3613 435.46 83.044V82.888C435.46 82.5707 435.552 82.3253 435.736 82.152C435.92 81.9787 436.182 81.892 436.52 81.892C436.862 81.892 437.123 81.9787 437.304 82.152C437.488 82.3227 437.58 82.568 437.58 82.888V83.044C437.58 83.364 437.488 83.6107 437.304 83.784C437.123 83.9547 436.862 84.04 436.52 84.04ZM435.9 83.008C435.9 83.2507 435.952 83.4267 436.056 83.536C436.16 83.6453 436.315 83.7 436.52 83.7C436.726 83.7 436.88 83.6453 436.984 83.536C437.091 83.4267 437.144 83.2507 437.144 83.008V82.924C437.144 82.6813 437.091 82.5053 436.984 82.396C436.88 82.2867 436.726 82.232 436.52 82.232C436.315 82.232 436.16 82.2867 436.056 82.396C435.952 82.5053 435.9 82.6813 435.9 82.924V83.008ZM437.978 81.932H438.41V82.256C438.474 82.1467 438.568 82.06 438.69 81.996C438.816 81.9293 438.965 81.896 439.138 81.896C439.44 81.896 439.669 81.9853 439.826 82.164C439.986 82.34 440.066 82.5813 440.066 82.888V83.044C440.066 83.3507 439.986 83.5933 439.826 83.772C439.669 83.948 439.44 84.036 439.138 84.036C438.965 84.036 438.816 84.004 438.69 83.94C438.568 83.876 438.474 83.7907 438.41 83.684V84.8H437.978V81.932ZM438.398 83.012C438.398 83.2467 438.452 83.42 438.558 83.532C438.668 83.6413 438.821 83.696 439.018 83.696C439.424 83.696 439.626 83.468 439.626 83.012V82.916C439.626 82.4627 439.424 82.236 439.018 82.236C438.826 82.236 438.674 82.292 438.562 82.404C438.453 82.5133 438.398 82.684 438.398 82.916V83.012ZM440.463 81.932H440.895V82.836H441.015L441.871 81.932H442.395L441.491 82.868L442.443 84H441.899L441.139 83.096H440.895V84H440.463V81.932ZM443.282 84.036C443.045 84.036 442.858 83.9853 442.722 83.884C442.586 83.78 442.518 83.6347 442.518 83.448C442.518 83.2347 442.593 83.0773 442.742 82.976C442.892 82.8747 443.122 82.824 443.434 82.824H444.014V82.684C444.014 82.5267 443.976 82.412 443.898 82.34C443.824 82.2653 443.704 82.228 443.538 82.228C443.402 82.228 443.281 82.2547 443.174 82.308C443.07 82.3587 442.986 82.4307 442.922 82.524L442.618 82.34C442.704 82.1987 442.829 82.0893 442.994 82.012C443.16 81.9347 443.344 81.896 443.546 81.896C443.829 81.896 444.046 81.9573 444.198 82.08C444.35 82.2027 444.426 82.4 444.426 82.672V84H444.03V83.66C443.964 83.7853 443.864 83.88 443.73 83.944C443.6 84.0053 443.45 84.036 443.282 84.036ZM442.934 83.416C442.934 83.5147 442.974 83.588 443.054 83.636C443.134 83.6813 443.241 83.704 443.374 83.704C443.561 83.704 443.714 83.664 443.834 83.584C443.954 83.5013 444.014 83.388 444.014 83.244V83.112H443.446C443.27 83.112 443.141 83.1373 443.058 83.188C442.976 83.2387 442.934 83.3147 442.934 83.416Z" fill="#172736"/>
<rect x="431" y="74" width="8" height="5" rx="1.6875" fill="#33D18F" fill-opacity="0.2"/>
<path d="M431.794 75.5925C431.644 75.7335 431.434 75.8115 431.164 75.8265V75.3765C431.524 75.3675 431.773 75.222 431.911 74.94H432.298V78H431.794V75.5925ZM433.581 75.5925C433.431 75.7335 433.221 75.8115 432.951 75.8265V75.3765C433.311 75.3675 433.56 75.222 433.698 74.94H434.085V78H433.581V75.5925ZM435.367 75.5925C435.217 75.7335 435.007 75.8115 434.737 75.8265V75.3765C435.097 75.3675 435.346 75.222 435.484 74.94H435.871V78H435.367V75.5925ZM437.702 78.054C437.396 78.054 437.136 78 436.923 77.892C436.713 77.784 436.553 77.6145 436.442 77.3835L436.833 77.154C436.92 77.322 437.034 77.445 437.175 77.523C437.316 77.601 437.49 77.64 437.697 77.64C438.18 77.64 438.422 77.439 438.422 77.037C438.422 76.851 438.375 76.7175 438.282 76.6365C438.189 76.5555 438.045 76.515 437.85 76.515C437.691 76.515 437.52 76.542 437.337 76.596L437.148 76.308L438.215 75.3765H436.617V74.94H438.836V75.3405L437.882 76.173C437.966 76.167 438.023 76.164 438.053 76.164C438.311 76.164 438.521 76.233 438.683 76.371C438.848 76.506 438.93 76.728 438.93 77.037C438.93 77.37 438.825 77.6235 438.615 77.7975C438.405 77.9685 438.101 78.054 437.702 78.054Z" fill="#172736"/>
<path d="M502 103V151H441V128.5V103H502Z" fill="#33D18F" fill-opacity="0.2"/>
<path d="M500.75 149.75H442.25V104.25H500.75V149.75Z" stroke="#33D18F" stroke-opacity="0.2" stroke-width="2.5" stroke-linejoin="round"/>
<path d="M453.26 130.28L455.5 130.28V133H455.044V130.676L453.716 130.676V133H453.26V130.28ZM456.966 133.04C456.632 133.04 456.374 132.953 456.19 132.78C456.008 132.607 455.918 132.361 455.918 132.044V131.888C455.918 131.571 456.01 131.325 456.194 131.152C456.378 130.979 456.634 130.892 456.962 130.892C457.287 130.892 457.532 130.977 457.698 131.148C457.866 131.316 457.95 131.557 457.95 131.872C457.95 131.96 457.947 132.029 457.942 132.08L456.342 132.052C456.344 132.484 456.556 132.7 456.978 132.7C457.223 132.7 457.43 132.604 457.598 132.412L457.882 132.656C457.794 132.773 457.671 132.867 457.514 132.936C457.356 133.005 457.174 133.04 456.966 133.04ZM457.53 131.776C457.527 131.595 457.479 131.457 457.386 131.364C457.292 131.268 457.152 131.22 456.966 131.22C456.782 131.22 456.634 131.269 456.522 131.368C456.412 131.467 456.352 131.616 456.342 131.816L457.53 131.776ZM458.322 130.932H458.754V131.256C458.818 131.147 458.911 131.06 459.034 130.996C459.159 130.929 459.309 130.896 459.482 130.896C459.783 130.896 460.013 130.985 460.17 131.164C460.33 131.34 460.41 131.581 460.41 131.888V132.044C460.41 132.351 460.33 132.593 460.17 132.772C460.013 132.948 459.783 133.036 459.482 133.036C459.309 133.036 459.159 133.004 459.034 132.94C458.911 132.876 458.818 132.791 458.754 132.684V133.8H458.322V130.932ZM458.742 132.012C458.742 132.247 458.795 132.42 458.902 132.532C459.011 132.641 459.165 132.696 459.362 132.696C459.767 132.696 459.97 132.468 459.97 132.012V131.916C459.97 131.463 459.767 131.236 459.362 131.236C459.17 131.236 459.018 131.292 458.906 131.404C458.797 131.513 458.742 131.684 458.742 131.916V132.012ZM461.762 133.04C461.429 133.04 461.17 132.953 460.986 132.78C460.805 132.607 460.714 132.361 460.714 132.044V131.888C460.714 131.571 460.806 131.325 460.99 131.152C461.174 130.979 461.43 130.892 461.758 130.892C462.084 130.892 462.329 130.977 462.494 131.148C462.662 131.316 462.746 131.557 462.746 131.872C462.746 131.96 462.744 132.029 462.738 132.08L461.138 132.052C461.141 132.484 461.353 132.7 461.774 132.7C462.02 132.7 462.226 132.604 462.394 132.412L462.678 132.656C462.59 132.773 462.468 132.867 462.31 132.936C462.153 133.005 461.97 133.04 461.762 133.04ZM462.326 131.776C462.324 131.595 462.276 131.457 462.182 131.364C462.089 131.268 461.949 131.22 461.762 131.22C461.578 131.22 461.43 131.269 461.318 131.368C461.209 131.467 461.149 131.616 461.138 131.816L462.326 131.776ZM463.119 130.932H464.563V131.292H463.551V133H463.119V130.932ZM465.817 133.04C465.479 133.04 465.217 132.953 465.033 132.78C464.849 132.607 464.757 132.361 464.757 132.044V131.888C464.757 131.571 464.849 131.325 465.033 131.152C465.217 130.979 465.479 130.892 465.817 130.892C466.159 130.892 466.42 130.979 466.601 131.152C466.785 131.323 466.877 131.568 466.877 131.888V132.044C466.877 132.364 466.785 132.611 466.601 132.784C466.42 132.955 466.159 133.04 465.817 133.04ZM465.197 132.008C465.197 132.251 465.249 132.427 465.353 132.536C465.457 132.645 465.612 132.7 465.817 132.7C466.023 132.7 466.177 132.645 466.281 132.536C466.388 132.427 466.441 132.251 466.441 132.008V131.924C466.441 131.681 466.388 131.505 466.281 131.396C466.177 131.287 466.023 131.232 465.817 131.232C465.612 131.232 465.457 131.287 465.353 131.396C465.249 131.505 465.197 131.681 465.197 131.924V132.008ZM467.275 130.932H468.443C468.662 130.932 468.829 130.976 468.943 131.064C469.061 131.152 469.119 131.284 469.119 131.46C469.119 131.697 469.011 131.856 468.795 131.936C468.918 131.965 469.013 132.023 469.079 132.108C469.149 132.191 469.183 132.293 469.183 132.416C469.183 132.608 469.123 132.753 469.003 132.852C468.883 132.951 468.705 133 468.467 133H467.275V130.932ZM468.423 132.688C468.645 132.688 468.755 132.591 468.755 132.396C468.755 132.297 468.729 132.224 468.675 132.176C468.625 132.128 468.539 132.104 468.419 132.104H467.699V132.688H468.423ZM468.387 131.8C468.499 131.8 468.581 131.776 468.631 131.728C468.682 131.68 468.707 131.611 468.707 131.52C468.707 131.336 468.599 131.244 468.383 131.244H467.699V131.8H468.387ZM470.52 133.04C470.182 133.04 469.92 132.953 469.736 132.78C469.552 132.607 469.46 132.361 469.46 132.044V131.888C469.46 131.571 469.552 131.325 469.736 131.152C469.92 130.979 470.182 130.892 470.52 130.892C470.862 130.892 471.123 130.979 471.304 131.152C471.488 131.323 471.58 131.568 471.58 131.888V132.044C471.58 132.364 471.488 132.611 471.304 132.784C471.123 132.955 470.862 133.04 470.52 133.04ZM469.9 132.008C469.9 132.251 469.952 132.427 470.056 132.536C470.16 132.645 470.315 132.7 470.52 132.7C470.726 132.7 470.88 132.645 470.984 132.536C471.091 132.427 471.144 132.251 471.144 132.008V131.924C471.144 131.681 471.091 131.505 470.984 131.396C470.88 131.287 470.726 131.232 470.52 131.232C470.315 131.232 470.16 131.287 470.056 131.396C469.952 131.505 469.9 131.681 469.9 131.924V132.008ZM471.978 130.932H472.41V131.256C472.474 131.147 472.568 131.06 472.69 130.996C472.816 130.929 472.965 130.896 473.138 130.896C473.44 130.896 473.669 130.985 473.826 131.164C473.986 131.34 474.066 131.581 474.066 131.888V132.044C474.066 132.351 473.986 132.593 473.826 132.772C473.669 132.948 473.44 133.036 473.138 133.036C472.965 133.036 472.816 133.004 472.69 132.94C472.568 132.876 472.474 132.791 472.41 132.684V133.8H471.978V130.932ZM472.398 132.012C472.398 132.247 472.452 132.42 472.558 132.532C472.668 132.641 472.821 132.696 473.018 132.696C473.424 132.696 473.626 132.468 473.626 132.012V131.916C473.626 131.463 473.424 131.236 473.018 131.236C472.826 131.236 472.674 131.292 472.562 131.404C472.453 131.513 472.398 131.684 472.398 131.916V132.012ZM474.463 130.932H474.895V131.836H475.015L475.871 130.932H476.395L475.491 131.868L476.443 133H475.899L475.139 132.096H474.895V133H474.463V130.932ZM477.282 133.036C477.045 133.036 476.858 132.985 476.722 132.884C476.586 132.78 476.518 132.635 476.518 132.448C476.518 132.235 476.593 132.077 476.742 131.976C476.892 131.875 477.122 131.824 477.434 131.824H478.014V131.684C478.014 131.527 477.976 131.412 477.898 131.34C477.824 131.265 477.704 131.228 477.538 131.228C477.402 131.228 477.281 131.255 477.174 131.308C477.07 131.359 476.986 131.431 476.922 131.524L476.618 131.34C476.704 131.199 476.829 131.089 476.994 131.012C477.16 130.935 477.344 130.896 477.546 130.896C477.829 130.896 478.046 130.957 478.198 131.08C478.35 131.203 478.426 131.4 478.426 131.672V133H478.03V132.66C477.964 132.785 477.864 132.88 477.73 132.944C477.6 133.005 477.45 133.036 477.282 133.036ZM476.934 132.416C476.934 132.515 476.974 132.588 477.054 132.636C477.134 132.681 477.241 132.704 477.374 132.704C477.561 132.704 477.714 132.664 477.834 132.584C477.954 132.501 478.014 132.388 478.014 132.244V132.112H477.446C477.27 132.112 477.141 132.137 477.058 132.188C476.976 132.239 476.934 132.315 476.934 132.416Z" fill="#172736"/>
<rect x="464.184" y="122.204" width="12.375" height="7.25" rx="1.6875" fill="#33D18F" fill-opacity="0.2"/>
<path d="M467.256 124.922C467.106 125.063 466.896 125.141 466.626 125.156V124.706C466.986 124.697 467.235 124.551 467.373 124.269H467.76V127.329H467.256V124.922ZM469.042 124.922C468.892 125.063 468.682 125.141 468.412 125.156V124.706C468.772 124.697 469.021 124.551 469.159 124.269H469.546V127.329H469.042V124.922ZM470.828 124.922C470.678 125.063 470.468 125.141 470.198 125.156V124.706C470.558 124.697 470.807 124.551 470.945 124.269H471.332V127.329H470.828V124.922ZM472.416 127.329C472.668 126.3 473.086 125.427 473.671 124.71H471.943V124.269H474.193V124.665C473.878 125.037 473.623 125.442 473.428 125.88C473.236 126.315 473.089 126.798 472.987 127.329H472.416Z" fill="#172736"/>
<path d="M946 192.278H939H856V151.278H916.5V164.278H946V192.278Z" fill="#FFEDD6" stroke="#FFCF94" stroke-width="2.5" stroke-linecap="round" stroke-linejoin="round"/>
<path d="M886.425 177.288V173.463H887.313L888.5 176.596L889.681 173.463H890.565V177.288H889.94L889.957 174.194L888.793 177.288H888.185L887.021 174.194L887.038 177.288H886.425ZM891.854 175.938C891.854 176.245 891.852 176.459 891.848 176.579L893.35 174.379H894.019V177.288H893.44V175.724C893.44 175.428 893.442 175.218 893.446 175.094L891.949 177.288H891.274V174.379H891.854V175.938ZM894.708 174.379H895.315V175.549H896.8V174.379H897.408V177.288H896.8V176.05H895.315V177.288H894.708V174.379ZM898.676 175.938C898.676 176.245 898.675 176.459 898.671 176.579L900.173 174.379H900.842V177.288H900.263V175.724C900.263 175.428 900.265 175.218 900.268 175.094L898.772 177.288H898.097V174.379H898.676V175.938ZM901.378 175.454H902.886V175.949H901.378V175.454ZM903.42 174.379H904.027V175.651H904.196L905.4 174.379H906.137L904.866 175.696L906.204 177.288H905.439L904.371 176.016H904.027V177.288H903.42V174.379ZM906.754 177.889H906.968C907.095 177.889 907.197 177.871 907.272 177.833C907.35 177.799 907.418 177.738 907.474 177.648C907.53 177.561 907.59 177.43 907.654 177.254H907.362L906.304 174.379H906.973L907.806 176.838H907.812L908.616 174.379H909.263L908.2 177.355C908.106 177.625 908.01 177.835 907.913 177.985C907.815 178.135 907.699 178.244 907.564 178.311C907.429 178.379 907.26 178.413 907.058 178.413H906.754V177.889ZM910.781 176.084L910.049 177.288H909.374L910.359 175.786L909.436 174.379H910.139L910.814 175.493L911.501 174.379H912.176L911.231 175.786L912.209 177.288H911.506L910.781 176.084ZM912.654 174.379H913.261V175.549H914.746V174.379H915.354V177.288H914.746V176.05H913.261V177.288H912.654V174.379ZM916.718 176.202C916.46 176.164 916.263 176.071 916.128 175.921C915.993 175.771 915.925 175.564 915.925 175.302C915.925 174.998 916.017 174.769 916.201 174.616C916.388 174.458 916.655 174.379 917 174.379H918.591V177.288H918.001V176.219H917.365L916.578 177.288H915.852L916.718 176.202ZM916.533 175.302C916.533 175.606 916.701 175.758 917.039 175.758H918.001V174.841H917.039C916.701 174.841 916.533 174.994 916.533 175.302Z" fill="#172736"/>
<rect x="896.441" y="164.278" width="9" height="6" rx="1.5" fill="#FFCF94"/>
<rect x="896.691" y="164.528" width="8.5" height="5.5" rx="1.25" stroke="#FFA436" stroke-opacity="0.2" stroke-width="0.5"/>
<path d="M899.434 168.318C899.104 168.318 898.848 168.231 898.666 168.058C898.485 167.884 898.394 167.639 898.394 167.322V167.166C898.394 166.848 898.485 166.603 898.666 166.43C898.848 166.256 899.105 166.17 899.438 166.17C899.686 166.17 899.89 166.223 900.05 166.33C900.213 166.436 900.325 166.59 900.386 166.79L899.99 166.91C899.91 166.643 899.726 166.51 899.438 166.51C899.241 166.51 899.09 166.566 898.986 166.678C898.882 166.787 898.83 166.962 898.83 167.202V167.286C898.83 167.744 899.033 167.974 899.438 167.974C899.729 167.974 899.914 167.839 899.994 167.57L900.382 167.686C900.321 167.888 900.21 168.044 900.05 168.154C899.89 168.263 899.685 168.318 899.434 168.318ZM901.321 166.138C901.188 166.263 901.001 166.332 900.761 166.346V165.946C901.081 165.938 901.303 165.808 901.425 165.558H901.769V168.278H901.321V166.138ZM902.909 166.138C902.776 166.263 902.589 166.332 902.349 166.346V165.946C902.669 165.938 902.891 165.808 903.013 165.558H903.357V168.278H902.909V166.138Z" fill="#172736"/>
</svg>
